<?xml version="1.0" encoding="UTF-8"?>
<svg xmlns="http://www.w3.org/2000/svg" xmlns:xlink="http://www.w3.org/1999/xlink" version="1.2" >
<font id="N1 400">
<font-face  font-family="N1" units-per-em="2048" ascent="1597" descent="-451" font-style="normal" font-weight="300" font-stretch="normal" cap-height="1143" x-height="885" underline-position="-275" underline-thickness="90" />
<missing-glyph  horiz-adv-x="1229" d="M537 346 Q637 426 701.5 484.5 Q766 543 803 588 Q840 633 854 671 Q868 709 868 750 Q868 788 855 825 Q842 862 810 890 Q778 918 726 934 Q674 950 598 950 Q469 950 399.5 901 Q330 852 330 750 L207 750 Q207 836 239.5 896 Q272 956 326.5 993 Q381 1030 452.5 1046.5 Q524 1063 602 1063 Q705 1063 779.5 1037.5 Q854 1012 902 970 Q950 928 973.5 871.5 Q997 815 997 754 Q997 688 972.5 631.5 Q948 575 898 519 Q848 463 772 404.5 Q696 346 596 279 L537 346 Z M489 106 L698 106 L698 -102 L489 -102 L489 106 Z M0 1294 L1229 1294 L1229 -365 L0 -365 L0 1294 Z M104 -272 L1124 -272 L1124 1202 L104 1202 L104 -272 Z " />
<glyph glyph-name="space" unicode="&#x20;" horiz-adv-x="1229" d="" />
<glyph glyph-name="lslash" unicode="&#x142;" horiz-adv-x="1229" d="M242 111 L555 111 L555 561 L375 518 L375 631 L555 674 L555 1184 L242 1184 L242 1294 L676 1294 L676 702 L858 748 L858 635 L676 590 L676 111 L991 111 L991 0 L242 0 L242 111 Z " />
<glyph glyph-name="Scaron" unicode="&#x160;" horiz-adv-x="1229" d="M344 1614 L426 1614 L614 1362 L803 1614 L885 1614 L680 1223 L549 1223 L344 1614 Z M614 -20 Q524 -20 448.5 1.5 Q373 23 318.5 64.5 Q264 106 234.5 169.5 Q205 233 205 319 L334 319 Q340 213 411.5 154.5 Q483 96 618 96 Q741 96 818 146.5 Q895 197 895 297 Q895 369 852 412 Q809 455 723 483 L479 569 Q365 610 296 679 Q227 748 227 864 Q227 938 257 994.5 Q287 1051 338 1088.5 Q389 1126 458.5 1145.5 Q528 1165 608 1165 Q690 1165 758.5 1145.5 Q827 1126 877.5 1084 Q928 1042 956.5 978.5 Q985 915 985 829 L858 829 Q856 899 830.5 942 Q805 985 768 1008.5 Q731 1032 687 1040.5 Q643 1049 604 1049 Q481 1049 420.5 997.5 Q360 946 360 866 Q360 743 516 688 L760 602 Q897 555 961.5 487.5 Q1026 420 1026 305 Q1026 219 993.5 157.5 Q961 96 905.5 56 Q850 16 775 -2 Q700 -20 614 -20 Z " />
<glyph glyph-name="scaron" unicode="&#x161;" horiz-adv-x="1229" d="M346 1395 L428 1395 L616 1143 L805 1395 L887 1395 L682 1004 L551 1004 L346 1395 Z M635 -20 Q451 -20 343.5 54.5 Q236 129 225 281 L344 281 Q352 197 422 143.5 Q492 90 643 90 Q748 90 813.5 122 Q879 154 879 233 Q879 276 857.5 304 Q836 332 794 351.5 Q752 371 691.5 385 Q631 399 555 418 Q494 432 438.5 449.5 Q383 467 342 492.5 Q301 518 277.5 558 Q254 598 254 659 Q254 725 281.5 772 Q309 819 356 849 Q403 879 469 892 Q535 905 608 905 Q686 905 753.5 889.5 Q821 874 871.5 840.5 Q922 807 952.5 754.5 Q983 702 989 627 L870 627 Q860 682 833.5 715 Q807 748 769 766 Q731 784 688 789.5 Q645 795 606 795 Q377 795 377 668 Q377 627 400.5 602.5 Q424 578 467 560.5 Q510 543 570.5 530.5 Q631 518 705 500 Q772 483 826.5 464.5 Q881 446 919.5 417.5 Q958 389 979.5 347 Q1001 305 1001 244 Q1001 170 972.5 120 Q944 70 894 38 Q844 6 777.5 -7 Q711 -20 635 -20 Z " />
<glyph glyph-name="Yacute" unicode="&#xdd;" horiz-adv-x="1229" d="M551 463 L98 1143 L248 1143 L432 864 L618 569 L803 864 L983 1143 L1133 1143 L680 459 L680 0 L551 0 L551 463 Z M676 1614 L840 1614 L594 1223 L519 1223 L676 1614 Z " />
<glyph glyph-name="yacute" unicode="&#xfd;" horiz-adv-x="1229" d="M180 -264 Q250 -264 305 -250 Q360 -236 403 -204 Q446 -172 481 -123 Q516 -74 545 -4 L166 885 L299 885 L477 446 L612 117 L737 426 L924 885 L1055 885 L674 -10 Q631 -111 583 -180.5 Q535 -250 476.5 -293 Q418 -336 345 -355.5 Q272 -375 180 -375 L180 -264 Z M676 1395 L840 1395 L594 1004 L519 1004 L676 1395 Z " />
<glyph glyph-name="Thorn" unicode="&#xde;" horiz-adv-x="1229" d="M274 1143 L403 1143 L403 915 L578 915 Q797 915 920.5 830 Q1044 745 1044 567 Q1044 393 921.5 306 Q799 219 578 219 L403 219 L403 0 L274 0 L274 1143 Z M403 332 L580 332 Q760 332 835.5 395.5 Q911 459 911 567 Q911 676 835.5 739.5 Q760 803 580 803 L403 803 L403 332 Z " />
<glyph glyph-name="thorn" unicode="&#xfe;" horiz-adv-x="1229" d="M274 1294 L395 1294 L395 791 Q408 805 429.5 824.5 Q451 844 483.5 862.5 Q516 881 559 893 Q602 905 655 905 Q727 905 793.5 879.5 Q860 854 911.5 798.5 Q963 743 993.5 655 Q1024 567 1024 444 Q1024 324 994.5 235.5 Q965 147 913.5 90 Q862 33 796.5 6.5 Q731 -20 657 -20 Q604 -20 562 -8 Q520 4 488.5 21.5 Q457 39 433.5 58.5 Q410 78 395 94 L395 -365 L274 -365 L274 1294 Z M631 92 Q772 92 835.5 189.5 Q899 287 899 442 Q899 598 835.5 695.5 Q772 793 631 793 Q553 793 494.5 766 Q436 739 395 698 L395 186 Q436 145 494.5 118.5 Q553 92 631 92 Z " />
<glyph glyph-name="Zcaron" unicode="&#x17d;" horiz-adv-x="1229" d="M354 1614 L436 1614 L624 1362 L813 1614 L895 1614 L690 1223 L559 1223 L354 1614 Z M219 102 L850 1030 L229 1030 L229 1143 L1001 1143 L1001 1040 L369 113 L1008 113 L1008 0 L219 0 L219 102 Z " />
<glyph glyph-name="zcaron" unicode="&#x17e;" horiz-adv-x="1229" d="M344 1395 L426 1395 L614 1143 L803 1395 L885 1395 L680 1004 L549 1004 L344 1395 Z M242 90 L811 774 L252 774 L252 885 L979 885 L979 795 L410 113 L989 113 L989 0 L242 0 L242 90 Z " />
<glyph glyph-name="onehalf" unicode="&#xbd;" horiz-adv-x="1229" d="M117 618 L275 618 L275 1034 Q252 1012 219.5 999.5 Q187 987 139 987 L117 987 L117 1069 L158 1069 Q254 1069 291 1143 L363 1143 L363 618 L500 618 L500 541 L117 541 L117 618 Z M719 36 Q719 120 755.5 169.5 Q792 219 852 254 L936 303 Q977 327 1007.5 359 Q1038 391 1038 438 Q1038 489 1005.5 515.5 Q973 542 919 542 Q866 542 828 515.5 Q790 489 784 417 L694 417 Q700 522 764.5 569 Q829 616 921 616 Q1014 616 1072 569 Q1130 522 1130 440 Q1130 372 1093.5 328 Q1057 284 999 247 L909 190 Q868 166 843.5 140 Q819 114 815 79 L1145 79 L1145 2 L719 2 L719 36 Z M506 475 L567 475 L567 414 L313 0 L213 0 L506 475 Z M662 729 L915 1143 L1016 1143 L723 668 L662 668 L662 729 Z " />
<glyph glyph-name="onequarter" unicode="&#xbc;" horiz-adv-x="1229" d="M117 618 L275 618 L275 1034 Q252 1012 219.5 999.5 Q187 987 139 987 L117 987 L117 1069 L158 1069 Q254 1069 291 1143 L363 1143 L363 618 L500 618 L500 541 L117 541 L117 618 Z M506 475 L567 475 L567 414 L313 0 L213 0 L506 475 Z M662 729 L915 1143 L1016 1143 L723 668 L662 668 L662 729 Z M954 149 L643 149 L643 211 L958 604 L1038 604 L1038 225 L1136 225 L1136 149 L1038 149 L1038 2 L954 2 L954 149 Z M954 225 L954 485 L745 225 L954 225 Z " />
<glyph glyph-name="onesuperior" unicode="&#xb9;" horiz-adv-x="1229" d="M422 618 L580 618 L580 1034 Q557 1012 524.5 999.5 Q492 987 444 987 L422 987 L422 1069 L463 1069 Q559 1069 596 1143 L668 1143 L668 618 L805 618 L805 541 L422 541 L422 618 Z " />
<glyph glyph-name="threequarters" unicode="&#xbe;" horiz-adv-x="1229" d="M506 475 L567 475 L567 414 L313 0 L213 0 L506 475 Z M662 729 L915 1143 L1016 1143 L723 668 L662 668 L662 729 Z M954 149 L643 149 L643 211 L958 604 L1038 604 L1038 225 L1136 225 L1136 149 L1038 149 L1038 2 L954 2 L954 149 Z M954 225 L954 485 L745 225 L954 225 Z M313 530 Q213 530 148.5 578.5 Q84 627 80 727 L170 727 Q180 606 311 606 Q371 606 407 631.5 Q443 657 443 709 Q443 762 403 789.5 Q363 817 301 817 L281 817 L281 889 L301 889 Q361 889 395.5 910.5 Q430 932 430 981 Q430 1026 397.5 1052.5 Q365 1079 311 1079 Q258 1079 219 1052.5 Q180 1026 176 958 L86 958 Q92 1061 156.5 1108 Q221 1155 313 1155 Q412 1155 467 1107 Q522 1059 522 983 Q522 889 430 854 Q479 836 508 797 Q537 758 537 705 Q537 627 476.5 578.5 Q416 530 313 530 Z " />
<glyph glyph-name="threesuperior" unicode="&#xb3;" horiz-adv-x="1229" d="M618 530 Q518 530 453.5 578.5 Q389 627 385 727 L475 727 Q485 606 616 606 Q676 606 712 631.5 Q748 657 748 709 Q748 762 708 789.5 Q668 817 606 817 L586 817 L586 889 L606 889 Q666 889 700.5 910.5 Q735 932 735 981 Q735 1026 702.5 1052.5 Q670 1079 616 1079 Q563 1079 524 1052.5 Q485 1026 481 958 L391 958 Q397 1061 461.5 1108 Q526 1155 618 1155 Q717 1155 772 1107 Q827 1059 827 983 Q827 889 735 854 Q784 836 813 797 Q842 758 842 705 Q842 627 781.5 578.5 Q721 530 618 530 Z " />
<glyph glyph-name="twosuperior" unicode="&#xb2;" horiz-adv-x="1229" d="M412 575 Q412 659 448.5 708.5 Q485 758 545 793 L629 842 Q670 866 700.5 898 Q731 930 731 977 Q731 1028 698.5 1054.5 Q666 1081 612 1081 Q559 1081 521 1054.5 Q483 1028 477 956 L387 956 Q393 1061 457.5 1108 Q522 1155 614 1155 Q707 1155 765 1108 Q823 1061 823 979 Q823 911 786.5 867 Q750 823 692 786 L602 729 Q561 705 536.5 679 Q512 653 508 618 L838 618 L838 541 L412 541 L412 575 Z " />
<glyph glyph-name="brokenbar" unicode="&#xa6;" horiz-adv-x="1229" d="M559 293 L672 293 L672 -365 L559 -365 L559 293 Z M559 1294 L672 1294 L672 639 L559 639 L559 1294 Z " />
<glyph glyph-name="minus" unicode="&#x2212;" horiz-adv-x="1229" d="M279 500 L952 500 L952 389 L279 389 L279 500 Z " />
<glyph glyph-name="multiply" unicode="&#xd7;" horiz-adv-x="1229" d="M154 61 L537 442 L154 823 L233 905 L614 524 L995 905 L1075 823 L692 442 L1075 61 L995 -20 L614 360 L233 -20 L154 61 Z " />
<glyph glyph-name="Lslash" unicode="&#x141;" horiz-adv-x="1229" d="M274 555 L123 518 L123 631 L274 668 L274 1143 L403 1143 L403 698 L606 748 L606 635 L403 586 L403 113 L989 113 L989 0 L274 0 L274 555 Z " />
<glyph glyph-name="exclam" unicode="&#x21;" horiz-adv-x="1229" d="M549 786 L549 1143 L682 1143 L682 786 L653 395 L578 395 L549 786 Z M510 209 L719 209 L719 0 L510 0 L510 209 Z " />
<glyph glyph-name="quotedbl" unicode="&#x22;" horiz-adv-x="1229" d="M389 612 Q371 768 361.5 858 Q352 948 347 993 Q342 1038 341 1051.5 Q340 1065 340 1071 Q340 1165 434 1165 Q528 1165 528 1071 Q528 1065 527 1051.5 Q526 1038 521 993 Q516 948 507 858 Q498 768 479 612 L389 612 Z M750 612 Q731 768 722 858 Q713 948 707.5 993 Q702 1038 701 1051.5 Q700 1065 700 1071 Q700 1165 795 1165 Q889 1165 889 1071 Q889 1065 888 1051.5 Q887 1038 882 993 Q877 948 867.5 858 Q858 768 840 612 L750 612 Z " />
<glyph glyph-name="numbersign" unicode="&#x23;" horiz-adv-x="1229" d="M317 332 L102 332 L123 430 L338 430 L397 737 L180 737 L201 836 L416 836 L475 1143 L584 1143 L524 836 L807 836 L866 1143 L975 1143 L915 836 L1126 836 L1106 737 L897 737 L838 430 L1049 430 L1028 332 L817 332 L754 0 L645 0 L709 332 L426 332 L362 0 L254 0 L317 332 Z M446 430 L729 430 L788 737 L506 737 L446 430 Z " />
<glyph glyph-name="dollar" unicode="&#x24;" horiz-adv-x="1229" d="M559 -18 Q401 -6 303 78 Q205 162 205 319 L330 319 Q334 225 391.5 167 Q449 109 559 94 L559 545 L485 571 Q371 612 299 681 Q227 750 227 866 Q227 934 251.5 987 Q276 1040 321.5 1077 Q367 1114 427 1135.5 Q487 1157 559 1163 L559 1288 L659 1288 L659 1163 Q803 1151 894 1070 Q985 989 985 829 L862 829 Q860 887 841.5 927 Q823 967 794.5 991.5 Q766 1016 731 1029 Q696 1042 659 1049 L659 633 L756 602 Q895 557 960.5 489.5 Q1026 422 1026 305 Q1026 225 997.5 167 Q969 109 918.5 70 Q868 31 801.5 9.5 Q735 -12 659 -18 L659 -143 L559 -143 L559 -18 Z M659 514 L659 92 Q770 100 834.5 152.5 Q899 205 899 297 Q899 369 857 415 Q815 461 729 489 L659 514 Z M356 866 Q356 739 512 684 L559 666 L559 1051 Q457 1040 406.5 989 Q356 938 356 866 Z " />
<glyph glyph-name="percent" unicode="&#x25;" horiz-adv-x="1229" d="M340 535 Q285 535 232.5 552 Q180 569 140 607 Q100 645 75.5 704.5 Q51 764 51 848 Q51 934 75.5 993.5 Q100 1053 142 1091.5 Q184 1130 236.5 1147.5 Q289 1165 344 1165 Q399 1165 451.5 1147.5 Q504 1130 544 1092.5 Q584 1055 608.5 995.5 Q633 936 633 852 Q633 766 608.5 706.5 Q584 647 542 608 Q500 569 447.5 552 Q395 535 340 535 Z M342 643 Q514 643 514 850 Q514 1057 342 1057 Q170 1057 170 850 Q170 643 342 643 Z M885 -20 Q829 -20 777 -3 Q725 14 685 52 Q645 90 620.5 149.5 Q596 209 596 293 Q596 379 620.5 438.5 Q645 498 687 536.5 Q729 575 781.5 592.5 Q834 610 889 610 Q944 610 996.5 592.5 Q1049 575 1088.5 537.5 Q1128 500 1153 440.5 Q1178 381 1178 297 Q1178 211 1153 151.5 Q1128 92 1086 53 Q1044 14 992 -3 Q940 -20 885 -20 Z M887 88 Q1059 88 1059 295 Q1059 502 887 502 Q715 502 715 295 Q715 88 887 88 Z M432 463 L514 463 L514 381 L221 0 L74 0 L432 463 Z M715 764 L1006 1143 L1153 1143 L797 682 L715 682 L715 764 Z " />
<glyph glyph-name="ampersand" unicode="&#x26;" horiz-adv-x="1229" d="M836 111 L836 535 L600 535 Q457 535 368 480.5 Q279 426 279 311 Q279 254 302.5 216 Q326 178 367 154.5 Q408 131 463 121 Q518 111 584 111 L836 111 Z M565 0 Q358 0 254 82 Q150 164 150 307 Q150 412 201 481.5 Q252 551 350 584 Q272 614 221 678.5 Q170 743 170 848 Q170 924 198.5 983 Q227 1042 278.5 1082 Q330 1122 402.5 1143.5 Q475 1165 561 1165 Q629 1165 697.5 1151 Q766 1137 821.5 1100 Q877 1063 914.5 1000.5 Q952 938 958 842 L834 842 Q823 958 750.5 1006.5 Q678 1055 563 1055 Q506 1055 458 1043.5 Q410 1032 374 1007.5 Q338 983 318.5 943 Q299 903 299 848 Q299 735 379 688 Q459 641 600 641 L1155 641 L1155 535 L961 535 L961 0 L565 0 Z " />
<glyph glyph-name="quotesingle" unicode="&#x27;" horiz-adv-x="1229" d="M569 612 Q551 768 541.5 858 Q532 948 527 993 Q522 1038 521 1051.5 Q520 1065 520 1071 Q520 1165 614 1165 Q709 1165 709 1071 Q709 1065 708 1051.5 Q707 1038 701.5 993 Q696 948 687 858 Q678 768 659 612 L569 612 L569 612 Z " />
<glyph glyph-name="parenleft" unicode="&#x28;" horiz-adv-x="1229" d="M848 -365 Q602 -154 495.5 58 Q389 270 389 465 Q389 659 495.5 871 Q602 1083 848 1294 L973 1294 Q850 1165 763 1057.5 Q676 950 621.5 852 Q567 754 541.5 659.5 Q516 565 516 465 Q516 365 541.5 270.5 Q567 176 621.5 78 Q676 -20 763 -128 Q850 -236 973 -365 L848 -365 L848 -365 Z " />
<glyph glyph-name="parenright" unicode="&#x29;" horiz-adv-x="1229" d="M256 -365 Q379 -236 466 -128 Q553 -20 607.5 78 Q662 176 687.5 270.5 Q713 365 713 465 Q713 565 687.5 659.5 Q662 754 607.5 852 Q553 950 466 1057.5 Q379 1165 256 1294 L381 1294 Q627 1083 733.5 871 Q840 659 840 465 Q840 270 733.5 58 Q627 -154 381 -365 L256 -365 L256 -365 Z " />
<glyph glyph-name="asterisk" unicode="&#x2a;" horiz-adv-x="1229" d="M326 557 L514 838 L197 954 L227 1049 L553 956 L565 1294 L664 1294 L676 956 L1001 1049 L1032 954 L715 838 L903 557 L823 498 L614 764 L406 498 L326 557 Z " />
<glyph glyph-name="plus" unicode="&#x2b;" horiz-adv-x="1229" d="M557 389 L164 389 L164 500 L557 500 L557 885 L674 885 L674 500 L1067 500 L1067 389 L674 389 L674 0 L557 0 L557 389 Z " />
<glyph glyph-name="comma" unicode="&#x2c;" horiz-adv-x="1229" d="M481 -313 Q434 -313 434 -270 Q434 -252 438 -231 L512 209 L727 209 L537 -270 Q526 -297 513 -305 Q500 -313 481 -313 Z " />
<glyph glyph-name="hyphen" unicode="&#x2d;" horiz-adv-x="1229" d="M317 629 L911 629 L911 516 L317 516 L317 629 Z " />
<glyph glyph-name="period" unicode="&#x2e;" horiz-adv-x="1229" d="M510 209 L719 209 L719 0 L510 0 L510 209 Z " />
<glyph glyph-name="slash" unicode="&#x2f;" horiz-adv-x="1229" d="M1061 1294 L1192 1294 L57 -365 L-74 -365 L1061 1294 Z " />
<glyph glyph-name="zero" unicode="0" horiz-adv-x="1229" d="M612 -20 Q502 -20 421 23 Q340 66 286.5 143.5 Q233 221 207.5 329.5 Q182 438 182 567 Q182 702 209 812 Q236 922 290 1000.5 Q344 1079 426 1122 Q508 1165 616 1165 Q727 1165 808 1122 Q889 1079 942 1000.5 Q995 922 1021 813.5 Q1047 705 1047 575 Q1047 440 1020 330.5 Q993 221 939 143.5 Q885 66 803 23 Q721 -20 612 -20 Z M614 94 Q705 94 762 135 Q819 176 853 242.5 Q887 309 900 395 Q913 481 913 571 Q913 662 900 748 Q887 834 853 901.5 Q819 969 762 1010 Q705 1051 614 1051 Q524 1051 467 1010 Q410 969 376 901.5 Q342 834 328.5 748 Q315 662 315 571 Q315 481 328.5 395 Q342 309 376 242.5 Q410 176 467 135 Q524 94 614 94 Z M614 492 Q580 492 557.5 514.5 Q535 537 535 571 Q535 606 557.5 628.5 Q580 651 614 651 Q649 651 671.5 628.5 Q694 606 694 571 Q694 537 671.5 514.5 Q649 492 614 492 Z " />
<glyph glyph-name="one" unicode="1" horiz-adv-x="1229" d="M283 109 L578 109 L578 975 Q530 930 472 908.5 Q414 887 322 887 L283 887 L283 1004 L356 1004 Q438 1004 498.5 1038.5 Q559 1073 592 1143 L702 1143 L702 109 L969 109 L969 0 L283 0 L283 109 Z " />
<glyph glyph-name="two" unicode="2" horiz-adv-x="1229" d="M244 55 Q244 139 265.5 202.5 Q287 266 323.5 314 Q360 362 408.5 399 Q457 436 508 467 L670 563 Q750 610 808 675.5 Q866 741 866 834 Q866 942 795.5 998.5 Q725 1055 612 1055 Q559 1055 510 1043.5 Q461 1032 423 1003.5 Q385 975 360.5 926 Q336 877 330 803 L203 803 Q209 903 245 971.5 Q281 1040 337 1083 Q393 1126 465 1145.5 Q537 1165 614 1165 Q700 1165 771 1141.5 Q842 1118 893 1075 Q944 1032 971.5 970.5 Q999 909 999 836 Q999 768 977.5 715 Q956 662 921.5 617.5 Q887 573 841 536.5 Q795 500 743 469 L563 358 Q485 311 433 250.5 Q381 190 375 113 L1024 113 L1024 0 L244 0 L244 55 Z " />
<glyph glyph-name="three" unicode="3" horiz-adv-x="1229" d="M621 -20 Q535 -20 460 0 Q385 20 327.5 64.5 Q270 109 235.5 177.5 Q201 246 197 342 L324 342 Q334 207 409.5 148.5 Q485 90 621 90 Q741 90 818 144.5 Q895 199 895 309 Q895 367 872.5 411 Q850 455 810 484.5 Q770 514 714.5 529.5 Q659 545 596 545 L573 545 L573 649 L596 649 Q719 649 793.5 693 Q868 737 868 848 Q868 944 797.5 999.5 Q727 1055 614 1055 Q561 1055 512 1043.5 Q463 1032 425 1003.5 Q387 975 362.5 926 Q338 877 332 803 L205 803 Q211 903 247 971.5 Q283 1040 339 1083 Q395 1126 467 1145.5 Q539 1165 616 1165 Q705 1165 775.5 1141.5 Q846 1118 896 1076 Q946 1034 973.5 976 Q1001 918 1001 848 Q1001 756 958 695.5 Q915 635 819 600 Q918 565 973 489.5 Q1028 414 1028 309 Q1028 238 1001.5 177.5 Q975 117 922.5 73 Q870 29 794.5 4.5 Q719 -20 621 -20 Z " />
<glyph glyph-name="four" unicode="4" horiz-adv-x="1229" d="M727 307 L131 307 L131 391 L737 1143 L852 1143 L852 420 L1034 420 L1034 307 L852 307 L852 0 L727 0 L727 307 Z M293 420 L727 420 L727 958 L293 420 Z " />
<glyph glyph-name="five" unicode="5" horiz-adv-x="1229" d="M641 -20 Q567 -20 498.5 0 Q430 20 377 65.5 Q324 111 289 178.5 Q254 246 250 342 L377 342 Q381 272 404.5 224 Q428 176 463 146.5 Q498 117 544 103.5 Q590 90 639 90 Q762 90 831.5 159.5 Q901 229 901 358 Q901 489 823 559 Q745 629 621 629 Q543 629 465 596 Q387 563 340 502 L272 522 L334 1143 L967 1143 L967 1030 L438 1030 L401 670 Q449 702 515.5 720.5 Q582 739 653 739 Q735 739 804.5 711.5 Q874 684 925.5 635 Q977 586 1005.5 515 Q1034 444 1034 358 Q1034 276 1006.5 206.5 Q979 137 926.5 87 Q874 37 801.5 8.5 Q729 -20 641 -20 Z " />
<glyph glyph-name="six" unicode="6" horiz-adv-x="1229" d="M645 -20 Q553 -20 473 12.5 Q393 45 336 114.5 Q279 184 246 295 Q213 406 213 561 Q213 848 326.5 1006.5 Q440 1165 659 1165 Q831 1165 931.5 1067 Q1032 969 1036 803 L909 803 Q903 913 841.5 984 Q780 1055 659 1055 Q512 1055 433 946.5 Q354 838 346 602 Q393 651 467 682 Q541 713 641 713 Q733 713 805 686 Q877 659 928 611 Q979 563 1005.5 494.5 Q1032 426 1032 344 Q1032 266 1005.5 199.5 Q979 133 929 84 Q879 35 807 7.5 Q735 -20 645 -20 Z M643 90 Q758 90 828.5 158.5 Q899 227 899 344 Q899 469 827.5 535.5 Q756 602 639 602 Q547 602 474 573.5 Q401 545 346 498 Q352 385 375.5 307 Q399 229 438 181 Q477 133 529.5 111.5 Q582 90 643 90 Z " />
<glyph glyph-name="seven" unicode="7" horiz-adv-x="1229" d="M504 106 Q504 231 529.5 361.5 Q555 492 606 614.5 Q657 737 733 843.5 Q809 950 907 1030 L324 1030 L324 870 L205 870 L205 1143 L1065 1143 L1065 1038 Q829 842 731 599 Q633 356 633 82 L633 0 L504 0 L504 106 Z " />
<glyph glyph-name="eight" unicode="8" horiz-adv-x="1229" d="M614 -20 Q530 -20 452.5 0 Q375 20 315.5 60 Q256 100 220 161.5 Q184 223 184 305 Q184 422 245.5 488.5 Q307 555 401 586 Q319 616 265 678.5 Q211 741 211 842 Q211 928 245 989.5 Q279 1051 336 1089.5 Q393 1128 465 1146.5 Q537 1165 614 1165 Q690 1165 763 1146.5 Q836 1128 893 1089.5 Q950 1051 984 989.5 Q1018 928 1018 842 Q1018 741 962.5 678.5 Q907 616 825 586 Q920 555 982 488.5 Q1044 422 1044 305 Q1044 223 1008.5 161.5 Q973 100 913.5 60 Q854 20 776 0 Q698 -20 614 -20 Z M614 88 Q674 88 728 100.5 Q782 113 823 139.5 Q864 166 887.5 208 Q911 250 911 307 Q911 369 887.5 411 Q864 453 823 479.5 Q782 506 728 518 Q674 530 614 530 Q555 530 500.5 518 Q446 506 405.5 479.5 Q365 453 341 411 Q317 369 317 307 Q317 250 341 208 Q365 166 405.5 139.5 Q446 113 500.5 100.5 Q555 88 614 88 Z M614 639 Q666 639 715 650.5 Q764 662 802 686.5 Q840 711 862.5 749.5 Q885 788 885 844 Q885 901 862.5 942 Q840 983 802 1008.5 Q764 1034 715 1045.5 Q666 1057 614 1057 Q561 1057 513 1045.5 Q465 1034 427 1008.5 Q389 983 366.5 942 Q344 901 344 844 Q344 788 366.5 749.5 Q389 711 427 686.5 Q465 662 513 650.5 Q561 639 614 639 Z " />
<glyph glyph-name="nine" unicode="9" horiz-adv-x="1229" d="M582 -20 Q401 -20 300 78 Q199 176 195 342 L322 342 Q328 231 390.5 160.5 Q453 90 582 90 Q645 90 699.5 109.5 Q754 129 794 180 Q834 231 857.5 320.5 Q881 410 883 547 Q838 496 765 466 Q692 436 588 436 Q496 436 424 462.5 Q352 489 301 536.5 Q250 584 223.5 651.5 Q197 719 197 803 Q197 881 223.5 947.5 Q250 1014 300 1062 Q350 1110 422 1137.5 Q494 1165 584 1165 Q670 1165 747.5 1135.5 Q825 1106 885.5 1037.5 Q946 969 981 856 Q1016 743 1016 578 Q1016 403 979 288.5 Q942 174 881.5 105.5 Q821 37 743.5 8.5 Q666 -20 582 -20 Z M590 547 Q682 547 753.5 574.5 Q825 602 881 651 Q874 764 849.5 841 Q825 918 787.5 966 Q750 1014 698.5 1034.5 Q647 1055 586 1055 Q471 1055 400.5 987.5 Q330 920 330 803 Q330 678 401.5 612.5 Q473 547 590 547 Z " />
<glyph glyph-name="colon" unicode="&#x3a;" horiz-adv-x="1229" d="M510 209 L719 209 L719 0 L510 0 L510 209 Z M510 885 L719 885 L719 676 L510 676 L510 885 Z " />
<glyph glyph-name="semicolon" unicode="&#x3b;" horiz-adv-x="1229" d="M481 -313 Q434 -313 434 -270 Q434 -252 438 -231 L512 209 L727 209 L537 -270 Q526 -297 513 -305 Q500 -313 481 -313 Z M510 885 L719 885 L719 676 L510 676 L510 885 Z " />
<glyph glyph-name="less" unicode="&#x3c;" horiz-adv-x="1229" d="M152 395 L152 489 L1077 905 L1077 780 L311 442 L1077 109 L1077 -20 L152 395 Z " />
<glyph glyph-name="equal" unicode="&#x3d;" horiz-adv-x="1229" d="M258 328 L973 328 L973 217 L258 217 L258 328 Z M258 672 L973 672 L973 561 L258 561 L258 672 Z " />
<glyph glyph-name="greater" unicode="&#x3e;" horiz-adv-x="1229" d="M152 104 L915 440 L152 776 L152 905 L1077 489 L1077 395 L152 -20 L152 104 Z " />
<glyph glyph-name="question" unicode="&#x3f;" horiz-adv-x="1229" d="M537 449 Q637 528 701.5 586.5 Q766 645 803 690 Q840 735 854 773 Q868 811 868 852 Q868 891 855 928 Q842 965 810 992.5 Q778 1020 726 1036.5 Q674 1053 598 1053 Q469 1053 399.5 1003.5 Q330 954 330 852 L207 852 Q207 938 239.5 998.5 Q272 1059 326.5 1096 Q381 1133 452.5 1149 Q524 1165 602 1165 Q705 1165 779.5 1139.5 Q854 1114 902 1072 Q950 1030 973.5 974 Q997 918 997 856 Q997 791 972.5 734.5 Q948 678 898 621.5 Q848 565 772 507 Q696 449 596 381 L537 449 Z M489 209 L698 209 L698 0 L489 0 L489 209 Z " />
<glyph glyph-name="at" unicode="&#x40;" horiz-adv-x="1229" d="M406 -20 Q360 -20 322.5 -3 Q285 14 257 64.5 Q229 115 214 205 Q199 295 199 442 Q199 592 216 683 Q233 774 263 823 Q293 872 331 888.5 Q369 905 412 905 Q461 905 501 885.5 Q541 866 573 809 L573 885 L680 885 L680 217 Q680 150 715 116 Q750 82 799 82 Q848 82 881.5 116 Q915 150 915 217 L915 823 Q915 913 903 985 Q891 1057 857 1108 Q823 1159 764 1185.5 Q705 1212 610 1212 Q459 1212 396.5 1147.5 Q334 1083 334 989 L219 989 Q219 1036 235.5 1092.5 Q252 1149 296 1198 Q340 1247 417 1281 Q494 1315 616 1315 Q764 1315 846 1267 Q928 1219 969 1145 Q1010 1071 1019 985 Q1028 899 1028 823 L1028 217 Q1028 145 1005.5 99 Q983 53 948 26.5 Q913 0 872 -10 Q831 -20 795 -20 Q709 -20 668 15.5 Q627 51 604 104 Q569 41 521 10.5 Q473 -20 406 -20 Z M432 78 Q479 78 513 106.5 Q547 135 567 170 L567 715 Q547 750 513 778.5 Q479 807 432 807 Q401 807 378.5 788.5 Q356 770 342 728 Q328 686 321.5 616.5 Q315 547 315 442 Q315 338 321.5 268.5 Q328 199 342 157 Q356 115 378.5 96.5 Q401 78 432 78 Z " />
<glyph glyph-name="A" unicode="A" horiz-adv-x="1229" d="M543 1143 L686 1143 L1092 0 L948 0 L852 285 L375 285 L276 0 L137 0 L543 1143 Z M813 397 L743 604 L612 1008 L481 608 L410 397 L813 397 Z " />
<glyph glyph-name="B" unicode="B" horiz-adv-x="1229" d="M274 1143 L602 1143 Q686 1143 758.5 1122.5 Q831 1102 884.5 1064 Q938 1026 968.5 968.5 Q999 911 999 838 Q999 760 961.5 697.5 Q924 635 831 592 Q877 575 915.5 551.5 Q954 528 983 494.5 Q1012 461 1029.5 418 Q1047 375 1047 319 Q1047 246 1015 186.5 Q983 127 928.5 86 Q874 45 799.5 22.5 Q725 0 639 0 L274 0 L274 1143 Z M403 113 L639 113 Q784 113 848.5 176.5 Q913 240 913 328 Q913 426 841.5 477 Q770 528 631 528 L403 528 L403 113 Z M403 641 L584 641 Q721 641 793.5 685 Q866 729 866 829 Q866 920 801.5 975 Q737 1030 594 1030 L403 1030 L403 641 Z " />
<glyph glyph-name="C" unicode="C" horiz-adv-x="1229" d="M635 -20 Q412 -20 297 129.5 Q182 279 182 569 Q182 862 299 1013.5 Q416 1165 645 1165 Q711 1165 779.5 1150 Q848 1135 905.5 1094 Q963 1053 1001.5 981 Q1040 909 1044 799 L915 799 Q885 1055 643 1055 Q539 1055 475.5 1013 Q412 971 376 902.5 Q340 834 327.5 746.5 Q315 659 315 571 Q315 483 327.5 397 Q340 311 376 242.5 Q412 174 475.5 132 Q539 90 643 90 Q885 90 915 346 L1044 346 Q1040 242 1002.5 171 Q965 100 907.5 58 Q850 16 778.5 -2 Q707 -20 635 -20 Z " />
<glyph glyph-name="D" unicode="D" horiz-adv-x="1229" d="M274 1143 L578 1143 Q715 1143 806 1098 Q897 1053 950.5 976 Q1004 899 1025.5 794.5 Q1047 690 1047 573 Q1047 453 1024 348.5 Q1001 244 948 166 Q895 88 804 44 Q713 0 578 0 L274 0 L274 1143 Z M403 113 L578 113 Q692 113 759.5 157 Q827 201 861 268.5 Q895 336 904 417 Q913 498 913 571 Q913 645 904 726 Q895 807 861 874.5 Q827 942 759.5 986 Q692 1030 578 1030 L403 1030 L403 113 Z " />
<glyph glyph-name="E" unicode="E" horiz-adv-x="1229" d="M274 1143 L979 1143 L979 1030 L403 1030 L403 641 L909 641 L909 528 L403 528 L403 113 L979 113 L979 0 L274 0 L274 1143 Z " />
<glyph glyph-name="F" unicode="F" horiz-adv-x="1229" d="M274 1143 L989 1143 L989 1030 L403 1030 L403 612 L918 612 L918 500 L403 500 L403 0 L274 0 L274 1143 Z " />
<glyph glyph-name="G" unicode="G" horiz-adv-x="1229" d="M596 -20 Q477 -20 398 31 Q319 82 271 166 Q223 250 203.5 356.5 Q184 463 184 573 Q184 860 296 1012.5 Q408 1165 616 1165 Q680 1165 746.5 1147.5 Q813 1130 868.5 1085 Q924 1040 960.5 963.5 Q997 887 1001 768 L872 768 Q858 909 794.5 982 Q731 1055 614 1055 Q528 1055 472 1016 Q416 977 381 910.5 Q346 844 331.5 758 Q317 672 317 578 Q317 485 331.5 398 Q346 311 380 242.5 Q414 174 472 132 Q530 90 621 90 Q713 90 774.5 127 Q836 164 870 199 L870 496 L588 496 L588 608 L999 608 L999 0 L901 0 L901 115 Q891 100 867.5 76.5 Q844 53 806 31.5 Q768 10 716 -5 Q664 -20 596 -20 Z " />
<glyph glyph-name="H" unicode="H" horiz-adv-x="1229" d="M274 1143 L403 1143 L403 641 L825 641 L825 1143 L954 1143 L954 0 L825 0 L825 528 L403 528 L403 0 L274 0 L274 1143 Z " />
<glyph glyph-name="I" unicode="I" horiz-adv-x="1229" d="M272 113 L551 113 L551 1030 L272 1030 L272 1143 L958 1143 L958 1030 L680 1030 L680 113 L958 113 L958 0 L272 0 L272 113 Z " />
<glyph glyph-name="J" unicode="J" horiz-adv-x="1229" d="M600 -20 Q498 -20 426 8.5 Q354 37 307 87 Q260 137 238.5 208 Q217 279 217 362 Q217 377 217 394.5 Q217 412 221 432 L350 432 Q348 422 347 400.5 Q346 379 346 358 Q346 301 359.5 253 Q373 205 402.5 169 Q432 133 480 113.5 Q528 94 598 94 Q741 94 795.5 181 Q850 268 850 426 L850 1143 L979 1143 L979 426 Q979 207 890 93.5 Q801 -20 600 -20 Z " />
<glyph glyph-name="K" unicode="K" horiz-adv-x="1229" d="M274 1143 L403 1143 L403 575 L909 1143 L1075 1143 L633 657 L1124 0 L963 0 L551 567 L403 408 L403 0 L274 0 L274 1143 Z " />
<glyph glyph-name="L" unicode="L" horiz-adv-x="1229" d="M274 1143 L403 1143 L403 113 L989 113 L989 0 L274 0 L274 1143 Z " />
<glyph glyph-name="M" unicode="M" horiz-adv-x="1229" d="M205 1143 L391 1143 L537 727 L616 475 L696 727 L842 1143 L1024 1143 L1024 0 L903 0 L903 731 L909 1022 L670 328 L559 328 L319 1022 L326 731 L326 0 L205 0 L205 1143 Z " />
<glyph glyph-name="N" unicode="N" horiz-adv-x="1229" d="M274 1143 L461 1143 L844 129 L831 436 L831 1143 L954 1143 L954 0 L768 0 L385 1014 L397 707 L397 0 L274 0 L274 1143 Z " />
<glyph glyph-name="O" unicode="O" horiz-adv-x="1229" d="M612 -20 Q502 -20 421 23 Q340 66 286.5 143.5 Q233 221 207.5 329.5 Q182 438 182 567 Q182 702 209 812 Q236 922 290 1000.5 Q344 1079 426 1122 Q508 1165 616 1165 Q727 1165 808 1122 Q889 1079 942 1000.5 Q995 922 1021 813.5 Q1047 705 1047 575 Q1047 440 1020 330.5 Q993 221 939 143.5 Q885 66 803 23 Q721 -20 612 -20 Z M614 94 Q705 94 762 135 Q819 176 853 242.5 Q887 309 900 395 Q913 481 913 571 Q913 662 900 748 Q887 834 853 901.5 Q819 969 762 1010 Q705 1051 614 1051 Q524 1051 467 1010 Q410 969 376 901.5 Q342 834 328.5 748 Q315 662 315 571 Q315 481 328.5 395 Q342 309 376 242.5 Q410 176 467 135 Q524 94 614 94 Z " />
<glyph glyph-name="P" unicode="P" horiz-adv-x="1229" d="M274 1143 L578 1143 Q797 1143 920.5 1058 Q1044 973 1044 795 Q1044 621 921.5 533.5 Q799 446 578 446 L403 446 L403 0 L274 0 L274 1143 Z M403 559 L580 559 Q760 559 835.5 622.5 Q911 686 911 795 Q911 903 835.5 966.5 Q760 1030 580 1030 L403 1030 L403 559 Z " />
<glyph glyph-name="Q" unicode="Q" horiz-adv-x="1229" d="M614 94 Q721 94 786 154 L479 449 L635 449 L852 240 Q887 307 900 393 Q913 479 913 569 Q913 659 900 746.5 Q887 834 853 901.5 Q819 969 762 1010 Q705 1051 614 1051 Q524 1051 467 1010 Q410 969 376 901.5 Q342 834 328.5 748 Q315 662 315 571 Q315 481 328.5 395 Q342 309 376 242.5 Q410 176 467 135 Q524 94 614 94 Z M872 70 Q823 27 758.5 3.5 Q694 -20 612 -20 Q502 -20 420 23 Q338 66 285.5 144.5 Q233 223 207.5 330.5 Q182 438 182 567 Q182 700 209 810 Q236 920 290 998.5 Q344 1077 426 1121 Q508 1165 618 1165 Q729 1165 809 1122 Q889 1079 942 1001.5 Q995 924 1021 815.5 Q1047 707 1047 575 Q1047 309 944 154 L1169 -61 L1012 -61 L872 70 Z " />
<glyph glyph-name="R" unicode="R" horiz-adv-x="1229" d="M274 1143 L539 1143 Q758 1143 882 1057 Q1006 971 1006 803 Q1006 662 921 579 Q836 496 700 465 L1081 0 L918 0 L561 451 L403 451 L403 0 L274 0 L274 1143 Z M403 559 L541 559 Q721 559 796.5 626.5 Q872 694 872 795 Q872 895 796.5 962.5 Q721 1030 541 1030 L403 1030 L403 559 Z " />
<glyph glyph-name="S" unicode="S" horiz-adv-x="1229" d="M614 -20 Q524 -20 448.5 1.5 Q373 23 318.5 64.5 Q264 106 234.5 169.5 Q205 233 205 319 L334 319 Q340 213 411.5 154.5 Q483 96 618 96 Q741 96 818 146.5 Q895 197 895 297 Q895 369 852 412 Q809 455 723 483 L479 569 Q365 610 296 679 Q227 748 227 864 Q227 938 257 994.5 Q287 1051 338 1088.5 Q389 1126 458.5 1145.5 Q528 1165 608 1165 Q690 1165 758.5 1145.5 Q827 1126 877.5 1084 Q928 1042 956.5 978.5 Q985 915 985 829 L858 829 Q856 899 830.5 942 Q805 985 768 1008.5 Q731 1032 687 1040.5 Q643 1049 604 1049 Q481 1049 420.5 997.5 Q360 946 360 866 Q360 743 516 688 L760 602 Q897 555 961.5 487.5 Q1026 420 1026 305 Q1026 219 993.5 157.5 Q961 96 905.5 56 Q850 16 775 -2 Q700 -20 614 -20 Z " />
<glyph glyph-name="T" unicode="T" horiz-adv-x="1229" d="M549 1030 L158 1030 L158 1143 L1071 1143 L1071 1030 L678 1030 L678 0 L549 0 L549 1030 Z " />
<glyph glyph-name="U" unicode="U" horiz-adv-x="1229" d="M614 -20 Q424 -20 333 75 Q242 170 242 395 L242 1143 L371 1143 L371 395 Q371 231 426 162.5 Q481 94 614 94 Q750 94 805 162.5 Q860 231 860 395 L860 1143 L989 1143 L989 395 Q989 170 897 75 Q805 -20 614 -20 Z " />
<glyph glyph-name="V" unicode="V" horiz-adv-x="1229" d="M135 1143 L276 1143 L485 522 L614 127 L745 522 L954 1143 L1094 1143 L694 0 L535 0 L135 1143 Z " />
<glyph glyph-name="W" unicode="W" horiz-adv-x="1229" d="M109 1143 L238 1143 L315 485 L358 113 L545 748 L686 748 L872 113 L915 485 L993 1143 L1120 1143 L971 0 L791 0 L614 596 L438 0 L258 0 L109 1143 Z " />
<glyph glyph-name="X" unicode="X" horiz-adv-x="1229" d="M537 588 L152 1143 L307 1143 L489 868 L612 682 L735 868 L918 1143 L1077 1143 L692 588 L1100 0 L944 0 L739 307 L616 494 L494 307 L289 0 L129 0 L537 588 Z " />
<glyph glyph-name="Y" unicode="Y" horiz-adv-x="1229" d="M551 463 L98 1143 L248 1143 L432 864 L618 569 L803 864 L983 1143 L1133 1143 L680 459 L680 0 L551 0 L551 463 Z " />
<glyph glyph-name="Z" unicode="Z" horiz-adv-x="1229" d="M219 102 L850 1030 L229 1030 L229 1143 L1001 1143 L1001 1040 L369 113 L1008 113 L1008 0 L219 0 L219 102 Z " />
<glyph glyph-name="bracketleft" unicode="&#x5b;" horiz-adv-x="1229" d="M422 1294 L967 1294 L967 1192 L539 1192 L539 -262 L967 -262 L967 -365 L422 -365 L422 1294 Z " />
<glyph glyph-name="backslash" unicode="&#x5c;" horiz-adv-x="1229" d="M37 1294 L168 1294 L1303 -365 L1171 -365 L37 1294 Z " />
<glyph glyph-name="bracketright" unicode="&#x5d;" horiz-adv-x="1229" d="M262 -262 L694 -262 L694 1192 L262 1192 L262 1294 L807 1294 L807 -365 L262 -365 L262 -262 Z " />
<glyph glyph-name="asciicircum" unicode="&#x5e;" horiz-adv-x="1229" d="M561 1143 L666 1143 L975 451 L856 451 L614 1014 L373 451 L252 451 L561 1143 Z " />
<glyph glyph-name="underscore" unicode="&#x5f;" horiz-adv-x="1229" d="M45 0 L1184 0 L1184 -111 L45 -111 L45 0 Z " />
<glyph glyph-name="grave" unicode="&#x60;" horiz-adv-x="1229" d="M453 1395 L616 1395 L774 1004 L698 1004 L453 1395 Z " />
<glyph glyph-name="a" unicode="a" horiz-adv-x="1229" d="M500 -20 Q436 -20 381 -6 Q326 8 286 38 Q246 68 223.5 115 Q201 162 201 227 Q201 303 231.5 353 Q262 403 311 431 Q360 459 420.5 470 Q481 481 543 481 Q602 481 676 471 Q750 461 803 444 L803 526 Q803 582 797 631 Q791 680 768 717 Q745 754 700 775.5 Q655 797 578 797 Q338 797 338 592 L217 592 Q217 690 253 750.5 Q289 811 344 846 Q399 881 464.5 893 Q530 905 588 905 Q766 905 845 816 Q924 727 924 561 L924 133 Q924 106 935 97 Q946 88 975 88 Q1022 88 1085 102 L1085 8 Q1063 -2 1025 -11 Q987 -20 942 -20 Q903 -20 879.5 -10 Q856 0 842.5 17.5 Q829 35 824 55.5 Q819 76 819 96 L819 113 Q782 66 703.5 23 Q625 -20 500 -20 Z M508 90 Q600 90 671.5 115.5 Q743 141 803 184 L803 352 Q756 362 688.5 369.5 Q621 377 559 377 Q449 377 384 346 Q319 315 319 229 Q319 90 508 90 Z " />
<glyph glyph-name="b" unicode="b" horiz-adv-x="1229" d="M653 -20 Q555 -20 484.5 19.5 Q414 59 371 113 L371 0 L274 0 L274 1294 L395 1294 L395 791 Q410 807 432.5 826.5 Q455 846 486.5 863.5 Q518 881 561 893 Q604 905 657 905 Q731 905 796.5 879.5 Q862 854 913.5 797.5 Q965 741 994.5 654 Q1024 567 1024 444 Q1024 319 993.5 231 Q963 143 910.5 87 Q858 31 791.5 5.5 Q725 -20 653 -20 Z M631 92 Q772 92 835.5 189.5 Q899 287 899 442 Q899 598 835.5 695.5 Q772 793 631 793 Q553 793 494.5 766 Q436 739 395 698 L395 186 Q436 145 494.5 118.5 Q553 92 631 92 Z " />
<glyph glyph-name="c" unicode="c" horiz-adv-x="1229" d="M623 -20 Q551 -20 477 1.5 Q403 23 343 75 Q283 127 244 216 Q205 305 205 440 Q205 580 245 670 Q285 760 347.5 812 Q410 864 484.5 884.5 Q559 905 629 905 Q686 905 748.5 892 Q811 879 864.5 843 Q918 807 955.5 746.5 Q993 686 999 592 L877 592 Q864 709 797.5 752 Q731 795 633 795 Q485 795 406.5 711 Q328 627 328 444 Q328 262 406.5 176 Q485 90 633 90 Q731 90 797.5 134 Q864 178 877 295 L999 295 Q993 201 955.5 139.5 Q918 78 862.5 43 Q807 8 743.5 -6 Q680 -20 623 -20 Z " />
<glyph glyph-name="d" unicode="d" horiz-adv-x="1229" d="M573 -20 Q504 -20 438.5 4.5 Q373 29 320.5 83 Q268 137 236.5 224 Q205 311 205 438 Q205 559 234.5 647 Q264 735 315.5 792.5 Q367 850 432.5 877.5 Q498 905 571 905 Q623 905 666 893 Q709 881 740.5 863.5 Q772 846 795.5 826.5 Q819 807 834 791 L834 1294 L954 1294 L954 0 L858 0 L858 113 Q821 66 751.5 23 Q682 -20 573 -20 Z M598 92 Q676 92 734.5 118.5 Q793 145 834 186 L834 698 Q793 739 734.5 766 Q676 793 598 793 Q457 793 393.5 695.5 Q330 598 330 442 Q330 287 393.5 189.5 Q457 92 598 92 Z " />
<glyph glyph-name="e" unicode="e" horiz-adv-x="1229" d="M623 -20 Q541 -20 465 5.5 Q389 31 331.5 86 Q274 141 239.5 228 Q205 315 205 440 Q205 573 243 662.5 Q281 752 341 806 Q401 860 476 882.5 Q551 905 623 905 Q690 905 763 883.5 Q836 862 895 810 Q954 758 992 669 Q1030 580 1030 444 L1030 416 L326 416 Q342 86 629 86 Q745 86 817 137 Q889 188 907 287 L1028 287 Q1016 197 973 137.5 Q930 78 871.5 43 Q813 8 746.5 -6 Q680 -20 623 -20 Z M905 516 Q889 659 815 729 Q741 799 614 799 Q487 799 414.5 729 Q342 659 328 516 L905 516 Z " />
<glyph glyph-name="f" unicode="f" horiz-adv-x="1229" d="M252 111 L492 111 L492 774 L252 774 L252 885 L492 885 L492 901 Q492 1090 615.5 1197.5 Q739 1305 981 1305 L981 1194 Q909 1194 842.5 1180.5 Q776 1167 725 1133.5 Q674 1100 643 1043.5 Q612 987 612 901 L612 885 L981 885 L981 774 L612 774 L612 111 L981 111 L981 0 L252 0 L252 111 Z " />
<glyph glyph-name="g" unicode="g" horiz-adv-x="1229" d="M582 -385 Q502 -385 434.5 -370.5 Q367 -356 317.5 -320.5 Q268 -285 240.5 -226.5 Q213 -168 213 -80 L334 -80 Q334 -186 393.5 -233.5 Q453 -281 578 -281 Q664 -281 715 -261.5 Q766 -242 791.5 -208 Q817 -174 825.5 -129 Q834 -84 834 -33 L834 94 Q819 78 796.5 58.5 Q774 39 741.5 21.5 Q709 4 666 -8 Q623 -20 569 -20 Q498 -20 431.5 5.5 Q365 31 314.5 87 Q264 143 234.5 230 Q205 317 205 440 Q205 565 235.5 653 Q266 741 318.5 797.5 Q371 854 437.5 879.5 Q504 905 575 905 Q629 905 674 893 Q719 881 753.5 860.5 Q788 840 815 816.5 Q842 793 858 772 L858 885 L954 885 L954 -43 Q954 -123 936 -186.5 Q918 -250 874.5 -294 Q831 -338 759.5 -361.5 Q688 -385 582 -385 Z M598 92 Q676 92 734.5 118.5 Q793 145 834 186 L834 698 Q793 739 734.5 766 Q676 793 598 793 Q457 793 393.5 695.5 Q330 598 330 442 Q330 287 393.5 189.5 Q457 92 598 92 Z " />
<glyph glyph-name="h" unicode="h" horiz-adv-x="1229" d="M274 1294 L395 1294 L395 795 Q410 811 429.5 830.5 Q449 850 479.5 866.5 Q510 883 553 894 Q596 905 655 905 Q711 905 765 891 Q819 877 862 838 Q905 799 930.5 727 Q956 655 956 543 L956 0 L836 0 L836 512 Q836 582 827.5 635 Q819 688 795.5 724 Q772 760 732 778.5 Q692 797 631 797 Q541 797 483.5 766 Q426 735 395 700 L395 0 L274 0 L274 1294 Z " />
<glyph glyph-name="i" unicode="i" horiz-adv-x="1229" d="M242 111 L569 111 L569 774 L242 774 L242 885 L690 885 L690 111 L991 111 L991 0 L242 0 L242 111 Z M547 1294 L713 1294 L713 1128 L547 1128 L547 1294 Z " />
<glyph glyph-name="j" unicode="j" horiz-adv-x="1229" d="M311 -264 Q383 -264 449.5 -251 Q516 -238 567 -204 Q618 -170 649 -113.5 Q680 -57 680 29 L680 774 L336 774 L336 885 L801 885 L801 16 Q801 -170 677 -272.5 Q553 -375 311 -375 L311 -264 Z M657 1294 L823 1294 L823 1128 L657 1128 L657 1294 Z " />
<glyph glyph-name="k" unicode="k" horiz-adv-x="1229" d="M274 1294 L395 1294 L395 463 L891 885 L1049 885 L651 551 L1067 0 L918 0 L567 481 L395 338 L395 0 L274 0 L274 1294 Z " />
<glyph glyph-name="l" unicode="l" horiz-adv-x="1229" d="M242 111 L555 111 L555 1184 L242 1184 L242 1294 L676 1294 L676 111 L991 111 L991 0 L242 0 L242 111 Z " />
<glyph glyph-name="m" unicode="m" horiz-adv-x="1229" d="M127 885 L223 885 L223 754 Q236 774 256 799.5 Q276 825 305 848.5 Q334 872 373 888.5 Q412 905 459 905 Q530 905 579.5 867 Q629 829 653 760 Q666 780 686.5 804.5 Q707 829 736.5 851.5 Q766 874 804 889.5 Q842 905 889 905 Q983 905 1043.5 837.5 Q1104 770 1104 633 L1104 0 L983 0 L983 602 Q983 690 955.5 743.5 Q928 797 860 797 Q795 797 750 756 Q705 715 676 668 L676 0 L555 0 L555 602 Q555 690 527.5 743.5 Q500 797 432 797 Q367 797 321.5 756 Q276 715 248 668 L248 0 L127 0 L127 885 Z " />
<glyph glyph-name="n" unicode="n" horiz-adv-x="1229" d="M274 885 L371 885 L371 772 Q408 825 477.5 865 Q547 905 659 905 Q715 905 768 891 Q821 877 863 837 Q905 797 930.5 726 Q956 655 956 543 L956 0 L836 0 L836 512 Q836 582 827.5 635 Q819 688 795.5 724 Q772 760 732 778.5 Q692 797 631 797 Q541 797 483.5 766 Q426 735 395 700 L395 0 L274 0 L274 885 Z " />
<glyph glyph-name="o" unicode="o" horiz-adv-x="1229" d="M612 -20 Q539 -20 466 1.5 Q393 23 334.5 76 Q276 129 240.5 218 Q205 307 205 440 Q205 575 242 665.5 Q279 756 338 809 Q397 862 471 883.5 Q545 905 616 905 Q690 905 763 883.5 Q836 862 894 809 Q952 756 988 667 Q1024 578 1024 444 Q1024 309 987 219 Q950 129 890.5 76 Q831 23 757.5 1.5 Q684 -20 612 -20 Z M614 92 Q899 92 899 442 Q899 793 614 793 Q330 793 330 442 Q330 92 614 92 Z " />
<glyph glyph-name="p" unicode="p" horiz-adv-x="1229" d="M274 885 L371 885 L371 772 Q389 795 415.5 818.5 Q442 842 477 861.5 Q512 881 556 893 Q600 905 655 905 Q725 905 790.5 880.5 Q856 856 908.5 802 Q961 748 992.5 659.5 Q1024 571 1024 446 Q1024 326 994.5 238 Q965 150 913.5 92.5 Q862 35 796.5 7.5 Q731 -20 657 -20 Q604 -20 562 -8 Q520 4 488.5 21.5 Q457 39 433.5 58.5 Q410 78 395 94 L395 -365 L274 -365 L274 885 Z M631 92 Q772 92 835.5 189.5 Q899 287 899 442 Q899 598 835.5 695.5 Q772 793 631 793 Q553 793 494.5 766 Q436 739 395 698 L395 186 Q436 145 494.5 118.5 Q553 92 631 92 Z " />
<glyph glyph-name="q" unicode="q" horiz-adv-x="1229" d="M834 94 Q819 78 796.5 58.5 Q774 39 741.5 21.5 Q709 4 666 -8 Q623 -20 569 -20 Q498 -20 431.5 5.5 Q365 31 314.5 87 Q264 143 234.5 230 Q205 317 205 440 Q205 565 235.5 653 Q266 741 318.5 797.5 Q371 854 437.5 879.5 Q504 905 575 905 Q629 905 674 893 Q719 881 755 860.5 Q791 840 816.5 816.5 Q842 793 858 772 L858 885 L954 885 L954 -365 L834 -365 L834 94 Z M598 92 Q676 92 734.5 118.5 Q793 145 834 186 L834 698 Q793 739 734.5 766 Q676 793 598 793 Q457 793 393.5 695.5 Q330 598 330 442 Q330 287 393.5 189.5 Q457 92 598 92 Z " />
<glyph glyph-name="r" unicode="r" horiz-adv-x="1229" d="M242 111 L477 111 L477 774 L242 774 L242 885 L573 885 L573 694 Q588 731 613.5 769 Q639 807 676 837.5 Q713 868 764 886.5 Q815 905 883 905 Q965 905 1036 879 L1036 756 Q1004 768 968 775 Q932 782 889 782 Q829 782 782 766 Q735 750 699.5 725 Q664 700 638 669.5 Q612 639 598 610 L598 111 L991 111 L991 0 L242 0 L242 111 Z " />
<glyph glyph-name="s" unicode="s" horiz-adv-x="1229" d="M635 -20 Q451 -20 343.5 54.5 Q236 129 225 281 L344 281 Q352 197 422 143.5 Q492 90 643 90 Q748 90 813.5 122 Q879 154 879 233 Q879 276 857.5 304 Q836 332 794 351.5 Q752 371 691.5 385 Q631 399 555 418 Q494 432 438.5 449.5 Q383 467 342 492.5 Q301 518 277.5 558 Q254 598 254 659 Q254 725 281.5 772 Q309 819 356 849 Q403 879 469 892 Q535 905 608 905 Q686 905 753.5 889.5 Q821 874 871.5 840.5 Q922 807 952.5 754.5 Q983 702 989 627 L870 627 Q860 682 833.5 715 Q807 748 769 766 Q731 784 688 789.5 Q645 795 606 795 Q377 795 377 668 Q377 627 400.5 602.5 Q424 578 467 560.5 Q510 543 570.5 530.5 Q631 518 705 500 Q772 483 826.5 464.5 Q881 446 919.5 417.5 Q958 389 979.5 347 Q1001 305 1001 244 Q1001 170 972.5 120 Q944 70 894 38 Q844 6 777.5 -7 Q711 -20 635 -20 Z " />
<glyph glyph-name="t" unicode="t" horiz-adv-x="1229" d="M778 -20 Q698 -20 638 -3 Q578 14 537 56 Q496 98 474.5 170 Q453 242 453 350 L453 774 L158 774 L158 885 L453 885 L453 1294 L573 1294 L573 885 L1008 885 L1008 774 L573 774 L573 371 Q573 221 616 155.5 Q659 90 782 90 Q834 90 887 99.5 Q940 109 985 123 L985 12 Q946 -2 895 -11 Q844 -20 778 -20 Z " />
<glyph glyph-name="u" unicode="u" horiz-adv-x="1229" d="M571 -20 Q516 -20 463 -6 Q410 8 368 48 Q326 88 300 158.5 Q274 229 274 342 L274 885 L395 885 L395 373 Q395 303 403.5 250 Q412 197 435.5 161 Q459 125 499 106.5 Q539 88 600 88 Q690 88 747.5 119 Q805 150 836 184 L836 885 L956 885 L956 0 L860 0 L860 113 Q823 59 753.5 19.5 Q684 -20 571 -20 Z " />
<glyph glyph-name="v" unicode="v" horiz-adv-x="1229" d="M170 885 L303 885 L481 446 L616 117 L741 426 L928 885 L1059 885 L682 0 L547 0 L170 885 Z " />
<glyph glyph-name="w" unicode="w" horiz-adv-x="1229" d="M127 885 L248 885 L369 113 L547 694 L682 694 L860 113 L983 885 L1102 885 L948 0 L788 0 L614 565 L440 0 L281 0 L127 885 Z " />
<glyph glyph-name="x" unicode="x" horiz-adv-x="1229" d="M541 455 L162 885 L311 885 L616 532 L920 885 L1065 885 L688 453 L1087 0 L938 0 L610 375 L289 0 L143 0 L541 455 Z " />
<glyph glyph-name="y" unicode="y" horiz-adv-x="1229" d="M180 -264 Q250 -264 305 -250 Q360 -236 403 -204 Q446 -172 481 -123 Q516 -74 545 -4 L166 885 L299 885 L477 446 L612 117 L737 426 L924 885 L1055 885 L674 -10 Q631 -111 583 -180.5 Q535 -250 476.5 -293 Q418 -336 345 -355.5 Q272 -375 180 -375 L180 -264 Z " />
<glyph glyph-name="z" unicode="z" horiz-adv-x="1229" d="M242 90 L811 774 L252 774 L252 885 L979 885 L979 795 L410 113 L989 113 L989 0 L242 0 L242 90 Z " />
<glyph glyph-name="braceleft" unicode="&#x7b;" horiz-adv-x="1229" d="M821 -365 Q727 -365 657.5 -350.5 Q588 -336 543 -301 Q498 -266 475.5 -210 Q453 -154 453 -70 Q453 -66 453 -52.5 Q453 -39 455 -16 L465 162 Q467 190 468 216 Q469 242 469 258 Q469 348 411.5 381 Q354 414 233 414 L233 516 Q354 516 411.5 549 Q469 582 469 672 Q469 688 468 713.5 Q467 739 465 768 L455 946 Q453 969 453 982 Q453 995 453 999 Q453 1083 475.5 1139.5 Q498 1196 543 1231 Q588 1266 657.5 1280 Q727 1294 821 1294 L967 1294 L967 1192 L829 1192 Q768 1192 721 1187 Q674 1182 640 1160.5 Q606 1139 588.5 1097 Q571 1055 571 981 Q571 977 571 967.5 Q571 958 573 936 L588 707 Q590 690 590 676 Q590 662 590 657 Q590 584 551 531.5 Q512 479 440 465 Q512 451 551 398.5 Q590 346 590 272 Q590 268 590 254 Q590 240 588 223 L573 -6 Q571 -29 571 -38 Q571 -47 571 -51 Q571 -125 588.5 -167 Q606 -209 640 -230.5 Q674 -252 721 -257 Q768 -262 829 -262 L967 -262 L967 -365 L821 -365 L821 -365 Z " />
<glyph glyph-name="bar" unicode="&#x7c;" horiz-adv-x="1229" d="M559 1294 L672 1294 L672 -365 L559 -365 L559 1294 Z " />
<glyph glyph-name="braceright" unicode="&#x7d;" horiz-adv-x="1229" d="M262 -262 L399 -262 Q461 -262 508 -257 Q555 -252 589 -230.5 Q623 -209 640 -167 Q657 -125 657 -51 Q657 -47 657 -38 Q657 -29 655 -6 L641 223 Q639 240 639 254 Q639 268 639 272 Q639 346 678 398.5 Q717 451 788 465 Q717 479 678 531.5 Q639 584 639 657 Q639 662 639 676 Q639 690 641 707 L655 936 Q657 958 657 967.5 Q657 977 657 981 Q657 1055 640 1097 Q623 1139 589 1160.5 Q555 1182 508 1187 Q461 1192 399 1192 L262 1192 L262 1294 L408 1294 Q502 1294 571.5 1280 Q641 1266 686 1231 Q731 1196 753.5 1139.5 Q776 1083 776 999 Q776 995 776 982 Q776 969 774 946 L764 768 Q762 739 761 713.5 Q760 688 760 672 Q760 582 817 549 Q874 516 995 516 L995 414 Q874 414 817 381 Q760 348 760 258 Q760 242 761 216 Q762 190 764 162 L774 -16 Q776 -39 776 -52.5 Q776 -66 776 -70 Q776 -154 753.5 -210 Q731 -266 686 -301 Q641 -336 571.5 -350.5 Q502 -365 408 -365 L262 -365 L262 -262 Z " />
<glyph glyph-name="asciitilde" unicode="&#x7e;" horiz-adv-x="1229" d="M174 342 Q184 377 202.5 418 Q221 459 250 493.5 Q279 528 316.5 551.5 Q354 575 401 575 Q446 575 505.5 552.5 Q565 530 625.5 504.5 Q686 479 740.5 456.5 Q795 434 829 434 Q885 434 923 477 Q961 520 987 575 L1055 547 Q1044 512 1026 471 Q1008 430 979 395 Q950 360 912 336.5 Q874 313 827 313 Q782 313 723 335.5 Q664 358 603.5 384 Q543 410 488.5 432.5 Q434 455 399 455 Q344 455 306 412 Q268 369 242 313 L174 342 Z " />
<glyph glyph-name="Adieresis" unicode="&#xc4;" horiz-adv-x="1229" d="M543 1143 L686 1143 L1092 0 L948 0 L852 285 L375 285 L276 0 L137 0 L543 1143 Z M813 397 L743 604 L612 1008 L481 608 L410 397 L813 397 Z M328 1513 L494 1513 L494 1347 L328 1347 L328 1513 Z M739 1513 L905 1513 L905 1347 L739 1347 L739 1513 Z " />
<glyph glyph-name="Aring" unicode="&#xc5;" horiz-adv-x="1229" d="M543 1143 L686 1143 L1092 0 L948 0 L852 285 L375 285 L276 0 L137 0 L543 1143 Z M813 397 L743 604 L612 1008 L481 608 L410 397 L813 397 Z M614 1200 Q559 1200 512 1219.5 Q465 1239 430 1274 Q395 1309 375.5 1355 Q356 1401 356 1454 Q356 1507 375.5 1553 Q395 1599 430 1634 Q465 1669 512 1688.5 Q559 1708 614 1708 Q670 1708 717 1688.5 Q764 1669 799 1634 Q834 1599 853 1553 Q872 1507 872 1454 Q872 1401 853 1355 Q834 1309 799 1274 Q764 1239 717 1219.5 Q670 1200 614 1200 Z M614 1286 Q686 1286 734 1334 Q782 1382 782 1454 Q782 1526 734 1574 Q686 1622 614 1622 Q543 1622 494.5 1574 Q446 1526 446 1454 Q446 1382 494.5 1334 Q543 1286 614 1286 Z " />
<glyph glyph-name="Ccedilla" unicode="&#xc7;" horiz-adv-x="1229" d="M635 -20 Q412 -20 297 129.5 Q182 279 182 569 Q182 862 299 1013.5 Q416 1165 645 1165 Q711 1165 779.5 1150 Q848 1135 905.5 1094 Q963 1053 1001.5 981 Q1040 909 1044 799 L915 799 Q885 1055 643 1055 Q539 1055 475.5 1013 Q412 971 376 902.5 Q340 834 327.5 746.5 Q315 659 315 571 Q315 483 327.5 397 Q340 311 376 242.5 Q412 174 475.5 132 Q539 90 643 90 Q885 90 915 346 L1044 346 Q1040 242 1002.5 171 Q965 100 907.5 58 Q850 16 778.5 -2 Q707 -20 635 -20 Z M628 -385 Q575 -385 532 -372.5 Q489 -360 472 -350 L497 -272 Q515 -283 543.5 -290 Q572 -297 601 -297 Q642 -297 663.5 -282.5 Q685 -268 685 -248 Q685 -213 638 -190.5 Q591 -168 525 -152 L558 0 L638 0 L620 -90 Q704 -115 755 -155 Q806 -195 806 -254 Q806 -307 763 -346 Q720 -385 628 -385 Z " />
<glyph glyph-name="Eacute" unicode="&#xc9;" horiz-adv-x="1229" d="M694 1614 L858 1614 L612 1223 L537 1223 L694 1614 Z M274 1143 L979 1143 L979 1030 L403 1030 L403 641 L909 641 L909 528 L403 528 L403 113 L979 113 L979 0 L274 0 L274 1143 Z " />
<glyph glyph-name="Ntilde" unicode="&#xd1;" horiz-adv-x="1229" d="M274 1143 L461 1143 L844 129 L831 436 L831 1143 L954 1143 L954 0 L768 0 L385 1014 L397 707 L397 0 L274 0 L274 1143 Z M289 1313 Q301 1354 322.5 1396 Q344 1438 371.5 1471.5 Q399 1505 433 1526.5 Q467 1548 506 1548 Q547 1548 577.5 1526.5 Q608 1505 633.5 1478.5 Q659 1452 683 1430.5 Q707 1409 737 1409 Q780 1409 816 1452 Q852 1495 879 1548 L940 1519 Q928 1479 906.5 1437 Q885 1395 857 1361 Q829 1327 795.5 1305.5 Q762 1284 723 1284 Q682 1284 651.5 1305.5 Q621 1327 595 1353.5 Q569 1380 545.5 1401.5 Q522 1423 492 1423 Q449 1423 413 1380 Q377 1337 350 1284 L289 1313 Z " />
<glyph glyph-name="Odieresis" unicode="&#xd6;" horiz-adv-x="1229" d="M328 1513 L494 1513 L494 1347 L328 1347 L328 1513 Z M739 1513 L905 1513 L905 1347 L739 1347 L739 1513 Z M612 -20 Q502 -20 421 23 Q340 66 286.5 143.5 Q233 221 207.5 329.5 Q182 438 182 567 Q182 702 209 812 Q236 922 290 1000.5 Q344 1079 426 1122 Q508 1165 616 1165 Q727 1165 808 1122 Q889 1079 942 1000.5 Q995 922 1021 813.5 Q1047 705 1047 575 Q1047 440 1020 330.5 Q993 221 939 143.5 Q885 66 803 23 Q721 -20 612 -20 Z M614 94 Q705 94 762 135 Q819 176 853 242.5 Q887 309 900 395 Q913 481 913 571 Q913 662 900 748 Q887 834 853 901.5 Q819 969 762 1010 Q705 1051 614 1051 Q524 1051 467 1010 Q410 969 376 901.5 Q342 834 328.5 748 Q315 662 315 571 Q315 481 328.5 395 Q342 309 376 242.5 Q410 176 467 135 Q524 94 614 94 Z " />
<glyph glyph-name="Udieresis" unicode="&#xdc;" horiz-adv-x="1229" d="M328 1513 L494 1513 L494 1347 L328 1347 L328 1513 Z M739 1513 L905 1513 L905 1347 L739 1347 L739 1513 Z M614 -20 Q424 -20 333 75 Q242 170 242 395 L242 1143 L371 1143 L371 395 Q371 231 426 162.5 Q481 94 614 94 Q750 94 805 162.5 Q860 231 860 395 L860 1143 L989 1143 L989 395 Q989 170 897 75 Q805 -20 614 -20 Z " />
<glyph glyph-name="aacute" unicode="&#xe1;" horiz-adv-x="1229" d="M500 -20 Q436 -20 381 -6 Q326 8 286 38 Q246 68 223.5 115 Q201 162 201 227 Q201 303 231.5 353 Q262 403 311 431 Q360 459 420.5 470 Q481 481 543 481 Q602 481 676 471 Q750 461 803 444 L803 526 Q803 582 797 631 Q791 680 768 717 Q745 754 700 775.5 Q655 797 578 797 Q338 797 338 592 L217 592 Q217 690 253 750.5 Q289 811 344 846 Q399 881 464.5 893 Q530 905 588 905 Q766 905 845 816 Q924 727 924 561 L924 133 Q924 106 935 97 Q946 88 975 88 Q1022 88 1085 102 L1085 8 Q1063 -2 1025 -11 Q987 -20 942 -20 Q903 -20 879.5 -10 Q856 0 842.5 17.5 Q829 35 824 55.5 Q819 76 819 96 L819 113 Q782 66 703.5 23 Q625 -20 500 -20 Z M508 90 Q600 90 671.5 115.5 Q743 141 803 184 L803 352 Q756 362 688.5 369.5 Q621 377 559 377 Q449 377 384 346 Q319 315 319 229 Q319 90 508 90 Z M667 1395 L831 1395 L585 1004 L510 1004 L667 1395 Z " />
<glyph glyph-name="agrave" unicode="&#xe0;" horiz-adv-x="1229" d="M500 -20 Q436 -20 381 -6 Q326 8 286 38 Q246 68 223.5 115 Q201 162 201 227 Q201 303 231.5 353 Q262 403 311 431 Q360 459 420.5 470 Q481 481 543 481 Q602 481 676 471 Q750 461 803 444 L803 526 Q803 582 797 631 Q791 680 768 717 Q745 754 700 775.5 Q655 797 578 797 Q338 797 338 592 L217 592 Q217 690 253 750.5 Q289 811 344 846 Q399 881 464.5 893 Q530 905 588 905 Q766 905 845 816 Q924 727 924 561 L924 133 Q924 106 935 97 Q946 88 975 88 Q1022 88 1085 102 L1085 8 Q1063 -2 1025 -11 Q987 -20 942 -20 Q903 -20 879.5 -10 Q856 0 842.5 17.5 Q829 35 824 55.5 Q819 76 819 96 L819 113 Q782 66 703.5 23 Q625 -20 500 -20 Z M508 90 Q600 90 671.5 115.5 Q743 141 803 184 L803 352 Q756 362 688.5 369.5 Q621 377 559 377 Q449 377 384 346 Q319 315 319 229 Q319 90 508 90 Z M385 1395 L548 1395 L706 1004 L630 1004 L385 1395 Z " />
<glyph glyph-name="acircumflex" unicode="&#xe2;" horiz-adv-x="1229" d="M500 -20 Q436 -20 381 -6 Q326 8 286 38 Q246 68 223.5 115 Q201 162 201 227 Q201 303 231.5 353 Q262 403 311 431 Q360 459 420.5 470 Q481 481 543 481 Q602 481 676 471 Q750 461 803 444 L803 526 Q803 582 797 631 Q791 680 768 717 Q745 754 700 775.5 Q655 797 578 797 Q338 797 338 592 L217 592 Q217 690 253 750.5 Q289 811 344 846 Q399 881 464.5 893 Q530 905 588 905 Q766 905 845 816 Q924 727 924 561 L924 133 Q924 106 935 97 Q946 88 975 88 Q1022 88 1085 102 L1085 8 Q1063 -2 1025 -11 Q987 -20 942 -20 Q903 -20 879.5 -10 Q856 0 842.5 17.5 Q829 35 824 55.5 Q819 76 819 96 L819 113 Q782 66 703.5 23 Q625 -20 500 -20 Z M508 90 Q600 90 671.5 115.5 Q743 141 803 184 L803 352 Q756 362 688.5 369.5 Q621 377 559 377 Q449 377 384 346 Q319 315 319 229 Q319 90 508 90 Z M543 1395 L674 1395 L879 1004 L797 1004 L608 1255 L420 1004 L338 1004 L543 1395 Z " />
<glyph glyph-name="adieresis" unicode="&#xe4;" horiz-adv-x="1229" d="M500 -20 Q436 -20 381 -6 Q326 8 286 38 Q246 68 223.5 115 Q201 162 201 227 Q201 303 231.5 353 Q262 403 311 431 Q360 459 420.5 470 Q481 481 543 481 Q602 481 676 471 Q750 461 803 444 L803 526 Q803 582 797 631 Q791 680 768 717 Q745 754 700 775.5 Q655 797 578 797 Q338 797 338 592 L217 592 Q217 690 253 750.5 Q289 811 344 846 Q399 881 464.5 893 Q530 905 588 905 Q766 905 845 816 Q924 727 924 561 L924 133 Q924 106 935 97 Q946 88 975 88 Q1022 88 1085 102 L1085 8 Q1063 -2 1025 -11 Q987 -20 942 -20 Q903 -20 879.5 -10 Q856 0 842.5 17.5 Q829 35 824 55.5 Q819 76 819 96 L819 113 Q782 66 703.5 23 Q625 -20 500 -20 Z M508 90 Q600 90 671.5 115.5 Q743 141 803 184 L803 352 Q756 362 688.5 369.5 Q621 377 559 377 Q449 377 384 346 Q319 315 319 229 Q319 90 508 90 Z M322 1294 L488 1294 L488 1128 L322 1128 L322 1294 Z M733 1294 L899 1294 L899 1128 L733 1128 L733 1294 Z " />
<glyph glyph-name="atilde" unicode="&#xe3;" horiz-adv-x="1229" d="M500 -20 Q436 -20 381 -6 Q326 8 286 38 Q246 68 223.5 115 Q201 162 201 227 Q201 303 231.5 353 Q262 403 311 431 Q360 459 420.5 470 Q481 481 543 481 Q602 481 676 471 Q750 461 803 444 L803 526 Q803 582 797 631 Q791 680 768 717 Q745 754 700 775.5 Q655 797 578 797 Q338 797 338 592 L217 592 Q217 690 253 750.5 Q289 811 344 846 Q399 881 464.5 893 Q530 905 588 905 Q766 905 845 816 Q924 727 924 561 L924 133 Q924 106 935 97 Q946 88 975 88 Q1022 88 1085 102 L1085 8 Q1063 -2 1025 -11 Q987 -20 942 -20 Q903 -20 879.5 -10 Q856 0 842.5 17.5 Q829 35 824 55.5 Q819 76 819 96 L819 113 Q782 66 703.5 23 Q625 -20 500 -20 Z M508 90 Q600 90 671.5 115.5 Q743 141 803 184 L803 352 Q756 362 688.5 369.5 Q621 377 559 377 Q449 377 384 346 Q319 315 319 229 Q319 90 508 90 Z M271 1094 Q283 1135 304.5 1177 Q326 1219 353.5 1252.5 Q381 1286 415 1307.5 Q449 1329 488 1329 Q529 1329 559.5 1307.5 Q590 1286 615.5 1259.5 Q641 1233 665 1211.5 Q689 1190 719 1190 Q762 1190 798 1233 Q834 1276 861 1329 L922 1300 Q910 1260 888.5 1218 Q867 1176 839 1142 Q811 1108 777.5 1086.5 Q744 1065 705 1065 Q664 1065 633.5 1086.5 Q603 1108 577 1134.5 Q551 1161 527.5 1182.5 Q504 1204 474 1204 Q431 1204 395 1161 Q359 1118 332 1065 L271 1094 Z " />
<glyph glyph-name="aring" unicode="&#xe5;" horiz-adv-x="1229" d="M500 -20 Q436 -20 381 -6 Q326 8 286 38 Q246 68 223.5 115 Q201 162 201 227 Q201 303 231.5 353 Q262 403 311 431 Q360 459 420.5 470 Q481 481 543 481 Q602 481 676 471 Q750 461 803 444 L803 526 Q803 582 797 631 Q791 680 768 717 Q745 754 700 775.5 Q655 797 578 797 Q338 797 338 592 L217 592 Q217 690 253 750.5 Q289 811 344 846 Q399 881 464.5 893 Q530 905 588 905 Q766 905 845 816 Q924 727 924 561 L924 133 Q924 106 935 97 Q946 88 975 88 Q1022 88 1085 102 L1085 8 Q1063 -2 1025 -11 Q987 -20 942 -20 Q903 -20 879.5 -10 Q856 0 842.5 17.5 Q829 35 824 55.5 Q819 76 819 96 L819 113 Q782 66 703.5 23 Q625 -20 500 -20 Z M508 90 Q600 90 671.5 115.5 Q743 141 803 184 L803 352 Q756 362 688.5 369.5 Q621 377 559 377 Q449 377 384 346 Q319 315 319 229 Q319 90 508 90 Z M608 981 Q553 981 506 1000.5 Q459 1020 424 1055 Q389 1090 369.5 1136 Q350 1182 350 1235 Q350 1288 369.5 1334 Q389 1380 424 1415 Q459 1450 506 1469.5 Q553 1489 608 1489 Q664 1489 711 1469.5 Q758 1450 793 1415 Q828 1380 847 1334 Q866 1288 866 1235 Q866 1182 847 1136 Q828 1090 793 1055 Q758 1020 711 1000.5 Q664 981 608 981 Z M608 1067 Q680 1067 728 1115 Q776 1163 776 1235 Q776 1307 728 1355 Q680 1403 608 1403 Q537 1403 488.5 1355 Q440 1307 440 1235 Q440 1163 488.5 1115 Q537 1067 608 1067 Z " />
<glyph glyph-name="ccedilla" unicode="&#xe7;" horiz-adv-x="1229" d="M637 -385 Q584 -385 541 -372.5 Q498 -360 481 -350 L506 -272 Q524 -283 553 -290 Q582 -297 610 -297 Q651 -297 672.5 -282.5 Q694 -268 694 -248 Q694 -213 647 -190.5 Q600 -168 535 -152 L563 -16 Q498 -10 433.5 16.5 Q369 43 317.5 96.5 Q266 150 235.5 233.5 Q205 317 205 440 Q205 580 245 670 Q285 760 347.5 812 Q410 864 484.5 884.5 Q559 905 629 905 Q686 905 748.5 892 Q811 879 864.5 843 Q918 807 955.5 746.5 Q993 686 999 592 L877 592 Q864 709 797.5 752 Q731 795 633 795 Q485 795 406.5 711 Q328 627 328 444 Q328 262 406.5 176 Q485 90 633 90 Q731 90 797.5 134 Q864 178 877 295 L999 295 Q993 205 957.5 144.5 Q922 84 870.5 48 Q819 12 758.5 -3 Q698 -18 643 -20 L629 -90 Q713 -115 764 -155 Q815 -195 815 -254 Q815 -307 772 -346 Q729 -385 637 -385 Z " />
<glyph glyph-name="eacute" unicode="&#xe9;" horiz-adv-x="1229" d="M655 1395 L819 1395 L573 1004 L498 1004 L655 1395 Z M623 -20 Q541 -20 465 5.5 Q389 31 331.5 86 Q274 141 239.5 228 Q205 315 205 440 Q205 573 243 662.5 Q281 752 341 806 Q401 860 476 882.5 Q551 905 623 905 Q690 905 763 883.5 Q836 862 895 810 Q954 758 992 669 Q1030 580 1030 444 L1030 416 L326 416 Q342 86 629 86 Q745 86 817 137 Q889 188 907 287 L1028 287 Q1016 197 973 137.5 Q930 78 871.5 43 Q813 8 746.5 -6 Q680 -20 623 -20 Z M905 516 Q889 659 815 729 Q741 799 614 799 Q487 799 414.5 729 Q342 659 328 516 L905 516 Z " />
<glyph glyph-name="egrave" unicode="&#xe8;" horiz-adv-x="1229" d="M623 -20 Q541 -20 465 5.5 Q389 31 331.5 86 Q274 141 239.5 228 Q205 315 205 440 Q205 573 243 662.5 Q281 752 341 806 Q401 860 476 882.5 Q551 905 623 905 Q690 905 763 883.5 Q836 862 895 810 Q954 758 992 669 Q1030 580 1030 444 L1030 416 L326 416 Q342 86 629 86 Q745 86 817 137 Q889 188 907 287 L1028 287 Q1016 197 973 137.5 Q930 78 871.5 43 Q813 8 746.5 -6 Q680 -20 623 -20 Z M905 516 Q889 659 815 729 Q741 799 614 799 Q487 799 414.5 729 Q342 659 328 516 L905 516 Z M373 1395 L536 1395 L694 1004 L618 1004 L373 1395 Z " />
<glyph glyph-name="ecircumflex" unicode="&#xea;" horiz-adv-x="1229" d="M528 1395 L659 1395 L864 1004 L782 1004 L593 1255 L405 1004 L323 1004 L528 1395 Z M623 -20 Q541 -20 465 5.5 Q389 31 331.5 86 Q274 141 239.5 228 Q205 315 205 440 Q205 573 243 662.5 Q281 752 341 806 Q401 860 476 882.5 Q551 905 623 905 Q690 905 763 883.5 Q836 862 895 810 Q954 758 992 669 Q1030 580 1030 444 L1030 416 L326 416 Q342 86 629 86 Q745 86 817 137 Q889 188 907 287 L1028 287 Q1016 197 973 137.5 Q930 78 871.5 43 Q813 8 746.5 -6 Q680 -20 623 -20 Z M905 516 Q889 659 815 729 Q741 799 614 799 Q487 799 414.5 729 Q342 659 328 516 L905 516 Z " />
<glyph glyph-name="edieresis" unicode="&#xeb;" horiz-adv-x="1229" d="M307 1294 L473 1294 L473 1128 L307 1128 L307 1294 Z M718 1294 L884 1294 L884 1128 L718 1128 L718 1294 Z M623 -20 Q541 -20 465 5.5 Q389 31 331.5 86 Q274 141 239.5 228 Q205 315 205 440 Q205 573 243 662.5 Q281 752 341 806 Q401 860 476 882.5 Q551 905 623 905 Q690 905 763 883.5 Q836 862 895 810 Q954 758 992 669 Q1030 580 1030 444 L1030 416 L326 416 Q342 86 629 86 Q745 86 817 137 Q889 188 907 287 L1028 287 Q1016 197 973 137.5 Q930 78 871.5 43 Q813 8 746.5 -6 Q680 -20 623 -20 Z M905 516 Q889 659 815 729 Q741 799 614 799 Q487 799 414.5 729 Q342 659 328 516 L905 516 Z " />
<glyph glyph-name="iacute" unicode="&#xed;" horiz-adv-x="1229" d="M692 1395 L856 1395 L610 1004 L535 1004 L692 1395 Z M242 111 L569 111 L569 774 L242 774 L242 885 L690 885 L690 111 L991 111 L991 0 L242 0 L242 111 Z " />
<glyph glyph-name="igrave" unicode="&#xec;" horiz-adv-x="1229" d="M242 111 L569 111 L569 774 L242 774 L242 885 L690 885 L690 111 L991 111 L991 0 L242 0 L242 111 Z M410 1395 L573 1395 L731 1004 L655 1004 L410 1395 Z " />
<glyph glyph-name="icircumflex" unicode="&#xee;" horiz-adv-x="1229" d="M565 1395 L696 1395 L901 1004 L819 1004 L630 1255 L442 1004 L360 1004 L565 1395 Z M242 111 L569 111 L569 774 L242 774 L242 885 L690 885 L690 111 L991 111 L991 0 L242 0 L242 111 Z " />
<glyph glyph-name="idieresis" unicode="&#xef;" horiz-adv-x="1229" d="M342 1294 L508 1294 L508 1128 L342 1128 L342 1294 Z M753 1294 L919 1294 L919 1128 L753 1128 L753 1294 Z M242 111 L569 111 L569 774 L242 774 L242 885 L690 885 L690 111 L991 111 L991 0 L242 0 L242 111 Z " />
<glyph glyph-name="ntilde" unicode="&#xf1;" horiz-adv-x="1229" d="M274 885 L371 885 L371 772 Q408 825 477.5 865 Q547 905 659 905 Q715 905 768 891 Q821 877 863 837 Q905 797 930.5 726 Q956 655 956 543 L956 0 L836 0 L836 512 Q836 582 827.5 635 Q819 688 795.5 724 Q772 760 732 778.5 Q692 797 631 797 Q541 797 483.5 766 Q426 735 395 700 L395 0 L274 0 L274 885 Z M279 1094 Q291 1135 312.5 1177 Q334 1219 361.5 1252.5 Q389 1286 423 1307.5 Q457 1329 496 1329 Q537 1329 567.5 1307.5 Q598 1286 623.5 1259.5 Q649 1233 673 1211.5 Q697 1190 727 1190 Q770 1190 806 1233 Q842 1276 869 1329 L930 1300 Q918 1260 896.5 1218 Q875 1176 847 1142 Q819 1108 785.5 1086.5 Q752 1065 713 1065 Q672 1065 641.5 1086.5 Q611 1108 585 1134.5 Q559 1161 535.5 1182.5 Q512 1204 482 1204 Q439 1204 403 1161 Q367 1118 340 1065 L279 1094 Z " />
<glyph glyph-name="oacute" unicode="&#xf3;" horiz-adv-x="1229" d="M676 1395 L840 1395 L594 1004 L519 1004 L676 1395 Z M612 -20 Q539 -20 466 1.5 Q393 23 334.5 76 Q276 129 240.5 218 Q205 307 205 440 Q205 575 242 665.5 Q279 756 338 809 Q397 862 471 883.5 Q545 905 616 905 Q690 905 763 883.5 Q836 862 894 809 Q952 756 988 667 Q1024 578 1024 444 Q1024 309 987 219 Q950 129 890.5 76 Q831 23 757.5 1.5 Q684 -20 612 -20 Z M614 92 Q899 92 899 442 Q899 793 614 793 Q330 793 330 442 Q330 92 614 92 Z " />
<glyph glyph-name="ograve" unicode="&#xf2;" horiz-adv-x="1229" d="M612 -20 Q539 -20 466 1.5 Q393 23 334.5 76 Q276 129 240.5 218 Q205 307 205 440 Q205 575 242 665.5 Q279 756 338 809 Q397 862 471 883.5 Q545 905 616 905 Q690 905 763 883.5 Q836 862 894 809 Q952 756 988 667 Q1024 578 1024 444 Q1024 309 987 219 Q950 129 890.5 76 Q831 23 757.5 1.5 Q684 -20 612 -20 Z M614 92 Q899 92 899 442 Q899 793 614 793 Q330 793 330 442 Q330 92 614 92 Z M394 1395 L557 1395 L715 1004 L639 1004 L394 1395 Z " />
<glyph glyph-name="ocircumflex" unicode="&#xf4;" horiz-adv-x="1229" d="M549 1395 L680 1395 L885 1004 L803 1004 L614 1255 L426 1004 L344 1004 L549 1395 Z M612 -20 Q539 -20 466 1.5 Q393 23 334.5 76 Q276 129 240.5 218 Q205 307 205 440 Q205 575 242 665.5 Q279 756 338 809 Q397 862 471 883.5 Q545 905 616 905 Q690 905 763 883.5 Q836 862 894 809 Q952 756 988 667 Q1024 578 1024 444 Q1024 309 987 219 Q950 129 890.5 76 Q831 23 757.5 1.5 Q684 -20 612 -20 Z M614 92 Q899 92 899 442 Q899 793 614 793 Q330 793 330 442 Q330 92 614 92 Z " />
<glyph glyph-name="odieresis" unicode="&#xf6;" horiz-adv-x="1229" d="M328 1294 L494 1294 L494 1128 L328 1128 L328 1294 Z M739 1294 L905 1294 L905 1128 L739 1128 L739 1294 Z M612 -20 Q539 -20 466 1.5 Q393 23 334.5 76 Q276 129 240.5 218 Q205 307 205 440 Q205 575 242 665.5 Q279 756 338 809 Q397 862 471 883.5 Q545 905 616 905 Q690 905 763 883.5 Q836 862 894 809 Q952 756 988 667 Q1024 578 1024 444 Q1024 309 987 219 Q950 129 890.5 76 Q831 23 757.5 1.5 Q684 -20 612 -20 Z M614 92 Q899 92 899 442 Q899 793 614 793 Q330 793 330 442 Q330 92 614 92 Z " />
<glyph glyph-name="otilde" unicode="&#xf5;" horiz-adv-x="1229" d="M612 -20 Q539 -20 466 1.5 Q393 23 334.5 76 Q276 129 240.5 218 Q205 307 205 440 Q205 575 242 665.5 Q279 756 338 809 Q397 862 471 883.5 Q545 905 616 905 Q690 905 763 883.5 Q836 862 894 809 Q952 756 988 667 Q1024 578 1024 444 Q1024 309 987 219 Q950 129 890.5 76 Q831 23 757.5 1.5 Q684 -20 612 -20 Z M614 92 Q899 92 899 442 Q899 793 614 793 Q330 793 330 442 Q330 92 614 92 Z M279 1094 Q291 1135 312.5 1177 Q334 1219 361.5 1252.5 Q389 1286 423 1307.5 Q457 1329 496 1329 Q537 1329 567.5 1307.5 Q598 1286 623.5 1259.5 Q649 1233 673 1211.5 Q697 1190 727 1190 Q770 1190 806 1233 Q842 1276 869 1329 L930 1300 Q918 1260 896.5 1218 Q875 1176 847 1142 Q819 1108 785.5 1086.5 Q752 1065 713 1065 Q672 1065 641.5 1086.5 Q611 1108 585 1134.5 Q559 1161 535.5 1182.5 Q512 1204 482 1204 Q439 1204 403 1161 Q367 1118 340 1065 L279 1094 Z " />
<glyph glyph-name="uacute" unicode="&#xfa;" horiz-adv-x="1229" d="M676 1395 L840 1395 L594 1004 L519 1004 L676 1395 Z M571 -20 Q516 -20 463 -6 Q410 8 368 48 Q326 88 300 158.5 Q274 229 274 342 L274 885 L395 885 L395 373 Q395 303 403.5 250 Q412 197 435.5 161 Q459 125 499 106.5 Q539 88 600 88 Q690 88 747.5 119 Q805 150 836 184 L836 885 L956 885 L956 0 L860 0 L860 113 Q823 59 753.5 19.5 Q684 -20 571 -20 Z " />
<glyph glyph-name="ugrave" unicode="&#xf9;" horiz-adv-x="1229" d="M571 -20 Q516 -20 463 -6 Q410 8 368 48 Q326 88 300 158.5 Q274 229 274 342 L274 885 L395 885 L395 373 Q395 303 403.5 250 Q412 197 435.5 161 Q459 125 499 106.5 Q539 88 600 88 Q690 88 747.5 119 Q805 150 836 184 L836 885 L956 885 L956 0 L860 0 L860 113 Q823 59 753.5 19.5 Q684 -20 571 -20 Z M396 1395 L559 1395 L717 1004 L641 1004 L396 1395 Z " />
<glyph glyph-name="ucircumflex" unicode="&#xfb;" horiz-adv-x="1229" d="M549 1395 L680 1395 L885 1004 L803 1004 L614 1255 L426 1004 L344 1004 L549 1395 Z M571 -20 Q516 -20 463 -6 Q410 8 368 48 Q326 88 300 158.5 Q274 229 274 342 L274 885 L395 885 L395 373 Q395 303 403.5 250 Q412 197 435.5 161 Q459 125 499 106.5 Q539 88 600 88 Q690 88 747.5 119 Q805 150 836 184 L836 885 L956 885 L956 0 L860 0 L860 113 Q823 59 753.5 19.5 Q684 -20 571 -20 Z " />
<glyph glyph-name="udieresis" unicode="&#xfc;" horiz-adv-x="1229" d="M328 1294 L494 1294 L494 1128 L328 1128 L328 1294 Z M739 1294 L905 1294 L905 1128 L739 1128 L739 1294 Z M571 -20 Q516 -20 463 -6 Q410 8 368 48 Q326 88 300 158.5 Q274 229 274 342 L274 885 L395 885 L395 373 Q395 303 403.5 250 Q412 197 435.5 161 Q459 125 499 106.5 Q539 88 600 88 Q690 88 747.5 119 Q805 150 836 184 L836 885 L956 885 L956 0 L860 0 L860 113 Q823 59 753.5 19.5 Q684 -20 571 -20 Z " />
<glyph glyph-name="dagger" unicode="&#x2020;" horiz-adv-x="1229" d="M557 934 L297 934 L297 1036 L557 1036 L557 1294 L672 1294 L672 1036 L932 1036 L932 934 L672 934 L672 381 L557 381 L557 934 Z " />
<glyph glyph-name="degree" unicode="&#xb0;" horiz-adv-x="1229" d="M614 541 Q551 541 494.5 563.5 Q438 586 395 627 Q352 668 327.5 725 Q303 782 303 852 Q303 922 327.5 979 Q352 1036 395 1078 Q438 1120 494.5 1142.5 Q551 1165 614 1165 Q678 1165 735.5 1142.5 Q793 1120 835 1078 Q877 1036 901.5 979 Q926 922 926 852 Q926 782 901.5 725 Q877 668 835 627 Q793 586 735.5 563.5 Q678 541 614 541 Z M614 635 Q705 635 760 695.5 Q815 756 815 852 Q815 950 760 1010.5 Q705 1071 614 1071 Q526 1071 470 1010.5 Q414 950 414 852 Q414 756 470 695.5 Q526 635 614 635 Z " />
<glyph glyph-name="cent" unicode="&#xa2;" horiz-adv-x="1229" d="M563 115 Q498 123 433.5 149.5 Q369 176 318.5 229.5 Q268 283 237.5 367 Q207 451 207 573 Q207 696 238.5 780 Q270 864 321.5 917.5 Q373 971 436.5 997.5 Q500 1024 563 1032 L563 1286 L664 1286 L664 1036 Q719 1032 776.5 1016.5 Q834 1001 882 965.5 Q930 930 962.5 871.5 Q995 813 1001 725 L879 725 Q866 834 808 878 Q750 922 664 926 L664 223 Q750 227 808 273 Q866 319 879 428 L1001 428 Q995 342 962.5 282.5 Q930 223 882 187.5 Q834 152 776.5 134.5 Q719 117 664 113 L664 -143 L563 -143 L563 115 Z M563 922 Q451 903 390.5 819 Q330 735 330 578 Q330 418 390.5 333 Q451 248 563 227 L563 922 Z " />
<glyph glyph-name="sterling" unicode="&#xa3;" horiz-adv-x="1229" d="M250 113 Q281 119 317.5 131 Q354 143 386 164.5 Q418 186 439.5 221 Q461 256 461 307 Q461 328 455 377 L432 567 L250 567 L250 678 L420 678 Q418 696 417 715.5 Q416 735 416 756 Q416 850 445.5 915.5 Q475 981 523 1025 Q571 1069 633.5 1094.5 Q696 1120 762.5 1132.5 Q829 1145 896 1149 Q963 1153 1020 1153 L1020 1042 Q924 1040 838 1032 Q752 1024 686.5 994.5 Q621 965 582 906.5 Q543 848 543 745 Q543 727 544 710.5 Q545 694 547 678 L870 678 L870 567 L559 567 L584 367 Q586 354 587 338 Q588 322 588 307 Q588 242 555 190.5 Q522 139 463 111 L1042 111 L1042 0 L250 0 L250 113 Z " />
<glyph glyph-name="section" unicode="&#xa7;" horiz-adv-x="1229" d="M623 -236 Q555 -236 494.5 -221.5 Q434 -207 387 -172 Q340 -137 311.5 -78.5 Q283 -20 279 68 L397 68 Q406 -31 461 -83 Q516 -135 633 -135 Q729 -135 781.5 -98 Q834 -61 834 10 Q834 84 777.5 128 Q721 172 627 211 L393 307 Q350 326 313 348.5 Q276 371 247.5 399.5 Q219 428 202.5 466 Q186 504 186 551 Q186 690 324 762 Q270 831 270 920 Q270 983 294.5 1029 Q319 1075 363.5 1106 Q408 1137 467 1151 Q526 1165 594 1165 Q659 1165 718.5 1151 Q778 1137 823 1102 Q868 1067 897 1008.5 Q926 950 930 862 L811 862 Q803 961 750.5 1013 Q698 1065 588 1065 Q498 1065 446.5 1028 Q395 991 395 920 Q395 846 451.5 802 Q508 758 602 719 L836 623 Q879 604 915.5 581.5 Q952 559 981 530.5 Q1010 502 1026 464 Q1042 426 1042 379 Q1042 242 903 166 Q958 98 958 12 Q958 -51 932.5 -98 Q907 -145 861 -176 Q815 -207 753.5 -221.5 Q692 -236 623 -236 Z M846 223 Q920 279 920 358 Q920 403 890 446 Q860 489 766 528 L532 625 Q440 662 383 707 Q309 651 309 571 Q309 526 339 483 Q369 440 463 401 L696 305 Q739 287 777 266.5 Q815 246 846 223 Z " />
<glyph glyph-name="bullet" unicode="&#x2022;" horiz-adv-x="1229" d="M614 330 Q571 330 528 341 Q485 352 450.5 380 Q416 408 394.5 454 Q373 500 373 571 Q373 641 394.5 688 Q416 735 450.5 763 Q485 791 528 802 Q571 813 614 813 Q657 813 700 802 Q743 791 778 763 Q813 735 834.5 688 Q856 641 856 571 Q856 500 834.5 454 Q813 408 778 380 Q743 352 700 341 Q657 330 614 330 Z " />
<glyph glyph-name="paragraph" unicode="&#xb6;" horiz-adv-x="1229" d="M569 446 Q494 446 418 464.5 Q342 483 282.5 525 Q223 567 185 632.5 Q147 698 147 793 Q147 891 187 957.5 Q227 1024 289.5 1065 Q352 1106 429 1124.5 Q506 1143 580 1143 L682 1143 L682 -365 L569 -365 L569 446 Z M569 1040 Q504 1040 448.5 1027 Q393 1014 352 984 Q311 954 287.5 907 Q264 860 264 795 Q264 729 287.5 682 Q311 635 352 605 Q393 575 448.5 562 Q504 549 569 549 L569 1040 Z M868 1143 L981 1143 L981 -365 L868 -365 L868 1143 Z " />
<glyph glyph-name="germandbls" unicode="&#xdf;" horiz-adv-x="1229" d="M743 -20 Q682 -20 628.5 -8 Q575 4 539 27 L539 141 Q586 119 633 104.5 Q680 90 735 90 Q825 90 865 125 Q905 160 905 217 Q905 268 874.5 315 Q844 362 792.5 404 Q741 446 674.5 481 Q608 516 539 545 L539 639 Q698 686 780 773 Q862 860 862 985 Q862 1090 803.5 1149 Q745 1208 627 1208 Q496 1208 437.5 1132.5 Q379 1057 379 897 L379 0 L258 0 L258 891 Q258 1110 358.5 1212.5 Q459 1315 629 1315 Q719 1315 785.5 1289.5 Q852 1264 897 1220 Q942 1176 963.5 1116.5 Q985 1057 985 989 Q985 901 953.5 834.5 Q922 768 875.5 719 Q829 670 777 638 Q725 606 684 590 Q729 571 788.5 536.5 Q848 502 902 452.5 Q956 403 993 339.5 Q1030 276 1030 201 Q1030 139 1005.5 97 Q981 55 941 29.5 Q901 4 850 -8 Q799 -20 743 -20 Z " />
<glyph glyph-name="registered" unicode="&#xae;" horiz-adv-x="1229" d="M434 1124 L600 1124 Q717 1124 770 1075 Q823 1026 823 946 Q823 868 784 830.5 Q745 793 709 778 Q766 737 794.5 667.5 Q823 598 823 530 L721 530 Q721 596 695.5 654.5 Q670 713 616 756 L530 756 L530 530 L434 530 L434 1124 Z M614 324 Q489 324 399 363.5 Q309 403 252 472 Q195 541 167 631 Q139 721 139 819 Q139 918 167 1007 Q195 1096 252 1164.5 Q309 1233 399 1274 Q489 1315 614 1315 Q739 1315 829.5 1275 Q920 1235 977 1166.5 Q1034 1098 1062 1008 Q1090 918 1090 819 Q1090 721 1062 632 Q1034 543 977 474.5 Q920 406 829.5 365 Q739 324 614 324 Z M614 401 Q719 401 792.5 435 Q866 469 911 527.5 Q956 586 976.5 660.5 Q997 735 997 819 Q997 901 976.5 977 Q956 1053 911 1111 Q866 1169 792.5 1203 Q719 1237 614 1237 Q510 1237 436 1203 Q362 1169 317 1111 Q272 1053 251.5 977 Q231 901 231 819 Q231 735 251.5 660.5 Q272 586 317 527.5 Q362 469 436 435 Q510 401 614 401 Z M530 838 L594 838 Q723 838 723 938 Q723 1038 594 1038 L530 1038 L530 838 Z " />
<glyph glyph-name="copyright" unicode="&#xa9;" horiz-adv-x="1229" d="M618 260 Q502 260 438.5 338 Q375 416 375 571 Q375 727 440.5 805 Q506 883 618 883 Q705 883 766 832.5 Q827 782 831 668 L731 668 Q729 723 702.5 758 Q676 793 618 793 Q569 793 540.5 769 Q512 745 497.5 710.5 Q483 676 479 638 Q475 600 475 571 Q475 543 479 505 Q483 467 497.5 432 Q512 397 540.5 373.5 Q569 350 618 350 Q676 350 702.5 385 Q729 420 731 475 L831 475 Q827 360 764.5 310 Q702 260 618 260 Z M614 76 Q489 76 399 116 Q309 156 252 224.5 Q195 293 167 383 Q139 473 139 571 Q139 670 167 759 Q195 848 252 916.5 Q309 985 399 1026 Q489 1067 614 1067 Q739 1067 829.5 1027 Q920 987 977 918.5 Q1034 850 1062 760 Q1090 670 1090 571 Q1090 473 1062 384 Q1034 295 977 226.5 Q920 158 829.5 117 Q739 76 614 76 Z M614 154 Q719 154 792.5 187.5 Q866 221 911 279.5 Q956 338 976.5 412.5 Q997 487 997 571 Q997 653 976.5 729 Q956 805 911 863.5 Q866 922 792.5 955.5 Q719 989 614 989 Q510 989 436 955.5 Q362 922 317 863.5 Q272 805 251.5 729 Q231 653 231 571 Q231 487 251.5 412.5 Q272 338 317 279.5 Q362 221 436 187.5 Q510 154 614 154 Z " />
<glyph glyph-name="trademark" unicode="&#x2122;" horiz-adv-x="1229" d="M596 1143 L727 1143 L811 825 L897 1143 L1028 1143 L1028 551 L936 551 L936 975 L854 707 L772 707 L688 975 L688 551 L596 551 L596 1143 Z M281 1053 L125 1053 L125 1143 L528 1143 L528 1053 L375 1053 L375 551 L281 551 L281 1053 Z " />
<glyph glyph-name="acute" unicode="&#xb4;" horiz-adv-x="1229" d="M610 1395 L774 1395 L528 1004 L453 1004 L610 1395 Z " />
<glyph glyph-name="dieresis" unicode="&#xa8;" horiz-adv-x="1229" d="M328 1294 L494 1294 L494 1128 L328 1128 L328 1294 Z M739 1294 L905 1294 L905 1128 L739 1128 L739 1294 Z " />
<glyph glyph-name="notequal" unicode="&#x2260;" horiz-adv-x="1229" d="M373 217 L258 217 L258 328 L459 328 L645 561 L258 561 L258 672 L731 672 L901 885 L1028 885 L858 672 L973 672 L973 561 L770 561 L586 328 L973 328 L973 217 L500 217 L328 0 L201 0 L373 217 Z " />
<glyph glyph-name="AE" unicode="&#xc6;" horiz-adv-x="1229" d="M250 1143 L1112 1143 L1112 1030 L692 1030 L692 641 L1030 641 L1030 528 L692 528 L692 113 L1112 113 L1112 0 L563 0 L563 528 L266 528 L172 0 L41 0 L250 1143 Z M287 641 L563 641 L563 1030 L354 1030 L287 641 Z " />
<glyph glyph-name="Oslash" unicode="&#xd8;" horiz-adv-x="1229" d="M610 -20 Q506 -20 426 19.5 Q346 59 293 133 L172 0 L27 0 L238 233 Q182 375 182 569 Q182 702 209 812 Q236 922 290 1000.5 Q344 1079 426 1122 Q508 1165 616 1165 Q723 1165 803 1124 Q883 1083 936 1008 L1057 1143 L1202 1143 L991 907 Q1047 768 1047 573 Q1047 440 1020 330.5 Q993 221 939 143.5 Q885 66 803 23 Q721 -20 610 -20 Z M614 94 Q705 94 762 135 Q819 176 853 242.5 Q887 309 900 395 Q913 481 913 571 Q913 631 908 687 Q903 743 891 797 L381 231 Q416 168 472 131 Q528 94 614 94 Z M848 911 Q813 975 756.5 1013 Q700 1051 614 1051 Q524 1051 467 1010 Q410 969 376 901.5 Q342 834 328.5 748 Q315 662 315 571 Q315 512 320.5 454.5 Q326 397 338 344 L848 911 Z " />
<glyph glyph-name="infinity" unicode="&#x221e;" horiz-adv-x="1229" d="M352 141 Q297 141 256 165.5 Q215 190 187.5 231 Q160 272 146.5 325.5 Q133 379 133 438 Q133 496 146.5 550 Q160 604 187.5 645 Q215 686 256 710.5 Q297 735 352 735 Q408 735 451 712.5 Q494 690 525.5 657.5 Q557 625 579.5 591 Q602 557 614 532 Q627 557 649.5 591 Q672 625 703.5 657.5 Q735 690 778 712.5 Q821 735 877 735 Q932 735 973 710.5 Q1014 686 1041.5 645 Q1069 604 1082.5 550 Q1096 496 1096 438 Q1096 379 1082.5 325.5 Q1069 272 1041.5 231 Q1014 190 973 165.5 Q932 141 877 141 Q821 141 778 163.5 Q735 186 703.5 219 Q672 252 649.5 285.5 Q627 319 614 344 Q602 319 579.5 285.5 Q557 252 525.5 219 Q494 186 451 163.5 Q408 141 352 141 Z M358 240 Q397 240 431 264.5 Q465 289 491.5 321.5 Q518 354 536.5 388 Q555 422 563 438 Q555 455 536.5 488.5 Q518 522 491.5 555 Q465 588 431 612.5 Q397 637 358 637 Q305 637 271.5 584.5 Q238 532 238 438 Q238 344 271.5 292 Q305 240 358 240 Z M870 240 Q924 240 957.5 292 Q991 344 991 438 Q991 532 957.5 584.5 Q924 637 870 637 Q831 637 797.5 612.5 Q764 588 737.5 555 Q711 522 692.5 488.5 Q674 455 666 438 Q674 422 692.5 388 Q711 354 737.5 321.5 Q764 289 797.5 264.5 Q831 240 870 240 Z " />
<glyph glyph-name="plusminus" unicode="&#xb1;" horiz-adv-x="1229" d="M557 647 L164 647 L164 758 L557 758 L557 1143 L674 1143 L674 758 L1067 758 L1067 647 L674 647 L674 258 L557 258 L557 647 Z M164 111 L1067 111 L1067 0 L164 0 L164 111 Z " />
<glyph glyph-name="lessequal" unicode="&#x2264;" horiz-adv-x="1229" d="M152 655 L152 750 L1077 1165 L1077 1040 L311 702 L1077 369 L1077 240 L152 655 Z M152 111 L1077 111 L1077 0 L152 0 L152 111 Z " />
<glyph glyph-name="greaterequal" unicode="&#x2265;" horiz-adv-x="1229" d="M152 365 L915 700 L152 1036 L152 1165 L1077 750 L1077 655 L152 240 L152 365 Z M152 111 L1077 111 L1077 0 L152 0 L152 111 Z " />
<glyph glyph-name="yen" unicode="&#xa5;" horiz-adv-x="1229" d="M238 113 L551 113 L551 461 L238 461 L238 573 L477 573 L98 1143 L248 1143 L432 864 L618 569 L803 864 L983 1143 L1133 1143 L756 573 L995 573 L995 461 L680 461 L680 113 L995 113 L995 0 L238 0 L238 113 Z " />
<glyph glyph-name="mu" unicode="&#xb5;" horiz-adv-x="1229" d="M274 885 L395 885 L395 111 L567 111 Q657 111 715.5 140.5 Q774 170 803 205 L803 885 L924 885 L924 133 Q924 106 935 97 Q946 88 975 88 Q1022 88 1085 102 L1085 8 Q1063 -2 1025 -11 Q987 -20 942 -20 Q903 -20 879.5 -10 Q856 0 842.5 17.5 Q829 35 824 55.5 Q819 76 819 96 L819 127 Q809 106 786.5 83.5 Q764 61 730 43 Q696 25 650 12.5 Q604 0 543 0 L395 0 L395 -365 L274 -365 L274 885 Z " />
<glyph glyph-name="partialdiff" unicode="&#x2202;" horiz-adv-x="1229" d="M612 -20 Q535 -20 462 3.5 Q389 27 331.5 78 Q274 129 239.5 209 Q205 289 205 401 Q205 514 239.5 594 Q274 674 330.5 725 Q387 776 459.5 799.5 Q532 823 608 823 Q686 823 733 804.5 Q780 786 805 770 L557 1294 L684 1294 L930 756 Q967 676 995.5 579.5 Q1024 483 1024 385 Q1024 281 989 205 Q954 129 897 79 Q840 29 766 4.5 Q692 -20 612 -20 Z M614 88 Q696 88 751.5 114.5 Q807 141 840.5 184 Q874 227 887.5 283.5 Q901 340 901 401 Q901 463 887.5 519 Q874 575 840.5 618.5 Q807 662 751.5 688.5 Q696 715 614 715 Q530 715 476 688.5 Q422 662 388 618.5 Q354 575 341 519 Q328 463 328 401 Q328 340 341 283.5 Q354 227 388 184 Q422 141 476 114.5 Q530 88 614 88 Z " />
<glyph glyph-name="summation" unicode="&#x2211;" horiz-adv-x="1229" d="M242 106 L721 571 L242 1036 L242 1143 L985 1143 L985 1030 L416 1030 L840 614 L840 528 L416 113 L985 113 L985 0 L242 0 L242 106 Z " />
<glyph glyph-name="product" unicode="&#x220f;" horiz-adv-x="1229" d="M274 1143 L954 1143 L954 0 L825 0 L825 1030 L403 1030 L403 0 L274 0 L274 1143 Z " />
<glyph glyph-name="pi" unicode="&#x3c0;" horiz-adv-x="1229" d="M305 774 L164 774 L164 885 L1065 885 L1065 774 L924 774 L924 0 L803 0 L803 774 L426 774 L426 0 L305 0 L305 774 Z " />
<glyph glyph-name="integral" unicode="&#x222b;" horiz-adv-x="1229" d="M186 -264 Q262 -264 328.5 -251 Q395 -238 444.5 -204 Q494 -170 522.5 -113.5 Q551 -57 551 29 L551 758 Q551 946 677 1049.5 Q803 1153 1044 1153 L1044 1042 Q967 1042 900.5 1029 Q834 1016 784.5 982 Q735 948 707.5 892 Q680 836 680 750 L680 20 Q680 -168 554 -271.5 Q428 -375 186 -375 L186 -264 Z " />
<glyph glyph-name="ordfeminine" unicode="&#xaa;" horiz-adv-x="1229" d="M545 481 Q449 481 384 525 Q319 569 319 666 Q319 723 342 759 Q365 795 401.5 816.5 Q438 838 485 846 Q532 854 580 854 Q631 854 683 847 Q735 840 766 827 L766 887 Q766 926 762 958.5 Q758 991 741.5 1015.5 Q725 1040 694.5 1054.5 Q664 1069 608 1069 Q440 1069 440 932 L334 932 Q334 1001 360.5 1046.5 Q387 1092 428 1118.5 Q469 1145 519 1155 Q569 1165 616 1165 Q877 1165 877 911 L877 614 Q877 594 885 586 Q893 578 922 578 Q934 578 950.5 580 Q967 582 989 588 L989 502 Q971 494 940 487.5 Q909 481 883 481 Q821 481 801.5 515 Q782 549 782 580 L782 582 Q754 547 696.5 514 Q639 481 545 481 Z M559 573 Q625 573 676 591.5 Q727 610 766 639 L766 752 Q733 760 686 764 Q639 768 598 768 Q518 768 473 747.5 Q428 727 428 668 Q428 573 559 573 Z M334 360 L928 360 L928 260 L334 260 L334 360 Z " />
<glyph glyph-name="ordmasculine" unicode="&#xba;" horiz-adv-x="1229" d="M614 481 Q557 481 500.5 497.5 Q444 514 399 554 Q354 594 326.5 659.5 Q299 725 299 823 Q299 922 327.5 987.5 Q356 1053 401 1093 Q446 1133 502.5 1149 Q559 1165 614 1165 Q672 1165 728 1149 Q784 1133 829 1093 Q874 1053 902 987.5 Q930 922 930 823 Q930 725 901 659.5 Q872 594 827 554 Q782 514 726 497.5 Q670 481 614 481 Z M614 580 Q713 580 765 640 Q817 700 817 823 Q817 946 765 1006.5 Q713 1067 614 1067 Q516 1067 464 1006.5 Q412 946 412 823 Q412 700 464 640 Q516 580 614 580 Z M332 360 L901 360 L901 260 L332 260 L332 360 Z " />
<glyph glyph-name="Omega" unicode="&#x2126;" horiz-adv-x="1229" d="M182 113 L418 113 Q383 139 345 186 Q307 233 275.5 299 Q244 365 222.5 450 Q201 535 201 641 Q201 901 305.5 1033 Q410 1165 614 1165 Q827 1165 927.5 1031 Q1028 897 1028 641 Q1028 535 1006.5 450 Q985 365 953.5 299 Q922 233 883 186 Q844 139 811 113 L1047 113 L1047 0 L696 0 L696 109 Q782 213 839.5 341 Q897 469 897 641 Q897 725 882.5 799.5 Q868 874 835.5 930.5 Q803 987 748.5 1020 Q694 1053 614 1053 Q535 1053 480.5 1020 Q426 987 393 930.5 Q360 874 346 799.5 Q332 725 332 641 Q332 469 389 341 Q446 213 532 109 L532 0 L182 0 L182 113 Z " />
<glyph glyph-name="ae" unicode="&#xe6;" horiz-adv-x="1229" d="M348 -20 Q217 -20 142.5 49.5 Q68 119 68 238 Q68 307 93.5 354 Q119 401 160 429 Q201 457 252 468 Q303 479 354 479 Q418 479 470 470 Q522 461 555 449 L555 561 Q555 662 510 730.5 Q465 799 369 799 Q283 799 245 742.5 Q207 686 207 602 L98 602 Q98 735 171 820 Q244 905 379 905 Q477 905 535.5 862 Q594 819 623 750 Q655 815 716.5 860 Q778 905 868 905 Q1004 905 1082.5 790.5 Q1161 676 1161 440 L1161 434 L668 434 Q670 262 723 173 Q776 84 874 84 Q918 84 950.5 101.5 Q983 119 1003.5 146.5 Q1024 174 1034 211 Q1044 248 1044 287 L1159 287 Q1157 223 1137.5 168 Q1118 113 1081 71 Q1044 29 993 4.5 Q942 -20 874 -20 Q715 -20 627 117 Q586 59 519.5 19.5 Q453 -20 348 -20 Z M356 86 Q436 86 497.5 118 Q559 150 594 182 Q561 262 553 360 Q526 371 478 376 Q430 381 377 381 Q186 381 186 238 Q186 162 232.5 124 Q279 86 356 86 Z M1044 535 Q1034 657 990 729 Q946 801 860 801 Q772 801 727 728 Q682 655 672 535 L1044 535 Z " />
<glyph glyph-name="oslash" unicode="&#xf8;" horiz-adv-x="1229" d="M612 -20 Q535 -20 456 5.5 Q377 31 317 94 L217 0 L66 0 L258 180 Q233 229 219 293.5 Q205 358 205 442 Q205 578 243 667 Q281 756 340 809 Q399 862 472 883.5 Q545 905 616 905 Q694 905 773 879.5 Q852 854 911 791 L1012 885 L1163 885 L971 705 Q995 653 1009.5 588.5 Q1024 524 1024 442 Q1024 307 986 218 Q948 129 888.5 76 Q829 23 756.5 1.5 Q684 -20 612 -20 Z M612 92 Q899 92 899 442 Q899 541 874 614 L406 176 Q475 92 612 92 Z M823 709 Q750 793 614 793 Q330 793 330 442 Q330 340 354 270 L823 709 Z " />
<glyph glyph-name="questiondown" unicode="&#xbf;" horiz-adv-x="1229" d="M627 -281 Q524 -281 449.5 -255 Q375 -229 327 -187 Q279 -145 255 -89 Q231 -33 231 29 Q231 92 256 149.5 Q281 207 331 263 Q381 319 456.5 377.5 Q532 436 633 504 L692 436 Q592 356 527.5 298 Q463 240 426 195 Q389 150 374.5 111 Q360 72 360 33 Q360 -8 373.5 -44 Q387 -80 419 -107.5 Q451 -135 503 -151.5 Q555 -168 631 -168 Q760 -168 829.5 -119 Q899 -70 899 33 L1022 33 Q1022 -53 989 -113.5 Q956 -174 902 -211 Q848 -248 776.5 -264.5 Q705 -281 627 -281 Z M530 885 L739 885 L739 676 L530 676 L530 885 Z " />
<glyph glyph-name="exclamdown" unicode="&#xa1;" horiz-adv-x="1229" d="M549 98 L578 489 L653 489 L682 98 L682 -258 L549 -258 L549 98 Z M510 885 L719 885 L719 674 L510 674 L510 885 Z " />
<glyph glyph-name="logicalnot" unicode="&#xac;" horiz-adv-x="1229" d="M764 389 L340 389 L340 500 L889 500 L889 121 L764 121 L764 389 Z " />
<glyph glyph-name="radical" unicode="&#x221a;" horiz-adv-x="1229" d="M166 885 L301 885 L502 395 L614 119 L727 397 L1092 1294 L1223 1294 L678 0 L543 0 L166 885 Z " />
<glyph glyph-name="florin" unicode="&#x192;" horiz-adv-x="1229" d="M186 -264 Q258 -264 324.5 -251 Q391 -238 441.5 -205 Q492 -172 521.5 -115.5 Q551 -59 551 29 L551 522 L248 522 L248 633 L551 633 L551 750 Q551 946 677 1049.5 Q803 1153 1044 1153 L1044 1042 Q973 1042 906.5 1029 Q840 1016 789.5 983 Q739 950 709.5 894 Q680 838 680 750 L680 633 L979 633 L979 522 L680 522 L680 29 Q680 -168 554 -271.5 Q428 -375 186 -375 L186 -264 Z " />
<glyph glyph-name="approxequal" unicode="&#x2248;" horiz-adv-x="1229" d="M174 186 Q184 221 202.5 262 Q221 303 250 338 Q279 373 316.5 396.5 Q354 420 401 420 Q446 420 505.5 397.5 Q565 375 625.5 349.5 Q686 324 740.5 301.5 Q795 279 829 279 Q885 279 923 322 Q961 365 987 420 L1055 391 Q1044 356 1026 315 Q1008 274 979 239.5 Q950 205 912 181.5 Q874 158 827 158 Q782 158 723 180.5 Q664 203 603.5 228.5 Q543 254 488.5 276.5 Q434 299 399 299 Q344 299 306 256 Q268 213 242 158 L174 186 Z M174 485 Q184 520 202.5 561 Q221 602 250 637 Q279 672 316.5 695.5 Q354 719 401 719 Q446 719 505.5 696.5 Q565 674 625.5 648.5 Q686 623 740.5 600.5 Q795 578 829 578 Q885 578 923 621 Q961 664 987 719 L1055 690 Q1044 655 1026 614 Q1008 573 979 538.5 Q950 504 912 480.5 Q874 457 827 457 Q782 457 723 479.5 Q664 502 603.5 527.5 Q543 553 488.5 575.5 Q434 598 399 598 Q344 598 306 555 Q268 512 242 457 L174 485 Z " />
<glyph glyph-name="Delta" unicode="&#x2206;" horiz-adv-x="1229" d="M170 102 L535 1143 L694 1143 L1059 102 L1059 0 L170 0 L170 102 Z M309 113 L915 113 L745 621 L612 1014 L481 623 L309 113 Z " />
<glyph glyph-name="guillemotleft" unicode="&#xab;" horiz-adv-x="1229" d="M197 475 L506 831 L635 831 L338 475 L635 119 L506 119 L197 475 Z M594 475 L903 831 L1032 831 L735 475 L1032 119 L903 119 L594 475 Z " />
<glyph glyph-name="guillemotright" unicode="&#xbb;" horiz-adv-x="1229" d="M891 475 L594 831 L723 831 L1032 475 L723 119 L594 119 L891 475 Z M494 475 L197 831 L326 831 L635 475 L326 119 L197 119 L494 475 Z " />
<glyph glyph-name="ellipsis" unicode="&#x2026;" horiz-adv-x="1229" d="M143 172 L315 172 L315 0 L143 0 L143 172 Z M528 172 L700 172 L700 0 L528 0 L528 172 Z M913 172 L1085 172 L1085 0 L913 0 L913 172 Z " />
<glyph glyph-name="uni00A0" unicode="&#xa0;" horiz-adv-x="1229" d="" />
<glyph glyph-name="Agrave" unicode="&#xc0;" horiz-adv-x="1229" d="M543 1143 L686 1143 L1092 0 L948 0 L852 285 L375 285 L276 0 L137 0 L543 1143 Z M813 397 L743 604 L612 1008 L481 608 L410 397 L813 397 Z M394 1614 L557 1614 L715 1223 L639 1223 L394 1614 Z " />
<glyph glyph-name="Atilde" unicode="&#xc3;" horiz-adv-x="1229" d="M543 1143 L686 1143 L1092 0 L948 0 L852 285 L375 285 L276 0 L137 0 L543 1143 Z M813 397 L743 604 L612 1008 L481 608 L410 397 L813 397 Z M279 1313 Q291 1354 312.5 1396 Q334 1438 361.5 1471.5 Q389 1505 423 1526.5 Q457 1548 496 1548 Q537 1548 567.5 1526.5 Q598 1505 623.5 1478.5 Q649 1452 673 1430.5 Q697 1409 727 1409 Q770 1409 806 1452 Q842 1495 869 1548 L930 1519 Q918 1479 896.5 1437 Q875 1395 847 1361 Q819 1327 785.5 1305.5 Q752 1284 713 1284 Q672 1284 641.5 1305.5 Q611 1327 585 1353.5 Q559 1380 535.5 1401.5 Q512 1423 482 1423 Q439 1423 403 1380 Q367 1337 340 1284 L279 1313 Z " />
<glyph glyph-name="Otilde" unicode="&#xd5;" horiz-adv-x="1229" d="M612 -20 Q502 -20 421 23 Q340 66 286.5 143.5 Q233 221 207.5 329.5 Q182 438 182 567 Q182 702 209 812 Q236 922 290 1000.5 Q344 1079 426 1122 Q508 1165 616 1165 Q727 1165 808 1122 Q889 1079 942 1000.5 Q995 922 1021 813.5 Q1047 705 1047 575 Q1047 440 1020 330.5 Q993 221 939 143.5 Q885 66 803 23 Q721 -20 612 -20 Z M614 94 Q705 94 762 135 Q819 176 853 242.5 Q887 309 900 395 Q913 481 913 571 Q913 662 900 748 Q887 834 853 901.5 Q819 969 762 1010 Q705 1051 614 1051 Q524 1051 467 1010 Q410 969 376 901.5 Q342 834 328.5 748 Q315 662 315 571 Q315 481 328.5 395 Q342 309 376 242.5 Q410 176 467 135 Q524 94 614 94 Z M279 1313 Q291 1354 312.5 1396 Q334 1438 361.5 1471.5 Q389 1505 423 1526.5 Q457 1548 496 1548 Q537 1548 567.5 1526.5 Q598 1505 623.5 1478.5 Q649 1452 673 1430.5 Q697 1409 727 1409 Q770 1409 806 1452 Q842 1495 869 1548 L930 1519 Q918 1479 896.5 1437 Q875 1395 847 1361 Q819 1327 785.5 1305.5 Q752 1284 713 1284 Q672 1284 641.5 1305.5 Q611 1327 585 1353.5 Q559 1380 535.5 1401.5 Q512 1423 482 1423 Q439 1423 403 1380 Q367 1337 340 1284 L279 1313 Z " />
<glyph glyph-name="OE" unicode="&#x152;" horiz-adv-x="1229" d="M481 -20 Q256 -20 155.5 133.5 Q55 287 55 567 Q55 858 157.5 1011.5 Q260 1165 479 1165 Q528 1165 567 1159 Q606 1153 635 1143 L1182 1143 L1182 1030 L764 1030 L764 641 L1100 641 L1100 528 L764 528 L764 113 L1182 113 L1182 0 L635 0 Q606 -10 568 -15 Q530 -20 481 -20 Z M492 88 Q532 88 570 94 Q608 100 635 111 L635 1032 Q606 1042 566 1049.5 Q526 1057 492 1057 Q397 1057 338 1017 Q279 977 246 909.5 Q213 842 200.5 754 Q188 666 188 571 Q188 477 200.5 390 Q213 303 246 235.5 Q279 168 338 128 Q397 88 492 88 Z " />
<glyph glyph-name="oe" unicode="&#x153;" horiz-adv-x="1229" d="M354 -20 Q289 -20 232.5 5.5 Q176 31 134 87 Q92 143 67.5 230 Q43 317 43 440 Q43 565 68.5 654 Q94 743 137 798.5 Q180 854 236.5 879.5 Q293 905 356 905 Q440 905 507.5 862 Q575 819 616 725 Q659 817 729 861 Q799 905 883 905 Q1018 905 1101 790.5 Q1184 676 1184 440 L1184 434 L674 434 Q676 264 733.5 174 Q791 84 889 84 Q932 84 965.5 101.5 Q999 119 1021.5 146.5 Q1044 174 1055.5 211 Q1067 248 1067 287 L1182 287 Q1180 223 1158.5 168 Q1137 113 1100 71 Q1063 29 1009.5 4.5 Q956 -20 889 -20 Q799 -20 729 25 Q659 70 616 160 Q575 66 507.5 23 Q440 -20 354 -20 Z M358 84 Q459 84 509 181.5 Q559 279 559 442 Q559 606 509 703.5 Q459 801 358 801 Q258 801 208 703.5 Q158 606 158 442 Q158 279 208 181.5 Q258 84 358 84 Z M1067 532 Q1055 655 1008 728 Q961 801 874 801 Q788 801 739 727 Q690 653 678 532 L1067 532 Z " />
<glyph glyph-name="endash" unicode="&#x2013;" horiz-adv-x="1229" d="M236 500 L993 500 L993 389 L236 389 L236 500 Z " />
<glyph glyph-name="emdash" unicode="&#x2014;" horiz-adv-x="1229" d="M0 500 L1229 500 L1229 389 L0 389 L0 500 Z " />
<glyph glyph-name="quotedblleft" unicode="&#x201c;" horiz-adv-x="1229" d="M489 1204 Q506 1233 517 1240 Q528 1247 543 1247 Q580 1247 580 1212 Q580 1198 573 1178 L436 725 L213 725 L489 1204 Z M895 1204 Q911 1233 922.5 1240 Q934 1247 948 1247 Q985 1247 985 1212 Q985 1198 979 1178 L842 725 L618 725 L895 1204 Z " />
<glyph glyph-name="quotedblright" unicode="&#x201d;" horiz-adv-x="1229" d="M281 702 Q244 702 244 737 Q244 750 250 772 L387 1225 L610 1225 L334 745 Q317 717 306 709.5 Q295 702 281 702 Z M686 702 Q649 702 649 737 Q649 750 655 772 L793 1225 L1016 1225 L739 745 Q723 717 711.5 709.5 Q700 702 686 702 Z " />
<glyph glyph-name="quoteleft" unicode="&#x2018;" horiz-adv-x="1229" d="M731 1204 Q748 1233 759 1240 Q770 1247 784 1247 Q821 1247 821 1212 Q821 1198 815 1178 L678 725 L455 725 L731 1204 Z " />
<glyph glyph-name="quoteright" unicode="&#x2019;" horiz-adv-x="1229" d="M444 702 Q408 702 408 737 Q408 750 414 772 L551 1225 L774 1225 L498 745 Q481 717 470 709.5 Q459 702 444 702 Z " />
<glyph glyph-name="divide" unicode="&#xf7;" horiz-adv-x="1229" d="M530 168 L698 168 L698 0 L530 0 L530 168 Z M236 500 L993 500 L993 389 L236 389 L236 500 Z M530 885 L698 885 L698 717 L530 717 L530 885 Z " />
<glyph glyph-name="lozenge" unicode="&#x25ca;" horiz-adv-x="1229" d="M20 571 L614 1165 L1208 571 L614 -23 L20 571 Z M614 137 L1051 571 L614 1008 L178 571 L614 137 Z " />
<glyph glyph-name="ydieresis" unicode="&#xff;" horiz-adv-x="1229" d="M180 -264 Q250 -264 305 -250 Q360 -236 403 -204 Q446 -172 481 -123 Q516 -74 545 -4 L166 885 L299 885 L477 446 L612 117 L737 426 L924 885 L1055 885 L674 -10 Q631 -111 583 -180.5 Q535 -250 476.5 -293 Q418 -336 345 -355.5 Q272 -375 180 -375 L180 -264 Z M328 1294 L494 1294 L494 1128 L328 1128 L328 1294 Z M739 1294 L905 1294 L905 1128 L739 1128 L739 1294 Z " />
<glyph glyph-name="Ydieresis" unicode="&#x178;" horiz-adv-x="1229" d="M551 463 L98 1143 L248 1143 L432 864 L618 569 L803 864 L983 1143 L1133 1143 L680 459 L680 0 L551 0 L551 463 Z M328 1513 L494 1513 L494 1347 L328 1347 L328 1513 Z M739 1513 L905 1513 L905 1347 L739 1347 L739 1513 Z " />
<glyph glyph-name="fraction" unicode="&#x2044;" horiz-adv-x="1229" d="M506 475 L567 475 L567 414 L313 0 L213 0 L506 475 Z M662 729 L915 1143 L1016 1143 L723 668 L662 668 L662 729 Z " />
<glyph glyph-name="Euro" unicode="&#x20ac;" horiz-adv-x="1229" d="M639 -20 Q410 -20 296 131.5 Q182 283 182 569 Q182 862 299 1013.5 Q416 1165 647 1165 Q709 1165 776.5 1152 Q844 1139 902.5 1102 Q961 1065 1000.5 999.5 Q1040 934 1044 829 L915 829 Q901 956 833.5 1005.5 Q766 1055 657 1055 Q580 1055 523.5 1033.5 Q467 1012 428 975 Q389 938 366.5 887 Q344 836 332 776 L795 776 L795 666 L317 666 Q315 643 315 618.5 Q315 594 315 571 Q315 549 315 528.5 Q315 508 317 487 L795 487 L795 377 L330 377 Q340 315 362.5 263 Q385 211 424 172 Q463 133 519 111.5 Q575 90 655 90 Q707 90 752 100.5 Q797 111 830.5 137.5 Q864 164 886.5 207 Q909 250 915 315 L1044 315 Q1040 215 1000.5 149.5 Q961 84 902.5 46 Q844 8 773 -6 Q702 -20 639 -20 Z " />
<glyph glyph-name="guilsinglleft" unicode="&#x2039;" horiz-adv-x="1229" d="M395 475 L705 831 L834 831 L537 475 L834 119 L705 119 L395 475 Z " />
<glyph glyph-name="guilsinglright" unicode="&#x203a;" horiz-adv-x="1229" d="M692 475 L395 831 L524 831 L834 475 L524 119 L395 119 L692 475 Z " />
<glyph glyph-name="fi" unicode="&#xfb01;" horiz-adv-x="1229" d="M305 774 L84 774 L84 885 L305 885 L305 887 Q305 981 326.5 1055.5 Q348 1130 398.5 1183.5 Q449 1237 529.5 1265.5 Q610 1294 729 1294 L729 1184 Q655 1184 598 1170.5 Q541 1157 503 1123.5 Q465 1090 445.5 1032.5 Q426 975 426 887 L426 885 L680 885 L680 774 L426 774 L426 0 L305 0 L305 774 Z M852 885 L973 885 L973 0 L852 0 L852 885 Z M827 1294 L993 1294 L993 1128 L827 1128 L827 1294 Z " />
<glyph glyph-name="fl" unicode="&#xfb02;" horiz-adv-x="1229" d="M305 774 L84 774 L84 885 L305 885 L305 887 Q305 981 326.5 1055.5 Q348 1130 398.5 1183.5 Q449 1237 529.5 1265.5 Q610 1294 729 1294 L729 1184 Q655 1184 598 1170.5 Q541 1157 503 1123.5 Q465 1090 445.5 1032.5 Q426 975 426 887 L426 885 L680 885 L680 774 L426 774 L426 0 L305 0 L305 774 Z M852 1294 L973 1294 L973 0 L852 0 L852 1294 Z " />
<glyph glyph-name="daggerdbl" unicode="&#x2021;" horiz-adv-x="1229" d="M557 575 L297 575 L297 676 L557 676 L557 942 L297 942 L297 1044 L557 1044 L557 1294 L672 1294 L672 1044 L932 1044 L932 942 L672 942 L672 676 L932 676 L932 575 L672 575 L672 152 L557 152 L557 575 Z " />
<glyph glyph-name="periodcentered" unicode="&#xb7;" horiz-adv-x="1229" d="M510 676 L719 676 L719 467 L510 467 L510 676 Z " />
<glyph glyph-name="quotesinglbase" unicode="&#x201a;" horiz-adv-x="1229" d="M430 -313 Q393 -313 393 -279 Q393 -266 399 -244 L537 209 L760 209 L483 -270 Q467 -299 455.5 -306 Q444 -313 430 -313 Z " />
<glyph glyph-name="quotedblbase" unicode="&#x201e;" horiz-adv-x="1229" d="M217 -313 Q180 -313 180 -279 Q180 -266 186 -244 L324 209 L547 209 L270 -270 Q254 -299 242.5 -306 Q231 -313 217 -313 Z M620 -313 Q583 -313 583 -279 Q583 -266 589 -244 L727 209 L950 209 L673 -270 Q657 -299 645.5 -306 Q634 -313 620 -313 Z " />
<glyph glyph-name="perthousand" unicode="&#x2030;" horiz-adv-x="1229" d="M223 526 Q125 526 89 599 Q53 672 53 842 Q53 1016 90 1090.5 Q127 1165 227 1165 Q326 1165 361.5 1092.5 Q397 1020 397 850 Q397 676 360.5 601 Q324 526 223 526 Z M225 614 Q272 614 284.5 667.5 Q297 721 297 846 Q297 971 284.5 1024 Q272 1077 225 1077 Q178 1077 166 1024 Q154 971 154 846 Q154 721 166 667.5 Q178 614 225 614 Z M553 -20 Q455 -20 419 52.5 Q383 125 383 295 Q383 469 420 543.5 Q457 618 557 618 Q655 618 691 545.5 Q727 473 727 303 Q727 129 690 54.5 Q653 -20 553 -20 Z M555 68 Q602 68 614.5 121 Q627 174 627 299 Q627 424 614.5 477 Q602 530 555 530 Q508 530 495.5 477 Q483 424 483 299 Q483 174 495.5 121 Q508 68 555 68 Z M1001 -20 Q903 -20 867 52.5 Q831 125 831 295 Q831 469 868 543.5 Q905 618 1006 618 Q1104 618 1140 545.5 Q1176 473 1176 303 Q1176 129 1139 54.5 Q1102 -20 1001 -20 Z M1004 68 Q1051 68 1063 121 Q1075 174 1075 299 Q1075 424 1063 477 Q1051 530 1004 530 Q956 530 944 477 Q932 424 932 299 Q932 174 944 121 Q956 68 1004 68 Z M240 453 L303 453 L303 389 L166 207 L55 207 L240 453 Z M477 756 L614 938 L725 938 L541 692 L477 692 L477 756 Z " />
<glyph glyph-name="Acircumflex" unicode="&#xc2;" horiz-adv-x="1229" d="M543 1143 L686 1143 L1092 0 L948 0 L852 285 L375 285 L276 0 L137 0 L543 1143 Z M813 397 L743 604 L612 1008 L481 608 L410 397 L813 397 Z M549 1614 L680 1614 L885 1223 L803 1223 L614 1474 L426 1223 L344 1223 L549 1614 Z " />
<glyph glyph-name="Ecircumflex" unicode="&#xca;" horiz-adv-x="1229" d="M567 1614 L698 1614 L903 1223 L821 1223 L632 1474 L444 1223 L362 1223 L567 1614 Z M274 1143 L979 1143 L979 1030 L403 1030 L403 641 L909 641 L909 528 L403 528 L403 113 L979 113 L979 0 L274 0 L274 1143 Z " />
<glyph glyph-name="Aacute" unicode="&#xc1;" horiz-adv-x="1229" d="M543 1143 L686 1143 L1092 0 L948 0 L852 285 L375 285 L276 0 L137 0 L543 1143 Z M813 397 L743 604 L612 1008 L481 608 L410 397 L813 397 Z M676 1614 L840 1614 L594 1223 L519 1223 L676 1614 Z " />
<glyph glyph-name="Edieresis" unicode="&#xcb;" horiz-adv-x="1229" d="M346 1513 L512 1513 L512 1347 L346 1347 L346 1513 Z M757 1513 L923 1513 L923 1347 L757 1347 L757 1513 Z M274 1143 L979 1143 L979 1030 L403 1030 L403 641 L909 641 L909 528 L403 528 L403 113 L979 113 L979 0 L274 0 L274 1143 Z " />
<glyph glyph-name="Egrave" unicode="&#xc8;" horiz-adv-x="1229" d="M274 1143 L979 1143 L979 1030 L403 1030 L403 641 L909 641 L909 528 L403 528 L403 113 L979 113 L979 0 L274 0 L274 1143 Z M412 1614 L575 1614 L733 1223 L657 1223 L412 1614 Z " />
<glyph glyph-name="Iacute" unicode="&#xcd;" horiz-adv-x="1229" d="M272 113 L551 113 L551 1030 L272 1030 L272 1143 L958 1143 L958 1030 L680 1030 L680 113 L958 113 L958 0 L272 0 L272 113 Z M676 1614 L840 1614 L594 1223 L519 1223 L676 1614 Z " />
<glyph glyph-name="Icircumflex" unicode="&#xce;" horiz-adv-x="1229" d="M272 113 L551 113 L551 1030 L272 1030 L272 1143 L958 1143 L958 1030 L680 1030 L680 113 L958 113 L958 0 L272 0 L272 113 Z M549 1614 L680 1614 L885 1223 L803 1223 L614 1474 L426 1223 L344 1223 L549 1614 Z " />
<glyph glyph-name="Idieresis" unicode="&#xcf;" horiz-adv-x="1229" d="M272 113 L551 113 L551 1030 L272 1030 L272 1143 L958 1143 L958 1030 L680 1030 L680 113 L958 113 L958 0 L272 0 L272 113 Z M328 1513 L494 1513 L494 1347 L328 1347 L328 1513 Z M739 1513 L905 1513 L905 1347 L739 1347 L739 1513 Z " />
<glyph glyph-name="Igrave" unicode="&#xcc;" horiz-adv-x="1229" d="M272 113 L551 113 L551 1030 L272 1030 L272 1143 L958 1143 L958 1030 L680 1030 L680 113 L958 113 L958 0 L272 0 L272 113 Z M394 1614 L557 1614 L715 1223 L639 1223 L394 1614 Z " />
<glyph glyph-name="Oacute" unicode="&#xd3;" horiz-adv-x="1229" d="M676 1614 L840 1614 L594 1223 L519 1223 L676 1614 Z M612 -20 Q502 -20 421 23 Q340 66 286.5 143.5 Q233 221 207.5 329.5 Q182 438 182 567 Q182 702 209 812 Q236 922 290 1000.5 Q344 1079 426 1122 Q508 1165 616 1165 Q727 1165 808 1122 Q889 1079 942 1000.5 Q995 922 1021 813.5 Q1047 705 1047 575 Q1047 440 1020 330.5 Q993 221 939 143.5 Q885 66 803 23 Q721 -20 612 -20 Z M614 94 Q705 94 762 135 Q819 176 853 242.5 Q887 309 900 395 Q913 481 913 571 Q913 662 900 748 Q887 834 853 901.5 Q819 969 762 1010 Q705 1051 614 1051 Q524 1051 467 1010 Q410 969 376 901.5 Q342 834 328.5 748 Q315 662 315 571 Q315 481 328.5 395 Q342 309 376 242.5 Q410 176 467 135 Q524 94 614 94 Z " />
<glyph glyph-name="Ocircumflex" unicode="&#xd4;" horiz-adv-x="1229" d="M549 1614 L680 1614 L885 1223 L803 1223 L614 1474 L426 1223 L344 1223 L549 1614 Z M612 -20 Q502 -20 421 23 Q340 66 286.5 143.5 Q233 221 207.5 329.5 Q182 438 182 567 Q182 702 209 812 Q236 922 290 1000.5 Q344 1079 426 1122 Q508 1165 616 1165 Q727 1165 808 1122 Q889 1079 942 1000.5 Q995 922 1021 813.5 Q1047 705 1047 575 Q1047 440 1020 330.5 Q993 221 939 143.5 Q885 66 803 23 Q721 -20 612 -20 Z M614 94 Q705 94 762 135 Q819 176 853 242.5 Q887 309 900 395 Q913 481 913 571 Q913 662 900 748 Q887 834 853 901.5 Q819 969 762 1010 Q705 1051 614 1051 Q524 1051 467 1010 Q410 969 376 901.5 Q342 834 328.5 748 Q315 662 315 571 Q315 481 328.5 395 Q342 309 376 242.5 Q410 176 467 135 Q524 94 614 94 Z " />
<glyph glyph-name="Ograve" unicode="&#xd2;" horiz-adv-x="1229" d="M612 -20 Q502 -20 421 23 Q340 66 286.5 143.5 Q233 221 207.5 329.5 Q182 438 182 567 Q182 702 209 812 Q236 922 290 1000.5 Q344 1079 426 1122 Q508 1165 616 1165 Q727 1165 808 1122 Q889 1079 942 1000.5 Q995 922 1021 813.5 Q1047 705 1047 575 Q1047 440 1020 330.5 Q993 221 939 143.5 Q885 66 803 23 Q721 -20 612 -20 Z M614 94 Q705 94 762 135 Q819 176 853 242.5 Q887 309 900 395 Q913 481 913 571 Q913 662 900 748 Q887 834 853 901.5 Q819 969 762 1010 Q705 1051 614 1051 Q524 1051 467 1010 Q410 969 376 901.5 Q342 834 328.5 748 Q315 662 315 571 Q315 481 328.5 395 Q342 309 376 242.5 Q410 176 467 135 Q524 94 614 94 Z M394 1614 L557 1614 L715 1223 L639 1223 L394 1614 Z " />
<glyph glyph-name="Uacute" unicode="&#xda;" horiz-adv-x="1229" d="M676 1614 L840 1614 L594 1223 L519 1223 L676 1614 Z M614 -20 Q424 -20 333 75 Q242 170 242 395 L242 1143 L371 1143 L371 395 Q371 231 426 162.5 Q481 94 614 94 Q750 94 805 162.5 Q860 231 860 395 L860 1143 L989 1143 L989 395 Q989 170 897 75 Q805 -20 614 -20 Z " />
<glyph glyph-name="Ucircumflex" unicode="&#xdb;" horiz-adv-x="1229" d="M549 1614 L680 1614 L885 1223 L803 1223 L614 1474 L426 1223 L344 1223 L549 1614 Z M614 -20 Q424 -20 333 75 Q242 170 242 395 L242 1143 L371 1143 L371 395 Q371 231 426 162.5 Q481 94 614 94 Q750 94 805 162.5 Q860 231 860 395 L860 1143 L989 1143 L989 395 Q989 170 897 75 Q805 -20 614 -20 Z " />
<glyph glyph-name="Ugrave" unicode="&#xd9;" horiz-adv-x="1229" d="M614 -20 Q424 -20 333 75 Q242 170 242 395 L242 1143 L371 1143 L371 395 Q371 231 426 162.5 Q481 94 614 94 Q750 94 805 162.5 Q860 231 860 395 L860 1143 L989 1143 L989 395 Q989 170 897 75 Q805 -20 614 -20 Z M394 1614 L557 1614 L715 1223 L639 1223 L394 1614 Z " />
<glyph glyph-name="dotlessi" unicode="&#x131;" horiz-adv-x="1229" d="M242 111 L569 111 L569 774 L242 774 L242 885 L690 885 L690 111 L991 111 L991 0 L242 0 L242 111 Z " />
<glyph glyph-name="circumflex" unicode="&#x2c6;" horiz-adv-x="1229" d="M549 1395 L680 1395 L885 1004 L803 1004 L614 1255 L426 1004 L344 1004 L549 1395 Z " />
<glyph glyph-name="tilde" unicode="&#x2dc;" horiz-adv-x="1229" d="M289 1094 Q301 1135 322.5 1177 Q344 1219 371.5 1252.5 Q399 1286 433 1307.5 Q467 1329 506 1329 Q547 1329 577.5 1307.5 Q608 1286 633.5 1259.5 Q659 1233 683 1211.5 Q707 1190 737 1190 Q780 1190 816 1233 Q852 1276 879 1329 L940 1300 Q928 1260 906.5 1218 Q885 1176 857 1142 Q829 1108 795.5 1086.5 Q762 1065 723 1065 Q682 1065 651.5 1086.5 Q621 1108 595 1134.5 Q569 1161 545.5 1182.5 Q522 1204 492 1204 Q449 1204 413 1161 Q377 1118 350 1065 L289 1094 Z " />
<glyph glyph-name="macron" unicode="&#xaf;" horiz-adv-x="1229" d="M344 1237 L887 1237 L887 1126 L344 1126 L344 1237 Z " />
<glyph glyph-name="breve" unicode="&#x2d8;" horiz-adv-x="1229" d="M614 1081 Q547 1081 494.5 1107 Q442 1133 404.5 1169.5 Q367 1206 343 1247 Q319 1288 309 1319 L367 1354 Q383 1327 405.5 1300.5 Q428 1274 457.5 1252.5 Q487 1231 526 1216.5 Q565 1202 614 1202 Q664 1202 702.5 1216.5 Q741 1231 771 1252.5 Q801 1274 823.5 1300.5 Q846 1327 862 1354 L920 1319 Q909 1288 885.5 1247 Q862 1206 824 1169.5 Q786 1133 734 1107 Q682 1081 614 1081 Z " />
<glyph glyph-name="dotaccent" unicode="&#x2d9;" horiz-adv-x="1229" d="M530 1270 L696 1270 L696 1104 L530 1104 L530 1270 Z " />
<glyph glyph-name="ring" unicode="&#x2da;" horiz-adv-x="1229" d="M614 981 Q559 981 512 1000.5 Q465 1020 430 1055 Q395 1090 375.5 1136 Q356 1182 356 1235 Q356 1288 375.5 1334 Q395 1380 430 1415 Q465 1450 512 1469.5 Q559 1489 614 1489 Q670 1489 717 1469.5 Q764 1450 799 1415 Q834 1380 853 1334 Q872 1288 872 1235 Q872 1182 853 1136 Q834 1090 799 1055 Q764 1020 717 1000.5 Q670 981 614 981 Z M614 1067 Q686 1067 734 1115 Q782 1163 782 1235 Q782 1307 734 1355 Q686 1403 614 1403 Q543 1403 494.5 1355 Q446 1307 446 1235 Q446 1163 494.5 1115 Q543 1067 614 1067 Z " />
<glyph glyph-name="cedilla" unicode="&#xb8;" horiz-adv-x="1229" d="M588 -385 Q535 -385 492 -372.5 Q449 -360 432 -350 L457 -272 Q475 -283 503.5 -290 Q532 -297 561 -297 Q602 -297 623.5 -282.5 Q645 -268 645 -248 Q645 -213 598 -190.5 Q551 -168 485 -152 L518 0 L598 0 L580 -90 Q664 -115 715 -155 Q766 -195 766 -254 Q766 -307 723 -346 Q680 -385 588 -385 Z " />
<glyph glyph-name="hungarumlaut" unicode="&#x2dd;" horiz-adv-x="1229" d="M416 1395 L584 1395 L342 1004 L262 1004 L416 1395 Z M797 1395 L965 1395 L723 1004 L643 1004 L797 1395 Z " />
<glyph glyph-name="ogonek" unicode="&#x2db;" horiz-adv-x="1229" d="M625 -385 Q543 -385 492.5 -349 Q442 -313 442 -252 Q442 -184 505.5 -129 Q569 -74 692 0 L786 0 Q672 -88 621.5 -138 Q571 -188 571 -233 Q571 -268 596 -280.5 Q621 -293 651 -293 Q680 -293 714 -286 Q748 -279 770 -268 L788 -346 Q766 -358 722 -371.5 Q678 -385 625 -385 Z " />
<glyph glyph-name="caron" unicode="&#x2c7;" horiz-adv-x="1229" d="M344 1395 L426 1395 L614 1143 L803 1395 L885 1395 L680 1004 L549 1004 L344 1395 Z " />
<glyph glyph-name="uni0326" unicode="&#x326;" horiz-adv-x="1229" d="M549 -438 Q510 -438 510 -408 Q510 -397 512 -385 Q514 -373 516 -365 L565 -80 L721 -80 L586 -410 Q578 -428 569.5 -433 Q561 -438 549 -438 Z " />
<glyph glyph-name="uni0312" unicode="&#x312;" horiz-adv-x="1229" d="M643 1346 Q651 1364 659.5 1369 Q668 1374 680 1374 Q719 1374 719 1343 Q719 1333 717 1321 Q715 1309 713 1300 L664 1016 L508 1016 L643 1346 Z " />
<glyph glyph-name="uni00AD" unicode="&#xad;" horiz-adv-x="1229" d="M317 629 L911 629 L911 516 L317 516 L317 629 Z " />
<glyph glyph-name="currency" unicode="&#xa4;" horiz-adv-x="1229" d="M205 227 L367 389 Q313 461 313 567 Q313 674 367 745 L205 907 L279 981 L436 821 Q475 844 518 857 Q561 870 614 870 Q668 870 711 857 Q754 844 793 821 L950 981 L1024 907 L862 745 Q915 674 915 567 Q915 461 862 389 L1024 227 L950 154 L793 313 Q754 291 711 277.5 Q668 264 614 264 Q561 264 518 277.5 Q475 291 436 313 L279 154 L205 227 Z M614 367 Q698 367 746.5 421 Q795 475 795 567 Q795 659 746.5 713.5 Q698 768 614 768 Q530 768 482 713.5 Q434 659 434 567 Q434 475 482 421 Q530 367 614 367 Z " />
<glyph glyph-name="Amacron" unicode="&#x100;" horiz-adv-x="1229" d="M543 1143 L686 1143 L1092 0 L948 0 L852 285 L375 285 L276 0 L137 0 L543 1143 Z M813 397 L743 604 L612 1008 L481 608 L410 397 L813 397 Z M344 1456 L887 1456 L887 1345 L344 1345 L344 1456 Z " />
<glyph glyph-name="Abreve" unicode="&#x102;" horiz-adv-x="1229" d="M543 1143 L686 1143 L1092 0 L948 0 L852 285 L375 285 L276 0 L137 0 L543 1143 Z M813 397 L743 604 L612 1008 L481 608 L410 397 L813 397 Z M614 1300 Q547 1300 494.5 1326 Q442 1352 404.5 1388.5 Q367 1425 343 1466 Q319 1507 309 1538 L367 1573 Q383 1546 405.5 1519.5 Q428 1493 457.5 1471.5 Q487 1450 526 1435.5 Q565 1421 614 1421 Q664 1421 702.5 1435.5 Q741 1450 771 1471.5 Q801 1493 823.5 1519.5 Q846 1546 862 1573 L920 1538 Q909 1507 885.5 1466 Q862 1425 824 1388.5 Q786 1352 734 1326 Q682 1300 614 1300 Z " />
<glyph glyph-name="Aogonek" unicode="&#x104;" horiz-adv-x="1229" d="M930 -385 Q848 -385 798 -349 Q748 -313 748 -252 Q748 -184 811 -129 Q874 -74 997 0 L948 0 L852 285 L375 285 L276 0 L137 0 L543 1143 L686 1143 L1092 0 Q977 -88 927 -138 Q877 -188 877 -233 Q877 -268 901.5 -280.5 Q926 -293 956 -293 Q985 -293 1019 -286 Q1053 -279 1075 -268 L1094 -346 Q1071 -358 1027 -371.5 Q983 -385 930 -385 Z M813 397 L743 604 L612 1008 L481 608 L410 397 L813 397 Z " />
<glyph glyph-name="AEacute" unicode="&#x1fc;" horiz-adv-x="1229" d="M676 1614 L840 1614 L594 1223 L519 1223 L676 1614 Z M250 1143 L1112 1143 L1112 1030 L692 1030 L692 641 L1030 641 L1030 528 L692 528 L692 113 L1112 113 L1112 0 L563 0 L563 528 L266 528 L172 0 L41 0 L250 1143 Z M287 641 L563 641 L563 1030 L354 1030 L287 641 Z " />
<glyph glyph-name="Cacute" unicode="&#x106;" horiz-adv-x="1229" d="M684 1614 L848 1614 L602 1223 L527 1223 L684 1614 Z M635 -20 Q412 -20 297 129.5 Q182 279 182 569 Q182 862 299 1013.5 Q416 1165 645 1165 Q711 1165 779.5 1150 Q848 1135 905.5 1094 Q963 1053 1001.5 981 Q1040 909 1044 799 L915 799 Q885 1055 643 1055 Q539 1055 475.5 1013 Q412 971 376 902.5 Q340 834 327.5 746.5 Q315 659 315 571 Q315 483 327.5 397 Q340 311 376 242.5 Q412 174 475.5 132 Q539 90 643 90 Q885 90 915 346 L1044 346 Q1040 242 1002.5 171 Q965 100 907.5 58 Q850 16 778.5 -2 Q707 -20 635 -20 Z " />
<glyph glyph-name="Ccaron" unicode="&#x10c;" horiz-adv-x="1229" d="M352 1614 L434 1614 L622 1362 L811 1614 L893 1614 L688 1223 L557 1223 L352 1614 Z M635 -20 Q412 -20 297 129.5 Q182 279 182 569 Q182 862 299 1013.5 Q416 1165 645 1165 Q711 1165 779.5 1150 Q848 1135 905.5 1094 Q963 1053 1001.5 981 Q1040 909 1044 799 L915 799 Q885 1055 643 1055 Q539 1055 475.5 1013 Q412 971 376 902.5 Q340 834 327.5 746.5 Q315 659 315 571 Q315 483 327.5 397 Q340 311 376 242.5 Q412 174 475.5 132 Q539 90 643 90 Q885 90 915 346 L1044 346 Q1040 242 1002.5 171 Q965 100 907.5 58 Q850 16 778.5 -2 Q707 -20 635 -20 Z " />
<glyph glyph-name="Ccircumflex" unicode="&#x108;" horiz-adv-x="1229" d="M557 1614 L688 1614 L893 1223 L811 1223 L622 1474 L434 1223 L352 1223 L557 1614 Z M635 -20 Q412 -20 297 129.5 Q182 279 182 569 Q182 862 299 1013.5 Q416 1165 645 1165 Q711 1165 779.5 1150 Q848 1135 905.5 1094 Q963 1053 1001.5 981 Q1040 909 1044 799 L915 799 Q885 1055 643 1055 Q539 1055 475.5 1013 Q412 971 376 902.5 Q340 834 327.5 746.5 Q315 659 315 571 Q315 483 327.5 397 Q340 311 376 242.5 Q412 174 475.5 132 Q539 90 643 90 Q885 90 915 346 L1044 346 Q1040 242 1002.5 171 Q965 100 907.5 58 Q850 16 778.5 -2 Q707 -20 635 -20 Z " />
<glyph glyph-name="Cdotaccent" unicode="&#x10a;" horiz-adv-x="1229" d="M635 -20 Q412 -20 297 129.5 Q182 279 182 569 Q182 862 299 1013.5 Q416 1165 645 1165 Q711 1165 779.5 1150 Q848 1135 905.5 1094 Q963 1053 1001.5 981 Q1040 909 1044 799 L915 799 Q885 1055 643 1055 Q539 1055 475.5 1013 Q412 971 376 902.5 Q340 834 327.5 746.5 Q315 659 315 571 Q315 483 327.5 397 Q340 311 376 242.5 Q412 174 475.5 132 Q539 90 643 90 Q885 90 915 346 L1044 346 Q1040 242 1002.5 171 Q965 100 907.5 58 Q850 16 778.5 -2 Q707 -20 635 -20 Z M538 1489 L704 1489 L704 1323 L538 1323 L538 1489 Z " />
<glyph glyph-name="Dcaron" unicode="&#x10e;" horiz-adv-x="1229" d="M344 1614 L426 1614 L614 1362 L803 1614 L885 1614 L680 1223 L549 1223 L344 1614 Z M274 1143 L578 1143 Q715 1143 806 1098 Q897 1053 950.5 976 Q1004 899 1025.5 794.5 Q1047 690 1047 573 Q1047 453 1024 348.5 Q1001 244 948 166 Q895 88 804 44 Q713 0 578 0 L274 0 L274 1143 Z M403 113 L578 113 Q692 113 759.5 157 Q827 201 861 268.5 Q895 336 904 417 Q913 498 913 571 Q913 645 904 726 Q895 807 861 874.5 Q827 942 759.5 986 Q692 1030 578 1030 L403 1030 L403 113 Z " />
<glyph glyph-name="Dcroat" unicode="&#x110;" horiz-adv-x="1229" d="M274 537 L174 537 L174 649 L274 649 L274 1143 L578 1143 Q715 1143 806 1098 Q897 1053 950.5 976 Q1004 899 1025.5 794.5 Q1047 690 1047 573 Q1047 453 1024 348.5 Q1001 244 948 166 Q895 88 804 44 Q713 0 578 0 L274 0 L274 537 Z M403 113 L578 113 Q692 113 759.5 157 Q827 201 861 268.5 Q895 336 904 417 Q913 498 913 571 Q913 645 904 726 Q895 807 861 874.5 Q827 942 759.5 986 Q692 1030 578 1030 L403 1030 L403 649 L649 649 L649 537 L403 537 L403 113 Z " />
<glyph glyph-name="Ebreve" unicode="&#x114;" horiz-adv-x="1229" d="M274 1143 L979 1143 L979 1030 L403 1030 L403 641 L909 641 L909 528 L403 528 L403 113 L979 113 L979 0 L274 0 L274 1143 Z M632 1300 Q565 1300 512.5 1326 Q460 1352 422.5 1388.5 Q385 1425 361 1466 Q337 1507 327 1538 L385 1573 Q401 1546 423.5 1519.5 Q446 1493 475.5 1471.5 Q505 1450 544 1435.5 Q583 1421 632 1421 Q682 1421 720.5 1435.5 Q759 1450 789 1471.5 Q819 1493 841.5 1519.5 Q864 1546 880 1573 L938 1538 Q927 1507 903.5 1466 Q880 1425 842 1388.5 Q804 1352 752 1326 Q700 1300 632 1300 Z " />
<glyph glyph-name="Ecaron" unicode="&#x11a;" horiz-adv-x="1229" d="M362 1614 L444 1614 L632 1362 L821 1614 L903 1614 L698 1223 L567 1223 L362 1614 Z M274 1143 L979 1143 L979 1030 L403 1030 L403 641 L909 641 L909 528 L403 528 L403 113 L979 113 L979 0 L274 0 L274 1143 Z " />
<glyph glyph-name="Edotaccent" unicode="&#x116;" horiz-adv-x="1229" d="M274 1143 L979 1143 L979 1030 L403 1030 L403 641 L909 641 L909 528 L403 528 L403 113 L979 113 L979 0 L274 0 L274 1143 Z M548 1489 L714 1489 L714 1323 L548 1323 L548 1489 Z " />
<glyph glyph-name="Emacron" unicode="&#x112;" horiz-adv-x="1229" d="M274 1143 L979 1143 L979 1030 L403 1030 L403 641 L909 641 L909 528 L403 528 L403 113 L979 113 L979 0 L274 0 L274 1143 Z M362 1456 L905 1456 L905 1345 L362 1345 L362 1456 Z " />
<glyph glyph-name="Eogonek" unicode="&#x118;" horiz-adv-x="1229" d="M817 -385 Q735 -385 685 -349 Q635 -313 635 -252 Q635 -184 698.5 -129 Q762 -74 885 0 L274 0 L274 1143 L979 1143 L979 1030 L403 1030 L403 641 L909 641 L909 528 L403 528 L403 113 L979 113 L979 0 Q864 -88 814 -138 Q764 -188 764 -233 Q764 -268 788.5 -280.5 Q813 -293 844 -293 Q872 -293 906 -286 Q940 -279 963 -268 L981 -346 Q958 -358 914 -371.5 Q870 -385 817 -385 Z " />
<glyph glyph-name="Eng" unicode="&#x14a;" horiz-adv-x="1229" d="M444 -260 Q514 -260 579.5 -248 Q645 -236 696.5 -206 Q748 -176 782.5 -126 Q817 -76 825 0 L768 0 L385 1014 L397 707 L397 0 L274 0 L274 1143 L461 1143 L844 129 L831 436 L831 1143 L954 1143 L954 45 Q954 -152 824 -263.5 Q694 -375 444 -375 L444 -260 Z " />
<glyph glyph-name="Gbreve" unicode="&#x11e;" horiz-adv-x="1229" d="M596 -20 Q477 -20 398 31 Q319 82 271 166 Q223 250 203.5 356.5 Q184 463 184 573 Q184 860 296 1012.5 Q408 1165 616 1165 Q680 1165 746.5 1147.5 Q813 1130 868.5 1085 Q924 1040 960.5 963.5 Q997 887 1001 768 L872 768 Q858 909 794.5 982 Q731 1055 614 1055 Q528 1055 472 1016 Q416 977 381 910.5 Q346 844 331.5 758 Q317 672 317 578 Q317 485 331.5 398 Q346 311 380 242.5 Q414 174 472 132 Q530 90 621 90 Q713 90 774.5 127 Q836 164 870 199 L870 496 L588 496 L588 608 L999 608 L999 0 L901 0 L901 115 Q891 100 867.5 76.5 Q844 53 806 31.5 Q768 10 716 -5 Q664 -20 596 -20 Z M614 1300 Q547 1300 494.5 1326 Q442 1352 404.5 1388.5 Q367 1425 343 1466 Q319 1507 309 1538 L367 1573 Q383 1546 405.5 1519.5 Q428 1493 457.5 1471.5 Q487 1450 526 1435.5 Q565 1421 614 1421 Q664 1421 702.5 1435.5 Q741 1450 771 1471.5 Q801 1493 823.5 1519.5 Q846 1546 862 1573 L920 1538 Q909 1507 885.5 1466 Q862 1425 824 1388.5 Q786 1352 734 1326 Q682 1300 614 1300 Z " />
<glyph glyph-name="Gcircumflex" unicode="&#x11c;" horiz-adv-x="1229" d="M596 -20 Q477 -20 398 31 Q319 82 271 166 Q223 250 203.5 356.5 Q184 463 184 573 Q184 860 296 1012.5 Q408 1165 616 1165 Q680 1165 746.5 1147.5 Q813 1130 868.5 1085 Q924 1040 960.5 963.5 Q997 887 1001 768 L872 768 Q858 909 794.5 982 Q731 1055 614 1055 Q528 1055 472 1016 Q416 977 381 910.5 Q346 844 331.5 758 Q317 672 317 578 Q317 485 331.5 398 Q346 311 380 242.5 Q414 174 472 132 Q530 90 621 90 Q713 90 774.5 127 Q836 164 870 199 L870 496 L588 496 L588 608 L999 608 L999 0 L901 0 L901 115 Q891 100 867.5 76.5 Q844 53 806 31.5 Q768 10 716 -5 Q664 -20 596 -20 Z M549 1614 L680 1614 L885 1223 L803 1223 L614 1474 L426 1223 L344 1223 L549 1614 Z " />
<glyph glyph-name="uni0122" unicode="&#x122;" horiz-adv-x="1229" d="M596 -20 Q477 -20 398 31 Q319 82 271 166 Q223 250 203.5 356.5 Q184 463 184 573 Q184 860 296 1012.5 Q408 1165 616 1165 Q680 1165 746.5 1147.5 Q813 1130 868.5 1085 Q924 1040 960.5 963.5 Q997 887 1001 768 L872 768 Q858 909 794.5 982 Q731 1055 614 1055 Q528 1055 472 1016 Q416 977 381 910.5 Q346 844 331.5 758 Q317 672 317 578 Q317 485 331.5 398 Q346 311 380 242.5 Q414 174 472 132 Q530 90 621 90 Q713 90 774.5 127 Q836 164 870 199 L870 496 L588 496 L588 608 L999 608 L999 0 L901 0 L901 115 Q891 100 867.5 76.5 Q844 53 806 31.5 Q768 10 716 -5 Q664 -20 596 -20 Z M502 -438 Q463 -438 463 -408 Q463 -397 465 -385 Q467 -373 469 -365 L518 -80 L674 -80 L539 -410 Q531 -428 522.5 -433 Q514 -438 502 -438 Z " />
<glyph glyph-name="Gdotaccent" unicode="&#x120;" horiz-adv-x="1229" d="M596 -20 Q477 -20 398 31 Q319 82 271 166 Q223 250 203.5 356.5 Q184 463 184 573 Q184 860 296 1012.5 Q408 1165 616 1165 Q680 1165 746.5 1147.5 Q813 1130 868.5 1085 Q924 1040 960.5 963.5 Q997 887 1001 768 L872 768 Q858 909 794.5 982 Q731 1055 614 1055 Q528 1055 472 1016 Q416 977 381 910.5 Q346 844 331.5 758 Q317 672 317 578 Q317 485 331.5 398 Q346 311 380 242.5 Q414 174 472 132 Q530 90 621 90 Q713 90 774.5 127 Q836 164 870 199 L870 496 L588 496 L588 608 L999 608 L999 0 L901 0 L901 115 Q891 100 867.5 76.5 Q844 53 806 31.5 Q768 10 716 -5 Q664 -20 596 -20 Z M530 1489 L696 1489 L696 1323 L530 1323 L530 1489 Z " />
<glyph glyph-name="Hbar" unicode="&#x126;" horiz-adv-x="1229" d="M274 825 L170 825 L170 934 L274 934 L274 1143 L403 1143 L403 934 L825 934 L825 1143 L954 1143 L954 934 L1059 934 L1059 825 L954 825 L954 0 L825 0 L825 528 L403 528 L403 0 L274 0 L274 825 Z M403 641 L825 641 L825 825 L403 825 L403 641 Z " />
<glyph glyph-name="Hcircumflex" unicode="&#x124;" horiz-adv-x="1229" d="M549 1614 L680 1614 L885 1223 L803 1223 L614 1474 L426 1223 L344 1223 L549 1614 Z M274 1143 L403 1143 L403 641 L825 641 L825 1143 L954 1143 L954 0 L825 0 L825 528 L403 528 L403 0 L274 0 L274 1143 Z " />
<glyph glyph-name="Ibreve" unicode="&#x12c;" horiz-adv-x="1229" d="M272 113 L551 113 L551 1030 L272 1030 L272 1143 L958 1143 L958 1030 L680 1030 L680 113 L958 113 L958 0 L272 0 L272 113 Z M614 1300 Q547 1300 494.5 1326 Q442 1352 404.5 1388.5 Q367 1425 343 1466 Q319 1507 309 1538 L367 1573 Q383 1546 405.5 1519.5 Q428 1493 457.5 1471.5 Q487 1450 526 1435.5 Q565 1421 614 1421 Q664 1421 702.5 1435.5 Q741 1450 771 1471.5 Q801 1493 823.5 1519.5 Q846 1546 862 1573 L920 1538 Q909 1507 885.5 1466 Q862 1425 824 1388.5 Q786 1352 734 1326 Q682 1300 614 1300 Z " />
<glyph glyph-name="Imacron" unicode="&#x12a;" horiz-adv-x="1229" d="M272 113 L551 113 L551 1030 L272 1030 L272 1143 L958 1143 L958 1030 L680 1030 L680 113 L958 113 L958 0 L272 0 L272 113 Z M344 1456 L887 1456 L887 1345 L344 1345 L344 1456 Z " />
<glyph glyph-name="Iogonek" unicode="&#x12e;" horiz-adv-x="1229" d="M575 -385 Q494 -385 443.5 -349 Q393 -313 393 -252 Q393 -184 456.5 -129 Q520 -74 643 0 L272 0 L272 113 L551 113 L551 1030 L272 1030 L272 1143 L958 1143 L958 1030 L680 1030 L680 113 L958 113 L958 0 L737 0 Q623 -88 572.5 -138 Q522 -188 522 -233 Q522 -268 546.5 -280.5 Q571 -293 602 -293 Q631 -293 664.5 -286 Q698 -279 721 -268 L739 -346 Q717 -358 673 -371.5 Q629 -385 575 -385 Z " />
<glyph glyph-name="Itilde" unicode="&#x128;" horiz-adv-x="1229" d="M272 113 L551 113 L551 1030 L272 1030 L272 1143 L958 1143 L958 1030 L680 1030 L680 113 L958 113 L958 0 L272 0 L272 113 Z M289 1313 Q301 1354 322.5 1396 Q344 1438 371.5 1471.5 Q399 1505 433 1526.5 Q467 1548 506 1548 Q547 1548 577.5 1526.5 Q608 1505 633.5 1478.5 Q659 1452 683 1430.5 Q707 1409 737 1409 Q780 1409 816 1452 Q852 1495 879 1548 L940 1519 Q928 1479 906.5 1437 Q885 1395 857 1361 Q829 1327 795.5 1305.5 Q762 1284 723 1284 Q682 1284 651.5 1305.5 Q621 1327 595 1353.5 Q569 1380 545.5 1401.5 Q522 1423 492 1423 Q449 1423 413 1380 Q377 1337 350 1284 L289 1313 Z " />
<glyph glyph-name="Idotaccent" unicode="&#x130;" horiz-adv-x="1229" d="M272 113 L551 113 L551 1030 L272 1030 L272 1143 L958 1143 L958 1030 L680 1030 L680 113 L958 113 L958 0 L272 0 L272 113 Z M530 1489 L696 1489 L696 1323 L530 1323 L530 1489 Z " />
<glyph glyph-name="Jcircumflex" unicode="&#x134;" horiz-adv-x="1229" d="M850 1614 L981 1614 L1186 1223 L1104 1223 L915 1474 L727 1223 L645 1223 L850 1614 Z M600 -20 Q498 -20 426 8.5 Q354 37 307 87 Q260 137 238.5 208 Q217 279 217 362 Q217 377 217 394.5 Q217 412 221 432 L350 432 Q348 422 347 400.5 Q346 379 346 358 Q346 301 359.5 253 Q373 205 402.5 169 Q432 133 480 113.5 Q528 94 598 94 Q741 94 795.5 181 Q850 268 850 426 L850 1143 L979 1143 L979 426 Q979 207 890 93.5 Q801 -20 600 -20 Z " />
<glyph glyph-name="uni0136" unicode="&#x136;" horiz-adv-x="1229" d="M600 -438 Q561 -438 561 -408 Q561 -397 563 -385 Q565 -373 567 -365 L616 -80 L772 -80 L637 -410 Q629 -428 620.5 -433 Q612 -438 600 -438 Z M274 1143 L403 1143 L403 575 L909 1143 L1075 1143 L633 657 L1124 0 L963 0 L551 567 L403 408 L403 0 L274 0 L274 1143 Z " />
<glyph glyph-name="Lacute" unicode="&#x139;" horiz-adv-x="1229" d="M485 1614 L649 1614 L403 1223 L328 1223 L485 1614 Z M274 1143 L403 1143 L403 113 L989 113 L989 0 L274 0 L274 1143 Z " />
<glyph glyph-name="Lcaron" unicode="&#x13d;" horiz-adv-x="1229" d="M735 785 Q696 785 696 815 Q696 826 698 838 Q700 850 702 858 L751 1143 L907 1143 L772 813 Q764 795 755.5 790 Q747 785 735 785 Z M274 1143 L403 1143 L403 113 L989 113 L989 0 L274 0 L274 1143 Z " />
<glyph glyph-name="uni013B" unicode="&#x13b;" horiz-adv-x="1229" d="M580 -438 Q541 -438 541 -408 Q541 -397 543 -385 Q545 -373 547 -365 L596 -80 L752 -80 L617 -410 Q609 -428 600.5 -433 Q592 -438 580 -438 Z M274 1143 L403 1143 L403 113 L989 113 L989 0 L274 0 L274 1143 Z " />
<glyph glyph-name="Ldot" unicode="&#x13f;" horiz-adv-x="1229" d="M274 1143 L403 1143 L403 113 L989 113 L989 0 L274 0 L274 1143 Z M809 688 L1018 688 L1018 479 L809 479 L809 688 Z " />
<glyph glyph-name="Nacute" unicode="&#x143;" horiz-adv-x="1229" d="M274 1143 L461 1143 L844 129 L831 436 L831 1143 L954 1143 L954 0 L768 0 L385 1014 L397 707 L397 0 L274 0 L274 1143 Z M676 1614 L840 1614 L594 1223 L519 1223 L676 1614 Z " />
<glyph glyph-name="Ncaron" unicode="&#x147;" horiz-adv-x="1229" d="M274 1143 L461 1143 L844 129 L831 436 L831 1143 L954 1143 L954 0 L768 0 L385 1014 L397 707 L397 0 L274 0 L274 1143 Z M344 1614 L426 1614 L614 1362 L803 1614 L885 1614 L680 1223 L549 1223 L344 1614 Z " />
<glyph glyph-name="uni0145" unicode="&#x145;" horiz-adv-x="1229" d="M274 1143 L461 1143 L844 129 L831 436 L831 1143 L954 1143 L954 0 L768 0 L385 1014 L397 707 L397 0 L274 0 L274 1143 Z M551 -438 Q512 -438 512 -408 Q512 -397 514 -385 Q516 -373 518 -365 L567 -80 L723 -80 L588 -410 Q580 -428 571.5 -433 Q563 -438 551 -438 Z " />
<glyph glyph-name="Obreve" unicode="&#x14e;" horiz-adv-x="1229" d="M612 -20 Q502 -20 421 23 Q340 66 286.5 143.5 Q233 221 207.5 329.5 Q182 438 182 567 Q182 702 209 812 Q236 922 290 1000.5 Q344 1079 426 1122 Q508 1165 616 1165 Q727 1165 808 1122 Q889 1079 942 1000.5 Q995 922 1021 813.5 Q1047 705 1047 575 Q1047 440 1020 330.5 Q993 221 939 143.5 Q885 66 803 23 Q721 -20 612 -20 Z M614 94 Q705 94 762 135 Q819 176 853 242.5 Q887 309 900 395 Q913 481 913 571 Q913 662 900 748 Q887 834 853 901.5 Q819 969 762 1010 Q705 1051 614 1051 Q524 1051 467 1010 Q410 969 376 901.5 Q342 834 328.5 748 Q315 662 315 571 Q315 481 328.5 395 Q342 309 376 242.5 Q410 176 467 135 Q524 94 614 94 Z M614 1300 Q547 1300 494.5 1326 Q442 1352 404.5 1388.5 Q367 1425 343 1466 Q319 1507 309 1538 L367 1573 Q383 1546 405.5 1519.5 Q428 1493 457.5 1471.5 Q487 1450 526 1435.5 Q565 1421 614 1421 Q664 1421 702.5 1435.5 Q741 1450 771 1471.5 Q801 1493 823.5 1519.5 Q846 1546 862 1573 L920 1538 Q909 1507 885.5 1466 Q862 1425 824 1388.5 Q786 1352 734 1326 Q682 1300 614 1300 Z " />
<glyph glyph-name="Ohungarumlaut" unicode="&#x150;" horiz-adv-x="1229" d="M535 1614 L703 1614 L461 1223 L381 1223 L535 1614 Z M916 1614 L1084 1614 L842 1223 L762 1223 L916 1614 Z M612 -20 Q502 -20 421 23 Q340 66 286.5 143.5 Q233 221 207.5 329.5 Q182 438 182 567 Q182 702 209 812 Q236 922 290 1000.5 Q344 1079 426 1122 Q508 1165 616 1165 Q727 1165 808 1122 Q889 1079 942 1000.5 Q995 922 1021 813.5 Q1047 705 1047 575 Q1047 440 1020 330.5 Q993 221 939 143.5 Q885 66 803 23 Q721 -20 612 -20 Z M614 94 Q705 94 762 135 Q819 176 853 242.5 Q887 309 900 395 Q913 481 913 571 Q913 662 900 748 Q887 834 853 901.5 Q819 969 762 1010 Q705 1051 614 1051 Q524 1051 467 1010 Q410 969 376 901.5 Q342 834 328.5 748 Q315 662 315 571 Q315 481 328.5 395 Q342 309 376 242.5 Q410 176 467 135 Q524 94 614 94 Z " />
<glyph glyph-name="Omacron" unicode="&#x14c;" horiz-adv-x="1229" d="M344 1456 L887 1456 L887 1345 L344 1345 L344 1456 Z M612 -20 Q502 -20 421 23 Q340 66 286.5 143.5 Q233 221 207.5 329.5 Q182 438 182 567 Q182 702 209 812 Q236 922 290 1000.5 Q344 1079 426 1122 Q508 1165 616 1165 Q727 1165 808 1122 Q889 1079 942 1000.5 Q995 922 1021 813.5 Q1047 705 1047 575 Q1047 440 1020 330.5 Q993 221 939 143.5 Q885 66 803 23 Q721 -20 612 -20 Z M614 94 Q705 94 762 135 Q819 176 853 242.5 Q887 309 900 395 Q913 481 913 571 Q913 662 900 748 Q887 834 853 901.5 Q819 969 762 1010 Q705 1051 614 1051 Q524 1051 467 1010 Q410 969 376 901.5 Q342 834 328.5 748 Q315 662 315 571 Q315 481 328.5 395 Q342 309 376 242.5 Q410 176 467 135 Q524 94 614 94 Z " />
<glyph glyph-name="Oslashacute" unicode="&#x1fe;" horiz-adv-x="1229" d="M610 -20 Q506 -20 426 19.5 Q346 59 293 133 L172 0 L27 0 L238 233 Q182 375 182 569 Q182 702 209 812 Q236 922 290 1000.5 Q344 1079 426 1122 Q508 1165 616 1165 Q723 1165 803 1124 Q883 1083 936 1008 L1057 1143 L1202 1143 L991 907 Q1047 768 1047 573 Q1047 440 1020 330.5 Q993 221 939 143.5 Q885 66 803 23 Q721 -20 610 -20 Z M614 94 Q705 94 762 135 Q819 176 853 242.5 Q887 309 900 395 Q913 481 913 571 Q913 631 908 687 Q903 743 891 797 L381 231 Q416 168 472 131 Q528 94 614 94 Z M848 911 Q813 975 756.5 1013 Q700 1051 614 1051 Q524 1051 467 1010 Q410 969 376 901.5 Q342 834 328.5 748 Q315 662 315 571 Q315 512 320.5 454.5 Q326 397 338 344 L848 911 Z M659 1614 L823 1614 L577 1223 L502 1223 L659 1614 Z " />
<glyph glyph-name="Racute" unicode="&#x154;" horiz-adv-x="1229" d="M655 1614 L819 1614 L573 1223 L498 1223 L655 1614 Z M274 1143 L539 1143 Q758 1143 882 1057 Q1006 971 1006 803 Q1006 662 921 579 Q836 496 700 465 L1081 0 L918 0 L561 451 L403 451 L403 0 L274 0 L274 1143 Z M403 559 L541 559 Q721 559 796.5 626.5 Q872 694 872 795 Q872 895 796.5 962.5 Q721 1030 541 1030 L403 1030 L403 559 Z " />
<glyph glyph-name="Rcaron" unicode="&#x158;" horiz-adv-x="1229" d="M326 1614 L408 1614 L596 1362 L785 1614 L867 1614 L662 1223 L531 1223 L326 1614 Z M274 1143 L539 1143 Q758 1143 882 1057 Q1006 971 1006 803 Q1006 662 921 579 Q836 496 700 465 L1081 0 L918 0 L561 451 L403 451 L403 0 L274 0 L274 1143 Z M403 559 L541 559 Q721 559 796.5 626.5 Q872 694 872 795 Q872 895 796.5 962.5 Q721 1030 541 1030 L403 1030 L403 559 Z " />
<glyph glyph-name="uni0156" unicode="&#x156;" horiz-adv-x="1229" d="M586 -438 Q547 -438 547 -408 Q547 -397 549 -385 Q551 -373 553 -365 L602 -80 L758 -80 L623 -410 Q615 -428 606.5 -433 Q598 -438 586 -438 Z M274 1143 L539 1143 Q758 1143 882 1057 Q1006 971 1006 803 Q1006 662 921 579 Q836 496 700 465 L1081 0 L918 0 L561 451 L403 451 L403 0 L274 0 L274 1143 Z M403 559 L541 559 Q721 559 796.5 626.5 Q872 694 872 795 Q872 895 796.5 962.5 Q721 1030 541 1030 L403 1030 L403 559 Z " />
<glyph glyph-name="Sacute" unicode="&#x15a;" horiz-adv-x="1229" d="M676 1614 L840 1614 L594 1223 L519 1223 L676 1614 Z M614 -20 Q524 -20 448.5 1.5 Q373 23 318.5 64.5 Q264 106 234.5 169.5 Q205 233 205 319 L334 319 Q340 213 411.5 154.5 Q483 96 618 96 Q741 96 818 146.5 Q895 197 895 297 Q895 369 852 412 Q809 455 723 483 L479 569 Q365 610 296 679 Q227 748 227 864 Q227 938 257 994.5 Q287 1051 338 1088.5 Q389 1126 458.5 1145.5 Q528 1165 608 1165 Q690 1165 758.5 1145.5 Q827 1126 877.5 1084 Q928 1042 956.5 978.5 Q985 915 985 829 L858 829 Q856 899 830.5 942 Q805 985 768 1008.5 Q731 1032 687 1040.5 Q643 1049 604 1049 Q481 1049 420.5 997.5 Q360 946 360 866 Q360 743 516 688 L760 602 Q897 555 961.5 487.5 Q1026 420 1026 305 Q1026 219 993.5 157.5 Q961 96 905.5 56 Q850 16 775 -2 Q700 -20 614 -20 Z " />
<glyph glyph-name="Scedilla" unicode="&#x15e;" horiz-adv-x="1229" d="M614 -20 Q524 -20 448.5 1.5 Q373 23 318.5 64.5 Q264 106 234.5 169.5 Q205 233 205 319 L334 319 Q340 213 411.5 154.5 Q483 96 618 96 Q741 96 818 146.5 Q895 197 895 297 Q895 369 852 412 Q809 455 723 483 L479 569 Q365 610 296 679 Q227 748 227 864 Q227 938 257 994.5 Q287 1051 338 1088.5 Q389 1126 458.5 1145.5 Q528 1165 608 1165 Q690 1165 758.5 1145.5 Q827 1126 877.5 1084 Q928 1042 956.5 978.5 Q985 915 985 829 L858 829 Q856 899 830.5 942 Q805 985 768 1008.5 Q731 1032 687 1040.5 Q643 1049 604 1049 Q481 1049 420.5 997.5 Q360 946 360 866 Q360 743 516 688 L760 602 Q897 555 961.5 487.5 Q1026 420 1026 305 Q1026 219 993.5 157.5 Q961 96 905.5 56 Q850 16 775 -2 Q700 -20 614 -20 Z M631 -385 Q578 -385 535 -372.5 Q492 -360 475 -350 L500 -272 Q518 -283 546.5 -290 Q575 -297 604 -297 Q645 -297 666.5 -282.5 Q688 -268 688 -248 Q688 -213 641 -190.5 Q594 -168 528 -152 L561 0 L641 0 L623 -90 Q707 -115 758 -155 Q809 -195 809 -254 Q809 -307 766 -346 Q723 -385 631 -385 Z " />
<glyph glyph-name="Scircumflex" unicode="&#x15c;" horiz-adv-x="1229" d="M549 1614 L680 1614 L885 1223 L803 1223 L614 1474 L426 1223 L344 1223 L549 1614 Z M614 -20 Q524 -20 448.5 1.5 Q373 23 318.5 64.5 Q264 106 234.5 169.5 Q205 233 205 319 L334 319 Q340 213 411.5 154.5 Q483 96 618 96 Q741 96 818 146.5 Q895 197 895 297 Q895 369 852 412 Q809 455 723 483 L479 569 Q365 610 296 679 Q227 748 227 864 Q227 938 257 994.5 Q287 1051 338 1088.5 Q389 1126 458.5 1145.5 Q528 1165 608 1165 Q690 1165 758.5 1145.5 Q827 1126 877.5 1084 Q928 1042 956.5 978.5 Q985 915 985 829 L858 829 Q856 899 830.5 942 Q805 985 768 1008.5 Q731 1032 687 1040.5 Q643 1049 604 1049 Q481 1049 420.5 997.5 Q360 946 360 866 Q360 743 516 688 L760 602 Q897 555 961.5 487.5 Q1026 420 1026 305 Q1026 219 993.5 157.5 Q961 96 905.5 56 Q850 16 775 -2 Q700 -20 614 -20 Z " />
<glyph glyph-name="uni0218" unicode="&#x218;" horiz-adv-x="1229" d="M549 -438 Q510 -438 510 -408 Q510 -397 512 -385 Q514 -373 516 -365 L565 -80 L721 -80 L586 -410 Q578 -428 569.5 -433 Q561 -438 549 -438 Z M614 -20 Q524 -20 448.5 1.5 Q373 23 318.5 64.5 Q264 106 234.5 169.5 Q205 233 205 319 L334 319 Q340 213 411.5 154.5 Q483 96 618 96 Q741 96 818 146.5 Q895 197 895 297 Q895 369 852 412 Q809 455 723 483 L479 569 Q365 610 296 679 Q227 748 227 864 Q227 938 257 994.5 Q287 1051 338 1088.5 Q389 1126 458.5 1145.5 Q528 1165 608 1165 Q690 1165 758.5 1145.5 Q827 1126 877.5 1084 Q928 1042 956.5 978.5 Q985 915 985 829 L858 829 Q856 899 830.5 942 Q805 985 768 1008.5 Q731 1032 687 1040.5 Q643 1049 604 1049 Q481 1049 420.5 997.5 Q360 946 360 866 Q360 743 516 688 L760 602 Q897 555 961.5 487.5 Q1026 420 1026 305 Q1026 219 993.5 157.5 Q961 96 905.5 56 Q850 16 775 -2 Q700 -20 614 -20 Z " />
<glyph glyph-name="Tbar" unicode="&#x166;" horiz-adv-x="1229" d="M551 530 L301 530 L301 641 L551 641 L551 1030 L160 1030 L160 1143 L1073 1143 L1073 1030 L680 1030 L680 641 L928 641 L928 530 L680 530 L680 0 L551 0 L551 530 Z " />
<glyph glyph-name="Tcaron" unicode="&#x164;" horiz-adv-x="1229" d="M549 1030 L158 1030 L158 1143 L1071 1143 L1071 1030 L678 1030 L678 0 L549 0 L549 1030 Z M344 1614 L426 1614 L614 1362 L803 1614 L885 1614 L680 1223 L549 1223 L344 1614 Z " />
<glyph glyph-name="uni0162" unicode="&#x162;" horiz-adv-x="1229" d="M551 -438 Q512 -438 512 -408 Q512 -397 514 -385 Q516 -373 518 -365 L567 -80 L723 -80 L588 -410 Q580 -428 571.5 -433 Q563 -438 551 -438 Z M551 1030 L160 1030 L160 1143 L1073 1143 L1073 1030 L680 1030 L680 0 L551 0 L551 1030 Z " />
<glyph glyph-name="uni021A" unicode="&#x21a;" horiz-adv-x="1229" d="M551 -438 Q512 -438 512 -408 Q512 -397 514 -385 Q516 -373 518 -365 L567 -80 L723 -80 L588 -410 Q580 -428 571.5 -433 Q563 -438 551 -438 Z M551 1030 L160 1030 L160 1143 L1073 1143 L1073 1030 L680 1030 L680 0 L551 0 L551 1030 Z " />
<glyph glyph-name="Ubreve" unicode="&#x16c;" horiz-adv-x="1229" d="M614 -20 Q424 -20 333 75 Q242 170 242 395 L242 1143 L371 1143 L371 395 Q371 231 426 162.5 Q481 94 614 94 Q750 94 805 162.5 Q860 231 860 395 L860 1143 L989 1143 L989 395 Q989 170 897 75 Q805 -20 614 -20 Z M614 1300 Q547 1300 494.5 1326 Q442 1352 404.5 1388.5 Q367 1425 343 1466 Q319 1507 309 1538 L367 1573 Q383 1546 405.5 1519.5 Q428 1493 457.5 1471.5 Q487 1450 526 1435.5 Q565 1421 614 1421 Q664 1421 702.5 1435.5 Q741 1450 771 1471.5 Q801 1493 823.5 1519.5 Q846 1546 862 1573 L920 1538 Q909 1507 885.5 1466 Q862 1425 824 1388.5 Q786 1352 734 1326 Q682 1300 614 1300 Z " />
<glyph glyph-name="Uhungarumlaut" unicode="&#x170;" horiz-adv-x="1229" d="M614 -20 Q424 -20 333 75 Q242 170 242 395 L242 1143 L371 1143 L371 395 Q371 231 426 162.5 Q481 94 614 94 Q750 94 805 162.5 Q860 231 860 395 L860 1143 L989 1143 L989 395 Q989 170 897 75 Q805 -20 614 -20 Z M537 1614 L705 1614 L463 1223 L383 1223 L537 1614 Z M918 1614 L1086 1614 L844 1223 L764 1223 L918 1614 Z " />
<glyph glyph-name="Umacron" unicode="&#x16a;" horiz-adv-x="1229" d="M614 -20 Q424 -20 333 75 Q242 170 242 395 L242 1143 L371 1143 L371 395 Q371 231 426 162.5 Q481 94 614 94 Q750 94 805 162.5 Q860 231 860 395 L860 1143 L989 1143 L989 395 Q989 170 897 75 Q805 -20 614 -20 Z M344 1456 L887 1456 L887 1345 L344 1345 L344 1456 Z " />
<glyph glyph-name="Uogonek" unicode="&#x172;" horiz-adv-x="1229" d="M647 -385 Q565 -385 515 -349 Q465 -313 465 -252 Q465 -186 524.5 -134 Q584 -82 698 -8 Q682 -12 661.5 -16 Q641 -20 600 -20 Q422 -20 332 77 Q242 174 242 395 L242 1143 L371 1143 L371 395 Q371 231 426 162.5 Q481 94 614 94 Q750 94 805 162.5 Q860 231 860 395 L860 1143 L989 1143 L989 395 Q989 274 961.5 189 Q934 104 879 57 Q795 -12 739.5 -58 Q684 -104 652.5 -137 Q621 -170 607.5 -191.5 Q594 -213 594 -233 Q594 -268 618.5 -280.5 Q643 -293 674 -293 Q702 -293 736 -286 Q770 -279 793 -268 L811 -346 Q788 -358 744 -371.5 Q700 -385 647 -385 Z " />
<glyph glyph-name="Uring" unicode="&#x16e;" horiz-adv-x="1229" d="M614 1200 Q559 1200 512 1219.5 Q465 1239 430 1274 Q395 1309 375.5 1355 Q356 1401 356 1454 Q356 1507 375.5 1553 Q395 1599 430 1634 Q465 1669 512 1688.5 Q559 1708 614 1708 Q670 1708 717 1688.5 Q764 1669 799 1634 Q834 1599 853 1553 Q872 1507 872 1454 Q872 1401 853 1355 Q834 1309 799 1274 Q764 1239 717 1219.5 Q670 1200 614 1200 Z M614 1286 Q686 1286 734 1334 Q782 1382 782 1454 Q782 1526 734 1574 Q686 1622 614 1622 Q543 1622 494.5 1574 Q446 1526 446 1454 Q446 1382 494.5 1334 Q543 1286 614 1286 Z M614 -20 Q424 -20 333 75 Q242 170 242 395 L242 1143 L371 1143 L371 395 Q371 231 426 162.5 Q481 94 614 94 Q750 94 805 162.5 Q860 231 860 395 L860 1143 L989 1143 L989 395 Q989 170 897 75 Q805 -20 614 -20 Z " />
<glyph glyph-name="Utilde" unicode="&#x168;" horiz-adv-x="1229" d="M614 -20 Q424 -20 333 75 Q242 170 242 395 L242 1143 L371 1143 L371 395 Q371 231 426 162.5 Q481 94 614 94 Q750 94 805 162.5 Q860 231 860 395 L860 1143 L989 1143 L989 395 Q989 170 897 75 Q805 -20 614 -20 Z M279 1313 Q291 1354 312.5 1396 Q334 1438 361.5 1471.5 Q389 1505 423 1526.5 Q457 1548 496 1548 Q537 1548 567.5 1526.5 Q598 1505 623.5 1478.5 Q649 1452 673 1430.5 Q697 1409 727 1409 Q770 1409 806 1452 Q842 1495 869 1548 L930 1519 Q918 1479 896.5 1437 Q875 1395 847 1361 Q819 1327 785.5 1305.5 Q752 1284 713 1284 Q672 1284 641.5 1305.5 Q611 1327 585 1353.5 Q559 1380 535.5 1401.5 Q512 1423 482 1423 Q439 1423 403 1380 Q367 1337 340 1284 L279 1313 Z " />
<glyph glyph-name="Wacute" unicode="&#x1e82;" horiz-adv-x="1229" d="M676 1614 L840 1614 L594 1223 L519 1223 L676 1614 Z M109 1143 L238 1143 L315 485 L358 113 L545 748 L686 748 L872 113 L915 485 L993 1143 L1120 1143 L971 0 L791 0 L614 596 L438 0 L258 0 L109 1143 Z " />
<glyph glyph-name="Wcircumflex" unicode="&#x174;" horiz-adv-x="1229" d="M549 1614 L680 1614 L885 1223 L803 1223 L614 1474 L426 1223 L344 1223 L549 1614 Z M109 1143 L238 1143 L315 485 L358 113 L545 748 L686 748 L872 113 L915 485 L993 1143 L1120 1143 L971 0 L791 0 L614 596 L438 0 L258 0 L109 1143 Z " />
<glyph glyph-name="Wdieresis" unicode="&#x1e84;" horiz-adv-x="1229" d="M328 1513 L494 1513 L494 1347 L328 1347 L328 1513 Z M739 1513 L905 1513 L905 1347 L739 1347 L739 1513 Z M109 1143 L238 1143 L315 485 L358 113 L545 748 L686 748 L872 113 L915 485 L993 1143 L1120 1143 L971 0 L791 0 L614 596 L438 0 L258 0 L109 1143 Z " />
<glyph glyph-name="Wgrave" unicode="&#x1e80;" horiz-adv-x="1229" d="M109 1143 L238 1143 L315 485 L358 113 L545 748 L686 748 L872 113 L915 485 L993 1143 L1120 1143 L971 0 L791 0 L614 596 L438 0 L258 0 L109 1143 Z M394 1614 L557 1614 L715 1223 L639 1223 L394 1614 Z " />
<glyph glyph-name="Ycircumflex" unicode="&#x176;" horiz-adv-x="1229" d="M551 463 L98 1143 L248 1143 L432 864 L618 569 L803 864 L983 1143 L1133 1143 L680 459 L680 0 L551 0 L551 463 Z M549 1614 L680 1614 L885 1223 L803 1223 L614 1474 L426 1223 L344 1223 L549 1614 Z " />
<glyph glyph-name="Ygrave" unicode="&#x1ef2;" horiz-adv-x="1229" d="M551 463 L98 1143 L248 1143 L432 864 L618 569 L803 864 L983 1143 L1133 1143 L680 459 L680 0 L551 0 L551 463 Z M396 1614 L559 1614 L717 1223 L641 1223 L396 1614 Z " />
<glyph glyph-name="Zacute" unicode="&#x179;" horiz-adv-x="1229" d="M686 1614 L850 1614 L604 1223 L529 1223 L686 1614 Z M219 102 L850 1030 L229 1030 L229 1143 L1001 1143 L1001 1040 L369 113 L1008 113 L1008 0 L219 0 L219 102 Z " />
<glyph glyph-name="Zdotaccent" unicode="&#x17b;" horiz-adv-x="1229" d="M219 102 L850 1030 L229 1030 L229 1143 L1001 1143 L1001 1040 L369 113 L1008 113 L1008 0 L219 0 L219 102 Z M540 1489 L706 1489 L706 1323 L540 1323 L540 1489 Z " />
<glyph glyph-name="IJ" unicode="&#x132;" horiz-adv-x="1229" d="M614 -20 Q424 -20 333 75 Q242 170 242 395 L242 444 L371 444 L371 395 Q371 231 426 162.5 Q481 94 614 94 Q750 94 805 162.5 Q860 231 860 395 L860 1143 L989 1143 L989 395 Q989 170 897 75 Q805 -20 614 -20 Z M242 1143 L371 1143 L371 627 L242 627 L242 1143 Z " />
<glyph glyph-name="uni018F" unicode="&#x18f;" horiz-adv-x="1229" d="M608 -20 Q498 -20 418 23 Q338 66 284.5 143.5 Q231 221 205.5 329.5 Q180 438 180 571 L180 600 L913 600 Q911 688 895 770 Q879 852 843 914.5 Q807 977 748.5 1015 Q690 1053 604 1053 Q539 1053 488.5 1030.5 Q438 1008 401.5 969 Q365 930 342 876.5 Q319 823 309 762 L178 762 Q213 948 320.5 1056.5 Q428 1165 608 1165 Q719 1165 801 1122 Q883 1079 937 1000.5 Q991 922 1017.5 812 Q1044 702 1044 571 Q1044 438 1017.5 329.5 Q991 221 937 143.5 Q883 66 801 23 Q719 -20 608 -20 Z M612 92 Q692 92 747.5 125 Q803 158 837.5 213 Q872 268 888.5 340 Q905 412 911 489 L313 489 Q319 410 335.5 338 Q352 266 387 212 Q422 158 477 125 Q532 92 612 92 Z " />
<glyph glyph-name="amacron" unicode="&#x101;" horiz-adv-x="1229" d="M500 -20 Q436 -20 381 -6 Q326 8 286 38 Q246 68 223.5 115 Q201 162 201 227 Q201 303 231.5 353 Q262 403 311 431 Q360 459 420.5 470 Q481 481 543 481 Q602 481 676 471 Q750 461 803 444 L803 526 Q803 582 797 631 Q791 680 768 717 Q745 754 700 775.5 Q655 797 578 797 Q338 797 338 592 L217 592 Q217 690 253 750.5 Q289 811 344 846 Q399 881 464.5 893 Q530 905 588 905 Q766 905 845 816 Q924 727 924 561 L924 133 Q924 106 935 97 Q946 88 975 88 Q1022 88 1085 102 L1085 8 Q1063 -2 1025 -11 Q987 -20 942 -20 Q903 -20 879.5 -10 Q856 0 842.5 17.5 Q829 35 824 55.5 Q819 76 819 96 L819 113 Q782 66 703.5 23 Q625 -20 500 -20 Z M508 90 Q600 90 671.5 115.5 Q743 141 803 184 L803 352 Q756 362 688.5 369.5 Q621 377 559 377 Q449 377 384 346 Q319 315 319 229 Q319 90 508 90 Z M338 1237 L881 1237 L881 1126 L338 1126 L338 1237 Z " />
<glyph glyph-name="abreve" unicode="&#x103;" horiz-adv-x="1229" d="M500 -20 Q436 -20 381 -6 Q326 8 286 38 Q246 68 223.5 115 Q201 162 201 227 Q201 303 231.5 353 Q262 403 311 431 Q360 459 420.5 470 Q481 481 543 481 Q602 481 676 471 Q750 461 803 444 L803 526 Q803 582 797 631 Q791 680 768 717 Q745 754 700 775.5 Q655 797 578 797 Q338 797 338 592 L217 592 Q217 690 253 750.5 Q289 811 344 846 Q399 881 464.5 893 Q530 905 588 905 Q766 905 845 816 Q924 727 924 561 L924 133 Q924 106 935 97 Q946 88 975 88 Q1022 88 1085 102 L1085 8 Q1063 -2 1025 -11 Q987 -20 942 -20 Q903 -20 879.5 -10 Q856 0 842.5 17.5 Q829 35 824 55.5 Q819 76 819 96 L819 113 Q782 66 703.5 23 Q625 -20 500 -20 Z M508 90 Q600 90 671.5 115.5 Q743 141 803 184 L803 352 Q756 362 688.5 369.5 Q621 377 559 377 Q449 377 384 346 Q319 315 319 229 Q319 90 508 90 Z M608 1081 Q541 1081 488.5 1107 Q436 1133 398.5 1169.5 Q361 1206 337 1247 Q313 1288 303 1319 L361 1354 Q377 1327 399.5 1300.5 Q422 1274 451.5 1252.5 Q481 1231 520 1216.5 Q559 1202 608 1202 Q658 1202 696.5 1216.5 Q735 1231 765 1252.5 Q795 1274 817.5 1300.5 Q840 1327 856 1354 L914 1319 Q903 1288 879.5 1247 Q856 1206 818 1169.5 Q780 1133 728 1107 Q676 1081 608 1081 Z " />
<glyph glyph-name="aogonek" unicode="&#x105;" horiz-adv-x="1229" d="M924 -385 Q842 -385 791.5 -349 Q741 -313 741 -252 Q741 -190 792.5 -137 Q844 -84 946 -20 L944 -20 Q903 -20 879.5 -10 Q856 0 841.5 17.5 Q827 35 823 55.5 Q819 76 819 96 L819 113 Q782 66 703.5 23 Q625 -20 500 -20 Q436 -20 381 -6 Q326 8 286 38 Q246 68 223.5 115 Q201 162 201 227 Q201 303 231.5 353 Q262 403 311 431 Q360 459 420.5 470 Q481 481 543 481 Q602 481 676 471 Q750 461 803 444 L803 526 Q803 582 797 631 Q791 680 768 717 Q745 754 700 775.5 Q655 797 578 797 Q338 797 338 592 L217 592 Q217 690 253 750.5 Q289 811 344 846 Q399 881 464.5 893 Q530 905 588 905 Q766 905 845 816 Q924 727 924 561 L924 133 Q924 106 935 97 Q946 88 975 88 Q1022 88 1085 102 L1085 8 Q971 -80 920.5 -134 Q870 -188 870 -233 Q870 -268 895 -280.5 Q920 -293 950 -293 Q979 -293 1013 -286 Q1047 -279 1069 -268 L1087 -346 Q1065 -358 1021 -371.5 Q977 -385 924 -385 Z M508 90 Q600 90 671.5 115.5 Q743 141 803 184 L803 352 Q756 362 688.5 369.5 Q621 377 559 377 Q449 377 384 346 Q319 315 319 229 Q319 90 508 90 Z " />
<glyph glyph-name="aeacute" unicode="&#x1fd;" horiz-adv-x="1229" d="M669 1395 L833 1395 L587 1004 L512 1004 L669 1395 Z M348 -20 Q217 -20 142.5 49.5 Q68 119 68 238 Q68 307 93.5 354 Q119 401 160 429 Q201 457 252 468 Q303 479 354 479 Q418 479 470 470 Q522 461 555 449 L555 561 Q555 662 510 730.5 Q465 799 369 799 Q283 799 245 742.5 Q207 686 207 602 L98 602 Q98 735 171 820 Q244 905 379 905 Q477 905 535.5 862 Q594 819 623 750 Q655 815 716.5 860 Q778 905 868 905 Q1004 905 1082.5 790.5 Q1161 676 1161 440 L1161 434 L668 434 Q670 262 723 173 Q776 84 874 84 Q918 84 950.5 101.5 Q983 119 1003.5 146.5 Q1024 174 1034 211 Q1044 248 1044 287 L1159 287 Q1157 223 1137.5 168 Q1118 113 1081 71 Q1044 29 993 4.5 Q942 -20 874 -20 Q715 -20 627 117 Q586 59 519.5 19.5 Q453 -20 348 -20 Z M356 86 Q436 86 497.5 118 Q559 150 594 182 Q561 262 553 360 Q526 371 478 376 Q430 381 377 381 Q186 381 186 238 Q186 162 232.5 124 Q279 86 356 86 Z M1044 535 Q1034 657 990 729 Q946 801 860 801 Q772 801 727 728 Q682 655 672 535 L1044 535 Z " />
<glyph glyph-name="cacute" unicode="&#x107;" horiz-adv-x="1229" d="M682 1395 L846 1395 L600 1004 L525 1004 L682 1395 Z M623 -20 Q551 -20 477 1.5 Q403 23 343 75 Q283 127 244 216 Q205 305 205 440 Q205 580 245 670 Q285 760 347.5 812 Q410 864 484.5 884.5 Q559 905 629 905 Q686 905 748.5 892 Q811 879 864.5 843 Q918 807 955.5 746.5 Q993 686 999 592 L877 592 Q864 709 797.5 752 Q731 795 633 795 Q485 795 406.5 711 Q328 627 328 444 Q328 262 406.5 176 Q485 90 633 90 Q731 90 797.5 134 Q864 178 877 295 L999 295 Q993 201 955.5 139.5 Q918 78 862.5 43 Q807 8 743.5 -6 Q680 -20 623 -20 Z " />
<glyph glyph-name="ccaron" unicode="&#x10d;" horiz-adv-x="1229" d="M350 1395 L432 1395 L620 1143 L809 1395 L891 1395 L686 1004 L555 1004 L350 1395 Z M623 -20 Q551 -20 477 1.5 Q403 23 343 75 Q283 127 244 216 Q205 305 205 440 Q205 580 245 670 Q285 760 347.5 812 Q410 864 484.5 884.5 Q559 905 629 905 Q686 905 748.5 892 Q811 879 864.5 843 Q918 807 955.5 746.5 Q993 686 999 592 L877 592 Q864 709 797.5 752 Q731 795 633 795 Q485 795 406.5 711 Q328 627 328 444 Q328 262 406.5 176 Q485 90 633 90 Q731 90 797.5 134 Q864 178 877 295 L999 295 Q993 201 955.5 139.5 Q918 78 862.5 43 Q807 8 743.5 -6 Q680 -20 623 -20 Z " />
<glyph glyph-name="ccircumflex" unicode="&#x109;" horiz-adv-x="1229" d="M555 1395 L686 1395 L891 1004 L809 1004 L620 1255 L432 1004 L350 1004 L555 1395 Z M623 -20 Q551 -20 477 1.5 Q403 23 343 75 Q283 127 244 216 Q205 305 205 440 Q205 580 245 670 Q285 760 347.5 812 Q410 864 484.5 884.5 Q559 905 629 905 Q686 905 748.5 892 Q811 879 864.5 843 Q918 807 955.5 746.5 Q993 686 999 592 L877 592 Q864 709 797.5 752 Q731 795 633 795 Q485 795 406.5 711 Q328 627 328 444 Q328 262 406.5 176 Q485 90 633 90 Q731 90 797.5 134 Q864 178 877 295 L999 295 Q993 201 955.5 139.5 Q918 78 862.5 43 Q807 8 743.5 -6 Q680 -20 623 -20 Z " />
<glyph glyph-name="cdotaccent" unicode="&#x10b;" horiz-adv-x="1229" d="M623 -20 Q551 -20 477 1.5 Q403 23 343 75 Q283 127 244 216 Q205 305 205 440 Q205 580 245 670 Q285 760 347.5 812 Q410 864 484.5 884.5 Q559 905 629 905 Q686 905 748.5 892 Q811 879 864.5 843 Q918 807 955.5 746.5 Q993 686 999 592 L877 592 Q864 709 797.5 752 Q731 795 633 795 Q485 795 406.5 711 Q328 627 328 444 Q328 262 406.5 176 Q485 90 633 90 Q731 90 797.5 134 Q864 178 877 295 L999 295 Q993 201 955.5 139.5 Q918 78 862.5 43 Q807 8 743.5 -6 Q680 -20 623 -20 Z M536 1270 L702 1270 L702 1104 L536 1104 L536 1270 Z " />
<glyph glyph-name="dcaron" unicode="&#x10f;" horiz-adv-x="1229" d="M555 -20 Q485 -20 419.5 4.5 Q354 29 302 83 Q250 137 218 224 Q186 311 186 438 Q186 559 216 647 Q246 735 297 792.5 Q348 850 413.5 877.5 Q479 905 553 905 Q604 905 647 893 Q690 881 722 863.5 Q754 846 777.5 826.5 Q801 807 815 791 L815 1294 L936 1294 L936 0 L840 0 L840 113 Q803 66 733.5 23 Q664 -20 555 -20 Z M580 92 Q657 92 715.5 118.5 Q774 145 815 186 L815 698 Q774 739 715.5 766 Q657 793 580 793 Q438 793 374.5 695.5 Q311 598 311 442 Q311 287 374.5 189.5 Q438 92 580 92 Z M1135 936 Q1096 936 1096 967 Q1096 977 1098 989 Q1100 1001 1102 1010 L1151 1294 L1307 1294 L1171 965 Q1163 946 1155 941 Q1147 936 1135 936 Z " />
<glyph glyph-name="dcroat" unicode="&#x111;" horiz-adv-x="1229" d="M573 -20 Q504 -20 438.5 4.5 Q373 29 320.5 83 Q268 137 236.5 224 Q205 311 205 438 Q205 559 234.5 647 Q264 735 315.5 792.5 Q367 850 432.5 877.5 Q498 905 571 905 Q623 905 666 893 Q709 881 740.5 863.5 Q772 846 795.5 826.5 Q819 807 834 791 L834 1026 L551 1026 L551 1137 L834 1137 L834 1294 L954 1294 L954 1137 L1030 1137 L1030 1026 L954 1026 L954 0 L858 0 L858 113 Q821 66 751.5 23 Q682 -20 573 -20 Z M598 92 Q676 92 734.5 118.5 Q793 145 834 186 L834 698 Q793 739 734.5 766 Q676 793 598 793 Q457 793 393.5 695.5 Q330 598 330 442 Q330 287 393.5 189.5 Q457 92 598 92 Z " />
<glyph glyph-name="ebreve" unicode="&#x115;" horiz-adv-x="1229" d="M623 -20 Q541 -20 465 5.5 Q389 31 331.5 86 Q274 141 239.5 228 Q205 315 205 440 Q205 573 243 662.5 Q281 752 341 806 Q401 860 476 882.5 Q551 905 623 905 Q690 905 763 883.5 Q836 862 895 810 Q954 758 992 669 Q1030 580 1030 444 L1030 416 L326 416 Q342 86 629 86 Q745 86 817 137 Q889 188 907 287 L1028 287 Q1016 197 973 137.5 Q930 78 871.5 43 Q813 8 746.5 -6 Q680 -20 623 -20 Z M905 516 Q889 659 815 729 Q741 799 614 799 Q487 799 414.5 729 Q342 659 328 516 L905 516 Z M593 1081 Q526 1081 473.5 1107 Q421 1133 383.5 1169.5 Q346 1206 322 1247 Q298 1288 288 1319 L346 1354 Q362 1327 384.5 1300.5 Q407 1274 436.5 1252.5 Q466 1231 505 1216.5 Q544 1202 593 1202 Q643 1202 681.5 1216.5 Q720 1231 750 1252.5 Q780 1274 802.5 1300.5 Q825 1327 841 1354 L899 1319 Q888 1288 864.5 1247 Q841 1206 803 1169.5 Q765 1133 713 1107 Q661 1081 593 1081 Z " />
<glyph glyph-name="ecaron" unicode="&#x11b;" horiz-adv-x="1229" d="M323 1395 L405 1395 L593 1143 L782 1395 L864 1395 L659 1004 L528 1004 L323 1395 Z M623 -20 Q541 -20 465 5.5 Q389 31 331.5 86 Q274 141 239.5 228 Q205 315 205 440 Q205 573 243 662.5 Q281 752 341 806 Q401 860 476 882.5 Q551 905 623 905 Q690 905 763 883.5 Q836 862 895 810 Q954 758 992 669 Q1030 580 1030 444 L1030 416 L326 416 Q342 86 629 86 Q745 86 817 137 Q889 188 907 287 L1028 287 Q1016 197 973 137.5 Q930 78 871.5 43 Q813 8 746.5 -6 Q680 -20 623 -20 Z M905 516 Q889 659 815 729 Q741 799 614 799 Q487 799 414.5 729 Q342 659 328 516 L905 516 Z " />
<glyph glyph-name="edotaccent" unicode="&#x117;" horiz-adv-x="1229" d="M623 -20 Q541 -20 465 5.5 Q389 31 331.5 86 Q274 141 239.5 228 Q205 315 205 440 Q205 573 243 662.5 Q281 752 341 806 Q401 860 476 882.5 Q551 905 623 905 Q690 905 763 883.5 Q836 862 895 810 Q954 758 992 669 Q1030 580 1030 444 L1030 416 L326 416 Q342 86 629 86 Q745 86 817 137 Q889 188 907 287 L1028 287 Q1016 197 973 137.5 Q930 78 871.5 43 Q813 8 746.5 -6 Q680 -20 623 -20 Z M905 516 Q889 659 815 729 Q741 799 614 799 Q487 799 414.5 729 Q342 659 328 516 L905 516 Z M509 1270 L675 1270 L675 1104 L509 1104 L509 1270 Z " />
<glyph glyph-name="emacron" unicode="&#x113;" horiz-adv-x="1229" d="M623 -20 Q541 -20 465 5.5 Q389 31 331.5 86 Q274 141 239.5 228 Q205 315 205 440 Q205 573 243 662.5 Q281 752 341 806 Q401 860 476 882.5 Q551 905 623 905 Q690 905 763 883.5 Q836 862 895 810 Q954 758 992 669 Q1030 580 1030 444 L1030 416 L326 416 Q342 86 629 86 Q745 86 817 137 Q889 188 907 287 L1028 287 Q1016 197 973 137.5 Q930 78 871.5 43 Q813 8 746.5 -6 Q680 -20 623 -20 Z M905 516 Q889 659 815 729 Q741 799 614 799 Q487 799 414.5 729 Q342 659 328 516 L905 516 Z M323 1237 L866 1237 L866 1126 L323 1126 L323 1237 Z " />
<glyph glyph-name="eogonek" unicode="&#x119;" horiz-adv-x="1229" d="M666 -385 Q584 -385 533.5 -349 Q483 -313 483 -252 Q483 -188 541.5 -136 Q600 -84 713 -12 Q690 -16 667.5 -18 Q645 -20 623 -20 Q541 -20 465 5.5 Q389 31 331.5 86 Q274 141 239.5 228 Q205 315 205 440 Q205 573 243 662.5 Q281 752 341 806 Q401 860 476 882.5 Q551 905 623 905 Q690 905 763 883.5 Q836 862 895 810 Q954 758 992 669 Q1030 580 1030 444 L1030 416 L326 416 Q342 86 629 86 Q745 86 817 137 Q889 188 907 287 L1028 287 Q1018 213 987 159.5 Q956 106 913 72 Q823 -2 766 -51 Q709 -100 674 -134 Q639 -168 625.5 -191.5 Q612 -215 612 -236 Q612 -270 637 -281.5 Q662 -293 692 -293 Q721 -293 754.5 -286 Q788 -279 811 -268 L829 -346 Q807 -358 763 -371.5 Q719 -385 666 -385 Z M905 516 Q889 659 815 729 Q741 799 614 799 Q487 799 414.5 729 Q342 659 328 516 L905 516 Z " />
<glyph glyph-name="eng" unicode="&#x14b;" horiz-adv-x="1229" d="M467 -264 Q539 -264 605.5 -251 Q672 -238 723 -204 Q774 -170 805 -113.5 Q836 -57 836 29 L836 512 Q836 582 827.5 635 Q819 688 795.5 724 Q772 760 732 778.5 Q692 797 631 797 Q541 797 483.5 766 Q426 735 395 700 L395 0 L274 0 L274 885 L371 885 L371 772 Q408 825 477.5 865 Q547 905 659 905 Q715 905 768 891 Q821 877 863 837 Q905 797 930.5 726 Q956 655 956 543 L956 29 Q956 -160 832.5 -267.5 Q709 -375 467 -375 L467 -264 Z " />
<glyph glyph-name="gbreve" unicode="&#x11f;" horiz-adv-x="1229" d="M582 -385 Q502 -385 434.5 -370.5 Q367 -356 317.5 -320.5 Q268 -285 240.5 -226.5 Q213 -168 213 -80 L334 -80 Q334 -186 393.5 -233.5 Q453 -281 578 -281 Q664 -281 715 -261.5 Q766 -242 791.5 -208 Q817 -174 825.5 -129 Q834 -84 834 -33 L834 94 Q819 78 796.5 58.5 Q774 39 741.5 21.5 Q709 4 666 -8 Q623 -20 569 -20 Q498 -20 431.5 5.5 Q365 31 314.5 87 Q264 143 234.5 230 Q205 317 205 440 Q205 565 235.5 653 Q266 741 318.5 797.5 Q371 854 437.5 879.5 Q504 905 575 905 Q629 905 674 893 Q719 881 753.5 860.5 Q788 840 815 816.5 Q842 793 858 772 L858 885 L954 885 L954 -43 Q954 -123 936 -186.5 Q918 -250 874.5 -294 Q831 -338 759.5 -361.5 Q688 -385 582 -385 Z M598 92 Q676 92 734.5 118.5 Q793 145 834 186 L834 698 Q793 739 734.5 766 Q676 793 598 793 Q457 793 393.5 695.5 Q330 598 330 442 Q330 287 393.5 189.5 Q457 92 598 92 Z M579 1081 Q512 1081 459.5 1107 Q407 1133 369.5 1169.5 Q332 1206 308 1247 Q284 1288 274 1319 L332 1354 Q348 1327 370.5 1300.5 Q393 1274 422.5 1252.5 Q452 1231 491 1216.5 Q530 1202 579 1202 Q629 1202 667.5 1216.5 Q706 1231 736 1252.5 Q766 1274 788.5 1300.5 Q811 1327 827 1354 L885 1319 Q874 1288 850.5 1247 Q827 1206 789 1169.5 Q751 1133 699 1107 Q647 1081 579 1081 Z " />
<glyph glyph-name="gcircumflex" unicode="&#x11d;" horiz-adv-x="1229" d="M514 1395 L645 1395 L850 1004 L768 1004 L579 1255 L391 1004 L309 1004 L514 1395 Z M582 -385 Q502 -385 434.5 -370.5 Q367 -356 317.5 -320.5 Q268 -285 240.5 -226.5 Q213 -168 213 -80 L334 -80 Q334 -186 393.5 -233.5 Q453 -281 578 -281 Q664 -281 715 -261.5 Q766 -242 791.5 -208 Q817 -174 825.5 -129 Q834 -84 834 -33 L834 94 Q819 78 796.5 58.5 Q774 39 741.5 21.5 Q709 4 666 -8 Q623 -20 569 -20 Q498 -20 431.5 5.5 Q365 31 314.5 87 Q264 143 234.5 230 Q205 317 205 440 Q205 565 235.5 653 Q266 741 318.5 797.5 Q371 854 437.5 879.5 Q504 905 575 905 Q629 905 674 893 Q719 881 753.5 860.5 Q788 840 815 816.5 Q842 793 858 772 L858 885 L954 885 L954 -43 Q954 -123 936 -186.5 Q918 -250 874.5 -294 Q831 -338 759.5 -361.5 Q688 -385 582 -385 Z M598 92 Q676 92 734.5 118.5 Q793 145 834 186 L834 698 Q793 739 734.5 766 Q676 793 598 793 Q457 793 393.5 695.5 Q330 598 330 442 Q330 287 393.5 189.5 Q457 92 598 92 Z " />
<glyph glyph-name="uni0123" unicode="&#x123;" horiz-adv-x="1229" d="M643 1346 Q651 1364 659.5 1369 Q668 1374 680 1374 Q719 1374 719 1343 Q719 1333 717 1321 Q715 1309 713 1300 L664 1016 L508 1016 L643 1346 Z M582 -385 Q502 -385 434.5 -370.5 Q367 -356 317.5 -320.5 Q268 -285 240.5 -226.5 Q213 -168 213 -80 L334 -80 Q334 -186 393.5 -233.5 Q453 -281 578 -281 Q664 -281 715 -261.5 Q766 -242 791.5 -208 Q817 -174 825.5 -129 Q834 -84 834 -33 L834 94 Q819 78 796.5 58.5 Q774 39 741.5 21.5 Q709 4 666 -8 Q623 -20 569 -20 Q498 -20 431.5 5.5 Q365 31 314.5 87 Q264 143 234.5 230 Q205 317 205 440 Q205 565 235.5 653 Q266 741 318.5 797.5 Q371 854 437.5 879.5 Q504 905 575 905 Q629 905 674 893 Q719 881 753.5 860.5 Q788 840 815 816.5 Q842 793 858 772 L858 885 L954 885 L954 -43 Q954 -123 936 -186.5 Q918 -250 874.5 -294 Q831 -338 759.5 -361.5 Q688 -385 582 -385 Z M598 92 Q676 92 734.5 118.5 Q793 145 834 186 L834 698 Q793 739 734.5 766 Q676 793 598 793 Q457 793 393.5 695.5 Q330 598 330 442 Q330 287 393.5 189.5 Q457 92 598 92 Z " />
<glyph glyph-name="gdotaccent" unicode="&#x121;" horiz-adv-x="1229" d="M582 -385 Q502 -385 434.5 -370.5 Q367 -356 317.5 -320.5 Q268 -285 240.5 -226.5 Q213 -168 213 -80 L334 -80 Q334 -186 393.5 -233.5 Q453 -281 578 -281 Q664 -281 715 -261.5 Q766 -242 791.5 -208 Q817 -174 825.5 -129 Q834 -84 834 -33 L834 94 Q819 78 796.5 58.5 Q774 39 741.5 21.5 Q709 4 666 -8 Q623 -20 569 -20 Q498 -20 431.5 5.5 Q365 31 314.5 87 Q264 143 234.5 230 Q205 317 205 440 Q205 565 235.5 653 Q266 741 318.5 797.5 Q371 854 437.5 879.5 Q504 905 575 905 Q629 905 674 893 Q719 881 753.5 860.5 Q788 840 815 816.5 Q842 793 858 772 L858 885 L954 885 L954 -43 Q954 -123 936 -186.5 Q918 -250 874.5 -294 Q831 -338 759.5 -361.5 Q688 -385 582 -385 Z M598 92 Q676 92 734.5 118.5 Q793 145 834 186 L834 698 Q793 739 734.5 766 Q676 793 598 793 Q457 793 393.5 695.5 Q330 598 330 442 Q330 287 393.5 189.5 Q457 92 598 92 Z M495 1270 L661 1270 L661 1104 L495 1104 L495 1270 Z " />
<glyph glyph-name="hbar" unicode="&#x127;" horiz-adv-x="1229" d="M274 1026 L174 1026 L174 1137 L274 1137 L274 1294 L395 1294 L395 1137 L653 1137 L653 1026 L395 1026 L395 795 Q410 811 429.5 830.5 Q449 850 479.5 866.5 Q510 883 553 894 Q596 905 655 905 Q711 905 765 891 Q819 877 862 838 Q905 799 930.5 727 Q956 655 956 543 L956 0 L836 0 L836 512 Q836 582 827.5 635 Q819 688 795.5 724 Q772 760 732 778.5 Q692 797 631 797 Q541 797 483.5 766 Q426 735 395 700 L395 0 L274 0 L274 1026 Z " />
<glyph glyph-name="hcircumflex" unicode="&#x125;" horiz-adv-x="1229" d="M277 1686 L408 1686 L613 1295 L531 1295 L342 1546 L154 1295 L72 1295 L277 1686 Z M274 1294 L395 1294 L395 795 Q410 811 429.5 830.5 Q449 850 479.5 866.5 Q510 883 553 894 Q596 905 655 905 Q711 905 765 891 Q819 877 862 838 Q905 799 930.5 727 Q956 655 956 543 L956 0 L836 0 L836 512 Q836 582 827.5 635 Q819 688 795.5 724 Q772 760 732 778.5 Q692 797 631 797 Q541 797 483.5 766 Q426 735 395 700 L395 0 L274 0 L274 1294 Z " />
<glyph glyph-name="ibreve" unicode="&#x12d;" horiz-adv-x="1229" d="M242 111 L569 111 L569 774 L242 774 L242 885 L690 885 L690 111 L991 111 L991 0 L242 0 L242 111 Z M630 1081 Q563 1081 510.5 1107 Q458 1133 420.5 1169.5 Q383 1206 359 1247 Q335 1288 325 1319 L383 1354 Q399 1327 421.5 1300.5 Q444 1274 473.5 1252.5 Q503 1231 542 1216.5 Q581 1202 630 1202 Q680 1202 718.5 1216.5 Q757 1231 787 1252.5 Q817 1274 839.5 1300.5 Q862 1327 878 1354 L936 1319 Q925 1288 901.5 1247 Q878 1206 840 1169.5 Q802 1133 750 1107 Q698 1081 630 1081 Z " />
<glyph glyph-name="imacron" unicode="&#x12b;" horiz-adv-x="1229" d="M242 111 L569 111 L569 774 L242 774 L242 885 L690 885 L690 111 L991 111 L991 0 L242 0 L242 111 Z M360 1237 L903 1237 L903 1126 L360 1126 L360 1237 Z " />
<glyph glyph-name="iogonek" unicode="&#x12f;" horiz-adv-x="1229" d="M553 -385 Q471 -385 421 -349 Q371 -313 371 -252 Q371 -184 434.5 -129 Q498 -74 621 0 L242 0 L242 111 L569 111 L569 774 L242 774 L242 885 L690 885 L690 111 L991 111 L991 0 L715 0 Q600 -88 550 -138 Q500 -188 500 -233 Q500 -268 524.5 -280.5 Q549 -293 580 -293 Q608 -293 642 -286 Q676 -279 698 -268 L717 -346 Q694 -358 650 -371.5 Q606 -385 553 -385 Z M547 1294 L713 1294 L713 1128 L547 1128 L547 1294 Z " />
<glyph glyph-name="itilde" unicode="&#x129;" horiz-adv-x="1229" d="M242 111 L569 111 L569 774 L242 774 L242 885 L690 885 L690 111 L991 111 L991 0 L242 0 L242 111 Z M293 1094 Q305 1135 326.5 1177 Q348 1219 375.5 1252.5 Q403 1286 437 1307.5 Q471 1329 510 1329 Q551 1329 581.5 1307.5 Q612 1286 637.5 1259.5 Q663 1233 687 1211.5 Q711 1190 741 1190 Q784 1190 820 1233 Q856 1276 883 1329 L944 1300 Q932 1260 910.5 1218 Q889 1176 861 1142 Q833 1108 799.5 1086.5 Q766 1065 727 1065 Q686 1065 655.5 1086.5 Q625 1108 599 1134.5 Q573 1161 549.5 1182.5 Q526 1204 496 1204 Q453 1204 417 1161 Q381 1118 354 1065 L293 1094 Z " />
<glyph glyph-name="uni0237" unicode="&#x237;" horiz-adv-x="1229" d="M311 -264 Q383 -264 449.5 -251 Q516 -238 567 -204 Q618 -170 649 -113.5 Q680 -57 680 29 L680 774 L336 774 L336 885 L801 885 L801 16 Q801 -170 677 -272.5 Q553 -375 311 -375 L311 -264 Z " />
<glyph glyph-name="jcircumflex" unicode="&#x135;" horiz-adv-x="1229" d="M311 -264 Q383 -264 449.5 -251 Q516 -238 567 -204 Q618 -170 649 -113.5 Q680 -57 680 29 L680 774 L336 774 L336 885 L801 885 L801 16 Q801 -170 677 -272.5 Q553 -375 311 -375 L311 -264 Z M674 1395 L805 1395 L1010 1004 L928 1004 L739 1255 L551 1004 L469 1004 L674 1395 Z " />
<glyph glyph-name="uni0137" unicode="&#x137;" horiz-adv-x="1229" d="M572 -438 Q533 -438 533 -408 Q533 -397 535 -385 Q537 -373 539 -365 L588 -80 L744 -80 L609 -410 Q601 -428 592.5 -433 Q584 -438 572 -438 Z M274 1294 L395 1294 L395 463 L891 885 L1049 885 L651 551 L1067 0 L918 0 L567 481 L395 338 L395 0 L274 0 L274 1294 Z " />
<glyph glyph-name="kgreenlandic" unicode="&#x138;" horiz-adv-x="1229" d="M274 885 L395 885 L395 463 L891 885 L1049 885 L651 551 L1067 0 L918 0 L567 481 L395 338 L395 0 L274 0 L274 885 Z " />
<glyph glyph-name="lacute" unicode="&#x13a;" horiz-adv-x="1229" d="M680 1772 L844 1772 L598 1381 L523 1381 L680 1772 Z M242 111 L555 111 L555 1184 L242 1184 L242 1294 L676 1294 L676 111 L991 111 L991 0 L242 0 L242 111 Z " />
<glyph glyph-name="lcaron" unicode="&#x13e;" horiz-adv-x="1229" d="M897 936 Q858 936 858 966 Q858 977 860 989 Q862 1001 864 1009 L913 1294 L1069 1294 L934 964 Q926 946 917.5 941 Q909 936 897 936 Z M242 111 L555 111 L555 1184 L242 1184 L242 1294 L676 1294 L676 111 L991 111 L991 0 L242 0 L242 111 Z " />
<glyph glyph-name="uni013C" unicode="&#x13c;" horiz-adv-x="1229" d="M551 -438 Q512 -438 512 -408 Q512 -397 514 -385 Q516 -373 518 -365 L567 -80 L723 -80 L588 -410 Q580 -428 571.5 -433 Q563 -438 551 -438 Z M242 111 L555 111 L555 1184 L242 1184 L242 1294 L676 1294 L676 111 L991 111 L991 0 L242 0 L242 111 Z " />
<glyph glyph-name="ldot" unicode="&#x140;" horiz-adv-x="1229" d="M242 111 L555 111 L555 1184 L242 1184 L242 1294 L676 1294 L676 111 L991 111 L991 0 L242 0 L242 111 Z M977 684 L1186 684 L1186 475 L977 475 L977 684 Z " />
<glyph glyph-name="nacute" unicode="&#x144;" horiz-adv-x="1229" d="M676 1395 L840 1395 L594 1004 L519 1004 L676 1395 Z M274 885 L371 885 L371 772 Q408 825 477.5 865 Q547 905 659 905 Q715 905 768 891 Q821 877 863 837 Q905 797 930.5 726 Q956 655 956 543 L956 0 L836 0 L836 512 Q836 582 827.5 635 Q819 688 795.5 724 Q772 760 732 778.5 Q692 797 631 797 Q541 797 483.5 766 Q426 735 395 700 L395 0 L274 0 L274 885 Z " />
<glyph glyph-name="napostrophe" unicode="&#x149;" horiz-adv-x="1229" d="M178 936 Q139 936 139 966 Q139 977 141 989 Q143 1001 145 1009 L194 1294 L350 1294 L215 964 Q207 946 198.5 941 Q190 936 178 936 Z M274 885 L371 885 L371 772 Q408 825 477.5 865 Q547 905 659 905 Q715 905 768 891 Q821 877 863 837 Q905 797 930.5 726 Q956 655 956 543 L956 0 L836 0 L836 512 Q836 582 827.5 635 Q819 688 795.5 724 Q772 760 732 778.5 Q692 797 631 797 Q541 797 483.5 766 Q426 735 395 700 L395 0 L274 0 L274 885 Z " />
<glyph glyph-name="ncaron" unicode="&#x148;" horiz-adv-x="1229" d="M344 1395 L426 1395 L614 1143 L803 1395 L885 1395 L680 1004 L549 1004 L344 1395 Z M274 885 L371 885 L371 772 Q408 825 477.5 865 Q547 905 659 905 Q715 905 768 891 Q821 877 863 837 Q905 797 930.5 726 Q956 655 956 543 L956 0 L836 0 L836 512 Q836 582 827.5 635 Q819 688 795.5 724 Q772 760 732 778.5 Q692 797 631 797 Q541 797 483.5 766 Q426 735 395 700 L395 0 L274 0 L274 885 Z " />
<glyph glyph-name="uni0146" unicode="&#x146;" horiz-adv-x="1229" d="M551 -438 Q512 -438 512 -408 Q512 -397 514 -385 Q516 -373 518 -365 L567 -80 L723 -80 L588 -410 Q580 -428 571.5 -433 Q563 -438 551 -438 Z M274 885 L371 885 L371 772 Q408 825 477.5 865 Q547 905 659 905 Q715 905 768 891 Q821 877 863 837 Q905 797 930.5 726 Q956 655 956 543 L956 0 L836 0 L836 512 Q836 582 827.5 635 Q819 688 795.5 724 Q772 760 732 778.5 Q692 797 631 797 Q541 797 483.5 766 Q426 735 395 700 L395 0 L274 0 L274 885 Z " />
<glyph glyph-name="obreve" unicode="&#x14f;" horiz-adv-x="1229" d="M612 -20 Q539 -20 466 1.5 Q393 23 334.5 76 Q276 129 240.5 218 Q205 307 205 440 Q205 575 242 665.5 Q279 756 338 809 Q397 862 471 883.5 Q545 905 616 905 Q690 905 763 883.5 Q836 862 894 809 Q952 756 988 667 Q1024 578 1024 444 Q1024 309 987 219 Q950 129 890.5 76 Q831 23 757.5 1.5 Q684 -20 612 -20 Z M614 92 Q899 92 899 442 Q899 793 614 793 Q330 793 330 442 Q330 92 614 92 Z M614 1081 Q547 1081 494.5 1107 Q442 1133 404.5 1169.5 Q367 1206 343 1247 Q319 1288 309 1319 L367 1354 Q383 1327 405.5 1300.5 Q428 1274 457.5 1252.5 Q487 1231 526 1216.5 Q565 1202 614 1202 Q664 1202 702.5 1216.5 Q741 1231 771 1252.5 Q801 1274 823.5 1300.5 Q846 1327 862 1354 L920 1319 Q909 1288 885.5 1247 Q862 1206 824 1169.5 Q786 1133 734 1107 Q682 1081 614 1081 Z " />
<glyph glyph-name="ohungarumlaut" unicode="&#x151;" horiz-adv-x="1229" d="M531 1395 L699 1395 L457 1004 L377 1004 L531 1395 Z M912 1395 L1080 1395 L838 1004 L758 1004 L912 1395 Z M612 -20 Q539 -20 466 1.5 Q393 23 334.5 76 Q276 129 240.5 218 Q205 307 205 440 Q205 575 242 665.5 Q279 756 338 809 Q397 862 471 883.5 Q545 905 616 905 Q690 905 763 883.5 Q836 862 894 809 Q952 756 988 667 Q1024 578 1024 444 Q1024 309 987 219 Q950 129 890.5 76 Q831 23 757.5 1.5 Q684 -20 612 -20 Z M614 92 Q899 92 899 442 Q899 793 614 793 Q330 793 330 442 Q330 92 614 92 Z " />
<glyph glyph-name="omacron" unicode="&#x14d;" horiz-adv-x="1229" d="M344 1237 L887 1237 L887 1126 L344 1126 L344 1237 Z M612 -20 Q539 -20 466 1.5 Q393 23 334.5 76 Q276 129 240.5 218 Q205 307 205 440 Q205 575 242 665.5 Q279 756 338 809 Q397 862 471 883.5 Q545 905 616 905 Q690 905 763 883.5 Q836 862 894 809 Q952 756 988 667 Q1024 578 1024 444 Q1024 309 987 219 Q950 129 890.5 76 Q831 23 757.5 1.5 Q684 -20 612 -20 Z M614 92 Q899 92 899 442 Q899 793 614 793 Q330 793 330 442 Q330 92 614 92 Z " />
<glyph glyph-name="oslashacute" unicode="&#x1ff;" horiz-adv-x="1229" d="M612 -20 Q535 -20 456 5.5 Q377 31 317 94 L217 0 L66 0 L258 180 Q233 229 219 293.5 Q205 358 205 442 Q205 578 243 667 Q281 756 340 809 Q399 862 472 883.5 Q545 905 616 905 Q694 905 773 879.5 Q852 854 911 791 L1012 885 L1163 885 L971 705 Q995 653 1009.5 588.5 Q1024 524 1024 442 Q1024 307 986 218 Q948 129 888.5 76 Q829 23 756.5 1.5 Q684 -20 612 -20 Z M612 92 Q899 92 899 442 Q899 541 874 614 L406 176 Q475 92 612 92 Z M823 709 Q750 793 614 793 Q330 793 330 442 Q330 340 354 270 L823 709 Z M676 1395 L840 1395 L594 1004 L519 1004 L676 1395 Z " />
<glyph glyph-name="racute" unicode="&#x155;" horiz-adv-x="1229" d="M700 1395 L864 1395 L618 1004 L543 1004 L700 1395 Z M242 111 L477 111 L477 774 L242 774 L242 885 L573 885 L573 694 Q588 731 613.5 769 Q639 807 676 837.5 Q713 868 764 886.5 Q815 905 883 905 Q965 905 1036 879 L1036 756 Q1004 768 968 775 Q932 782 889 782 Q829 782 782 766 Q735 750 699.5 725 Q664 700 638 669.5 Q612 639 598 610 L598 111 L991 111 L991 0 L242 0 L242 111 Z " />
<glyph glyph-name="rcaron" unicode="&#x159;" horiz-adv-x="1229" d="M367 1395 L449 1395 L637 1143 L826 1395 L908 1395 L703 1004 L572 1004 L367 1395 Z M242 111 L477 111 L477 774 L242 774 L242 885 L573 885 L573 694 Q588 731 613.5 769 Q639 807 676 837.5 Q713 868 764 886.5 Q815 905 883 905 Q965 905 1036 879 L1036 756 Q1004 768 968 775 Q932 782 889 782 Q829 782 782 766 Q735 750 699.5 725 Q664 700 638 669.5 Q612 639 598 610 L598 111 L991 111 L991 0 L242 0 L242 111 Z " />
<glyph glyph-name="uni0157" unicode="&#x157;" horiz-adv-x="1229" d="M473 -438 Q434 -438 434 -408 Q434 -397 436 -385 Q438 -373 440 -365 L489 -80 L645 -80 L510 -410 Q502 -428 493.5 -433 Q485 -438 473 -438 Z M242 111 L477 111 L477 774 L242 774 L242 885 L573 885 L573 694 Q588 731 613.5 769 Q639 807 676 837.5 Q713 868 764 886.5 Q815 905 883 905 Q965 905 1036 879 L1036 756 Q1004 768 968 775 Q932 782 889 782 Q829 782 782 766 Q735 750 699.5 725 Q664 700 638 669.5 Q612 639 598 610 L598 111 L991 111 L991 0 L242 0 L242 111 Z " />
<glyph glyph-name="sacute" unicode="&#x15b;" horiz-adv-x="1229" d="M678 1395 L842 1395 L596 1004 L521 1004 L678 1395 Z M635 -20 Q451 -20 343.5 54.5 Q236 129 225 281 L344 281 Q352 197 422 143.5 Q492 90 643 90 Q748 90 813.5 122 Q879 154 879 233 Q879 276 857.5 304 Q836 332 794 351.5 Q752 371 691.5 385 Q631 399 555 418 Q494 432 438.5 449.5 Q383 467 342 492.5 Q301 518 277.5 558 Q254 598 254 659 Q254 725 281.5 772 Q309 819 356 849 Q403 879 469 892 Q535 905 608 905 Q686 905 753.5 889.5 Q821 874 871.5 840.5 Q922 807 952.5 754.5 Q983 702 989 627 L870 627 Q860 682 833.5 715 Q807 748 769 766 Q731 784 688 789.5 Q645 795 606 795 Q377 795 377 668 Q377 627 400.5 602.5 Q424 578 467 560.5 Q510 543 570.5 530.5 Q631 518 705 500 Q772 483 826.5 464.5 Q881 446 919.5 417.5 Q958 389 979.5 347 Q1001 305 1001 244 Q1001 170 972.5 120 Q944 70 894 38 Q844 6 777.5 -7 Q711 -20 635 -20 Z " />
<glyph glyph-name="scedilla" unicode="&#x15f;" horiz-adv-x="1229" d="M635 -20 Q451 -20 343.5 54.5 Q236 129 225 281 L344 281 Q352 197 422 143.5 Q492 90 643 90 Q748 90 813.5 122 Q879 154 879 233 Q879 276 857.5 304 Q836 332 794 351.5 Q752 371 691.5 385 Q631 399 555 418 Q494 432 438.5 449.5 Q383 467 342 492.5 Q301 518 277.5 558 Q254 598 254 659 Q254 725 281.5 772 Q309 819 356 849 Q403 879 469 892 Q535 905 608 905 Q686 905 753.5 889.5 Q821 874 871.5 840.5 Q922 807 952.5 754.5 Q983 702 989 627 L870 627 Q860 682 833.5 715 Q807 748 769 766 Q731 784 688 789.5 Q645 795 606 795 Q377 795 377 668 Q377 627 400.5 602.5 Q424 578 467 560.5 Q510 543 570.5 530.5 Q631 518 705 500 Q772 483 826.5 464.5 Q881 446 919.5 417.5 Q958 389 979.5 347 Q1001 305 1001 244 Q1001 170 972.5 120 Q944 70 894 38 Q844 6 777.5 -7 Q711 -20 635 -20 Z M632 -385 Q579 -385 536 -372.5 Q493 -360 476 -350 L501 -272 Q519 -283 547.5 -290 Q576 -297 605 -297 Q646 -297 667.5 -282.5 Q689 -268 689 -248 Q689 -213 642 -190.5 Q595 -168 529 -152 L562 0 L642 0 L624 -90 Q708 -115 759 -155 Q810 -195 810 -254 Q810 -307 767 -346 Q724 -385 632 -385 Z " />
<glyph glyph-name="scircumflex" unicode="&#x15d;" horiz-adv-x="1229" d="M551 1395 L682 1395 L887 1004 L805 1004 L616 1255 L428 1004 L346 1004 L551 1395 Z M635 -20 Q451 -20 343.5 54.5 Q236 129 225 281 L344 281 Q352 197 422 143.5 Q492 90 643 90 Q748 90 813.5 122 Q879 154 879 233 Q879 276 857.5 304 Q836 332 794 351.5 Q752 371 691.5 385 Q631 399 555 418 Q494 432 438.5 449.5 Q383 467 342 492.5 Q301 518 277.5 558 Q254 598 254 659 Q254 725 281.5 772 Q309 819 356 849 Q403 879 469 892 Q535 905 608 905 Q686 905 753.5 889.5 Q821 874 871.5 840.5 Q922 807 952.5 754.5 Q983 702 989 627 L870 627 Q860 682 833.5 715 Q807 748 769 766 Q731 784 688 789.5 Q645 795 606 795 Q377 795 377 668 Q377 627 400.5 602.5 Q424 578 467 560.5 Q510 543 570.5 530.5 Q631 518 705 500 Q772 483 826.5 464.5 Q881 446 919.5 417.5 Q958 389 979.5 347 Q1001 305 1001 244 Q1001 170 972.5 120 Q944 70 894 38 Q844 6 777.5 -7 Q711 -20 635 -20 Z " />
<glyph glyph-name="uni0219" unicode="&#x219;" horiz-adv-x="1229" d="M547 -438 Q508 -438 508 -408 Q508 -397 510 -385 Q512 -373 514 -365 L563 -80 L719 -80 L584 -410 Q576 -428 567.5 -433 Q559 -438 547 -438 Z M635 -20 Q451 -20 343.5 54.5 Q236 129 225 281 L344 281 Q352 197 422 143.5 Q492 90 643 90 Q748 90 813.5 122 Q879 154 879 233 Q879 276 857.5 304 Q836 332 794 351.5 Q752 371 691.5 385 Q631 399 555 418 Q494 432 438.5 449.5 Q383 467 342 492.5 Q301 518 277.5 558 Q254 598 254 659 Q254 725 281.5 772 Q309 819 356 849 Q403 879 469 892 Q535 905 608 905 Q686 905 753.5 889.5 Q821 874 871.5 840.5 Q922 807 952.5 754.5 Q983 702 989 627 L870 627 Q860 682 833.5 715 Q807 748 769 766 Q731 784 688 789.5 Q645 795 606 795 Q377 795 377 668 Q377 627 400.5 602.5 Q424 578 467 560.5 Q510 543 570.5 530.5 Q631 518 705 500 Q772 483 826.5 464.5 Q881 446 919.5 417.5 Q958 389 979.5 347 Q1001 305 1001 244 Q1001 170 972.5 120 Q944 70 894 38 Q844 6 777.5 -7 Q711 -20 635 -20 Z " />
<glyph glyph-name="tbar" unicode="&#x167;" horiz-adv-x="1229" d="M778 -20 Q698 -20 638 -3 Q578 14 537 56 Q496 98 474.5 170 Q453 242 453 350 L453 465 L283 465 L283 575 L453 575 L453 774 L158 774 L158 885 L453 885 L453 1294 L573 1294 L573 885 L1008 885 L1008 774 L573 774 L573 575 L823 575 L823 465 L573 465 L573 371 Q573 221 616 155.5 Q659 90 782 90 Q834 90 887 99.5 Q940 109 985 123 L985 12 Q946 -2 895 -11 Q844 -20 778 -20 Z " />
<glyph glyph-name="tcaron" unicode="&#x165;" horiz-adv-x="1229" d="M778 -20 Q698 -20 638 -3 Q578 14 537 56 Q496 98 474.5 170 Q453 242 453 350 L453 639 L158 639 L158 750 L453 750 L453 1294 L573 1294 L573 750 L1008 750 L1008 639 L573 639 L573 371 Q573 221 616 155.5 Q659 90 782 90 Q834 90 887 99.5 Q940 109 985 123 L985 12 Q946 -2 895 -11 Q844 -20 778 -20 Z M793 936 Q754 936 754 967 Q754 977 756 989 Q758 1001 760 1010 L809 1294 L965 1294 L829 965 Q821 946 813 941 Q805 936 793 936 Z " />
<glyph glyph-name="uni0163" unicode="&#x163;" horiz-adv-x="1229" d="M631 -438 Q592 -438 592 -408 Q592 -397 594 -385 Q596 -373 598 -365 L647 -80 L803 -80 L668 -410 Q660 -428 651.5 -433 Q643 -438 631 -438 Z M778 -20 Q698 -20 638 -3 Q578 14 537 56 Q496 98 474.5 170 Q453 242 453 350 L453 774 L158 774 L158 885 L453 885 L453 1294 L573 1294 L573 885 L1008 885 L1008 774 L573 774 L573 371 Q573 221 616 155.5 Q659 90 782 90 Q834 90 887 99.5 Q940 109 985 123 L985 12 Q946 -2 895 -11 Q844 -20 778 -20 Z " />
<glyph glyph-name="uni021B" unicode="&#x21b;" horiz-adv-x="1229" d="M631 -438 Q592 -438 592 -408 Q592 -397 594 -385 Q596 -373 598 -365 L647 -80 L803 -80 L668 -410 Q660 -428 651.5 -433 Q643 -438 631 -438 Z M778 -20 Q698 -20 638 -3 Q578 14 537 56 Q496 98 474.5 170 Q453 242 453 350 L453 774 L158 774 L158 885 L453 885 L453 1294 L573 1294 L573 885 L1008 885 L1008 774 L573 774 L573 371 Q573 221 616 155.5 Q659 90 782 90 Q834 90 887 99.5 Q940 109 985 123 L985 12 Q946 -2 895 -11 Q844 -20 778 -20 Z " />
<glyph glyph-name="ubreve" unicode="&#x16d;" horiz-adv-x="1229" d="M571 -20 Q516 -20 463 -6 Q410 8 368 48 Q326 88 300 158.5 Q274 229 274 342 L274 885 L395 885 L395 373 Q395 303 403.5 250 Q412 197 435.5 161 Q459 125 499 106.5 Q539 88 600 88 Q690 88 747.5 119 Q805 150 836 184 L836 885 L956 885 L956 0 L860 0 L860 113 Q823 59 753.5 19.5 Q684 -20 571 -20 Z M614 1081 Q547 1081 494.5 1107 Q442 1133 404.5 1169.5 Q367 1206 343 1247 Q319 1288 309 1319 L367 1354 Q383 1327 405.5 1300.5 Q428 1274 457.5 1252.5 Q487 1231 526 1216.5 Q565 1202 614 1202 Q664 1202 702.5 1216.5 Q741 1231 771 1252.5 Q801 1274 823.5 1300.5 Q846 1327 862 1354 L920 1319 Q909 1288 885.5 1247 Q862 1206 824 1169.5 Q786 1133 734 1107 Q682 1081 614 1081 Z " />
<glyph glyph-name="uhungarumlaut" unicode="&#x171;" horiz-adv-x="1229" d="M571 -20 Q516 -20 463 -6 Q410 8 368 48 Q326 88 300 158.5 Q274 229 274 342 L274 885 L395 885 L395 373 Q395 303 403.5 250 Q412 197 435.5 161 Q459 125 499 106.5 Q539 88 600 88 Q690 88 747.5 119 Q805 150 836 184 L836 885 L956 885 L956 0 L860 0 L860 113 Q823 59 753.5 19.5 Q684 -20 571 -20 Z M541 1395 L709 1395 L467 1004 L387 1004 L541 1395 Z M922 1395 L1090 1395 L848 1004 L768 1004 L922 1395 Z " />
<glyph glyph-name="umacron" unicode="&#x16b;" horiz-adv-x="1229" d="M571 -20 Q516 -20 463 -6 Q410 8 368 48 Q326 88 300 158.5 Q274 229 274 342 L274 885 L395 885 L395 373 Q395 303 403.5 250 Q412 197 435.5 161 Q459 125 499 106.5 Q539 88 600 88 Q690 88 747.5 119 Q805 150 836 184 L836 885 L956 885 L956 0 L860 0 L860 113 Q823 59 753.5 19.5 Q684 -20 571 -20 Z M344 1237 L887 1237 L887 1126 L344 1126 L344 1237 Z " />
<glyph glyph-name="uogonek" unicode="&#x173;" horiz-adv-x="1229" d="M571 -20 Q516 -20 463 -6 Q410 8 368 48 Q326 88 300 158.5 Q274 229 274 342 L274 885 L395 885 L395 373 Q395 303 403.5 250 Q412 197 435.5 161 Q459 125 499 106.5 Q539 88 600 88 Q690 88 747.5 119 Q805 150 836 184 L836 885 L956 885 L956 0 Q842 -88 791.5 -138 Q741 -188 741 -233 Q741 -268 766 -280.5 Q791 -293 821 -293 Q850 -293 884 -286 Q918 -279 940 -268 L958 -346 Q936 -358 892 -371.5 Q848 -385 795 -385 Q713 -385 662.5 -349 Q612 -313 612 -252 Q612 -184 674.5 -129 Q737 -74 860 0 L860 113 Q823 59 753.5 19.5 Q684 -20 571 -20 Z " />
<glyph glyph-name="uring" unicode="&#x16f;" horiz-adv-x="1229" d="M614 981 Q559 981 512 1000.5 Q465 1020 430 1055 Q395 1090 375.5 1136 Q356 1182 356 1235 Q356 1288 375.5 1334 Q395 1380 430 1415 Q465 1450 512 1469.5 Q559 1489 614 1489 Q670 1489 717 1469.5 Q764 1450 799 1415 Q834 1380 853 1334 Q872 1288 872 1235 Q872 1182 853 1136 Q834 1090 799 1055 Q764 1020 717 1000.5 Q670 981 614 981 Z M614 1067 Q686 1067 734 1115 Q782 1163 782 1235 Q782 1307 734 1355 Q686 1403 614 1403 Q543 1403 494.5 1355 Q446 1307 446 1235 Q446 1163 494.5 1115 Q543 1067 614 1067 Z M571 -20 Q516 -20 463 -6 Q410 8 368 48 Q326 88 300 158.5 Q274 229 274 342 L274 885 L395 885 L395 373 Q395 303 403.5 250 Q412 197 435.5 161 Q459 125 499 106.5 Q539 88 600 88 Q690 88 747.5 119 Q805 150 836 184 L836 885 L956 885 L956 0 L860 0 L860 113 Q823 59 753.5 19.5 Q684 -20 571 -20 Z " />
<glyph glyph-name="utilde" unicode="&#x169;" horiz-adv-x="1229" d="M571 -20 Q516 -20 463 -6 Q410 8 368 48 Q326 88 300 158.5 Q274 229 274 342 L274 885 L395 885 L395 373 Q395 303 403.5 250 Q412 197 435.5 161 Q459 125 499 106.5 Q539 88 600 88 Q690 88 747.5 119 Q805 150 836 184 L836 885 L956 885 L956 0 L860 0 L860 113 Q823 59 753.5 19.5 Q684 -20 571 -20 Z M281 1094 Q293 1135 314.5 1177 Q336 1219 363.5 1252.5 Q391 1286 425 1307.5 Q459 1329 498 1329 Q539 1329 569.5 1307.5 Q600 1286 625.5 1259.5 Q651 1233 675 1211.5 Q699 1190 729 1190 Q772 1190 808 1233 Q844 1276 871 1329 L932 1300 Q920 1260 898.5 1218 Q877 1176 849 1142 Q821 1108 787.5 1086.5 Q754 1065 715 1065 Q674 1065 643.5 1086.5 Q613 1108 587 1134.5 Q561 1161 537.5 1182.5 Q514 1204 484 1204 Q441 1204 405 1161 Q369 1118 342 1065 L281 1094 Z " />
<glyph glyph-name="wacute" unicode="&#x1e83;" horiz-adv-x="1229" d="M676 1395 L840 1395 L594 1004 L519 1004 L676 1395 Z M127 885 L248 885 L369 113 L547 694 L682 694 L860 113 L983 885 L1102 885 L948 0 L788 0 L614 565 L440 0 L281 0 L127 885 Z " />
<glyph glyph-name="wcircumflex" unicode="&#x175;" horiz-adv-x="1229" d="M549 1395 L680 1395 L885 1004 L803 1004 L614 1255 L426 1004 L344 1004 L549 1395 Z M127 885 L248 885 L369 113 L547 694 L682 694 L860 113 L983 885 L1102 885 L948 0 L788 0 L614 565 L440 0 L281 0 L127 885 Z " />
<glyph glyph-name="wdieresis" unicode="&#x1e85;" horiz-adv-x="1229" d="M328 1294 L494 1294 L494 1128 L328 1128 L328 1294 Z M739 1294 L905 1294 L905 1128 L739 1128 L739 1294 Z M127 885 L248 885 L369 113 L547 694 L682 694 L860 113 L983 885 L1102 885 L948 0 L788 0 L614 565 L440 0 L281 0 L127 885 Z " />
<glyph glyph-name="wgrave" unicode="&#x1e81;" horiz-adv-x="1229" d="M127 885 L248 885 L369 113 L547 694 L682 694 L860 113 L983 885 L1102 885 L948 0 L788 0 L614 565 L440 0 L281 0 L127 885 Z M394 1395 L557 1395 L715 1004 L639 1004 L394 1395 Z " />
<glyph glyph-name="ycircumflex" unicode="&#x177;" horiz-adv-x="1229" d="M180 -264 Q250 -264 305 -250 Q360 -236 403 -204 Q446 -172 481 -123 Q516 -74 545 -4 L166 885 L299 885 L477 446 L612 117 L737 426 L924 885 L1055 885 L674 -10 Q631 -111 583 -180.5 Q535 -250 476.5 -293 Q418 -336 345 -355.5 Q272 -375 180 -375 L180 -264 Z M549 1395 L680 1395 L885 1004 L803 1004 L614 1255 L426 1004 L344 1004 L549 1395 Z " />
<glyph glyph-name="ygrave" unicode="&#x1ef3;" horiz-adv-x="1229" d="M180 -264 Q250 -264 305 -250 Q360 -236 403 -204 Q446 -172 481 -123 Q516 -74 545 -4 L166 885 L299 885 L477 446 L612 117 L737 426 L924 885 L1055 885 L674 -10 Q631 -111 583 -180.5 Q535 -250 476.5 -293 Q418 -336 345 -355.5 Q272 -375 180 -375 L180 -264 Z M396 1395 L559 1395 L717 1004 L641 1004 L396 1395 Z " />
<glyph glyph-name="zacute" unicode="&#x17a;" horiz-adv-x="1229" d="M676 1395 L840 1395 L594 1004 L519 1004 L676 1395 Z M242 90 L811 774 L252 774 L252 885 L979 885 L979 795 L410 113 L989 113 L989 0 L242 0 L242 90 Z " />
<glyph glyph-name="zdotaccent" unicode="&#x17c;" horiz-adv-x="1229" d="M242 90 L811 774 L252 774 L252 885 L979 885 L979 795 L410 113 L989 113 L989 0 L242 0 L242 90 Z M530 1270 L696 1270 L696 1104 L530 1104 L530 1270 Z " />
<glyph glyph-name="ij" unicode="&#x133;" horiz-adv-x="1229" d="M467 -264 Q539 -264 605.5 -251 Q672 -238 723 -204 Q774 -170 805 -113.5 Q836 -57 836 29 L836 885 L956 885 L956 16 Q956 -170 832.5 -272.5 Q709 -375 467 -375 L467 -264 Z M274 885 L395 885 L395 0 L274 0 L274 885 Z M252 1294 L418 1294 L418 1128 L252 1128 L252 1294 Z M813 1294 L979 1294 L979 1128 L813 1128 L813 1294 Z " />
<glyph glyph-name="uni0259" unicode="&#x259;" horiz-adv-x="1229" d="M606 -20 Q539 -20 466 1.5 Q393 23 333.5 75 Q274 127 236.5 216 Q199 305 199 440 L199 469 L901 469 Q889 799 600 799 Q483 799 411.5 747.5 Q340 696 322 598 L201 598 Q213 688 256 747.5 Q299 807 357.5 842 Q416 877 481.5 891 Q547 905 606 905 Q688 905 764 879.5 Q840 854 897 798.5 Q954 743 989 656 Q1024 569 1024 444 Q1024 311 986 222 Q948 133 887.5 79 Q827 25 752.5 2.5 Q678 -20 606 -20 Z M614 86 Q741 86 813 154.5 Q885 223 899 369 L322 369 Q338 225 412.5 155.5 Q487 86 614 86 Z " />
<glyph glyph-name="uni2116" unicode="&#x2116;" horiz-adv-x="1229" d="M991 592 Q893 592 830.5 657.5 Q768 723 768 877 Q768 1034 832.5 1099.5 Q897 1165 991 1165 Q1090 1165 1152 1099.5 Q1214 1034 1214 881 Q1214 723 1149.5 657.5 Q1085 592 991 592 Z M991 676 Q1028 676 1052.5 692.5 Q1077 709 1091.5 736.5 Q1106 764 1112 801 Q1118 838 1118 879 Q1118 920 1112 956.5 Q1106 993 1091.5 1021 Q1077 1049 1052.5 1065 Q1028 1081 991 1081 Q954 1081 929.5 1065 Q905 1049 891 1021 Q877 993 870.5 956.5 Q864 920 864 879 Q864 838 870.5 801 Q877 764 891 736.5 Q905 709 929.5 692.5 Q954 676 991 676 Z M111 1143 L289 1143 L586 115 L578 436 L578 1143 L688 1143 L688 0 L510 0 L213 1028 L221 707 L221 0 L111 0 L111 1143 Z M782 483 L1204 483 L1204 397 L782 397 L782 483 Z " />
<glyph glyph-name="Alpha" unicode="&#x391;" horiz-adv-x="1229" d="M543 1143 L686 1143 L1092 0 L948 0 L852 285 L375 285 L276 0 L137 0 L543 1143 Z M813 397 L743 604 L612 1008 L481 608 L410 397 L813 397 Z " />
<glyph glyph-name="Beta" unicode="&#x392;" horiz-adv-x="1229" d="M274 1143 L602 1143 Q686 1143 758.5 1122.5 Q831 1102 884.5 1064 Q938 1026 968.5 968.5 Q999 911 999 838 Q999 760 961.5 697.5 Q924 635 831 592 Q877 575 915.5 551.5 Q954 528 983 494.5 Q1012 461 1029.5 418 Q1047 375 1047 319 Q1047 246 1015 186.5 Q983 127 928.5 86 Q874 45 799.5 22.5 Q725 0 639 0 L274 0 L274 1143 Z M403 113 L639 113 Q784 113 848.5 176.5 Q913 240 913 328 Q913 426 841.5 477 Q770 528 631 528 L403 528 L403 113 Z M403 641 L584 641 Q721 641 793.5 685 Q866 729 866 829 Q866 920 801.5 975 Q737 1030 594 1030 L403 1030 L403 641 Z " />
<glyph glyph-name="Gamma" unicode="&#x393;" horiz-adv-x="1229" d="M274 1143 L989 1143 L989 1030 L403 1030 L403 0 L274 0 L274 1143 Z " />
<glyph glyph-name="uni0394" unicode="&#x394;" horiz-adv-x="1229" d="M170 102 L535 1143 L694 1143 L1059 102 L1059 0 L170 0 L170 102 Z M309 113 L915 113 L745 621 L612 1014 L481 623 L309 113 Z " />
<glyph glyph-name="Epsilon" unicode="&#x395;" horiz-adv-x="1229" d="M274 1143 L979 1143 L979 1030 L403 1030 L403 641 L909 641 L909 528 L403 528 L403 113 L979 113 L979 0 L274 0 L274 1143 Z " />
<glyph glyph-name="Zeta" unicode="&#x396;" horiz-adv-x="1229" d="M219 102 L850 1030 L229 1030 L229 1143 L1001 1143 L1001 1040 L369 113 L1008 113 L1008 0 L219 0 L219 102 Z " />
<glyph glyph-name="Eta" unicode="&#x397;" horiz-adv-x="1229" d="M274 1143 L403 1143 L403 641 L825 641 L825 1143 L954 1143 L954 0 L825 0 L825 528 L403 528 L403 0 L274 0 L274 1143 Z " />
<glyph glyph-name="Theta" unicode="&#x398;" horiz-adv-x="1229" d="M612 -20 Q502 -20 421 23 Q340 66 286.5 143.5 Q233 221 207.5 329.5 Q182 438 182 567 Q182 702 209 812 Q236 922 290 1000.5 Q344 1079 426 1122 Q508 1165 616 1165 Q727 1165 808 1122 Q889 1079 942 1000.5 Q995 922 1021 813.5 Q1047 705 1047 575 Q1047 440 1020 330.5 Q993 221 939 143.5 Q885 66 803 23 Q721 -20 612 -20 Z M614 94 Q705 94 762 135 Q819 176 853 242.5 Q887 309 900 395 Q913 481 913 571 Q913 662 900 748 Q887 834 853 901.5 Q819 969 762 1010 Q705 1051 614 1051 Q524 1051 467 1010 Q410 969 376 901.5 Q342 834 328.5 748 Q315 662 315 571 Q315 481 328.5 395 Q342 309 376 242.5 Q410 176 467 135 Q524 94 614 94 Z M422 629 L807 629 L807 518 L422 518 L422 629 Z " />
<glyph glyph-name="Iota" unicode="&#x399;" horiz-adv-x="1229" d="M272 113 L551 113 L551 1030 L272 1030 L272 1143 L958 1143 L958 1030 L680 1030 L680 113 L958 113 L958 0 L272 0 L272 113 Z " />
<glyph glyph-name="Kappa" unicode="&#x39a;" horiz-adv-x="1229" d="M274 1143 L403 1143 L403 575 L909 1143 L1075 1143 L633 657 L1124 0 L963 0 L551 567 L403 408 L403 0 L274 0 L274 1143 Z " />
<glyph glyph-name="Lambda" unicode="&#x39b;" horiz-adv-x="1229" d="M535 1143 L694 1143 L1094 0 L952 0 L743 621 L614 1016 L483 621 L274 0 L135 0 L535 1143 Z " />
<glyph glyph-name="Mu" unicode="&#x39c;" horiz-adv-x="1229" d="M205 1143 L391 1143 L537 727 L616 475 L696 727 L842 1143 L1024 1143 L1024 0 L903 0 L903 731 L909 1022 L670 328 L559 328 L319 1022 L326 731 L326 0 L205 0 L205 1143 Z " />
<glyph glyph-name="Nu" unicode="&#x39d;" horiz-adv-x="1229" d="M274 1143 L461 1143 L844 129 L831 436 L831 1143 L954 1143 L954 0 L768 0 L385 1014 L397 707 L397 0 L274 0 L274 1143 Z " />
<glyph glyph-name="Xi" unicode="&#x39e;" horiz-adv-x="1229" d="M250 113 L979 113 L979 0 L250 0 L250 113 Z M336 641 L893 641 L893 528 L336 528 L336 641 Z M250 1143 L979 1143 L979 1030 L250 1030 L250 1143 Z " />
<glyph glyph-name="Omicron" unicode="&#x39f;" horiz-adv-x="1229" d="M612 -20 Q502 -20 421 23 Q340 66 286.5 143.5 Q233 221 207.5 329.5 Q182 438 182 567 Q182 702 209 812 Q236 922 290 1000.5 Q344 1079 426 1122 Q508 1165 616 1165 Q727 1165 808 1122 Q889 1079 942 1000.5 Q995 922 1021 813.5 Q1047 705 1047 575 Q1047 440 1020 330.5 Q993 221 939 143.5 Q885 66 803 23 Q721 -20 612 -20 Z M614 94 Q705 94 762 135 Q819 176 853 242.5 Q887 309 900 395 Q913 481 913 571 Q913 662 900 748 Q887 834 853 901.5 Q819 969 762 1010 Q705 1051 614 1051 Q524 1051 467 1010 Q410 969 376 901.5 Q342 834 328.5 748 Q315 662 315 571 Q315 481 328.5 395 Q342 309 376 242.5 Q410 176 467 135 Q524 94 614 94 Z " />
<glyph glyph-name="Pi" unicode="&#x3a0;" horiz-adv-x="1229" d="M274 1143 L954 1143 L954 0 L825 0 L825 1030 L403 1030 L403 0 L274 0 L274 1143 Z " />
<glyph glyph-name="Rho" unicode="&#x3a1;" horiz-adv-x="1229" d="M274 1143 L578 1143 Q797 1143 920.5 1058 Q1044 973 1044 795 Q1044 621 921.5 533.5 Q799 446 578 446 L403 446 L403 0 L274 0 L274 1143 Z M403 559 L580 559 Q760 559 835.5 622.5 Q911 686 911 795 Q911 903 835.5 966.5 Q760 1030 580 1030 L403 1030 L403 559 Z " />
<glyph glyph-name="Sigma" unicode="&#x3a3;" horiz-adv-x="1229" d="M242 106 L721 571 L242 1036 L242 1143 L985 1143 L985 1030 L416 1030 L840 614 L840 528 L416 113 L985 113 L985 0 L242 0 L242 106 Z " />
<glyph glyph-name="Tau" unicode="&#x3a4;" horiz-adv-x="1229" d="M549 1030 L158 1030 L158 1143 L1071 1143 L1071 1030 L678 1030 L678 0 L549 0 L549 1030 Z " />
<glyph glyph-name="Upsilon" unicode="&#x3a5;" horiz-adv-x="1229" d="M551 463 L98 1143 L248 1143 L432 864 L618 569 L803 864 L983 1143 L1133 1143 L680 459 L680 0 L551 0 L551 463 Z " />
<glyph glyph-name="Phi" unicode="&#x3a6;" horiz-adv-x="1229" d="M551 100 Q444 102 358 141 Q272 180 211 243.5 Q150 307 117 391 Q84 475 84 571 Q84 666 117 750 Q150 834 211 898.5 Q272 963 358 1000.5 Q444 1038 551 1042 L551 1143 L678 1143 L678 1042 Q784 1038 870 1000.5 Q956 963 1017.5 899.5 Q1079 836 1112 752 Q1145 668 1145 571 Q1145 477 1112 393 Q1079 309 1017.5 244.5 Q956 180 870 141 Q784 102 678 100 L678 0 L551 0 L551 100 Z M551 930 Q463 928 400.5 897 Q338 866 297 817 Q256 768 236.5 703.5 Q217 639 217 571 Q217 504 236.5 439.5 Q256 375 297 325.5 Q338 276 400.5 245.5 Q463 215 551 213 L551 930 Z M678 213 Q766 215 828.5 245.5 Q891 276 932 325.5 Q973 375 992.5 439.5 Q1012 504 1012 571 Q1012 639 992.5 703.5 Q973 768 932 817 Q891 866 828.5 897 Q766 928 678 930 L678 213 Z " />
<glyph glyph-name="Chi" unicode="&#x3a7;" horiz-adv-x="1229" d="M537 588 L152 1143 L307 1143 L489 868 L612 682 L735 868 L918 1143 L1077 1143 L692 588 L1100 0 L944 0 L739 307 L616 494 L494 307 L289 0 L129 0 L537 588 Z " />
<glyph glyph-name="Psi" unicode="&#x3a8;" horiz-adv-x="1229" d="M551 385 Q440 385 359.5 415.5 Q279 446 227.5 499.5 Q176 553 151.5 627.5 Q127 702 127 793 L127 1143 L254 1143 L254 807 Q254 745 266.5 689 Q279 633 311.5 590 Q344 547 402.5 521.5 Q461 496 551 496 L551 1143 L678 1143 L678 496 Q768 496 826.5 521.5 Q885 547 917.5 590 Q950 633 962.5 689 Q975 745 975 807 L975 1143 L1102 1143 L1102 793 Q1102 702 1077.5 627.5 Q1053 553 1000.5 499.5 Q948 446 868 415.5 Q788 385 678 385 L678 0 L551 0 L551 385 Z " />
<glyph glyph-name="uni03A9" unicode="&#x3a9;" horiz-adv-x="1229" d="M182 113 L418 113 Q383 139 345 186 Q307 233 275.5 299 Q244 365 222.5 450 Q201 535 201 641 Q201 901 305.5 1033 Q410 1165 614 1165 Q827 1165 927.5 1031 Q1028 897 1028 641 Q1028 535 1006.5 450 Q985 365 953.5 299 Q922 233 883 186 Q844 139 811 113 L1047 113 L1047 0 L696 0 L696 109 Q782 213 839.5 341 Q897 469 897 641 Q897 725 882.5 799.5 Q868 874 835.5 930.5 Q803 987 748.5 1020 Q694 1053 614 1053 Q535 1053 480.5 1020 Q426 987 393 930.5 Q360 874 346 799.5 Q332 725 332 641 Q332 469 389 341 Q446 213 532 109 L532 0 L182 0 L182 113 Z " />
<glyph glyph-name="alpha" unicode="&#x3b1;" horiz-adv-x="1229" d="M549 -20 Q477 -20 414.5 7.5 Q352 35 305 91 Q258 147 231.5 234.5 Q205 322 205 440 Q205 561 232.5 649 Q260 737 308 793.5 Q356 850 418.5 877.5 Q481 905 551 905 Q612 905 660.5 888.5 Q709 872 744.5 847.5 Q780 823 804.5 794.5 Q829 766 844 743 L844 885 L954 885 L954 133 Q954 106 965.5 97 Q977 88 1008 88 Q1053 88 1116 102 L1116 8 Q1094 -2 1055 -11 Q1016 -20 975 -20 Q899 -20 871.5 15.5 Q844 51 844 109 L844 141 Q831 119 807.5 91 Q784 63 747.5 38.5 Q711 14 661.5 -3 Q612 -20 549 -20 Z M569 92 Q621 92 663 106.5 Q705 121 738.5 142.5 Q772 164 795.5 189.5 Q819 215 834 238 L834 647 Q819 670 795.5 695.5 Q772 721 738.5 742.5 Q705 764 663 778.5 Q621 793 569 793 Q502 793 456 764 Q410 735 382 687 Q354 639 342 575.5 Q330 512 330 442 Q330 373 342 309.5 Q354 246 382 198 Q410 150 456 121 Q502 92 569 92 Z " />
<glyph glyph-name="beta" unicode="&#x3b2;" horiz-adv-x="1229" d="M262 891 Q262 1110 361.5 1212.5 Q461 1315 633 1315 Q799 1315 894 1231 Q989 1147 989 999 Q989 913 958.5 854 Q928 795 883 755 Q838 715 786.5 692.5 Q735 670 694 655 Q745 641 804.5 614.5 Q864 588 915.5 545 Q967 502 1001.5 441.5 Q1036 381 1036 299 Q1036 229 1009.5 171 Q983 113 935 70 Q887 27 818.5 3.5 Q750 -20 666 -20 Q573 -20 502.5 1.5 Q432 23 383 55 L383 -365 L262 -365 L262 891 Z M383 160 Q424 137 493.5 114.5 Q563 92 653 92 Q770 92 841.5 142.5 Q913 193 913 297 Q913 358 886.5 406.5 Q860 455 811 492.5 Q762 530 693.5 559 Q625 588 543 612 L543 694 Q715 745 790.5 814 Q866 883 866 993 Q866 1094 810 1151 Q754 1208 635 1208 Q504 1208 443.5 1132.5 Q383 1057 383 897 L383 160 Z " />
<glyph glyph-name="gamma" unicode="&#x3b3;" horiz-adv-x="1229" d="M553 -14 L170 885 L303 885 L494 418 L616 117 L739 418 L928 885 L1059 885 L674 -20 L674 -365 L553 -365 L553 -14 Z " />
<glyph glyph-name="delta" unicode="&#x3b4;" horiz-adv-x="1229" d="M614 -20 Q537 -20 463 3.5 Q389 27 331.5 78 Q274 129 239.5 209 Q205 289 205 401 Q205 514 238.5 594 Q272 674 327.5 725 Q383 776 451.5 799.5 Q520 823 590 823 Q662 823 706 804.5 Q750 786 774 766 L776 768 L684 844 L289 1204 L289 1294 L958 1294 L958 1186 L461 1186 L784 893 Q911 778 967.5 667.5 Q1024 557 1024 416 Q1024 299 989 216 Q954 133 897 81 Q840 29 766 4.5 Q692 -20 614 -20 Z M614 88 Q696 88 751.5 114.5 Q807 141 840.5 184 Q874 227 887.5 283.5 Q901 340 901 401 Q901 463 887.5 519 Q874 575 841.5 618.5 Q809 662 752.5 688.5 Q696 715 612 715 Q530 715 476 690.5 Q422 666 389 624 Q356 582 342 525.5 Q328 469 328 406 Q328 342 341 284.5 Q354 227 388 183 Q422 139 476 113.5 Q530 88 614 88 Z " />
<glyph glyph-name="epsilon" unicode="&#x3b5;" horiz-adv-x="1229" d="M623 -20 Q449 -20 352.5 45.5 Q256 111 256 236 Q256 317 304 381.5 Q352 446 444 465 Q352 494 313 546 Q274 598 274 668 Q274 727 301 771 Q328 815 375 844.5 Q422 874 485.5 889.5 Q549 905 625 905 Q692 905 754.5 892 Q817 879 866 846 Q915 813 946 757.5 Q977 702 979 621 L862 621 Q856 721 789.5 760 Q723 799 618 799 Q522 799 459.5 768 Q397 737 397 662 Q397 588 459.5 553 Q522 518 627 518 L684 518 L684 414 L627 414 Q520 414 450.5 372 Q381 330 381 242 Q381 160 447.5 123 Q514 86 623 86 Q727 86 797.5 125 Q868 164 874 264 L991 264 Q989 188 960.5 135 Q932 82 884 47 Q836 12 769 -4 Q702 -20 623 -20 Z " />
<glyph glyph-name="zeta" unicode="&#x3b6;" horiz-adv-x="1229" d="M801 -281 Q854 -233 880.5 -197.5 Q907 -162 907 -113 Q907 -82 895 -59.5 Q883 -37 854 -18.5 Q825 0 779 16.5 Q733 33 666 51 Q598 70 533.5 93.5 Q469 117 418 156 Q367 195 336 254 Q305 313 305 403 Q305 477 327.5 540.5 Q350 604 395 666.5 Q440 729 507.5 798.5 Q575 868 666 956 L899 1184 L344 1184 L344 1294 L1075 1294 L1075 1204 L758 891 Q680 813 618.5 750.5 Q557 688 515 631.5 Q473 575 451.5 522 Q430 469 430 408 Q430 344 452.5 303 Q475 262 513 234.5 Q551 207 602 189.5 Q653 172 709 156 Q768 139 825.5 121.5 Q883 104 929 77.5 Q975 51 1003.5 10 Q1032 -31 1032 -94 Q1032 -174 988 -237.5 Q944 -301 868 -348 L801 -281 Z " />
<glyph glyph-name="eta" unicode="&#x3b7;" horiz-adv-x="1229" d="M836 512 Q836 582 827.5 635 Q819 688 795.5 724 Q772 760 732 778.5 Q692 797 631 797 Q541 797 483.5 766 Q426 735 395 700 L395 0 L274 0 L274 885 L371 885 L371 772 Q408 825 477.5 865 Q547 905 659 905 Q715 905 768 891 Q821 877 863 837 Q905 797 930.5 726 Q956 655 956 543 L956 -365 L836 -365 L836 512 Z " />
<glyph glyph-name="theta" unicode="&#x3b8;" horiz-adv-x="1229" d="M614 -20 Q541 -20 472 1.5 Q403 23 349 81 Q295 139 263 238.5 Q231 338 231 496 L231 795 Q231 950 264 1051.5 Q297 1153 351.5 1211.5 Q406 1270 474.5 1292.5 Q543 1315 614 1315 Q688 1315 756.5 1293.5 Q825 1272 879.5 1213.5 Q934 1155 965.5 1054.5 Q997 954 997 799 L997 500 Q997 342 964.5 241.5 Q932 141 877.5 83 Q823 25 754.5 2.5 Q686 -20 614 -20 Z M614 92 Q760 92 819.5 196.5 Q879 301 879 524 L879 592 L350 592 L350 524 Q350 301 409.5 196.5 Q469 92 614 92 Z M879 770 Q879 993 819.5 1097.5 Q760 1202 614 1202 Q469 1202 409.5 1097.5 Q350 993 350 770 L350 702 L879 702 L879 770 Z " />
<glyph glyph-name="iota" unicode="&#x3b9;" horiz-adv-x="1229" d="M870 -20 Q793 -20 732.5 -4 Q672 12 631 54 Q590 96 567.5 168 Q545 240 545 350 L545 774 L217 774 L217 885 L666 885 L666 371 Q666 293 676 239.5 Q686 186 710.5 153.5 Q735 121 776 105.5 Q817 90 877 90 Q915 90 963.5 96 Q1012 102 1053 117 L1053 4 Q1018 -6 972 -13 Q926 -20 870 -20 Z " />
<glyph glyph-name="kappa" unicode="&#x3ba;" horiz-adv-x="1229" d="M274 885 L395 885 L395 463 L891 885 L1049 885 L651 551 L1067 0 L918 0 L567 481 L395 338 L395 0 L274 0 L274 885 Z " />
<glyph glyph-name="lambda" unicode="&#x3bb;" horiz-adv-x="1229" d="M580 782 L512 934 Q449 1075 360.5 1134.5 Q272 1194 133 1194 L133 1305 Q215 1305 284.5 1291.5 Q354 1278 413.5 1241 Q473 1204 524 1139.5 Q575 1075 623 975 L1081 0 L950 0 L762 410 L645 666 L516 401 L322 0 L193 0 L580 782 Z " />
<glyph glyph-name="uni03BC" unicode="&#x3bc;" horiz-adv-x="1229" d="M274 885 L395 885 L395 111 L567 111 Q657 111 715.5 140.5 Q774 170 803 205 L803 885 L924 885 L924 133 Q924 106 935 97 Q946 88 975 88 Q1022 88 1085 102 L1085 8 Q1063 -2 1025 -11 Q987 -20 942 -20 Q903 -20 879.5 -10 Q856 0 842.5 17.5 Q829 35 824 55.5 Q819 76 819 96 L819 127 Q809 106 786.5 83.5 Q764 61 730 43 Q696 25 650 12.5 Q604 0 543 0 L395 0 L395 -365 L274 -365 L274 885 Z " />
<glyph glyph-name="nu" unicode="&#x3bd;" horiz-adv-x="1229" d="M168 885 L301 885 L479 446 L614 117 L739 426 L926 885 L1057 885 L680 0 L545 0 L168 885 Z " />
<glyph glyph-name="xi" unicode="&#x3be;" horiz-adv-x="1229" d="M750 -281 Q803 -233 829.5 -197.5 Q856 -162 856 -113 Q856 -82 843.5 -59.5 Q831 -37 802.5 -18.5 Q774 0 728 16.5 Q682 33 614 51 Q547 70 481.5 94.5 Q416 119 365.5 158 Q315 197 284.5 254 Q254 311 254 395 Q254 518 318.5 601 Q383 684 494 725 Q403 752 339.5 817.5 Q276 883 276 1004 Q276 1139 367.5 1227 Q459 1315 647 1315 Q723 1315 788.5 1298.5 Q854 1282 904 1248 Q954 1214 984 1162 Q1014 1110 1020 1036 L901 1036 Q893 1087 867.5 1120 Q842 1153 807 1171.5 Q772 1190 731 1197 Q690 1204 649 1204 Q520 1204 459.5 1153 Q399 1102 399 1004 Q399 926 434 883 Q469 840 522 819.5 Q575 799 640 796 Q705 793 764 793 L883 793 L883 684 L760 684 Q672 684 601 662.5 Q530 641 481 604 Q432 567 405.5 515 Q379 463 379 401 Q379 338 404.5 296 Q430 254 471 227.5 Q512 201 561 184.5 Q610 168 657 156 Q717 139 774 122.5 Q831 106 877.5 79.5 Q924 53 952.5 11 Q981 -31 981 -94 Q981 -174 937 -237.5 Q893 -301 817 -348 L750 -281 Z " />
<glyph glyph-name="omicron" unicode="&#x3bf;" horiz-adv-x="1229" d="M612 -20 Q539 -20 466 1.5 Q393 23 334.5 76 Q276 129 240.5 218 Q205 307 205 440 Q205 575 242 665.5 Q279 756 338 809 Q397 862 471 883.5 Q545 905 616 905 Q690 905 763 883.5 Q836 862 894 809 Q952 756 988 667 Q1024 578 1024 444 Q1024 309 987 219 Q950 129 890.5 76 Q831 23 757.5 1.5 Q684 -20 612 -20 Z M614 92 Q899 92 899 442 Q899 793 614 793 Q330 793 330 442 Q330 92 614 92 Z " />
<glyph glyph-name="rho" unicode="&#x3c1;" horiz-adv-x="1229" d="M264 432 Q264 563 294 653 Q324 743 376 799.5 Q428 856 498.5 880.5 Q569 905 649 905 Q725 905 794.5 882.5 Q864 860 917.5 807 Q971 754 1002.5 668 Q1034 582 1034 453 Q1034 313 999.5 222 Q965 131 909.5 78 Q854 25 787.5 2.5 Q721 -20 657 -20 Q563 -20 492.5 15.5 Q422 51 385 94 L385 -365 L264 -365 L264 432 Z M629 92 Q758 92 833.5 178 Q909 264 909 449 Q909 610 844.5 701.5 Q780 793 647 793 Q514 793 449.5 701.5 Q385 610 385 442 L385 186 Q426 145 488.5 118.5 Q551 92 629 92 Z " />
<glyph glyph-name="sigma1" unicode="&#x3c2;" horiz-adv-x="1229" d="M719 -281 Q772 -233 798.5 -197.5 Q825 -162 825 -113 Q825 -82 813 -59.5 Q801 -37 772 -19.5 Q743 -2 697 14.5 Q651 31 584 51 Q512 72 447.5 102.5 Q383 133 334 182 Q285 231 255 303 Q225 375 225 477 Q225 586 258 667 Q291 748 347 801 Q403 854 477 879.5 Q551 905 635 905 Q696 905 757.5 888.5 Q819 872 868.5 834.5 Q918 797 950.5 732.5 Q983 668 989 571 L866 571 Q846 795 631 795 Q557 795 504 769 Q451 743 416 700 Q381 657 364.5 599 Q348 541 348 477 Q348 399 369.5 346 Q391 293 429 256 Q467 219 518 196.5 Q569 174 627 156 Q682 139 739.5 122.5 Q797 106 844 79.5 Q891 53 920.5 12 Q950 -29 950 -94 Q950 -174 906 -237.5 Q862 -301 786 -348 L719 -281 Z " />
<glyph glyph-name="sigma" unicode="&#x3c3;" horiz-adv-x="1229" d="M600 -20 Q526 -20 452.5 2.5 Q379 25 320.5 77 Q262 129 226 216 Q190 303 190 434 Q190 571 230 659.5 Q270 748 333.5 798 Q397 848 475 866.5 Q553 885 631 885 L1092 885 L1092 774 L868 774 Q897 750 922.5 720 Q948 690 967.5 649 Q987 608 998.5 555 Q1010 502 1010 432 Q1010 303 973 216 Q936 129 877.5 77 Q819 25 746.5 2.5 Q674 -20 600 -20 Z M600 92 Q741 92 813 179 Q885 266 885 434 Q885 555 850 639 Q815 723 758 774 L643 774 Q479 774 397 698.5 Q315 623 315 440 Q315 92 600 92 Z " />
<glyph glyph-name="tau" unicode="&#x3c4;" horiz-adv-x="1229" d="M778 -20 Q698 -20 638 -3 Q578 14 537 56 Q496 98 474.5 170 Q453 242 453 350 L453 774 L158 774 L158 885 L1008 885 L1008 774 L573 774 L573 371 Q573 221 616 155.5 Q659 90 782 90 Q834 90 887 99.5 Q940 109 985 123 L985 12 Q946 -2 895 -11 Q844 -20 778 -20 Z " />
<glyph glyph-name="upsilon" unicode="&#x3c5;" horiz-adv-x="1229" d="M614 -20 Q543 -20 481.5 -6 Q420 8 374 48 Q328 88 301 158.5 Q274 229 274 342 L274 885 L395 885 L395 373 Q395 303 404.5 250 Q414 197 437.5 161 Q461 125 504 106.5 Q547 88 614 88 Q682 88 725 106.5 Q768 125 791.5 161 Q815 197 824.5 250 Q834 303 834 373 L834 885 L954 885 L954 342 Q954 231 927.5 161.5 Q901 92 855 51 Q809 10 746.5 -5 Q684 -20 614 -20 Z " />
<glyph glyph-name="phi" unicode="&#x3c6;" horiz-adv-x="1229" d="M553 -20 Q481 -20 407.5 -3 Q334 14 275.5 61.5 Q217 109 180 194 Q143 279 143 414 Q143 487 154.5 559 Q166 631 184.5 692.5 Q203 754 227.5 804 Q252 854 276 885 L408 885 Q260 678 260 422 Q260 240 333 161 Q406 82 553 82 L553 440 Q553 588 573.5 678 Q594 768 629 819 Q664 870 710 887.5 Q756 905 805 905 Q856 905 905 888.5 Q954 872 994 826 Q1034 780 1058.5 699 Q1083 618 1083 489 Q1083 332 1046.5 233.5 Q1010 135 951.5 77.5 Q893 20 818 0 Q743 -20 668 -20 L668 -365 L553 -365 L553 -20 Z M668 82 Q831 82 899 181.5 Q967 281 967 479 Q967 547 958.5 606.5 Q950 666 932.5 710 Q915 754 885.5 778.5 Q856 803 813 803 Q735 803 701.5 714 Q668 625 668 444 L668 82 Z " />
<glyph glyph-name="chi" unicode="&#x3c7;" horiz-adv-x="1229" d="M541 279 L158 885 L299 885 L614 371 L930 885 L1065 885 L682 274 L1087 -365 L946 -365 L608 178 L274 -365 L139 -365 L541 279 Z " />
<glyph glyph-name="psi" unicode="&#x3c8;" horiz-adv-x="1229" d="M557 -20 Q485 -20 415.5 -1 Q346 18 293 64.5 Q240 111 207 184.5 Q174 258 174 369 L174 885 L291 885 L291 393 Q291 324 305 267.5 Q319 211 351 171 Q383 131 434 108.5 Q485 86 557 86 L557 885 L672 885 L672 86 Q815 86 876.5 170 Q938 254 938 393 L938 885 L1055 885 L1055 373 Q1055 260 1021 184.5 Q987 109 934 63.5 Q881 18 811 -1 Q741 -20 672 -20 L672 -365 L557 -365 L557 -20 Z " />
<glyph glyph-name="omega" unicode="&#x3c9;" horiz-adv-x="1229" d="M399 -20 Q324 -20 271.5 14.5 Q219 49 187.5 107.5 Q156 166 142.5 241.5 Q129 317 129 401 Q129 561 169 688 Q209 815 262 885 L393 885 Q311 768 278.5 655.5 Q246 543 246 408 Q246 242 288 162 Q330 82 408 82 Q487 82 523 162 Q559 242 559 383 L559 618 L670 618 L670 383 Q670 242 705.5 162 Q741 82 821 82 Q899 82 941 162 Q983 242 983 408 Q983 543 950.5 655.5 Q918 768 836 885 L967 885 Q1020 815 1060 688 Q1100 561 1100 401 Q1100 317 1086.5 241.5 Q1073 166 1041.5 107.5 Q1010 49 957.5 14.5 Q905 -20 829 -20 Q752 -20 696.5 17.5 Q641 55 614 123 Q586 55 531.5 17.5 Q477 -20 399 -20 Z " />
<glyph glyph-name="Alphatonos" unicode="&#x386;" horiz-adv-x="1229" d="M563 1143 L706 1143 L1112 0 L968 0 L872 285 L395 285 L296 0 L157 0 L563 1143 Z M833 397 L763 604 L632 1008 L501 608 L430 397 L833 397 Z M179 1145 L338 1145 L283 754 L234 754 L179 1145 Z " />
<glyph glyph-name="Epsilontonos" unicode="&#x388;" horiz-adv-x="1229" d="M428 1143 L1030 1143 L1030 1030 L557 1030 L557 641 L961 641 L961 528 L557 528 L557 113 L1030 113 L1030 0 L428 0 L428 1143 Z M104 1143 L264 1143 L209 752 L160 752 L104 1143 Z " />
<glyph glyph-name="Etatonos" unicode="&#x389;" horiz-adv-x="1229" d="M428 1143 L557 1143 L557 641 L907 641 L907 1143 L1036 1143 L1036 0 L907 0 L907 528 L557 528 L557 0 L428 0 L428 1143 Z M104 1143 L264 1143 L209 752 L160 752 L104 1143 Z " />
<glyph glyph-name="Iotatonos" unicode="&#x38a;" horiz-adv-x="1229" d="M375 113 L612 113 L612 1030 L375 1030 L375 1143 L979 1143 L979 1030 L741 1030 L741 113 L979 113 L979 0 L375 0 L375 113 Z M104 1143 L264 1143 L209 752 L160 752 L104 1143 Z " />
<glyph glyph-name="Iotadieresis" unicode="&#x3aa;" horiz-adv-x="1229" d="M272 113 L551 113 L551 1030 L272 1030 L272 1143 L958 1143 L958 1030 L680 1030 L680 113 L958 113 L958 0 L272 0 L272 113 Z M328 1513 L494 1513 L494 1347 L328 1347 L328 1513 Z M739 1513 L905 1513 L905 1347 L739 1347 L739 1513 Z " />
<glyph glyph-name="Omicrontonos" unicode="&#x38c;" horiz-adv-x="1229" d="M696 -20 Q602 -20 535.5 23 Q469 66 427 144.5 Q385 223 365.5 331.5 Q346 440 346 573 Q346 707 366.5 815.5 Q387 924 430 1001.5 Q473 1079 538.5 1122 Q604 1165 694 1165 Q788 1165 855 1122 Q922 1079 964 1000.5 Q1006 922 1025 812 Q1044 702 1044 571 Q1044 438 1024 329.5 Q1004 221 961 143.5 Q918 66 852 23 Q786 -20 696 -20 Z M696 92 Q762 92 805 133 Q848 174 872.5 241.5 Q897 309 906 395 Q915 481 915 571 Q915 664 906 750 Q897 836 872.5 903.5 Q848 971 805 1012 Q762 1053 696 1053 Q629 1053 586 1012 Q543 971 518.5 903.5 Q494 836 484.5 750 Q475 664 475 571 Q475 481 484.5 395 Q494 309 518.5 241.5 Q543 174 586 133 Q629 92 696 92 Z M104 1143 L264 1143 L209 752 L160 752 L104 1143 Z " />
<glyph glyph-name="Upsilontonos" unicode="&#x38e;" horiz-adv-x="1229" d="M666 469 L315 1143 L453 1143 L596 864 L729 586 L860 864 L1001 1143 L1139 1143 L788 463 L788 0 L666 0 L666 469 Z M84 1143 L244 1143 L188 752 L139 752 L84 1143 Z " />
<glyph glyph-name="Upsilondieresis" unicode="&#x3ab;" horiz-adv-x="1229" d="M551 463 L98 1143 L248 1143 L432 864 L618 569 L803 864 L983 1143 L1133 1143 L680 459 L680 0 L551 0 L551 463 Z M328 1513 L494 1513 L494 1347 L328 1347 L328 1513 Z M739 1513 L905 1513 L905 1347 L739 1347 L739 1513 Z " />
<glyph glyph-name="Omegatonos" unicode="&#x38f;" horiz-adv-x="1229" d="M332 109 L524 109 Q496 139 464 186 Q432 233 406.5 300 Q381 367 363.5 452 Q346 537 346 641 Q346 901 438 1033 Q530 1165 696 1165 Q868 1165 956 1031 Q1044 897 1044 641 Q1044 537 1027 452 Q1010 367 984 300 Q958 233 926.5 186 Q895 139 866 109 L1059 109 L1059 0 L762 0 L762 100 Q827 207 871 337 Q915 467 915 641 Q915 729 903 805 Q891 881 865.5 936 Q840 991 798 1023 Q756 1055 696 1055 Q637 1055 595 1023 Q553 991 526.5 936 Q500 881 487.5 805 Q475 729 475 641 Q475 467 519 337 Q563 207 629 100 L629 0 L332 0 L332 109 Z M104 1143 L264 1143 L209 752 L160 752 L104 1143 Z " />
</font>
</svg>
