<?xml version="1.0" encoding="UTF-8" standalone="no"?>
<svg width="30px" height="30px" viewBox="0 0 30 30" version="1.1" xmlns="http://www.w3.org/2000/svg" xmlns:xlink="http://www.w3.org/1999/xlink">
    <!-- Generator: sketchtool 39.1 (31720) - http://www.bohemiancoding.com/sketch -->
    <title>A7DEFE7D-4760-420F-849F-5AA642F3933C</title>
    <desc>Created with sketchtool.</desc>
    <defs></defs>
    <g id="Screens" stroke="none" stroke-width="1" fill="none" fill-rule="evenodd">
        <g id="Desktop-HD-A" transform="translate(-1277.000000, -2974.000000)" fill="#5200CC">
            <path d="M1306.99918,3002.34359 C1306.99918,3003.25801 1306.25801,3004 1305.34359,3004 L1297.69895,3004 L1297.69895,2992.38227 L1301.5985,2992.38227 L1302.18277,2987.85433 L1297.69895,2987.85433 L1297.69895,2984.96399 C1297.69895,2983.65325 1298.06341,2982.76008 1299.94291,2982.76008 L1302.34049,2982.75926 L1302.34049,2978.70936 C1301.92537,2978.65461 1300.50267,2978.53122 1298.84708,2978.53122 C1295.39044,2978.53122 1293.02392,2980.64115 1293.02392,2984.51618 L1293.02392,2987.85433 L1289.11457,2987.85433 L1289.11457,2992.38227 L1293.02392,2992.38227 L1293.02392,3004 L1278.65559,3004 C1277.74117,3004 1277,3003.25801 1277,3002.34359 L1277,2975.65641 C1277,2974.74117 1277.74117,2974 1278.65559,2974 L1305.34359,2974 C1306.25801,2974 1306.99918,2974.74117 1306.99918,2975.65641 L1306.99918,3002.34359" id="Facebook"></path>
        </g>
    </g>
</svg>