<?xml version="1.0" encoding="UTF-8" standalone="no"?>
<svg width="41px" height="27px" viewBox="0 0 41 27" version="1.1" xmlns="http://www.w3.org/2000/svg" xmlns:xlink="http://www.w3.org/1999/xlink">
    <!-- Generator: sketchtool 39.1 (31720) - http://www.bohemiancoding.com/sketch -->
    <title>0BA64C5E-710B-4E9F-9C86-76A361BA4042</title>
    <desc>Created with sketchtool.</desc>
    <defs></defs>
    <g id="Screens" stroke="none" stroke-width="1" fill="none" fill-rule="evenodd">
        <g id="Desktop-HD-A" transform="translate(-1200.000000, -2976.000000)" fill="#5200CC">
            <path d="M1213.0225,2986.4621 L1213.0225,2991.62863 C1213.0225,2991.62863 1218.02545,2991.62152 1220.0626,2991.62152 C1218.95919,2994.97138 1217.24412,2996.79516 1213.0225,2996.79516 C1208.75008,2996.79516 1205.41546,2993.3254 1205.41546,2989.04485 C1205.41546,2984.76532 1208.75008,2981.29557 1213.0225,2981.29557 C1215.28114,2981.29557 1216.74017,2982.09112 1218.07828,2983.19961 C1219.14918,2982.12668 1219.05977,2981.97326 1221.78477,2979.39558 C1219.47127,2977.28528 1216.39675,2976 1213.0225,2976 C1205.83102,2976 1200,2981.84016 1200,2989.04485 C1200,2996.24955 1205.83102,3002.09072 1213.0225,3002.09072 C1223.77214,3002.09072 1226.3996,2992.71375 1225.52886,2986.4621 L1213.0225,2986.4621 Z M1236.4878,2986.72017 L1236.4878,2982.19984 L1233.26494,2982.19984 L1233.26494,2986.72017 L1228.62268,2986.72017 L1228.62268,2989.94912 L1233.26494,2989.94912 L1233.26494,2994.59951 L1236.4878,2994.59951 L1236.4878,2989.94912 L1241,2989.94912 L1241,2986.72017 L1236.4878,2986.72017 Z" id="Google+"></path>
        </g>
    </g>
</svg>