<?xml version="1.0" encoding="UTF-8" standalone="no"?>
<svg width="26px" height="41px" viewBox="0 0 26 41" version="1.1" xmlns="http://www.w3.org/2000/svg" xmlns:xlink="http://www.w3.org/1999/xlink">
    <!-- Generator: sketchtool 3.6.1 (26313) - http://www.bohemiancoding.com/sketch -->
    <title>map-marker</title>
    <desc>Created with sketchtool.</desc>
    <defs></defs>
    <g id="Graphics" stroke="none" stroke-width="1" fill="none" fill-rule="evenodd">
        <g transform="translate(-339.000000, -152.000000)" id="map-marker" fill="#FF2D55">
            <path d="M351.7,152 C344.7,152 339,157.7 339,164.7 C339,169.8 344.1,179.6 348.3,186.8 C349.9,189.5 351,191.3 351,191.3 L351.7,192.4 L352.4,191.3 C352.4,191.3 353.5,189.5 355.1,186.8 C359.3,179.5 364.4,169.8 364.4,164.7 C364.4,157.7 358.7,152 351.7,152 L351.7,152 Z M351.7,172.7 C347.3,172.7 343.7,169.1 343.7,164.7 C343.7,160.3 347.3,156.7 351.7,156.7 C356.1,156.7 359.6,160.3 359.6,164.7 C359.7,169.1 356.1,172.7 351.7,172.7 L351.7,172.7 Z"></path>
        </g>
    </g>
</svg>