<?xml version="1.0" encoding="UTF-8" standalone="no"?>
<svg width="66px" height="49px" viewBox="0 0 66 49" version="1.1" xmlns="http://www.w3.org/2000/svg" xmlns:xlink="http://www.w3.org/1999/xlink">
    <!-- Generator: sketchtool 39.1 (31720) - http://www.bohemiancoding.com/sketch -->
    <title>E779B86B-6C6E-4F5F-9708-F43ED977A42B</title>
    <desc>Created with sketchtool.</desc>
    <defs></defs>
    <g id="Screens" stroke="none" stroke-width="1" fill="none" fill-rule="evenodd">
        <g id="Desktop-HD-A" transform="translate(-72.000000, -2850.000000)" fill="#5200CC">
            <g id="LOGO-/-logotype" transform="translate(69.000000, 2840.000000)">
                <path d="M10.1965305,18.4072965 C10.8678641,18.4072965 11.387197,18.6162965 11.7545305,19.0342965 C12.1218641,19.4522965 12.3055305,19.977963 12.3055305,20.6112965 C12.3055305,21.003963 12.251697,21.3744632 12.1440305,21.7227965 C12.0363641,22.0711297 11.8780305,22.3751297 11.6690305,22.6347965 C11.4600305,22.8944632 11.2003641,23.1002965 10.8900305,23.2522965 C10.5797086,23.4042965 10.2218751,23.4802965 9.81653053,23.4802965 C9.1831973,23.4802965 8.6796973,23.2681297 8.30603053,22.8437965 C7.93236377,22.419465 7.74553053,21.8906317 7.74553053,21.2572965 C7.74553053,20.90263 7.79936377,20.5542965 7.90703053,20.2122965 C8.0146973,19.8702965 8.17303053,19.5662965 8.38203053,19.3002965 C8.59103053,19.0342965 8.84753053,18.818963 9.15153053,18.6542965 C9.45553053,18.48963 9.80386406,18.4072965 10.1965305,18.4072965 L10.1965305,18.4072965 Z M4.70553053,21.3142965 C4.70553053,22.0616297 4.82903053,22.7329632 5.07603053,23.3282965 C5.32303024,23.92363 5.67136348,24.43663 6.12103053,24.8672965 C6.57069614,25.297963 7.10269614,25.6272965 7.71703053,25.8552965 C8.33136377,26.0832965 9.00586377,26.1972965 9.74053053,26.1972965 C10.5765305,26.1972965 11.339697,26.0547965 12.0300305,25.7697965 C12.7203641,25.4847965 13.3125305,25.0857965 13.8065305,24.5727965 C14.3005305,24.0597971 14.6805305,23.4581303 14.9465305,22.7677965 C15.2125305,22.0774641 15.3455305,21.3206309 15.3455305,20.4972965 C15.3455305,19.8132965 15.2283635,19.1767965 14.9940305,18.5877965 C14.7596976,17.9987965 14.4208635,17.488963 13.9775305,17.0582965 C13.534197,16.62763 12.9990305,16.2919635 12.3720305,16.0512965 C11.7450305,15.8106294 11.0325305,15.6902965 10.2345305,15.6902965 C9.36053053,15.6902965 8.58153053,15.8454635 7.89753053,16.1557965 C7.21353053,16.466112 6.63403053,16.8809456 6.15903053,17.4002965 C5.68403053,17.91963 5.32303053,18.51813 5.07603053,19.1957965 C4.82903053,19.873463 4.70553053,20.57963 4.70553053,21.3142965 L4.70553053,21.3142965 Z M21.1405305,15.8612965 L21.4255305,14.2462965 L18.4235305,14.2462965 L18.1385305,15.8612965 L17.2455305,15.8612965 L16.7895305,18.4262965 L17.6825305,18.4262965 L16.9035305,22.8532965 C16.7261972,23.8666297 16.833864,24.6677965 17.2265305,25.2567965 C17.6191969,25.8457965 18.3095305,26.1402965 19.2975305,26.1402965 C19.5635305,26.1402965 19.8231972,26.1244632 20.0765305,26.0927965 C20.3298556,26.0611297 20.5261888,26.0262965 20.6655305,25.9882965 L21.1215305,23.4042965 L20.5135305,23.4042965 C20.0448675,23.4042965 19.8612007,23.1319632 19.9625305,22.5872965 L20.6845305,18.4262965 L21.9955305,18.4262965 L22.4515305,15.8612965 L21.1405305,15.8612965 Z M33.1485304,22.0932965 L32.6545304,15.8612965 L29.6145304,15.8612965 L27.1635304,22.0932965 L26.7835304,15.8612965 L23.7435304,15.8612965 L24.6555304,26.0262965 L28.0185304,26.0262965 L30.4315304,20.2502965 L31.0205304,26.0262965 L34.3835304,26.0262965 L38.5635304,15.8612965 L35.4855304,15.8612965 L33.1485304,22.0932965 Z M38.2025303,22.8532965 C38.2025303,23.3346297 38.2816971,23.7747965 38.4400303,24.1737965 C38.5983636,24.5727965 38.8231968,24.9179632 39.1145303,25.2092965 C39.4058639,25.5006297 39.7510303,25.7286297 40.1500303,25.8932965 C40.5490303,26.0579632 40.9955303,26.1402965 41.4895303,26.1402965 C41.9328636,26.1402965 42.3318636,26.0737965 42.6865303,25.9407965 C43.0411968,25.8077965 43.3071968,25.6399632 43.4845303,25.4372965 L43.3895303,26.0262965 L45.6125303,26.0262965 L46.6955303,19.8132965 C46.8221968,19.0912965 46.8190303,18.4737965 46.6860303,17.9607965 C46.5530303,17.4477965 46.3218639,17.02663 45.9925303,16.6972965 C45.6631968,16.367963 45.2420303,16.1272965 44.7290303,15.9752965 C44.2160303,15.8232965 43.6428639,15.7472965 43.0095303,15.7472965 C42.3635303,15.7472965 41.8125303,15.8422965 41.3565303,16.0322965 C40.9005303,16.2222965 40.5236968,16.4692965 40.2260303,16.7732965 C39.9283639,17.0772965 39.6971968,17.42563 39.5325303,17.8182965 C39.3678641,18.210963 39.2601974,18.6162965 39.2095303,19.0342965 L41.9835303,19.0342965 C42.0088488,18.818963 42.091182,18.619463 42.2305303,18.4357965 C42.3698636,18.25213 42.6105303,18.1602965 42.9525303,18.1602965 C43.6491968,18.1602965 43.9405303,18.52763 43.8265303,19.2622965 L43.7505303,19.7372965 C43.6238639,19.64863 43.4085303,19.5567965 43.1045303,19.4617965 C42.8005303,19.3667965 42.3825303,19.3192965 41.8505303,19.3192965 C41.2551971,19.3192965 40.7295303,19.41113 40.2735303,19.5947965 C39.8175303,19.778463 39.4375303,20.0317965 39.1335303,20.3547965 C38.8295303,20.6777965 38.5983636,21.051463 38.4400303,21.4757965 C38.2816971,21.9001297 38.2025303,22.3592965 38.2025303,22.8532965 L38.2025303,22.8532965 Z M42.2495303,21.4662965 C42.5535303,21.4662965 42.8068636,21.5517965 43.0095303,21.7227965 C43.2121968,21.8937965 43.3135303,22.1312965 43.3135303,22.4352965 C43.3135303,22.8026297 43.1995303,23.1097965 42.9715303,23.3567965 C42.7435303,23.6037965 42.4458636,23.7272965 42.0785303,23.7272965 C41.7491971,23.7272965 41.4895303,23.6322965 41.2995303,23.4422965 C41.1095303,23.2522965 41.0145303,23.0052965 41.0145303,22.7012965 C41.0145303,22.3592965 41.1253636,22.0679632 41.3470303,21.8272965 C41.5686971,21.5866297 41.8695303,21.4662965 42.2495303,21.4662965 L42.2495303,21.4662965 Z M53.4785303,19.0152965 L54.0295303,15.8042965 C53.6621967,15.7789635 53.3170303,15.8264635 52.9940303,15.9467965 C52.6710303,16.0671294 52.3955303,16.2919635 52.1675303,16.6212965 L52.3005303,15.8612965 L49.2985303,15.8612965 L47.5505303,26.0262965 L50.5525303,26.0262965 L51.5785303,20.0602965 C51.6418635,19.654963 51.7685303,19.379463 51.9585303,19.2337965 C52.1485303,19.08813 52.408197,19.0152965 52.7375303,19.0152965 L53.4785303,19.0152965 Z M59.3115302,15.8612965 L59.5965302,14.2462965 L56.5945302,14.2462965 L56.3095302,15.8612965 L55.4165302,15.8612965 L54.9605302,18.4262965 L55.8535302,18.4262965 L55.0745302,22.8532965 C54.8971969,23.8666297 55.0048637,24.6677965 55.3975302,25.2567965 C55.7901967,25.8457965 56.4805302,26.1402965 57.4685302,26.1402965 C57.7345302,26.1402965 57.9941969,26.1244632 58.2475302,26.0927965 C58.5008553,26.0611297 58.6971885,26.0262965 58.8365302,25.9882965 L59.2925302,23.4042965 L58.6845302,23.4042965 C58.2158672,23.4042965 58.0322004,23.1319632 58.1335302,22.5872965 L58.8555302,18.4262965 L60.1665302,18.4262965 L60.6225302,15.8612965 L59.3115302,15.8612965 Z M64.9355301,15.8612965 L61.8195301,15.8612965 L63.9475301,25.4562965 L61.9715301,29.3512965 L64.9925301,29.3512965 L71.9655301,15.8612965 L68.7735301,15.8612965 L66.0185301,21.4472965 L64.9355301,15.8612965 Z M7.15653053,49.0262965 L8.94253053,38.8612965 L5.94053053,38.8612965 L4.17353053,48.8742965 C4.12286377,49.1276297 4.04053053,49.3397965 3.92653053,49.5107965 C3.81253024,49.6817965 3.59086348,49.7672965 3.26153053,49.7672965 L2.78653053,49.7672965 L2.33053053,52.3512965 C2.52053053,52.3639632 2.70103053,52.3702965 2.87203053,52.3702965 L3.43253053,52.3702965 C4.0151973,52.3702965 4.51553053,52.3132965 4.93353053,52.1992965 C5.35153053,52.0852965 5.70619701,51.8952965 5.99753053,51.6292965 C6.28886406,51.3632965 6.52636406,51.01813 6.71003053,50.5937965 C6.8936973,50.169463 7.04253053,49.6469632 7.15653053,49.0262965 L7.15653053,49.0262965 Z M7.76453053,38.4622965 C8.0051973,38.4622965 8.2331973,38.4179635 8.44853053,38.3292965 C8.66385565,38.2406294 8.85068889,38.1171294 9.00903053,37.9587965 C9.1673455,37.8004635 9.2908455,37.6167965 9.37953053,37.4077965 C9.46819701,37.1987965 9.51253053,36.9739635 9.51253053,36.7332965 C9.51253053,36.4926294 9.46819701,36.2646294 9.37953053,36.0492965 C9.29086406,35.8340644 9.16736377,35.6472315 9.00903053,35.4887965 C8.8506973,35.3304635 8.66386377,35.2069635 8.44853053,35.1182965 C8.2331973,35.0296294 8.0051973,34.9852965 7.76453053,34.9852965 C7.52386377,34.9852965 7.29903053,35.0296294 7.09003053,35.1182965 C6.88103053,35.2069635 6.69736406,35.3304635 6.53903053,35.4887965 C6.38069701,35.6471294 6.25719701,35.8339635 6.16853053,36.0492965 C6.07986406,36.2646294 6.03553053,36.4926294 6.03553053,36.7332965 C6.03553053,36.9739635 6.07986406,37.1987965 6.16853053,37.4077965 C6.25719701,37.6167965 6.38069701,37.8004635 6.53903053,37.9587965 C6.69736406,38.1171294 6.88103053,38.2406294 7.09003053,38.3292965 C7.29903053,38.4179635 7.52386377,38.4622965 7.76453053,38.4622965 L7.76453053,38.4622965 Z M9.43653046,45.8532965 C9.43653046,46.3346297 9.51569723,46.7747965 9.67403046,47.1737965 C9.8323637,47.5727965 10.0571969,47.9179632 10.3485305,48.2092965 C10.639864,48.5006297 10.9850305,48.7286297 11.3840305,48.8932965 C11.7830305,49.0579632 12.2295305,49.1402965 12.7235305,49.1402965 C13.1668637,49.1402965 13.5658637,49.0737965 13.9205305,48.9407965 C14.2751969,48.8077965 14.5411969,48.6399632 14.7185305,48.4372965 L14.6235305,49.0262965 L16.8465305,49.0262965 L17.9295305,42.8132965 C18.0561969,42.0912965 18.0530305,41.4737965 17.9200305,40.9607965 C17.7870305,40.4477965 17.555864,40.02663 17.2265305,39.6972965 C16.8971969,39.367963 16.4760305,39.1272965 15.9630305,38.9752965 C15.4500305,38.8232965 14.876864,38.7472965 14.2435305,38.7472965 C13.5975305,38.7472965 13.0465305,38.8422965 12.5905305,39.0322965 C12.1345305,39.2222965 11.7576969,39.4692965 11.4600305,39.7732965 C11.162364,40.0772965 10.9311969,40.42563 10.7665305,40.8182965 C10.6018643,41.210963 10.4941975,41.6162965 10.4435305,42.0342965 L13.2175305,42.0342965 C13.2428489,41.818963 13.3251822,41.619463 13.4645305,41.4357965 C13.6038637,41.25213 13.8445305,41.1602965 14.1865305,41.1602965 C14.8831969,41.1602965 15.1745305,41.52763 15.0605305,42.2622965 L14.9845305,42.7372965 C14.857864,42.64863 14.6425305,42.5567965 14.3385305,42.4617965 C14.0345305,42.3667965 13.6165305,42.3192965 13.0845305,42.3192965 C12.4891972,42.3192965 11.9635305,42.41113 11.5075305,42.5947965 C11.0515305,42.778463 10.6715305,43.0317965 10.3675305,43.3547965 C10.0635305,43.6777965 9.8323637,44.051463 9.67403046,44.4757965 C9.51569723,44.9001297 9.43653046,45.3592965 9.43653046,45.8532965 L9.43653046,45.8532965 Z M13.4835305,44.4662965 C13.7875305,44.4662965 14.0408637,44.5517965 14.2435305,44.7227965 C14.4461969,44.8937965 14.5475305,45.1312965 14.5475305,45.4352965 C14.5475305,45.8026297 14.4335305,46.1097965 14.2055305,46.3567965 C13.9775305,46.6037965 13.6798637,46.7272965 13.3125305,46.7272965 C12.9831972,46.7272965 12.7235305,46.6322965 12.5335305,46.4422965 C12.3435305,46.2522965 12.2485305,46.0052965 12.2485305,45.7012965 C12.2485305,45.3592965 12.3593637,45.0679632 12.5810305,44.8272965 C12.8026972,44.5866297 13.1035305,44.4662965 13.4835305,44.4662965 L13.4835305,44.4662965 Z M22.6225304,46.5562965 L27.3725304,41.1032965 L27.7525304,38.8612965 L20.3995304,38.8612965 L19.9435304,41.3122965 L23.5915304,41.3122965 L18.9935304,46.7842965 L18.6135304,49.0262965 L26.0045304,49.0262965 L26.3655304,46.5562965 L22.6225304,46.5562965 Z M33.5855303,38.6902965 C32.6735303,38.6902965 31.8723636,38.8549635 31.1820303,39.1842965 C30.4916971,39.51363 29.9185303,39.9442965 29.4625303,40.4762965 C29.0065303,41.0082965 28.6645303,41.6162965 28.4365303,42.3002965 C28.2085303,42.9842965 28.0945303,43.6872965 28.0945303,44.4092965 C28.0945303,45.1186297 28.2085303,45.7677965 28.4365303,46.3567965 C28.6645303,46.9457965 28.9780303,47.4492965 29.3770303,47.8672965 C29.7760292,48.2852965 30.2541959,48.6114632 30.8115303,48.8457965 C31.3688618,49.0801297 31.9831951,49.1972965 32.6545303,49.1972965 C33.1991968,49.1972965 33.7121968,49.1181297 34.1935303,48.9597965 C34.6748639,48.8014632 35.0295303,48.5956297 35.2575303,48.3422965 L35.1435303,49.0262965 L37.6895303,49.0262965 L40.1405303,35.1372965 L37.1385303,35.1372965 L36.3595303,39.5262965 C36.1315303,39.3362965 35.7800303,39.1494635 35.3050303,38.9657965 C34.8300303,38.7821294 34.2568639,38.6902965 33.5855303,38.6902965 L33.5855303,38.6902965 Z M33.1675303,46.4612965 C32.8508639,46.4612965 32.5658636,46.4042965 32.3125303,46.2902965 C32.0591971,46.1762965 31.8470303,46.0211297 31.6760303,45.8247965 C31.5050303,45.6284632 31.3720303,45.4004632 31.2770303,45.1407965 C31.1820303,44.8811297 31.1345303,44.5992965 31.1345303,44.2952965 C31.1345303,43.927963 31.1851971,43.57013 31.2865303,43.2217965 C31.3878636,42.873463 31.5430303,42.56313 31.7520303,42.2907965 C31.9610303,42.018463 32.2143636,41.799963 32.5120303,41.6352965 C32.8096968,41.47063 33.1611968,41.3882965 33.5665303,41.3882965 C34.2125303,41.3882965 34.7160303,41.5877965 35.0770303,41.9867965 C35.4380303,42.3857965 35.6185303,42.9272965 35.6185303,43.6112965 C35.6185303,43.9912965 35.5646968,44.3522965 35.4570303,44.6942965 C35.3493639,45.0362965 35.1941968,45.3371297 34.9915303,45.5967965 C34.7888639,45.8564632 34.5323639,46.0654632 34.2220303,46.2237965 C33.9116968,46.3821297 33.5601968,46.4612965 33.1675303,46.4612965 L33.1675303,46.4612965 Z M45.7645303,41.4072965 C46.4358638,41.4072965 46.9551967,41.6162965 47.3225303,42.0342965 C47.6898638,42.4522965 47.8735303,42.977963 47.8735303,43.6112965 C47.8735303,44.003963 47.8196967,44.3744632 47.7120303,44.7227965 C47.6043638,45.0711297 47.4460303,45.3751297 47.2370303,45.6347965 C47.0280303,45.8944632 46.7683638,46.1002965 46.4580303,46.2522965 C46.1477083,46.4042965 45.7898748,46.4802965 45.3845303,46.4802965 C44.751197,46.4802965 44.247697,46.2681297 43.8740303,45.8437965 C43.5003635,45.419465 43.3135303,44.8906317 43.3135303,44.2572965 C43.3135303,43.90263 43.3673635,43.5542965 43.4750303,43.2122965 C43.582697,42.8702965 43.7410303,42.5662965 43.9500303,42.3002965 C44.1590303,42.0342965 44.4155303,41.818963 44.7195303,41.6542965 C45.0235303,41.48963 45.3718638,41.4072965 45.7645303,41.4072965 L45.7645303,41.4072965 Z M40.2735303,44.3142965 C40.2735303,45.0616297 40.3970303,45.7329632 40.6440303,46.3282965 C40.89103,46.92363 41.2393632,47.43663 41.6890303,47.8672965 C42.1386959,48.297963 42.6706959,48.6272965 43.2850303,48.8552965 C43.8993635,49.0832965 44.5738635,49.1972965 45.3085303,49.1972965 C46.1445303,49.1972965 46.9076967,49.0547965 47.5980303,48.7697965 C48.2883638,48.4847965 48.8805303,48.0857965 49.3745303,47.5727965 C49.8685303,47.0597971 50.2485303,46.4581303 50.5145303,45.7677965 C50.7805303,45.0774641 50.9135303,44.3206309 50.9135303,43.4972965 C50.9135303,42.8132965 50.7963632,42.1767965 50.5620303,41.5877965 C50.3276973,40.9987965 49.9888632,40.488963 49.5455303,40.0582965 C49.1021967,39.62763 48.5670303,39.2919635 47.9400303,39.0512965 C47.3130303,38.8106294 46.6005303,38.6902965 45.8025303,38.6902965 C44.9285303,38.6902965 44.1495303,38.8454635 43.4655303,39.1557965 C42.7815303,39.466112 42.2020303,39.8809456 41.7270303,40.4002965 C41.2520303,40.91963 40.8910303,41.51813 40.6440303,42.1957965 C40.3970303,42.873463 40.2735303,43.57963 40.2735303,44.3142965 L40.2735303,44.3142965 Z M49.2605303,35.5742965 L46.4105303,35.5742965 L44.6435303,38.2342965 L47.4555303,38.2342965 L49.2605303,35.5742965 Z M61.6105302,45.0932965 L61.1165302,38.8612965 L58.0765302,38.8612965 L55.6255302,45.0932965 L55.2455302,38.8612965 L52.2055302,38.8612965 L53.1175302,49.0262965 L56.4805302,49.0262965 L58.8935302,43.2502965 L59.4825302,49.0262965 L62.8455302,49.0262965 L67.0255302,38.8612965 L63.9475302,38.8612965 L61.6105302,45.0932965 Z" id="otwarty-jazdów" transform="translate(37.148030, 33.308296) rotate(-10.000000) translate(-37.148030, -33.308296) "></path>
            </g>
        </g>
    </g>
</svg>