<?xml version="1.0" encoding="UTF-8" standalone="no"?>
<svg width="56px" height="58px" viewBox="0 0 56 58" version="1.1" xmlns="http://www.w3.org/2000/svg" xmlns:xlink="http://www.w3.org/1999/xlink">
    <!-- Generator: sketchtool 39.1 (31720) - http://www.bohemiancoding.com/sketch -->
    <title>7BB8A5B3-E1C4-4101-9426-36CB9134DB01</title>
    <desc>Created with sketchtool.</desc>
    <defs></defs>
    <g id="Screens" stroke="none" stroke-width="1" fill="none" fill-rule="evenodd">
        <g id="Desktop-HD-A" transform="translate(-541.000000, -1444.000000)" stroke="#5200CC" stroke-width="4">
            <g id="Page-1" transform="translate(543.000000, 1446.000000)">
                <path d="M44.9912,32.3952 C44.9812,32.4452 44.9612,32.5052 44.9512,32.5552 C43.7412,37.3952 40.9512,41.4252 37.2612,44.2152 C36.4212,42.6352 34.9412,41.4052 33.0712,40.9352 C29.5912,40.0652 26.0612,42.1852 25.1912,45.6652 C24.9612,46.6152 24.9412,47.5752 25.1212,48.4752 C23.2712,48.5252 21.3812,48.3252 19.5012,47.8552 C17.6212,47.3852 15.8512,46.6752 14.2412,45.7652 C14.8212,45.0552 15.2512,44.2052 15.4912,43.2552 C16.3612,39.7652 14.2412,36.2352 10.7612,35.3752 C8.8912,34.9052 7.0112,35.3052 5.5312,36.3052 C3.5812,32.1052 3.0012,27.2352 4.2012,22.3952 C4.2812,22.0652 4.3712,21.7352 4.4712,21.4052 C4.6212,21.4652 4.7712,21.5052 4.9312,21.5452 C8.4112,22.4152 11.9412,20.2952 12.8112,16.8152 C13.3312,14.7152 12.7712,12.6052 11.4812,11.0652 C14.6912,8.5052 18.6112,6.9052 22.7912,6.5452 C22.8112,9.4352 24.7812,12.0652 27.7212,12.8052 C30.7612,13.5652 33.8312,12.0452 35.1412,9.3252 C39.1712,11.6652 42.2512,15.2752 43.9912,19.4752 C41.5212,19.8952 39.4112,21.7352 38.7612,24.3152 C37.8912,27.8052 40.0112,31.3252 43.5012,32.1952 C44.0012,32.3152 44.5012,32.3852 44.9912,32.3952 L44.9912,32.3952 Z" id="Stroke-1"></path>
                <path d="M35.6012,8.0652 C35.4912,8.5052 35.3412,8.9352 35.1412,9.3252 C33.8312,12.0452 30.7612,13.5652 27.7212,12.8052 C24.7812,12.0652 22.8112,9.4352 22.7912,6.5452 C22.7912,6.0052 22.8512,5.4652 22.9912,4.9252 C23.8512,1.4452 27.3812,-0.6748 30.8712,0.1952 C34.3512,1.0552 36.4712,4.5852 35.6012,8.0652 L35.6012,8.0652 Z" id="Stroke-3"></path>
                <path d="M51.3812,27.4652 C50.6312,30.4452 47.9412,32.4352 44.9912,32.3952 C44.5012,32.3852 44.0012,32.3152 43.5012,32.1952 C40.0112,31.3252 37.8912,27.8052 38.7612,24.3152 C39.4112,21.7352 41.5212,19.8952 43.9912,19.4752 C44.8512,19.3352 45.7512,19.3652 46.6412,19.5852 C50.1312,20.4552 52.2512,23.9752 51.3812,27.4652 L51.3812,27.4652 Z" id="Stroke-5"></path>
                <path d="M37.8112,48.8152 C36.9412,52.2952 33.4112,54.4152 29.9312,53.5452 C27.4012,52.9252 25.5912,50.8852 25.1212,48.4752 C24.9412,47.5752 24.9612,46.6152 25.1912,45.6652 C26.0612,42.1852 29.5912,40.0652 33.0712,40.9352 C34.9412,41.4052 36.4212,42.6352 37.2612,44.2152 C37.9712,45.5852 38.2112,47.2052 37.8112,48.8152 L37.8112,48.8152 Z" id="Stroke-7"></path>
                <path d="M15.4912,43.2552 C15.2512,44.2052 14.8212,45.0552 14.2412,45.7652 C12.7012,47.6652 10.1512,48.6152 7.6112,47.9852 C4.1312,47.1152 2.0112,43.5852 2.8812,40.1052 C3.2812,38.4952 4.2612,37.1752 5.5312,36.3052 C7.0112,35.3052 8.8912,34.9052 10.7612,35.3752 C14.2412,36.2352 16.3612,39.7652 15.4912,43.2552 L15.4912,43.2552 Z" id="Stroke-9"></path>
                <path d="M12.8112,16.8152 C11.9412,20.2952 8.4112,22.4152 4.9312,21.5452 C4.7712,21.5052 4.6212,21.4652 4.4712,21.4052 C1.2612,20.3652 -0.6288,16.9952 0.1912,13.6752 C1.0612,10.1852 4.5912,8.0652 8.0712,8.9352 C9.4612,9.2852 10.6312,10.0452 11.4812,11.0652 C12.7712,12.6052 13.3312,14.7152 12.8112,16.8152 L12.8112,16.8152 Z" id="Stroke-11"></path>
            </g>
        </g>
    </g>
</svg>