<?xml version="1.0" encoding="UTF-8" standalone="no"?>
<svg width="30px" height="30px" viewBox="0 0 30 30" version="1.1" xmlns="http://www.w3.org/2000/svg" xmlns:xlink="http://www.w3.org/1999/xlink">
    <!-- Generator: sketchtool 39.1 (31720) - http://www.bohemiancoding.com/sketch -->
    <title>4CD0F3B2-5F7F-4C58-AE28-245DD6471349</title>
    <desc>Created with sketchtool.</desc>
    <defs></defs>
    <g id="Screens" stroke="none" stroke-width="1" fill="none" fill-rule="evenodd">
        <g id="Desktop-HD-A" transform="translate(-1354.000000, -2974.000000)" fill="#5200CC">
            <path d="M1380.43401,2974 L1357.56599,2974 C1355.59643,2974 1354,2975.59234 1354,2977.55781 L1354,3000.44219 C1354,3002.40684 1355.59643,3004 1357.56599,3004 L1380.43401,3004 C1382.40357,3004 1384,3002.40684 1384,3000.44219 L1384,2977.55781 C1384,2975.59234 1382.40357,2974 1380.43401,2974 L1380.43401,2974 Z M1375.56288,2978.68701 C1375.56288,2978.16987 1375.98265,2977.7501 1376.4998,2977.7501 L1379.31217,2977.7501 C1379.83013,2977.7501 1380.2499,2978.16987 1380.2499,2978.68701 L1380.2499,2981.49939 C1380.2499,2982.01735 1379.83013,2982.43712 1379.31217,2982.43712 L1376.4998,2982.43712 C1375.98265,2982.43712 1375.56288,2982.01735 1375.56288,2981.49939 L1375.56288,2978.68701 L1375.56288,2978.68701 Z M1369.03478,2983.27911 C1372.22109,2983.27911 1374.80435,2985.85664 1374.80435,2989.03478 C1374.80435,2992.21373 1372.22109,2994.79044 1369.03478,2994.79044 C1365.84928,2994.79044 1363.26602,2992.21373 1363.26602,2989.03478 C1363.26602,2985.85664 1365.84928,2983.27911 1369.03478,2983.27911 L1369.03478,2983.27911 Z M1381.18763,3000.2499 C1381.18763,3000.76704 1380.76786,3001.18763 1380.2499,3001.18763 L1357.7501,3001.18763 C1357.23214,3001.18763 1356.81237,3000.76704 1356.81237,3000.2499 L1356.81237,2986.18722 L1360.56247,2986.18722 C1360.07397,2986.89011 1359.90868,2988.20178 1359.90868,2989.03478 C1359.90868,2994.05482 1364.00327,2998.1396 1369.03478,2998.1396 C1374.0671,2998.1396 1378.16169,2994.05482 1378.16169,2989.03478 C1378.16169,2988.20178 1378.04304,2986.90975 1377.43753,2986.18722 L1381.18763,2986.18722 L1381.18763,3000.2499 L1381.18763,3000.2499 Z" id="Instagram"></path>
        </g>
    </g>
</svg>