<svg width="54px" xmlns="http://www.w3.org/2000/svg" viewBox="0 0 59.5 60">
  <defs>
    <style>
      .cls-1 {
        fill: #5200cc;
      }
    </style>
  </defs>
  <title>oj-events</title>
  <g>
    <path class="cls-1" d="M43.82,0.2H39.65V7.6H20.25V0.2H16.08V7.6H0.2V60.2H59.7V7.6H43.82V0.2ZM4.37,56V26.64H55.53V56H4.37ZM55.53,11.77V22.4H4.37V11.77H16.08v5h4.17v-5H39.58v5h4.17v-5H55.53Z" transform="translate(-0.2 -0.2)"/>
    <path class="cls-1" d="M16.22,29.66a7.26,7.26,0,1,0,0,14.51A7.18,7.18,0,0,0,23.48,37,7.3,7.3,0,0,0,16.22,29.66Zm0,10.42a3.13,3.13,0,0,1-3.09-3.16,3.18,3.18,0,0,1,3.09-3.16,3.18,3.18,0,0,1,3.09,3.16A3.13,3.13,0,0,1,16.22,40.08Z" transform="translate(-0.2 -0.2)"/>
    <rect class="cls-1" x="10.78" y="47.14" width="10.42" height="4.17"/>
    <rect class="cls-1" x="25.58" y="47.14" width="10.42" height="4.17"/>
    <rect class="cls-1" x="25.58" y="34.71" width="10.42" height="4.17"/>
    <rect class="cls-1" x="40.31" y="47.14" width="10.42" height="4.17"/>
    <rect class="cls-1" x="40.31" y="34.71" width="10.42" height="4.17"/>
  </g>
</svg>
