<?xml version="1.0" encoding="UTF-8" standalone="no"?>
<svg width="46px" height="64px" viewBox="0 0 46 64" version="1.1" xmlns="http://www.w3.org/2000/svg" xmlns:xlink="http://www.w3.org/1999/xlink">
    <!-- Generator: sketchtool 39.1 (31720) - http://www.bohemiancoding.com/sketch -->
    <title>8E128CD3-A03F-48F8-AD49-2904EF5B96ED</title>
    <desc>Created with sketchtool.</desc>
    <defs></defs>
    <g id="Screens" stroke="none" stroke-width="1" fill="none" fill-rule="evenodd">
        <g id="Desktop-HD-A" transform="translate(-71.000000, -856.000000)" fill="#5200CC">
            <g id="LOGO-/-logomark" transform="translate(71.000000, 856.000000)">
                <path d="M42.7591429,24.0982857 L33.8037143,15.1428571 L42.7591429,15.1428571 L42.7591429,24.0982857 Z M37.0682857,56.0234286 C33.3982857,59.6931429 28.5194286,61.7142857 23.3305714,61.7142857 C18.1417143,61.7142857 13.2628571,59.6931429 9.59285714,56.0234286 C5.92314286,52.3534286 3.902,47.4742857 3.902,42.2857143 C3.902,37.0971429 5.92314286,32.2182857 9.59285714,28.548 C12.9917143,25.1491429 17.4285714,23.1642857 22.1877143,22.89 L22.1877143,33.5011429 C20.2551429,33.7488571 18.4685714,34.6228571 17.0682857,36.0231429 C15.3951429,37.6962857 14.4734286,39.9202857 14.4734286,42.2857143 C14.4734286,44.6514286 15.3951429,46.8754286 17.068,48.548 C18.7411429,50.2214286 20.9651429,51.1428571 23.3305714,51.1428571 C25.696,51.1428571 27.92,50.2214286 29.5928571,48.5482857 C30.9934286,47.1477143 31.8674286,45.3611429 32.1151429,43.4285714 L42.7262857,43.4285714 C42.452,48.1877143 40.4674286,52.6242857 37.0682857,56.0234286 L37.0682857,56.0234286 Z M32.1877143,16.7591429 L42.7591429,27.3305714 L42.7591429,39.5265714 L32.1877143,28.9551429 L32.1877143,16.7591429 Z M10.804,7.57142857 L5.51828571,2.28571429 L42.7591429,2.28571429 L42.7591429,12.8571429 L5.51828571,12.8571429 L10.804,7.57142857 Z M0,0 L7.57142857,7.57142857 L0,15.1428571 L29.902,15.1428571 L29.902,29.4285714 L30.2368571,30.2365714 L41.1431429,41.1428571 L29.902,41.1428571 L29.902,42.2857143 C29.902,44.0405714 29.2182857,45.6905714 27.9765714,46.932 C26.7354286,48.1737143 25.0854286,48.8571429 23.3305714,48.8571429 C21.5757143,48.8571429 19.9257143,48.1737143 18.6842857,46.9317143 C17.4428571,45.6905714 16.7591429,44.0405714 16.7591429,42.2857143 C16.7591429,40.5311429 17.4428571,38.8808571 18.6845714,37.6397143 C19.9257143,36.398 21.5757143,35.7142857 23.3305714,35.7142857 L24.4734286,35.7142857 L24.4734286,20.5714286 L23.3305714,20.5714286 C17.5308571,20.5714286 12.0782857,22.8305714 7.97685714,26.932 C3.87514286,31.0337143 1.61628571,36.4865714 1.61628571,42.2857143 C1.61628571,48.0848571 3.87514286,53.5377143 7.97685714,57.6397143 C12.0782857,61.7411429 17.5308571,64 23.3305714,64 C29.1302857,64 34.5828571,61.7411429 38.6842857,57.6397143 C42.786,53.5377143 45.0448571,48.0848571 45.0448571,42.2857143 L45.0448571,41.1428571 L45.0448571,26.8571429 L45.0448571,15.1428571 L45.0448571,14 L45.0448571,0 L0,0 Z" id="OJ-Logo"></path>
            </g>
        </g>
    </g>
</svg>