<svg id="Layer_1" data-name="Layer 1" xmlns="http://www.w3.org/2000/svg" xmlns:xlink="http://www.w3.org/1999/xlink" viewBox="0 0 28.05 226.15">
    <defs>
        <symbol id="house" data-name="house" viewBox="0 0 28.05 20.46">
          <g>
            <polygon points="22.11 8.65 21.39 9.61 17.83 14.37 16.41 16.27 3.66 9.64 0.25 7.87 5.94 0.25 9.36 2.03 22.11 8.65"/>
            <polygon points="16.41 16.27 16.41 20.24 0.25 11.84 0.25 7.87 3.66 9.64 16.41 16.27"/>
            <polygon points="27.8 8.97 22.11 8.65 9.36 2.03 5.94 0.25 11.64 0.56 27.8 8.97"/>
            <polygon points="27.8 8.97 27.8 12.94 22.11 16.59 16.41 20.24 16.41 16.27 17.83 14.37 21.39 9.61 22.11 8.65 27.8 8.97"/>
          </g>
        </symbol>
        <symbol id="embassy" data-name="embassy" viewBox="0 0 18.13 25.23">
          <g>
            <rect x="2.07" y="3.97" width="0.5" height="21.26"/>
            <path d="M2.32,4.64A2.32,2.32,0,1,1,4.64,2.32,2.32,2.32,0,0,1,2.32,4.64Zm0-4.14A1.82,1.82,0,1,0,4.14,2.32,1.82,1.82,0,0,0,2.32.5Z"/>
            <path d="M6.56,15.42V12.9L2.07,14.11V7L13.64,3.91V6.43l4.49-1.21v7.1l-0.19,0Zm0.5-3.17v2.52l10.57-2.83V5.88L13.14,7.09V4.57L2.57,7.39v6.06Z"/>
          </g>
        </symbol>
        <symbol id="hospital" data-name="hospital" viewBox="0 0 14.07 14.08">
          <path d="M9,14.08H5.09V9H0V5.09H5.09V0H9V5.09h5.09V9H9v5.09Zm-3.39-.5H8.48V8.49h5.09V5.59H8.48V0.5H5.59V5.59H0.5v2.9H5.59v5.09Z"/>
        </symbol>
        <symbol id="kindergraden" data-name="kindergraden" viewBox="0 0 20.16 20.16">
          <g>
            <path d="M10.08,20.16A10.08,10.08,0,1,1,20.16,10.08,10.09,10.09,0,0,1,10.08,20.16Zm0-19.66a9.58,9.58,0,1,0,9.58,9.58A9.59,9.59,0,0,0,10.08.5Z"/>
            <circle cx="5.84" cy="8.04" r="0.85"/>
            <circle cx="14.33" cy="8.04" r="0.85"/>
            <path d="M10.09,16.27a6.18,6.18,0,0,1-6-4.87l0.49-.11a5.68,5.68,0,0,0,11.1,0l0.49,0.11A6.2,6.2,0,0,1,10.09,16.27Z"/>
          </g>
        </symbol>
        <symbol id="monument" data-name="monument" viewBox="0 0 15.28 22.92">
          <g>
            <polygon points="0 15.27 7.64 7.63 15.28 15.27 7.64 22.9 0 15.27"/>
            <polygon points="7.65 7.64 0.01 0 15.28 0 7.65 7.64"/>
            <path d="M14.78,0.5V15.07L7.64,22.21,0.51,15.07V0.5H14.78m0.5-.5H0V15.28l7.64,7.64,7.64-7.64V0h0Z"/>
          </g>
        </symbol>
        <symbol id="school" data-name="school" viewBox="0 0 17.05 22.04">
          <g>
            <path d="M8.49,22L8.35,22A18.36,18.36,0,0,1,0,6.93V1L0.39,1.31a5.89,5.89,0,0,0,3.17,1A6.78,6.78,0,0,0,8.32.19L8.5,0,8.68,0.19A6.87,6.87,0,0,0,13.5,2.32a5.88,5.88,0,0,0,3.15-1L17,1V7.17H17A18.36,18.36,0,0,1,8.63,22ZM0.5,2v5a17.85,17.85,0,0,0,8,14.52,17.86,17.86,0,0,0,8-14.53V6.67h0.06V2a6.39,6.39,0,0,1-3,.86,7.39,7.39,0,0,1-5-2.1,7.27,7.27,0,0,1-4.94,2.1A6.4,6.4,0,0,1,.5,2Z"/>
            <path d="M5.35,13.31V7.58L3.73,8.74V7.83L5.36,6.65H6.15V13.3H5.35Z"/>
            <path d="M8.73,13.31v-0.7l2.69-3.32a1.48,1.48,0,0,0,.36-1,1,1,0,0,0-.92-1.07H10.69A1.07,1.07,0,0,0,9.56,8.43H8.73a1.85,1.85,0,0,1,1.75-1.94h0.25a1.93,1.93,0,0,1,1.63.77,1.72,1.72,0,0,1,.31,1,2.19,2.19,0,0,1-.57,1.42L9.73,12.54h3v0.77h-4Z"/>
          </g>
        </symbol>
    </defs>
    <title>oj-map-legend</title>
</svg>
