<svg width="64px" xmlns="http://www.w3.org/2000/svg" viewBox="0 0 64 57">
  <defs>
    <style>
      .cls-1 {
        fill: #5200cc;
      }
    </style>
  </defs>
  <title>oj-partners</title>
  <path class="cls-1" d="M62.63,4.12A8.44,8.44,0,0,0,57.39.25,8.63,8.63,0,0,0,53.92.11a8.54,8.54,0,0,0-6.83,6.33,8.36,8.36,0,0,0,.39,5.3L35,20.83a8.37,8.37,0,0,0-3.44-1.77,8.48,8.48,0,0,0-6.45,1A8.32,8.32,0,0,0,22.88,22l-6.06-2.9a8.48,8.48,0,0,0-6.25-10,8.47,8.47,0,0,0-6.45,1A8.59,8.59,0,0,0,0,17.37a8.5,8.5,0,0,0,6.45,8.18,8.39,8.39,0,0,0,2,.26,8.53,8.53,0,0,0,6.61-3.14l6,2.89A8.23,8.23,0,0,0,21,27.37a8.54,8.54,0,0,0,8.49,8.44,8.4,8.4,0,0,0,2.4-.35l3.85,6.69a8.27,8.27,0,0,0-2.39,4.08A8.77,8.77,0,0,0,33,48.37a8.5,8.5,0,0,0,6.45,8.18,8.33,8.33,0,0,0,2,.26,8.5,8.5,0,0,0,7.64-4.76,8,8,0,0,0,.62-1.69A8.5,8.5,0,0,0,39.17,40.15l-3.85-6.68a8.27,8.27,0,0,0,1.77-2.42,7.49,7.49,0,0,0,.62-1.69h0a8.33,8.33,0,0,0-.4-5.29L49.84,15a8.47,8.47,0,0,0,3.46,1.78,9.29,9.29,0,0,0,1.93.25h0.12a8.48,8.48,0,0,0,8.24-6.44h0A8.43,8.43,0,0,0,62.63,4.12ZM12.87,18.39a4.18,4.18,0,0,1-.32.88,4.34,4.34,0,0,1-1.27,1.57h0a4.44,4.44,0,0,1-3.85.83A4.5,4.5,0,0,1,4,17.35a4.81,4.81,0,0,1,.14-1.14,4.41,4.41,0,0,1,2-2.75,4.47,4.47,0,0,1,2.32-.65A4.15,4.15,0,0,1,9.6,13,4.49,4.49,0,0,1,13,17.24,5,5,0,0,1,12.87,18.39ZM39.23,44.46a4.44,4.44,0,0,1,2-.64h0.26a4.22,4.22,0,0,1,1.11.14,4.48,4.48,0,0,1,3.27,5.44,4.18,4.18,0,0,1-.32.88A4.5,4.5,0,0,1,37,48.35a4.34,4.34,0,0,1,.14-1.14,4.53,4.53,0,0,1,.62-1.4A4.27,4.27,0,0,1,39.23,44.46ZM29.74,31.8a4.83,4.83,0,0,1-1.36-.13A4.5,4.5,0,0,1,25,27.38v0a4.63,4.63,0,0,1,1.73-3.58,3.59,3.59,0,0,1,.45-0.31,4.47,4.47,0,0,1,2.32-.65,4.22,4.22,0,0,1,1.11.14,4,4,0,0,1,1,.37A4.44,4.44,0,0,1,33.33,25a4.54,4.54,0,0,1,.59,1.57,4.77,4.77,0,0,1-.08,1.84,4.84,4.84,0,0,1-.33.88A4.47,4.47,0,0,1,29.74,31.8Zm30-22.22A4.54,4.54,0,0,1,55.3,13a5,5,0,0,1-1-.14,4.61,4.61,0,0,1-1-.37,4.45,4.45,0,0,1-1.79-1.68,4.28,4.28,0,0,1-.58-1.56A4.41,4.41,0,0,1,51,7.41a4.53,4.53,0,0,1,3.61-3.36,6.13,6.13,0,0,1,.74,0,4.67,4.67,0,0,1,1.11.13A4.5,4.5,0,0,1,59.71,9.58Z"/>
</svg>
