<?xml version="1.0" encoding="UTF-8"?>
<svg xmlns="http://www.w3.org/2000/svg" xmlns:xlink="http://www.w3.org/1999/xlink" version="1.2" >
<font id="P 400i">
<font-face  font-family="P" units-per-em="1000" ascent="825" descent="-175" font-style="italic" font-weight="400" font-stretch="normal" slope="-10" cap-height="692" x-height="535" underline-position="-75" underline-thickness="50" />
<missing-glyph  horiz-adv-x="151" d="" />
<glyph glyph-name=".null" d="" />
<glyph glyph-name="nonmarkingreturn" unicode="&#xd;" horiz-adv-x="151" d="" />
<glyph glyph-name="space" unicode="&#x20;" horiz-adv-x="151" d="" />
<glyph glyph-name="exclam" unicode="&#x21;" horiz-adv-x="209" d="M135 173 L227 692 L132 692 L41 173 L135 173 Z M67 -9 C85.6666 -9 101.333 -2.66667 114 10 C126.667 22.6667 133 38.6667 133 58 C133 77.3333 126.833 93.3333 114.5 106 C102.167 118.667 86.3334 125 67 125 C47.6667 125 31.8333 118.667 19.5 106 C7.16667 93.3333 1 77.3333 1 58 C1 38.6667 7.16667 22.6667 19.5 10 C31.8333 -2.66667 47.6667 -9 67 -9 L67 -9 Z " />
<glyph glyph-name="quotedbl" unicode="&#x22;" horiz-adv-x="289" d="M190 692 L104 692 L63 462 L149 462 L190 692 Z M332 692 L246 692 L205 462 L291 462 L332 692 Z " />
<glyph glyph-name="numbersign" unicode="&#x23;" horiz-adv-x="560" d="M382 186 L485 186 L500 267 L410 267 L471 450 L573 450 L587 531 L499 531 L553 692 L464 692 L410 531 L296 531 L350 692 L261 692 L207 531 L105 531 L90 450 L179 450 L118 267 L16 267 L2 186 L90 186 L28 0 L116 0 L179 186 L295 186 L233 0 L320 0 L382 186 Z M206 267 L268 450 L383 450 L322 267 L206 267 Z " />
<glyph glyph-name="dollar" unicode="&#x24;" horiz-adv-x="464" d="M338 697 L350 762 L279 762 L269 704 C238.333 702.667 211.167 696.833 187.5 686.5 C163.833 676.167 144 662.833 128 646.5 C112 630.167 99.8333 611 91.5 589 C83.1667 567 79 544 79 520 C79 476 89.6667 439.333 111 410 C132.333 380.667 163 354 203 330 L158 75 C133.333 84.3333 116 100.5 106 123.5 C96 146.5 91.6667 174 93 206 L6 206 C2.66667 150.667 12.8333 104.833 36.5 68.5 C60.1667 32.1667 96 8.33333 144 -3 L133 -68 L204 -68 L214 -11 C246.667 -10.3333 276 -4.83333 302 5.5 C328 15.8333 350.167 30 368.5 48 C386.833 66 400.833 87 410.5 111 C420.167 135 425 161 425 189 C425 215 421.833 237.833 415.5 257.5 C409.167 277.167 400 295 388 311 C376 327 361.333 341.5 344 354.5 C326.667 367.5 307 380.333 285 393 L325 619 C344.333 609.667 358.333 595.167 367 575.5 C375.667 555.833 380 534.333 380 511 L462 511 C464.667 559.667 455.167 600 433.5 632 C411.833 664 380 685.667 338 697 L338 697 Z M334 184 C334 146 323.667 117.667 303 99 C282.333 80.3333 257 69.3333 227 66 L267 292 C291.667 276 309 260 319 244 C329 228 334 208 334 184 L334 184 Z M166 525 C166 553 173.5 576 188.5 594 C203.5 612 225.667 623 255 627 L221 431 C203 443.667 189.333 457.167 180 471.5 C170.667 485.833 166 503.667 166 525 L166 525 Z " />
<glyph glyph-name="percent" unicode="&#x25;" horiz-adv-x="783" d="M136 0 L771 692 L682 692 L46 0 L136 0 Z M233 628 C258.333 628 278.667 619.833 294 603.5 C309.333 587.167 317 566.667 317 542 C317 512.667 308.167 488 290.5 468 C272.833 448 249 438 219 438 C193.667 438 173.5 446.167 158.5 462.5 C143.5 478.833 136 499 136 523 C136 554.331 145.5 579.664 164.5 599 C183.5 618.333 206.333 628 233 628 L233 628 Z M59 523 C59 501 62.6667 480.5 70 461.5 C77.3333 442.5 88 426 102 412 C116 398 132.833 387 152.5 379 C172.167 371 194.333 367 219 367 C243.667 367 266.667 371.5 288 380.5 C309.333 389.5 327.833 402 343.5 418 C359.167 434 371.5 452.667 380.5 474 C389.5 495.333 394 518.333 394 543 C394 565 390.333 585.5 383 604.5 C375.667 623.5 365 640 351 654 C337 668 320 679 300 687 C280 695 257.667 699 233 699 C207 699 183.333 694 162 684 C140.667 674 122.333 660.833 107 644.5 C91.6667 628.167 79.8334 609.5 71.5 588.5 C63.1667 567.5 59 545.667 59 523 L59 523 Z M591 255 C617 255 637.5 246.833 652.5 230.5 C667.5 214.167 675 193.667 675 169 C675 139.667 666.167 115 648.5 95 C630.833 75 607 65 577 65 C551.667 65 531.5 73.1667 516.5 89.5 C501.5 105.833 494 126.333 494 151 C494 181.667 503.5 206.667 522.5 226 C541.5 245.333 564.333 255 591 255 L591 255 Z M418 151 C418 128.333 421.667 107.5 429 88.5 C436.333 69.5 446.833 53 460.5 39 C474.166 25 490.832 14 510.5 6 C530.167 -2 552.333 -6 577 -6 C601.667 -6 624.833 -1.5 646.5 7.5 C668.167 16.5 686.833 29 702.5 45 C718.167 61 730.5 79.6667 739.5 101 C748.5 122.333 753 145.333 753 170 C753 192 749.333 212.5 742 231.5 C734.667 250.5 724 267 710 281 C696 295 679 306 659 314 C639 322 616.333 326 591 326 C565.667 326 542.333 321 521 311 C499.668 301 481.334 287.833 466 271.5 C450.668 255.167 438.835 236.5 430.5 215.5 C422.167 194.5 418 173 418 151 L418 151 Z " />
<glyph glyph-name="ampersand" unicode="&#x26;" horiz-adv-x="625" d="M494 529 C494 553.667 489.833 576.667 481.5 598 C473.167 619.333 461.167 637.833 445.5 653.5 C429.833 669.167 410.5 681.333 387.5 690 C364.5 698.667 338.667 703 310 703 C278.667 703 250.833 697.5 226.5 686.5 C202.167 675.5 181.667 661 165 643 C148.333 625 135.667 604.5 127 581.5 C118.333 558.5 114 535 114 511 C114 467.667 130.333 428 163 392 C119 375.333 83.3333 349.833 56 315.5 C28.6667 281.167 15 240 15 192 C15 162.667 20.5 135.5 31.5 110.5 C42.5 85.5 58.3333 64 79 46 C99.6667 28 125.167 14 155.5 4 C185.833 -6 220.333 -11 259 -11 C296.333 -11 330.167 -5.16667 360.5 6.5 C390.833 18.1667 417.667 34.6667 441 56 L487 0 L596 0 L504 115 C528.667 149 548.833 188.667 564.5 234 C580.167 279.333 590.333 325 595 371 L506 371 C501.333 339 494.333 307 485 275 C475.667 243 462.667 213.667 446 187 L318 348 L320 348 C344 349.333 366.667 354.5 388 363.5 C409.333 372.5 427.833 384.833 443.5 400.5 C459.167 416.166 471.5 434.833 480.5 456.5 C489.5 478.166 494 502.332 494 529 L494 529 Z M260 75 C215.333 75 180 86.1667 154 108.5 C128 130.833 115 160 115 196 C115 227.333 123.333 255 140 279 C156.667 303 182.333 321 217 333 L387 123 C370.333 107.667 351.5 95.8334 330.5 87.5 C309.5 79.1667 286 75 260 75 L260 75 Z M311 623 C339 623 361.833 614.167 379.5 596.5 C397.167 578.833 406 556 406 528 C406 495.333 396.333 469.167 377 449.5 C357.667 429.833 332 420 300 420 C272 420 249.167 428.833 231.5 446.5 C213.833 464.166 205 486.332 205 513 C205 545 214.833 571.333 234.5 592 C254.167 612.667 279.667 623 311 623 L311 623 Z " />
<glyph glyph-name="quotesingle" unicode="&#x27;" horiz-adv-x="146" d="M190 692 L104 692 L63 462 L149 462 L190 692 Z " />
<glyph glyph-name="parenleft" unicode="&#x28;" horiz-adv-x="248" d="M113 621 L1 -14 C-7.66667 -64 -1.33333 -103 20 -131 C41.3333 -159 79.3333 -173.667 134 -175 L152 -175 L166 -93 L144 -93 C119.333 -91.6667 103 -84.8333 95 -72.5 C87 -60.1667 85.6667 -40.6667 91 -14 L203 620 C207.667 647.333 215.167 666.333 225.5 677 C235.833 687.667 254.666 693 282 693 L306 693 L320 775 L291 775 C264.333 775.667 241 773.833 221 769.5 C201 765.167 184 757.167 170 745.5 C156 733.833 144.333 717.833 135 697.5 C125.667 677.167 118.334 651.667 113 621 L113 621 Z " />
<glyph glyph-name="parenright" unicode="&#x29;" horiz-adv-x="249" d="M145 -21 L257 614 C265.669 664 259.335 703 238 731 C216.667 759 178.667 773.667 124 775 L106 775 L92 693 L114 693 C139.333 691.667 155.833 684.833 163.5 672.5 C171.167 660.167 172.333 640.667 167 614 L56 -21 C53.3333 -34.3333 50.3333 -45.6667 47 -55 C43.6667 -64.3333 39 -71.8333 33 -77.5 C27 -83.1667 19.5 -87.1667 10.5 -89.5 C1.5 -91.8333 -9.66667 -93 -23 -93 L-48 -93 L-62 -175 L-32 -175 C-5.33333 -175.665 17.8333 -173.832 37.5 -169.5 C57.1667 -165.167 74 -157.167 88 -145.5 C102 -133.833 113.667 -118 123 -98 C132.333 -78 139.667 -52.3333 145 -21 L145 -21 Z " />
<glyph glyph-name="asterisk" unicode="&#x2a;" horiz-adv-x="384" d="M260 464 L352 402 L391 456 L300 518 L407 575 L379 630 L280 578 L300 692 L232 692 L212 579 L123 641 L84 585 L175 523 L67 466 L94 410 L193 462 L174 350 L240 350 L260 464 Z " />
<glyph glyph-name="plus" unicode="&#x2b;" horiz-adv-x="479" d="M287 297 L449 297 L463 377 L301 377 L331 546 L247 546 L217 377 L56 377 L42 297 L203 297 L174 127 L258 127 L287 297 Z " />
<glyph glyph-name="comma" unicode="&#x2c;" horiz-adv-x="180" d="M33 -109 L94 -9 C102 3.66667 108.5 15.3333 113.5 26 C118.5 36.6667 121 48.3333 121 61 C121 79 114.833 94.1667 102.5 106.5 C90.1667 118.833 74.3334 125 55 125 C35.6667 125 19.6667 118.833 7 106.5 C-5.66667 94.1667 -12 78.3334 -12 59 C-11.3333 44.3333 -7 31.6667 1 21 C9 10.3333 20 3 34 -1 L-34 -109 L33 -109 Z " />
<glyph glyph-name="hyphen" unicode="&#x2d;" horiz-adv-x="273" d="M45 331 L29 241 L238 241 L254 331 L45 331 Z " />
<glyph glyph-name="period" unicode="&#x2e;" horiz-adv-x="180" d="M55 -9 C73.6666 -9 89.3333 -2.66667 102 10 C114.667 22.6667 121 38.6667 121 58 C121 77.3333 114.833 93.3333 102.5 106 C90.1667 118.667 74.3334 125 55 125 C35.6667 125 19.8333 118.667 7.5 106 C-4.83333 93.3333 -11 77.3333 -11 58 C-11 38.6667 -4.83333 22.6667 7.5 10 C19.8333 -2.66667 35.6667 -9 55 -9 L55 -9 Z " />
<glyph glyph-name="slash" unicode="&#x2f;" horiz-adv-x="457" d="M16 -175 L510 731 L418 731 L-75 -175 L16 -175 Z " />
<glyph glyph-name="zero" unicode="0" horiz-adv-x="507" d="M406 481 L357 207 C353.669 188.333 348.836 171 342.5 155 C336.167 139 328 125.167 318 113.5 C308 101.833 295.833 92.6667 281.5 86 C267.167 79.3333 250.333 76 231 76 C193 76 164.833 87.6667 146.5 111 C128.167 134.333 122.667 166 130 206 L179 486 C182.333 504.667 186.833 522 192.5 538 C198.167 554 205.833 567.667 215.5 579 C225.167 590.333 237.167 599.333 251.5 606 C265.833 612.667 283 616 303 616 C341 616 369 603.833 387 579.5 C405 555.167 411.333 522.333 406 481 L406 481 Z M453 206 L501 481 C506.333 511.667 506 540.667 500 568 C494 595.333 482.667 619.333 466 640 C449.333 660.667 427.333 676.833 400 688.5 C372.667 700.167 340.667 706 304 706 C270 706 240.333 700.667 215 690 C189.667 679.333 168.167 664.333 150.5 645 C132.833 625.667 118.667 602.667 108 576 C97.3333 549.333 89 520.333 83 489 L34 208 C28.6667 177.333 28.6667 148.667 34 122 C39.3333 95.3333 50 72 66 52 C82 32 103.667 16.1667 131 4.5 C158.333 -7.16667 191.333 -13 230 -13 C294.667 -13 345 6 381 44 C417 82 441 136 453 206 L453 206 Z " />
<glyph glyph-name="one" unicode="1" horiz-adv-x="225" d="M125 0 L247 692 L158 692 L77 659 L60 566 L134 592 L29 0 L125 0 Z " />
<glyph glyph-name="two" unicode="2" horiz-adv-x="460" d="M-16 0 L400 0 L415 88 L124 88 L338 291 C358 309.667 376.167 327.667 392.5 345 C408.833 362.333 422.833 380 434.5 398 C446.167 416 455 435.167 461 455.5 C467 475.833 470 498 470 522 C470 548 465.833 572.167 457.5 594.5 C449.168 616.833 436.835 636.333 420.5 653 C404.167 669.667 383.667 682.667 359 692 C334.333 701.333 306 706 274 706 C236.667 706 205.167 699.833 179.5 687.5 C153.833 675.167 132.833 659 116.5 639 C100.167 619 88 596.667 80 572 C72 547.333 67 523 65 499 L159 499 C161 511.667 163.833 525 167.5 539 C171.167 553 177.167 565.5 185.5 576.5 C193.833 587.5 205 596.667 219 604 C233 611.333 251 615 273 615 C304.333 615 328 605.667 344 587 C360 568.333 368 545 368 517 C368 499.667 365.833 484.167 361.5 470.5 C357.167 456.833 350.667 443.5 342 430.5 C333.333 417.5 322.5 404.167 309.5 390.5 C296.5 376.833 281.333 361.667 264 345 L-2 87 L-16 0 Z " />
<glyph glyph-name="three" unicode="3" horiz-adv-x="465" d="M154 399 L140 321 L207 321 C247.667 321 279.5 311.333 302.5 292 C325.5 272.667 337 243.667 337 205 C337 163.667 325.333 131.833 302 109.5 C278.667 87.1667 249 76 213 76 C175 76 146.333 86.6667 127 108 C107.667 129.333 97.3334 158 96 194 L2 194 C0.666672 129.333 18.6667 78.6667 56 42 C93.3333 5.33333 145.667 -13 213 -13 C243.667 -13 272.667 -7.83333 300 2.5 C327.333 12.8333 351.167 27.5 371.5 46.5 C391.833 65.5 407.833 88.8333 419.5 116.5 C431.167 144.167 437 175 437 209 C437 241.667 431.833 269.667 421.5 293 C411.168 316.333 397.835 335.667 381.5 351 C365.167 366.333 346.667 378 326 386 C305.333 394 284.667 399 264 401 L473 601 L488 692 L106 692 L89 604 L357 604 L154 399 Z " />
<glyph glyph-name="four" unicode="4" horiz-adv-x="514" d="M413 220 L493 220 L507 306 L428 306 L496 692 L403 692 L27 303 L12 220 L319 220 L280 0 L374 0 L413 220 Z M135 306 L378 557 L334 306 L135 306 Z " />
<glyph glyph-name="five" unicode="5" horiz-adv-x="471" d="M114 194 L19 194 C16.3333 168.667 17.5 143.5 22.5 118.5 C27.5 93.5 37.3333 71.3333 52 52 C66.6667 32.6667 87.1667 17 113.5 5 C139.833 -7 173 -13 213 -13 C241.667 -13 268.167 -9.16666 292.5 -1.5 C316.833 6.16667 338.5 18.3333 357.5 35 C376.5 51.6667 392.667 73.3333 406 100 C419.333 126.667 429 159 435 197 C435.665 199.667 436.332 203.667 437 209 C437.663 214.333 438.33 219.833 439 225.5 C439.666 231.167 440.332 236.667 441 242 C441.667 247.333 442 251.333 442 254 C448.667 314.666 437.5 362.833 408.5 398.5 C379.5 434.167 335.667 452 277 452 C247 452 222.5 447.5 203.5 438.5 C184.5 429.5 171.333 421.333 164 414 L198 604 L464 604 L479 692 L120 692 L52 307 L146 307 C149.333 313 153.833 319.167 159.5 325.5 C165.167 331.833 172.167 337.833 180.5 343.5 C188.833 349.164 198.666 353.831 210 357.5 C221.333 361.167 234.333 363 249 363 C286.333 363 312.833 352 328.5 330 C344.164 308 349.331 278.333 344 241 C344 240.333 343.667 238.333 343 235 C342.333 231.667 341.667 228 341 224 C340.333 220 339.667 216.167 339 212.5 C338.333 208.833 338 206 338 204 C330.667 161.333 317 129.5 297 108.5 C277 87.5 249 77 213 77 C193 77 176.333 80 163 86 C149.667 92 139.167 100.333 131.5 111 C123.833 121.667 118.667 134.167 116 148.5 C113.333 162.833 112.667 178 114 194 L114 194 Z " />
<glyph glyph-name="six" unicode="6" horiz-adv-x="492" d="M453 200 L461 251 C465.681 283 464.848 312 458.5 338 C452.167 364 441.333 386.167 426 404.5 C410.667 422.833 391.334 436.833 368 446.5 C344.667 456.167 318 461 288 461 C270.667 461 255.167 459.333 241.5 456 C227.833 452.667 215.833 448.5 205.5 443.5 C195.167 438.5 186.5 433.333 179.5 428 C172.5 422.67 167.333 418.337 164 415 L175 476 C179 495.999 184.167 514.666 190.5 532 C196.833 549.331 205.5 564.165 216.5 576.5 C227.5 588.833 241 598.5 257 605.5 C273 612.5 292.667 616 316 616 C346.667 616 370.667 609.333 388 596 C405.333 582.667 418 569 426 555 L502 603 C496.667 614.333 489.167 626 479.5 638 C469.833 650 457.667 661 443 671 C428.333 681 410.5 689.333 389.5 696 C368.5 702.667 344 706 316 706 C278.667 706 246.333 699.833 219 687.5 C191.667 675.167 168.5 658.5 149.5 637.5 C130.5 616.5 115.333 591.833 104 563.5 C92.6667 535.167 84 505 78 473 L32 212 C26 180 26.3333 150.167 33 122.5 C39.6667 94.8333 51.8333 71 69.5 51 C87.1667 31 109.5 15.3333 136.5 4 C163.5 -7.33333 194.667 -13 230 -13 C294 -13 344.5 5.83333 381.5 43.5 C418.5 81.1667 442.333 133.333 453 200 L453 200 Z M364 249 L357 206 C350.333 166.667 337.333 135.167 318 111.5 C298.667 87.8333 269.334 76 230 76 C212 76 195.833 79.3333 181.5 86 C167.167 92.6667 155.333 101.667 146 113 C136.667 124.333 130.333 138 127 154 C123.667 170 123.667 187.333 127 206 L136 255 C142 289 155.333 317.333 176 340 C196.667 362.667 226 374 264 374 C300 374 327.167 363.167 345.5 341.5 C363.833 319.833 370 289 364 249 L364 249 Z " />
<glyph glyph-name="seven" unicode="7" horiz-adv-x="431" d="M131 0 L470 621 L483 692 L80 692 L64 604 L355 604 L26 0 L131 0 Z " />
<glyph glyph-name="eight" unicode="8" horiz-adv-x="490" d="M290 619 C321.333 619 346.833 610 366.5 592 C386.167 574 396 549 396 517 C396 480.333 385.5 451.667 364.5 431 C343.5 410.333 316 400 282 400 C250.667 400 225 409.5 205 428.5 C185 447.5 175 471.667 175 501 C175 536.333 185.333 564.833 206 586.5 C226.667 608.167 254.667 619 290 619 L290 619 Z M78 504 C78 486.667 80.1667 471 84.5 457 C88.8333 443 94.1667 430.5 100.5 419.5 C106.833 408.5 113.667 399.167 121 391.5 C128.333 383.833 135 377.667 141 373 C123.667 365.667 107.5 356.167 92.5 344.5 C77.5 332.833 64.1667 318.833 52.5 302.5 C40.8333 286.167 31.6667 267.834 25 247.5 C18.3333 227.167 15 204.667 15 180 C15 153.333 19.8333 128.333 29.5 105 C39.1667 81.6667 53.3333 61.1667 72 43.5 C90.6667 25.8333 113.667 12 141 2 C168.333 -8 199.333 -13 234 -13 C270.667 -13 303.167 -7.16667 331.5 4.5 C359.833 16.1667 383.333 31.8333 402 51.5 C420.665 71.1667 434.832 93.8333 444.5 119.5 C454.167 145.167 459 172 459 200 C459 220.667 456.5 239.167 451.5 255.5 C446.5 271.833 440.333 286 433 298 C425.668 310 417.335 320.333 408 329 C398.667 337.667 389.667 345 381 351 C394.333 355.665 407.667 362.832 421 372.5 C434.333 382.167 446.5 394 457.5 408 C468.5 422 477.333 438.333 484 457 C490.667 475.667 494 497 494 521 C494 547.667 489.333 572.333 480 595 C470.667 617.667 457.167 637.333 439.5 654 C421.833 670.667 400.167 683.5 374.5 692.5 C348.833 701.5 320 706 288 706 C255.333 706 226 700.5 200 689.5 C174 678.5 152 663.667 134 645 C116 626.333 102.167 604.833 92.5 580.5 C82.8333 556.167 78 530.667 78 504 L78 504 Z M241 315 C279 315 308.5 304.5 329.5 283.5 C350.5 262.5 360.667 234.333 360 199 C359.333 161 347.333 130.667 324 108 C300.667 85.3333 270.667 74 234 74 C214.667 74 197.667 77 183 83 C168.333 89 155.833 97.1667 145.5 107.5 C135.167 117.833 127.333 129.667 122 143 C116.667 156.333 114 170.333 114 185 C114 224.333 126 255.833 150 279.5 C174 303.167 204.333 315 241 315 L241 315 Z " />
<glyph glyph-name="nine" unicode="9" horiz-adv-x="494" d="M68 491 L61 443 C56.3329 411 57.1662 382 63.5 356 C69.8333 330 81 307.833 97 289.5 C113 271.167 133.333 257 158 247 C182.667 237 210.667 232 242 232 C272 232 297 237.167 317 247.5 C337 257.833 350.667 268.333 358 279 L347 216 C343.667 196 339 177.5 333 160.5 C327 143.5 318.667 128.833 308 116.5 C297.333 104.167 284.167 94.5 268.5 87.5 C252.834 80.5 233.667 77 211 77 C194.333 77 179.833 78.8333 167.5 82.5 C155.167 86.1667 144.5 91 135.5 97 C126.5 103 118.667 109.667 112 117 C105.333 124.333 99.6667 131.667 95 139 L21 86 C27 74.6667 35 63.1667 45 51.5 C55 39.8333 67.6667 29.3333 83 20 C98.3333 10.6667 116.5 2.83333 137.5 -3.5 C158.5 -9.83334 183 -13 211 -13 C249 -13 281.5 -7.33333 308.5 4 C335.5 15.3333 358 31.1667 376 51.5 C394 71.8333 408.333 96.1667 419 124.5 C429.667 152.833 438 184.333 444 219 L490 482 C496 515.332 495.5 545.666 488.5 573 C481.5 600.333 469.167 623.833 451.5 643.5 C433.833 663.167 411.5 678.5 384.5 689.5 C357.5 700.5 326.667 706 292 706 C259.333 706 230.167 700.833 204.5 690.5 C178.833 680.167 156.667 665.667 138 647 C119.333 628.333 104.167 605.833 92.5 579.5 C80.8333 553.167 72.6667 523.667 68 491 L68 491 Z M158 446 L165 487 C171.667 525.667 184.333 556.833 203 580.5 C221.667 604.167 251 616 291 616 C328.333 616 356.667 604 376 580 C395.333 556 401.667 525 395 487 L386 438 C380 404 367 375.5 347 352.5 C327 329.5 297.667 318 259 318 C223 318 195.5 329.167 176.5 351.5 C157.5 373.833 151.333 405.333 158 446 L158 446 Z " />
<glyph glyph-name="colon" unicode="&#x3a;" horiz-adv-x="185" d="M117 341 C135.667 341 151.333 347.333 164 360 C176.667 372.667 183 388.667 183 408 C183 427.333 176.833 443.333 164.5 456 C152.167 468.667 136.333 475 117 475 C97.6667 475 81.8334 468.667 69.5 456 C57.1667 443.333 51 427.333 51 408 C51 388.667 57.1667 372.667 69.5 360 C81.8333 347.333 97.6667 341 117 341 L117 341 Z M55 -9 C73.6666 -9 89.3333 -2.66667 102 10 C114.667 22.6667 121 38.6667 121 58 C121 77.3333 114.833 93.3333 102.5 106 C90.1667 118.667 74.3334 125 55 125 C35.6667 125 19.8333 118.667 7.5 106 C-4.83333 93.3333 -11 77.3333 -11 58 C-11 38.6667 -4.83333 22.6667 7.5 10 C19.8333 -2.66667 35.6667 -9 55 -9 L55 -9 Z " />
<glyph glyph-name="semicolon" unicode="&#x3b;" horiz-adv-x="185" d="M35 -109 L96 -9 C104 3.66667 110.5 15.3333 115.5 26 C120.5 36.6667 123 48.3333 123 61 C123 79 116.833 94.1667 104.5 106.5 C92.1667 118.833 76.3334 125 57 125 C37.6667 125 21.6667 118.833 9 106.5 C-3.66667 94.1667 -10 78.3334 -10 59 C-9.33333 44.3333 -5 31.6667 3 21 C11 10.3333 22 3 36 -1 L-32 -109 L35 -109 Z M118 340 C136.667 340 152.333 346.333 165 359 C177.667 371.667 184 387.667 184 407 C184 426.333 177.833 442.333 165.5 455 C153.167 467.667 137.333 474 118 474 C98.6667 474 82.8334 467.667 70.5 455 C58.1667 442.333 52 426.333 52 407 C52 387.667 58.1667 371.667 70.5 359 C82.8333 346.333 98.6667 340 118 340 L118 340 Z " />
<glyph glyph-name="less" unicode="&#x3c;" horiz-adv-x="427" d="M54 381 L39 296 L365 131 L380 211 L134 336 L421 455 L437 545 L54 381 Z " />
<glyph glyph-name="equal" unicode="&#x3d;" horiz-adv-x="480" d="M70 449 L56 372 L462 372 L476 449 L70 449 Z M42 292 L28 215 L434 215 L449 292 L42 292 Z " />
<glyph glyph-name="greater" unicode="&#x3e;" horiz-adv-x="427" d="M401 296 L416 380 L90 545 L76 466 L323 343 L33 222 L16 131 L401 296 Z " />
<glyph glyph-name="question" unicode="&#x3f;" horiz-adv-x="459" d="M256 174 L282 324 C311.333 324.667 338 330.167 362 340.5 C386 350.833 406.333 364.667 423 382 C439.667 399.333 452.5 419.833 461.5 443.5 C470.5 467.167 475 492.667 475 520 C475 546 470.833 570.167 462.5 592.5 C454.167 614.832 441.667 634.165 425 650.5 C408.333 666.833 388 679.666 364 689 C340 698.333 312 703 280 703 C238.667 703 204.333 695.5 177 680.5 C149.667 665.5 127.833 647.167 111.5 625.5 C95.1667 603.833 83.6667 581 77 557 C70.3333 533 66.6667 512 66 494 L159 494 C159.667 506 162 519.333 166 534 C170 548.667 176.5 562.333 185.5 575 C194.5 587.667 206.333 598.167 221 606.5 C235.667 614.833 254.667 619 278 619 C309.333 619 334 609.667 352 591 C370 572.333 379 548 379 518 C379 476 367.333 445.167 344 425.5 C320.667 405.833 290.667 396 254 396 L201 396 L162 174 L256 174 Z M188 -9 C206.667 -9 222.333 -2.66667 235 10 C247.667 22.6667 254 38.6667 254 58 C254 77.3333 247.833 93.3333 235.5 106 C223.167 118.667 207.333 125 188 125 C168.667 125 152.833 118.667 140.5 106 C128.167 93.3333 122 77.3333 122 58 C122 38.6667 128.167 22.6667 140.5 10 C152.833 -2.66667 168.667 -9 188 -9 L188 -9 Z " />
<glyph glyph-name="at" unicode="&#x40;" horiz-adv-x="950" d="M479 416 C511 416 537.667 406.5 559 387.5 C580.333 368.5 592.333 342.333 595 309 C596.352 285.667 593.685 264.334 587 245 C580.334 225.667 570.667 209.167 558 195.5 C545.333 181.833 530.333 171.333 513 164 C495.667 156.667 477 153 457 153 C439.667 153 424.334 156 411 162 C397.667 168 386.334 176.333 377 187 C367.667 197.667 360.5 209.667 355.5 223 C350.5 236.333 348 250.666 348 266 C347.333 285.333 350 304 356 322 C362 340 370.833 356 382.5 370 C394.167 384 408.167 395.167 424.5 403.5 C440.833 411.833 459 416 479 416 L479 416 Z M720 73 C748 73 775 79.3333 801 92 C827 104.667 850 122.833 870 146.5 C890 170.167 906 199.167 918 233.5 C930 267.833 936 306.667 936 350 C936 404.667 926 455.5 906 502.5 C886 549.5 857.167 590.333 819.5 625 C781.835 659.667 735.668 687 681 707 C626.333 727 564.333 737 495 737 C427 737 364.667 725.333 308 702 C251.333 678.667 202.667 646.333 162 605 C121.333 563.667 89.6667 515 67 459 C44.3333 403 33 342.333 33 277 C33 215 43.8333 157.167 65.5 103.5 C87.1666 49.8333 118.667 3.33333 160 -36 C201.333 -75.3333 251.833 -106.167 311.5 -128.5 C371.167 -150.833 438.667 -162 514 -162 C548.667 -162 581.5 -158.667 612.5 -152 C643.5 -145.333 672.167 -136.667 698.5 -126 C724.833 -115.333 748.5 -103 769.5 -89 C790.5 -75 808.333 -60.6667 823 -46 L778 10 C746 -18 708.167 -41 664.5 -59 C620.833 -77 571.333 -86 516 -86 C457.333 -86 403.667 -77.5 355 -60.5 C306.333 -43.5 264.667 -19.1667 230 12.5 C195.333 44.1667 168.5 82.5 149.5 127.5 C130.5 172.5 121 223 121 279 C121 329.667 129.333 378.167 146 424.5 C162.667 470.833 187 511.667 219 547 C251 582.333 290 610.333 336 631 C382 651.667 434 662 492 662 C546.667 662 596 654.833 640 640.5 C684 626.167 721.667 605.5 753 578.5 C784.333 551.5 808.5 518.667 825.5 480 C842.5 441.333 851 398 851 350 C851 321.333 847.833 294.667 841.5 270 C835.167 245.333 826.333 224 815 206 C803.667 188 790 173.833 774 163.5 C758 153.167 740.667 148 722 148 C698.667 148 683.333 154.833 676 168.5 C668.667 182.167 667 200.333 671 223 L717 490 L634 490 L623 428 C611.667 447.333 593.833 463.667 569.5 477 C545.167 490.333 515.333 497 480 497 C446.667 497 416.334 490.667 389 478 C361.667 465.333 338.333 448.167 319 426.5 C299.667 404.833 284.667 379.833 274 351.5 C263.333 323.167 258 293 258 261 C258 231.667 263 205.5 273 182.5 C283 159.5 296.667 139.667 314 123 C331.333 106.333 351.833 93.6667 375.5 85 C399.167 76.3333 425 72 453 72 C472.333 72 490.167 74.1667 506.5 78.5 C522.833 82.8333 537.5 88.3333 550.5 95 C563.5 101.667 574.833 109 584.5 117 C594.167 125 602 133 608 141 C610 133.667 613.5 126 618.5 118 C623.5 110 630.5 102.667 639.5 96 C648.5 89.3333 659.5 83.8333 672.5 79.5 C685.5 75.1667 701.333 73 720 73 L720 73 Z " />
<glyph glyph-name="A" unicode="A" horiz-adv-x="620" d="M430 229 L479 0 L576 0 L426 692 L327 692 L-43 0 L56 0 L178 229 L430 229 Z M222 312 L358 568 L412 312 L222 312 Z " />
<glyph glyph-name="B" unicode="B" horiz-adv-x="471" d="M436 216 C436 253.333 428.667 283.667 414 307 C399.333 330.333 381 347.667 359 359 C390.333 372.333 415.833 392.667 435.5 420 C455.167 447.333 465 481.667 465 523 C465 577 448.833 618.667 416.5 648 C384.167 677.333 339 692 281 692 L128 692 L6 0 L195 0 C231.667 0 265 5 295 15 C325 25 350.333 39.3333 371 58 C391.667 76.6666 407.667 99.3333 419 126 C430.333 152.667 436 182.667 436 216 L436 216 Z M157 315 L234 315 C270 315 296 305.5 312 286.5 C328 267.5 336 243.667 336 215 C336 174.333 323.833 142.667 299.5 120 C275.167 97.3333 241.333 86 198 86 L117 86 L157 315 Z M208 607 L270 607 C302.666 607 326.833 598.833 342.5 582.5 C358.167 566.167 366 544 366 516 C366 478 355 448.833 333 428.5 C311 408.167 281.333 398 244 398 L171 398 L208 607 Z " />
<glyph glyph-name="C" unicode="C" horiz-adv-x="606" d="M567 54 L525 127 C507.667 114.333 486.167 102.833 460.5 92.5 C434.833 82.1667 402.333 77 363 77 C327.667 77 296.167 83.1667 268.5 95.5 C240.833 107.833 217.5 124.667 198.5 146 C179.5 167.333 165 192.833 155 222.5 C145 252.167 140 284.333 140 319 C140 361.667 146.333 401 159 437 C171.667 473 189.667 504.333 213 531 C236.333 557.667 264.5 578.5 297.5 593.5 C330.5 608.5 367.667 616 409 616 C449.667 616 483.5 609.333 510.5 596 C537.5 582.667 559.333 567.333 576 550 L643 618 C617.667 645.333 586 666.833 548 682.5 C510 698.167 464 706 410 706 C354.667 706 304.334 695.833 259 675.5 C213.667 655.167 174.667 627.5 142 592.5 C109.333 557.5 84.1667 516.5 66.5 469.5 C48.8333 422.5 40 372.333 40 319 C40 269.667 47.6667 224.5 63 183.5 C78.3333 142.5 100 107.5 128 78.5 C156 49.5 189.667 27 229 11 C268.333 -5 312.333 -13 361 -13 C409 -13 450 -6.16667 484 7.5 C518 21.1667 545.667 36.6667 567 54 L567 54 Z " />
<glyph glyph-name="D" unicode="D" horiz-adv-x="546" d="M128 692 L6 0 L141 0 C199 0 252.167 8.5 300.5 25.5 C348.833 42.5 390.333 67.5 425 100.5 C459.667 133.5 486.667 174 506 222 C525.333 270 535 325 535 387 C535 432.333 528.167 473.667 514.5 511 C500.833 548.333 481 580.5 455 607.5 C429 634.5 396.833 655.333 358.5 670 C320.167 684.667 276 692 226 692 L128 692 Z M118 86 L209 606 L230 606 C263.333 606 292.833 600.5 318.5 589.5 C344.167 578.5 365.667 563.167 383 543.5 C400.333 523.833 413.333 500.667 422 474 C430.667 447.333 435 418 435 386 C435 336 427.667 292.167 413 254.5 C398.333 216.833 378 185.5 352 160.5 C326 135.5 295.167 116.833 259.5 104.5 C223.833 92.1667 184.667 86 142 86 L118 86 Z " />
<glyph glyph-name="E" unicode="E" horiz-adv-x="380" d="M6 0 L301 0 L317 90 L118 90 L156 311 L346 311 L362 401 L173 401 L208 602 L403 602 L419 692 L128 692 L6 0 Z " />
<glyph glyph-name="F" unicode="F" horiz-adv-x="377" d="M157 311 L348 311 L363 401 L173 401 L208 602 L405 602 L420 692 L128 692 L6 0 L102 0 L157 311 Z " />
<glyph glyph-name="G" unicode="G" horiz-adv-x="703" d="M610 0 L673 356 L455 356 L440 273 L564 273 L540 137 C532.667 130.334 523.333 123.334 512 116 C500.667 108.667 487.667 102 473 96 C458.333 90 442 85.1667 424 81.5 C406 77.8333 386.333 76 365 76 C331 76 300.167 81.8333 272.5 93.5 C244.834 105.167 221.167 121.5 201.5 142.5 C181.833 163.5 166.667 188.667 156 218 C145.333 247.333 140 279.667 140 315 C140 359 146.667 399.5 160 436.5 C173.333 473.5 191.833 505.167 215.5 531.5 C239.167 557.833 267.667 578.5 301 593.5 C334.333 608.5 371 616 411 616 C435.667 616 458 613.167 478 607.5 C497.999 601.833 515.666 594.333 531 585 C546.331 575.667 559.665 565 571 553 C582.333 541 592 529 600 517 L678 571 C669.336 587 657.669 603 643 619 C628.336 635 610.169 649.5 588.5 662.5 C566.833 675.5 541.5 686 512.5 694 C483.5 702 450 706 412 706 C357.333 706 307.333 695.833 262 675.5 C216.667 655.167 177.5 627.5 144.5 592.5 C111.5 557.5 85.8333 516.167 67.5 468.5 C49.1667 420.833 40 369.667 40 315 C40 265.667 47.6667 220.833 63 180.5 C78.3333 140.167 100 105.667 128 77 C156 48.3333 189.333 26.1667 228 10.5 C266.667 -5.16667 309.333 -13 356 -13 C400 -13 437 -7 467 5 C497 17 518 28.6667 530 40 L523 0 L610 0 Z " />
<glyph glyph-name="H" unicode="H" horiz-adv-x="620" d="M521 0 L643 692 L547 692 L496 405 L174 405 L224 692 L128 692 L6 0 L102 0 L157 313 L480 313 L425 0 L521 0 Z " />
<glyph glyph-name="I" unicode="I" horiz-adv-x="201" d="M102 0 L224 692 L128 692 L6 0 L102 0 Z " />
<glyph glyph-name="J" unicode="J" horiz-adv-x="257" d="M184 139 L281 692 L185 692 L89 150 C87 140.667 85 132.333 83 125 C81 117.667 77.8333 111.334 73.5 106 C69.1667 100.667 63.5 96.5 56.5 93.5 C49.5 90.5 40.3333 89 29 89 L-8 89 L-24 0 C-22 0 -16.5 -0.166672 -7.5 -0.5 C1.5 -0.833328 14 -1 30 -1 C55.3333 -1 76.8333 1.66667 94.5 7 C112.167 12.3333 126.833 20.8333 138.5 32.5 C150.167 44.1667 159.667 58.8333 167 76.5 C174.333 94.1667 180 115 184 139 L184 139 Z " />
<glyph glyph-name="K" unicode="K" horiz-adv-x="511" d="M172 396 L224 692 L128 692 L6 0 L102 0 L160 331 L365 0 L470 0 L250 359 L581 692 L467 692 L172 396 Z " />
<glyph glyph-name="L" unicode="L" horiz-adv-x="367" d="M6 0 L298 0 L313 90 L118 90 L224 692 L128 692 L6 0 Z " />
<glyph glyph-name="M" unicode="M" horiz-adv-x="825" d="M413 0 L730 556 L632 0 L726 0 L848 692 L709 692 L386 125 L259 692 L128 692 L6 0 L96 0 L194 556 L319 0 L413 0 Z " />
<glyph glyph-name="N" unicode="N" horiz-adv-x="638" d="M192 533 L447 0 L539 0 L661 692 L569 692 L473 153 L222 692 L128 692 L6 0 L98 0 L192 533 Z " />
<glyph glyph-name="O" unicode="O" horiz-adv-x="747" d="M40 321 C40 271 47.8333 225.333 63.5 184 C79.1666 142.667 101.333 107.5 130 78.5 C158.667 49.5 193.167 27 233.5 11 C273.833 -5 318.333 -13 367 -13 C421.667 -13 471.667 -3.16667 517 16.5 C562.333 36.1667 601.333 63.3333 634 98 C666.667 132.667 692 173.667 710 221 C728 268.333 737 320 737 376 C737 424.667 729.167 469.167 713.5 509.5 C697.833 549.833 675.833 584.5 647.5 613.5 C619.167 642.5 584.833 665.167 544.5 681.5 C504.167 697.833 459.667 706 411 706 C354.333 706 303.167 695.333 257.5 674 C211.833 652.667 172.833 624.167 140.5 588.5 C108.167 552.833 83.3333 511.833 66 465.5 C48.6667 419.167 40 371 40 321 L40 321 Z M409 616 C444.333 616 476 610 504 598 C532 586 555.833 569.5 575.5 548.5 C595.167 527.5 610.333 502.167 621 472.5 C631.667 442.833 637 410.667 637 376 C637 330.667 630.167 289.667 616.5 253 C602.833 216.333 583.833 184.833 559.5 158.5 C535.167 132.167 506.333 111.833 473 97.5 C439.667 83.1667 403.667 76 365 76 C330.333 76 299.167 82.1667 271.5 94.5 C243.834 106.833 220.167 124 200.5 146 C180.833 168 165.833 194 155.5 224 C145.167 254 140 286.333 140 321 C140 360.333 146.333 397.833 159 433.5 C171.667 469.167 189.667 500.5 213 527.5 C236.333 554.5 264.5 576 297.5 592 C330.5 608 367.667 616 409 616 L409 616 Z " />
<glyph glyph-name="P" unicode="P" horiz-adv-x="450" d="M472 522 C472 578.667 455 621.167 421 649.5 C387 677.833 340 692 280 692 L128 692 L6 0 L102 0 L157 311 L245 311 C277.666 311 307.833 315.667 335.5 325 C363.167 334.333 387.167 348 407.5 366 C427.833 384 443.667 406 455 432 C466.333 458 472 488 472 522 L472 522 Z M209 607 L280 607 C310 607 332.667 598.833 348 582.5 C363.333 566.167 371 545.333 371 520 C371 479.333 359.667 448.5 337 427.5 C314.333 406.5 284 396 246 396 L172 396 L209 607 Z " />
<glyph glyph-name="Q" unicode="Q" horiz-adv-x="748" d="M40 321 C40 271 47.8333 225.333 63.5 184 C79.1666 142.667 101.333 107.5 130 78.5 C158.667 49.5 193.167 27 233.5 11 C273.833 -5 318.333 -13 367 -13 C405.666 -13 441.833 -8 475.5 2 C509.167 12 540.333 26.3333 569 45 L625 -13 L688 49 L637 103 C669 137.667 693.667 178.333 711 225 C728.333 271.667 737 322 737 376 C737 424.667 729.333 469.167 714 509.5 C698.667 549.833 676.667 584.5 648 613.5 C619.333 642.5 585 665.167 545 681.5 C505 697.833 460.333 706 411 706 C353.667 706 302.167 695.333 256.5 674 C210.833 652.667 172 624.333 140 589 C108 553.667 83.3333 512.667 66 466 C48.6667 419.333 40 371 40 321 L40 321 Z M409 616 C444.333 616 476 610 504 598 C532 586 555.833 569.5 575.5 548.5 C595.167 527.5 610.333 502.167 621 472.5 C631.667 442.833 637 410.667 637 376 C637 334 631.333 296 620 262 C608.667 228 592.667 198 572 172 L509 240 L444 177 L504 113 C462.667 88.3333 416.334 76 365 76 C330.333 76 299.167 82.1667 271.5 94.5 C243.834 106.833 220.167 124 200.5 146 C180.833 168 165.833 194 155.5 224 C145.167 254 140 286.333 140 321 C140 360.333 146.333 397.833 159 433.5 C171.667 469.167 189.667 500.5 213 527.5 C236.333 554.5 264.5 576 297.5 592 C330.5 608 367.667 616 409 616 L409 616 Z " />
<glyph glyph-name="R" unicode="R" horiz-adv-x="482" d="M472 522 C472 575.333 455.833 617 423.5 647 C391.167 677 344.667 692 284 692 L128 692 L6 0 L102 0 L157 314 L237 314 L344 0 L441 0 L327 329 C373.667 343 409.5 367.167 434.5 401.5 C459.5 435.833 472 476 472 522 L472 522 Z M209 607 L280 607 C310 607 332.667 598.833 348 582.5 C363.333 566.167 371 545.333 371 520 C371 479.333 359.667 448.667 337 428 C314.333 407.333 284 397 246 397 L172 397 L209 607 Z " />
<glyph glyph-name="S" unicode="S" horiz-adv-x="467" d="M281 621 C297 621 311 618 323 612 C335 606 345 598 353 588 C361 578 366.833 566.333 370.5 553 C374.167 539.667 376 525.667 376 511 L465 511 C468.333 570.333 453.833 617.333 421.5 652 C389.167 686.667 342.667 704 282 704 C250 704 221.5 699.167 196.5 689.5 C171.5 679.833 150.5 666.5 133.5 649.5 C116.5 632.5 103.667 612.833 95 590.5 C86.3333 568.167 82 544.333 82 519 C82 495 85 473.667 91 455 C97 436.333 105.833 419.167 117.5 403.5 C129.167 387.833 143.333 373.5 160 360.5 C176.667 347.5 195.667 334.333 217 321 C235.667 309 251.833 298 265.5 288 C279.167 278 290.167 268 298.5 258 C306.833 248 313 237.167 317 225.5 C321 213.833 323 200.667 323 186 C323 166.667 320 149.833 314 135.5 C308 121.167 299.833 109.5 289.5 100.5 C279.167 91.5 267.167 84.8333 253.5 80.5 C239.833 76.1667 225.333 74 210 74 C188.667 74 171 77.3333 157 84 C143 90.6667 131.667 100 123 112 C114.333 124 108.333 138 105 154 C101.667 170 100.334 187.333 101 206 L6 206 C2 138.667 17.5 85.6667 52.5 47 C87.5 8.33333 140 -11 210 -11 C243.333 -11 273.333 -5.66667 300 5 C326.667 15.6667 349.167 30 367.5 48 C385.833 66 399.833 87.3333 409.5 112 C419.167 136.667 424 163 424 191 C424 217.667 420.667 240.833 414 260.5 C407.333 280.167 397.667 298 385 314 C372.333 330 357 344.667 339 358 C321 371.333 301 385 279 399 C263.667 409 249.667 418.333 237 427 C224.334 435.666 213.667 444.832 205 454.5 C196.334 464.167 189.667 474.5 185 485.5 C180.333 496.5 178 509 178 523 C178 553 186.667 576.833 204 594.5 C221.333 612.167 247 621 281 621 L281 621 Z " />
<glyph glyph-name="T" unicode="T" horiz-adv-x="413" d="M313 601 L452 601 L468 692 L94 692 L78 601 L217 601 L111 0 L207 0 L313 601 Z " />
<glyph glyph-name="U" unicode="U" horiz-adv-x="610" d="M123 692 L48 264 C40.6667 224 40.6667 187.167 48 153.5 C55.3333 119.833 69 90.6667 89 66 C109 41.3333 135.5 22.1667 168.5 8.5 C201.5 -5.16667 240 -12 284 -12 C362.666 -12 424.833 11.1667 470.5 57.5 C516.167 103.833 546.667 171.667 562 261 L637 692 L542 692 L466 266 C461.333 238.667 454.667 213.5 446 190.5 C437.333 167.5 425.833 147.667 411.5 131 C397.167 114.333 379.667 101.333 359 92 C338.333 82.6667 313.667 78 285 78 C229.667 78 190 95.1666 166 129.5 C142 163.833 135 210.333 145 269 L220 692 L123 692 Z " />
<glyph glyph-name="V" unicode="V" horiz-adv-x="624" d="M71 692 L226 0 L331 0 L696 692 L593 692 L295 122 L169 692 L71 692 Z " />
<glyph glyph-name="W" unicode="W" horiz-adv-x="952" d="M522 550 L605 0 L713 0 L1021 692 L923 692 L677 131 L596 692 L492 692 L249 132 L171 692 L74 692 L171 0 L280 0 L522 550 Z " />
<glyph glyph-name="X" unicode="X" horiz-adv-x="594" d="M325 437 L193 692 L85 692 L259 360 L-44 0 L68 0 L303 277 L449 0 L552 0 L368 353 L656 692 L540 692 L325 437 Z " />
<glyph glyph-name="Y" unicode="Y" horiz-adv-x="461" d="M65 692 L196 355 L133 0 L229 0 L292 353 L541 692 L434 692 L257 450 L166 692 L65 692 Z " />
<glyph glyph-name="Z" unicode="Z" horiz-adv-x="572" d="M-18 0 L503 0 L518 89 L127 89 L610 619 L623 692 L107 692 L91 602 L468 602 L-6 74 L-18 0 Z " />
<glyph glyph-name="bracketleft" unicode="&#x5b;" horiz-adv-x="248" d="M140 775 L-28 -175 L152 -175 L167 -92 L76 -92 L215 692 L306 692 L320 775 L140 775 Z " />
<glyph glyph-name="backslash" unicode="&#x5c;" horiz-adv-x="445" d="M104 731 L296 -175 L377 -175 L185 731 L104 731 Z " />
<glyph glyph-name="bracketright" unicode="&#x5d;" horiz-adv-x="249" d="M118 -175 L286 775 L106 775 L91 692 L181 692 L43 -92 L-48 -92 L-62 -175 L118 -175 Z " />
<glyph glyph-name="asciicircum" unicode="&#x5e;" horiz-adv-x="452" d="M463 385 L350 692 L253 692 L36 385 L139 385 L292 603 L373 385 L463 385 Z " />
<glyph glyph-name="underscore" unicode="&#x5f;" horiz-adv-x="613" d="M-21 -45 L-34 -123 L514 -123 L527 -45 L-21 -45 Z " />
<glyph glyph-name="grave" unicode="&#x60;" horiz-adv-x="467" d="M286 714 L202 714 L256 579 L337 579 L286 714 Z " />
<glyph glyph-name="a" unicode="a" horiz-adv-x="454" d="M12 157 C12 132.333 16.1667 109.833 24.5 89.5 C32.8333 69.1667 44.5 51.8333 59.5 37.5 C74.5 23.1667 92.3333 12 113 4 C133.667 -4 156.333 -8 181 -8 C205 -8 227 -3.5 247 5.5 C267 14.5 282 25.6667 292 39 L286 0 L362 0 L421 340 C425.667 369.333 425.833 396.333 421.5 421 C417.168 445.666 407.835 466.832 393.5 484.5 C379.167 502.167 360.167 516 336.5 526 C312.833 536 284 541 250 541 C220 541 194.167 536.5 172.5 527.5 C150.833 518.5 132.833 506.5 118.5 491.5 C104.167 476.5 92.8334 459.167 84.5 439.5 C76.1667 419.833 70.6667 399.667 68 379 L155 379 C157 390.333 160.167 401.167 164.5 411.5 C168.833 421.833 174.666 430.833 182 438.5 C189.333 446.163 198.5 452.33 209.5 457 C220.5 461.667 234 464 250 464 C282 464 305 454 319 434 C333 414 337 386.667 331 352 L321 297 C313 309.667 298.5 321.167 277.5 331.5 C256.5 341.833 231 347 201 347 C171.667 347 145.333 342 122 332 C98.6667 322 78.8334 308.333 62.5 291 C46.1667 273.667 33.6667 253.5 25 230.5 C16.3333 207.5 12 183 12 157 L12 157 Z M208 271 C236 271 258.5 262.833 275.5 246.5 C292.5 230.167 301 208.333 301 181 C301 164.333 298.167 149.167 292.5 135.5 C286.833 121.833 279.167 110.167 269.5 100.5 C259.833 90.8333 248.5 83.3333 235.5 78 C222.5 72.6667 208.667 70 194 70 C166 70 143.667 78.5 127 95.5 C110.333 112.5 102 133.667 102 159 C102 191 111.667 217.667 131 239 C150.333 260.333 176 271 208 271 L208 271 Z " />
<glyph glyph-name="b" unicode="b" horiz-adv-x="609" d="M180 480 L224 731 L131 731 L2 0 L95 0 L112 91 C118.667 78.3333 127.667 66 139 54 C150.333 42 163.666 31.3333 179 22 C194.333 12.6667 212.166 5.16667 232.5 -0.5 C252.833 -6.16667 275.333 -9 300 -9 C345.333 -9 385.667 -0.833328 421 15.5 C456.333 31.8333 486.167 53.8333 510.5 81.5 C534.833 109.167 553.333 140.833 566 176.5 C578.667 212.167 585 249 585 287 C585 326.333 579.333 361.833 568 393.5 C556.667 425.167 540.5 452.167 519.5 474.5 C498.5 496.833 473.167 514 443.5 526 C413.833 538 380.667 544 344 544 C306 544 272.667 537.333 244 524 C215.333 510.667 194 496 180 480 L180 480 Z M330 460 C354.666 460 376.833 455.833 396.5 447.5 C416.166 439.167 432.833 427.334 446.5 412 C460.165 396.667 470.832 378.334 478.5 357 C486.167 335.667 490 312 490 286 C490 256.667 485.5 229.333 476.5 204 C467.5 178.667 454.667 156.5 438 137.5 C421.333 118.5 401.333 103.5 378 92.5 C354.667 81.5 328.667 76 300 76 C276 76 254.167 80.3333 234.5 89 C214.833 97.6667 197.833 109.5 183.5 124.5 C169.167 139.5 158.167 157.5 150.5 178.5 C142.833 199.5 139 222.333 139 247 C139 277 143.5 305 152.5 331 C161.5 357 174.333 379.5 191 398.5 C207.667 417.5 227.667 432.5 251 443.5 C274.333 454.5 300.667 460 330 460 L330 460 Z " />
<glyph glyph-name="c" unicode="c" horiz-adv-x="500" d="M280 76 C256.667 76 235.167 80.1667 215.5 88.5 C195.833 96.8333 179 108.667 165 124 C151 139.333 140 157.5 132 178.5 C124 199.5 120 222.667 120 248 C120 277.333 124.5 304.833 133.5 330.5 C142.5 356.167 155.167 378.5 171.5 397.5 C187.833 416.5 207.666 431.5 231 442.5 C254.333 453.5 280 459 308 459 C340 459 367 453.167 389 441.5 C411 429.833 429 416 443 400 L506 459 C498.667 468.333 489.5 478 478.5 488 C467.5 498 454 507.167 438 515.5 C422 523.829 403.333 530.663 382 536 C360.667 541.333 336.667 544 310 544 C266.667 544 227.5 536.167 192.5 520.5 C157.5 504.833 127.333 483.5 102 456.5 C76.6667 429.5 57.1667 397.833 43.5 361.5 C29.8333 325.167 23 286.667 23 246 C23 208 29.1667 173.5 41.5 142.5 C53.8333 111.5 71.3333 84.6667 94 62 C116.667 39.3333 143.333 21.8333 174 9.5 C204.667 -2.83333 238.667 -9 276 -9 C298.667 -9 319.5 -6.83333 338.5 -2.5 C357.5 1.83333 374.667 7.5 390 14.5 C405.333 21.5 418.833 29.3333 430.5 38 C442.167 46.6667 452.333 55.3333 461 64 L417 128 C399 112.667 379.5 100.167 358.5 90.5 C337.5 80.8333 311.333 76 280 76 L280 76 Z " />
<glyph glyph-name="d" unicode="d" horiz-adv-x="608" d="M305 544 C260.333 544 220.5 535.833 185.5 519.5 C150.5 503.168 121 481.334 97 454 C73 426.667 54.6667 395.167 42 359.5 C29.3333 323.833 23 286.333 23 247 C23 209.667 29 175.333 41 144 C53 112.667 69.6667 85.6667 91 63 C112.333 40.3333 138.167 22.6667 168.5 10 C198.833 -2.66667 232.667 -9 270 -9 C291.333 -9 311.167 -6.66667 329.5 -2 C347.833 2.66667 364.167 8.5 378.5 15.5 C392.833 22.5 405.333 30.1667 416 38.5 C426.667 46.8333 435 55 441 63 L430 0 L513 0 L642 731 L549 731 L498 445 C491.333 457 482.333 469 471 481 C459.667 493 446 503.667 430 513 C414 522.333 395.5 529.833 374.5 535.5 C353.5 541.167 330.333 544 305 544 L305 544 Z M280 76 C254.667 76 232.167 80.3333 212.5 89 C192.833 97.6667 176 110 162 126 C148 142 137.333 160.833 130 182.5 C122.667 204.167 119 228 119 254 C119 282 123.5 308.5 132.5 333.5 C141.5 358.5 154 380.333 170 399 C186 417.667 205.5 432.5 228.5 443.5 C251.5 454.5 277 460 305 460 C330.333 460 353.167 455.833 373.5 447.5 C393.833 439.167 411 427.5 425 412.5 C439 397.5 449.833 379.333 457.5 358 C465.167 336.667 469 313.334 469 288 C469 258 464.5 230.167 455.5 204.5 C446.5 178.833 433.667 156.5 417 137.5 C400.333 118.5 380.333 103.5 357 92.5 C333.667 81.5 308 76 280 76 L280 76 Z " />
<glyph glyph-name="e" unicode="e" horiz-adv-x="556" d="M118 240 L533 240 C535 249.333 536.667 259.667 538 271 C539.333 282.333 540 293.667 540 305 C540 341.667 534.333 374.667 523 404 C511.667 433.333 495.5 458.333 474.5 479 C453.5 499.666 427.833 515.666 397.5 527 C367.167 538.333 333 544 295 544 C253.667 544 216.333 536 183 520 C149.667 504 121.167 482.167 97.5 454.5 C73.8333 426.833 55.5 395 42.5 359 C29.5 323 23 285 23 245 C23 205 29 169.333 41 138 C53 106.667 70.1667 80.1667 92.5 58.5 C114.833 36.8333 141.667 20.1667 173 8.5 C204.333 -3.16667 239 -9 277 -9 C306.333 -9 333.333 -5.33333 358 2 C382.667 9.33333 405 19.3333 425 32 C445 44.6667 462.667 59.5 478 76.5 C493.333 93.5 506.333 112 517 132 L453 176 C433.667 145.333 410.334 120.833 383 102.5 C355.667 84.1667 320.334 75 277 75 C227 75 188 89.5 160 118.5 C132 147.5 118 187 118 237 L118 240 Z M294 463 C344 463 381.833 449.333 407.5 422 C433.167 394.667 446 359.334 446 316 L128 316 C137.333 361.333 156.667 397.167 186 423.5 C215.333 449.833 251.333 463 294 463 L294 463 Z " />
<glyph glyph-name="f" unicode="f" horiz-adv-x="262" d="M205 535 L212 577 C215.333 599 222 616.667 232 630 C242 643.333 260 650 286 650 L312 650 L327 731 L281 731 C231.667 731 195 719.333 171 696 C147 672.667 130 634.667 120 582 L111 535 L57 535 L43 454 L97 454 L17 0 L111 0 L191 454 L278 454 L292 535 L205 535 Z " />
<glyph glyph-name="g" unicode="g" horiz-adv-x="608" d="M430 57 L428 42 C419.333 -8.66666 400.333 -45.1667 371 -67.5 C341.667 -89.8333 303.667 -101 257 -101 C233.667 -101 212.5 -99 193.5 -95 C174.5 -91 157.167 -85.8333 141.5 -79.5 C125.833 -73.1667 112 -66.1667 100 -58.5 C88 -50.8333 77.6667 -43.6667 69 -37 L25 -111 C33.6667 -117.667 45.1667 -125.167 59.5 -133.5 C73.8333 -141.833 90.8333 -149.667 110.5 -157 C130.167 -164.333 152.167 -170.5 176.5 -175.5 C200.833 -180.5 227.333 -183 256 -183 C289.333 -183 320.5 -179.167 349.5 -171.5 C378.5 -163.833 404.5 -151 427.5 -133 C450.5 -115 470 -91.6667 486 -63 C501.998 -34.3333 513.665 1 521 43 L606 535 L515 535 L499 444 C492.333 456.667 483.333 469 472 481 C460.667 493 447 503.667 431 513 C415 522.333 396.667 529.833 376 535.5 C355.333 541.167 332 544 306 544 C261.333 544 221.5 536 186.5 520 C151.5 504 121.833 482.333 97.5 455 C73.1667 427.667 54.6667 396.167 42 360.5 C29.3333 324.833 23 287 23 247 C23 209.667 28.8333 175.333 40.5 144 C52.1667 112.667 68.8333 85.6667 90.5 63 C112.167 40.3333 138.333 22.6667 169 10 C199.667 -2.66667 234 -9 272 -9 C292.666 -9 311.333 -7 328 -3 C344.667 1 359.5 6.33333 372.5 13 C385.5 19.6667 396.833 26.8333 406.5 34.5 C416.167 42.1667 424 49.6667 430 57 L430 57 Z M280 75 C254.667 75 232.167 79.5 212.5 88.5 C192.833 97.5 176 109.833 162 125.5 C148 141.167 137.333 160 130 182 C122.667 204 119 228 119 254 C119 282 123.5 308.5 132.5 333.5 C141.5 358.5 154 380.333 170 399 C186 417.667 205.5 432.5 228.5 443.5 C251.5 454.5 277 460 305 460 C330.333 460 353.167 455.833 373.5 447.5 C393.833 439.167 411 427.334 425 412 C439 396.667 449.833 378.5 457.5 357.5 C465.167 336.5 469 313.333 469 288 C469 258 464.5 230.167 455.5 204.5 C446.5 178.833 433.667 156.333 417 137 C400.333 117.667 380.333 102.5 357 91.5 C333.667 80.5 308 75 280 75 L280 75 Z " />
<glyph glyph-name="h" unicode="h" horiz-adv-x="470" d="M343 334 L284 0 L378 0 L437 334 C441.667 360.667 442.667 386.5 440 411.5 C437.333 436.5 430.5 458.5 419.5 477.5 C408.5 496.5 392.833 511.833 372.5 523.5 C352.167 535.167 326 541 294 541 C266.667 541 243.167 535.333 223.5 524 C203.834 512.667 189.667 500.667 181 488 L224 731 L131 731 L2 0 L95 0 L156 345 C162 379 173.5 406.333 190.5 427 C207.5 447.667 232.333 458 265 458 C297 458 319.667 446.833 333 424.5 C346.333 402.167 349.667 372 343 334 L343 334 Z " />
<glyph glyph-name="i" unicode="i" horiz-adv-x="190" d="M96 0 L190 535 L96 535 L2 0 L96 0 Z M161 587 C178.333 587 193.166 593.167 205.5 605.5 C217.833 617.831 224 632.664 224 650 C224 668 217.833 683 205.5 695 C193.167 707 178.333 713 161 713 C143.667 713 129 707 117 695 C105 683 99 668 99 650 C99 632.667 105 617.833 117 605.5 C129 593.167 143.667 587 161 587 L161 587 Z " />
<glyph glyph-name="j" unicode="j" horiz-adv-x="191" d="M94 -15 L191 535 L97 535 L0 -12 C-2 -25.3333 -4.66667 -37 -8 -47 C-11.3333 -57 -15.8333 -65.5 -21.5 -72.5 C-27.1667 -79.5 -34.3333 -84.6667 -43 -88 C-51.6667 -91.3333 -63 -93 -77 -93 L-95 -93 L-110 -175 L-74 -175 C-48 -175 -25.6667 -172 -7 -166 C11.6667 -160 27.6667 -150.667 41 -138 C54.3333 -125.333 65.1667 -108.833 73.5 -88.5 C81.8333 -68.1667 88.6667 -43.6667 94 -15 L94 -15 Z M162 587 C179.333 587 194.166 593.167 206.5 605.5 C218.833 617.831 225 632.664 225 650 C225 668 218.833 683 206.5 695 C194.167 707 179.333 713 162 713 C144.667 713 130 707 118 695 C106 683 100 668 100 650 C100 632.667 106 617.833 118 605.5 C130 593.167 144.667 587 162 587 L162 587 Z " />
<glyph glyph-name="k" unicode="k" horiz-adv-x="452" d="M151 318 L224 731 L131 731 L2 0 L95 0 L141 262 L300 0 L402 0 L230 286 L491 535 L378 535 L151 318 Z " />
<glyph glyph-name="l" unicode="l" horiz-adv-x="190" d="M95 0 L224 731 L131 731 L2 0 L95 0 Z " />
<glyph glyph-name="m" unicode="m" horiz-adv-x="738" d="M371 0 L431 345 C437 379 448.333 406.333 465 427 C481.667 447.667 506 458 538 458 C570 458 591.833 446.833 603.5 424.5 C615.167 402.167 617.667 372 611 334 L552 0 L646 0 L705 335 C709 359.666 710 384.333 708 409 C706 433.666 699.5 455.832 688.5 475.5 C677.5 495.167 661.5 511 640.5 523 C619.5 535 592.333 541 559 541 C540.333 541 523.5 538.667 508.5 534 C493.5 529.333 480.167 523.5 468.5 516.5 C456.833 509.5 446.833 501.833 438.5 493.5 C430.168 485.167 423.335 477 418 469 C408.667 489.666 394.167 506.832 374.5 520.5 C354.833 534.167 328 541 294 541 C266 541 242.333 535.167 223 523.5 C203.667 511.833 189.333 499.667 180 487 L189 535 L95 535 L2 0 L96 0 L156 345 C162 379 173.333 406.333 190 427 C206.667 447.667 231 458 263 458 C295 458 316.833 446.833 328.5 424.5 C340.167 402.167 342.667 372 336 334 L277 0 L371 0 Z " />
<glyph glyph-name="n" unicode="n" horiz-adv-x="470" d="M343 334 L284 0 L378 0 L437 334 C441.653 360.666 442.82 386.333 440.5 411 C438.167 435.667 431.5 457.667 420.5 477 C409.5 496.333 393.833 511.833 373.5 523.5 C353.167 535.167 327 541 295 541 C267 541 243 535.333 223 524 C203 512.667 188.667 500.333 180 487 L189 535 L96 535 L2 0 L96 0 L156 345 C162 379 173.5 406.333 190.5 427 C207.5 447.667 232.667 458 266 458 C298 458 320.5 446.833 333.5 424.5 C346.5 402.167 349.667 372 343 334 L343 334 Z " />
<glyph glyph-name="o" unicode="o" horiz-adv-x="593" d="M309 460 C333.667 460 356.167 455.667 376.5 447 C396.833 438.333 414.333 426.167 429 410.5 C443.667 394.833 454.833 376.167 462.5 354.5 C470.167 332.833 474 309 474 283 C474 253.667 469.5 226.5 460.5 201.5 C451.5 176.5 438.667 154.5 422 135.5 C405.333 116.5 385.167 101.667 361.5 91 C337.833 80.3333 311.667 75 283 75 C259 75 236.833 79.3333 216.5 88 C196.167 96.6667 178.833 108.667 164.5 124 C150.167 139.333 139 157.5 131 178.5 C123 199.5 119 222.333 119 247 C119 276.333 123.5 304 132.5 330 C141.5 356 154.167 378.667 170.5 398 C186.833 417.333 206.666 432.5 230 443.5 C253.333 454.5 279.667 460 309 460 L309 460 Z M23 246 C23 207.333 29.3333 172.333 42 141 C54.6667 109.667 72.5 82.8333 95.5 60.5 C118.5 38.1667 145.833 21 177.5 9 C209.167 -3 243.667 -9 281 -9 C323.666 -9 362.833 -1.33333 398.5 14 C434.167 29.3333 464.667 50.3333 490 77 C515.333 103.667 535 134.833 549 170.5 C563 206.167 570 244.333 570 285 C570 323 563.833 357.833 551.5 389.5 C539.167 421.167 521.667 448.5 499 471.5 C476.333 494.5 448.833 512.333 416.5 525 C384.167 537.667 348.334 544 309 544 C265.667 544 226.5 536 191.5 520 C156.5 504 126.5 482.5 101.5 455.5 C76.5 428.5 57.1667 396.833 43.5 360.5 C29.8333 324.167 23 286 23 246 L23 246 Z " />
<glyph glyph-name="p" unicode="p" horiz-adv-x="608" d="M178 475 L188 535 L96 535 L-29 -175 L64 -175 L112 92 C118 79.3333 126.667 67 138 55 C149.333 43 162.833 32.1667 178.5 22.5 C194.167 12.8333 212 5.16667 232 -0.5 C252 -6.16667 274.333 -9 299 -9 C342.333 -9 381.667 -1.16667 417 14.5 C452.333 30.1667 482.5 51.5 507.5 78.5 C532.5 105.5 551.667 137.167 565 173.5 C578.333 209.833 585 248.333 585 289 C585 328.333 579.167 363.667 567.5 395 C555.833 426.333 539.5 453 518.5 475 C497.5 497 472.333 514 443 526 C413.667 538 381.334 544 346 544 C307.333 544 273.5 536.833 244.5 522.5 C215.5 508.168 193.333 492.334 178 475 L178 475 Z M329 460 C353.667 460 376 455.667 396 447 C416 438.333 432.833 426.167 446.5 410.5 C460.167 394.833 470.667 376.333 478 355 C485.333 333.667 489 310 489 284 C489 254.667 484.5 227.333 475.5 202 C466.5 176.667 453.667 154.667 437 136 C420.333 117.333 400.333 102.5 377 91.5 C353.667 80.5 327.667 75 299 75 C275 75 253.167 79.3333 233.5 88 C213.833 96.6667 197 108.667 183 124 C169 139.333 158.167 157.5 150.5 178.5 C142.833 199.5 139 222.333 139 247 C139 277 143.5 304.833 152.5 330.5 C161.5 356.167 174.333 378.667 191 398 C207.667 417.333 227.667 432.5 251 443.5 C274.333 454.5 300.333 460 329 460 L329 460 Z " />
<glyph glyph-name="q" unicode="q" horiz-adv-x="608" d="M306 544 C262 544 222.5 536 187.5 520 C152.5 504 122.833 482.333 98.5 455 C74.1667 427.667 55.5 396.167 42.5 360.5 C29.5 324.833 23 287 23 247 C23 211 28.6667 177.333 40 146 C51.3333 114.667 67.6667 87.5 89 64.5 C110.333 41.5 136.333 23.5 167 10.5 C197.667 -2.5 232 -9 270 -9 C311.333 -9 345.167 -1.83333 371.5 12.5 C397.833 26.8333 417 41 429 55 L389 -175 L482 -175 L608 535 L516 535 L499 445 C492.333 457.667 483.333 470 472 482 C460.667 494 447 504.5 431 513.5 C415 522.5 396.667 529.833 376 535.5 C355.333 541.167 332 544 306 544 L306 544 Z M280 75 C255.333 75 233 79.5 213 88.5 C193 97.5 176 110 162 126 C148 142 137.333 161 130 183 C122.667 205 119 229 119 255 C119 283 123.5 309.5 132.5 334.5 C141.5 359.5 154 381.167 170 399.5 C186 417.833 205.5 432.5 228.5 443.5 C251.5 454.5 277 460 305 460 C330.333 460 353.167 455.667 373.5 447 C393.833 438.333 411 426.333 425 411 C439 395.667 449.833 377.5 457.5 356.5 C465.167 335.5 469 312.667 469 288 C469 258 464.5 230 455.5 204 C446.5 178 433.667 155.5 417 136.5 C400.333 117.5 380.333 102.5 357 91.5 C333.667 80.5 308 75 280 75 L280 75 Z " />
<glyph glyph-name="r" unicode="r" horiz-adv-x="275" d="M287 439 L304 536 C274 538 248.667 533.5 228 522.5 C207.333 511.5 191.333 497.333 180 480 L189 535 L96 535 L2 0 L96 0 L154 332 C160 367.333 170.833 394 186.5 412 C202.167 430 228 439 264 439 L287 439 Z " />
<glyph glyph-name="s" unicode="s" horiz-adv-x="391" d="M216 467 C243.333 467 262.667 458.5 274 441.5 C285.333 424.5 290.667 403.667 290 379 L374 379 C376 405.667 373.5 429.167 366.5 449.5 C359.5 469.833 349 486.667 335 500 C321 513.333 304 523.5 284 530.5 C264 537.5 242 541 218 541 C192.667 541 169.833 537.333 149.5 530 C129.167 522.667 111.667 512.667 97 500 C82.3333 487.333 71 472 63 454 C55 436 51 416.667 51 396 C51 360 59.8333 330 77.5 306 C95.1666 282 123.667 260.333 163 241 C177.667 233.667 190.667 226.833 202 220.5 C213.333 214.167 223 207.5 231 200.5 C239 193.5 245 185.667 249 177 C253 168.333 255 158 255 146 C255 132.667 252.667 121.167 248 111.5 C243.333 101.833 237 94 229 88 C221 82 212 77.5 202 74.5 C192 71.5 181.667 70 171 70 C139.667 70 117.167 79 103.5 97 C89.8333 115 84 138.667 86 168 L-3 168 C-6.33333 112.667 6.66667 69.8333 36 39.5 C65.3333 9.16667 110 -6 170 -6 C192.667 -6 214.833 -2.66667 236.5 4 C258.166 10.6667 277.333 20.5 294 33.5 C310.667 46.5 324.167 63 334.5 83 C344.833 103 350 126 350 152 C350 174.667 347.167 194.167 341.5 210.5 C335.833 226.833 327.667 241.333 317 254 C306.333 266.667 292.833 278.167 276.5 288.5 C260.167 298.833 241.667 309.333 221 320 C206.333 327.333 194 334 184 340 C174 346 165.833 352 159.5 358 C153.167 364 148.667 370.5 146 377.5 C143.333 384.5 142 392.667 142 402 C142 423.333 148.833 439.5 162.5 450.5 C176.167 461.5 194 467 216 467 L216 467 Z " />
<glyph glyph-name="t" unicode="t" horiz-adv-x="270" d="M204 535 L219 617 L125 617 L111 535 L57 535 L43 454 L96 454 L43 147 C39 125 37.8333 104.667 39.5 86 C41.1667 67.3333 46.5 51.1667 55.5 37.5 C64.5 23.8333 77.1667 13.3333 93.5 6 C109.833 -1.33333 130.667 -5 156 -5 C165.333 -5 174.833 -4.66667 184.5 -4 C194.167 -3.33333 201.333 -2.33333 206 -1 L220 81 L181 81 C157.667 81 143.667 87.6667 139 101 C134.334 114.333 133.667 131.333 137 152 L190 454 L286 454 L300 535 L204 535 Z " />
<glyph glyph-name="u" unicode="u" horiz-adv-x="467" d="M128 201 L187 535 L93 535 L34 200 C29.3333 173.333 28.1667 147.667 30.5 123 C32.8333 98.3333 39.5 76.5 50.5 57.5 C61.5 38.5 77.1667 23.1667 97.5 11.5 C117.833 -0.166672 143.667 -6 175 -6 C202.333 -6 226 -0.5 246 10.5 C266 21.5 280.667 33.6667 290 47 L281 0 L372 0 L466 535 L372 535 L312 191 C306 157 294.333 129.667 277 109 C259.667 88.3333 235 78 203 78 C170.333 78 148 89 136 111 C124 133 121.333 163 128 201 L128 201 Z " />
<glyph glyph-name="v" unicode="v" horiz-adv-x="503" d="M227 114 L141 535 L45 535 L159 0 L260 0 L548 535 L448 535 L227 114 Z " />
<glyph glyph-name="w" unicode="w" horiz-adv-x="813" d="M563 120 L499 535 L401 535 L205 120 L144 535 L48 535 L130 0 L233 0 L428 402 L496 0 L598 0 L853 535 L758 535 L563 120 Z " />
<glyph glyph-name="x" unicode="x" horiz-adv-x="512" d="M268 346 L160 535 L57 535 L206 277 L-43 0 L65 0 L248 203 L366 0 L466 0 L310 271 L549 535 L438 535 L268 346 Z " />
<glyph glyph-name="y" unicode="y" horiz-adv-x="504" d="M142 535 L45 535 L169 13 L69 -175 L164 -175 L549 535 L449 535 L233 133 L142 535 Z " />
<glyph glyph-name="z" unicode="z" horiz-adv-x="441" d="M107 79 L453 460 L466 535 L78 535 L64 456 L334 456 L-5 75 L-18 0 L373 0 L385 79 L107 79 Z " />
<glyph glyph-name="braceleft" unicode="&#x7b;" horiz-adv-x="268" d="M58 196 L20 -14 C11.3333 -64 17.3333 -103 38 -131 C58.6667 -159 97.3333 -173.667 154 -175 L172 -175 L187 -92 L164 -92 C138 -91.3333 121.333 -84.6666 114 -72 C106.667 -59.3333 105.334 -40 110 -14 L147 195 C152.338 225 152.171 247.5 146.5 262.5 C140.833 277.5 130.667 288.667 116 296 C134.667 300.665 149 310.832 159 326.5 C169 342.167 177.333 369 184 407 L222 621 C226.667 647.667 234.167 666.333 244.5 677 C254.833 687.667 273.667 692.667 301 692 L326 692 L340 775 L311 775 C284.333 775.667 261 773.833 241 769.5 C221 765.167 203.833 757.333 189.5 746 C175.167 734.667 163.5 719 154.5 699 C145.5 679 138.333 653.667 133 623 L96 414 C93.3333 400.667 90.6667 389.667 88 381 C85.3333 372.333 81.5 365.5 76.5 360.5 C71.5 355.5 65.3333 352 58 350 C50.6667 348 41.3333 347 30 347 L24 347 L10 260 L20 260 C37.3333 260 49 255.333 55 246 C61 236.667 62 220 58 196 L58 196 Z " />
<glyph glyph-name="bar" unicode="&#x7c;" horiz-adv-x="248" d="M180 -175 L180 731 L97 731 L97 -175 L180 -175 Z " />
<glyph glyph-name="braceright" unicode="&#x7d;" horiz-adv-x="269" d="M221 404 L258 614 C266.667 664 260.667 703 240 731 C219.333 759 180.667 773.667 124 775 L106 775 L92 692 L114 692 C140 691.335 156.667 684.668 164 672 C171.333 659.333 172.666 640 168 614 L131 405 C125.665 375 125.831 352.5 131.5 337.5 C137.167 322.5 147.667 311.333 163 304 C143.667 299.333 129 289.167 119 273.5 C109 257.833 100.667 231 94 193 L57 -21 C54.3333 -34.3333 51.3333 -45.6667 48 -55 C44.6667 -64.3334 40 -71.6667 34 -77 C28 -82.3335 20.5 -86.1668 11.5 -88.5 C2.5 -90.8333 -9 -92 -23 -92 L-47 -92 L-61 -175 L-32 -175 C-5.33333 -175.667 18 -174 38 -170 C58 -166 75 -158.167 89 -146.5 C103 -134.833 114.667 -119 124 -99 C133.333 -79 140.666 -53.6667 146 -23 L183 186 C185 199.333 187.5 210.333 190.5 219 C193.5 227.667 197.333 234.5 202 239.5 C206.667 244.5 212.667 248 220 250 C227.333 252 237 253 249 253 L254 253 L269 339 L258 339 C240.667 339 229.167 343.833 223.5 353.5 C217.833 363.167 217 380 221 404 L221 404 Z " />
<glyph glyph-name="asciitilde" unicode="&#x7e;" horiz-adv-x="475" d="M331 228 C351.666 228 370.333 232 387 240 C403.666 248 417.833 259 429.5 273 C441.167 287 450.5 303.167 457.5 321.5 C464.5 339.833 468.667 359 470 379 L391 379 C387.667 363 381.5 348.333 372.5 335 C363.5 321.667 349 315 329 315 C315.667 315 303.667 317.667 293 323 C282.333 328.333 270.333 335.333 257 344 C239.667 355.333 223.667 364 209 370 C194.334 376 176.667 379 156 379 C134.667 379 115.667 374.833 99 366.5 C82.3333 358.167 68 347 56 333 C44 319 34.6667 303 28 285 C21.3333 267 17.3333 248.333 16 229 L94 229 C96 236.333 98.3333 243.667 101 251 C103.667 258.333 107.5 265 112.5 271 C117.5 277 123.667 281.833 131 285.5 C138.333 289.167 147 291 157 291 C170.333 291 182.5 288.5 193.5 283.5 C204.5 278.5 216.667 271.667 230 263 C247.333 251.667 263.5 243 278.5 237 C293.5 231 311 228 331 228 L331 228 Z " />
<glyph glyph-name="uni00A0" unicode="&#xa0;" horiz-adv-x="151" d="" />
<glyph glyph-name="exclamdown" unicode="&#xa1;" horiz-adv-x="209" d="M84 418 L-8 -101 L87 -101 L178 418 L84 418 Z M152 599 C132.667 599 116.833 592.667 104.5 580 C92.1667 567.333 86 551.333 86 532 C86 512.667 92.1667 496.833 104.5 484.5 C116.833 472.167 132.667 466 152 466 C170.667 466 186.333 472.167 199 484.5 C211.667 496.833 218 512.667 218 532 C218 551.333 211.667 567.333 199 580 C186.334 592.667 170.667 599 152 599 L152 599 Z " />
<glyph glyph-name="cent" unicode="&#xa2;" horiz-adv-x="504" d="M368 539 L380 604 L311 604 L300 544 C258.667 542.667 221 534.167 187 518.5 C153 502.833 123.833 481.5 99.5 454.5 C75.1667 427.5 56.3333 396.167 43 360.5 C29.6667 324.833 23 286.667 23 246 C23 214.667 27.3333 185.5 36 158.5 C44.6667 131.5 56.8333 107.5 72.5 86.5 C88.1667 65.5 107.167 47.5 129.5 32.5 C151.833 17.5 176.667 6.66667 204 0 L192 -68 L261 -68 L271 -9 L277 -9 C299.666 -9 320.833 -6.83333 340.5 -2.5 C360.166 1.83333 377.833 7.5 393.5 14.5 C409.167 21.5 423 29.3333 435 38 C447 46.6667 457.333 55.3333 466 64 L421 128 C403.667 114 384.334 101.667 363 91 C341.667 80.3333 316 74.6667 286 74 L353 456 C374.333 450.667 392.667 443.167 408 433.5 C423.333 423.833 436.333 413.333 447 402 L509 462 C498.333 476.667 481.667 491.5 459 506.5 C436.333 521.5 406 532.333 368 539 L368 539 Z M118 248 C118 276 122 302.167 130 326.5 C138 350.833 149.333 372.5 164 391.5 C178.667 410.5 196.167 426 216.5 438 C236.833 450 259.667 457.333 285 460 L219 85 C187.667 97 163 117.333 145 146 C127 174.667 118 208.667 118 248 L118 248 Z " />
<glyph glyph-name="sterling" unicode="&#xa3;" horiz-adv-x="518" d="M44 379 L29 294 L95 294 L59 88 L-6 88 L-23 0 L444 0 L459 88 L155 88 L192 294 L334 294 L350 379 L207 379 L227 493 C233.667 531 245.5 560.833 262.5 582.5 C279.5 604.167 305.667 615 341 615 C362.333 615 379.5 611.167 392.5 603.5 C405.5 595.838 415.333 586.171 422 574.5 C428.663 562.838 432.83 550.171 434.5 536.5 C436.167 522.833 436.667 510.333 436 499 L529 499 C531.667 521.667 530.667 545 526 569 C521.333 593 512 615 498 635 C484 655 464.167 671.333 438.5 684 C412.833 696.667 380.333 703 341 703 C309.667 703 282.167 698.167 258.5 688.5 C234.833 678.834 214.5 665.167 197.5 647.5 C180.5 629.836 166.667 608.669 156 584 C145.333 559.333 137.333 532 132 502 L110 379 L44 379 Z " />
<glyph glyph-name="yen" unicode="&#xa5;" horiz-adv-x="486" d="M215 412 L74 412 L61 339 L209 339 L194 254 L46 254 L33 181 L181 181 L149 0 L245 0 L276 181 L425 181 L438 254 L289 254 L304 339 L452 339 L466 412 L322 412 L554 692 L445 692 L278 487 L182 692 L79 692 L215 412 Z " />
<glyph glyph-name="brokenbar" unicode="&#xa6;" horiz-adv-x="248" d="M180 -175 L180 255 L97 255 L97 -175 L180 -175 Z M180 312 L180 731 L97 731 L97 312 L180 312 Z " />
<glyph glyph-name="section" unicode="&#xa7;" horiz-adv-x="570" d="M538 260 C538 300.666 528.5 333.333 509.5 358 C490.5 382.667 459.333 404 416 422 L325 459 C272.333 481 246 514.666 246 560 C246 585.333 254.167 606.833 270.5 624.5 C286.833 642.167 311 651 343 651 C360.333 651 374.833 648 386.5 642 C398.167 636 407.667 628 415 618 C422.333 608 427.667 596.333 431 583 C434.333 569.667 436 555.667 436 541 L528 541 C531.333 602.333 516.833 650.333 484.5 685 C452.167 719.667 405 737 343 737 C311.667 737 284 731.833 260 721.5 C236 711.167 216 697.5 200 680.5 C184 663.5 171.833 644.167 163.5 622.5 C155.167 600.833 151 578.333 151 555 C151 536.333 153.333 518.333 158 501 C162.667 483.667 169.667 468 179 454 C159.667 451.333 141.667 445.833 125 437.5 C108.333 429.167 93.6667 418.5 81 405.5 C68.3333 392.5 58.3333 376.833 51 358.5 C43.6667 340.167 40 319.667 40 297 C40 258.333 49.8333 226.667 69.5 202 C89.1667 177.333 118 157.333 156 142 L252 103 C280.667 91.6667 301.5 78 314.5 62 C327.5 46 334 25.3333 334 0 C334 -30 324.5 -53.5 305.5 -70.5 C286.5 -87.5 260.333 -96 227 -96 C209 -96 193.667 -92.8333 181 -86.5 C168.333 -80.1667 158.333 -71.6667 151 -61 C143.667 -50.3333 138.333 -38.1667 135 -24.5 C131.667 -10.8333 130.333 3.33333 131 18 L37 18 C34.3333 -42.6667 49 -91.1667 81 -127.5 C113 -163.833 162 -182 228 -182 C260 -182 288.667 -176.833 314 -166.5 C339.333 -156.167 360.667 -142.333 378 -125 C395.333 -107.667 408.5 -87.6667 417.5 -65 C426.5 -42.3333 431 -18.3333 431 7 C431 30.3333 428.5 50.1667 423.5 66.5 C418.5 82.8333 412.333 96.6667 405 108 C421.667 110.667 438 115.667 454 123 C470 130.333 484.167 140.333 496.5 153 C508.833 165.667 518.833 180.833 526.5 198.5 C534.167 216.167 538 236.667 538 260 L538 260 Z M315 184 L199 232 C181 239.333 166 248.833 154 260.5 C142 272.167 136 287.667 136 307 C136 325.666 139.833 340.833 147.5 352.5 C155.167 364.165 165.167 372.832 177.5 378.5 C189.833 384.161 203.5 386.827 218.5 386.5 C233.5 386.167 248 383 262 377 L380 329 C399.333 321.667 414.333 312.5 425 301.5 C435.667 290.5 441 274.333 441 253 C441 236.334 437.333 222.167 430 210.5 C422.667 198.833 413 190 401 184 C389 178 375.5 175 360.5 175 C345.5 175 330.333 178 315 184 L315 184 Z " />
<glyph glyph-name="dieresis" unicode="&#xa8;" horiz-adv-x="467" d="M218 590 C234 590 247.833 595.667 259.5 607 C271.167 618.333 277 632.333 277 649 C277 665.667 271.333 679.667 260 691 C248.667 702.333 234.667 708 218 708 C200.667 708 186.5 702.333 175.5 691 C164.5 679.667 159 665.667 159 649 C159 632.333 164.5 618.333 175.5 607 C186.5 595.667 200.667 590 218 590 L218 590 Z M388 590 C404 590 417.833 595.667 429.5 607 C441.167 618.333 447 632.333 447 649 C447 665.667 441.167 679.667 429.5 691 C417.833 702.333 404 708 388 708 C370.667 708 356.5 702.333 345.5 691 C334.5 679.667 329 665.667 329 649 C329 632.333 334.5 618.333 345.5 607 C356.5 595.667 370.667 590 388 590 L388 590 Z " />
<glyph glyph-name="copyright" unicode="&#xa9;" horiz-adv-x="777" d="M41 346 C41 295.333 49.5 248.167 66.5 204.5 C83.5 160.833 107.833 122.833 139.5 90.5 C171.167 58.1667 209.5 32.8333 254.5 14.5 C299.5 -3.83333 349.667 -13 405 -13 C460.333 -13 510.167 -3.66667 554.5 15 C598.832 33.6667 636.665 59.3333 668 92 C699.333 124.667 723.5 163 740.5 207 C757.5 251 766 298.333 766 349 C766 399.667 757.5 446.667 740.5 490 C723.5 533.333 699.167 571 667.5 603 C635.833 635 597.333 660.167 552 678.5 C506.667 696.833 456 706 400 706 C346.667 706 298 696.667 254 678 C210 659.333 172.167 633.833 140.5 601.5 C108.833 569.167 84.3333 531 67 487 C49.6667 443 41 396 41 346 L41 346 Z M112 346 C112 388.667 118.833 428.167 132.5 464.5 C146.167 500.833 165.5 532.167 190.5 558.5 C215.5 584.833 245.833 605.5 281.5 620.5 C317.167 635.5 356.667 643 400 643 C446 643 487.333 635.667 524 621 C560.667 606.333 591.833 586 617.5 560 C643.167 534 662.667 502.833 676 466.5 C689.333 430.167 696 390.667 696 348 C696 304.667 689.333 264.667 676 228 C662.667 191.333 643.5 159.833 618.5 133.5 C593.5 107.167 563 86.5 527 71.5 C491 56.5 450.333 49 405 49 C359.667 49 319 56.6667 283 72 C247 87.3333 216.333 108.167 191 134.5 C165.667 160.833 146.167 192.167 132.5 228.5 C118.833 264.833 112 304 112 346 L112 346 Z M501 436 L547 497 C531.667 510.333 513.5 521.167 492.5 529.5 C471.5 537.833 446.333 542 417 542 C387.667 542 360.834 537 336.5 527 C312.167 517 291.5 503.167 274.5 485.5 C257.5 467.833 244.333 447 235 423 C225.667 399 221 373.333 221 346 C221 318.667 225.5 293.167 234.5 269.5 C243.5 245.834 256.5 225.167 273.5 207.5 C290.5 189.833 311.333 176 336 166 C360.666 156 388.333 151 419 151 C445 151 469 155.167 491 163.5 C513 171.833 532 184.666 548 202 L503 256 C493.667 247.333 481.667 240 467 234 C452.333 228 436.333 225 419 225 C401 225 384.833 228.167 370.5 234.5 C356.167 240.833 344 249.333 334 260 C324 270.666 316.333 283.332 311 298 C305.667 312.667 303 328.667 303 346 C303 380.667 312.833 409.667 332.5 433 C352.167 456.333 380 468 416 468 C436.667 468 454.167 464.5 468.5 457.5 C482.833 450.5 493.667 443.333 501 436 L501 436 Z " />
<glyph glyph-name="ordfeminine" unicode="&#xaa;" horiz-adv-x="347" d="M51 407 C51 371 63 341.333 87 318 C111 294.667 142 283 180 283 C197.333 283 213.666 286.333 229 293 C244.333 299.667 255.666 307.667 263 317 L258 289 L315 289 L360 546 C368 590.667 361.333 627.167 340 655.5 C318.667 683.833 282.334 698 231 698 C208.333 698 188.833 694.667 172.5 688 C156.167 681.333 142.5 672.333 131.5 661 C120.5 649.667 111.833 636.667 105.5 622 C99.1667 607.333 95 592 93 576 L165 576 C168.333 592 174.5 605.667 183.5 617 C192.5 628.333 208.333 634 231 634 C254.333 634 270.5 626.667 279.5 612 C288.5 597.333 290.667 578.333 286 555 L280 515 C274.667 522.325 264.667 529.659 250 537 C235.333 544.333 216.333 548 193 548 C170.333 548 150.167 544.167 132.5 536.5 C114.833 528.833 100 518.5 88 505.5 C76 492.5 66.8333 477.5 60.5 460.5 C54.1667 443.5 51 425.667 51 407 L51 407 Z M199 488 C219.667 488 235.833 481.833 247.5 469.5 C259.167 457.168 265 442.334 265 425 C265 402.333 257.667 383.667 243 369 C228.333 354.333 210.333 347 189 347 C167.667 347 151.333 353.333 140 366 C128.667 378.667 123 393 123 409 C123 430.333 129.5 448.833 142.5 464.5 C155.5 480.167 174.333 488 199 488 L199 488 Z " />
<glyph glyph-name="guillemotleft" unicode="&#xab;" horiz-adv-x="357" d="M81 105 L160 105 L98 270 L206 432 L120 432 L17 277 L81 105 Z M221 105 L300 105 L244 259 L358 432 L272 432 L162 266 L221 105 Z " />
<glyph glyph-name="registered" unicode="&#xae;" horiz-adv-x="452" d="M254 517 L276 517 L312 429 L363 429 L323 528 C331.667 532.667 339.167 539.667 345.5 549 C351.833 558.329 355 569.662 355 583 C355 603.667 348.667 619.833 336 631.5 C323.333 643.167 305 649 281 649 L204 649 L204 429 L254 429 L254 517 Z M254 605 L279 605 C294.333 605 302 597.667 302 583 C302 567 294.333 559 279 559 L254 559 L254 605 Z M68 535 C68 506.333 72.8333 479.667 82.5 455 C92.1667 430.333 106 409 124 391 C142 373 163.667 358.833 189 348.5 C214.333 338.167 242.667 333 274 333 C305.333 333 333.667 338.333 359 349 C384.333 359.666 405.833 374.333 423.5 393 C441.167 411.667 454.833 433.167 464.5 457.5 C474.167 481.833 479 508 479 536 C479 564 474.167 590.333 464.5 615 C454.833 639.667 441 661.167 423 679.5 C405 697.831 383.167 712.164 357.5 722.5 C331.833 732.833 303 738 271 738 C240.333 738 212.5 732.667 187.5 722 C162.5 711.333 141.167 696.833 123.5 678.5 C105.833 660.167 92.1667 638.667 82.5 614 C72.8333 589.333 68 563 68 535 L68 535 Z M115 535 C115 558.333 118.5 579.833 125.5 599.5 C132.5 619.167 142.833 636 156.5 650 C170.167 664 186.667 675 206 683 C225.333 691 247 695 271 695 C322.333 695 362 680.333 390 651 C418 621.667 432 583.333 432 536 C432 489.333 418.167 451 390.5 421 C362.833 391 323.667 376 273 376 C248.333 376 226.167 380 206.5 388 C186.833 396 170.333 407.167 157 421.5 C143.667 435.833 133.333 452.667 126 472 C118.667 491.333 115 512.333 115 535 L115 535 Z " />
<glyph glyph-name="macron" unicode="&#xaf;" horiz-adv-x="393" d="M151 670 L137 597 L363 597 L376 670 L151 670 Z " />
<glyph glyph-name="degree" unicode="&#xb0;" horiz-adv-x="343" d="M70 549 C70 528.333 73.5 509.167 80.5 491.5 C87.5 473.833 97.5 458.5 110.5 445.5 C123.5 432.5 139.167 422.167 157.5 414.5 C175.833 406.833 196.666 403 220 403 C242.667 403 263.333 407 282 415 C300.667 423 316.5 434 329.5 448 C342.5 462 352.667 478.167 360 496.5 C367.333 514.831 371 534.665 371 556 C371 576.667 367.5 596 360.5 614 C353.5 632 343.5 647.667 330.5 661 C317.5 674.331 301.833 684.664 283.5 692 C265.167 699.333 244.333 703 221 703 C198.334 703 177.667 698.833 159 690.5 C140.333 682.167 124.5 670.833 111.5 656.5 C98.5 642.167 88.3333 625.667 81 607 C73.6667 588.333 70 569 70 549 L70 549 Z M141 551 C141 575 148.167 595.333 162.5 612 C176.833 628.667 196.333 637 221 637 C245.667 637 265 629.333 279 614 C293 598.667 300 579.333 300 556 C300 531.333 293.167 510.667 279.5 494 C265.833 477.333 246.333 469 221 469 C195.667 469 176 476.833 162 492.5 C148 508.167 141 527.667 141 551 L141 551 Z " />
<glyph glyph-name="twosuperior" unicode="&#xb2;" horiz-adv-x="301" d="M44 335 L293 335 L305 402 L163 402 L250 477 C262 487 272.667 496.333 282 505 C291.333 513.667 299.333 522.667 306 532 C312.667 541.333 317.667 551 321 561 C324.333 571 326 582.333 326 595 C326 625 315.833 649.667 295.5 669 C275.167 688.333 247 698 211 698 C189 698 170.333 694.333 155 687 C139.667 679.667 127 670.167 117 658.5 C107 646.833 99.5 634 94.5 620 C89.5 606 87 592.333 87 579 L159 579 C159.667 590.333 163.667 601.5 171 612.5 C178.333 623.5 190.666 629 208 629 C221.333 629 231.5 625.167 238.5 617.5 C245.5 609.833 249 600.333 249 589 C249 573.667 244.5 560.5 235.5 549.5 C226.5 538.5 213.333 526 196 512 L54 394 L44 335 Z " />
<glyph glyph-name="threesuperior" unicode="&#xb3;" horiz-adv-x="305" d="M146 550 L137 496 L177 496 C195 496 208.5 491.667 217.5 483 C226.5 474.333 231 462.667 231 448 C231 433.333 226.667 420.667 218 410 C209.334 399.333 196.667 394 180 394 C162 394 148.833 398.833 140.5 408.5 C132.167 418.167 128 431 128 447 L56 447 C54 413 63.3333 384.833 84 362.5 C104.667 340.167 136.333 329 179 329 C197.667 329 214.833 332 230.5 338 C246.167 344 259.833 352.167 271.5 362.5 C283.167 372.833 292.167 385.5 298.5 400.5 C304.833 415.5 308 432 308 450 C308 481.333 299.833 504.667 283.5 520 C267.167 535.333 248.667 545 228 549 L320 628 L332 692 L119 692 L107 627 L232 627 L146 550 Z " />
<glyph glyph-name="acute" unicode="&#xb4;" horiz-adv-x="467" d="M423 714 L332 714 L237 579 L328 579 L423 714 Z " />
<glyph glyph-name="paragraph" unicode="&#xb6;" horiz-adv-x="451" d="M202 399 L132 0 L211 0 L331 692 L236 692 C210 692 186.667 688.167 166 680.5 C145.333 672.833 127.5 662 112.5 648 C97.5 634 86 617.667 78 599 C70 580.333 66 560 66 538 C66 496.667 78.6667 464 104 440 C129.333 416 162 402.333 202 399 L202 399 Z M353 0 L474 692 L396 692 L275 0 L353 0 Z " />
<glyph glyph-name="periodcentered" unicode="&#xb7;" horiz-adv-x="185" d="M103 261 C121.667 261 137.333 267.333 150 280 C162.667 292.667 169 308.667 169 328 C169 347.333 162.833 363.333 150.5 376 C138.167 388.667 122.333 395 103 395 C83.6667 395 67.8334 388.667 55.5 376 C43.1667 363.333 37 347.333 37 328 C37 308.667 43.1667 292.667 55.5 280 C67.8333 267.333 83.6667 261 103 261 L103 261 Z " />
<glyph glyph-name="cedilla" unicode="&#xb8;" horiz-adv-x="393" d="M91 18 L71 -95 L86 -95 C101.333 -95 113.833 -98.8333 123.5 -106.5 C133.167 -114.167 138 -124.667 138 -138 C138 -158.667 131.167 -172.667 117.5 -180 C103.833 -187.333 87.6667 -191 69 -191 L54 -191 L43 -252 L68 -252 C88 -252 106.333 -249.5 123 -244.5 C139.667 -239.5 154.333 -232.333 167 -223 C179.667 -213.667 189.5 -201.833 196.5 -187.5 C203.5 -173.167 207 -156.667 207 -138 C207 -114.667 201.333 -94.8333 190 -78.5 C178.667 -62.1667 161.667 -50.3333 139 -43 L150 18 L91 18 Z " />
<glyph glyph-name="onesuperior" unicode="&#xb9;" horiz-adv-x="178" d="M144 335 L207 692 L137 692 L86 672 L75 607 L119 623 L68 335 L144 335 Z " />
<glyph glyph-name="ordmasculine" unicode="&#xba;" horiz-adv-x="441" d="M270 626 C306 626 334.333 614.5 355 591.5 C375.667 568.5 386 539 386 503 C386 482.333 382.833 463 376.5 445 C370.167 427 361 411.5 349 398.5 C337 385.5 322.667 375.333 306 368 C289.333 360.667 270.667 357 250 357 C216 357 188.333 368.333 167 391 C145.667 413.667 135 442 135 476 C135 496.666 138.167 516.166 144.5 534.5 C150.833 552.831 159.833 568.664 171.5 582 C183.167 595.333 197.333 606 214 614 C230.667 622 249.333 626 270 626 L270 626 Z M56 475 C56 446.333 60.8333 420.333 70.5 397 C80.1667 373.667 93.5 353.667 110.5 337 C127.5 320.333 147.833 307.5 171.5 298.5 C195.167 289.5 221 285 249 285 C281 285 310.333 290.667 337 302 C363.667 313.333 386.5 329 405.5 349 C424.5 369 439.167 392.333 449.5 419 C459.833 445.666 465 474.333 465 505 C465 533.667 460.333 559.833 451 583.5 C441.667 607.167 428.5 627.5 411.5 644.5 C394.5 661.5 374 674.667 350 684 C326 693.333 299.333 698 270 698 C237.333 698 207.833 692 181.5 680 C155.167 668 132.667 651.833 114 631.5 C95.3333 611.167 81 587.5 71 560.5 C61 533.5 56 505 56 475 L56 475 Z " />
<glyph glyph-name="guillemotright" unicode="&#xbb;" horiz-adv-x="361" d="M277 432 L199 432 L260 268 L153 105 L238 105 L342 261 L277 432 Z M137 432 L58 432 L115 278 L1 105 L86 105 L197 271 L137 432 Z " />
<glyph glyph-name="onequarter" unicode="&#xbc;" horiz-adv-x="666" d="M182 335 L245 692 L177 692 L127 672 L115 609 L159 625 L108 335 L182 335 Z M557 94 L596 94 L607 160 L569 160 L604 359 L531 359 L328 158 L317 94 L485 94 L469 1 L541 1 L557 94 Z M403 160 L516 270 L497 160 L403 160 Z M68 0 L660 692 L577 692 L-16 0 L68 0 Z " />
<glyph glyph-name="onehalf" unicode="&#xbd;" horiz-adv-x="696" d="M182 335 L245 692 L177 692 L127 672 L115 609 L159 625 L108 335 L182 335 Z M361 1 L609 1 L621 67 L479 67 L568 144 C591.333 164 609.833 182.667 623.5 200 C637.167 217.333 644 238.666 644 264 C644 294 633.833 318.667 613.5 338 C593.167 357.333 564.667 367 528 367 C506.668 367 488.334 363.333 473 356 C457.667 348.667 445 339.167 435 327.5 C425 315.833 417.5 303 412.5 289 C407.5 275 405 261.333 405 248 L476 248 C476.667 259.333 480.667 270.667 488 282 C495.333 293.333 508 299 526 299 C539.333 299 549.666 295 557 287 C564.333 279 568 269.333 568 258 C568 242.667 563 229.167 553 217.5 C543 205.833 529.667 193 513 179 L371 59 L361 1 Z M68 0 L660 692 L577 692 L-16 0 L68 0 Z " />
<glyph glyph-name="threequarters" unicode="&#xbe;" horiz-adv-x="736" d="M147 546 L138 494 L178 494 C196 494 209.667 489.5 219 480.5 C228.333 471.5 233 459.667 233 445 C233 429.667 228.667 416.5 220 405.5 C211.333 394.5 198.333 389 181 389 C163 389 149.667 394.167 141 404.5 C132.333 414.833 128 428 128 444 L57 444 C55 410 64.3333 381.833 85 359.5 C105.667 337.167 137.333 326 180 326 C198.667 326 215.833 329 231.5 335 C247.167 341 260.833 349.167 272.5 359.5 C284.167 369.833 293.167 382.5 299.5 397.5 C305.833 412.5 309 429 309 447 C309 478.333 300.667 501.667 284 517 C267.333 532.333 248.667 542 228 546 L322 630 L333 692 L120 692 L109 628 L236 628 L147 546 Z M628 94 L667 94 L678 160 L640 160 L675 359 L602 359 L399 158 L388 94 L556 94 L540 1 L612 1 L628 94 Z M474 160 L587 270 L568 160 L474 160 Z M137 0 L729 692 L646 692 L53 0 L137 0 Z " />
<glyph glyph-name="questiondown" unicode="&#xbf;" horiz-adv-x="459" d="M214 417 L188 266 C158.667 265.333 132 260 108 250 C84 240 63.6667 226.333 47 209 C30.3333 191.667 17.5 171.167 8.5 147.5 C-0.5 123.833 -5 98.3333 -5 71 C-5 45 -0.833328 20.8333 7.5 -1.5 C15.8333 -23.8333 28.3333 -43.1667 45 -59.5 C61.6667 -75.8334 82.1667 -88.6667 106.5 -98 C130.833 -107.333 159 -112 191 -112 C231.667 -112 265.667 -104.5 293 -89.5 C320.333 -74.5 342.167 -56.1667 358.5 -34.5 C374.833 -12.8333 386.333 10 393 34 C399.664 58 403.33 79 404 97 L311 97 C310.333 85 308 71.6667 304 57 C300 42.3333 293.5 28.6667 284.5 16 C275.5 3.33333 263.5 -7.33333 248.5 -16 C233.5 -24.6667 214.667 -29 192 -29 C160.667 -29 136 -19.5 118 -0.5 C100 18.5 91 43 91 73 C91 115 102.667 145.667 126 165 C149.333 184.333 179.333 194 216 194 L269 194 L308 417 L214 417 Z M281 599 C262.333 599 246.667 592.667 234 580 C221.333 567.333 215 551.333 215 532 C215 512.667 221.167 496.833 233.5 484.5 C245.833 472.167 261.667 466 281 466 C300.333 466 316.167 472.167 328.5 484.5 C340.833 496.833 347 512.667 347 532 C347 551.333 340.833 567.333 328.5 580 C316.167 592.667 300.334 599 281 599 L281 599 Z " />
<glyph glyph-name="Agrave" unicode="&#xc0;" horiz-adv-x="620" d="M365 855 L280 855 L331 729 L413 729 L365 855 Z M430 229 L479 0 L576 0 L426 692 L327 692 L-43 0 L56 0 L178 229 L430 229 Z M222 312 L358 568 L412 312 L222 312 Z " />
<glyph glyph-name="Aacute" unicode="&#xc1;" horiz-adv-x="620" d="M520 855 L426 855 L338 729 L430 729 L520 855 Z M430 229 L479 0 L576 0 L426 692 L327 692 L-43 0 L56 0 L178 229 L430 229 Z M222 312 L358 568 L412 312 L222 312 Z " />
<glyph glyph-name="Acircumflex" unicode="&#xc2;" horiz-adv-x="620" d="M428 855 L344 855 L218 729 L311 729 L383 798 L436 729 L517 729 L428 855 Z M430 229 L479 0 L576 0 L426 692 L327 692 L-43 0 L56 0 L178 229 L430 229 Z M222 312 L358 568 L412 312 L222 312 Z " />
<glyph glyph-name="Atilde" unicode="&#xc3;" horiz-adv-x="620" d="M439 736 C469 736 492.5 746.833 509.5 768.5 C526.5 790.167 536.667 818.333 540 853 L471 853 C469 823 456.667 808 434 808 C424 808 415 810.333 407 815 C399 819.667 390.5 824.833 381.5 830.5 C372.5 836.167 363 841.333 353 846 C343 850.667 331 853 317 853 C285.667 853 261.334 841.667 244 819 C226.667 796.333 217 769 215 737 L283 737 C286.333 766.333 299.333 781 322 781 C331.333 781 340 778.667 348 774 C356 769.345 364.5 764.178 373.5 758.5 C382.5 752.845 392.167 747.678 402.5 743 C412.833 738.333 425 736 439 736 L439 736 Z M430 229 L479 0 L576 0 L426 692 L327 692 L-43 0 L56 0 L178 229 L430 229 Z M222 312 L358 568 L412 312 L222 312 Z " />
<glyph glyph-name="Adieresis" unicode="&#xc4;" horiz-adv-x="620" d="M287 736 C303 736 317 741.5 329 752.5 C341 763.5 347 777.667 347 795 C347 811.667 341.167 825.667 329.5 837 C317.833 848.333 303.667 854 287 854 C269.667 854 255.5 848.333 244.5 837 C233.5 825.667 228 811.667 228 795 C228 777.667 233.5 763.5 244.5 752.5 C255.5 741.5 269.667 736 287 736 L287 736 Z M473 736 C489.666 736 503.833 741.5 515.5 752.5 C527.167 763.5 533 777.667 533 795 C533 811.667 527.167 825.667 515.5 837 C503.833 848.333 489.667 854 473 854 C455.667 854 441.5 848.333 430.5 837 C419.5 825.667 414 811.667 414 795 C414 777.667 419.5 763.5 430.5 752.5 C441.5 741.5 455.667 736 473 736 L473 736 Z M430 229 L479 0 L576 0 L426 692 L327 692 L-43 0 L56 0 L178 229 L430 229 Z M222 312 L358 568 L412 312 L222 312 Z " />
<glyph glyph-name="Aring" unicode="&#xc5;" horiz-adv-x="620" d="M283 814 C283 786 292.167 763.167 310.5 745.5 C328.833 727.833 352.667 719 382 719 C415.333 719 441.167 729 459.5 749 C477.833 769 487 793.333 487 822 C487 850 478 872.833 460 890.5 C442 908.167 417.667 917 387 917 C371 917 356.667 914.167 344 908.5 C331.333 902.833 320.5 895.333 311.5 886 C302.5 876.667 295.5 865.833 290.5 853.5 C285.5 841.167 283 828 283 814 L283 814 Z M337 815 C337 829.667 341.5 842.167 350.5 852.5 C359.5 862.833 371.667 868 387 868 C401.667 868 413 863.667 421 855 C429 846.333 433 835.333 433 822 C433 804.667 428.333 791.333 419 782 C409.668 772.667 397.335 768 382 768 C368 768 357 772.5 349 781.5 C341 790.5 337 801.667 337 815 L337 815 Z M430 229 L479 0 L576 0 L426 692 L327 692 L-43 0 L56 0 L178 229 L430 229 Z M222 312 L358 568 L412 312 L222 312 Z " />
<glyph glyph-name="AE" unicode="&#xc6;" horiz-adv-x="765" d="M391 0 L687 0 L703 90 L503 90 L542 311 L732 311 L747 401 L558 401 L594 602 L788 602 L804 692 L471 692 L-45 0 L63 0 L212 200 L426 200 L391 0 Z M441 285 L275 285 L493 577 L441 285 Z " />
<glyph glyph-name="Ccedilla" unicode="&#xc7;" horiz-adv-x="606" d="M235 9 L217 -95 L232 -95 C247.333 -95 259.833 -98.8333 269.5 -106.5 C279.167 -114.167 284 -124.667 284 -138 C284 -158.667 277.167 -172.667 263.5 -180 C249.834 -187.333 233.667 -191 215 -191 L200 -191 L189 -252 L214 -252 C234 -252 252.333 -249.5 269 -244.5 C285.666 -239.5 300.333 -232.333 313 -223 C325.667 -213.667 335.5 -201.833 342.5 -187.5 C349.5 -173.167 353 -156.667 353 -138 C353 -114.667 347.333 -94.8333 336 -78.5 C324.667 -62.1667 307.667 -50.3333 285 -43 L291 -7 C313 -11 336.333 -13 361 -13 C409 -13 450 -6.16667 484 7.5 C518 21.1667 545.667 36.6667 567 54 L525 127 C507.667 114.333 486.167 102.833 460.5 92.5 C434.833 82.1667 402.333 77 363 77 C327.667 77 296.167 83.1667 268.5 95.5 C240.833 107.833 217.5 124.667 198.5 146 C179.5 167.333 165 192.833 155 222.5 C145 252.167 140 284.333 140 319 C140 361.667 146.333 401 159 437 C171.667 473 189.667 504.333 213 531 C236.333 557.667 264.5 578.5 297.5 593.5 C330.5 608.5 367.667 616 409 616 C449.667 616 483.5 609.333 510.5 596 C537.5 582.667 559.333 567.333 576 550 L643 618 C617.667 645.333 586 666.833 548 682.5 C510 698.167 464 706 410 706 C354.667 706 304.334 695.833 259 675.5 C213.667 655.167 174.667 627.5 142 592.5 C109.333 557.5 84.1667 516.5 66.5 469.5 C48.8333 422.5 40 372.333 40 319 C40 243.667 57.1667 179 91.5 125 C125.833 71 173.667 32.3333 235 9 L235 9 Z " />
<glyph glyph-name="Egrave" unicode="&#xc8;" horiz-adv-x="380" d="M273 855 L188 855 L239 729 L321 729 L273 855 Z M6 0 L301 0 L317 90 L118 90 L156 311 L346 311 L362 401 L173 401 L208 602 L403 602 L419 692 L128 692 L6 0 Z " />
<glyph glyph-name="Eacute" unicode="&#xc9;" horiz-adv-x="380" d="M410 855 L316 855 L228 729 L320 729 L410 855 Z M6 0 L301 0 L317 90 L118 90 L156 311 L346 311 L362 401 L173 401 L208 602 L403 602 L419 692 L128 692 L6 0 Z " />
<glyph glyph-name="Ecircumflex" unicode="&#xca;" horiz-adv-x="380" d="M334 855 L250 855 L124 729 L217 729 L289 798 L342 729 L423 729 L334 855 Z M6 0 L301 0 L317 90 L118 90 L156 311 L346 311 L362 401 L173 401 L208 602 L403 602 L419 692 L128 692 L6 0 Z " />
<glyph glyph-name="Edieresis" unicode="&#xcb;" horiz-adv-x="380" d="M194 736 C210 736 224 741.5 236 752.5 C248 763.5 254 777.667 254 795 C254 811.667 248.167 825.667 236.5 837 C224.834 848.333 210.667 854 194 854 C176.667 854 162.5 848.333 151.5 837 C140.5 825.667 135 811.667 135 795 C135 777.667 140.5 763.5 151.5 752.5 C162.5 741.5 176.667 736 194 736 L194 736 Z M380 736 C396.665 736 410.832 741.5 422.5 752.5 C434.167 763.5 440 777.667 440 795 C440 811.667 434.167 825.667 422.5 837 C410.833 848.333 396.667 854 380 854 C362.667 854 348.5 848.333 337.5 837 C326.5 825.667 321 811.667 321 795 C321 777.667 326.5 763.5 337.5 752.5 C348.5 741.5 362.667 736 380 736 L380 736 Z M6 0 L301 0 L317 90 L118 90 L156 311 L346 311 L362 401 L173 401 L208 602 L403 602 L419 692 L128 692 L6 0 Z " />
<glyph glyph-name="Igrave" unicode="&#xcc;" horiz-adv-x="201" d="M169 855 L84 855 L135 729 L217 729 L169 855 Z M102 0 L224 692 L128 692 L6 0 L102 0 Z " />
<glyph glyph-name="Iacute" unicode="&#xcd;" horiz-adv-x="201" d="M320 855 L226 855 L138 729 L230 729 L320 855 Z M102 0 L224 692 L128 692 L6 0 L102 0 Z " />
<glyph glyph-name="Icircumflex" unicode="&#xce;" horiz-adv-x="201" d="M238 855 L153 855 L34 729 L125 729 L192 799 L239 729 L318 729 L238 855 Z M102 0 L224 692 L128 692 L6 0 L102 0 Z " />
<glyph glyph-name="Idieresis" unicode="&#xcf;" horiz-adv-x="201" d="M105 736 C121.667 736 135.833 741.5 147.5 752.5 C159.167 763.5 165 777.667 165 795 C165 811.667 159.333 825.667 148 837 C136.667 848.333 122.333 854 105 854 C88.3333 854 74.3333 848.333 63 837 C51.6667 825.667 46 811.667 46 795 C46 777.667 51.6667 763.5 63 752.5 C74.3333 741.5 88.3333 736 105 736 L105 736 Z M273 736 C289.666 736 303.833 741.5 315.5 752.5 C327.167 763.5 333 777.667 333 795 C333 811.667 327.167 825.667 315.5 837 C303.833 848.333 289.667 854 273 854 C255.667 854 241.5 848.333 230.5 837 C219.5 825.667 214 811.667 214 795 C214 777.667 219.5 763.5 230.5 752.5 C241.5 741.5 255.667 736 273 736 L273 736 Z M102 0 L224 692 L128 692 L6 0 L102 0 Z " />
<glyph glyph-name="Eth" unicode="&#xd0;" horiz-adv-x="554" d="M68 307 L14 0 L149 0 C207 0 260.167 8.5 308.5 25.5 C356.833 42.5 398.333 67.5 433 100.5 C467.667 133.5 494.667 174 514 222 C533.333 270 543 325 543 387 C543 432.333 536.167 473.667 522.5 511 C508.833 548.333 489 580.5 463 607.5 C437 634.5 404.833 655.333 366.5 670 C328.167 684.667 284 692 234 692 L136 692 L84 398 L28 398 L12 307 L68 307 Z M180 398 L217 606 L238 606 C271.333 606 300.833 600.5 326.5 589.5 C352.167 578.5 373.667 563.167 391 543.5 C408.333 523.833 421.333 500.667 430 474 C438.667 447.333 443 418 443 386 C443 336 435.667 292.167 421 254.5 C406.333 216.833 386 185.5 360 160.5 C334 135.5 303.167 116.833 267.5 104.5 C231.833 92.1667 192.667 86 150 86 L126 86 L164 307 L275 307 L292 398 L180 398 Z " />
<glyph glyph-name="Ntilde" unicode="&#xd1;" horiz-adv-x="638" d="M477 736 C507 736 530.5 746.833 547.5 768.5 C564.5 790.167 574.667 818.333 578 853 L509 853 C507 823 494.667 808 472 808 C462 808 453 810.333 445 815 C437 819.667 428.5 824.833 419.5 830.5 C410.5 836.167 401 841.333 391 846 C381 850.667 369 853 355 853 C323.667 853 299.334 841.667 282 819 C264.667 796.333 255 769 253 737 L321 737 C324.333 766.333 337.333 781 360 781 C369.333 781 378 778.667 386 774 C394 769.345 402.5 764.178 411.5 758.5 C420.5 752.845 430.167 747.678 440.5 743 C450.833 738.333 463 736 477 736 L477 736 Z M192 533 L447 0 L539 0 L661 692 L569 692 L473 153 L222 692 L128 692 L6 0 L98 0 L192 533 Z " />
<glyph glyph-name="Ograve" unicode="&#xd2;" horiz-adv-x="747" d="M405 855 L320 855 L371 729 L453 729 L405 855 Z M40 321 C40 271 47.8333 225.333 63.5 184 C79.1666 142.667 101.333 107.5 130 78.5 C158.667 49.5 193.167 27 233.5 11 C273.833 -5 318.333 -13 367 -13 C421.667 -13 471.667 -3.16667 517 16.5 C562.333 36.1667 601.333 63.3333 634 98 C666.667 132.667 692 173.667 710 221 C728 268.333 737 320 737 376 C737 424.667 729.167 469.167 713.5 509.5 C697.833 549.833 675.833 584.5 647.5 613.5 C619.167 642.5 584.833 665.167 544.5 681.5 C504.167 697.833 459.667 706 411 706 C354.333 706 303.167 695.333 257.5 674 C211.833 652.667 172.833 624.167 140.5 588.5 C108.167 552.833 83.3333 511.833 66 465.5 C48.6667 419.167 40 371 40 321 L40 321 Z M409 616 C444.333 616 476 610 504 598 C532 586 555.833 569.5 575.5 548.5 C595.167 527.5 610.333 502.167 621 472.5 C631.667 442.833 637 410.667 637 376 C637 330.667 630.167 289.667 616.5 253 C602.833 216.333 583.833 184.833 559.5 158.5 C535.167 132.167 506.333 111.833 473 97.5 C439.667 83.1667 403.667 76 365 76 C330.333 76 299.167 82.1667 271.5 94.5 C243.834 106.833 220.167 124 200.5 146 C180.833 168 165.833 194 155.5 224 C145.167 254 140 286.333 140 321 C140 360.333 146.333 397.833 159 433.5 C171.667 469.167 189.667 500.5 213 527.5 C236.333 554.5 264.5 576 297.5 592 C330.5 608 367.667 616 409 616 L409 616 Z " />
<glyph glyph-name="Oacute" unicode="&#xd3;" horiz-adv-x="747" d="M547 855 L453 855 L365 729 L457 729 L547 855 Z M40 321 C40 271 47.8333 225.333 63.5 184 C79.1666 142.667 101.333 107.5 130 78.5 C158.667 49.5 193.167 27 233.5 11 C273.833 -5 318.333 -13 367 -13 C421.667 -13 471.667 -3.16667 517 16.5 C562.333 36.1667 601.333 63.3333 634 98 C666.667 132.667 692 173.667 710 221 C728 268.333 737 320 737 376 C737 424.667 729.167 469.167 713.5 509.5 C697.833 549.833 675.833 584.5 647.5 613.5 C619.167 642.5 584.833 665.167 544.5 681.5 C504.167 697.833 459.667 706 411 706 C354.333 706 303.167 695.333 257.5 674 C211.833 652.667 172.833 624.167 140.5 588.5 C108.167 552.833 83.3333 511.833 66 465.5 C48.6667 419.167 40 371 40 321 L40 321 Z M409 616 C444.333 616 476 610 504 598 C532 586 555.833 569.5 575.5 548.5 C595.167 527.5 610.333 502.167 621 472.5 C631.667 442.833 637 410.667 637 376 C637 330.667 630.167 289.667 616.5 253 C602.833 216.333 583.833 184.833 559.5 158.5 C535.167 132.167 506.333 111.833 473 97.5 C439.667 83.1667 403.667 76 365 76 C330.333 76 299.167 82.1667 271.5 94.5 C243.834 106.833 220.167 124 200.5 146 C180.833 168 165.833 194 155.5 224 C145.167 254 140 286.333 140 321 C140 360.333 146.333 397.833 159 433.5 C171.667 469.167 189.667 500.5 213 527.5 C236.333 554.5 264.5 576 297.5 592 C330.5 608 367.667 616 409 616 L409 616 Z " />
<glyph glyph-name="Ocircumflex" unicode="&#xd4;" horiz-adv-x="747" d="M486 855 L402 855 L276 729 L369 729 L441 798 L494 729 L575 729 L486 855 Z M40 321 C40 271 47.8333 225.333 63.5 184 C79.1666 142.667 101.333 107.5 130 78.5 C158.667 49.5 193.167 27 233.5 11 C273.833 -5 318.333 -13 367 -13 C421.667 -13 471.667 -3.16667 517 16.5 C562.333 36.1667 601.333 63.3333 634 98 C666.667 132.667 692 173.667 710 221 C728 268.333 737 320 737 376 C737 424.667 729.167 469.167 713.5 509.5 C697.833 549.833 675.833 584.5 647.5 613.5 C619.167 642.5 584.833 665.167 544.5 681.5 C504.167 697.833 459.667 706 411 706 C354.333 706 303.167 695.333 257.5 674 C211.833 652.667 172.833 624.167 140.5 588.5 C108.167 552.833 83.3333 511.833 66 465.5 C48.6667 419.167 40 371 40 321 L40 321 Z M409 616 C444.333 616 476 610 504 598 C532 586 555.833 569.5 575.5 548.5 C595.167 527.5 610.333 502.167 621 472.5 C631.667 442.833 637 410.667 637 376 C637 330.667 630.167 289.667 616.5 253 C602.833 216.333 583.833 184.833 559.5 158.5 C535.167 132.167 506.333 111.833 473 97.5 C439.667 83.1667 403.667 76 365 76 C330.333 76 299.167 82.1667 271.5 94.5 C243.834 106.833 220.167 124 200.5 146 C180.833 168 165.833 194 155.5 224 C145.167 254 140 286.333 140 321 C140 360.333 146.333 397.833 159 433.5 C171.667 469.167 189.667 500.5 213 527.5 C236.333 554.5 264.5 576 297.5 592 C330.5 608 367.667 616 409 616 L409 616 Z " />
<glyph glyph-name="Otilde" unicode="&#xd5;" horiz-adv-x="747" d="M508 736 C538 736 561.5 746.833 578.5 768.5 C595.5 790.167 605.667 818.333 609 853 L540 853 C538 823 525.667 808 503 808 C493 808 484 810.333 476 815 C468 819.667 459.5 824.833 450.5 830.5 C441.5 836.167 432 841.333 422 846 C412 850.667 400 853 386 853 C354.667 853 330.334 841.667 313 819 C295.667 796.333 286 769 284 737 L352 737 C355.333 766.333 368.333 781 391 781 C400.333 781 409 778.667 417 774 C425 769.345 433.5 764.178 442.5 758.5 C451.5 752.845 461.167 747.678 471.5 743 C481.833 738.333 494 736 508 736 L508 736 Z M40 321 C40 271 47.8333 225.333 63.5 184 C79.1666 142.667 101.333 107.5 130 78.5 C158.667 49.5 193.167 27 233.5 11 C273.833 -5 318.333 -13 367 -13 C421.667 -13 471.667 -3.16667 517 16.5 C562.333 36.1667 601.333 63.3333 634 98 C666.667 132.667 692 173.667 710 221 C728 268.333 737 320 737 376 C737 424.667 729.167 469.167 713.5 509.5 C697.833 549.833 675.833 584.5 647.5 613.5 C619.167 642.5 584.833 665.167 544.5 681.5 C504.167 697.833 459.667 706 411 706 C354.333 706 303.167 695.333 257.5 674 C211.833 652.667 172.833 624.167 140.5 588.5 C108.167 552.833 83.3333 511.833 66 465.5 C48.6667 419.167 40 371 40 321 L40 321 Z M409 616 C444.333 616 476 610 504 598 C532 586 555.833 569.5 575.5 548.5 C595.167 527.5 610.333 502.167 621 472.5 C631.667 442.833 637 410.667 637 376 C637 330.667 630.167 289.667 616.5 253 C602.833 216.333 583.833 184.833 559.5 158.5 C535.167 132.167 506.333 111.833 473 97.5 C439.667 83.1667 403.667 76 365 76 C330.333 76 299.167 82.1667 271.5 94.5 C243.834 106.833 220.167 124 200.5 146 C180.833 168 165.833 194 155.5 224 C145.167 254 140 286.333 140 321 C140 360.333 146.333 397.833 159 433.5 C171.667 469.167 189.667 500.5 213 527.5 C236.333 554.5 264.5 576 297.5 592 C330.5 608 367.667 616 409 616 L409 616 Z " />
<glyph glyph-name="Odieresis" unicode="&#xd6;" horiz-adv-x="747" d="M347 736 C363 736 377 741.5 389 752.5 C401 763.5 407 777.667 407 795 C407 811.667 401.167 825.667 389.5 837 C377.833 848.333 363.667 854 347 854 C329.667 854 315.5 848.333 304.5 837 C293.5 825.667 288 811.667 288 795 C288 777.667 293.5 763.5 304.5 752.5 C315.5 741.5 329.667 736 347 736 L347 736 Z M533 736 C549.667 736 563.833 741.5 575.5 752.5 C587.167 763.5 593 777.667 593 795 C593 811.667 587.167 825.667 575.5 837 C563.838 848.333 549.671 854 533 854 C515.667 854 501.5 848.333 490.5 837 C479.5 825.667 474 811.667 474 795 C474 777.667 479.5 763.5 490.5 752.5 C501.498 741.5 515.665 736 533 736 L533 736 Z M40 321 C40 271 47.8333 225.333 63.5 184 C79.1666 142.667 101.333 107.5 130 78.5 C158.667 49.5 193.167 27 233.5 11 C273.833 -5 318.333 -13 367 -13 C421.667 -13 471.667 -3.16667 517 16.5 C562.333 36.1667 601.333 63.3333 634 98 C666.667 132.667 692 173.667 710 221 C728 268.333 737 320 737 376 C737 424.667 729.167 469.167 713.5 509.5 C697.833 549.833 675.833 584.5 647.5 613.5 C619.167 642.5 584.833 665.167 544.5 681.5 C504.167 697.833 459.667 706 411 706 C354.333 706 303.167 695.333 257.5 674 C211.833 652.667 172.833 624.167 140.5 588.5 C108.167 552.833 83.3333 511.833 66 465.5 C48.6667 419.167 40 371 40 321 L40 321 Z M409 616 C444.333 616 476 610 504 598 C532 586 555.833 569.5 575.5 548.5 C595.167 527.5 610.333 502.167 621 472.5 C631.667 442.833 637 410.667 637 376 C637 330.667 630.167 289.667 616.5 253 C602.833 216.333 583.833 184.833 559.5 158.5 C535.167 132.167 506.333 111.833 473 97.5 C439.667 83.1667 403.667 76 365 76 C330.333 76 299.167 82.1667 271.5 94.5 C243.834 106.833 220.167 124 200.5 146 C180.833 168 165.833 194 155.5 224 C145.167 254 140 286.333 140 321 C140 360.333 146.333 397.833 159 433.5 C171.667 469.167 189.667 500.5 213 527.5 C236.333 554.5 264.5 576 297.5 592 C330.5 608 367.667 616 409 616 L409 616 Z " />
<glyph glyph-name="multiply" unicode="&#xd7;" horiz-adv-x="424" d="M131 519 L67 466 L169 339 L24 213 L74 154 L218 279 L320 154 L381 204 L279 332 L425 459 L375 519 L231 393 L131 519 Z " />
<glyph glyph-name="Oslash" unicode="&#xd8;" horiz-adv-x="747" d="M736 625 L678 686 L619 631 C591.667 654.331 560.167 672.664 524.5 686 C488.833 699.333 449 706 405 706 C347.667 706 296 695.333 250 674 C204 652.667 165 624.167 133 588.5 C101 552.833 76.3333 511.833 59 465.5 C41.6667 419.167 33 371 33 321 C33 244.333 51.3333 178.667 88 124 L24 64 L81 5 L144 64 C172 39.3333 204.167 20.3333 240.5 7 C276.833 -6.33333 317 -13 361 -13 C415.667 -13 465.5 -3.16667 510.5 16.5 C555.5 36.1667 594.333 63.3333 627 98 C659.667 132.667 685 173.667 703 221 C721 268.333 730 320 730 376 C730 450 711.667 514 675 568 L736 625 Z M631 376 C631 330.667 624.167 289.667 610.5 253 C596.833 216.333 577.833 184.833 553.5 158.5 C529.167 132.167 500.333 111.833 467 97.5 C433.667 83.1667 397.334 76 358 76 C328 76 300.833 80.6667 276.5 90 C252.167 99.3333 230.333 112.333 211 129 L603 500 C621.667 464 631 422.667 631 376 L631 376 Z M403 616 C462.333 616 511.667 599.333 551 566 L161 194 C142.333 231.333 133 273.667 133 321 C133 360.333 139.333 397.833 152 433.5 C164.667 469.167 182.667 500.5 206 527.5 C229.333 554.5 257.667 576 291 592 C324.333 608 361.667 616 403 616 L403 616 Z " />
<glyph glyph-name="Ugrave" unicode="&#xd9;" horiz-adv-x="610" d="M381 855 L296 855 L347 729 L429 729 L381 855 Z M123 692 L48 264 C40.6667 224 40.6667 187.167 48 153.5 C55.3333 119.833 69 90.6667 89 66 C109 41.3333 135.5 22.1667 168.5 8.5 C201.5 -5.16667 240 -12 284 -12 C362.666 -12 424.833 11.1667 470.5 57.5 C516.167 103.833 546.667 171.667 562 261 L637 692 L542 692 L466 266 C461.333 238.667 454.667 213.5 446 190.5 C437.333 167.5 425.833 147.667 411.5 131 C397.167 114.333 379.667 101.333 359 92 C338.333 82.6667 313.667 78 285 78 C229.667 78 190 95.1666 166 129.5 C142 163.833 135 210.333 145 269 L220 692 L123 692 Z " />
<glyph glyph-name="Uacute" unicode="&#xda;" horiz-adv-x="610" d="M505 855 L411 855 L323 729 L415 729 L505 855 Z M123 692 L48 264 C40.6667 224 40.6667 187.167 48 153.5 C55.3333 119.833 69 90.6667 89 66 C109 41.3333 135.5 22.1667 168.5 8.5 C201.5 -5.16667 240 -12 284 -12 C362.666 -12 424.833 11.1667 470.5 57.5 C516.167 103.833 546.667 171.667 562 261 L637 692 L542 692 L466 266 C461.333 238.667 454.667 213.5 446 190.5 C437.333 167.5 425.833 147.667 411.5 131 C397.167 114.333 379.667 101.333 359 92 C338.333 82.6667 313.667 78 285 78 C229.667 78 190 95.1666 166 129.5 C142 163.833 135 210.333 145 269 L220 692 L123 692 Z " />
<glyph glyph-name="Ucircumflex" unicode="&#xdb;" horiz-adv-x="610" d="M440 855 L356 855 L230 729 L323 729 L395 798 L448 729 L529 729 L440 855 Z M123 692 L48 264 C40.6667 224 40.6667 187.167 48 153.5 C55.3333 119.833 69 90.6667 89 66 C109 41.3333 135.5 22.1667 168.5 8.5 C201.5 -5.16667 240 -12 284 -12 C362.666 -12 424.833 11.1667 470.5 57.5 C516.167 103.833 546.667 171.667 562 261 L637 692 L542 692 L466 266 C461.333 238.667 454.667 213.5 446 190.5 C437.333 167.5 425.833 147.667 411.5 131 C397.167 114.333 379.667 101.333 359 92 C338.333 82.6667 313.667 78 285 78 C229.667 78 190 95.1666 166 129.5 C142 163.833 135 210.333 145 269 L220 692 L123 692 Z " />
<glyph glyph-name="Udieresis" unicode="&#xdc;" horiz-adv-x="610" d="M297 736 C313 736 327 741.5 339 752.5 C351 763.5 357 777.667 357 795 C357 811.667 351.167 825.667 339.5 837 C327.833 848.333 313.667 854 297 854 C279.667 854 265.5 848.333 254.5 837 C243.5 825.667 238 811.667 238 795 C238 777.667 243.5 763.5 254.5 752.5 C265.5 741.5 279.667 736 297 736 L297 736 Z M483 736 C499.667 736 513.833 741.5 525.5 752.5 C537.167 763.5 543 777.667 543 795 C543 811.667 537.167 825.667 525.5 837 C513.833 848.333 499.667 854 483 854 C465.667 854 451.5 848.333 440.5 837 C429.5 825.667 424 811.667 424 795 C424 777.667 429.5 763.5 440.5 752.5 C451.5 741.5 465.667 736 483 736 L483 736 Z M123 692 L48 264 C40.6667 224 40.6667 187.167 48 153.5 C55.3333 119.833 69 90.6667 89 66 C109 41.3333 135.5 22.1667 168.5 8.5 C201.5 -5.16667 240 -12 284 -12 C362.666 -12 424.833 11.1667 470.5 57.5 C516.167 103.833 546.667 171.667 562 261 L637 692 L542 692 L466 266 C461.333 238.667 454.667 213.5 446 190.5 C437.333 167.5 425.833 147.667 411.5 131 C397.167 114.333 379.667 101.333 359 92 C338.333 82.6667 313.667 78 285 78 C229.667 78 190 95.1666 166 129.5 C142 163.833 135 210.333 145 269 L220 692 L123 692 Z " />
<glyph glyph-name="Yacute" unicode="&#xdd;" horiz-adv-x="461" d="M432 855 L338 855 L250 729 L342 729 L432 855 Z M65 692 L196 355 L133 0 L229 0 L292 353 L541 692 L434 692 L257 450 L166 692 L65 692 Z " />
<glyph glyph-name="Thorn" unicode="&#xde;" horiz-adv-x="453" d="M447 374 C447 430.667 430 473.167 396 501.5 C362 529.833 315 544 255 544 L197 544 L224 692 L128 692 L6 0 L102 0 L130 161 L219 161 C251.667 161 282 165.667 310 175 C338 184.333 362.167 198.167 382.5 216.5 C402.833 234.833 418.667 257.167 430 283.5 C441.333 309.833 447 340 447 374 L447 374 Z M182 458 L254 458 C284.667 458 307.5 449.833 322.5 433.5 C337.5 417.167 345 396.667 345 372 C345 331.333 333.667 300.5 311 279.5 C288.333 258.5 258 248 220 248 L145 248 L182 458 Z " />
<glyph glyph-name="germandbls" unicode="&#xdf;" horiz-adv-x="497" d="M469 259 C469 303.667 459 340.833 439 370.5 C419 400.166 394.667 422.333 366 437 C392.667 447.667 415.167 465.167 433.5 489.5 C451.833 513.832 461 544.666 461 582 C461 602.667 457.5 622.5 450.5 641.5 C443.5 660.5 432.667 677 418 691 C403.333 705 385.167 716.167 363.5 724.5 C341.833 732.833 316.333 737 287 737 C256.333 737 230.167 732.167 208.5 722.5 C186.833 712.833 168.5 699.833 153.5 683.5 C138.5 667.167 126.667 647.833 118 625.5 C109.333 603.167 103 579.333 99 554 L1 0 L94 0 L192 553 C194 566.329 197.167 579.162 201.5 591.5 C205.833 603.833 211.5 614.833 218.5 624.5 C225.5 634.167 234.667 642 246 648 C257.333 654 271 657 287 657 C312.333 657 332.167 649.667 346.5 635 C360.833 620.336 368 600.669 368 576 C368 558.667 365 543.667 359 531 C353 518.335 345.333 507.835 336 499.5 C326.667 491.168 315.667 484.834 303 480.5 C290.333 476.167 277.667 474 265 474 L244 474 L230 395 C248.667 395 266.667 392.167 284 386.5 C301.333 380.833 316.667 372.167 330 360.5 C343.333 348.833 354 334.333 362 317 C370 299.667 374 279 374 255 C374 226.334 369.667 201.167 361 179.5 C352.333 157.833 340.333 139.667 325 125 C309.667 110.333 291.334 99.3333 270 92 C248.667 84.6667 225.667 81 201 81 L175 81 L161 0 L201 0 C242.333 0 279.5 6 312.5 18 C345.5 30 373.667 47.1667 397 69.5 C420.333 91.8333 438.167 119 450.5 151 C462.833 183 469 219 469 259 L469 259 Z " />
<glyph glyph-name="agrave" unicode="&#xe0;" horiz-adv-x="454" d="M12 157 C12 132.333 16.1667 109.833 24.5 89.5 C32.8333 69.1667 44.5 51.8333 59.5 37.5 C74.5 23.1667 92.3333 12 113 4 C133.667 -4 156.333 -8 181 -8 C205 -8 227 -3.5 247 5.5 C267 14.5 282 25.6667 292 39 L286 0 L362 0 L421 340 C425.667 369.333 425.833 396.333 421.5 421 C417.168 445.666 407.835 466.832 393.5 484.5 C379.167 502.167 360.167 516 336.5 526 C312.833 536 284 541 250 541 C220 541 194.167 536.5 172.5 527.5 C150.833 518.5 132.833 506.5 118.5 491.5 C104.167 476.5 92.8334 459.167 84.5 439.5 C76.1667 419.833 70.6667 399.667 68 379 L155 379 C157 390.333 160.167 401.167 164.5 411.5 C168.833 421.833 174.666 430.833 182 438.5 C189.333 446.163 198.5 452.33 209.5 457 C220.5 461.667 234 464 250 464 C282 464 305 454 319 434 C333 414 337 386.667 331 352 L321 297 C313 309.667 298.5 321.167 277.5 331.5 C256.5 341.833 231 347 201 347 C171.667 347 145.333 342 122 332 C98.6667 322 78.8334 308.333 62.5 291 C46.1667 273.667 33.6667 253.5 25 230.5 C16.3333 207.5 12 183 12 157 L12 157 Z M208 271 C236 271 258.5 262.833 275.5 246.5 C292.5 230.167 301 208.333 301 181 C301 164.333 298.167 149.167 292.5 135.5 C286.833 121.833 279.167 110.167 269.5 100.5 C259.833 90.8333 248.5 83.3333 235.5 78 C222.5 72.6667 208.667 70 194 70 C166 70 143.667 78.5 127 95.5 C110.333 112.5 102 133.667 102 159 C102 191 111.667 217.667 131 239 C150.333 260.333 176 271 208 271 L208 271 Z M264 714 L180 714 L234 579 L315 579 L264 714 Z " />
<glyph glyph-name="aacute" unicode="&#xe1;" horiz-adv-x="454" d="M12 157 C12 132.333 16.1667 109.833 24.5 89.5 C32.8333 69.1667 44.5 51.8333 59.5 37.5 C74.5 23.1667 92.3333 12 113 4 C133.667 -4 156.333 -8 181 -8 C205 -8 227 -3.5 247 5.5 C267 14.5 282 25.6667 292 39 L286 0 L362 0 L421 340 C425.667 369.333 425.833 396.333 421.5 421 C417.168 445.666 407.835 466.832 393.5 484.5 C379.167 502.167 360.167 516 336.5 526 C312.833 536 284 541 250 541 C220 541 194.167 536.5 172.5 527.5 C150.833 518.5 132.833 506.5 118.5 491.5 C104.167 476.5 92.8334 459.167 84.5 439.5 C76.1667 419.833 70.6667 399.667 68 379 L155 379 C157 390.333 160.167 401.167 164.5 411.5 C168.833 421.833 174.666 430.833 182 438.5 C189.333 446.163 198.5 452.33 209.5 457 C220.5 461.667 234 464 250 464 C282 464 305 454 319 434 C333 414 337 386.667 331 352 L321 297 C313 309.667 298.5 321.167 277.5 331.5 C256.5 341.833 231 347 201 347 C171.667 347 145.333 342 122 332 C98.6667 322 78.8334 308.333 62.5 291 C46.1667 273.667 33.6667 253.5 25 230.5 C16.3333 207.5 12 183 12 157 L12 157 Z M208 271 C236 271 258.5 262.833 275.5 246.5 C292.5 230.167 301 208.333 301 181 C301 164.333 298.167 149.167 292.5 135.5 C286.833 121.833 279.167 110.167 269.5 100.5 C259.833 90.8333 248.5 83.3333 235.5 78 C222.5 72.6667 208.667 70 194 70 C166 70 143.667 78.5 127 95.5 C110.333 112.5 102 133.667 102 159 C102 191 111.667 217.667 131 239 C150.333 260.333 176 271 208 271 L208 271 Z M404 714 L313 714 L218 579 L309 579 L404 714 Z " />
<glyph glyph-name="acircumflex" unicode="&#xe2;" horiz-adv-x="454" d="M12 157 C12 132.333 16.1667 109.833 24.5 89.5 C32.8333 69.1667 44.5 51.8333 59.5 37.5 C74.5 23.1667 92.3333 12 113 4 C133.667 -4 156.333 -8 181 -8 C205 -8 227 -3.5 247 5.5 C267 14.5 282 25.6667 292 39 L286 0 L362 0 L421 340 C425.667 369.333 425.833 396.333 421.5 421 C417.168 445.666 407.835 466.832 393.5 484.5 C379.167 502.167 360.167 516 336.5 526 C312.833 536 284 541 250 541 C220 541 194.167 536.5 172.5 527.5 C150.833 518.5 132.833 506.5 118.5 491.5 C104.167 476.5 92.8334 459.167 84.5 439.5 C76.1667 419.833 70.6667 399.667 68 379 L155 379 C157 390.333 160.167 401.167 164.5 411.5 C168.833 421.833 174.666 430.833 182 438.5 C189.333 446.163 198.5 452.33 209.5 457 C220.5 461.667 234 464 250 464 C282 464 305 454 319 434 C333 414 337 386.667 331 352 L321 297 C313 309.667 298.5 321.167 277.5 331.5 C256.5 341.833 231 347 201 347 C171.667 347 145.333 342 122 332 C98.6667 322 78.8334 308.333 62.5 291 C46.1667 273.667 33.6667 253.5 25 230.5 C16.3333 207.5 12 183 12 157 L12 157 Z M208 271 C236 271 258.5 262.833 275.5 246.5 C292.5 230.167 301 208.333 301 181 C301 164.333 298.167 149.167 292.5 135.5 C286.833 121.833 279.167 110.167 269.5 100.5 C259.833 90.8333 248.5 83.3333 235.5 78 C222.5 72.6667 208.667 70 194 70 C166 70 143.667 78.5 127 95.5 C110.333 112.5 102 133.667 102 159 C102 191 111.667 217.667 131 239 C150.333 260.333 176 271 208 271 L208 271 Z M337 715 L251 715 L129 575 L217 575 L290 655 L340 575 L418 575 L337 715 Z " />
<glyph glyph-name="atilde" unicode="&#xe3;" horiz-adv-x="454" d="M12 157 C12 132.333 16.1667 109.833 24.5 89.5 C32.8333 69.1667 44.5 51.8333 59.5 37.5 C74.5 23.1667 92.3333 12 113 4 C133.667 -4 156.333 -8 181 -8 C205 -8 227 -3.5 247 5.5 C267 14.5 282 25.6667 292 39 L286 0 L362 0 L421 340 C425.667 369.333 425.833 396.333 421.5 421 C417.168 445.666 407.835 466.832 393.5 484.5 C379.167 502.167 360.167 516 336.5 526 C312.833 536 284 541 250 541 C220 541 194.167 536.5 172.5 527.5 C150.833 518.5 132.833 506.5 118.5 491.5 C104.167 476.5 92.8334 459.167 84.5 439.5 C76.1667 419.833 70.6667 399.667 68 379 L155 379 C157 390.333 160.167 401.167 164.5 411.5 C168.833 421.833 174.666 430.833 182 438.5 C189.333 446.163 198.5 452.33 209.5 457 C220.5 461.667 234 464 250 464 C282 464 305 454 319 434 C333 414 337 386.667 331 352 L321 297 C313 309.667 298.5 321.167 277.5 331.5 C256.5 341.833 231 347 201 347 C171.667 347 145.333 342 122 332 C98.6667 322 78.8334 308.333 62.5 291 C46.1667 273.667 33.6667 253.5 25 230.5 C16.3333 207.5 12 183 12 157 L12 157 Z M208 271 C236 271 258.5 262.833 275.5 246.5 C292.5 230.167 301 208.333 301 181 C301 164.333 298.167 149.167 292.5 135.5 C286.833 121.833 279.167 110.167 269.5 100.5 C259.833 90.8333 248.5 83.3333 235.5 78 C222.5 72.6667 208.667 70 194 70 C166 70 143.667 78.5 127 95.5 C110.333 112.5 102 133.667 102 159 C102 191 111.667 217.667 131 239 C150.333 260.333 176 271 208 271 L208 271 Z M348 582 C378 582 401.5 592.833 418.5 614.5 C435.5 636.167 445.667 664.333 449 699 L380 699 C378.67 684.336 374.836 673.169 368.5 665.5 C362.167 657.833 354 654 344 654 C334 654 325 656.333 317 661 C309 665.667 300.667 670.833 292 676.5 C283.333 682.167 274 687.333 264 692 C254 696.667 242 699 228 699 C212.667 699 198.833 695.833 186.5 689.5 C174.167 683.167 163.667 674.833 155 664.5 C146.333 654.167 139.5 642 134.5 628 C129.5 614 126.667 599 126 583 L194 583 C195.333 596.333 199.166 607 205.5 615 C211.833 623 220.666 627 232 627 C241.333 627 250 624.667 258 620 C266 615.343 274.333 610.176 283 604.5 C291.667 598.838 301.167 593.671 311.5 589 C321.833 584.333 334 582 348 582 L348 582 Z " />
<glyph glyph-name="adieresis" unicode="&#xe4;" horiz-adv-x="454" d="M12 157 C12 132.333 16.1667 109.833 24.5 89.5 C32.8333 69.1667 44.5 51.8333 59.5 37.5 C74.5 23.1667 92.3333 12 113 4 C133.667 -4 156.333 -8 181 -8 C205 -8 227 -3.5 247 5.5 C267 14.5 282 25.6667 292 39 L286 0 L362 0 L421 340 C425.667 369.333 425.833 396.333 421.5 421 C417.168 445.666 407.835 466.832 393.5 484.5 C379.167 502.167 360.167 516 336.5 526 C312.833 536 284 541 250 541 C220 541 194.167 536.5 172.5 527.5 C150.833 518.5 132.833 506.5 118.5 491.5 C104.167 476.5 92.8334 459.167 84.5 439.5 C76.1667 419.833 70.6667 399.667 68 379 L155 379 C157 390.333 160.167 401.167 164.5 411.5 C168.833 421.833 174.666 430.833 182 438.5 C189.333 446.163 198.5 452.33 209.5 457 C220.5 461.667 234 464 250 464 C282 464 305 454 319 434 C333 414 337 386.667 331 352 L321 297 C313 309.667 298.5 321.167 277.5 331.5 C256.5 341.833 231 347 201 347 C171.667 347 145.333 342 122 332 C98.6667 322 78.8334 308.333 62.5 291 C46.1667 273.667 33.6667 253.5 25 230.5 C16.3333 207.5 12 183 12 157 L12 157 Z M208 271 C236 271 258.5 262.833 275.5 246.5 C292.5 230.167 301 208.333 301 181 C301 164.333 298.167 149.167 292.5 135.5 C286.833 121.833 279.167 110.167 269.5 100.5 C259.833 90.8333 248.5 83.3333 235.5 78 C222.5 72.6667 208.667 70 194 70 C166 70 143.667 78.5 127 95.5 C110.333 112.5 102 133.667 102 159 C102 191 111.667 217.667 131 239 C150.333 260.333 176 271 208 271 L208 271 Z M200 590 C216 590 229.833 595.667 241.5 607 C253.167 618.333 259 632.333 259 649 C259 665.667 253.333 679.667 242 691 C230.667 702.333 216.667 708 200 708 C182.667 708 168.5 702.333 157.5 691 C146.5 679.667 141 665.667 141 649 C141 632.333 146.5 618.333 157.5 607 C168.5 595.667 182.667 590 200 590 L200 590 Z M370 590 C386 590 399.833 595.667 411.5 607 C423.167 618.333 429 632.333 429 649 C429 665.667 423.167 679.667 411.5 691 C399.833 702.333 386 708 370 708 C352.667 708 338.5 702.333 327.5 691 C316.5 679.667 311 665.667 311 649 C311 632.333 316.5 618.333 327.5 607 C338.5 595.667 352.667 590 370 590 L370 590 Z " />
<glyph glyph-name="aring" unicode="&#xe5;" horiz-adv-x="454" d="M12 157 C12 132.333 16.1667 109.833 24.5 89.5 C32.8333 69.1667 44.5 51.8333 59.5 37.5 C74.5 23.1667 92.3333 12 113 4 C133.667 -4 156.333 -8 181 -8 C205 -8 227 -3.5 247 5.5 C267 14.5 282 25.6667 292 39 L286 0 L362 0 L421 340 C425.667 369.333 425.833 396.333 421.5 421 C417.168 445.666 407.835 466.832 393.5 484.5 C379.167 502.167 360.167 516 336.5 526 C312.833 536 284 541 250 541 C220 541 194.167 536.5 172.5 527.5 C150.833 518.5 132.833 506.5 118.5 491.5 C104.167 476.5 92.8334 459.167 84.5 439.5 C76.1667 419.833 70.6667 399.667 68 379 L155 379 C157 390.333 160.167 401.167 164.5 411.5 C168.833 421.833 174.666 430.833 182 438.5 C189.333 446.163 198.5 452.33 209.5 457 C220.5 461.667 234 464 250 464 C282 464 305 454 319 434 C333 414 337 386.667 331 352 L321 297 C313 309.667 298.5 321.167 277.5 331.5 C256.5 341.833 231 347 201 347 C171.667 347 145.333 342 122 332 C98.6667 322 78.8334 308.333 62.5 291 C46.1667 273.667 33.6667 253.5 25 230.5 C16.3333 207.5 12 183 12 157 L12 157 Z M208 271 C236 271 258.5 262.833 275.5 246.5 C292.5 230.167 301 208.333 301 181 C301 164.333 298.167 149.167 292.5 135.5 C286.833 121.833 279.167 110.167 269.5 100.5 C259.833 90.8333 248.5 83.3333 235.5 78 C222.5 72.6667 208.667 70 194 70 C166 70 143.667 78.5 127 95.5 C110.333 112.5 102 133.667 102 159 C102 191 111.667 217.667 131 239 C150.333 260.333 176 271 208 271 L208 271 Z M185 658 C185 630 194.333 607.333 213 590 C231.667 572.667 255.333 564 284 564 C317.333 564 343.333 574 362 594 C380.667 614 390 638.333 390 667 C390 694.333 380.833 716.833 362.5 734.5 C344.167 752.167 319.667 761 289 761 C273 761 258.667 758.167 246 752.5 C233.333 746.833 222.5 739.333 213.5 730 C204.5 720.667 197.5 709.833 192.5 697.5 C187.5 685.167 185 672 185 658 L185 658 Z M238 659 C238 674.331 242.833 687.164 252.5 697.5 C262.167 707.833 274.667 713 290 713 C304.667 713 316.167 708.667 324.5 700 C332.833 691.333 337 680.333 337 667 C337 649.667 332 636.167 322 626.5 C312 616.833 299.667 612 285 612 C271 612 259.667 616.5 251 625.5 C242.333 634.5 238 645.667 238 659 L238 659 Z " />
<glyph glyph-name="ae" unicode="&#xe6;" horiz-adv-x="835" d="M193 -9 C213 -9 231.5 -6.16667 248.5 -0.5 C265.5 5.16667 280.5 12.5 293.5 21.5 C306.5 30.5 317.833 41 327.5 53 C337.167 65 345 77.3333 351 90 C371 58 398.5 33.5 433.5 16.5 C468.5 -0.5 509.333 -9 556 -9 C585.333 -9 612.333 -5.33333 637 2 C661.667 9.33333 684 19.3333 704 32 C724 44.6667 741.5 59.5 756.5 76.5 C771.5 93.5 784.333 112 795 132 L732 177 C712.667 145.667 689.333 120.833 662 102.5 C634.667 84.1667 599.333 75 556 75 C504 75 464.5 89.6667 437.5 119 C410.5 148.333 397 186.333 397 233 L397 238 L813 238 C815 247.333 816.667 257.833 818 269.5 C819.333 281.167 820 292.667 820 304 C820 340.667 814.333 373.667 803 403 C791.667 432.333 775.5 457.5 754.5 478.5 C733.5 499.499 707.833 515.666 677.5 527 C647.167 538.333 613 544 575 544 C537 544 502 535.833 470 519.5 C438 503.168 411.667 481.334 391 454 C382.333 477.333 366.333 497.667 343 515 C319.667 532.333 287 541 245 541 C215.667 541 190.5 536.5 169.5 527.5 C148.5 518.5 130.833 506.5 116.5 491.5 C102.167 476.5 90.8333 459.167 82.5 439.5 C74.1667 419.833 68.6667 399.667 66 379 L154 379 C156 390.333 159 401.167 163 411.5 C167 421.833 172.5 430.833 179.5 438.5 C186.5 446.163 195.167 452.33 205.5 457 C215.833 461.667 228.666 464 244 464 C274.667 464 296.333 454.167 309 434.5 C321.664 414.833 325.331 387.667 320 353 L312 304 C303.333 313.333 290.333 322.167 273 330.5 C255.667 338.833 232 343 202 343 C172 343 145.333 338.167 122 328.5 C98.6667 318.833 78.8334 305.5 62.5 288.5 C46.1667 271.5 33.6667 251.667 25 229 C16.3333 206.333 12 182 12 156 C12 132 16.3333 109.833 25 89.5 C33.6667 69.1667 45.8333 51.8333 61.5 37.5 C77.1667 23.1667 96.1667 11.8333 118.5 3.5 C140.833 -4.83333 165.667 -9 193 -9 L193 -9 Z M573 463 C623 463 661 449.167 687 421.5 C713 393.833 725.667 357 725 311 L406 311 C414 357.667 432.833 394.667 462.5 422 C492.167 449.333 529 463 573 463 L573 463 Z M209 272 C237 272 259.5 263.833 276.5 247.5 C293.5 231.167 302 209 302 181 C302 163.667 299.167 148.167 293.5 134.5 C287.833 120.833 280.167 109.167 270.5 99.5 C260.833 89.8333 249.5 82.3333 236.5 77 C223.5 71.6667 209.667 69 195 69 C166.333 69 143.5 77.6667 126.5 95 C109.5 112.333 101 133.667 101 159 C101 191.667 110.667 218.667 130 240 C149.333 261.333 175.667 272 209 272 L209 272 Z " />
<glyph glyph-name="ccedilla" unicode="&#xe7;" horiz-adv-x="500" d="M181 7 L163 -95 L178 -95 C193.333 -95 205.833 -98.8333 215.5 -106.5 C225.167 -114.167 230 -124.667 230 -138 C230 -158.667 223.167 -172.667 209.5 -180 C195.834 -187.333 179.667 -191 161 -191 L146 -191 L135 -252 L160 -252 C180 -252 198.333 -249.5 215 -244.5 C231.667 -239.5 246.333 -232.333 259 -223 C271.667 -213.667 281.5 -201.833 288.5 -187.5 C295.5 -173.167 299 -156.667 299 -138 C299 -114.667 293.333 -94.8333 282 -78.5 C270.667 -62.1667 253.667 -50.3333 231 -43 L237 -6 C249.667 -8 262.667 -9 276 -9 C298.667 -9 319.5 -6.83333 338.5 -2.5 C357.5 1.83333 374.667 7.5 390 14.5 C405.333 21.5 418.833 29.3333 430.5 38 C442.167 46.6667 452.333 55.3333 461 64 L417 128 C399 112.667 379.5 100.167 358.5 90.5 C337.5 80.8333 311.333 76 280 76 C256.667 76 235.167 80.1667 215.5 88.5 C195.833 96.8333 179 108.667 165 124 C151 139.333 140 157.5 132 178.5 C124 199.5 120 222.667 120 248 C120 277.333 124.5 304.833 133.5 330.5 C142.5 356.167 155.167 378.5 171.5 397.5 C187.833 416.5 207.666 431.5 231 442.5 C254.333 453.5 280 459 308 459 C340 459 367 453.167 389 441.5 C411 429.833 429 416 443 400 L506 459 C498.667 468.333 489.5 478 478.5 488 C467.5 498 454 507.167 438 515.5 C422 523.829 403.333 530.663 382 536 C360.667 541.333 336.667 544 310 544 C266.667 544 227.5 536.167 192.5 520.5 C157.5 504.833 127.333 483.5 102 456.5 C76.6667 429.5 57.1667 397.833 43.5 361.5 C29.8333 325.167 23 286.667 23 246 C23 187.333 37.3333 137.167 66 95.5 C94.6667 53.8333 133 24.3333 181 7 L181 7 Z " />
<glyph glyph-name="egrave" unicode="&#xe8;" horiz-adv-x="556" d="M118 240 L533 240 C535 249.333 536.667 259.667 538 271 C539.333 282.333 540 293.667 540 305 C540 341.667 534.333 374.667 523 404 C511.667 433.333 495.5 458.333 474.5 479 C453.5 499.666 427.833 515.666 397.5 527 C367.167 538.333 333 544 295 544 C253.667 544 216.333 536 183 520 C149.667 504 121.167 482.167 97.5 454.5 C73.8333 426.833 55.5 395 42.5 359 C29.5 323 23 285 23 245 C23 205 29 169.333 41 138 C53 106.667 70.1667 80.1667 92.5 58.5 C114.833 36.8333 141.667 20.1667 173 8.5 C204.333 -3.16667 239 -9 277 -9 C306.333 -9 333.333 -5.33333 358 2 C382.667 9.33333 405 19.3333 425 32 C445 44.6667 462.667 59.5 478 76.5 C493.333 93.5 506.333 112 517 132 L453 176 C433.667 145.333 410.334 120.833 383 102.5 C355.667 84.1667 320.334 75 277 75 C227 75 188 89.5 160 118.5 C132 147.5 118 187 118 237 L118 240 Z M294 463 C344 463 381.833 449.333 407.5 422 C433.167 394.667 446 359.334 446 316 L128 316 C137.333 361.333 156.667 397.167 186 423.5 C215.333 449.833 251.333 463 294 463 L294 463 Z M301 714 L217 714 L271 579 L352 579 L301 714 Z " />
<glyph glyph-name="eacute" unicode="&#xe9;" horiz-adv-x="556" d="M118 240 L533 240 C535 249.333 536.667 259.667 538 271 C539.333 282.333 540 293.667 540 305 C540 341.667 534.333 374.667 523 404 C511.667 433.333 495.5 458.333 474.5 479 C453.5 499.666 427.833 515.666 397.5 527 C367.167 538.333 333 544 295 544 C253.667 544 216.333 536 183 520 C149.667 504 121.167 482.167 97.5 454.5 C73.8333 426.833 55.5 395 42.5 359 C29.5 323 23 285 23 245 C23 205 29 169.333 41 138 C53 106.667 70.1667 80.1667 92.5 58.5 C114.833 36.8333 141.667 20.1667 173 8.5 C204.333 -3.16667 239 -9 277 -9 C306.333 -9 333.333 -5.33333 358 2 C382.667 9.33333 405 19.3333 425 32 C445 44.6667 462.667 59.5 478 76.5 C493.333 93.5 506.333 112 517 132 L453 176 C433.667 145.333 410.334 120.833 383 102.5 C355.667 84.1667 320.334 75 277 75 C227 75 188 89.5 160 118.5 C132 147.5 118 187 118 237 L118 240 Z M294 463 C344 463 381.833 449.333 407.5 422 C433.167 394.667 446 359.334 446 316 L128 316 C137.333 361.333 156.667 397.167 186 423.5 C215.333 449.833 251.333 463 294 463 L294 463 Z M438 714 L347 714 L252 579 L343 579 L438 714 Z " />
<glyph glyph-name="ecircumflex" unicode="&#xea;" horiz-adv-x="556" d="M118 240 L533 240 C535 249.333 536.667 259.667 538 271 C539.333 282.333 540 293.667 540 305 C540 341.667 534.333 374.667 523 404 C511.667 433.333 495.5 458.333 474.5 479 C453.5 499.666 427.833 515.666 397.5 527 C367.167 538.333 333 544 295 544 C253.667 544 216.333 536 183 520 C149.667 504 121.167 482.167 97.5 454.5 C73.8333 426.833 55.5 395 42.5 359 C29.5 323 23 285 23 245 C23 205 29 169.333 41 138 C53 106.667 70.1667 80.1667 92.5 58.5 C114.833 36.8333 141.667 20.1667 173 8.5 C204.333 -3.16667 239 -9 277 -9 C306.333 -9 333.333 -5.33333 358 2 C382.667 9.33333 405 19.3333 425 32 C445 44.6667 462.667 59.5 478 76.5 C493.333 93.5 506.333 112 517 132 L453 176 C433.667 145.333 410.334 120.833 383 102.5 C355.667 84.1667 320.334 75 277 75 C227 75 188 89.5 160 118.5 C132 147.5 118 187 118 237 L118 240 Z M294 463 C344 463 381.833 449.333 407.5 422 C433.167 394.667 446 359.334 446 316 L128 316 C137.333 361.333 156.667 397.167 186 423.5 C215.333 449.833 251.333 463 294 463 L294 463 Z M376 715 L290 715 L168 575 L256 575 L329 655 L379 575 L457 575 L376 715 Z " />
<glyph glyph-name="edieresis" unicode="&#xeb;" horiz-adv-x="556" d="M118 240 L533 240 C535 249.333 536.667 259.667 538 271 C539.333 282.333 540 293.667 540 305 C540 341.667 534.333 374.667 523 404 C511.667 433.333 495.5 458.333 474.5 479 C453.5 499.666 427.833 515.666 397.5 527 C367.167 538.333 333 544 295 544 C253.667 544 216.333 536 183 520 C149.667 504 121.167 482.167 97.5 454.5 C73.8333 426.833 55.5 395 42.5 359 C29.5 323 23 285 23 245 C23 205 29 169.333 41 138 C53 106.667 70.1667 80.1667 92.5 58.5 C114.833 36.8333 141.667 20.1667 173 8.5 C204.333 -3.16667 239 -9 277 -9 C306.333 -9 333.333 -5.33333 358 2 C382.667 9.33333 405 19.3333 425 32 C445 44.6667 462.667 59.5 478 76.5 C493.333 93.5 506.333 112 517 132 L453 176 C433.667 145.333 410.334 120.833 383 102.5 C355.667 84.1667 320.334 75 277 75 C227 75 188 89.5 160 118.5 C132 147.5 118 187 118 237 L118 240 Z M294 463 C344 463 381.833 449.333 407.5 422 C433.167 394.667 446 359.334 446 316 L128 316 C137.333 361.333 156.667 397.167 186 423.5 C215.333 449.833 251.333 463 294 463 L294 463 Z M237 590 C253 590 266.833 595.667 278.5 607 C290.167 618.333 296 632.333 296 649 C296 665.667 290.333 679.667 279 691 C267.667 702.333 253.667 708 237 708 C219.667 708 205.5 702.333 194.5 691 C183.5 679.667 178 665.667 178 649 C178 632.333 183.5 618.333 194.5 607 C205.5 595.667 219.667 590 237 590 L237 590 Z M407 590 C423 590 436.833 595.667 448.5 607 C460.167 618.333 466 632.333 466 649 C466 665.667 460.167 679.667 448.5 691 C436.833 702.333 423 708 407 708 C389.667 708 375.5 702.333 364.5 691 C353.5 679.667 348 665.667 348 649 C348 632.333 353.5 618.333 364.5 607 C375.5 595.667 389.667 590 407 590 L407 590 Z " />
<glyph glyph-name="igrave" unicode="&#xec;" horiz-adv-x="190" d="M96 0 L189 535 L96 535 L2 0 L96 0 Z M137 714 L53 714 L107 579 L188 579 L137 714 Z " />
<glyph glyph-name="iacute" unicode="&#xed;" horiz-adv-x="190" d="M96 0 L189 535 L96 535 L2 0 L96 0 Z M295 714 L204 714 L109 579 L200 579 L295 714 Z " />
<glyph glyph-name="icircumflex" unicode="&#xee;" horiz-adv-x="190" d="M205 715 L120 715 L6 575 L91 575 L158 655 L203 575 L279 575 L205 715 Z M96 0 L189 535 L96 535 L2 0 L96 0 Z " />
<glyph glyph-name="idieresis" unicode="&#xef;" horiz-adv-x="190" d="M80 590 C96 590 109.833 595.667 121.5 607 C133.167 618.333 139 632.333 139 649 C139 665.667 133.333 679.667 122 691 C110.667 702.333 96.6667 708 80 708 C63.3333 708 49.3333 702.333 38 691 C26.6667 679.667 21 665.667 21 649 C21 632.333 26.6667 618.333 38 607 C49.3333 595.667 63.3333 590 80 590 L80 590 Z M236 590 C252 590 266 595.667 278 607 C290 618.333 296 632.333 296 649 C296 665.667 290.167 679.667 278.5 691 C266.833 702.333 252.667 708 236 708 C219.333 708 205.333 702.333 194 691 C182.667 679.667 177 665.667 177 649 C177 632.333 182.667 618.333 194 607 C205.333 595.667 219.333 590 236 590 L236 590 Z M96 0 L189 535 L96 535 L2 0 L96 0 Z " />
<glyph glyph-name="eth" unicode="&#xf0;" horiz-adv-x="591" d="M402 618 L478 640 L459 707 L356 678 L316 731 L214 731 L271 653 L164 623 L184 556 L315 593 L366 524 C362 527.333 355.167 530.5 345.5 533.5 C335.833 536.5 323.667 538 309 538 C267.667 538 229.5 530.833 194.5 516.5 C159.5 502.167 129.333 482 104 456 C78.6667 430 58.8333 399.333 44.5 364 C30.1667 328.667 23 290 23 248 C23 209.333 29.3333 174.167 42 142.5 C54.6667 110.833 72.5 83.8333 95.5 61.5 C118.5 39.1667 145.833 21.8333 177.5 9.5 C209.167 -2.83333 244 -9 282 -9 C324.667 -9 363.5 -1.33333 398.5 14 C433.5 29.3333 463.5 50.1667 488.5 76.5 C513.5 102.833 533 133.667 547 169 C561 204.333 568 241.667 568 281 C568 305.667 566 328.333 562 349 C558 369.667 552 389.667 544 409 C536 428.333 525.833 447.667 513.5 467 C501.167 486.333 486.667 507 470 529 L402 618 Z M307 458 C331.667 458 354.167 453.667 374.5 445 C394.833 436.333 412.333 424.167 427 408.5 C441.667 392.833 453 374.167 461 352.5 C469 330.833 473 307 473 281 C473 251.667 468.5 224.667 459.5 200 C450.5 175.333 437.667 153.667 421 135 C404.333 116.333 384.167 101.833 360.5 91.5 C336.833 81.1667 310.667 76 282 76 C258 76 235.833 80.3333 215.5 89 C195.167 97.6667 177.833 109.5 163.5 124.5 C149.167 139.5 137.833 157.5 129.5 178.5 C121.167 199.5 117 222.667 117 248 C117 277.333 121.5 304.833 130.5 330.5 C139.5 356.167 152.333 378.5 169 397.5 C185.667 416.5 205.667 431.333 229 442 C252.333 452.667 278.333 458 307 458 L307 458 Z " />
<glyph glyph-name="ntilde" unicode="&#xf1;" horiz-adv-x="470" d="M343 334 L284 0 L378 0 L437 334 C441.653 360.666 442.82 386.333 440.5 411 C438.167 435.667 431.5 457.667 420.5 477 C409.5 496.333 393.833 511.833 373.5 523.5 C353.167 535.167 327 541 295 541 C267 541 243 535.333 223 524 C203 512.667 188.667 500.333 180 487 L189 535 L96 535 L2 0 L96 0 L156 345 C162 379 173.5 406.333 190.5 427 C207.5 447.667 232.667 458 266 458 C298 458 320.5 446.833 333.5 424.5 C346.5 402.167 349.667 372 343 334 L343 334 Z M351 582 C381 582 404.5 592.833 421.5 614.5 C438.5 636.167 448.667 664.333 452 699 L383 699 C381.67 684.336 377.836 673.169 371.5 665.5 C365.167 657.833 357 654 347 654 C337 654 328 656.333 320 661 C312 665.667 303.667 670.833 295 676.5 C286.333 682.167 277 687.333 267 692 C257 696.667 245 699 231 699 C215.667 699 201.833 695.833 189.5 689.5 C177.167 683.167 166.667 674.833 158 664.5 C149.333 654.167 142.5 642 137.5 628 C132.5 614 129.667 599 129 583 L197 583 C198.333 596.333 202.166 607 208.5 615 C214.833 623 223.666 627 235 627 C244.333 627 253 624.667 261 620 C269 615.343 277.333 610.176 286 604.5 C294.667 598.838 304.167 593.671 314.5 589 C324.833 584.333 337 582 351 582 L351 582 Z " />
<glyph glyph-name="ograve" unicode="&#xf2;" horiz-adv-x="593" d="M309 460 C333.667 460 356.167 455.667 376.5 447 C396.833 438.333 414.333 426.167 429 410.5 C443.667 394.833 454.833 376.167 462.5 354.5 C470.167 332.833 474 309 474 283 C474 253.667 469.5 226.5 460.5 201.5 C451.5 176.5 438.667 154.5 422 135.5 C405.333 116.5 385.167 101.667 361.5 91 C337.833 80.3333 311.667 75 283 75 C259 75 236.833 79.3333 216.5 88 C196.167 96.6667 178.833 108.667 164.5 124 C150.167 139.333 139 157.5 131 178.5 C123 199.5 119 222.333 119 247 C119 276.333 123.5 304 132.5 330 C141.5 356 154.167 378.667 170.5 398 C186.833 417.333 206.666 432.5 230 443.5 C253.333 454.5 279.667 460 309 460 L309 460 Z M23 246 C23 207.333 29.3333 172.333 42 141 C54.6667 109.667 72.5 82.8333 95.5 60.5 C118.5 38.1667 145.833 21 177.5 9 C209.167 -3 243.667 -9 281 -9 C323.666 -9 362.833 -1.33333 398.5 14 C434.167 29.3333 464.667 50.3333 490 77 C515.333 103.667 535 134.833 549 170.5 C563 206.167 570 244.333 570 285 C570 323 563.833 357.833 551.5 389.5 C539.167 421.167 521.667 448.5 499 471.5 C476.333 494.5 448.833 512.333 416.5 525 C384.167 537.667 348.334 544 309 544 C265.667 544 226.5 536 191.5 520 C156.5 504 126.5 482.5 101.5 455.5 C76.5 428.5 57.1667 396.833 43.5 360.5 C29.8333 324.167 23 286 23 246 L23 246 Z M313 714 L229 714 L283 579 L364 579 L313 714 Z " />
<glyph glyph-name="oacute" unicode="&#xf3;" horiz-adv-x="593" d="M309 460 C333.667 460 356.167 455.667 376.5 447 C396.833 438.333 414.333 426.167 429 410.5 C443.667 394.833 454.833 376.167 462.5 354.5 C470.167 332.833 474 309 474 283 C474 253.667 469.5 226.5 460.5 201.5 C451.5 176.5 438.667 154.5 422 135.5 C405.333 116.5 385.167 101.667 361.5 91 C337.833 80.3333 311.667 75 283 75 C259 75 236.833 79.3333 216.5 88 C196.167 96.6667 178.833 108.667 164.5 124 C150.167 139.333 139 157.5 131 178.5 C123 199.5 119 222.333 119 247 C119 276.333 123.5 304 132.5 330 C141.5 356 154.167 378.667 170.5 398 C186.833 417.333 206.666 432.5 230 443.5 C253.333 454.5 279.667 460 309 460 L309 460 Z M23 246 C23 207.333 29.3333 172.333 42 141 C54.6667 109.667 72.5 82.8333 95.5 60.5 C118.5 38.1667 145.833 21 177.5 9 C209.167 -3 243.667 -9 281 -9 C323.666 -9 362.833 -1.33333 398.5 14 C434.167 29.3333 464.667 50.3333 490 77 C515.333 103.667 535 134.833 549 170.5 C563 206.167 570 244.333 570 285 C570 323 563.833 357.833 551.5 389.5 C539.167 421.167 521.667 448.5 499 471.5 C476.333 494.5 448.833 512.333 416.5 525 C384.167 537.667 348.334 544 309 544 C265.667 544 226.5 536 191.5 520 C156.5 504 126.5 482.5 101.5 455.5 C76.5 428.5 57.1667 396.833 43.5 360.5 C29.8333 324.167 23 286 23 246 L23 246 Z M465 714 L374 714 L279 579 L370 579 L465 714 Z " />
<glyph glyph-name="ocircumflex" unicode="&#xf4;" horiz-adv-x="593" d="M309 460 C333.667 460 356.167 455.667 376.5 447 C396.833 438.333 414.333 426.167 429 410.5 C443.667 394.833 454.833 376.167 462.5 354.5 C470.167 332.833 474 309 474 283 C474 253.667 469.5 226.5 460.5 201.5 C451.5 176.5 438.667 154.5 422 135.5 C405.333 116.5 385.167 101.667 361.5 91 C337.833 80.3333 311.667 75 283 75 C259 75 236.833 79.3333 216.5 88 C196.167 96.6667 178.833 108.667 164.5 124 C150.167 139.333 139 157.5 131 178.5 C123 199.5 119 222.333 119 247 C119 276.333 123.5 304 132.5 330 C141.5 356 154.167 378.667 170.5 398 C186.833 417.333 206.666 432.5 230 443.5 C253.333 454.5 279.667 460 309 460 L309 460 Z M23 246 C23 207.333 29.3333 172.333 42 141 C54.6667 109.667 72.5 82.8333 95.5 60.5 C118.5 38.1667 145.833 21 177.5 9 C209.167 -3 243.667 -9 281 -9 C323.666 -9 362.833 -1.33333 398.5 14 C434.167 29.3333 464.667 50.3333 490 77 C515.333 103.667 535 134.833 549 170.5 C563 206.167 570 244.333 570 285 C570 323 563.833 357.833 551.5 389.5 C539.167 421.167 521.667 448.5 499 471.5 C476.333 494.5 448.833 512.333 416.5 525 C384.167 537.667 348.334 544 309 544 C265.667 544 226.5 536 191.5 520 C156.5 504 126.5 482.5 101.5 455.5 C76.5 428.5 57.1667 396.833 43.5 360.5 C29.8333 324.167 23 286 23 246 L23 246 Z M390 715 L304 715 L182 575 L270 575 L343 655 L393 575 L471 575 L390 715 Z " />
<glyph glyph-name="otilde" unicode="&#xf5;" horiz-adv-x="593" d="M309 460 C333.667 460 356.167 455.667 376.5 447 C396.833 438.333 414.333 426.167 429 410.5 C443.667 394.833 454.833 376.167 462.5 354.5 C470.167 332.833 474 309 474 283 C474 253.667 469.5 226.5 460.5 201.5 C451.5 176.5 438.667 154.5 422 135.5 C405.333 116.5 385.167 101.667 361.5 91 C337.833 80.3333 311.667 75 283 75 C259 75 236.833 79.3333 216.5 88 C196.167 96.6667 178.833 108.667 164.5 124 C150.167 139.333 139 157.5 131 178.5 C123 199.5 119 222.333 119 247 C119 276.333 123.5 304 132.5 330 C141.5 356 154.167 378.667 170.5 398 C186.833 417.333 206.666 432.5 230 443.5 C253.333 454.5 279.667 460 309 460 L309 460 Z M23 246 C23 207.333 29.3333 172.333 42 141 C54.6667 109.667 72.5 82.8333 95.5 60.5 C118.5 38.1667 145.833 21 177.5 9 C209.167 -3 243.667 -9 281 -9 C323.666 -9 362.833 -1.33333 398.5 14 C434.167 29.3333 464.667 50.3333 490 77 C515.333 103.667 535 134.833 549 170.5 C563 206.167 570 244.333 570 285 C570 323 563.833 357.833 551.5 389.5 C539.167 421.167 521.667 448.5 499 471.5 C476.333 494.5 448.833 512.333 416.5 525 C384.167 537.667 348.334 544 309 544 C265.667 544 226.5 536 191.5 520 C156.5 504 126.5 482.5 101.5 455.5 C76.5 428.5 57.1667 396.833 43.5 360.5 C29.8333 324.167 23 286 23 246 L23 246 Z M402 582 C432 582 455.5 592.833 472.5 614.5 C489.5 636.167 499.667 664.333 503 699 L434 699 C432.67 684.336 428.837 673.169 422.5 665.5 C416.167 657.833 408 654 398 654 C388 654 379 656.333 371 661 C363 665.667 354.667 670.833 346 676.5 C337.333 682.167 328 687.333 318 692 C308 696.667 296 699 282 699 C266.667 699 252.833 695.833 240.5 689.5 C228.167 683.167 217.667 674.833 209 664.5 C200.333 654.167 193.5 642 188.5 628 C183.5 614 180.667 599 180 583 L248 583 C249.332 596.333 253.166 607 259.5 615 C265.833 623 274.667 627 286 627 C295.333 627 304 624.667 312 620 C320 615.343 328.333 610.176 337 604.5 C345.667 598.838 355.167 593.671 365.5 589 C375.833 584.333 388 582 402 582 L402 582 Z " />
<glyph glyph-name="odieresis" unicode="&#xf6;" horiz-adv-x="593" d="M309 460 C333.667 460 356.167 455.667 376.5 447 C396.833 438.333 414.333 426.167 429 410.5 C443.667 394.833 454.833 376.167 462.5 354.5 C470.167 332.833 474 309 474 283 C474 253.667 469.5 226.5 460.5 201.5 C451.5 176.5 438.667 154.5 422 135.5 C405.333 116.5 385.167 101.667 361.5 91 C337.833 80.3333 311.667 75 283 75 C259 75 236.833 79.3333 216.5 88 C196.167 96.6667 178.833 108.667 164.5 124 C150.167 139.333 139 157.5 131 178.5 C123 199.5 119 222.333 119 247 C119 276.333 123.5 304 132.5 330 C141.5 356 154.167 378.667 170.5 398 C186.833 417.333 206.666 432.5 230 443.5 C253.333 454.5 279.667 460 309 460 L309 460 Z M23 246 C23 207.333 29.3333 172.333 42 141 C54.6667 109.667 72.5 82.8333 95.5 60.5 C118.5 38.1667 145.833 21 177.5 9 C209.167 -3 243.667 -9 281 -9 C323.666 -9 362.833 -1.33333 398.5 14 C434.167 29.3333 464.667 50.3333 490 77 C515.333 103.667 535 134.833 549 170.5 C563 206.167 570 244.333 570 285 C570 323 563.833 357.833 551.5 389.5 C539.167 421.167 521.667 448.5 499 471.5 C476.333 494.5 448.833 512.333 416.5 525 C384.167 537.667 348.334 544 309 544 C265.667 544 226.5 536 191.5 520 C156.5 504 126.5 482.5 101.5 455.5 C76.5 428.5 57.1667 396.833 43.5 360.5 C29.8333 324.167 23 286 23 246 L23 246 Z M250 590 C266 590 279.833 595.667 291.5 607 C303.167 618.333 309 632.333 309 649 C309 665.667 303.333 679.667 292 691 C280.667 702.333 266.667 708 250 708 C232.667 708 218.5 702.333 207.5 691 C196.5 679.667 191 665.667 191 649 C191 632.333 196.5 618.333 207.5 607 C218.5 595.667 232.667 590 250 590 L250 590 Z M420 590 C436 590 449.833 595.667 461.5 607 C473.167 618.333 479 632.333 479 649 C479 665.667 473.167 679.667 461.5 691 C449.833 702.333 436 708 420 708 C402.667 708 388.5 702.333 377.5 691 C366.5 679.667 361 665.667 361 649 C361 632.333 366.5 618.333 377.5 607 C388.5 595.667 402.667 590 420 590 L420 590 Z " />
<glyph glyph-name="divide" unicode="&#xf7;" horiz-adv-x="479" d="M220 104 C238.667 104 254 110.167 266 122.5 C278 134.833 284 150.667 284 170 C284 188 278.167 202.5 266.5 213.5 C254.833 224.5 240.333 230 223 230 C205 230 190 223.833 178 211.5 C166 199.167 160 183.667 160 165 C160 148.333 165.333 134 176 122 C186.667 110 201.333 104 220 104 L220 104 Z M279 440 C297 440 312.167 446.167 324.5 458.5 C336.833 470.833 343 486.333 343 505 C343 523 337.167 537.5 325.5 548.5 C313.833 559.5 299.333 565 282 565 C264 565 248.833 558.833 236.5 546.5 C224.167 534.167 218 518.667 218 500 C218 483.333 223.5 469.167 234.5 457.5 C245.5 445.833 260.333 440 279 440 L279 440 Z M56 377 L42 297 L449 297 L463 377 L56 377 Z " />
<glyph glyph-name="oslash" unicode="&#xf8;" horiz-adv-x="593" d="M23 246 C23 216 27 188.667 35 164 C43 139.333 54 117 68 97 L15 47 L65 -4 L117 46 C138.333 28.6667 162.833 15.1667 190.5 5.5 C218.167 -4.16667 248.333 -9 281 -9 C323.666 -9 362.833 -1.33333 398.5 14 C434.167 29.3333 464.667 50.3333 490 77 C515.333 103.667 535 134.833 549 170.5 C563 206.167 570 244.333 570 285 C570 315 566 342.667 558 368 C550 393.333 539.333 416 526 436 L573 481 L523 532 L476 487 C454.667 504.333 430 518.167 402 528.5 C374 538.833 343 544 309 544 C265.667 544 226.5 536 191.5 520 C156.5 504 126.5 482.5 101.5 455.5 C76.5 428.5 57.1667 396.833 43.5 360.5 C29.8333 324.167 23 286 23 246 L23 246 Z M309 462 C329.666 462 348.833 459 366.5 453 C384.167 447 399.667 438.333 413 427 L135 162 C129 174.667 124.333 188 121 202 C117.667 216 116 231 116 247 C116 277 120.5 305 129.5 331 C138.5 357 151.5 379.667 168.5 399 C185.5 418.333 205.833 433.667 229.5 445 C253.167 456.333 279.667 462 309 462 L309 462 Z M477 283 C477 253.667 472.5 226.333 463.5 201 C454.5 175.667 441.5 153.5 424.5 134.5 C407.5 115.5 387 100.5 363 89.5 C339 78.5 312.333 73 283 73 C243.667 73 209.333 84 180 106 L458 371 C470.667 344.333 477 315 477 283 L477 283 Z " />
<glyph glyph-name="ugrave" unicode="&#xf9;" horiz-adv-x="467" d="M128 201 L187 535 L93 535 L34 200 C29.3333 173.333 28.1667 147.667 30.5 123 C32.8333 98.3333 39.5 76.5 50.5 57.5 C61.5 38.5 77.1667 23.1667 97.5 11.5 C117.833 -0.166672 143.667 -6 175 -6 C202.333 -6 226 -0.5 246 10.5 C266 21.5 280.667 33.6667 290 47 L281 0 L372 0 L466 535 L372 535 L312 191 C306 157 294.333 129.667 277 109 C259.667 88.3333 235 78 203 78 C170.333 78 148 89 136 111 C124 133 121.333 163 128 201 L128 201 Z M279 714 L195 714 L249 579 L330 579 L279 714 Z " />
<glyph glyph-name="uacute" unicode="&#xfa;" horiz-adv-x="467" d="M128 201 L187 535 L93 535 L34 200 C29.3333 173.333 28.1667 147.667 30.5 123 C32.8333 98.3333 39.5 76.5 50.5 57.5 C61.5 38.5 77.1667 23.1667 97.5 11.5 C117.833 -0.166672 143.667 -6 175 -6 C202.333 -6 226 -0.5 246 10.5 C266 21.5 280.667 33.6667 290 47 L281 0 L372 0 L466 535 L372 535 L312 191 C306 157 294.333 129.667 277 109 C259.667 88.3333 235 78 203 78 C170.333 78 148 89 136 111 C124 133 121.333 163 128 201 L128 201 Z M411 714 L320 714 L225 579 L316 579 L411 714 Z " />
<glyph glyph-name="ucircumflex" unicode="&#xfb;" horiz-adv-x="467" d="M128 201 L187 535 L93 535 L34 200 C29.3333 173.333 28.1667 147.667 30.5 123 C32.8333 98.3333 39.5 76.5 50.5 57.5 C61.5 38.5 77.1667 23.1667 97.5 11.5 C117.833 -0.166672 143.667 -6 175 -6 C202.333 -6 226 -0.5 246 10.5 C266 21.5 280.667 33.6667 290 47 L281 0 L372 0 L466 535 L372 535 L312 191 C306 157 294.333 129.667 277 109 C259.667 88.3333 235 78 203 78 C170.333 78 148 89 136 111 C124 133 121.333 163 128 201 L128 201 Z M345 715 L259 715 L137 575 L225 575 L298 655 L348 575 L426 575 L345 715 Z " />
<glyph glyph-name="udieresis" unicode="&#xfc;" horiz-adv-x="467" d="M128 201 L187 535 L93 535 L34 200 C29.3333 173.333 28.1667 147.667 30.5 123 C32.8333 98.3333 39.5 76.5 50.5 57.5 C61.5 38.5 77.1667 23.1667 97.5 11.5 C117.833 -0.166672 143.667 -6 175 -6 C202.333 -6 226 -0.5 246 10.5 C266 21.5 280.667 33.6667 290 47 L281 0 L372 0 L466 535 L372 535 L312 191 C306 157 294.333 129.667 277 109 C259.667 88.3333 235 78 203 78 C170.333 78 148 89 136 111 C124 133 121.333 163 128 201 L128 201 Z M208 590 C224 590 237.833 595.667 249.5 607 C261.167 618.333 267 632.333 267 649 C267 665.667 261.333 679.667 250 691 C238.667 702.333 224.667 708 208 708 C190.667 708 176.5 702.333 165.5 691 C154.5 679.667 149 665.667 149 649 C149 632.333 154.5 618.333 165.5 607 C176.5 595.667 190.667 590 208 590 L208 590 Z M378 590 C394 590 407.833 595.667 419.5 607 C431.167 618.333 437 632.333 437 649 C437 665.667 431.167 679.667 419.5 691 C407.833 702.333 394 708 378 708 C360.667 708 346.5 702.333 335.5 691 C324.5 679.667 319 665.667 319 649 C319 632.333 324.5 618.333 335.5 607 C346.5 595.667 360.667 590 378 590 L378 590 Z " />
<glyph glyph-name="yacute" unicode="&#xfd;" horiz-adv-x="504" d="M142 535 L45 535 L169 13 L69 -175 L164 -175 L549 535 L449 535 L233 133 L142 535 Z M429 714 L338 714 L243 579 L334 579 L429 714 Z " />
<glyph glyph-name="thorn" unicode="&#xfe;" horiz-adv-x="609" d="M300 -9 C345.333 -9 385.667 -0.833328 421 15.5 C456.333 31.8333 486.167 53.8333 510.5 81.5 C534.833 109.167 553.333 140.833 566 176.5 C578.667 212.167 585 249 585 287 C585 326.333 579.333 361.833 568 393.5 C556.667 425.167 540.5 452.167 519.5 474.5 C498.5 496.833 473.167 514 443.5 526 C413.833 538 380.667 544 344 544 C306 544 272.667 537.333 244 524 C215.333 510.667 194 496 180 480 L224 731 L131 731 L-29 -175 L64 -175 L112 92 C118.667 79.3333 127.5 67 138.5 55 C149.5 43 162.833 32.1667 178.5 22.5 C194.167 12.8333 212.167 5.16667 232.5 -0.5 C252.833 -6.16667 275.333 -9 300 -9 L300 -9 Z M330 460 C354.666 460 376.833 455.833 396.5 447.5 C416.166 439.167 432.833 427.334 446.5 412 C460.165 396.667 470.832 378.334 478.5 357 C486.167 335.667 490 312 490 286 C490 256.667 485.5 229.333 476.5 204 C467.5 178.667 454.667 156.5 438 137.5 C421.333 118.5 401.333 103.5 378 92.5 C354.667 81.5 328.667 76 300 76 C276 76 254.167 80.3333 234.5 89 C214.833 97.6667 197.833 109.5 183.5 124.5 C169.167 139.5 158.167 157.5 150.5 178.5 C142.833 199.5 139 222.333 139 247 C139 277 143.5 305 152.5 331 C161.5 357 174.333 379.5 191 398.5 C207.667 417.5 227.667 432.5 251 443.5 C274.333 454.5 300.667 460 330 460 L330 460 Z " />
<glyph glyph-name="ydieresis" unicode="&#xff;" horiz-adv-x="504" d="M142 535 L45 535 L169 13 L69 -175 L164 -175 L549 535 L449 535 L233 133 L142 535 Z M223 590 C239 590 252.833 595.667 264.5 607 C276.167 618.333 282 632.333 282 649 C282 665.667 276.333 679.667 265 691 C253.667 702.333 239.667 708 223 708 C205.667 708 191.5 702.333 180.5 691 C169.5 679.667 164 665.667 164 649 C164 632.333 169.5 618.333 180.5 607 C191.5 595.667 205.667 590 223 590 L223 590 Z M393 590 C409 590 422.833 595.667 434.5 607 C446.167 618.333 452 632.333 452 649 C452 665.667 446.167 679.667 434.5 691 C422.833 702.333 409 708 393 708 C375.667 708 361.5 702.333 350.5 691 C339.5 679.667 334 665.667 334 649 C334 632.333 339.5 618.333 350.5 607 C361.5 595.667 375.667 590 393 590 L393 590 Z " />
<glyph glyph-name="Amacron" unicode="&#x100;" horiz-adv-x="620" d="M276 818 L263 745 L492 745 L506 818 L276 818 Z M430 229 L479 0 L576 0 L426 692 L327 692 L-43 0 L56 0 L178 229 L430 229 Z M222 312 L358 568 L412 312 L222 312 Z " />
<glyph glyph-name="amacron" unicode="&#x101;" horiz-adv-x="454" d="M12 157 C12 132.333 16.1667 109.833 24.5 89.5 C32.8333 69.1667 44.5 51.8333 59.5 37.5 C74.5 23.1667 92.3333 12 113 4 C133.667 -4 156.333 -8 181 -8 C205 -8 227 -3.5 247 5.5 C267 14.5 282 25.6667 292 39 L286 0 L362 0 L421 340 C425.667 369.333 425.833 396.333 421.5 421 C417.168 445.666 407.835 466.832 393.5 484.5 C379.167 502.167 360.167 516 336.5 526 C312.833 536 284 541 250 541 C220 541 194.167 536.5 172.5 527.5 C150.833 518.5 132.833 506.5 118.5 491.5 C104.167 476.5 92.8334 459.167 84.5 439.5 C76.1667 419.833 70.6667 399.667 68 379 L155 379 C157 390.333 160.167 401.167 164.5 411.5 C168.833 421.833 174.666 430.833 182 438.5 C189.333 446.163 198.5 452.33 209.5 457 C220.5 461.667 234 464 250 464 C282 464 305 454 319 434 C333 414 337 386.667 331 352 L321 297 C313 309.667 298.5 321.167 277.5 331.5 C256.5 341.833 231 347 201 347 C171.667 347 145.333 342 122 332 C98.6667 322 78.8334 308.333 62.5 291 C46.1667 273.667 33.6667 253.5 25 230.5 C16.3333 207.5 12 183 12 157 L12 157 Z M208 271 C236 271 258.5 262.833 275.5 246.5 C292.5 230.167 301 208.333 301 181 C301 164.333 298.167 149.167 292.5 135.5 C286.833 121.833 279.167 110.167 269.5 100.5 C259.833 90.8333 248.5 83.3333 235.5 78 C222.5 72.6667 208.667 70 194 70 C166 70 143.667 78.5 127 95.5 C110.333 112.5 102 133.667 102 159 C102 191 111.667 217.667 131 239 C150.333 260.333 176 271 208 271 L208 271 Z M174 670 L160 597 L386 597 L399 670 L174 670 Z " />
<glyph glyph-name="Abreve" unicode="&#x102;" horiz-adv-x="620" d="M382 730 C405.333 730 425.667 734.167 443 742.5 C460.333 750.833 474.667 761.333 486 774 C497.333 786.667 505.833 800.333 511.5 815 C517.167 829.667 520.333 843.667 521 857 L451 857 C449.667 851 447.5 844.5 444.5 837.5 C441.5 830.5 437.167 824.167 431.5 818.5 C425.833 812.846 419 808.179 411 804.5 C403 800.833 393.333 799 382 799 C370 799 360.333 801 353 805 C345.669 809 339.836 813.833 335.5 819.5 C331.169 825.167 328.336 831.333 327 838 C325.667 844.667 325 851 325 857 L253 857 C252.333 844.333 253.833 830.5 257.5 815.5 C261.166 800.5 267.833 786.667 277.5 774 C287.167 761.333 300.5 750.833 317.5 742.5 C334.5 734.167 356 730 382 730 L382 730 Z M430 229 L479 0 L576 0 L426 692 L327 692 L-43 0 L56 0 L178 229 L430 229 Z M222 312 L358 568 L412 312 L222 312 Z " />
<glyph glyph-name="abreve" unicode="&#x103;" horiz-adv-x="454" d="M12 157 C12 132.333 16.1667 109.833 24.5 89.5 C32.8333 69.1667 44.5 51.8333 59.5 37.5 C74.5 23.1667 92.3333 12 113 4 C133.667 -4 156.333 -8 181 -8 C205 -8 227 -3.5 247 5.5 C267 14.5 282 25.6667 292 39 L286 0 L362 0 L421 340 C425.667 369.333 425.833 396.333 421.5 421 C417.168 445.666 407.835 466.832 393.5 484.5 C379.167 502.167 360.167 516 336.5 526 C312.833 536 284 541 250 541 C220 541 194.167 536.5 172.5 527.5 C150.833 518.5 132.833 506.5 118.5 491.5 C104.167 476.5 92.8334 459.167 84.5 439.5 C76.1667 419.833 70.6667 399.667 68 379 L155 379 C157 390.333 160.167 401.167 164.5 411.5 C168.833 421.833 174.666 430.833 182 438.5 C189.333 446.163 198.5 452.33 209.5 457 C220.5 461.667 234 464 250 464 C282 464 305 454 319 434 C333 414 337 386.667 331 352 L321 297 C313 309.667 298.5 321.167 277.5 331.5 C256.5 341.833 231 347 201 347 C171.667 347 145.333 342 122 332 C98.6667 322 78.8334 308.333 62.5 291 C46.1667 273.667 33.6667 253.5 25 230.5 C16.3333 207.5 12 183 12 157 L12 157 Z M208 271 C236 271 258.5 262.833 275.5 246.5 C292.5 230.167 301 208.333 301 181 C301 164.333 298.167 149.167 292.5 135.5 C286.833 121.833 279.167 110.167 269.5 100.5 C259.833 90.8333 248.5 83.3333 235.5 78 C222.5 72.6667 208.667 70 194 70 C166 70 143.667 78.5 127 95.5 C110.333 112.5 102 133.667 102 159 C102 191 111.667 217.667 131 239 C150.333 260.333 176 271 208 271 L208 271 Z M287 571 C311 571 331.5 575.333 348.5 584 C365.5 592.667 379.833 603.5 391.5 616.5 C403.165 629.5 411.832 643.833 417.5 659.5 C423.16 675.167 426.327 690 427 704 L357 704 C355 688.667 348.5 674 337.5 660 C326.5 646 309.667 639 287 639 C275 639 265.167 641 257.5 645 C249.833 649 244 654.333 240 661 C236 667.667 233.333 674.667 232 682 C230.667 689.328 230 696.661 230 704 L159 704 C158.332 690 159.665 675.167 163 659.5 C166.333 643.833 172.666 629.5 182 616.5 C191.333 603.5 204.5 592.667 221.5 584 C238.5 575.333 260.333 571 287 571 L287 571 Z " />
<glyph glyph-name="Aogonek" unicode="&#x104;" horiz-adv-x="620" d="M430 229 L479 0 C463 -8.66667 449 -20.3333 437 -35 C425 -49.6667 419 -66.6667 419 -86 C419 -112 429.167 -133.333 449.5 -150 C469.833 -166.667 498 -175.334 534 -176 C536 -176 538.333 -175.833 541 -175.5 C543.667 -175.167 545.667 -175 547 -175 L559 -106 C544.333 -105.333 532.5 -101.666 523.5 -95 C514.5 -88.3333 510 -79 510 -67 C510 -54.3333 515.167 -42.1667 525.5 -30.5 C535.833 -18.8333 553 -9.66667 577 -3 L426 692 L327 692 L-43 0 L56 0 L178 229 L430 229 Z M222 312 L358 568 L412 312 L222 312 Z " />
<glyph glyph-name="aogonek" unicode="&#x105;" horiz-adv-x="454" d="M12 157 C12 132.333 16.1667 109.833 24.5 89.5 C32.8333 69.1667 44.5 51.8333 59.5 37.5 C74.5 23.1667 92.3333 12 113 4 C133.667 -4 156.333 -8 181 -8 C205 -8 227 -3.5 247 5.5 C267 14.5 282 25.6667 292 39 L287 5 C263 -3.66667 243.167 -15.3333 227.5 -30 C211.833 -44.6667 204 -63.3333 204 -86 C204 -112.667 214.167 -134.167 234.5 -150.5 C254.833 -166.833 283 -175.333 319 -176 C321 -176 323.167 -175.833 325.5 -175.5 C327.833 -175.167 329.667 -175 331 -175 L343 -106 C329 -105.333 317.5 -101.833 308.5 -95.5 C299.5 -89.1667 295 -79.6667 295 -67 C295 -55 300.167 -43.5 310.5 -32.5 C320.833 -21.5 337.667 -12.3333 361 -5 L421 340 C425.667 369.333 425.833 396.333 421.5 421 C417.168 445.666 407.835 466.832 393.5 484.5 C379.167 502.167 360.167 516 336.5 526 C312.833 536 284 541 250 541 C220 541 194.167 536.5 172.5 527.5 C150.833 518.5 132.833 506.5 118.5 491.5 C104.167 476.5 92.8334 459.167 84.5 439.5 C76.1667 419.833 70.6667 399.667 68 379 L155 379 C157 390.333 160.167 401.167 164.5 411.5 C168.833 421.833 174.666 430.833 182 438.5 C189.333 446.163 198.5 452.33 209.5 457 C220.5 461.667 234 464 250 464 C282 464 305 454 319 434 C333 414 337 386.667 331 352 L321 297 C313 309.667 298.5 321.167 277.5 331.5 C256.5 341.833 231 347 201 347 C171.667 347 145.333 342 122 332 C98.6667 322 78.8334 308.333 62.5 291 C46.1667 273.667 33.6667 253.5 25 230.5 C16.3333 207.5 12 183 12 157 L12 157 Z M208 271 C236 271 258.5 262.833 275.5 246.5 C292.5 230.167 301 208.333 301 181 C301 164.333 298.167 149.167 292.5 135.5 C286.833 121.833 279.167 110.167 269.5 100.5 C259.833 90.8333 248.5 83.3333 235.5 78 C222.5 72.6667 208.667 70 194 70 C166 70 143.667 78.5 127 95.5 C110.333 112.5 102 133.667 102 159 C102 191 111.667 217.667 131 239 C150.333 260.333 176 271 208 271 L208 271 Z " />
<glyph glyph-name="Cacute" unicode="&#x106;" horiz-adv-x="606" d="M524 855 L430 855 L342 729 L434 729 L524 855 Z M567 54 L525 127 C507.667 114.333 486.167 102.833 460.5 92.5 C434.833 82.1667 402.333 77 363 77 C327.667 77 296.167 83.1667 268.5 95.5 C240.833 107.833 217.5 124.667 198.5 146 C179.5 167.333 165 192.833 155 222.5 C145 252.167 140 284.333 140 319 C140 361.667 146.333 401 159 437 C171.667 473 189.667 504.333 213 531 C236.333 557.667 264.5 578.5 297.5 593.5 C330.5 608.5 367.667 616 409 616 C449.667 616 483.5 609.333 510.5 596 C537.5 582.667 559.333 567.333 576 550 L643 618 C617.667 645.333 586 666.833 548 682.5 C510 698.167 464 706 410 706 C354.667 706 304.334 695.833 259 675.5 C213.667 655.167 174.667 627.5 142 592.5 C109.333 557.5 84.1667 516.5 66.5 469.5 C48.8333 422.5 40 372.333 40 319 C40 269.667 47.6667 224.5 63 183.5 C78.3333 142.5 100 107.5 128 78.5 C156 49.5 189.667 27 229 11 C268.333 -5 312.333 -13 361 -13 C409 -13 450 -6.16667 484 7.5 C518 21.1667 545.667 36.6667 567 54 L567 54 Z " />
<glyph glyph-name="cacute" unicode="&#x107;" horiz-adv-x="500" d="M280 76 C256.667 76 235.167 80.1667 215.5 88.5 C195.833 96.8333 179 108.667 165 124 C151 139.333 140 157.5 132 178.5 C124 199.5 120 222.667 120 248 C120 277.333 124.5 304.833 133.5 330.5 C142.5 356.167 155.167 378.5 171.5 397.5 C187.833 416.5 207.666 431.5 231 442.5 C254.333 453.5 280 459 308 459 C340 459 367 453.167 389 441.5 C411 429.833 429 416 443 400 L506 459 C498.667 468.333 489.5 478 478.5 488 C467.5 498 454 507.167 438 515.5 C422 523.829 403.333 530.663 382 536 C360.667 541.333 336.667 544 310 544 C266.667 544 227.5 536.167 192.5 520.5 C157.5 504.833 127.333 483.5 102 456.5 C76.6667 429.5 57.1667 397.833 43.5 361.5 C29.8333 325.167 23 286.667 23 246 C23 208 29.1667 173.5 41.5 142.5 C53.8333 111.5 71.3333 84.6667 94 62 C116.667 39.3333 143.333 21.8333 174 9.5 C204.667 -2.83333 238.667 -9 276 -9 C298.667 -9 319.5 -6.83333 338.5 -2.5 C357.5 1.83333 374.667 7.5 390 14.5 C405.333 21.5 418.833 29.3333 430.5 38 C442.167 46.6667 452.333 55.3333 461 64 L417 128 C399 112.667 379.5 100.167 358.5 90.5 C337.5 80.8333 311.333 76 280 76 L280 76 Z M442 714 L351 714 L256 579 L347 579 L442 714 Z " />
<glyph glyph-name="Ccircumflex" unicode="&#x108;" horiz-adv-x="606" d="M460 855 L376 855 L250 729 L343 729 L415 798 L468 729 L549 729 L460 855 Z M567 54 L525 127 C507.667 114.333 486.167 102.833 460.5 92.5 C434.833 82.1667 402.333 77 363 77 C327.667 77 296.167 83.1667 268.5 95.5 C240.833 107.833 217.5 124.667 198.5 146 C179.5 167.333 165 192.833 155 222.5 C145 252.167 140 284.333 140 319 C140 361.667 146.333 401 159 437 C171.667 473 189.667 504.333 213 531 C236.333 557.667 264.5 578.5 297.5 593.5 C330.5 608.5 367.667 616 409 616 C449.667 616 483.5 609.333 510.5 596 C537.5 582.667 559.333 567.333 576 550 L643 618 C617.667 645.333 586 666.833 548 682.5 C510 698.167 464 706 410 706 C354.667 706 304.334 695.833 259 675.5 C213.667 655.167 174.667 627.5 142 592.5 C109.333 557.5 84.1667 516.5 66.5 469.5 C48.8333 422.5 40 372.333 40 319 C40 269.667 47.6667 224.5 63 183.5 C78.3333 142.5 100 107.5 128 78.5 C156 49.5 189.667 27 229 11 C268.333 -5 312.333 -13 361 -13 C409 -13 450 -6.16667 484 7.5 C518 21.1667 545.667 36.6667 567 54 L567 54 Z " />
<glyph glyph-name="ccircumflex" unicode="&#x109;" horiz-adv-x="500" d="M280 76 C256.667 76 235.167 80.1667 215.5 88.5 C195.833 96.8333 179 108.667 165 124 C151 139.333 140 157.5 132 178.5 C124 199.5 120 222.667 120 248 C120 277.333 124.5 304.833 133.5 330.5 C142.5 356.167 155.167 378.5 171.5 397.5 C187.833 416.5 207.666 431.5 231 442.5 C254.333 453.5 280 459 308 459 C340 459 367 453.167 389 441.5 C411 429.833 429 416 443 400 L506 459 C498.667 468.333 489.5 478 478.5 488 C467.5 498 454 507.167 438 515.5 C422 523.829 403.333 530.663 382 536 C360.667 541.333 336.667 544 310 544 C266.667 544 227.5 536.167 192.5 520.5 C157.5 504.833 127.333 483.5 102 456.5 C76.6667 429.5 57.1667 397.833 43.5 361.5 C29.8333 325.167 23 286.667 23 246 C23 208 29.1667 173.5 41.5 142.5 C53.8333 111.5 71.3333 84.6667 94 62 C116.667 39.3333 143.333 21.8333 174 9.5 C204.667 -2.83333 238.667 -9 276 -9 C298.667 -9 319.5 -6.83333 338.5 -2.5 C357.5 1.83333 374.667 7.5 390 14.5 C405.333 21.5 418.833 29.3333 430.5 38 C442.167 46.6667 452.333 55.3333 461 64 L417 128 C399 112.667 379.5 100.167 358.5 90.5 C337.5 80.8333 311.333 76 280 76 L280 76 Z M371 715 L285 715 L163 575 L251 575 L324 655 L374 575 L452 575 L371 715 Z " />
<glyph glyph-name="Cdotaccent" unicode="&#x10a;" horiz-adv-x="606" d="M409 742 C426.333 742 440.833 747.667 452.5 759 C464.167 770.33 470 784.664 470 802 C470 819.333 464.167 833.833 452.5 845.5 C440.833 857.167 426.333 863 409 863 C391.667 863 377.167 857.167 365.5 845.5 C353.833 833.833 348 819.333 348 802 C348 784.667 353.833 770.333 365.5 759 C377.167 747.667 391.667 742 409 742 L409 742 Z M567 54 L525 127 C507.667 114.333 486.167 102.833 460.5 92.5 C434.833 82.1667 402.333 77 363 77 C327.667 77 296.167 83.1667 268.5 95.5 C240.833 107.833 217.5 124.667 198.5 146 C179.5 167.333 165 192.833 155 222.5 C145 252.167 140 284.333 140 319 C140 361.667 146.333 401 159 437 C171.667 473 189.667 504.333 213 531 C236.333 557.667 264.5 578.5 297.5 593.5 C330.5 608.5 367.667 616 409 616 C449.667 616 483.5 609.333 510.5 596 C537.5 582.667 559.333 567.333 576 550 L643 618 C617.667 645.333 586 666.833 548 682.5 C510 698.167 464 706 410 706 C354.667 706 304.334 695.833 259 675.5 C213.667 655.167 174.667 627.5 142 592.5 C109.333 557.5 84.1667 516.5 66.5 469.5 C48.8333 422.5 40 372.333 40 319 C40 269.667 47.6667 224.5 63 183.5 C78.3333 142.5 100 107.5 128 78.5 C156 49.5 189.667 27 229 11 C268.333 -5 312.333 -13 361 -13 C409 -13 450 -6.16667 484 7.5 C518 21.1667 545.667 36.6667 567 54 L567 54 Z " />
<glyph glyph-name="cdotaccent" unicode="&#x10b;" horiz-adv-x="500" d="M280 76 C256.667 76 235.167 80.1667 215.5 88.5 C195.833 96.8333 179 108.667 165 124 C151 139.333 140 157.5 132 178.5 C124 199.5 120 222.667 120 248 C120 277.333 124.5 304.833 133.5 330.5 C142.5 356.167 155.167 378.5 171.5 397.5 C187.833 416.5 207.666 431.5 231 442.5 C254.333 453.5 280 459 308 459 C340 459 367 453.167 389 441.5 C411 429.833 429 416 443 400 L506 459 C498.667 468.333 489.5 478 478.5 488 C467.5 498 454 507.167 438 515.5 C422 523.829 403.333 530.663 382 536 C360.667 541.333 336.667 544 310 544 C266.667 544 227.5 536.167 192.5 520.5 C157.5 504.833 127.333 483.5 102 456.5 C76.6667 429.5 57.1667 397.833 43.5 361.5 C29.8333 325.167 23 286.667 23 246 C23 208 29.1667 173.5 41.5 142.5 C53.8333 111.5 71.3333 84.6667 94 62 C116.667 39.3333 143.333 21.8333 174 9.5 C204.667 -2.83333 238.667 -9 276 -9 C298.667 -9 319.5 -6.83333 338.5 -2.5 C357.5 1.83333 374.667 7.5 390 14.5 C405.333 21.5 418.833 29.3333 430.5 38 C442.167 46.6667 452.333 55.3333 461 64 L417 128 C399 112.667 379.5 100.167 358.5 90.5 C337.5 80.8333 311.333 76 280 76 L280 76 Z M317 589 C334.333 589 349 594.833 361 606.5 C373 618.167 379 632.667 379 650 C379 667.331 373 681.664 361 693 C349 704.333 334.333 710 317 710 C299.667 710 285.167 704.333 273.5 693 C261.833 681.667 256 667.333 256 650 C256 632.667 261.833 618.167 273.5 606.5 C285.167 594.833 299.667 589 317 589 L317 589 Z " />
<glyph glyph-name="Ccaron" unicode="&#x10c;" horiz-adv-x="606" d="M359 729 L442 729 L570 855 L483 855 L407 784 L355 855 L272 855 L359 729 Z M567 54 L525 127 C507.667 114.333 486.167 102.833 460.5 92.5 C434.833 82.1667 402.333 77 363 77 C327.667 77 296.167 83.1667 268.5 95.5 C240.833 107.833 217.5 124.667 198.5 146 C179.5 167.333 165 192.833 155 222.5 C145 252.167 140 284.333 140 319 C140 361.667 146.333 401 159 437 C171.667 473 189.667 504.333 213 531 C236.333 557.667 264.5 578.5 297.5 593.5 C330.5 608.5 367.667 616 409 616 C449.667 616 483.5 609.333 510.5 596 C537.5 582.667 559.333 567.333 576 550 L643 618 C617.667 645.333 586 666.833 548 682.5 C510 698.167 464 706 410 706 C354.667 706 304.334 695.833 259 675.5 C213.667 655.167 174.667 627.5 142 592.5 C109.333 557.5 84.1667 516.5 66.5 469.5 C48.8333 422.5 40 372.333 40 319 C40 269.667 47.6667 224.5 63 183.5 C78.3333 142.5 100 107.5 128 78.5 C156 49.5 189.667 27 229 11 C268.333 -5 312.333 -13 361 -13 C409 -13 450 -6.16667 484 7.5 C518 21.1667 545.667 36.6667 567 54 L567 54 Z " />
<glyph glyph-name="ccaron" unicode="&#x10d;" horiz-adv-x="500" d="M280 76 C256.667 76 235.167 80.1667 215.5 88.5 C195.833 96.8333 179 108.667 165 124 C151 139.333 140 157.5 132 178.5 C124 199.5 120 222.667 120 248 C120 277.333 124.5 304.833 133.5 330.5 C142.5 356.167 155.167 378.5 171.5 397.5 C187.833 416.5 207.666 431.5 231 442.5 C254.333 453.5 280 459 308 459 C340 459 367 453.167 389 441.5 C411 429.833 429 416 443 400 L506 459 C498.667 468.333 489.5 478 478.5 488 C467.5 498 454 507.167 438 515.5 C422 523.829 403.333 530.663 382 536 C360.667 541.333 336.667 544 310 544 C266.667 544 227.5 536.167 192.5 520.5 C157.5 504.833 127.333 483.5 102 456.5 C76.6667 429.5 57.1667 397.833 43.5 361.5 C29.8333 325.167 23 286.667 23 246 C23 208 29.1667 173.5 41.5 142.5 C53.8333 111.5 71.3333 84.6667 94 62 C116.667 39.3333 143.333 21.8333 174 9.5 C204.667 -2.83333 238.667 -9 276 -9 C298.667 -9 319.5 -6.83333 338.5 -2.5 C357.5 1.83333 374.667 7.5 390 14.5 C405.333 21.5 418.833 29.3333 430.5 38 C442.167 46.6667 452.333 55.3333 461 64 L417 128 C399 112.667 379.5 100.167 358.5 90.5 C337.5 80.8333 311.333 76 280 76 L280 76 Z M265 578 L349 578 L474 718 L389 718 L313 637 L264 718 L184 718 L265 578 Z " />
<glyph glyph-name="Dcaron" unicode="&#x10e;" horiz-adv-x="546" d="M269 729 L352 729 L480 855 L393 855 L317 784 L265 855 L182 855 L269 729 Z M128 692 L6 0 L141 0 C199 0 252.167 8.5 300.5 25.5 C348.833 42.5 390.333 67.5 425 100.5 C459.667 133.5 486.667 174 506 222 C525.333 270 535 325 535 387 C535 432.333 528.167 473.667 514.5 511 C500.833 548.333 481 580.5 455 607.5 C429 634.5 396.833 655.333 358.5 670 C320.167 684.667 276 692 226 692 L128 692 Z M118 86 L209 606 L230 606 C263.333 606 292.833 600.5 318.5 589.5 C344.167 578.5 365.667 563.167 383 543.5 C400.333 523.833 413.333 500.667 422 474 C430.667 447.333 435 418 435 386 C435 336 427.667 292.167 413 254.5 C398.333 216.833 378 185.5 352 160.5 C326 135.5 295.167 116.833 259.5 104.5 C223.833 92.1667 184.667 86 142 86 L118 86 Z " />
<glyph glyph-name="dcaron" unicode="&#x10f;" horiz-adv-x="608" d="M305 544 C260.333 544 220.5 535.833 185.5 519.5 C150.5 503.168 121 481.334 97 454 C73 426.667 54.6667 395.167 42 359.5 C29.3333 323.833 23 286.333 23 247 C23 209.667 29 175.333 41 144 C53 112.667 69.6667 85.6667 91 63 C112.333 40.3333 138.167 22.6667 168.5 10 C198.833 -2.66667 232.667 -9 270 -9 C291.333 -9 311.167 -6.66667 329.5 -2 C347.833 2.66667 364.167 8.5 378.5 15.5 C392.833 22.5 405.333 30.1667 416 38.5 C426.667 46.8333 435 55 441 63 L430 0 L513 0 L642 731 L549 731 L498 445 C491.333 457 482.333 469 471 481 C459.667 493 446 503.667 430 513 C414 522.333 395.5 529.833 374.5 535.5 C353.5 541.167 330.333 544 305 544 L305 544 Z M280 76 C254.667 76 232.167 80.3333 212.5 89 C192.833 97.6667 176 110 162 126 C148 142 137.333 160.833 130 182.5 C122.667 204.167 119 228 119 254 C119 282 123.5 308.5 132.5 333.5 C141.5 358.5 154 380.333 170 399 C186 417.667 205.5 432.5 228.5 443.5 C251.5 454.5 277 460 305 460 C330.333 460 353.167 455.833 373.5 447.5 C393.833 439.167 411 427.5 425 412.5 C439 397.5 449.833 379.333 457.5 358 C465.167 336.667 469 313.334 469 288 C469 258 464.5 230.167 455.5 204.5 C446.5 178.833 433.667 156.5 417 137.5 C400.333 118.5 380.333 103.5 357 92.5 C333.667 81.5 308 76 280 76 L280 76 Z M773 731 L694 731 L654 577 L731 577 L773 731 Z " />
<glyph glyph-name="Dcroat" unicode="&#x110;" horiz-adv-x="554" d="M68 307 L14 0 L149 0 C207 0 260.167 8.5 308.5 25.5 C356.833 42.5 398.333 67.5 433 100.5 C467.667 133.5 494.667 174 514 222 C533.333 270 543 325 543 387 C543 432.333 536.167 473.667 522.5 511 C508.833 548.333 489 580.5 463 607.5 C437 634.5 404.833 655.333 366.5 670 C328.167 684.667 284 692 234 692 L136 692 L84 398 L28 398 L12 307 L68 307 Z M180 398 L217 606 L238 606 C271.333 606 300.833 600.5 326.5 589.5 C352.167 578.5 373.667 563.167 391 543.5 C408.333 523.833 421.333 500.667 430 474 C438.667 447.333 443 418 443 386 C443 336 435.667 292.167 421 254.5 C406.333 216.833 386 185.5 360 160.5 C334 135.5 303.167 116.833 267.5 104.5 C231.833 92.1667 192.667 86 150 86 L126 86 L164 307 L275 307 L292 398 L180 398 Z " />
<glyph glyph-name="dcroat" unicode="&#x111;" horiz-adv-x="616" d="M412 662 L400 591 L524 591 L498 445 C491.333 457 482.333 469 471 481 C459.667 493 446 503.667 430 513 C414 522.333 395.5 529.833 374.5 535.5 C353.5 541.167 330.333 544 305 544 C260.333 544 220.5 535.833 185.5 519.5 C150.5 503.168 121 481.334 97 454 C73 426.667 54.6667 395.167 42 359.5 C29.3333 323.833 23 286.333 23 247 C23 209.667 29 175.333 41 144 C53 112.667 69.6667 85.6667 91 63 C112.333 40.3333 138.167 22.6667 168.5 10 C198.833 -2.66667 232.667 -9 270 -9 C291.333 -9 311.167 -6.66667 329.5 -2 C347.833 2.66667 364.167 8.5 378.5 15.5 C392.833 22.5 405.333 30.1667 416 38.5 C426.667 46.8333 435 55 441 63 L430 0 L513 0 L617 591 L669 591 L681 662 L630 662 L642 731 L549 731 L536 662 L412 662 Z M280 76 C254.667 76 232.167 80.3333 212.5 89 C192.833 97.6667 176 110 162 126 C148 142 137.333 160.833 130 182.5 C122.667 204.167 119 228 119 254 C119 282 123.5 308.5 132.5 333.5 C141.5 358.5 154 380.333 170 399 C186 417.667 205.5 432.5 228.5 443.5 C251.5 454.5 277 460 305 460 C330.333 460 353.167 455.833 373.5 447.5 C393.833 439.167 411 427.5 425 412.5 C439 397.5 449.833 379.333 457.5 358 C465.167 336.667 469 313.334 469 288 C469 258 464.5 230.167 455.5 204.5 C446.5 178.833 433.667 156.5 417 137.5 C400.333 118.5 380.333 103.5 357 92.5 C333.667 81.5 308 76 280 76 L280 76 Z " />
<glyph glyph-name="Emacron" unicode="&#x112;" horiz-adv-x="380" d="M177 818 L164 745 L393 745 L407 818 L177 818 Z M6 0 L301 0 L317 90 L118 90 L156 311 L346 311 L362 401 L173 401 L208 602 L403 602 L419 692 L128 692 L6 0 Z " />
<glyph glyph-name="emacron" unicode="&#x113;" horiz-adv-x="556" d="M118 240 L533 240 C535 249.333 536.667 259.667 538 271 C539.333 282.333 540 293.667 540 305 C540 341.667 534.333 374.667 523 404 C511.667 433.333 495.5 458.333 474.5 479 C453.5 499.666 427.833 515.666 397.5 527 C367.167 538.333 333 544 295 544 C253.667 544 216.333 536 183 520 C149.667 504 121.167 482.167 97.5 454.5 C73.8333 426.833 55.5 395 42.5 359 C29.5 323 23 285 23 245 C23 205 29 169.333 41 138 C53 106.667 70.1667 80.1667 92.5 58.5 C114.833 36.8333 141.667 20.1667 173 8.5 C204.333 -3.16667 239 -9 277 -9 C306.333 -9 333.333 -5.33333 358 2 C382.667 9.33333 405 19.3333 425 32 C445 44.6667 462.667 59.5 478 76.5 C493.333 93.5 506.333 112 517 132 L453 176 C433.667 145.333 410.334 120.833 383 102.5 C355.667 84.1667 320.334 75 277 75 C227 75 188 89.5 160 118.5 C132 147.5 118 187 118 237 L118 240 Z M294 463 C344 463 381.833 449.333 407.5 422 C433.167 394.667 446 359.334 446 316 L128 316 C137.333 361.333 156.667 397.167 186 423.5 C215.333 449.833 251.333 463 294 463 L294 463 Z M216 670 L202 597 L428 597 L441 670 L216 670 Z " />
<glyph glyph-name="Ebreve" unicode="&#x114;" horiz-adv-x="380" d="M284 730 C307.333 730 327.667 734.167 345 742.5 C362.333 750.833 376.667 761.333 388 774 C399.333 786.667 407.833 800.333 413.5 815 C419.16 829.667 422.327 843.667 423 857 L353 857 C351.667 851 349.5 844.5 346.5 837.5 C343.5 830.5 339.167 824.167 333.5 818.5 C327.833 812.846 321 808.179 313 804.5 C305 800.833 295.333 799 284 799 C272 799 262.333 801 255 805 C247.667 809 241.833 813.833 237.5 819.5 C233.167 825.167 230.333 831.333 229 838 C227.667 844.667 227 851 227 857 L155 857 C154.333 844.333 155.833 830.5 159.5 815.5 C163.167 800.5 169.833 786.667 179.5 774 C189.167 761.333 202.5 750.833 219.5 742.5 C236.5 734.167 258 730 284 730 L284 730 Z M6 0 L301 0 L317 90 L118 90 L156 311 L346 311 L362 401 L173 401 L208 602 L403 602 L419 692 L128 692 L6 0 Z " />
<glyph glyph-name="ebreve" unicode="&#x115;" horiz-adv-x="556" d="M118 240 L533 240 C535 249.333 536.667 259.667 538 271 C539.333 282.333 540 293.667 540 305 C540 341.667 534.333 374.667 523 404 C511.667 433.333 495.5 458.333 474.5 479 C453.5 499.666 427.833 515.666 397.5 527 C367.167 538.333 333 544 295 544 C253.667 544 216.333 536 183 520 C149.667 504 121.167 482.167 97.5 454.5 C73.8333 426.833 55.5 395 42.5 359 C29.5 323 23 285 23 245 C23 205 29 169.333 41 138 C53 106.667 70.1667 80.1667 92.5 58.5 C114.833 36.8333 141.667 20.1667 173 8.5 C204.333 -3.16667 239 -9 277 -9 C306.333 -9 333.333 -5.33333 358 2 C382.667 9.33333 405 19.3333 425 32 C445 44.6667 462.667 59.5 478 76.5 C493.333 93.5 506.333 112 517 132 L453 176 C433.667 145.333 410.334 120.833 383 102.5 C355.667 84.1667 320.334 75 277 75 C227 75 188 89.5 160 118.5 C132 147.5 118 187 118 237 L118 240 Z M294 463 C344 463 381.833 449.333 407.5 422 C433.167 394.667 446 359.334 446 316 L128 316 C137.333 361.333 156.667 397.167 186 423.5 C215.333 449.833 251.333 463 294 463 L294 463 Z M324 571 C348 571 368.5 575.333 385.5 584 C402.5 592.667 416.833 603.5 428.5 616.5 C440.165 629.5 448.832 643.833 454.5 659.5 C460.163 675.167 463.33 690 464 704 L394 704 C392 688.667 385.5 674 374.5 660 C363.5 646 346.667 639 324 639 C312 639 302.167 641 294.5 645 C286.833 649 281 654.333 277 661 C273 667.667 270.333 674.667 269 682 C267.667 689.328 267 696.661 267 704 L196 704 C195.333 690 196.666 675.167 200 659.5 C203.333 643.833 209.666 629.5 219 616.5 C228.333 603.5 241.5 592.667 258.5 584 C275.5 575.333 297.333 571 324 571 L324 571 Z " />
<glyph glyph-name="Edotaccent" unicode="&#x116;" horiz-adv-x="380" d="M280 742 C297.333 742 311.833 747.667 323.5 759 C335.167 770.33 341 784.664 341 802 C341 819.333 335.167 833.833 323.5 845.5 C311.833 857.167 297.333 863 280 863 C262.667 863 248.167 857.167 236.5 845.5 C224.833 833.833 219 819.333 219 802 C219 784.667 224.833 770.333 236.5 759 C248.167 747.667 262.667 742 280 742 L280 742 Z M6 0 L301 0 L317 90 L118 90 L156 311 L346 311 L362 401 L173 401 L208 602 L403 602 L419 692 L128 692 L6 0 Z " />
<glyph glyph-name="edotaccent" unicode="&#x117;" horiz-adv-x="556" d="M118 240 L533 240 C535 249.333 536.667 259.667 538 271 C539.333 282.333 540 293.667 540 305 C540 341.667 534.333 374.667 523 404 C511.667 433.333 495.5 458.333 474.5 479 C453.5 499.666 427.833 515.666 397.5 527 C367.167 538.333 333 544 295 544 C253.667 544 216.333 536 183 520 C149.667 504 121.167 482.167 97.5 454.5 C73.8333 426.833 55.5 395 42.5 359 C29.5 323 23 285 23 245 C23 205 29 169.333 41 138 C53 106.667 70.1667 80.1667 92.5 58.5 C114.833 36.8333 141.667 20.1667 173 8.5 C204.333 -3.16667 239 -9 277 -9 C306.333 -9 333.333 -5.33333 358 2 C382.667 9.33333 405 19.3333 425 32 C445 44.6667 462.667 59.5 478 76.5 C493.333 93.5 506.333 112 517 132 L453 176 C433.667 145.333 410.334 120.833 383 102.5 C355.667 84.1667 320.334 75 277 75 C227 75 188 89.5 160 118.5 C132 147.5 118 187 118 237 L118 240 Z M294 463 C344 463 381.833 449.333 407.5 422 C433.167 394.667 446 359.334 446 316 L128 316 C137.333 361.333 156.667 397.167 186 423.5 C215.333 449.833 251.333 463 294 463 L294 463 Z M317 589 C334.333 589 349 594.833 361 606.5 C373 618.167 379 632.667 379 650 C379 667.331 373 681.664 361 693 C349 704.333 334.333 710 317 710 C299.667 710 285.167 704.333 273.5 693 C261.833 681.667 256 667.333 256 650 C256 632.667 261.833 618.167 273.5 606.5 C285.167 594.833 299.667 589 317 589 L317 589 Z " />
<glyph glyph-name="Eogonek" unicode="&#x118;" horiz-adv-x="380" d="M266 0 L301 0 L317 90 L118 90 L156 311 L346 311 L362 401 L173 401 L208 602 L403 602 L419 692 L128 692 L6 0 L171 0 C152.333 -8.66667 136.833 -20.3333 124.5 -35 C112.167 -49.6667 106 -66.6667 106 -86 C106 -112.667 116.167 -134.167 136.5 -150.5 C156.833 -166.833 185 -175.333 221 -176 C223.667 -176 226.167 -175.833 228.5 -175.5 C230.832 -175.167 232.665 -175 234 -175 L246 -106 C231.333 -105.333 219.5 -101.833 210.5 -95.5 C201.5 -89.1667 197 -79.3333 197 -66 C197 -52.6667 202.833 -40 214.5 -28 C226.167 -16 243.333 -6.66667 266 0 L266 0 Z " />
<glyph glyph-name="eogonek" unicode="&#x119;" horiz-adv-x="556" d="M277 -9 C263.667 -18.3333 253 -29.6667 245 -43 C237 -56.3333 233 -70.6667 233 -86 C233 -112 243.333 -133.333 264 -150 C284.667 -166.667 313 -175.334 349 -176 C351 -176 353.167 -175.833 355.5 -175.5 C357.833 -175.167 359.667 -175 361 -175 L373 -106 C358.333 -105.333 346.5 -101.833 337.5 -95.5 C328.5 -89.1667 324 -79.6667 324 -67 C324 -54.3333 328.833 -40.8333 338.5 -26.5 C348.167 -12.1667 365.667 1 391 13 C419.667 26.3333 444.5 43.1667 465.5 63.5 C486.5 83.8333 503.667 106.667 517 132 L453 176 C433.667 145.333 410.334 120.833 383 102.5 C355.667 84.1667 320.334 75 277 75 C227 75 188 89.5 160 118.5 C132 147.5 118 187 118 237 L118 240 L533 240 C535 249.333 536.667 259.667 538 271 C539.333 282.333 540 293.667 540 305 C540 341.667 534.333 374.667 523 404 C511.667 433.333 495.5 458.333 474.5 479 C453.5 499.666 427.833 515.666 397.5 527 C367.167 538.333 333 544 295 544 C253.667 544 216.333 536 183 520 C149.667 504 121.167 482.167 97.5 454.5 C73.8333 426.833 55.5 395 42.5 359 C29.5 323 23 285 23 245 C23 205 29 169.333 41 138 C53 106.667 70.1667 80.1667 92.5 58.5 C114.833 36.8333 141.667 20.1667 173 8.5 C204.333 -3.16667 239 -9 277 -9 L277 -9 Z M294 463 C344 463 381.833 449.333 407.5 422 C433.167 394.667 446 359.334 446 316 L128 316 C137.333 361.333 156.667 397.167 186 423.5 C215.333 449.833 251.333 463 294 463 L294 463 Z " />
<glyph glyph-name="Ecaron" unicode="&#x11a;" horiz-adv-x="380" d="M231 729 L314 729 L442 855 L355 855 L279 784 L227 855 L144 855 L231 729 Z M6 0 L301 0 L317 90 L118 90 L156 311 L346 311 L362 401 L173 401 L208 602 L403 602 L419 692 L128 692 L6 0 Z " />
<glyph glyph-name="ecaron" unicode="&#x11b;" horiz-adv-x="556" d="M118 240 L533 240 C535 249.333 536.667 259.667 538 271 C539.333 282.333 540 293.667 540 305 C540 341.667 534.333 374.667 523 404 C511.667 433.333 495.5 458.333 474.5 479 C453.5 499.666 427.833 515.666 397.5 527 C367.167 538.333 333 544 295 544 C253.667 544 216.333 536 183 520 C149.667 504 121.167 482.167 97.5 454.5 C73.8333 426.833 55.5 395 42.5 359 C29.5 323 23 285 23 245 C23 205 29 169.333 41 138 C53 106.667 70.1667 80.1667 92.5 58.5 C114.833 36.8333 141.667 20.1667 173 8.5 C204.333 -3.16667 239 -9 277 -9 C306.333 -9 333.333 -5.33333 358 2 C382.667 9.33333 405 19.3333 425 32 C445 44.6667 462.667 59.5 478 76.5 C493.333 93.5 506.333 112 517 132 L453 176 C433.667 145.333 410.334 120.833 383 102.5 C355.667 84.1667 320.334 75 277 75 C227 75 188 89.5 160 118.5 C132 147.5 118 187 118 237 L118 240 Z M294 463 C344 463 381.833 449.333 407.5 422 C433.167 394.667 446 359.334 446 316 L128 316 C137.333 361.333 156.667 397.167 186 423.5 C215.333 449.833 251.333 463 294 463 L294 463 Z M266 578 L350 578 L475 718 L390 718 L314 637 L265 718 L185 718 L266 578 Z " />
<glyph glyph-name="Gcircumflex" unicode="&#x11c;" horiz-adv-x="703" d="M479 855 L395 855 L269 729 L362 729 L434 798 L487 729 L568 729 L479 855 Z M610 0 L673 356 L455 356 L440 273 L564 273 L540 137 C532.667 130.334 523.333 123.334 512 116 C500.667 108.667 487.667 102 473 96 C458.333 90 442 85.1667 424 81.5 C406 77.8333 386.333 76 365 76 C331 76 300.167 81.8333 272.5 93.5 C244.834 105.167 221.167 121.5 201.5 142.5 C181.833 163.5 166.667 188.667 156 218 C145.333 247.333 140 279.667 140 315 C140 359 146.667 399.5 160 436.5 C173.333 473.5 191.833 505.167 215.5 531.5 C239.167 557.833 267.667 578.5 301 593.5 C334.333 608.5 371 616 411 616 C435.667 616 458 613.167 478 607.5 C497.999 601.833 515.666 594.333 531 585 C546.331 575.667 559.665 565 571 553 C582.333 541 592 529 600 517 L678 571 C669.336 587 657.669 603 643 619 C628.336 635 610.169 649.5 588.5 662.5 C566.833 675.5 541.5 686 512.5 694 C483.5 702 450 706 412 706 C357.333 706 307.333 695.833 262 675.5 C216.667 655.167 177.5 627.5 144.5 592.5 C111.5 557.5 85.8333 516.167 67.5 468.5 C49.1667 420.833 40 369.667 40 315 C40 265.667 47.6667 220.833 63 180.5 C78.3333 140.167 100 105.667 128 77 C156 48.3333 189.333 26.1667 228 10.5 C266.667 -5.16667 309.333 -13 356 -13 C400 -13 437 -7 467 5 C497 17 518 28.6667 530 40 L523 0 L610 0 Z " />
<glyph glyph-name="gcircumflex" unicode="&#x11d;" horiz-adv-x="608" d="M430 57 L428 42 C419.333 -8.66666 400.333 -45.1667 371 -67.5 C341.667 -89.8333 303.667 -101 257 -101 C233.667 -101 212.5 -99 193.5 -95 C174.5 -91 157.167 -85.8333 141.5 -79.5 C125.833 -73.1667 112 -66.1667 100 -58.5 C88 -50.8333 77.6667 -43.6667 69 -37 L25 -111 C33.6667 -117.667 45.1667 -125.167 59.5 -133.5 C73.8333 -141.833 90.8333 -149.667 110.5 -157 C130.167 -164.333 152.167 -170.5 176.5 -175.5 C200.833 -180.5 227.333 -183 256 -183 C289.333 -183 320.5 -179.167 349.5 -171.5 C378.5 -163.833 404.5 -151 427.5 -133 C450.5 -115 470 -91.6667 486 -63 C501.998 -34.3333 513.665 1 521 43 L606 535 L515 535 L499 444 C492.333 456.667 483.333 469 472 481 C460.667 493 447 503.667 431 513 C415 522.333 396.667 529.833 376 535.5 C355.333 541.167 332 544 306 544 C261.333 544 221.5 536 186.5 520 C151.5 504 121.833 482.333 97.5 455 C73.1667 427.667 54.6667 396.167 42 360.5 C29.3333 324.833 23 287 23 247 C23 209.667 28.8333 175.333 40.5 144 C52.1667 112.667 68.8333 85.6667 90.5 63 C112.167 40.3333 138.333 22.6667 169 10 C199.667 -2.66667 234 -9 272 -9 C292.666 -9 311.333 -7 328 -3 C344.667 1 359.5 6.33333 372.5 13 C385.5 19.6667 396.833 26.8333 406.5 34.5 C416.167 42.1667 424 49.6667 430 57 L430 57 Z M280 75 C254.667 75 232.167 79.5 212.5 88.5 C192.833 97.5 176 109.833 162 125.5 C148 141.167 137.333 160 130 182 C122.667 204 119 228 119 254 C119 282 123.5 308.5 132.5 333.5 C141.5 358.5 154 380.333 170 399 C186 417.667 205.5 432.5 228.5 443.5 C251.5 454.5 277 460 305 460 C330.333 460 353.167 455.833 373.5 447.5 C393.833 439.167 411 427.334 425 412 C439 396.667 449.833 378.5 457.5 357.5 C465.167 336.5 469 313.333 469 288 C469 258 464.5 230.167 455.5 204.5 C446.5 178.833 433.667 156.333 417 137 C400.333 117.667 380.333 102.5 357 91.5 C333.667 80.5 308 75 280 75 L280 75 Z M393 715 L307 715 L185 575 L273 575 L346 655 L396 575 L474 575 L393 715 Z " />
<glyph glyph-name="Gbreve" unicode="&#x11e;" horiz-adv-x="703" d="M431 730 C454.333 730 474.667 734.167 492 742.5 C509.333 750.833 523.667 761.333 535 774 C546.333 786.667 554.833 800.333 560.5 815 C566.167 829.667 569.333 843.667 570 857 L500 857 C498.667 851 496.5 844.5 493.5 837.5 C490.5 830.5 486.167 824.167 480.5 818.5 C474.833 812.846 468 808.179 460 804.5 C452 800.833 442.333 799 431 799 C419 799 409.333 801 402 805 C394.667 809 388.834 813.833 384.5 819.5 C380.172 825.167 377.339 831.333 376 838 C374.667 844.667 374 851 374 857 L302 857 C301.333 844.333 302.833 830.5 306.5 815.5 C310.164 800.5 316.831 786.667 326.5 774 C336.167 761.333 349.5 750.833 366.5 742.5 C383.5 734.167 405 730 431 730 L431 730 Z M610 0 L673 356 L455 356 L440 273 L564 273 L540 137 C532.667 130.334 523.333 123.334 512 116 C500.667 108.667 487.667 102 473 96 C458.333 90 442 85.1667 424 81.5 C406 77.8333 386.333 76 365 76 C331 76 300.167 81.8333 272.5 93.5 C244.834 105.167 221.167 121.5 201.5 142.5 C181.833 163.5 166.667 188.667 156 218 C145.333 247.333 140 279.667 140 315 C140 359 146.667 399.5 160 436.5 C173.333 473.5 191.833 505.167 215.5 531.5 C239.167 557.833 267.667 578.5 301 593.5 C334.333 608.5 371 616 411 616 C435.667 616 458 613.167 478 607.5 C497.999 601.833 515.666 594.333 531 585 C546.331 575.667 559.665 565 571 553 C582.333 541 592 529 600 517 L678 571 C669.336 587 657.669 603 643 619 C628.336 635 610.169 649.5 588.5 662.5 C566.833 675.5 541.5 686 512.5 694 C483.5 702 450 706 412 706 C357.333 706 307.333 695.833 262 675.5 C216.667 655.167 177.5 627.5 144.5 592.5 C111.5 557.5 85.8333 516.167 67.5 468.5 C49.1667 420.833 40 369.667 40 315 C40 265.667 47.6667 220.833 63 180.5 C78.3333 140.167 100 105.667 128 77 C156 48.3333 189.333 26.1667 228 10.5 C266.667 -5.16667 309.333 -13 356 -13 C400 -13 437 -7 467 5 C497 17 518 28.6667 530 40 L523 0 L610 0 Z " />
<glyph glyph-name="gbreve" unicode="&#x11f;" horiz-adv-x="608" d="M430 57 L428 42 C419.333 -8.66666 400.333 -45.1667 371 -67.5 C341.667 -89.8333 303.667 -101 257 -101 C233.667 -101 212.5 -99 193.5 -95 C174.5 -91 157.167 -85.8333 141.5 -79.5 C125.833 -73.1667 112 -66.1667 100 -58.5 C88 -50.8333 77.6667 -43.6667 69 -37 L25 -111 C33.6667 -117.667 45.1667 -125.167 59.5 -133.5 C73.8333 -141.833 90.8333 -149.667 110.5 -157 C130.167 -164.333 152.167 -170.5 176.5 -175.5 C200.833 -180.5 227.333 -183 256 -183 C289.333 -183 320.5 -179.167 349.5 -171.5 C378.5 -163.833 404.5 -151 427.5 -133 C450.5 -115 470 -91.6667 486 -63 C501.998 -34.3333 513.665 1 521 43 L606 535 L515 535 L499 444 C492.333 456.667 483.333 469 472 481 C460.667 493 447 503.667 431 513 C415 522.333 396.667 529.833 376 535.5 C355.333 541.167 332 544 306 544 C261.333 544 221.5 536 186.5 520 C151.5 504 121.833 482.333 97.5 455 C73.1667 427.667 54.6667 396.167 42 360.5 C29.3333 324.833 23 287 23 247 C23 209.667 28.8333 175.333 40.5 144 C52.1667 112.667 68.8333 85.6667 90.5 63 C112.167 40.3333 138.333 22.6667 169 10 C199.667 -2.66667 234 -9 272 -9 C292.666 -9 311.333 -7 328 -3 C344.667 1 359.5 6.33333 372.5 13 C385.5 19.6667 396.833 26.8333 406.5 34.5 C416.167 42.1667 424 49.6667 430 57 L430 57 Z M280 75 C254.667 75 232.167 79.5 212.5 88.5 C192.833 97.5 176 109.833 162 125.5 C148 141.167 137.333 160 130 182 C122.667 204 119 228 119 254 C119 282 123.5 308.5 132.5 333.5 C141.5 358.5 154 380.333 170 399 C186 417.667 205.5 432.5 228.5 443.5 C251.5 454.5 277 460 305 460 C330.333 460 353.167 455.833 373.5 447.5 C393.833 439.167 411 427.334 425 412 C439 396.667 449.833 378.5 457.5 357.5 C465.167 336.5 469 313.333 469 288 C469 258 464.5 230.167 455.5 204.5 C446.5 178.833 433.667 156.333 417 137 C400.333 117.667 380.333 102.5 357 91.5 C333.667 80.5 308 75 280 75 L280 75 Z M332 571 C356 571 376.5 575.333 393.5 584 C410.5 592.667 424.833 603.5 436.5 616.5 C448.165 629.5 456.832 643.833 462.5 659.5 C468.163 675.167 471.33 690 472 704 L402 704 C400 688.667 393.5 674 382.5 660 C371.5 646 354.667 639 332 639 C320 639 310.167 641 302.5 645 C294.833 649 289 654.333 285 661 C281 667.667 278.333 674.667 277 682 C275.667 689.328 275 696.661 275 704 L204 704 C203.333 690 204.666 675.167 208 659.5 C211.333 643.833 217.666 629.5 227 616.5 C236.333 603.5 249.5 592.667 266.5 584 C283.5 575.333 305.333 571 332 571 L332 571 Z " />
<glyph glyph-name="Gdotaccent" unicode="&#x120;" horiz-adv-x="703" d="M427 742 C444.333 742 458.833 747.667 470.5 759 C482.167 770.33 488 784.664 488 802 C488 819.333 482.167 833.833 470.5 845.5 C458.833 857.167 444.333 863 427 863 C409.667 863 395.167 857.167 383.5 845.5 C371.833 833.833 366 819.333 366 802 C366 784.667 371.833 770.333 383.5 759 C395.167 747.667 409.667 742 427 742 L427 742 Z M610 0 L673 356 L455 356 L440 273 L564 273 L540 137 C532.667 130.334 523.333 123.334 512 116 C500.667 108.667 487.667 102 473 96 C458.333 90 442 85.1667 424 81.5 C406 77.8333 386.333 76 365 76 C331 76 300.167 81.8333 272.5 93.5 C244.834 105.167 221.167 121.5 201.5 142.5 C181.833 163.5 166.667 188.667 156 218 C145.333 247.333 140 279.667 140 315 C140 359 146.667 399.5 160 436.5 C173.333 473.5 191.833 505.167 215.5 531.5 C239.167 557.833 267.667 578.5 301 593.5 C334.333 608.5 371 616 411 616 C435.667 616 458 613.167 478 607.5 C497.999 601.833 515.666 594.333 531 585 C546.331 575.667 559.665 565 571 553 C582.333 541 592 529 600 517 L678 571 C669.336 587 657.669 603 643 619 C628.336 635 610.169 649.5 588.5 662.5 C566.833 675.5 541.5 686 512.5 694 C483.5 702 450 706 412 706 C357.333 706 307.333 695.833 262 675.5 C216.667 655.167 177.5 627.5 144.5 592.5 C111.5 557.5 85.8333 516.167 67.5 468.5 C49.1667 420.833 40 369.667 40 315 C40 265.667 47.6667 220.833 63 180.5 C78.3333 140.167 100 105.667 128 77 C156 48.3333 189.333 26.1667 228 10.5 C266.667 -5.16667 309.333 -13 356 -13 C400 -13 437 -7 467 5 C497 17 518 28.6667 530 40 L523 0 L610 0 Z " />
<glyph glyph-name="gdotaccent" unicode="&#x121;" horiz-adv-x="608" d="M430 57 L428 42 C419.333 -8.66666 400.333 -45.1667 371 -67.5 C341.667 -89.8333 303.667 -101 257 -101 C233.667 -101 212.5 -99 193.5 -95 C174.5 -91 157.167 -85.8333 141.5 -79.5 C125.833 -73.1667 112 -66.1667 100 -58.5 C88 -50.8333 77.6667 -43.6667 69 -37 L25 -111 C33.6667 -117.667 45.1667 -125.167 59.5 -133.5 C73.8333 -141.833 90.8333 -149.667 110.5 -157 C130.167 -164.333 152.167 -170.5 176.5 -175.5 C200.833 -180.5 227.333 -183 256 -183 C289.333 -183 320.5 -179.167 349.5 -171.5 C378.5 -163.833 404.5 -151 427.5 -133 C450.5 -115 470 -91.6667 486 -63 C501.998 -34.3333 513.665 1 521 43 L606 535 L515 535 L499 444 C492.333 456.667 483.333 469 472 481 C460.667 493 447 503.667 431 513 C415 522.333 396.667 529.833 376 535.5 C355.333 541.167 332 544 306 544 C261.333 544 221.5 536 186.5 520 C151.5 504 121.833 482.333 97.5 455 C73.1667 427.667 54.6667 396.167 42 360.5 C29.3333 324.833 23 287 23 247 C23 209.667 28.8333 175.333 40.5 144 C52.1667 112.667 68.8333 85.6667 90.5 63 C112.167 40.3333 138.333 22.6667 169 10 C199.667 -2.66667 234 -9 272 -9 C292.666 -9 311.333 -7 328 -3 C344.667 1 359.5 6.33333 372.5 13 C385.5 19.6667 396.833 26.8333 406.5 34.5 C416.167 42.1667 424 49.6667 430 57 L430 57 Z M280 75 C254.667 75 232.167 79.5 212.5 88.5 C192.833 97.5 176 109.833 162 125.5 C148 141.167 137.333 160 130 182 C122.667 204 119 228 119 254 C119 282 123.5 308.5 132.5 333.5 C141.5 358.5 154 380.333 170 399 C186 417.667 205.5 432.5 228.5 443.5 C251.5 454.5 277 460 305 460 C330.333 460 353.167 455.833 373.5 447.5 C393.833 439.167 411 427.334 425 412 C439 396.667 449.833 378.5 457.5 357.5 C465.167 336.5 469 313.333 469 288 C469 258 464.5 230.167 455.5 204.5 C446.5 178.833 433.667 156.333 417 137 C400.333 117.667 380.333 102.5 357 91.5 C333.667 80.5 308 75 280 75 L280 75 Z M342 589 C359.333 589 374 594.833 386 606.5 C398 618.167 404 632.667 404 650 C404 667.331 398 681.664 386 693 C374 704.333 359.333 710 342 710 C324.667 710 310.167 704.333 298.5 693 C286.833 681.667 281 667.333 281 650 C281 632.667 286.833 618.167 298.5 606.5 C310.167 594.833 324.667 589 342 589 L342 589 Z " />
<glyph glyph-name="Gcommaaccent" unicode="&#x122;" horiz-adv-x="703" d="M610 0 L673 356 L455 356 L440 273 L564 273 L540 137 C532.667 130.334 523.333 123.334 512 116 C500.667 108.667 487.667 102 473 96 C458.333 90 442 85.1667 424 81.5 C406 77.8333 386.333 76 365 76 C331 76 300.167 81.8333 272.5 93.5 C244.834 105.167 221.167 121.5 201.5 142.5 C181.833 163.5 166.667 188.667 156 218 C145.333 247.333 140 279.667 140 315 C140 359 146.667 399.5 160 436.5 C173.333 473.5 191.833 505.167 215.5 531.5 C239.167 557.833 267.667 578.5 301 593.5 C334.333 608.5 371 616 411 616 C435.667 616 458 613.167 478 607.5 C497.999 601.833 515.666 594.333 531 585 C546.331 575.667 559.665 565 571 553 C582.333 541 592 529 600 517 L678 571 C669.336 587 657.669 603 643 619 C628.336 635 610.169 649.5 588.5 662.5 C566.833 675.5 541.5 686 512.5 694 C483.5 702 450 706 412 706 C357.333 706 307.333 695.833 262 675.5 C216.667 655.167 177.5 627.5 144.5 592.5 C111.5 557.5 85.8333 516.167 67.5 468.5 C49.1667 420.833 40 369.667 40 315 C40 265.667 47.6667 220.833 63 180.5 C78.3333 140.167 100 105.667 128 77 C156 48.3333 189.333 26.1667 228 10.5 C266.667 -5.16667 309.333 -13 356 -13 C400 -13 437 -7 467 5 C497 17 518 28.6667 530 40 L523 0 L610 0 Z M291 -156 L238 -242 L298 -242 L348 -160 C354.667 -148.667 360.167 -137.833 364.5 -127.5 C368.833 -117.167 371 -106.333 371 -95 C371 -77.6667 365.5 -63.6667 354.5 -53 C343.5 -42.3333 329.667 -37 313 -37 C294.333 -37 278.833 -43 266.5 -55 C254.167 -67 248 -82.3333 248 -101 C248 -113.667 251.667 -125 259 -135 C266.333 -145 277 -152 291 -156 L291 -156 Z " />
<glyph glyph-name="gcommaaccent" unicode="&#x123;" horiz-adv-x="608" d="M430 57 L428 42 C419.333 -8.66666 400.333 -45.1667 371 -67.5 C341.667 -89.8333 303.667 -101 257 -101 C233.667 -101 212.5 -99 193.5 -95 C174.5 -91 157.167 -85.8333 141.5 -79.5 C125.833 -73.1667 112 -66.1667 100 -58.5 C88 -50.8333 77.6667 -43.6667 69 -37 L25 -111 C33.6667 -117.667 45.1667 -125.167 59.5 -133.5 C73.8333 -141.833 90.8333 -149.667 110.5 -157 C130.167 -164.333 152.167 -170.5 176.5 -175.5 C200.833 -180.5 227.333 -183 256 -183 C289.333 -183 320.5 -179.167 349.5 -171.5 C378.5 -163.833 404.5 -151 427.5 -133 C450.5 -115 470 -91.6667 486 -63 C501.998 -34.3333 513.665 1 521 43 L606 535 L515 535 L499 444 C492.333 456.667 483.333 469 472 481 C460.667 493 447 503.667 431 513 C415 522.333 396.667 529.833 376 535.5 C355.333 541.167 332 544 306 544 C261.333 544 221.5 536 186.5 520 C151.5 504 121.833 482.333 97.5 455 C73.1667 427.667 54.6667 396.167 42 360.5 C29.3333 324.833 23 287 23 247 C23 209.667 28.8333 175.333 40.5 144 C52.1667 112.667 68.8333 85.6667 90.5 63 C112.167 40.3333 138.333 22.6667 169 10 C199.667 -2.66667 234 -9 272 -9 C292.666 -9 311.333 -7 328 -3 C344.667 1 359.5 6.33333 372.5 13 C385.5 19.6667 396.833 26.8333 406.5 34.5 C416.167 42.1667 424 49.6667 430 57 L430 57 Z M280 75 C254.667 75 232.167 79.5 212.5 88.5 C192.833 97.5 176 109.833 162 125.5 C148 141.167 137.333 160 130 182 C122.667 204 119 228 119 254 C119 282 123.5 308.5 132.5 333.5 C141.5 358.5 154 380.333 170 399 C186 417.667 205.5 432.5 228.5 443.5 C251.5 454.5 277 460 305 460 C330.333 460 353.167 455.833 373.5 447.5 C393.833 439.167 411 427.334 425 412 C439 396.667 449.833 378.5 457.5 357.5 C465.167 336.5 469 313.333 469 288 C469 258 464.5 230.167 455.5 204.5 C446.5 178.833 433.667 156.333 417 137 C400.333 117.667 380.333 102.5 357 91.5 C333.667 80.5 308 75 280 75 L280 75 Z M351 692 L404 779 L343 779 L294 696 C286.667 684.667 281 674.167 277 664.5 C273 654.833 271 644.333 271 633 C271 615.667 276.5 601.5 287.5 590.5 C298.5 579.5 312.667 574 330 574 C348.667 574 364 579.833 376 591.5 C388 603.167 394 618.667 394 638 C394 650.667 390.333 661.833 383 671.5 C375.667 681.167 365 688 351 692 L351 692 Z " />
<glyph glyph-name="Hcircumflex" unicode="&#x124;" horiz-adv-x="620" d="M443 855 L359 855 L233 729 L326 729 L398 798 L451 729 L532 729 L443 855 Z M521 0 L643 692 L547 692 L496 405 L174 405 L224 692 L128 692 L6 0 L102 0 L157 313 L480 313 L425 0 L521 0 Z " />
<glyph glyph-name="hcircumflex" unicode="&#x125;" horiz-adv-x="470" d="M367 891 L283 891 L157 765 L250 765 L322 834 L375 765 L456 765 L367 891 Z M343 334 L284 0 L378 0 L437 334 C441.667 360.667 442.667 386.5 440 411.5 C437.333 436.5 430.5 458.5 419.5 477.5 C408.5 496.5 392.833 511.833 372.5 523.5 C352.167 535.167 326 541 294 541 C266.667 541 243.167 535.333 223.5 524 C203.834 512.667 189.667 500.667 181 488 L224 731 L131 731 L2 0 L95 0 L156 345 C162 379 173.5 406.333 190.5 427 C207.5 447.667 232.333 458 265 458 C297 458 319.667 446.833 333 424.5 C346.333 402.167 349.667 372 343 334 L343 334 Z " />
<glyph glyph-name="Hbar" unicode="&#x126;" horiz-adv-x="636" d="M632 592 L650 692 L554 692 L536 592 L213 592 L231 692 L135 692 L117 592 L61 592 L47 516 L104 516 L13 0 L109 0 L164 313 L487 313 L432 0 L528 0 L619 516 L676 516 L690 592 L632 592 Z M503 405 L181 405 L200 516 L522 516 L503 405 Z " />
<glyph glyph-name="hbar" unicode="&#x127;" horiz-adv-x="477" d="M74 662 L62 591 L112 591 L8 0 L101 0 L162 345 C168 379 179.5 406.333 196.5 427 C213.5 447.667 238.333 458 271 458 C303 458 325.667 446.833 339 424.5 C352.333 402.167 355.667 372 349 334 L290 0 L384 0 L443 334 C447.667 360.667 448.667 386.5 446 411.5 C443.333 436.5 436.5 458.5 425.5 477.5 C414.5 496.5 398.833 511.833 378.5 523.5 C358.167 535.167 332 541 300 541 C272.667 541 249.167 535.333 229.5 524 C209.834 512.667 195.667 500.667 187 488 L205 591 L324 591 L337 662 L217 662 L230 731 L137 731 L125 662 L74 662 Z " />
<glyph glyph-name="Itilde" unicode="&#x128;" horiz-adv-x="201" d="M254 736 C284 736 307.5 746.833 324.5 768.5 C341.5 790.167 351.667 818.333 355 853 L286 853 C284 823 271.667 808 249 808 C239 808 230 810.333 222 815 C214 819.667 205.5 824.833 196.5 830.5 C187.5 836.167 178 841.333 168 846 C158 850.667 146 853 132 853 C100.667 853 76.3334 841.667 59 819 C41.6667 796.333 32 769 30 737 L98 737 C101.333 766.333 114.333 781 137 781 C146.333 781 155 778.667 163 774 C171 769.345 179.5 764.178 188.5 758.5 C197.5 752.845 207.167 747.678 217.5 743 C227.833 738.333 240 736 254 736 L254 736 Z M102 0 L224 692 L128 692 L6 0 L102 0 Z " />
<glyph glyph-name="itilde" unicode="&#x129;" horiz-adv-x="190" d="M96 0 L189 535 L96 535 L2 0 L96 0 Z M219 582 C249 582 272.5 592.833 289.5 614.5 C306.5 636.167 316.667 664.333 320 699 L251 699 C249.667 684.336 245.833 673.169 239.5 665.5 C233.167 657.833 225 654 215 654 C205 654 196 656.333 188 661 C180 665.667 171.667 670.833 163 676.5 C154.333 682.167 145 687.333 135 692 C125 696.667 113 699 99 699 C83.6667 699 69.8334 695.833 57.5 689.5 C45.1667 683.167 34.6667 674.833 26 664.5 C17.3333 654.167 10.5 642 5.5 628 C0.5 614 -2.33333 599 -3 583 L65 583 C66.3333 596.333 70.1667 607 76.5 615 C82.8333 623 91.6667 627 103 627 C112.333 627 121 624.667 129 620 C137 615.343 145.333 610.176 154 604.5 C162.667 598.838 172.167 593.671 182.5 589 C192.833 584.333 205 582 219 582 L219 582 Z " />
<glyph glyph-name="Imacron" unicode="&#x12a;" horiz-adv-x="201" d="M83 818 L70 745 L299 745 L313 818 L83 818 Z M102 0 L224 692 L128 692 L6 0 L102 0 Z " />
<glyph glyph-name="imacron" unicode="&#x12b;" horiz-adv-x="190" d="M62 670 L49 597 L254 597 L267 670 L62 670 Z M96 0 L189 535 L96 535 L2 0 L96 0 Z " />
<glyph glyph-name="Ibreve" unicode="&#x12c;" horiz-adv-x="201" d="M192 730 C215.333 730 235.667 734.167 253 742.5 C270.333 750.833 284.667 761.333 296 774 C307.333 786.667 315.833 800.333 321.5 815 C327.162 829.667 330.328 843.667 331 857 L261 857 C259.667 851 257.5 844.5 254.5 837.5 C251.5 830.5 247.167 824.167 241.5 818.5 C235.833 812.846 229 808.179 221 804.5 C213 800.833 203.333 799 192 799 C180 799 170.333 801 163 805 C155.667 809 149.833 813.833 145.5 819.5 C141.167 825.167 138.333 831.333 137 838 C135.667 844.667 135 851 135 857 L63 857 C62.3333 844.333 63.8333 830.5 67.5 815.5 C71.1665 800.5 77.8332 786.667 87.5 774 C97.1667 761.333 110.5 750.833 127.5 742.5 C144.5 734.167 166 730 192 730 L192 730 Z M102 0 L224 692 L128 692 L6 0 L102 0 Z " />
<glyph glyph-name="ibreve" unicode="&#x12d;" horiz-adv-x="190" d="M96 0 L189 535 L96 535 L2 0 L96 0 Z M155 571 C179 571 199.5 575.333 216.5 584 C233.5 592.667 247.833 603.5 259.5 616.5 C271.166 629.5 279.832 643.833 285.5 659.5 C291.162 675.167 294.329 690 295 704 L225 704 C223 688.667 216.5 674 205.5 660 C194.5 646 177.667 639 155 639 C143 639 133.167 641 125.5 645 C117.833 649 112 654.333 108 661 C104 667.667 101.333 674.667 100 682 C98.6667 689.328 98 696.661 98 704 L27 704 C26.3333 690 27.6667 675.167 31 659.5 C34.3333 643.833 40.6666 629.5 50 616.5 C59.3333 603.5 72.5 592.667 89.5 584 C106.5 575.333 128.333 571 155 571 L155 571 Z " />
<glyph glyph-name="Iogonek" unicode="&#x12e;" horiz-adv-x="201" d="M101 -3 L224 692 L128 692 L6 0 C-11.3333 -8.66667 -26 -20.3333 -38 -35 C-50 -49.6667 -56 -66.6667 -56 -86 C-56 -112.667 -45.8333 -134.167 -25.5 -150.5 C-5.16667 -166.833 23 -175.333 59 -176 C61 -176 63.1667 -175.833 65.5 -175.5 C67.8333 -175.167 69.6667 -175 71 -175 L83 -106 C69 -105.333 57.5 -101.833 48.5 -95.5 C39.5 -89.1667 35 -79.6667 35 -67 C35 -53.6667 40.1667 -41.3333 50.5 -30 C60.8333 -18.6667 77.6667 -9.66667 101 -3 L101 -3 Z " />
<glyph glyph-name="iogonek" unicode="&#x12f;" horiz-adv-x="190" d="M95 -3 L190 535 L96 535 L3 4 C-14.3333 -3.33333 -29.5 -14.8333 -42.5 -30.5 C-55.5 -46.1667 -62 -64.6667 -62 -86 C-62 -112 -52 -133.333 -32 -150 C-12 -166.667 16.3333 -175.334 53 -176 C55 -176 57.1667 -175.833 59.5 -175.5 C61.8332 -175.167 63.6665 -175 65 -175 L77 -106 C63 -105.333 51.3333 -101.666 42 -95 C32.6667 -88.3333 28 -79 28 -67 C28 -54.3333 33.3333 -42.1667 44 -30.5 C54.6667 -18.8333 71.6667 -9.66667 95 -3 L95 -3 Z M161 587 C178.333 587 193.166 593.167 205.5 605.5 C217.833 617.831 224 632.664 224 650 C224 668 217.833 683 205.5 695 C193.167 707 178.333 713 161 713 C143.667 713 129 707 117 695 C105 683 99 668 99 650 C99 632.667 105 617.833 117 605.5 C129 593.167 143.667 587 161 587 L161 587 Z " />
<glyph glyph-name="Idotaccent" unicode="&#x130;" horiz-adv-x="201" d="M195 742 C212.333 742 226.833 747.667 238.5 759 C250.167 770.33 256 784.664 256 802 C256 819.333 250.167 833.833 238.5 845.5 C226.833 857.167 212.333 863 195 863 C177.667 863 163.167 857.167 151.5 845.5 C139.833 833.833 134 819.333 134 802 C134 784.667 139.833 770.333 151.5 759 C163.167 747.667 177.667 742 195 742 L195 742 Z M102 0 L224 692 L128 692 L6 0 L102 0 Z " />
<glyph glyph-name="dotlessi" unicode="&#x131;" horiz-adv-x="190" d="M96 0 L189 535 L96 535 L2 0 L96 0 Z " />
<glyph glyph-name="IJ" unicode="&#x132;" horiz-adv-x="459" d="M102 0 L224 692 L128 692 L6 0 L102 0 Z M385 139 L482 692 L386 692 L290 150 C288 140.667 286 132.333 284 125 C282 117.667 278.833 111.334 274.5 106 C270.167 100.667 264.5 96.5 257.5 93.5 C250.5 90.5 241.333 89 230 89 L193 89 L177 0 C179 0 184.5 -0.166672 193.5 -0.5 C202.5 -0.833328 215 -1 231 -1 C256.333 -1 277.833 1.66667 295.5 7 C313.167 12.3333 327.833 20.8333 339.5 32.5 C351.167 44.1667 360.667 58.8333 368 76.5 C375.333 94.1667 381 115 385 139 L385 139 Z " />
<glyph glyph-name="ij" unicode="&#x133;" horiz-adv-x="381" d="M284 -15 L381 535 L287 535 L190 -12 C188 -25.3333 185.333 -37 182 -47 C178.667 -57 174.167 -65.5 168.5 -72.5 C162.834 -79.5 155.667 -84.6667 147 -88 C138.333 -91.3333 127 -93 113 -93 L95 -93 L80 -175 L116 -175 C142 -175 164.333 -172 183 -166 C201.667 -160 217.667 -150.667 231 -138 C244.333 -125.333 255.166 -108.833 263.5 -88.5 C271.833 -68.1667 278.667 -43.6667 284 -15 L284 -15 Z M352 587 C369.333 587 384.167 593.167 396.5 605.5 C408.833 617.831 415 632.664 415 650 C415 668 408.833 683 396.5 695 C384.167 707 369.334 713 352 713 C334.667 713 320 707 308 695 C296 683 290 668 290 650 C290 632.667 296 617.833 308 605.5 C320 593.167 334.667 587 352 587 L352 587 Z M96 0 L190 535 L96 535 L2 0 L96 0 Z M161 587 C178.333 587 193.166 593.167 205.5 605.5 C217.833 617.831 224 632.664 224 650 C224 668 217.833 683 205.5 695 C193.167 707 178.333 713 161 713 C143.667 713 129 707 117 695 C105 683 99 668 99 650 C99 632.667 105 617.833 117 605.5 C129 593.167 143.667 587 161 587 L161 587 Z " />
<glyph glyph-name="Jcircumflex" unicode="&#x134;" horiz-adv-x="257" d="M288 855 L204 855 L78 729 L171 729 L243 798 L296 729 L377 729 L288 855 Z M184 139 L281 692 L185 692 L89 150 C87 140.667 85 132.333 83 125 C81 117.667 77.8333 111.334 73.5 106 C69.1667 100.667 63.5 96.5 56.5 93.5 C49.5 90.5 40.3333 89 29 89 L-8 89 L-24 0 C-22 0 -16.5 -0.166672 -7.5 -0.5 C1.5 -0.833328 14 -1 30 -1 C55.3333 -1 76.8333 1.66667 94.5 7 C112.167 12.3333 126.833 20.8333 138.5 32.5 C150.167 44.1667 159.667 58.8333 167 76.5 C174.333 94.1667 180 115 184 139 L184 139 Z " />
<glyph glyph-name="jcircumflex" unicode="&#x135;" horiz-adv-x="191" d="M205 715 L120 715 L6 575 L91 575 L158 655 L203 575 L279 575 L205 715 Z M93 -15 L190 535 L96 535 L0 -12 C-2 -25.3333 -4.66667 -37 -8 -47 C-11.3333 -57 -15.8333 -65.5 -21.5 -72.5 C-27.1667 -79.5 -34.3333 -84.6667 -43 -88 C-51.6667 -91.3333 -63 -93 -77 -93 L-96 -93 L-110 -175 L-74 -175 C-23.3333 -175 14.6667 -162.667 40 -138 C65.3333 -113.333 83 -72.3333 93 -15 L93 -15 Z " />
<glyph glyph-name="Kcommaaccent" unicode="&#x136;" horiz-adv-x="511" d="M172 396 L224 692 L128 692 L6 0 L102 0 L160 331 L365 0 L470 0 L250 359 L581 692 L467 692 L172 396 Z M190 -156 L137 -242 L197 -242 L247 -160 C253.667 -148.667 259.167 -137.833 263.5 -127.5 C267.833 -117.167 270 -106.333 270 -95 C270 -77.6667 264.5 -63.6667 253.5 -53 C242.5 -42.3333 228.667 -37 212 -37 C193.333 -37 177.833 -43 165.5 -55 C153.167 -67 147 -82.3333 147 -101 C147 -113.667 150.667 -125 158 -135 C165.333 -145 176 -152 190 -156 L190 -156 Z " />
<glyph glyph-name="kcommaaccent" unicode="&#x137;" horiz-adv-x="450" d="M151 318 L224 731 L131 731 L2 0 L95 0 L141 262 L300 0 L402 0 L230 286 L491 535 L378 535 L151 318 Z M155 -156 L102 -242 L162 -242 L212 -160 C218.667 -148.667 224.167 -137.833 228.5 -127.5 C232.833 -117.167 235 -106.333 235 -95 C235 -77.6667 229.5 -63.6667 218.5 -53 C207.5 -42.3333 193.667 -37 177 -37 C158.333 -37 142.833 -43 130.5 -55 C118.167 -67 112 -82.3333 112 -101 C112 -113.667 115.667 -125 123 -135 C130.333 -145 141 -152 155 -156 L155 -156 Z " />
<glyph glyph-name="Lacute" unicode="&#x139;" horiz-adv-x="367" d="M320 855 L226 855 L138 729 L230 729 L320 855 Z M6 0 L298 0 L313 90 L118 90 L224 692 L128 692 L6 0 Z " />
<glyph glyph-name="lacute" unicode="&#x13a;" horiz-adv-x="190" d="M321 891 L227 891 L139 765 L231 765 L321 891 Z M95 0 L224 731 L131 731 L2 0 L95 0 Z " />
<glyph glyph-name="Lcommaaccent" unicode="&#x13b;" horiz-adv-x="367" d="M6 0 L298 0 L313 90 L118 90 L224 692 L128 692 L6 0 Z M122 -156 L69 -242 L129 -242 L179 -160 C185.667 -148.667 191.167 -137.833 195.5 -127.5 C199.833 -117.167 202 -106.333 202 -95 C202 -77.6667 196.5 -63.6667 185.5 -53 C174.5 -42.3333 160.667 -37 144 -37 C125.333 -37 109.833 -43 97.5 -55 C85.1667 -67 79 -82.3333 79 -101 C79 -113.667 82.6667 -125 90 -135 C97.3333 -145 108 -152 122 -156 L122 -156 Z " />
<glyph glyph-name="lcommaaccent" unicode="&#x13c;" horiz-adv-x="190" d="M95 0 L224 731 L131 731 L2 0 L95 0 Z M14 -156 L-39 -242 L21 -242 L71 -160 C77.6667 -148.667 83.1667 -137.833 87.5 -127.5 C91.8333 -117.167 94 -106.333 94 -95 C94 -77.6667 88.5 -63.6667 77.5 -53 C66.5 -42.3333 52.6667 -37 36 -37 C17.3333 -37 1.83333 -43 -10.5 -55 C-22.8333 -67 -29 -82.3333 -29 -101 C-29 -113.667 -25.3333 -125 -18 -135 C-10.6667 -145 0 -152 14 -156 L14 -156 Z " />
<glyph glyph-name="Lcaron" unicode="&#x13d;" horiz-adv-x="367" d="M6 0 L298 0 L313 90 L118 90 L224 692 L128 692 L6 0 Z M356 693 L277 693 L237 539 L314 539 L356 693 Z " />
<glyph glyph-name="lcaron" unicode="&#x13e;" horiz-adv-x="190" d="M95 0 L224 731 L131 731 L2 0 L95 0 Z M355 731 L276 731 L236 577 L313 577 L355 731 Z " />
<glyph glyph-name="Ldot" unicode="&#x13f;" horiz-adv-x="394" d="M312 286 C331.333 286 347.5 292.5 360.5 305.5 C373.5 318.5 380 334.667 380 354 C380 373.333 373.5 389.333 360.5 402 C347.5 414.667 331.333 421 312 421 C292.667 421 276.667 414.667 264 402 C251.333 389.333 245 373.333 245 354 C245 334.667 251.5 318.5 264.5 305.5 C277.5 292.5 293.333 286 312 286 L312 286 Z M6 0 L298 0 L313 90 L118 90 L224 692 L128 692 L6 0 Z " />
<glyph glyph-name="ldot" unicode="&#x140;" horiz-adv-x="300" d="M195 354 C195 336 201.167 320.833 213.5 308.5 C225.833 296.167 241 290 259 290 C277 290 292.167 296.167 304.5 308.5 C316.833 320.833 323 336 323 354 C323 372 316.833 387.167 304.5 399.5 C292.167 411.833 277 418 259 418 C241 418 225.833 411.833 213.5 399.5 C201.167 387.167 195 372 195 354 L195 354 Z M95 0 L224 731 L131 731 L2 0 L95 0 Z " />
<glyph glyph-name="Lslash" unicode="&#x141;" horiz-adv-x="383" d="M22 0 L314 0 L329 90 L134 90 L165 270 L298 341 L314 437 L182 364 L240 692 L144 692 L76 305 L14 271 L-2 180 L59 213 L22 0 Z " />
<glyph glyph-name="lslash" unicode="&#x142;" horiz-adv-x="211" d="M193 499 L234 731 L141 731 L89 435 L32 400 L15 303 L71 337 L12 0 L105 0 L175 399 L233 434 L251 535 L193 499 Z " />
<glyph glyph-name="Nacute" unicode="&#x143;" horiz-adv-x="638" d="M518 855 L424 855 L336 729 L428 729 L518 855 Z M192 533 L447 0 L539 0 L661 692 L569 692 L473 153 L222 692 L128 692 L6 0 L98 0 L192 533 Z " />
<glyph glyph-name="nacute" unicode="&#x144;" horiz-adv-x="470" d="M343 334 L284 0 L378 0 L437 334 C441.653 360.666 442.82 386.333 440.5 411 C438.167 435.667 431.5 457.667 420.5 477 C409.5 496.333 393.833 511.833 373.5 523.5 C353.167 535.167 327 541 295 541 C267 541 243 535.333 223 524 C203 512.667 188.667 500.333 180 487 L189 535 L96 535 L2 0 L96 0 L156 345 C162 379 173.5 406.333 190.5 427 C207.5 447.667 232.667 458 266 458 C298 458 320.5 446.833 333.5 424.5 C346.5 402.167 349.667 372 343 334 L343 334 Z M415 714 L324 714 L229 579 L320 579 L415 714 Z " />
<glyph glyph-name="Ncommaaccent" unicode="&#x145;" horiz-adv-x="638" d="M192 533 L447 0 L539 0 L661 692 L569 692 L473 153 L222 692 L128 692 L6 0 L98 0 L192 533 Z M241 -156 L188 -242 L248 -242 L298 -160 C304.667 -148.667 310.167 -137.833 314.5 -127.5 C318.833 -117.167 321 -106.333 321 -95 C321 -77.6667 315.5 -63.6667 304.5 -53 C293.5 -42.3333 279.667 -37 263 -37 C244.333 -37 228.833 -43 216.5 -55 C204.167 -67 198 -82.3333 198 -101 C198 -113.667 201.667 -125 209 -135 C216.333 -145 227 -152 241 -156 L241 -156 Z " />
<glyph glyph-name="ncommaaccent" unicode="&#x146;" horiz-adv-x="471" d="M343 334 L284 0 L378 0 L437 334 C441.653 360.666 442.82 386.333 440.5 411 C438.167 435.667 431.5 457.667 420.5 477 C409.5 496.333 393.833 511.833 373.5 523.5 C353.167 535.167 327 541 295 541 C267 541 243 535.333 223 524 C203 512.667 188.667 500.333 180 487 L189 535 L96 535 L2 0 L96 0 L156 345 C162 379 173.5 406.333 190.5 427 C207.5 447.667 232.667 458 266 458 C298 458 320.5 446.833 333.5 424.5 C346.5 402.167 349.667 372 343 334 L343 334 Z M155 -156 L102 -242 L162 -242 L212 -160 C218.667 -148.667 224.167 -137.833 228.5 -127.5 C232.833 -117.167 235 -106.333 235 -95 C235 -77.6667 229.5 -63.6667 218.5 -53 C207.5 -42.3333 193.667 -37 177 -37 C158.333 -37 142.833 -43 130.5 -55 C118.167 -67 112 -82.3333 112 -101 C112 -113.667 115.667 -125 123 -135 C130.333 -145 141 -152 155 -156 L155 -156 Z " />
<glyph glyph-name="Ncaron" unicode="&#x147;" horiz-adv-x="638" d="M354 729 L437 729 L565 855 L478 855 L402 784 L350 855 L267 855 L354 729 Z M192 533 L447 0 L539 0 L661 692 L569 692 L473 153 L222 692 L128 692 L6 0 L98 0 L192 533 Z " />
</font>
</svg>
