<?xml version="1.0" encoding="UTF-8"?>
<svg xmlns="http://www.w3.org/2000/svg" xmlns:xlink="http://www.w3.org/1999/xlink" version="1.2" >
<font id="P 700">
<font-face  font-family="P" units-per-em="1000" ascent="825" descent="-175" font-style="normal" font-weight="700" font-stretch="normal" cap-height="692" x-height="535" underline-position="-75" underline-thickness="50" />
<missing-glyph  horiz-adv-x="151" d="" />
<glyph glyph-name=".null" d="" />
<glyph glyph-name="nonmarkingreturn" unicode="&#xd;" horiz-adv-x="151" d="" />
<glyph glyph-name="space" unicode="&#x20;" horiz-adv-x="151" d="" />
<glyph glyph-name="exclam" unicode="&#x21;" horiz-adv-x="236" d="M186 190 L186 691 L50 692 L50 190 L186 190 Z M119 -10 C130.333 -10 141 -7.83333 151 -3.5 C161 0.833328 169.833 6.83333 177.5 14.5 C185.167 22.1667 191.167 31.1667 195.5 41.5 C199.833 51.8333 202 63 202 75 C202 87 199.833 98 195.5 108 C191.167 118 185.167 126.833 177.5 134.5 C169.833 142.167 161 148.167 151 152.5 C141 156.833 130.333 159 119 159 C95.6667 159 75.5 150.833 58.5 134.5 C41.5 118.167 33 98.3334 33 75 C33 63 35.3333 51.8333 40 41.5 C44.6667 31.1667 50.8333 22.1667 58.5 14.5 C66.1667 6.83333 75.1667 0.833328 85.5 -3.5 C95.8333 -7.83333 107 -10 119 -10 L119 -10 Z " />
<glyph glyph-name="quotedbl" unicode="&#x22;" horiz-adv-x="358" d="M153 692 L31 692 L31 436 L153 436 L153 692 Z M327 692 L205 692 L205 436 L327 436 L327 692 Z " />
<glyph glyph-name="numbersign" unicode="&#x23;" horiz-adv-x="611" d="M428 172 L533 172 L533 281 L454 281 L491 432 L594 432 L594 541 L518 541 L555 692 L435 692 L398 541 L304 541 L341 692 L221 692 L184 541 L78 541 L78 432 L158 432 L121 281 L16 281 L16 172 L95 172 L53 0 L172 0 L214 172 L309 172 L268 0 L386 0 L428 172 Z M240 281 L277 432 L372 432 L336 281 L240 281 Z " />
<glyph glyph-name="dollar" unicode="&#x24;" horiz-adv-x="498" d="M287 702 L287 760 L210 760 L210 702 C182.667 698.667 158.167 691.5 136.5 680.5 C114.833 669.5 96.3333 656 81 640 C65.6667 624 53.8333 605.5 45.5 584.5 C37.1667 563.5 33 541.333 33 518 C33 468.667 44 429.167 66 399.5 C88 369.833 119 345.333 159 326 L210 304 L210 99 C184.667 106.333 167 120.167 157 140.5 C147 160.833 142.333 185 143 213 L24 213 C23.3333 188.333 25.6667 163.5 31 138.5 C36.3333 113.5 46.1666 90.5 60.5 69.5 C74.8333 48.5 94 30.8333 118 16.5 C142 2.16667 172.667 -7 210 -11 L210 -69 L287 -69 L287 -10 C315 -6.66667 340.5 0.5 363.5 11.5 C386.5 22.5 406.167 36.6667 422.5 54 C438.833 71.3333 451.5 91.5 460.5 114.5 C469.5 137.5 474 162.667 474 190 C474 216.667 470.833 240.167 464.5 260.5 C458.167 280.833 449 299 437 315 C425 331 410.5 345.167 393.5 357.5 C376.5 369.833 357.667 380.667 337 390 C335.667 390.667 332.667 392 328 394 C323.333 396 318.333 398.333 313 401 C307.667 403.667 302.5 406 297.5 408 C292.5 410 289 411.333 287 412 L287 593 C304.333 585.667 317.667 573.667 327 557 C336.333 540.335 341 520.669 341 498 L452 498 C452.674 523.333 450.34 547.5 445 570.5 C439.667 593.5 430.5 614.167 417.5 632.5 C404.5 650.833 387.167 666 365.5 678 C343.833 690 317.667 698 287 702 L287 702 Z M348 182 C348 160.667 342.667 143 332 129 C321.333 115 306.333 105.333 287 100 L287 268 C305.667 257.333 320.5 246 331.5 234 C342.5 222 348 204.667 348 182 L348 182 Z M155 523 C155 561.667 173.333 586 210 596 L210 446 C192.667 455.333 179.167 465.667 169.5 477 C159.833 488.333 155 503.667 155 523 L155 523 Z " />
<glyph glyph-name="percent" unicode="&#x25;" horiz-adv-x="794" d="M534 164 C534 184 539.833 201 551.5 215 C563.167 229 580 236 602 236 C624 236 641.167 229.333 653.5 216 C665.833 202.667 672 185.333 672 164 C672 144 666.333 126.833 655 112.5 C643.667 98.1667 626.333 91 603 91 C581.667 91 564.833 98 552.5 112 C540.167 126 534 143.333 534 164 L534 164 Z M429 163 C429 139 433.167 116.667 441.5 96 C449.833 75.3333 461.5 57.5 476.5 42.5 C491.5 27.5 509.833 15.6667 531.5 7 C553.167 -1.66667 577 -6 603 -6 C629 -6 652.667 -1.66667 674 7 C695.333 15.6667 713.666 27.6667 729 43 C744.332 58.3333 756.165 76.1667 764.5 96.5 C772.833 116.833 777 139 777 163 C777 187 772.833 209.5 764.5 230.5 C756.167 251.5 744.333 269.667 729 285 C713.667 300.333 695.167 312.333 673.5 321 C651.833 329.667 627.667 334 601 334 C575.667 334 552.333 329.667 531 321 C509.667 312.333 491.5 300.333 476.5 285 C461.5 269.667 449.833 251.5 441.5 230.5 C433.167 209.5 429 187 429 163 L429 163 Z M201 0 L713 692 L598 692 L85 0 L201 0 Z M122 529 C122 549 127.833 566.167 139.5 580.5 C151.167 594.833 168 602 190 602 C212 602 229.333 595.167 242 581.5 C254.667 567.833 261 550.333 261 529 C261 509 255.167 492 243.5 478 C231.833 464 214.333 457 191 457 C169.667 457 152.833 463.833 140.5 477.5 C128.167 491.166 122 508.332 122 529 L122 529 Z M18 529 C18 505 22.1667 482.5 30.5 461.5 C38.8333 440.5 50.5 422.5 65.5 407.5 C80.5 392.5 98.6667 380.667 120 372 C141.333 363.333 165 359 191 359 C217 359 240.667 363.333 262 372 C283.333 380.667 301.667 392.667 317 408 C332.333 423.333 344.167 441.333 352.5 462 C360.833 482.667 365 505 365 529 C365 553 360.833 575.5 352.5 596.5 C344.168 617.5 332.335 635.5 317 650.5 C301.667 665.5 283.167 677.333 261.5 686 C239.833 694.667 215.667 699 189 699 C163.667 699 140.5 694.667 119.5 686 C98.5 677.333 80.5 665.333 65.5 650 C50.5 634.667 38.8333 616.667 30.5 596 C22.1667 575.333 18 553 18 529 L18 529 Z " />
<glyph glyph-name="ampersand" unicode="&#x26;" horiz-adv-x="664" d="M472 45 L516 0 L684 0 L554 135 C575.333 169 590 206 598 246 C606 286 609 327.667 607 371 L477 371 C478.333 347.667 477.5 324.5 474.5 301.5 C471.5 278.5 466.333 257 459 237 L346 353 C364.666 355.667 382.333 361.5 399 370.5 C415.667 379.5 430.167 391.167 442.5 405.5 C454.833 419.833 464.667 436.667 472 456 C479.333 475.333 483 496.667 483 520 C483 546 478.5 570.167 469.5 592.5 C460.5 614.832 447.167 634.165 429.5 650.5 C411.833 666.833 390.333 679.666 365 689 C339.667 698.333 310.667 703 278 703 C246.667 703 218.5 698.167 193.5 688.5 C168.5 678.834 147.333 665.667 130 649 C112.667 632.333 99.3334 612.833 90 590.5 C80.6667 568.167 76 544.667 76 520 C76 492 81 467.167 91 445.5 C101 423.833 114.333 405.333 131 390 C95 372 67.5 346.667 48.5 314 C29.5 281.333 20 244.333 20 203 C20 172.333 26.1667 144 38.5 118 C50.8333 92 68.5 69.5 91.5 50.5 C114.5 31.5 142.667 16.5 176 5.5 C209.333 -5.5 247.333 -11 290 -11 C328 -11 362 -6 392 4 C422 14 448.667 27.6667 472 45 L472 45 Z M293 110 C253.667 110 222 120.333 198 141 C174 161.667 162 188.333 162 221 C162 241 166.167 258.667 174.5 274 C182.833 289.333 194.666 301.667 210 311 L383 135 C371.668 127.667 358.335 121.667 343 117 C327.667 112.333 311 110 293 110 L293 110 Z M204 516 C204 538 211 556.333 225 571 C239 585.667 257.333 593 280 593 C303.333 593 322.167 586 336.5 572 C350.833 558 358.333 540 359 518 C359 494.667 351.833 475.667 337.5 461 C323.167 446.333 304.667 439 282 439 C260 439 241.5 446.333 226.5 461 C211.5 475.667 204 494 204 516 L204 516 Z " />
<glyph glyph-name="quotesingle" unicode="&#x27;" horiz-adv-x="184" d="M153 692 L31 692 L31 436 L153 436 L153 692 Z " />
<glyph glyph-name="parenleft" unicode="&#x28;" horiz-adv-x="268" d="M40 593 L40 28 C40 -38 56.3333 -88.3333 89 -123 C121.667 -157.667 173.333 -175 244 -175 L252 -175 L252 -57 L245 -57 C213.667 -57 192.833 -49.3333 182.5 -34 C172.167 -18.6667 167 1.66667 167 27 L167 594 C167 619.333 172.167 639.5 182.5 654.5 C192.833 669.5 213.666 677 245 677 L252 677 L252 796 L244 796 C173.333 796 121.667 778.5 89 743.5 C56.3333 708.5 40 658.333 40 593 L40 593 Z " />
<glyph glyph-name="parenright" unicode="&#x29;" horiz-adv-x="268" d="M228 28 L228 593 C228 658.333 211.667 708.5 179 743.5 C146.333 778.5 94.6667 796 24 796 L16 796 L16 677 L23 677 C54.3333 677 75.1667 669.5 85.5 654.5 C95.8333 639.5 101 619.333 101 594 L101 27 C101 1.66667 95.8333 -18.6667 85.5 -34 C75.1667 -49.3333 54.3333 -57 23 -57 L16 -57 L16 -175 L24 -175 C94.6667 -175 146.333 -157.667 179 -123 C211.667 -88.3333 228 -38 228 28 L228 28 Z " />
<glyph glyph-name="asterisk" unicode="&#x2a;" horiz-adv-x="404" d="M73 642 L28 564 L112 515 L28 466 L73 389 L157 439 L157 339 L247 339 L247 439 L331 389 L376 467 L291 516 L375 565 L331 642 L247 593 L247 692 L157 692 L157 593 L73 642 Z " />
<glyph glyph-name="plus" unicode="&#x2b;" horiz-adv-x="470" d="M27 393 L27 281 L175 281 L175 127 L295 127 L295 281 L442 281 L442 393 L295 393 L295 546 L175 546 L175 393 L27 393 Z " />
<glyph glyph-name="comma" unicode="&#x2c;" horiz-adv-x="208" d="M78 -2 L23 -111 L115 -111 L168 -2 C174.667 12 179.833 25.1667 183.5 37.5 C187.167 49.8333 189 62.3333 189 75 C189 99.6667 181.333 120.167 166 136.5 C150.667 152.833 130.333 161 105 161 C79.6667 161 58.8333 152.833 42.5 136.5 C26.1667 120.167 18.3333 100 19 76 C19.6667 56 25.3333 39.1667 36 25.5 C46.6667 11.8333 60.6667 2.66667 78 -2 L78 -2 Z " />
<glyph glyph-name="hyphen" unicode="&#x2d;" horiz-adv-x="306" d="M31 349 L31 223 L275 223 L275 349 L31 349 Z " />
<glyph glyph-name="period" unicode="&#x2e;" horiz-adv-x="208" d="M104 -11 C128.667 -11 149 -2.66667 165 14 C181 30.6667 189 51 189 75 C189 99.6667 181 120.167 165 136.5 C149 152.833 128.667 161 104 161 C79.3333 161 59 152.833 43 136.5 C27 120.167 19 99.6667 19 75 C19 51 27.1667 30.6667 43.5 14 C59.8333 -2.66667 80 -11 104 -11 L104 -11 Z " />
<glyph glyph-name="slash" unicode="&#x2f;" horiz-adv-x="464" d="M121 -175 L466 731 L343 731 L-2 -175 L121 -175 Z " />
<glyph glyph-name="zero" unicode="0" horiz-adv-x="527" d="M349 476 L349 216 C349 188 342.333 164.833 329 146.5 C315.667 128.167 294 119 264 119 C233.333 119 211.5 128.167 198.5 146.5 C185.5 164.833 179 188 179 216 L179 476 C179 504 185.5 527.333 198.5 546 C211.5 564.667 233.333 574 264 574 C294 574 315.667 564.667 329 546 C342.333 527.333 349 504 349 476 L349 476 Z M488 218 L488 476 C488 510 483.167 541.167 473.5 569.5 C463.833 597.833 449.5 622 430.5 642 C411.5 662 388.167 677.5 360.5 688.5 C332.833 699.5 300.667 705 264 705 C226 705 193 699.667 165 689 C137 678.333 113.667 663 95 643 C76.3333 623 62.5 598.833 53.5 570.5 C44.5 542.167 40 510.667 40 476 L40 218 C40 182.667 44.3333 150.833 53 122.5 C61.6667 94.1667 75.1667 70 93.5 50 C111.833 30 135 14.5 163 3.5 C191 -7.5 224 -13 262 -13 C298 -13 330.167 -7.5 358.5 3.5 C386.833 14.5 410.5 30.1667 429.5 50.5 C448.5 70.8333 463 95.1667 473 123.5 C483 151.833 488 183.333 488 218 L488 218 Z " />
<glyph glyph-name="one" unicode="1" horiz-adv-x="261" d="M216 0 L216 692 L87 692 L12 659 L12 528 L77 552 L77 0 L216 0 Z " />
<glyph glyph-name="two" unicode="2" horiz-adv-x="495" d="M28 0 L471 0 L471 125 L209 125 L361 283 C377 299 391.333 314.667 404 330 C416.667 345.333 427.667 361.5 437 378.5 C446.333 395.5 453.5 413.5 458.5 432.5 C463.5 451.5 466 472.667 466 496 C466 525.332 461.333 552.666 452 578 C442.667 603.333 428.667 625.5 410 644.5 C391.333 663.5 368 678.333 340 689 C312 699.667 279.333 705 242 705 C199.333 705 164 698.167 136 684.5 C108 670.833 85.8333 653.333 69.5 632 C53.1667 610.667 42 587.167 36 561.5 C30 535.833 27.3333 511 28 487 L165 487 C165 495.667 166 505.167 168 515.5 C170 525.833 173.833 535.333 179.5 544 C185.167 552.667 193 559.833 203 565.5 C213 571.167 226 574 242 574 C267.333 574 287 566.333 301 551 C315 535.667 322 515 322 489 C322 463.667 315.5 440.667 302.5 420 C289.5 399.333 272 377.333 250 354 L28 122 L28 0 Z " />
<glyph glyph-name="three" unicode="3" horiz-adv-x="497" d="M144 407 L144 299 L236 299 C267.333 299 291.167 291 307.5 275 C323.833 259 332 236.667 332 208 C332 181.333 324.167 159.5 308.5 142.5 C292.833 125.5 271.333 117 244 117 C214 117 191.833 125.833 177.5 143.5 C163.167 161.167 155.333 182 154 206 L17 206 C17 180.667 20.5 155 27.5 129 C34.5 103 46.6667 79.5 64 58.5 C81.3333 37.5 104.667 20.3333 134 7 C163.333 -6.33333 200 -13 244 -13 C278 -13 309.167 -7.5 337.5 3.5 C365.833 14.5 390.167 29.8333 410.5 49.5 C430.833 69.1667 446.667 92.6667 458 120 C469.333 147.333 475 177.667 475 211 C475 244.333 470.333 273 461 297 C451.667 321 439.167 341.167 423.5 357.5 C407.833 373.833 389.5 386.5 368.5 395.5 C347.5 404.5 325 410.667 301 414 L444 568 L444 692 L42 692 L42 567 L283 567 L144 407 Z " />
<glyph glyph-name="four" unicode="4" horiz-adv-x="538" d="M446 197 L520 197 L520 317 L446 317 L446 692 L309 692 L13 312 L13 197 L310 197 L310 0 L446 0 L446 197 Z M156 317 L310 513 L310 317 L156 317 Z " />
<glyph glyph-name="five" unicode="5" horiz-adv-x="504" d="M172 206 L35 206 C35 175.333 39 146.667 47 120 C55 93.3333 67.6667 70.1667 85 50.5 C102.333 30.8333 125.167 15.3333 153.5 4 C181.833 -7.33333 216 -13 256 -13 C294.667 -13 328 -6.83333 356 5.5 C384 17.8333 407.167 34.5 425.5 55.5 C443.833 76.5 457.333 100.833 466 128.5 C474.667 156.167 479 185.667 479 217 L479 242 C479 314 463.667 369 433 407 C402.333 445 354.333 464 289 464 C261.667 464 238.667 460.167 220 452.5 C201.333 444.833 188.333 437.333 181 430 L181 567 L440 567 L440 692 L47 692 L47 291 L182 291 C187.333 301.667 195.833 311.5 207.5 320.5 C219.167 329.5 236 334 258 334 C288 334 309.5 325.167 322.5 307.5 C335.5 289.833 342 266.667 342 238 L342 218 C342 188.667 335 164.833 321 146.5 C307 128.167 285.333 119 256 119 C228 119 207.333 127 194 143 C180.667 159 173.333 180 172 206 L172 206 Z " />
<glyph glyph-name="six" unicode="6" horiz-adv-x="515" d="M386 537 L463 640 C455.667 647.333 446.667 654.833 436 662.5 C425.333 670.167 412.833 677.167 398.5 683.5 C384.167 689.833 367.5 695 348.5 699 C329.5 703 308 705 284 705 C239.333 705 201.5 698.333 170.5 685 C139.5 671.667 114.333 653.5 95 630.5 C75.6667 607.5 61.6667 580.667 53 550 C44.3333 519.334 40 487 40 453 L40 215 C40 181 44.3333 150 53 122 C61.6667 94 75.1667 70 93.5 50 C111.833 30 135 14.5 163 3.5 C191 -7.5 224 -13 262 -13 C298.667 -13 331 -7.16667 359 4.5 C387 16.1667 410.5 32.3333 429.5 53 C448.5 73.6667 462.833 97.6667 472.5 125 C482.167 152.333 487 182 487 214 L487 244 C487 394 422.333 469 293 469 C263 469 238.167 464.333 218.5 455 C198.833 445.667 185.333 436.667 178 428 L178 456 C178 472.667 179.667 488.167 183 502.5 C186.333 516.833 192.333 529.333 201 540 C209.667 550.667 221.167 559 235.5 565 C249.833 571 267.667 574 289 574 C312.333 574 332 569.833 348 561.5 C364 553.167 376.667 545 386 537 L386 537 Z M264 340 C294.667 340 316.5 331.167 329.5 313.5 C342.5 295.833 349 273 349 245 L349 214 C349 186.667 342.167 163.667 328.5 145 C314.833 126.333 293 117 263 117 C232.333 117 210.5 126.167 197.5 144.5 C184.5 162.833 178 186 178 214 L178 247 C178 273.666 184.667 295.833 198 313.5 C211.333 331.167 233.333 340 264 340 L264 340 Z " />
<glyph glyph-name="seven" unicode="7" horiz-adv-x="467" d="M218 0 L444 601 L444 692 L16 692 L16 567 L280 567 L63 0 L218 0 Z " />
<glyph glyph-name="eight" unicode="8" horiz-adv-x="508" d="M172 500 C172 524.667 179.333 544.667 194 560 C208.667 575.333 228.667 583 254 583 C279.333 583 299.5 575.333 314.5 560 C329.5 544.667 337 524.667 337 500 C337 475.333 329.5 455.333 314.5 440 C299.5 424.667 279.667 417 255 417 C229.667 417 209.5 424.667 194.5 440 C179.5 455.333 172 475.333 172 500 L172 500 Z M33 506 C33 470 39.8333 440 53.5 416 C67.1667 392 84.6667 372.333 106 357 C79.3333 340.333 58.5 318.667 43.5 292 C28.5 265.333 21 233.667 21 197 C21 169 25.6667 142.333 35 117 C44.3333 91.6667 58.6667 69.3333 78 50 C97.3333 30.6667 121.667 15.3333 151 4 C180.333 -7.33333 215 -13 255 -13 C293.667 -13 327.5 -7.16667 356.5 4.5 C385.5 16.1667 409.833 31.6667 429.5 51 C449.166 70.3333 463.832 92.6667 473.5 118 C483.167 143.333 488 169.667 488 197 C488 235.667 480.667 267.833 466 293.5 C451.333 319.166 430 340.333 402 357 C423.333 371.666 441 391.333 455 416 C469 440.667 476 470.667 476 506 C476 531.333 471.5 556 462.5 580 C453.5 604 440 625.167 422 643.5 C404 661.831 381 676.664 353 688 C325 699.333 292 705 254 705 C216 705 183.167 699.333 155.5 688 C127.833 676.667 105 661.833 87 643.5 C69 625.167 55.5 604 46.5 580 C37.5 556 33 531.333 33 506 L33 506 Z M164 202 C164 228.667 172.167 250.5 188.5 267.5 C204.833 284.5 227 293 255 293 C282.333 293 304.333 284.5 321 267.5 C337.667 250.5 346 228.667 346 202 C346 174.667 337.667 152.667 321 136 C304.333 119.333 282.333 111 255 111 C228.333 111 206.5 119.5 189.5 136.5 C172.5 153.5 164 175.333 164 202 L164 202 Z " />
<glyph glyph-name="nine" unicode="9" horiz-adv-x="514" d="M127 156 L51 50 C58.3333 43.3333 67.5 36.3333 78.5 29 C89.5 21.6667 102.5 14.8333 117.5 8.5 C132.5 2.16667 149.667 -3 169 -7 C188.333 -11 210 -13 234 -13 C278 -13 315.167 -6.5 345.5 6.5 C375.833 19.5 400.667 37.1667 420 59.5 C439.333 81.8333 453.333 108.5 462 139.5 C470.667 170.5 475 204 475 240 L475 478 C475 512 470.5 543 461.5 571 C452.5 599 438.667 623 420 643 C401.333 663 377.833 678.333 349.5 689 C321.167 699.667 288 705 250 705 C213.333 705 181.167 699.167 153.5 687.5 C125.833 675.836 102.667 659.669 84 639 C65.3333 618.333 51.3333 594.333 42 567 C32.6667 539.667 28 510 28 478 L28 448 C28 373.333 44.5 317.167 77.5 279.5 C110.5 241.833 160.667 223 228 223 C255.333 223 278.5 227.5 297.5 236.5 C316.5 245.5 329.333 254.667 336 264 L336 236 C336.667 219.333 335.334 203.833 332 189.5 C328.667 175.167 323 162.667 315 152 C307 141.333 296.167 133 282.5 127 C268.833 121 251.667 118 231 118 C204.333 118 182.833 122.5 166.5 131.5 C150.167 140.5 137 148.667 127 156 L127 156 Z M251 352 C221 352 199.167 360.833 185.5 378.5 C171.833 396.166 165 419.333 165 448 L165 478 C165 506 171.667 529.167 185 547.5 C198.333 565.833 220 575 250 575 C280.666 575 302.833 565.833 316.5 547.5 C330.167 529.167 337 506 337 478 L337 445 C336.333 418.333 329.333 396.167 316 378.5 C302.667 360.833 281 352 251 352 L251 352 Z " />
<glyph glyph-name="colon" unicode="&#x3a;" horiz-adv-x="208" d="M104 339 C128.667 339 149 347.333 165 364 C181 380.667 189 401 189 425 C189 449.667 181 470.167 165 486.5 C149 502.833 128.667 511 104 511 C79.3333 511 59 502.833 43 486.5 C27 470.167 19 449.667 19 425 C19 401 27.1667 380.667 43.5 364 C59.8333 347.333 80 339 104 339 L104 339 Z M104 -11 C128.667 -11 149 -2.66667 165 14 C181 30.6667 189 51 189 75 C189 99.6667 181 120.167 165 136.5 C149 152.833 128.667 161 104 161 C79.3333 161 59 152.833 43 136.5 C27 120.167 19 99.6667 19 75 C19 51 27.1667 30.6667 43.5 14 C59.8333 -2.66667 80 -11 104 -11 L104 -11 Z " />
<glyph glyph-name="semicolon" unicode="&#x3b;" horiz-adv-x="208" d="M78 -2 L23 -111 L115 -111 L168 -2 C174.667 12 179.833 25.1667 183.5 37.5 C187.167 49.8333 189 62.3333 189 75 C189 99.6667 181.333 120.167 166 136.5 C150.667 152.833 130.333 161 105 161 C79.6667 161 58.8333 152.833 42.5 136.5 C26.1667 120.167 18.3333 100 19 76 C19.6667 56 25.3333 39.1667 36 25.5 C46.6667 11.8333 60.6667 2.66667 78 -2 L78 -2 Z M104 338 C128.667 338 149 346.333 165 363 C181 379.667 189 400 189 424 C189 448.667 181 469.167 165 485.5 C149 501.833 128.667 510 104 510 C79.3333 510 59 501.833 43 485.5 C27 469.167 19 448.667 19 424 C19 400 27.1667 379.667 43.5 363 C59.8333 346.333 80 338 104 338 L104 338 Z " />
<glyph glyph-name="less" unicode="&#x3c;" horiz-adv-x="417" d="M27 394 L27 279 L389 122 L389 242 L156 339 L389 436 L389 555 L27 394 Z " />
<glyph glyph-name="equal" unicode="&#x3d;" horiz-adv-x="474" d="M30 468 L30 361 L445 361 L445 468 L30 468 Z M30 302 L30 195 L445 195 L445 302 L30 302 Z " />
<glyph glyph-name="greater" unicode="&#x3e;" horiz-adv-x="410" d="M383 279 L383 394 L28 555 L28 436 L254 339 L28 242 L28 122 L383 279 Z " />
<glyph glyph-name="question" unicode="&#x3f;" horiz-adv-x="473" d="M292 190 L292 326 C314.666 328 335.833 333.5 355.5 342.5 C375.167 351.5 392.167 363.667 406.5 379 C420.833 394.333 432 412.667 440 434 C448 455.333 452 479 452 505 C452 532.333 447.333 558 438 582 C428.667 606 414.834 626.833 396.5 644.5 C378.167 662.167 355.5 676.167 328.5 686.5 C301.5 696.833 270.667 702 236 702 C188.667 702 150.667 694.333 122 679 C93.3333 663.667 71.3333 645 56 623 C40.6667 601 30.6667 578 26 554 C21.3333 530 19.3333 509.667 20 493 L155 493 C155 502.333 156 512.333 158 523 C160 533.667 164 543.667 170 553 C176 562.329 184.333 570.162 195 576.5 C205.667 582.833 219.333 586 236 586 C260.666 586 280.333 578.333 295 563 C309.667 547.667 317 528 317 504 C317 476.667 309.167 456.5 293.5 443.5 C277.833 430.5 257.333 424 232 424 L159 424 L159 190 L292 190 Z M226 -10 C249.333 -10 269.167 -1.83333 285.5 14.5 C301.833 30.8333 310 51 310 75 C310 98.3333 301.833 118.167 285.5 134.5 C269.167 150.833 249.333 159 226 159 C202.667 159 182.667 150.833 166 134.5 C149.333 118.167 141 98.3334 141 75 C141 51 149.333 30.8333 166 14.5 C182.667 -1.83333 202.667 -10 226 -10 L226 -10 Z " />
<glyph glyph-name="at" unicode="&#x40;" horiz-adv-x="955" d="M610 134 C618 117.333 631.5 103 650.5 91 C669.5 79 694.667 73 726 73 C756.667 73 784.667 79.3333 810 92 C835.332 104.667 857.165 122.667 875.5 146 C893.833 169.333 908 197.5 918 230.5 C928 263.5 933 300.667 933 342 C933 398 923 450.167 903 498.5 C883 546.832 854 588.666 816 624 C778 659.333 731.5 687 676.5 707 C621.5 727 558.667 737 488 737 C420 737 357.5 725.833 300.5 703.5 C243.5 681.167 194.5 650 153.5 610 C112.5 570 80.5 522 57.5 466 C34.5 410 23 348.667 23 282 C23 219.333 34 161 56 107 C78 53 109.833 6 151.5 -34 C193.167 -74 244 -105.333 304 -128 C364 -150.667 431.667 -162 507 -162 C540.333 -162 572.333 -159 603 -153 C633.667 -147 662 -138.833 688 -128.5 C714 -118.167 737.833 -106.167 759.5 -92.5 C781.167 -78.8333 799.667 -64 815 -48 L754 26 C725.333 1.33333 689.833 -19.3333 647.5 -36 C605.167 -52.6667 559 -61 509 -61 C454.333 -61 404.167 -52.8333 358.5 -36.5 C312.833 -20.1667 273.667 3.16667 241 33.5 C208.333 63.8333 183 100.333 165 143 C147 185.667 138 233.667 138 287 C138 335 145.833 380.167 161.5 422.5 C177.167 464.833 199.833 502 229.5 534 C259.167 566 295.5 591.333 338.5 610 C381.5 628.667 430.333 638 485 638 C537.667 638 584.667 631.333 626 618 C667.333 604.667 702.5 585 731.5 559 C760.5 533 782.667 501.167 798 463.5 C813.333 425.833 821 383 821 335 C821 311.667 819 290.167 815 270.5 C811 250.833 805.5 233.833 798.5 219.5 C791.5 205.167 782.833 194 772.5 186 C762.167 178 751 174 739 174 C719 174 705.167 179.333 697.5 190 C689.833 200.667 686 215.667 686 235 L686 492 L569 492 L569 461 C559 471 544.833 479.5 526.5 486.5 C508.167 493.5 486.667 497 462 497 C431.333 497 403.333 491.333 378 480 C352.667 468.668 330.834 453.334 312.5 434 C294.167 414.667 279.834 392.167 269.5 366.5 C259.167 340.833 254 313.333 254 284 C254 253.333 259 225.167 269 199.5 C279 173.833 293.5 151.5 312.5 132.5 C331.5 113.5 354.333 98.6667 381 88 C407.667 77.3333 437.667 72 471 72 C501 72 528.333 78.1667 553 90.5 C577.667 102.833 596.667 117.333 610 134 L610 134 Z M378 285 C378 313.666 386.333 337.333 403 356 C419.666 374.667 442.333 384 471 384 C499 384 521.833 375 539.5 357 C557.167 339 566 315 566 285 C566 255 557.333 231.167 540 213.5 C522.667 195.833 499.667 187 471 187 C443 187 420.5 196.167 403.5 214.5 C386.5 232.833 378 256.333 378 285 L378 285 Z " />
<glyph glyph-name="A" unicode="A" horiz-adv-x="648" d="M437 190 L506 0 L653 0 L391 692 L245 692 L-5 0 L132 0 L200 190 L437 190 Z M243 308 L318 516 L394 308 L243 308 Z " />
<glyph glyph-name="B" unicode="B" horiz-adv-x="503" d="M482 203 C482 245 474.5 279 459.5 305 C444.5 331 422.333 351 393 365 C415 377 432.667 395.667 446 421 C459.333 446.333 466 474.333 466 505 C466 564.333 448.667 610.333 414 643 C379.333 675.667 327.667 692 259 692 L46 692 L46 0 L273 0 C304.333 0 332.833 4.66667 358.5 14 C384.167 23.3333 406.167 36.6667 424.5 54 C442.833 71.3333 457 92.5 467 117.5 C477 142.5 482 171 482 203 L482 203 Z M183 295 L253 295 C281 295 302.333 287.5 317 272.5 C331.667 257.5 339 236.333 339 209 C339 183 331.667 161.833 317 145.5 C302.333 129.167 281 121 253 121 L183 121 L183 295 Z M183 572 L247 572 C298.333 572 324 545.667 324 493 C324 467.667 317.333 448 304 434 C290.667 420 271.667 413 247 413 L183 413 L183 572 Z " />
<glyph glyph-name="C" unicode="C" horiz-adv-x="627" d="M614 78 L533 175 C518.334 162.333 498.834 149.5 474.5 136.5 C450.167 123.5 420.334 117 385 117 C352.333 117 322.667 122.833 296 134.5 C269.333 146.167 246.5 162.167 227.5 182.5 C208.5 202.833 193.833 227 183.5 255 C173.167 283 168 313.333 168 346 C168 378.667 172.833 409 182.5 437 C192.167 465 206.333 489.333 225 510 C243.667 530.667 266.333 546.833 293 558.5 C319.667 570.167 349.667 576 383 576 C415 576 443.5 570.167 468.5 558.5 C493.5 546.833 514 534 530 520 L612 624 C584 648.667 551.167 668.333 513.5 683 C475.833 697.667 432 705 382 705 C328 705 278.833 695.833 234.5 677.5 C190.167 659.167 152.333 633.833 121 601.5 C89.6667 569.167 65.3333 531 48 487 C30.6667 443 22 395.667 22 345 C22 293.667 30.5 246.167 47.5 202.5 C64.5 158.833 88.6667 121 120 89 C151.333 57 189.333 32 234 14 C278.667 -4 329 -13 385 -13 C435 -13 479 -4.33333 517 13 C555 30.3333 587.333 52 614 78 L614 78 Z " />
<glyph glyph-name="D" unicode="D" horiz-adv-x="572" d="M185 123 L185 569 L193 569 C259.667 569.667 311.5 551 348.5 513 C385.5 475 404 419.667 404 347 C404 273.667 385.167 217.833 347.5 179.5 C309.833 141.167 258.333 122.333 193 123 L185 123 Z M186 692 L46 692 L46 0 L186 0 C242.667 0 293.333 8.16667 338 24.5 C382.667 40.8333 420.667 64 452 94 C483.333 124 507.333 160.333 524 203 C540.667 245.667 549 293.667 549 347 C549 401 540.667 449.333 524 492 C507.333 534.667 483.5 570.833 452.5 600.5 C421.5 630.167 383.5 652.833 338.5 668.5 C293.5 684.167 242.667 692 186 692 L186 692 Z " />
<glyph glyph-name="E" unicode="E" horiz-adv-x="398" d="M46 0 L366 0 L366 130 L185 130 L185 290 L358 290 L358 418 L185 418 L185 562 L363 562 L363 692 L46 692 L46 0 Z " />
<glyph glyph-name="F" unicode="F" horiz-adv-x="396" d="M185 290 L361 290 L361 418 L185 418 L185 562 L366 562 L366 692 L46 692 L46 0 L185 0 L185 290 Z " />
<glyph glyph-name="G" unicode="G" horiz-adv-x="727" d="M685 0 L685 372 L436 372 L436 256 L549 256 L549 177 C534.335 161.667 513.169 147.667 485.5 135 C457.833 122.333 424 116 384 116 C352.667 116 323.834 121.5 297.5 132.5 C271.167 143.5 248.333 159 229 179 C209.667 199 194.5 223.167 183.5 251.5 C172.5 279.833 167 311.667 167 347 C167 381 172.167 412 182.5 440 C192.833 468 207.166 492 225.5 512 C243.833 532 266 547.667 292 559 C318 570.333 346.667 576 378 576 C400.667 576 421.167 573.5 439.5 568.5 C457.833 563.5 474.167 556.833 488.5 548.5 C502.833 540.167 515.333 530.667 526 520 C536.667 509.333 546 498.667 554 488 L662 568 C650 586.667 635.333 604.167 618 620.5 C600.667 636.833 580.333 651.333 557 664 C533.667 676.667 507.167 686.667 477.5 694 C447.833 701.333 414.667 705 378 705 C324.667 705 276 695.667 232 677 C188 658.336 150.5 632.669 119.5 600 C88.5 567.333 64.5 529.333 47.5 486 C30.5 442.667 22 396.334 22 347 C22 293 30.6667 244 48 200 C65.3333 156 89.6667 118.333 121 87 C152.333 55.6667 189.833 31.3333 233.5 14 C277.166 -3.33333 325.333 -12 378 -12 C418 -12 452.333 -6.83333 481 3.5 C509.667 13.8333 533 26.3333 551 41 L551 0 L685 0 Z " />
<glyph glyph-name="H" unicode="H" horiz-adv-x="646" d="M600 0 L600 692 L461 692 L461 421 L185 421 L185 692 L46 692 L46 0 L185 0 L185 289 L461 289 L461 0 L600 0 Z " />
<glyph glyph-name="I" unicode="I" horiz-adv-x="231" d="M185 0 L185 692 L46 692 L46 0 L185 0 Z " />
<glyph glyph-name="J" unicode="J" horiz-adv-x="288" d="M243 166 L243 692 L104 692 L104 181 C104 167 101.167 154.667 95.5 144 C89.8333 133.333 77 128 57 128 L18 128 L18 0 C26.6667 -0.666702 37 -1.00003 49 -1 L77 -1 C110.333 -1 137.667 3 159 11 C180.333 19 197.333 30.3333 210 45 C222.667 59.6667 231.333 77.1667 236 97.5 C240.667 117.833 243 140.667 243 166 L243 166 Z " />
<glyph glyph-name="K" unicode="K" horiz-adv-x="558" d="M185 409 L185 692 L46 692 L46 0 L185 0 L185 297 L401 0 L564 0 L302 361 L560 692 L399 692 L185 409 Z " />
<glyph glyph-name="L" unicode="L" horiz-adv-x="380" d="M46 0 L360 0 L360 130 L185 130 L185 692 L46 692 L46 0 Z " />
<glyph glyph-name="M" unicode="M" horiz-adv-x="867" d="M497 0 L687 517 L687 0 L821 0 L821 692 L619 692 L436 181 L253 692 L46 692 L46 0 L174 0 L174 517 L364 0 L497 0 Z " />
<glyph glyph-name="N" unicode="N" horiz-adv-x="668" d="M181 456 L484 0 L622 0 L622 692 L487 692 L487 228 L190 692 L46 692 L46 0 L181 0 L181 456 Z " />
<glyph glyph-name="O" unicode="O" horiz-adv-x="764" d="M22 345 C22 293.667 30.5 246.167 47.5 202.5 C64.5 158.833 88.5 121 119.5 89 C150.5 57 188.167 32 232.5 14 C276.833 -4 326.667 -13 382 -13 C436 -13 485.167 -3.83333 529.5 14.5 C573.833 32.8333 611.833 58.1667 643.5 90.5 C675.167 122.833 699.5 161 716.5 205 C733.5 249 742 296.333 742 347 C742 397.666 733.333 444.833 716 488.5 C698.667 532.167 674.333 570 643 602 C611.667 634 573.5 659.167 528.5 677.5 C483.5 695.833 433.667 705 379 705 C326.333 705 278.167 695.833 234.5 677.5 C190.833 659.167 153.167 633.833 121.5 601.5 C89.8333 569.167 65.3333 531 48 487 C30.6667 443 22 395.667 22 345 L22 345 Z M168 346 C168 378.667 172.833 409 182.5 437 C192.167 465 206.167 489.333 224.5 510 C242.833 530.667 265.167 546.833 291.5 558.5 C317.833 570.167 347.667 576 381 576 C413.666 576 443.333 570.167 470 558.5 C496.667 546.835 519.333 530.669 538 510 C556.667 489.333 571 465 581 437 C591 409 596 378.667 596 346 C596 313.333 591.167 283 581.5 255 C571.833 227 557.833 202.833 539.5 182.5 C521.167 162.167 498.667 146.167 472 134.5 C445.333 122.833 415.333 117 382 117 C350 117 320.833 122.833 294.5 134.5 C268.167 146.167 245.667 162.167 227 182.5 C208.333 202.833 193.833 227 183.5 255 C173.167 283 168 313.333 168 346 L168 346 Z " />
<glyph glyph-name="P" unicode="P" horiz-adv-x="484" d="M472 493 C472 557.667 454 607 418 641 C382 675 329.333 692 260 692 L46 692 L46 0 L184 0 L184 290 L260 290 C292 290 321 294.667 347 304 C373 313.333 395.333 326.833 414 344.5 C432.667 362.167 447 383.5 457 408.5 C467 433.5 472 461.667 472 493 L472 493 Z M184 572 L249 572 C274.333 572 293.833 564.833 307.5 550.5 C321.167 536.167 328 516.667 328 492 C328 467.333 321.167 447.5 307.5 432.5 C293.833 417.5 274.333 410 249 410 L184 410 L184 572 Z " />
<glyph glyph-name="Q" unicode="Q" horiz-adv-x="764" d="M22 345 C22 293.667 30.5 246.167 47.5 202.5 C64.5 158.833 88.5 121 119.5 89 C150.5 57 188.167 32 232.5 14 C276.833 -4 326.667 -13 382 -13 C421.333 -13 458.167 -7.66667 492.5 3 C526.833 13.6667 558.333 28.6667 587 48 L653 -9 L739 92 L681 142 C700.333 171.333 715.333 203.333 726 238 C736.667 272.667 742 309 742 347 C742 397.666 733.333 444.833 716 488.5 C698.667 532.167 674.333 570 643 602 C611.667 634 573.5 659.167 528.5 677.5 C483.5 695.833 433.667 705 379 705 C326.333 705 278.167 695.833 234.5 677.5 C190.833 659.167 153.167 633.833 121.5 601.5 C89.8333 569.167 65.3333 531 48 487 C30.6667 443 22 395.667 22 345 L22 345 Z M166 346 C166 379.333 170.833 410.167 180.5 438.5 C190.167 466.833 204.333 491.333 223 512 C241.667 532.667 264.333 548.833 291 560.5 C317.667 572.167 347.667 578 381 578 C414.333 578 444.333 572.167 471 560.5 C497.667 548.835 520.5 532.669 539.5 512 C558.5 491.333 573 466.833 583 438.5 C593 410.167 598 379.334 598 346 C598 304.667 590.333 267 575 233 L515 286 L430 185 L485 137 C454.333 121.667 420 114 382 114 C349.333 114 319.833 119.833 293.5 131.5 C267.167 143.167 244.5 159.333 225.5 180 C206.5 200.667 191.833 225.167 181.5 253.5 C171.167 281.833 166 312.667 166 346 L166 346 Z " />
<glyph glyph-name="R" unicode="R" horiz-adv-x="531" d="M472 493 C472 557.667 454 607 418 641 C382 675 329.333 692 260 692 L46 692 L46 0 L184 0 L184 296 L244 296 L391 0 L540 0 L376 322 C406 338 429.5 360.5 446.5 389.5 C463.5 418.5 472 453 472 493 L472 493 Z M184 572 L249 572 C274.333 572 293.833 564.833 307.5 550.5 C321.167 536.167 328 516.667 328 492 C328 467.333 321.167 447.5 307.5 432.5 C293.833 417.5 274.333 410 249 410 L184 410 L184 572 Z " />
<glyph glyph-name="S" unicode="S" horiz-adv-x="498" d="M172 517 C172 536.331 178.333 552.665 191 566 C203.667 579.333 222 586 246 586 C271.333 586 290.667 577.667 304 561 C317.333 544.333 324 523.333 324 498 L452 498 C453.333 526 450.667 552.667 444 578 C437.333 603.333 425.833 625.333 409.5 644 C393.167 662.667 371.5 677.5 344.5 688.5 C317.5 699.5 284.667 705 246 705 C213.333 705 184 700.167 158 690.5 C132 680.833 109.833 667.333 91.5 650 C73.1667 632.667 59 612 49 588 C39 564 34 538 34 510 C34 468 42.6667 431.667 60 401 C77.3333 370.333 103 346.333 137 329 C157 317.668 177.167 308.335 197.5 301 C217.833 293.668 237.666 285.334 257 276 C279.667 266.667 297.667 255.333 311 242 C324.333 228.667 331 210.333 331 187 C331 161 323 141.167 307 127.5 C291 113.833 270.667 107 246 107 C228.667 107 214.333 109.833 203 115.5 C191.667 121.167 182.5 129 175.5 139 C168.5 149 163.5 160.333 160.5 173 C157.5 185.667 156 199 156 213 L24 213 C22.6667 186.333 25 159.5 31 132.5 C37 105.5 48.1667 81.3333 64.5 60 C80.8333 38.6667 103.667 21.1667 133 7.5 C162.333 -6.16667 200 -13 246 -13 C279.333 -13 310 -8 338 2 C366 12 390 26.3333 410 45 C430 63.6667 445.667 86.1667 457 112.5 C468.333 138.833 474 168.667 474 202 C474 251.333 462.333 291.167 439 321.5 C415.667 351.833 383 376.333 341 395 C321.667 403.667 303.667 411.167 287 417.5 C270.333 423.833 253.667 430.667 237 438 C214.333 447.333 197.833 458.333 187.5 471 C177.167 483.667 172 499 172 517 L172 517 Z " />
<glyph glyph-name="T" unicode="T" horiz-adv-x="425" d="M282 562 L408 562 L408 692 L17 692 L17 562 L143 562 L143 0 L282 0 L282 562 Z " />
<glyph glyph-name="U" unicode="U" horiz-adv-x="636" d="M317 -13 C362.333 -13 402.167 -5.83333 436.5 8.5 C470.833 22.8333 499.667 42.5 523 67.5 C546.333 92.5 564 122.333 576 157 C588 191.667 594 229.667 594 271 L594 692 L455 692 L455 271 C455 225.667 443.667 188.667 421 160 C398.333 131.333 364.333 117 319 117 C271.667 117 236.833 131.167 214.5 159.5 C192.167 187.833 181 224.667 181 270 L181 692 L42 692 L42 270 C42 227.333 47.5 188.667 58.5 154 C69.5 119.333 86.3333 89.6667 109 65 C131.667 40.3333 160.167 21.1667 194.5 7.5 C228.833 -6.16667 269.667 -13 317 -13 L317 -13 Z " />
<glyph glyph-name="V" unicode="V" horiz-adv-x="661" d="M-5 692 L255 0 L405 0 L666 692 L518 692 L334 175 L151 692 L-5 692 Z " />
<glyph glyph-name="W" unicode="W" horiz-adv-x="989" d="M496 480 L635 0 L795 0 L991 692 L848 692 L714 185 L574 692 L425 692 L285 185 L150 692 L-2 692 L199 0 L356 0 L496 480 Z " />
<glyph glyph-name="X" unicode="X" horiz-adv-x="628" d="M231 358 L-5 0 L150 0 L311 238 L472 0 L633 0 L398 355 L621 692 L458 692 L318 478 L175 692 L6 692 L231 358 Z " />
<glyph glyph-name="Y" unicode="Y" horiz-adv-x="510" d="M-9 692 L184 346 L184 0 L323 0 L323 348 L519 692 L372 692 L258 482 L146 692 L-9 692 Z " />
<glyph glyph-name="Z" unicode="Z" horiz-adv-x="582" d="M26 0 L556 0 L556 127 L217 127 L554 598 L554 692 L30 692 L30 564 L359 564 L26 94 L26 0 Z " />
<glyph glyph-name="bracketleft" unicode="&#x5b;" horiz-adv-x="268" d="M40 796 L40 -175 L252 -175 L252 -56 L167 -56 L167 677 L252 677 L252 796 L40 796 Z " />
<glyph glyph-name="backslash" unicode="&#x5c;" horiz-adv-x="464" d="M-2 731 L343 -175 L466 -175 L122 731 L-2 731 Z " />
<glyph glyph-name="bracketright" unicode="&#x5d;" horiz-adv-x="268" d="M228 -175 L228 796 L16 796 L16 677 L101 677 L101 -56 L16 -56 L16 -175 L228 -175 Z " />
<glyph glyph-name="asciicircum" unicode="&#x5e;" horiz-adv-x="493" d="M479 385 L315 692 L179 692 L14 385 L149 385 L246 565 L342 385 L479 385 Z " />
<glyph glyph-name="underscore" unicode="&#x5f;" horiz-adv-x="619" d="M30 -31 L30 -138 L589 -138 L589 -31 L30 -31 Z " />
<glyph glyph-name="grave" unicode="&#x60;" horiz-adv-x="476" d="M233 710 L102 710 L183 572 L309 572 L233 710 Z " />
<glyph glyph-name="a" unicode="a" horiz-adv-x="469" d="M21 175 C21 147 25.6667 121.833 35 99.5 C44.3333 77.1667 57.3333 58.1667 74 42.5 C90.6666 26.8333 110.333 14.6667 133 6 C155.667 -2.66667 180.333 -7 207 -7 C238.333 -7 263.167 -2.16667 281.5 7.5 C299.833 17.1667 312.667 26 320 34 L320 0 L432 0 L432 337 C432 367 428.667 394.5 422 419.5 C415.333 444.5 404.167 466 388.5 484 C372.833 502 352.167 516 326.5 526 C300.833 536 268.667 541 230 541 C166.667 541 119.5 525.667 88.5 495 C57.5 464.333 41.3333 423.667 40 373 L165 373 C165 380.333 166 387.667 168 395 C170 402.333 173.5 409 178.5 415 C183.5 421 190.167 425.833 198.5 429.5 C206.833 433.167 217.333 435 230 435 C255.333 435 273.333 427.667 284 413 C294.667 398.333 300 379.333 300 356 L300 329 C292.667 333.667 281 338.5 265 343.5 C249 348.5 229 351 205 351 C177 351 151.667 346.5 129 337.5 C106.333 328.5 87 316.167 71 300.5 C55 284.833 42.6667 266.167 34 244.5 C25.3333 222.833 21 199.667 21 175 L21 175 Z M147 176 C147 197.333 154 215.333 168 230 C182 244.667 200.667 252 224 252 C246.667 252 265.333 245 280 231 C294.667 217 302 198.667 302 176 C302 153.333 294.667 134.833 280 120.5 C265.333 106.167 247 99 225 99 C201.667 99 182.833 106.167 168.5 120.5 C154.167 134.833 147 153.333 147 176 L147 176 Z " />
<glyph glyph-name="b" unicode="b" horiz-adv-x="617" d="M169 268 C169 290.667 172.333 311.667 179 331 C185.667 350.333 195.333 367 208 381 C220.667 395 236.167 405.833 254.5 413.5 C272.833 421.167 293.333 425 316 425 C338 425 358.167 421.167 376.5 413.5 C394.833 405.833 410.5 395 423.5 381 C436.5 367 446.5 350.333 453.5 331 C460.5 311.667 464 290.667 464 268 C464 245.333 460.667 224.333 454 205 C447.333 185.667 437.667 169 425 155 C412.333 141 396.833 130.167 378.5 122.5 C360.167 114.833 339.667 111 317 111 C295 111 274.833 114.833 256.5 122.5 C238.167 130.167 222.5 141 209.5 155 C196.5 169 186.5 185.5 179.5 204.5 C172.5 223.5 169 244.667 169 268 L169 268 Z M166 0 L166 51 C181.333 35.6667 202.833 21.8333 230.5 9.5 C258.166 -2.83333 289.333 -9 324 -9 C365.333 -9 402.833 -2 436.5 12 C470.167 26 499 45.3333 523 70 C547 94.6667 565.5 124 578.5 158 C591.5 192 598 228.667 598 268 C598 309.333 591.667 347 579 381 C566.333 415 548.5 444 525.5 468 C502.5 492 474.667 510.667 442 524 C409.333 537.333 373 544 333 544 C296.333 544 264.167 537.5 236.5 524.5 C208.834 511.5 187.667 497.333 173 482 L173 731 L39 731 L39 0 L166 0 Z " />
<glyph glyph-name="c" unicode="c" horiz-adv-x="488" d="M297 112 C277.667 112 259.334 115.5 242 122.5 C224.667 129.5 209.333 139.833 196 153.5 C182.667 167.167 172.167 183.5 164.5 202.5 C156.833 221.5 153 243 153 267 C153 289 156.333 309.5 163 328.5 C169.667 347.5 179.167 364 191.5 378 C203.833 392 218.833 403 236.5 411 C254.167 419 274 423 296 423 C322.666 423 344.833 418.333 362.5 409 C380.167 399.667 394.667 389.667 406 379 L483 472 C475 480 465.333 488.333 454 497 C442.667 505.667 429.167 513.5 413.5 520.5 C397.833 527.5 380.167 533.167 360.5 537.5 C340.833 541.833 319 544 295 544 C255 544 218.167 536.833 184.5 522.5 C150.833 508.167 121.667 488.5 97 463.5 C72.3333 438.5 53.1667 409 39.5 375 C25.8333 341 19 304.667 19 266 C19 227.333 25.5 191.167 38.5 157.5 C51.5 123.833 70 94.6667 94 70 C118 45.3333 147.167 26 181.5 12 C215.833 -2 254 -9 296 -9 C318.666 -9 339.833 -6.66667 359.5 -2 C379.167 2.66667 396.667 8.66667 412 16 C427.333 23.3333 441 31.3333 453 40 C465 48.6667 475 57.3333 483 66 L409 156 C397 146 382.167 136.167 364.5 126.5 C346.833 116.833 324.333 112 297 112 L297 112 Z " />
<glyph glyph-name="d" unicode="d" horiz-adv-x="617" d="M453 53 L453 0 L578 0 L578 731 L444 731 L444 492 C427.333 507.333 406 519.833 380 529.5 C354 539.167 324 544 290 544 C250 544 213.333 536.833 180 522.5 C146.667 508.167 118 488.5 94 463.5 C70 438.5 51.5 409 38.5 375 C25.5 341 19 304.667 19 266 C19 226 25.6667 189.167 39 155.5 C52.3333 121.833 71 92.8334 95 68.5 C119 44.1667 148 25.1667 182 11.5 C216 -2.16667 253.667 -9 295 -9 C329 -9 359.833 -3 387.5 9 C415.167 21 437 35.6667 453 53 L453 53 Z M153 268 C153 290 156.5 310.667 163.5 330 C170.5 349.333 180.5 366 193.5 380 C206.5 394 222 405 240 413 C258 421 278.333 425 301 425 C323 425 343 421 361 413 C379 405 394.5 394 407.5 380 C420.5 366 430.5 349.333 437.5 330 C444.5 310.667 448 290 448 268 C448 246 444.5 225.333 437.5 206 C430.5 186.667 420.667 170 408 156 C395.333 142 380 131 362 123 C344 115 323.667 111 301 111 C279 111 259 115 241 123 C223 131 207.5 142 194.5 156 C181.5 170 171.333 186.5 164 205.5 C156.667 224.5 153 245.333 153 268 L153 268 Z " />
<glyph glyph-name="e" unicode="e" horiz-adv-x="560" d="M160 224 L542 224 C543.333 235.333 544 245.667 544 255 L544 279 C544 319 537.833 355.333 525.5 388 C513.167 420.667 495.667 448.5 473 471.5 C450.333 494.5 422.833 512.333 390.5 525 C358.167 537.667 322 544 282 544 C243.333 544 207.833 537 175.5 523 C143.167 509 115.5 489.667 92.5 465 C69.5 440.333 51.5 411 38.5 377 C25.5 343 19 306 19 266 C19 223.333 25.6667 185 39 151 C52.3333 117 71 88.1667 95 64.5 C119 40.8333 147.833 22.6667 181.5 10 C215.167 -2.66667 252.333 -9 293 -9 C325.667 -9 354.667 -4.83333 380 3.5 C405.333 11.8333 427.5 22.5 446.5 35.5 C465.5 48.5 481.667 63.3333 495 80 C508.333 96.6666 519 113.333 527 130 L428 190 C414 168 396.5 149.167 375.5 133.5 C354.5 117.833 327 110 293 110 C255 110 224.167 120 200.5 140 C176.833 160 163.333 188 160 224 L160 224 Z M281 431 C317.667 431 346.667 420.833 368 400.5 C389.333 380.167 401.667 355 405 325 L163 325 C166.333 355.667 178.333 381 199 401 C219.667 421 247 431 281 431 L281 431 Z " />
<glyph glyph-name="f" unicode="f" horiz-adv-x="288" d="M196 535 L196 558 C196 574 199.333 588.167 206 600.5 C212.667 612.833 227.333 619 250 619 L275 619 L275 731 C268.333 731.667 260.333 732 251 732 L232 732 C200 732 173.167 727.833 151.5 719.5 C129.833 711.167 112.333 699.5 99 684.5 C85.6667 669.5 76.1667 651.333 70.5 630 C64.8333 608.667 62 585 62 559 L62 535 L12 535 L12 422 L62 422 L62 0 L196 0 L196 422 L275 422 L275 535 L196 535 Z " />
<glyph glyph-name="g" unicode="g" horiz-adv-x="615" d="M451 535 L451 485 C433.667 503 411.334 517.333 384 528 C356.667 538.667 325.667 544 291 544 C251 544 214.333 536.833 181 522.5 C147.667 508.167 119 488.5 95 463.5 C71 438.5 52.3333 409 39 375 C25.6667 341 19 304.667 19 266 C19 225.333 25.6667 188.167 39 154.5 C52.3333 120.833 71.1667 91.8334 95.5 67.5 C119.833 43.1667 149 24.3333 183 11 C217 -2.33333 254.667 -9 296 -9 C314.666 -9 331.833 -7.16667 347.5 -3.5 C363.167 0.166672 377.167 5 389.5 11 C401.833 17 412.5 23.5 421.5 30.5 C430.5 37.5 438 44.3333 444 51 L444 44 C444 24.6667 440 7.83333 432 -6.5 C424 -20.8333 413.167 -32.5 399.5 -41.5 C385.833 -50.5 369.667 -57.1667 351 -61.5 C332.333 -65.8333 312.667 -68 292 -68 C258 -68 227.333 -63.8333 200 -55.5 C172.667 -47.1666 151 -38.3333 135 -29 L92 -135 C114 -147.667 142.167 -158.833 176.5 -168.5 C210.833 -178.167 249 -183 291 -183 C332.333 -183 370.5 -178.167 405.5 -168.5 C440.5 -158.833 470.667 -143.333 496 -122 C521.331 -100.667 541.165 -72.5 555.5 -37.5 C569.833 -2.5 577 40 577 90 L577 535 L451 535 Z M153 267 C153 289.667 156.5 310.667 163.5 330 C170.5 349.333 180.5 366 193.5 380 C206.5 394 222 405 240 413 C258 421 278.333 425 301 425 C323 425 343 421 361 413 C379 405 394.5 394 407.5 380 C420.5 366 430.5 349.333 437.5 330 C444.5 310.667 448 289.667 448 267 C448 245 444.5 224.333 437.5 205 C430.5 185.667 420.667 169 408 155 C395.333 141 380 130 362 122 C344 114 323.667 110 301 110 C279 110 259 114 241 122 C223 130 207.5 141 194.5 155 C181.5 169 171.333 185.5 164 204.5 C156.667 223.5 153 244.333 153 267 L153 267 Z " />
<glyph glyph-name="h" unicode="h" horiz-adv-x="490" d="M319 337 L319 0 L453 0 L453 353 C453 379 450.167 403.333 444.5 426 C438.833 448.667 429.5 468.5 416.5 485.5 C403.5 502.5 386.333 516 365 526 C343.667 536 317.334 541 286 541 C269.333 541 254.833 539.333 242.5 536 C230.167 532.667 219.333 528.667 210 524 C200.667 519.333 193 514.333 187 509 C181 503.667 176.333 499 173 495 L173 731 L39 731 L39 0 L173 0 L173 337 C173 362.333 179.333 382.833 192 398.5 C204.667 414.167 223 422 247 422 C271.666 422 289.833 414.333 301.5 399 C313.167 383.667 319 363 319 337 L319 337 Z " />
<glyph glyph-name="i" unicode="i" horiz-adv-x="212" d="M173 0 L173 535 L39 535 L39 0 L173 0 Z M106 569 C128.667 569 147.667 576.667 163 592 C178.333 607.333 186 626 186 648 C186 670.667 178.333 689.833 163 705.5 C147.667 721.167 128.667 729 106 729 C84 729 65.1667 721.167 49.5 705.5 C33.8333 689.836 26 670.669 26 648 C26 626 33.8333 607.333 49.5 592 C65.1667 576.667 84 569 106 569 L106 569 Z " />
<glyph glyph-name="j" unicode="j" horiz-adv-x="212" d="M173 0 L173 535 L39 535 L39 2 C39 -6 38.5 -13.6667 37.5 -21 C36.5 -28.3333 34.1667 -34.8333 30.5 -40.5 C26.8333 -46.1667 21.5 -50.6667 14.5 -54 C7.5 -57.3333 -1.66667 -59 -13 -59 L-37 -59 L-37 -175 L2 -175 C34 -175 61 -170.833 83 -162.5 C105 -154.167 122.667 -142.167 136 -126.5 C149.333 -110.833 158.833 -92.3333 164.5 -71 C170.167 -49.6667 173 -26 173 0 L173 0 Z M106 569 C128 569 146.833 576.667 162.5 592 C178.167 607.333 186 626 186 648 C186 670.667 178.167 689.833 162.5 705.5 C146.833 721.167 128 729 106 729 C83.3333 729 64.3333 721.167 49 705.5 C33.6667 689.836 26 670.669 26 648 C26 626 33.6667 607.333 49 592 C64.3333 576.667 83.3333 569 106 569 L106 569 Z " />
<glyph glyph-name="k" unicode="k" horiz-adv-x="496" d="M296 288 L489 535 L332 535 L173 325 L173 731 L39 731 L39 0 L173 0 L173 236 L334 0 L496 0 L296 288 Z " />
<glyph glyph-name="l" unicode="l" horiz-adv-x="212" d="M173 0 L173 731 L39 731 L39 0 L173 0 Z " />
<glyph glyph-name="m" unicode="m" horiz-adv-x="766" d="M451 0 L451 337 C451 361 457 381.167 469 397.5 C481 413.833 499 422 523 422 C547 422 565 414.333 577 399 C589 383.667 595 363 595 337 L595 0 L729 0 L729 353 C729 379 725.833 403.333 719.5 426 C713.167 448.667 702.833 468.5 688.5 485.5 C674.167 502.5 655.5 516 632.5 526 C609.5 536 581.667 541 549 541 C513.667 541 485.5 534.833 464.5 522.5 C443.5 510.167 427 497 415 483 C403 500.333 386.833 514.333 366.5 525 C346.167 535.667 320 541 288 541 C254 541 228.167 535.5 210.5 524.5 C192.833 513.5 180.333 503.667 173 495 L173 535 L39 535 L39 0 L173 0 L173 335 C173 361.666 179.167 382.833 191.5 398.5 C203.833 414.167 222 422 246 422 C269.333 422 287 414.167 299 398.5 C311 382.833 317 362.333 317 337 L317 0 L451 0 Z " />
<glyph glyph-name="n" unicode="n" horiz-adv-x="490" d="M319 337 L319 0 L453 0 L453 353 C453 379 450.167 403.333 444.5 426 C438.833 448.667 429.5 468.5 416.5 485.5 C403.5 502.5 386.333 516 365 526 C343.667 536 317.334 541 286 541 C269.333 541 254.667 539.333 242 536 C229.333 532.667 218.5 528.667 209.5 524 C200.5 519.333 193 514.333 187 509 C181 503.667 176.333 499 173 495 L173 535 L39 535 L39 0 L173 0 L173 337 C173 362.333 179.333 382.833 192 398.5 C204.667 414.167 223 422 247 422 C271.666 422 289.833 414.333 301.5 399 C313.167 383.667 319 363 319 337 L319 337 Z " />
<glyph glyph-name="o" unicode="o" horiz-adv-x="597" d="M153 267 C153 289.667 156.5 310.5 163.5 329.5 C170.5 348.5 180.167 365 192.5 379 C204.833 393 220 403.833 238 411.5 C256 419.167 276 423 298 423 C319.333 423 339 419 357 411 C375 403 390.5 392 403.5 378 C416.5 364 426.5 347.5 433.5 328.5 C440.5 309.5 444 289 444 267 C444 245 440.5 224.5 433.5 205.5 C426.5 186.5 416.833 170 404.5 156 C392.167 142 377 131.167 359 123.5 C341 115.833 321 112 299 112 C277.667 112 258 115.833 240 123.5 C222 131.167 206.5 141.833 193.5 155.5 C180.5 169.167 170.5 185.5 163.5 204.5 C156.5 223.5 153 244.333 153 267 L153 267 Z M19 266 C19 226.667 25.6667 190.167 39 156.5 C52.3333 122.833 71.3333 93.6667 96 69 C120.667 44.3333 150 25.1667 184 11.5 C218 -2.16667 256 -9 298 -9 C339.333 -9 377.167 -2 411.5 12 C445.833 26 475.333 45.5 500 70.5 C524.667 95.5 543.833 124.833 557.5 158.5 C571.167 192.167 578 228.667 578 268 C578 307.333 571.333 343.833 558 377.5 C544.667 411.166 525.833 440.333 501.5 465 C477.167 489.667 447.667 509 413 523 C378.333 537 340 544 298 544 C258 544 220.833 537 186.5 523 C152.167 509 122.667 489.5 98 464.5 C73.3333 439.5 54 410.167 40 376.5 C26 342.833 19 306 19 266 L19 266 Z " />
<glyph glyph-name="p" unicode="p" horiz-adv-x="617" d="M169 267 C169 289.667 172.333 310.667 179 330 C185.667 349.333 195.333 366 208 380 C220.667 394 236.167 405 254.5 413 C272.833 421 293.333 425 316 425 C338 425 358.167 421 376.5 413 C394.833 405 410.5 394 423.5 380 C436.5 366 446.5 349.333 453.5 330 C460.5 310.667 464 289.667 464 267 C464 244.333 460.667 223.333 454 204 C447.333 184.667 437.667 168 425 154 C412.333 140 396.833 129.167 378.5 121.5 C360.167 113.833 339.667 110 317 110 C295 110 274.833 113.833 256.5 121.5 C238.167 129.167 222.5 140 209.5 154 C196.5 168 186.5 184.667 179.5 204 C172.5 223.333 169 244.333 169 267 L169 267 Z M173 -175 L173 43 C186.333 31.6667 206 20.1667 232 8.5 C258 -3.16667 288.667 -9 324 -9 C366.667 -9 404.833 -1.83333 438.5 12.5 C472.166 26.8333 500.832 46.5 524.5 71.5 C548.167 96.5 566.333 126 579 160 C591.667 194 598 230.333 598 269 C598 309 591.667 345.833 579 379.5 C566.333 413.167 548.333 442.167 525 466.5 C501.667 490.833 473.5 509.833 440.5 523.5 C407.5 537.167 370.667 544 330 544 C287.333 544 252.667 537.333 226 524 C199.333 510.668 179.333 497.334 166 484 L166 535 L39 535 L39 -175 L173 -175 Z " />
<glyph glyph-name="q" unicode="q" horiz-adv-x="617" d="M444 46 L444 -175 L578 -175 L578 535 L451 535 L451 485 C435.667 502.333 413.834 516.5 385.5 527.5 C357.167 538.5 326.334 544 293 544 C251.667 544 214.167 537 180.5 523 C146.833 509 118 489.667 94 465 C70 440.333 51.5 411.167 38.5 377.5 C25.5 343.833 19 307.333 19 268 C19 226.667 25.6667 189 39 155 C52.3333 121 71 91.8333 95 67.5 C119 43.1667 147.833 24.3333 181.5 11 C215.167 -2.33333 252.333 -9 293 -9 C327 -9 357.5 -3.16667 384.5 8.5 C411.5 20.1667 431.333 32.6667 444 46 L444 46 Z M153 268 C153 290 156.5 310.667 163.5 330 C170.5 349.333 180.333 366 193 380 C205.667 394 221.167 405 239.5 413 C257.833 421 278.333 425 301 425 C322.333 425 342 421 360 413 C378 405 393.5 394 406.5 380 C419.5 366 429.667 349.5 437 330.5 C444.333 311.5 448 290.667 448 268 C448 245.333 444.5 224.333 437.5 205 C430.5 185.667 420.667 169 408 155 C395.333 141 380 130 362 122 C344 114 323.667 110 301 110 C279 110 258.833 114 240.5 122 C222.167 130 206.5 141 193.5 155 C180.5 169 170.5 185.667 163.5 205 C156.5 224.333 153 245.333 153 268 L153 268 Z " />
<glyph glyph-name="r" unicode="r" horiz-adv-x="293" d="M277 397 L277 537 C249 537 227 532.833 211 524.5 C195 516.167 182.333 505.333 173 492 L173 535 L39 535 L39 0 L173 0 L173 326 C173 349.333 178.167 367 188.5 379 C198.833 391 217 397 243 397 L277 397 Z " />
<glyph glyph-name="s" unicode="s" horiz-adv-x="421" d="M156 393 C156 406.333 160.833 417.167 170.5 425.5 C180.167 433.833 193 438 209 438 C229.667 438 244.833 432.333 254.5 421 C264.165 409.667 269.331 393.667 270 373 L393 373 C392.333 429.667 376.167 472 344.5 500 C312.833 528 268.667 542 212 542 C185.333 542 160.833 538.167 138.5 530.5 C116.167 522.833 96.8334 512 80.5 498 C64.1667 484 51.5 467.5 42.5 448.5 C33.5 429.5 29 408.667 29 386 C29 345.333 38.1667 312.167 56.5 286.5 C74.8333 260.833 102.667 241.333 140 228 C154.667 222.667 168.167 218.333 180.5 215 C192.833 211.667 206.333 208 221 204 C239.667 198.667 253.167 192 261.5 184 C269.833 176 274 164.333 274 149 C274 133.667 267.833 121.833 255.5 113.5 C243.167 105.167 228.333 101 211 101 C185 101 167.667 108.167 159 122.5 C150.333 136.833 146 153.667 146 173 L18 173 C17.3333 149.667 20 127.167 26 105.5 C32 83.8333 42.3333 64.6667 57 48 C71.6667 31.3333 91.3333 18 116 8 C140.667 -2 171.667 -7 209 -7 C235 -7 259.833 -3.5 283.5 3.5 C307.167 10.5 328 21 346 35 C364 49 378.167 66.3333 388.5 87 C398.833 107.667 404 131.667 404 159 C404 183 401.333 204 396 222 C390.667 240 382.667 255.5 372 268.5 C361.333 281.5 348 292.333 332 301 C316 309.665 297.333 317.332 276 324 C262.667 328 250.167 331.333 238.5 334 C226.833 336.667 215 339.667 203 343 C171.667 351.666 156 368.333 156 393 L156 393 Z " />
<glyph glyph-name="t" unicode="t" horiz-adv-x="300" d="M196 535 L196 619 L62 619 L62 535 L12 535 L12 422 L62 422 L62 135 C62 90.3333 73.1667 55.8333 95.5 31.5 C117.833 7.16667 154.333 -5 205 -5 C228.333 -5 246 -3.83333 258 -1.5 C270 0.833328 276.667 2 278 2 L278 116 L247 116 C227.667 116 214.333 120.5 207 129.5 C199.667 138.5 196 153 196 173 L196 422 L278 422 L278 535 L196 535 Z " />
<glyph glyph-name="u" unicode="u" horiz-adv-x="487" d="M171 199 L171 535 L37 535 L37 183 C37 155.667 40 130.5 46 107.5 C52 84.5 61.6667 64.5 75 47.5 C88.3333 30.5 105.5 17.3333 126.5 8 C147.5 -1.33333 173 -6 203 -6 C234.333 -6 259 -0.666672 277 10 C295 20.6667 307.667 30.6667 315 40 L315 0 L448 0 L448 535 L314 535 L314 200 C314 174.667 307.667 154 295 138 C282.333 122 264 114 240 114 C216 114 198.5 121.667 187.5 137 C176.5 152.333 171 173 171 199 L171 199 Z " />
<glyph glyph-name="v" unicode="v" horiz-adv-x="527" d="M268 168 L147 535 L-1 535 L192 0 L339 0 L528 535 L389 535 L268 168 Z " />
<glyph glyph-name="w" unicode="w" horiz-adv-x="826" d="M589 172 L490 535 L347 535 L248 172 L152 535 L1 535 L162 0 L313 0 L416 343 L521 0 L669 0 L825 535 L685 535 L589 172 Z " />
<glyph glyph-name="x" unicode="x" horiz-adv-x="536" d="M266 168 L387 0 L537 0 L344 277 L527 535 L380 535 L272 383 L164 535 L9 535 L193 273 L-1 0 L144 0 L266 168 Z " />
<glyph glyph-name="y" unicode="y" horiz-adv-x="530" d="M131 -175 L261 -175 L531 535 L393 535 L272 203 L147 535 L-1 535 L203 21 L131 -175 Z " />
<glyph glyph-name="z" unicode="z" horiz-adv-x="434" d="M180 111 L413 438 L413 535 L25 535 L25 424 L248 424 L21 97 L21 0 L413 0 L413 111 L180 111 Z " />
<glyph glyph-name="braceleft" unicode="&#x7b;" horiz-adv-x="304" d="M203 27 L203 27 L203 207 C203 242.333 196.167 267.667 182.5 283 C168.833 298.333 153 308 135 312 C143.667 314 152.167 317.333 160.5 322 C168.833 326.667 176.166 333.167 182.5 341.5 C188.833 349.833 193.833 360.167 197.5 372.5 C201.167 384.833 203 399.667 203 417 L203 594 C203 619.333 208.5 639.5 219.5 654.5 C230.5 669.5 251 677 281 677 L289 677 L289 796 L280 796 C209.333 796 157.667 778.5 125 743.5 C92.3334 708.5 76 658.333 76 593 L76 442 C76 420.667 72.6667 404.167 66 392.5 C59.3333 380.833 43 375 17 375 L16 375 L16 251 L17 251 C43 251 59.3333 245.167 66 233.5 C72.6667 221.833 76 205.333 76 184 L76 28 C76 -38 92.3333 -88.3333 125 -123 C157.667 -157.667 209.333 -175 280 -175 L289 -175 L289 -56 L281 -56 C251 -56 230.5 -48.5 219.5 -33.5 C208.5 -18.5 203 1.66667 203 27 L203 27 Z " />
<glyph glyph-name="bar" unicode="&#x7c;" horiz-adv-x="243" d="M178 -175 L178 731 L65 731 L65 -175 L178 -175 Z " />
<glyph glyph-name="braceright" unicode="&#x7d;" horiz-adv-x="304" d="M101 207 L101 27 C101 1.66667 95.6667 -18.5 85 -33.5 C74.3333 -48.5 53.6667 -56 23 -56 L16 -56 L16 -175 L24 -175 C94.6667 -175 146.333 -157.667 179 -123 C211.667 -88.3333 228 -38 228 28 L228 184 C228 205.333 231.333 221.833 238 233.5 C244.667 245.167 261 251 287 251 L289 251 L289 375 L287 375 C261 375 244.667 380.833 238 392.5 C231.333 404.167 228 420.667 228 442 L228 593 C228 658.333 211.667 708.5 179 743.5 C146.333 778.5 94.6667 796 24 796 L16 796 L16 677 L23 677 C53.6667 677 74.3333 669.5 85 654.5 C95.6667 639.5 101 619.333 101 594 L101 417 C101 399.667 102.833 384.834 106.5 372.5 C110.167 360.168 115.167 349.835 121.5 341.5 C127.833 333.167 135.167 326.667 143.5 322 C151.833 317.333 160.666 314 170 312 C151.333 308 135.167 298.333 121.5 283 C107.833 267.667 101 242.333 101 207 L101 207 Z " />
<glyph glyph-name="asciitilde" unicode="&#x7e;" horiz-adv-x="476" d="M234 238 C246.667 230.667 259.5 224.833 272.5 220.5 C285.5 216.167 300 214 316 214 C338.667 214 359 218.333 377 227 C395 235.667 410 247.833 422 263.5 C434 279.167 443.167 297.667 449.5 319 C455.833 340.333 458.667 364 458 390 L346 390 C345.333 376.667 342.167 365 336.5 355 C330.833 345 321 340 307 340 C295.668 340 285.334 342.667 276 348 C266.667 353.333 255.667 359.333 243 366 C231 373.333 218.833 379.167 206.5 383.5 C194.167 387.833 179.667 390 163 390 C139 390 118 385.5 100 376.5 C82 367.5 66.8333 355.167 54.5 339.5 C42.1667 323.833 32.8333 305.333 26.5 284 C20.1667 262.667 17.3333 239.667 18 215 L130 215 C130.667 227.667 134 238.667 140 248 C146 257.333 156.333 262 171 262 C181.667 262 191.833 259.667 201.5 255 C211.167 250.334 222 244.667 234 238 L234 238 Z " />
<glyph glyph-name="uni00A0" unicode="&#xa0;" horiz-adv-x="151" d="" />
<glyph glyph-name="exclamdown" unicode="&#xa1;" horiz-adv-x="236" d="M186 -105 L186 403 L50 403 L50 -105 L186 -105 Z M117 599 C93.6667 599 73.8334 590.833 57.5 574.5 C41.1667 558.167 33 538.333 33 515 C33 503 35.1667 491.833 39.5 481.5 C43.8333 471.167 49.8333 462.167 57.5 454.5 C65.1667 446.833 74.1667 440.833 84.5 436.5 C94.8333 432.167 105.667 430 117 430 C140.333 430 160.333 438.333 177 455 C193.667 471.667 202 491.667 202 515 C202 526.329 199.833 537.163 195.5 547.5 C191.167 557.833 185.167 566.833 177.5 574.5 C169.833 582.167 160.833 588.167 150.5 592.5 C140.167 596.833 129 599 117 599 L117 599 Z " />
<glyph glyph-name="cent" unicode="&#xa2;" horiz-adv-x="495" d="M328 541 L328 604 L254 604 L254 540 C219.333 535.333 187.667 525 159 509 C130.333 493 105.667 473 85 449 C64.3333 425 48.1667 397.333 36.5 366 C24.8333 334.667 19 301.334 19 266 C19 230.667 24.5 197.5 35.5 166.5 C46.5 135.5 62.1667 108 82.5 84 C102.833 60 127.5 40.3333 156.5 25 C185.5 9.66667 218 -0.333328 254 -5 L254 -69 L328 -69 L328 -6 C347.333 -4 365.333 -0.5 382 4.5 C398.667 9.5 413.667 15.5 427 22.5 C440.333 29.5 452.167 37.1667 462.5 45.5 C472.833 53.8333 481.667 61.6666 489 69 L416 158 C406 148.667 393.667 139.333 379 130 C364.333 120.667 347.333 114.334 328 111 L328 423 C348 419.667 365.167 413.5 379.5 404.5 C393.833 395.5 405.333 386.333 414 377 L488 467 C473.333 481.667 453 496.667 427 512 C401 527.333 368 537 328 541 L328 541 Z M150 267 C150 305 159 337.667 177 365 C195 392.333 220.667 410.667 254 420 L254 115 C224 124.333 199.167 142 179.5 168 C159.833 194 150 227 150 267 L150 267 Z " />
<glyph glyph-name="sterling" unicode="&#xa3;" horiz-adv-x="543" d="M222 394 L222 483 C222 509 228.167 530.667 240.5 548 C252.833 565.333 273.333 574 302 574 C318.667 574 332 571 342 565 C352 559 359.833 551.667 365.5 543 C371.167 534.333 375.167 525 377.5 515 C379.833 505 381 495.667 381 487 L518 487 C518.667 509.667 516 533.833 510 559.5 C504 585.167 492.667 608.833 476 630.5 C459.333 652.167 437 670 409 684 C381 698 345.333 705 302 705 C266 705 234.333 699.667 207 689 C179.667 678.333 156.833 663.5 138.5 644.5 C120.167 625.5 106.333 603 97 577 C87.6667 551 83 522.667 83 492 L83 394 L24 394 L24 276 L83 276 L83 124 L24 124 L24 0 L522 0 L522 124 L222 124 L222 276 L359 276 L359 394 L222 394 Z " />
<glyph glyph-name="yen" unicode="&#xa5;" horiz-adv-x="525" d="M188 412 L56 412 L56 312 L192 312 L192 250 L56 250 L56 150 L192 150 L192 0 L330 0 L330 150 L466 150 L466 250 L330 250 L330 312 L466 312 L466 412 L333 412 L519 692 L370 692 L267 530 L163 692 L2 692 L188 412 Z " />
<glyph glyph-name="brokenbar" unicode="&#xa6;" horiz-adv-x="243" d="M178 -175 L178 255 L65 255 L65 -175 L178 -175 Z M178 312 L178 731 L65 731 L65 312 L178 312 Z " />
<glyph glyph-name="section" unicode="&#xa7;" horiz-adv-x="576" d="M355 3 C355 -15 349 -30 337 -42 C325 -54 306.333 -60 281 -60 C267 -60 255.167 -57.5 245.5 -52.5 C235.834 -47.5 228.167 -41 222.5 -33 C216.833 -25 212.833 -16 210.5 -6 C208.167 4 207 14.3333 207 25 L72 25 C72 -4.33333 75.5 -31.5 82.5 -56.5 C89.5 -81.5 101.167 -103.333 117.5 -122 C133.833 -140.667 155.167 -155.334 181.5 -166 C207.833 -176.667 240.333 -182 279 -182 C313.666 -182 344.333 -176.833 371 -166.5 C397.667 -156.167 420 -142.333 438 -125 C456 -107.667 469.667 -87.5 479 -64.5 C488.333 -41.5 493 -17.3333 493 8 C493 28.6667 490.667 48.6667 486 68 C481.333 87.3333 472.333 104.333 459 119 C483 129 504.333 146.833 523 172.5 C541.667 198.167 551 229 551 265 C551 306.333 540.5 341.333 519.5 370 C498.5 398.666 464 421.333 416 438 L291 481 C267 489 249.667 498.833 239 510.5 C228.333 522.167 223 536.667 223 554 C223 570 228.333 584.167 239 596.5 C249.667 608.833 267.667 615 293 615 C307 615 318.667 612.5 328 607.5 C337.333 602.5 344.667 596 350 588 C355.333 580 359.167 571.333 361.5 562 C363.833 552.667 365 543.667 365 535 L498 535 C498 557 495.5 579.833 490.5 603.5 C485.5 627.167 475.667 648.833 461 668.5 C446.333 688.167 425.667 704.5 399 717.5 C372.333 730.5 337.667 737 295 737 C260.333 737 229.833 731.833 203.5 721.5 C177.167 711.167 155.333 697.333 138 680 C120.667 662.667 107.5 642.5 98.5 619.5 C89.5 596.5 85 572.667 85 548 C85 526.667 87.8333 506.667 93.5 488 C99.1667 469.333 108 452.333 120 437 C93.3333 427 70.5 410.333 51.5 387 C32.5 363.667 23 333 23 295 C23 249.667 34.8333 213.5 58.5 186.5 C82.1666 159.5 112.667 139.333 150 126 L286 77 C310.667 68.3333 328.333 58.3333 339 47 C349.667 35.6667 355 21 355 3 L355 3 Z M242 353 L373 305 C386.333 300.333 396.667 293.833 404 285.5 C411.333 277.167 415 265.667 415 251 C415 239.667 412.5 230.167 407.5 222.5 C402.5 214.834 396.167 209.167 388.5 205.5 C380.833 201.833 372.167 200 362.5 200 C352.833 200 343 201.667 333 205 L202 253 C173.333 262.333 159 280.667 159 308 C159 326 166.667 340.167 182 350.5 C197.333 360.833 217.333 361.667 242 353 L242 353 Z " />
<glyph glyph-name="dieresis" unicode="&#xa8;" horiz-adv-x="476" d="M152 573 C172.667 573 190.333 580 205 594 C219.667 608 227 625.667 227 647 C227 667.667 219.833 684.833 205.5 698.5 C191.167 712.167 173.333 719 152 719 C130.667 719 113 712 99 698 C85 684 78 667 78 647 C78 625.667 85 608 99 594 C113 580 130.667 573 152 573 L152 573 Z M335 573 C356.333 573 374.333 580 389 594 C403.667 608 411 625.667 411 647 C411 667.667 403.833 684.833 389.5 698.5 C375.167 712.167 357 719 335 719 C314.333 719 297 712 283 698 C269 684 262 667 262 647 C262 625.667 269 608 283 594 C297 580 314.333 573 335 573 L335 573 Z " />
<glyph glyph-name="copyright" unicode="&#xa9;" horiz-adv-x="772" d="M23 345 C23 294.333 31.5 247.167 48.5 203.5 C65.5 159.833 89.8333 122 121.5 90 C153.167 58 191.5 32.8333 236.5 14.5 C281.5 -3.83333 331.667 -13 387 -13 C442.333 -13 492.333 -3.66667 537 15 C581.667 33.6667 619.833 59.3333 651.5 92 C683.167 124.667 707.5 163 724.5 207 C741.5 251 750 298 750 348 C750 398.667 741.5 445.667 724.5 489 C707.5 532.333 683 570 651 602 C619 634 580.333 659.167 535 677.5 C489.667 695.833 438.667 705 382 705 C328.667 705 280 695.667 236 677 C192 658.333 154.167 632.833 122.5 600.5 C90.8333 568.167 66.3333 530 49 486 C31.6667 442 23 395 23 345 L23 345 Z M110 345 C110 385.666 116.5 423.333 129.5 458 C142.5 492.667 160.833 522.5 184.5 547.5 C208.167 572.5 236.667 592 270 606 C303.333 620 340.667 627 382 627 C426 627 465.333 620.167 500 606.5 C534.667 592.836 564 573.669 588 549 C612 524.334 630.333 494.834 643 460.5 C655.667 426.167 662 388.667 662 348 C662 306.667 655.833 268.833 643.5 234.5 C631.167 200.167 613.167 170.333 589.5 145 C565.833 119.667 537 100 503 86 C469 72 430.333 65 387 65 C343.667 65 304.834 72.1667 270.5 86.5 C236.167 100.833 207.167 120.5 183.5 145.5 C159.833 170.5 141.667 200 129 234 C116.333 268 110 305 110 345 L110 345 Z M465 416 L528 498 C512.667 511.333 494.833 522 474.5 530 C454.168 538 429.334 542 400 542 C370 542 342.833 537 318.5 527 C294.167 517 273.5 503.167 256.5 485.5 C239.5 467.833 226.333 447 217 423 C207.667 399 203 373 203 345 C203 317.667 207.5 292.167 216.5 268.5 C225.5 244.833 238.5 224.333 255.5 207 C272.5 189.667 293.333 176 318 166 C342.667 156 370.667 151 402 151 C453.333 151 495.333 167.333 528 200 L466 275 C460 269.667 451.5 264.5 440.5 259.5 C429.5 254.5 416.333 252 401 252 C373.667 252 351.834 260.833 335.5 278.5 C319.167 296.167 311 318.667 311 346 C311 374 318.667 396.833 334 414.5 C349.333 432.167 370.667 441 398 441 C414.667 441 428.667 438.167 440 432.5 C451.333 426.833 459.667 421.333 465 416 L465 416 Z " />
<glyph glyph-name="ordfeminine" unicode="&#xaa;" horiz-adv-x="358" d="M20 420 C20.6667 377.333 34.1667 344 60.5 320 C86.8333 296 120 284 160 284 C179.333 284 195.666 286.333 209 291 C222.333 295.667 233.666 302.667 243 312 L243 289 L330 289 L330 545 C330 567 327.5 587.5 322.5 606.5 C317.5 625.5 309.167 641.667 297.5 655 C285.833 668.333 270.5 678.833 251.5 686.5 C232.5 694.167 208.667 698 180 698 C130.667 698 94.5 686.5 71.5 663.5 C48.5 640.5 36.3333 609.667 35 571 L132 571 C132.667 582.333 136.333 592.5 143 601.5 C149.667 610.5 162 615 180 615 C197.333 615 209.5 609.667 216.5 599 C223.5 588.336 227 574.669 227 558 L227 535 C221 539.667 212.5 543.833 201.5 547.5 C190.5 551.167 176 553 158 553 C116 553 82.5 540.833 57.5 516.5 C32.5 492.167 20 460 20 420 L20 420 Z M119 422 C119 438 124 451 134 461 C144 471 157 476 173 476 C189.667 476 203.167 471 213.5 461 C223.833 451 229 438 229 422 C229 405.333 223.833 392.167 213.5 382.5 C203.167 372.833 190 368 174 368 C157.333 368 144 373 134 383 C124 393 119 406 119 422 L119 422 Z " />
<glyph glyph-name="guillemotleft" unicode="&#xab;" horiz-adv-x="391" d="M94 99 L209 99 L127 268 L209 439 L94 439 L14 268 L94 99 Z M263 99 L377 99 L296 268 L378 439 L263 439 L182 268 L263 99 Z " />
<glyph glyph-name="registered" unicode="&#xae;" horiz-adv-x="444" d="M205 510 L221 510 L254 427 L315 427 L277 523 C285 528.329 292 535.663 298 545 C304 554.333 307 566 307 580 C307 600.667 300.667 617 288 629 C275.333 641 257 647 233 647 L146 647 L146 427 L205 427 L205 510 Z M205 597 L225 597 C231 597 236 595.5 240 592.5 C244 589.5 246 584.667 246 578 C246 571.333 244 566.333 240 563 C236 559.667 231 558 225 558 L205 558 L205 597 Z M15 534 C15 505.333 20 478.667 30 454 C40 429.333 54 407.833 72 389.5 C90 371.168 111.667 356.835 137 346.5 C162.333 336.167 190.667 331 222 331 C253.333 331 281.833 336.333 307.5 347 C333.167 357.666 355 372.333 373 391 C391 409.666 404.833 431.333 414.5 456 C424.167 480.667 429 507 429 535 C429 563.667 424 590.333 414 615 C404 639.667 390 661.167 372 679.5 C354 697.831 332 712.164 306 722.5 C280 732.833 251 738 219 738 C188.333 738 160.5 732.667 135.5 722 C110.5 711.333 89 696.833 71 678.5 C53 660.167 39.1667 638.667 29.5 614 C19.8333 589.334 15 562.667 15 534 L15 534 Z M67 534 C67 556.667 70.5 577.5 77.5 596.5 C84.5 615.5 94.6667 632 108 646 C121.333 660 137.333 670.833 156 678.5 C174.667 686.167 195.667 690 219 690 C269 690 307.5 675.667 334.5 647 C361.5 618.333 375 581 375 535 C375 512.334 371.5 491.334 364.5 472 C357.5 452.667 347.5 436 334.5 422 C321.5 408 305.5 397.167 286.5 389.5 C267.5 381.833 245.667 378 221 378 C197 378 175.5 382 156.5 390 C137.5 398 121.333 409 108 423 C94.6667 437 84.5 453.5 77.5 472.5 C70.5 491.5 67 512 67 534 L67 534 Z " />
<glyph glyph-name="macron" unicode="&#xaf;" horiz-adv-x="400" d="M79 683 L79 585 L321 585 L321 683 L79 683 Z " />
<glyph glyph-name="degree" unicode="&#xb0;" horiz-adv-x="357" d="M19 545 C19 523 22.6667 502.5 30 483.5 C37.3333 464.5 47.8333 448 61.5 434 C75.1666 420 91.8333 409 111.5 401 C131.167 393 153.333 389 178 389 C202 389 223.833 393 243.5 401 C263.167 409 280 420 294 434 C308 448 318.833 464.667 326.5 484 C334.167 503.333 338 524.333 338 547 C338 569 334.333 589.5 327 608.5 C319.667 627.5 309 644 295 658 C281 672 264 683 244 691 C224 699 201.667 703 177 703 C153.667 703 132.333 699 113 691 C93.6667 683 77 671.833 63 657.5 C49 643.167 38.1667 626.333 30.5 607 C22.8333 587.667 19 567 19 545 L19 545 Z M111 545 C111 564.333 117 581 129 595 C141 609 157.333 616 178 616 C198 616 214.167 609 226.5 595 C238.833 581 245 564.333 245 545 C245 526.333 239.167 510.167 227.5 496.5 C215.834 482.833 199.667 476 179 476 C159 476 142.667 482.667 130 496 C117.333 509.333 111 525.667 111 545 L111 545 Z " />
<glyph glyph-name="twosuperior" unicode="&#xb2;" horiz-adv-x="323" d="M22 335 L300 335 L300 421 L176 421 L234 470 C252 485.333 266.833 500.833 278.5 516.5 C290.167 532.167 296 552 296 576 C296 614 283.833 643.833 259.5 665.5 C235.167 687.167 201 698 157 698 C131 698 109.333 693.667 92 685 C74.6667 676.333 60.6667 665.5 50 652.5 C39.3333 639.5 32 625.167 28 609.5 C24 593.833 22.3333 579 23 565 L120 565 C120 574.333 122.333 583.5 127 592.5 C131.667 601.5 141.667 606 157 606 C168.333 606 177 602.5 183 595.5 C189 588.5 192 580 192 570 C192 558 188.667 547.667 182 539 C175.333 530.333 164.333 520.333 149 509 L22 409 L22 335 Z " />
<glyph glyph-name="threesuperior" unicode="&#xb3;" horiz-adv-x="320" d="M97 554 L97 490 L151 490 C180.333 490 195 477 195 451 C195 439 191.667 429.333 185 422 C178.334 414.667 168.667 411 156 411 C143.333 411 133.5 414.667 126.5 422 C119.5 429.333 116 439.667 116 453 L17 453 C17.6667 416.333 29.1667 386.5 51.5 363.5 C73.8333 340.5 108 329 154 329 C200.667 329 236.167 340.667 260.5 364 C284.833 387.333 297 416.333 297 451 C297 468.333 294.333 483.5 289 496.5 C283.667 509.5 276.834 520.333 268.5 529 C260.167 537.667 251 544.5 241 549.5 C231 554.5 221 557.667 211 559 L277 614 L277 692 L40 692 L40 609 L164 609 L97 554 Z " />
<glyph glyph-name="acute" unicode="&#xb4;" horiz-adv-x="476" d="M387 710 L256 710 L180 572 L306 572 L387 710 Z " />
<glyph glyph-name="paragraph" unicode="&#xb6;" horiz-adv-x="464" d="M156 0 L258 0 L258 692 L164 692 C118.667 692 82.1667 679.333 54.5 654 C26.8333 628.667 13 595 13 553 C13 531.667 16.6667 512.333 24 495 C31.3333 477.668 41.3333 462.834 54 450.5 C66.6666 438.167 81.8333 428.5 99.5 421.5 C117.167 414.5 136 410.667 156 410 L156 0 Z M418 0 L418 692 L315 692 L315 0 L418 0 Z " />
<glyph glyph-name="periodcentered" unicode="&#xb7;" horiz-adv-x="223" d="M111 242 C135.667 242 156 250.333 172 267 C188 283.667 196 304 196 328 C196 352.667 188 373.167 172 389.5 C156 405.833 135.667 414 111 414 C86.3333 414 66 405.833 50 389.5 C34 373.167 26 352.667 26 328 C26 304 34.1667 283.667 50.5 267 C66.8333 250.333 87 242 111 242 L111 242 Z " />
<glyph glyph-name="cedilla" unicode="&#xb8;" horiz-adv-x="400" d="M127 -259 L147 -259 C189 -259 221.833 -249 245.5 -229 C269.167 -209 281 -180.333 281 -143 C281 -118.333 275.333 -96.3333 264 -77 C252.667 -57.6667 232.333 -44 203 -36 L203 15 L127 15 L127 -105 L148 -105 C161.333 -105 172 -108.167 180 -114.5 C188 -120.833 192 -130.333 192 -143 C192 -157 188 -167 180 -173 C172 -179 161.333 -182.333 148 -183 L127 -183 L127 -259 Z " />
<glyph glyph-name="onesuperior" unicode="&#xb9;" horiz-adv-x="192" d="M154 335 L154 692 L62 692 L13 670 L13 589 L52 604 L52 335 L154 335 Z " />
<glyph glyph-name="ordmasculine" unicode="&#xba;" horiz-adv-x="442" d="M119 491 C119 523 128.167 549.167 146.5 569.5 C164.833 589.833 189.667 600 221 600 C251 600 275.5 589.833 294.5 569.5 C313.5 549.167 323 523 323 491 C323 459 313.833 433 295.5 413 C277.167 393 252.667 383 222 383 C191.333 383 166.5 393 147.5 413 C128.5 433 119 459 119 491 L119 491 Z M13 490 C13 460 18 432.5 28 407.5 C38 382.5 52 361 70 343 C88 325 109.833 310.833 135.5 300.5 C161.167 290.167 189.667 285 221 285 C251.667 285 279.833 290.167 305.5 300.5 C331.167 310.833 353.167 325.333 371.5 344 C389.833 362.667 404.167 384.5 414.5 409.5 C424.833 434.5 430 462 430 492 C430 522 425 549.5 415 574.5 C405 599.5 390.833 621.167 372.5 639.5 C354.167 657.831 332.167 672.164 306.5 682.5 C280.833 692.833 252.333 698 221 698 C191 698 163.333 692.833 138 682.5 C112.667 672.167 90.6667 657.833 72 639.5 C53.3333 621.167 38.8333 599.167 28.5 573.5 C18.1667 547.833 13 520 13 490 L13 490 Z " />
<glyph glyph-name="guillemotright" unicode="&#xbb;" horiz-adv-x="391" d="M128 439 L14 439 L95 269 L14 99 L128 99 L209 269 L128 439 Z M297 439 L183 439 L264 269 L182 99 L297 99 L378 269 L297 439 Z " />
<glyph glyph-name="onequarter" unicode="&#xbc;" horiz-adv-x="681" d="M185 335 L185 692 L93 692 L44 670 L44 590 L83 605 L83 335 L185 335 Z M611 72 L649 72 L649 160 L611 160 L611 361 L511 361 L346 157 L346 72 L512 72 L512 1 L611 1 L611 72 Z M441 160 L512 249 L512 160 L441 160 Z M111 0 L626 692 L518 692 L4 0 L111 0 Z " />
<glyph glyph-name="onehalf" unicode="&#xbd;" horiz-adv-x="698" d="M185 335 L185 692 L93 692 L44 670 L44 590 L83 605 L83 335 L185 335 Z M390 1 L667 1 L667 87 L543 87 L601 137 C619.667 153 634.667 169 646 185 C657.333 201 663 221 663 245 C663 282.333 650.667 312 626 334 C601.333 356 567 367 523 367 C497 367 475.333 362.667 458 354 C440.668 345.333 426.834 334.5 416.5 321.5 C406.167 308.5 399 294.333 395 279 C391 263.667 389.333 249 390 235 L486 235 C486 244.333 488.333 253.5 493 262.5 C497.667 271.5 507.667 276 523 276 C534.329 276 543.163 272.333 549.5 265 C555.833 257.667 559 249 559 239 C559 227 555.667 216.5 549 207.5 C542.333 198.5 531.333 188 516 176 L390 75 L390 1 Z M111 0 L626 692 L518 692 L4 0 L111 0 Z " />
<glyph glyph-name="threequarters" unicode="&#xbe;" horiz-adv-x="755" d="M110 552 L110 488 L163 488 C193 488 208 475 208 449 C208 437 204.5 427.167 197.5 419.5 C190.5 411.833 181 408 169 408 C155.667 408 145.5 411.667 138.5 419 C131.5 426.333 128 436.667 128 450 L30 450 C30.6667 413.333 42.1667 383.5 64.5 360.5 C86.8333 337.5 121 326 167 326 C213.667 326 249 337.5 273 360.5 C297 383.5 309 413 309 449 C309 467 306.333 482.333 301 495 C295.667 507.667 289 518.333 281 527 C273 535.667 263.833 542.5 253.5 547.5 C243.167 552.5 233 555.667 223 557 L289 614 L289 692 L52 692 L52 609 L177 609 L110 552 Z M685 72 L723 72 L723 160 L685 160 L685 361 L585 361 L420 157 L420 72 L586 72 L586 1 L685 1 L685 72 Z M515 160 L586 249 L586 160 L515 160 Z M186 0 L701 692 L593 692 L79 0 L186 0 Z " />
<glyph glyph-name="questiondown" unicode="&#xbf;" horiz-adv-x="473" d="M181 403 L181 261 C158.333 258.333 137.167 252.333 117.5 243 C97.8333 233.667 80.8333 221.333 66.5 206 C52.1667 190.667 41 172.5 33 151.5 C25 130.5 21 107 21 81 C21 53.6667 25.6667 28 35 4 C44.3333 -20 58.1667 -40.8333 76.5 -58.5 C94.8333 -76.1667 117.333 -90 144 -100 C170.667 -110 201.333 -115 236 -115 C283.333 -115 321.333 -107.333 350 -92 C378.667 -76.6667 400.667 -58 416 -36 C431.333 -14 441.333 8.83333 446 32.5 C450.667 56.1667 452.667 76.6667 452 94 L318 94 C318 84.6667 317 74.6667 315 64 C313 53.3333 309 43.3333 303 34 C297 24.6667 288.667 16.8333 278 10.5 C267.333 4.16667 253.667 1 237 1 C211.667 1 191.833 8.83333 177.5 24.5 C163.167 40.1667 156 59.6667 156 83 C156 110.333 163.833 130.5 179.5 143.5 C195.167 156.5 215.667 163 241 163 L314 163 L314 403 L181 403 Z M247 600 C223.667 600 203.833 591.833 187.5 575.5 C171.167 559.167 163 539.333 163 516 C163 492 171.167 471.833 187.5 455.5 C203.833 439.167 223.666 431 247 431 C270.333 431 290.333 439.167 307 455.5 C323.667 471.833 332 492 332 516 C332 539.331 323.667 559.165 307 575.5 C290.333 591.833 270.333 600 247 600 L247 600 Z " />
<glyph glyph-name="Agrave" unicode="&#xc0;" horiz-adv-x="648" d="M302 854 L171 854 L248 724 L375 724 L302 854 Z M436 190 L505 0 L652 0 L390 692 L244 692 L-6 0 L131 0 L199 190 L436 190 Z M242 308 L317 516 L393 308 L242 308 Z " />
<glyph glyph-name="Aacute" unicode="&#xc1;" horiz-adv-x="648" d="M462 854 L329 854 L256 724 L385 724 L462 854 Z M436 190 L505 0 L652 0 L390 692 L244 692 L-6 0 L131 0 L199 190 L436 190 Z M242 308 L317 516 L393 308 L242 308 Z " />
<glyph glyph-name="Acircumflex" unicode="&#xc2;" horiz-adv-x="648" d="M386 854 L247 854 L144 724 L267 724 L317 778 L366 724 L489 724 L386 854 Z M436 190 L505 0 L652 0 L390 692 L244 692 L-6 0 L131 0 L199 190 L436 190 Z M242 308 L317 516 L393 308 L242 308 Z " />
<glyph glyph-name="Atilde" unicode="&#xc3;" horiz-adv-x="648" d="M378 728 C412 728 438.667 740.167 458 764.5 C477.333 788.833 486.333 821.333 485 862 L389 862 C389 838.667 380 827 362 827 C354.667 827 347.667 828.833 341 832.5 C334.333 836.167 327 840 319 844 C311 848 302.167 851.833 292.5 855.5 C282.833 859.167 271.333 861 258 861 C223.333 861 196 848.333 176 823 C156 797.667 147 765.667 149 727 L244 727 C244 750.333 253.667 762 273 762 C280.333 762 287.5 760.167 294.5 756.5 C301.5 752.833 309.167 749 317.5 745 C325.833 741 334.833 737.167 344.5 733.5 C354.166 729.833 365.333 728 378 728 L378 728 Z M436 190 L505 0 L652 0 L390 692 L244 692 L-6 0 L131 0 L199 190 L436 190 Z M242 308 L317 516 L393 308 L242 308 Z " />
<glyph glyph-name="Adieresis" unicode="&#xc4;" horiz-adv-x="648" d="M217 722 C238.333 722 256.333 728.833 271 742.5 C285.667 756.167 293 773.667 293 795 C293 815.667 285.667 833 271 847 C256.333 861 238.333 868 217 868 C196.333 868 179 861 165 847 C151 833 144 815.667 144 795 C144 773.667 151 756.167 165 742.5 C179 728.833 196.333 722 217 722 L217 722 Z M415 722 C436.333 722 454.167 728.833 468.5 742.5 C482.833 756.167 490 773.667 490 795 C490 815.667 482.833 833 468.5 847 C454.168 861 436.334 868 415 868 C393.667 868 376 861 362 847 C348 833 341 815.667 341 795 C341 773.667 348 756.167 362 742.5 C376 728.833 393.667 722 415 722 L415 722 Z M437 190 L506 0 L653 0 L391 692 L245 692 L-5 0 L132 0 L200 190 L437 190 Z M243 308 L318 516 L394 308 L243 308 Z " />
<glyph glyph-name="Aring" unicode="&#xc5;" horiz-adv-x="648" d="M207 819 C207 789 217.167 764 237.5 744 C257.833 724 284.333 714 317 714 C351 714 378 724 398 744 C418 764 428 789.667 428 821 C428 851 418 876 398 896 C378 916 350.667 926 316 926 C284 926 257.833 916 237.5 896 C217.167 876 207 850.333 207 819 L207 819 Z M275 820 C275 833.333 278.667 844 286 852 C293.333 860 303.667 864 317 864 C331 864 341.667 860 349 852 C356.333 844 360 833.667 360 821 C360 807 356.333 796 349 788 C341.667 780 331.334 776 318 776 C304.667 776 294.167 780 286.5 788 C278.833 796 275 806.667 275 820 L275 820 Z M437 190 L506 0 L653 0 L391 692 L245 692 L-5 0 L132 0 L200 190 L437 190 Z M243 308 L318 516 L394 308 L243 308 Z " />
<glyph glyph-name="AE" unicode="&#xc6;" horiz-adv-x="781" d="M429 0 L748 0 L748 130 L568 130 L568 290 L740 290 L740 418 L568 418 L568 562 L746 562 L746 692 L370 692 L-11 0 L144 0 L234 169 L429 169 L429 0 Z M429 287 L296 287 L429 536 L429 287 Z " />
<glyph glyph-name="Ccedilla" unicode="&#xc7;" horiz-adv-x="627" d="M297 -259 L317 -259 C359 -259 391.833 -249 415.5 -229 C439.167 -209 451 -180.333 451 -143 C451 -118.333 445.333 -96.3333 434 -77 C422.667 -57.6667 402.334 -44 373 -36 L373 -13 L386 -13 C436 -13 480 -4.33333 518 13 C556 30.3333 588.333 52 615 78 L534 175 C519.334 162.333 499.834 149.5 475.5 136.5 C451.167 123.5 421.334 117 386 117 C353.333 117 323.667 122.833 297 134.5 C270.333 146.167 247.5 162.167 228.5 182.5 C209.5 202.833 194.833 227 184.5 255 C174.167 283 169 313.333 169 346 C169 378.667 173.833 409 183.5 437 C193.167 465 207.333 489.333 226 510 C244.667 530.667 267.333 546.833 294 558.5 C320.667 570.167 350.667 576 384 576 C416 576 444.5 570.167 469.5 558.5 C494.5 546.833 515 534 531 520 L613 624 C585 648.667 552.167 668.333 514.5 683 C476.833 697.667 433 705 383 705 C329 705 279.833 695.833 235.5 677.5 C191.167 659.167 153.333 633.833 122 601.5 C90.6667 569.167 66.3333 531 49 487 C31.6667 443 23 395.667 23 345 C23 301 29.3333 259.667 42 221 C54.6667 182.333 72.8333 147.833 96.5 117.5 C120.167 87.1667 148.833 61.5 182.5 40.5 C216.167 19.5 254.333 4.66667 297 -4 L297 -105 L318 -105 C331.333 -105 342 -108.167 350 -114.5 C358 -120.833 362 -130.333 362 -143 C362 -157 358 -167 350 -173 C342 -179 331.333 -182.333 318 -183 L297 -183 L297 -259 Z " />
<glyph glyph-name="Egrave" unicode="&#xc8;" horiz-adv-x="398" d="M208 854 L77 854 L154 724 L281 724 L208 854 Z M46 0 L366 0 L366 130 L185 130 L185 290 L358 290 L358 418 L185 418 L185 562 L363 562 L363 692 L46 692 L46 0 Z " />
<glyph glyph-name="Eacute" unicode="&#xc9;" horiz-adv-x="398" d="M337 854 L204 854 L131 724 L260 724 L337 854 Z M46 0 L366 0 L366 130 L185 130 L185 290 L358 290 L358 418 L185 418 L185 562 L363 562 L363 692 L46 692 L46 0 Z " />
<glyph glyph-name="Ecircumflex" unicode="&#xca;" horiz-adv-x="398" d="M273 854 L134 854 L31 724 L154 724 L204 778 L253 724 L376 724 L273 854 Z M46 0 L366 0 L366 130 L185 130 L185 290 L358 290 L358 418 L185 418 L185 562 L363 562 L363 692 L46 692 L46 0 Z " />
<glyph glyph-name="Edieresis" unicode="&#xcb;" horiz-adv-x="398" d="M109 722 C130.333 722 148.333 728.833 163 742.5 C177.667 756.167 185 773.667 185 795 C185 815.667 177.667 833 163 847 C148.333 861 130.333 868 109 868 C88.3333 868 71 861 57 847 C43 833 36 815.667 36 795 C36 773.667 43 756.167 57 742.5 C71 728.833 88.3333 722 109 722 L109 722 Z M307 722 C328.333 722 346.167 728.833 360.5 742.5 C374.833 756.167 382 773.667 382 795 C382 815.667 374.833 833 360.5 847 C346.167 861 328.334 868 307 868 C285.667 868 268 861 254 847 C240 833 233 815.667 233 795 C233 773.667 240 756.167 254 742.5 C268 728.833 285.667 722 307 722 L307 722 Z M46 0 L366 0 L366 130 L185 130 L185 290 L358 290 L358 418 L185 418 L185 562 L363 562 L363 692 L46 692 L46 0 Z " />
<glyph glyph-name="Igrave" unicode="&#xcc;" horiz-adv-x="231" d="M105 854 L-26 854 L51 724 L178 724 L105 854 Z M185 0 L185 692 L46 692 L46 0 L185 0 Z " />
<glyph glyph-name="Iacute" unicode="&#xcd;" horiz-adv-x="231" d="M258 854 L125 854 L52 724 L181 724 L258 854 Z M185 0 L185 692 L46 692 L46 0 L185 0 Z " />
<glyph glyph-name="Icircumflex" unicode="&#xce;" horiz-adv-x="231" d="M184 854 L45 854 L-54 724 L68 724 L115 779 L162 724 L284 724 L184 854 Z M185 0 L185 692 L46 692 L46 0 L185 0 Z " />
<glyph glyph-name="Idieresis" unicode="&#xcf;" horiz-adv-x="231" d="M20 722 C41.3333 722 59.1667 728.833 73.5 742.5 C87.8333 756.167 95 773.667 95 795 C95 815.667 87.8333 833 73.5 847 C59.1667 861 41.3333 868 20 868 C-1.33333 868 -19 861 -33 847 C-47 833 -54 815.667 -54 795 C-54 773.667 -47 756.167 -33 742.5 C-19 728.833 -1.33333 722 20 722 L20 722 Z M209 722 C230.333 722 248.333 728.833 263 742.5 C277.667 756.167 285 773.667 285 795 C285 815.667 277.667 833 263 847 C248.333 861 230.333 868 209 868 C188.333 868 171 861 157 847 C143 833 136 815.667 136 795 C136 773.667 143 756.167 157 742.5 C171 728.833 188.333 722 209 722 L209 722 Z M185 0 L185 692 L46 692 L46 0 L185 0 Z " />
<glyph glyph-name="Eth" unicode="&#xd0;" horiz-adv-x="587" d="M200 692 L60 692 L60 416 L8 416 L8 286 L60 286 L60 0 L200 0 C256.667 0 307.333 8.16667 352 24.5 C396.667 40.8333 434.667 64 466 94 C497.333 124 521.333 160.333 538 203 C554.667 245.667 563 293.667 563 347 C563 401 554.667 449.333 538 492 C521.334 534.667 497.501 570.833 466.5 600.5 C435.5 630.167 397.5 652.833 352.5 668.5 C307.5 684.167 256.667 692 200 692 L200 692 Z M199 416 L199 569 L207 569 C273.667 569.667 325.5 551 362.5 513 C399.5 475 418 419.667 418 347 C418 273.667 399.167 217.833 361.5 179.5 C323.833 141.167 272.333 122.333 207 123 L199 123 L199 286 L297 286 L297 416 L199 416 Z " />
<glyph glyph-name="Ntilde" unicode="&#xd1;" horiz-adv-x="668" d="M405 728 C439 728 465.667 740.167 485 764.5 C504.333 788.833 513.333 821.333 512 862 L416 862 C416 838.667 407 827 389 827 C381.667 827 374.667 828.833 368 832.5 C361.333 836.167 354 840 346 844 C338 848 329.167 851.833 319.5 855.5 C309.833 859.167 298.333 861 285 861 C250.333 861 223 848.333 203 823 C183 797.667 174 765.667 176 727 L271 727 C271 750.333 280.667 762 300 762 C307.333 762 314.5 760.167 321.5 756.5 C328.5 752.833 336.167 749 344.5 745 C352.833 741 361.833 737.167 371.5 733.5 C381.165 729.833 392.332 728 405 728 L405 728 Z M180 456 L483 0 L621 0 L621 692 L486 692 L486 228 L189 692 L45 692 L45 0 L180 0 L180 456 Z " />
<glyph glyph-name="Ograve" unicode="&#xd2;" horiz-adv-x="764" d="M374 854 L243 854 L320 724 L447 724 L374 854 Z M22 345 C22 293.667 30.5 246.167 47.5 202.5 C64.5 158.833 88.5 121 119.5 89 C150.5 57 188.167 32 232.5 14 C276.833 -4 326.667 -13 382 -13 C436 -13 485.167 -3.83333 529.5 14.5 C573.833 32.8333 611.833 58.1667 643.5 90.5 C675.167 122.833 699.5 161 716.5 205 C733.5 249 742 296.333 742 347 C742 397.666 733.333 444.833 716 488.5 C698.667 532.167 674.333 570 643 602 C611.667 634 573.5 659.167 528.5 677.5 C483.5 695.833 433.667 705 379 705 C326.333 705 278.167 695.833 234.5 677.5 C190.833 659.167 153.167 633.833 121.5 601.5 C89.8333 569.167 65.3333 531 48 487 C30.6667 443 22 395.667 22 345 L22 345 Z M168 346 C168 378.667 172.833 409 182.5 437 C192.167 465 206.167 489.333 224.5 510 C242.833 530.667 265.167 546.833 291.5 558.5 C317.833 570.167 347.667 576 381 576 C413.666 576 443.333 570.167 470 558.5 C496.667 546.835 519.333 530.669 538 510 C556.667 489.333 571 465 581 437 C591 409 596 378.667 596 346 C596 313.333 591.167 283 581.5 255 C571.833 227 557.833 202.833 539.5 182.5 C521.167 162.167 498.667 146.167 472 134.5 C445.333 122.833 415.333 117 382 117 C350 117 320.833 122.833 294.5 134.5 C268.167 146.167 245.667 162.167 227 182.5 C208.333 202.833 193.833 227 183.5 255 C173.167 283 168 313.333 168 346 L168 346 Z " />
<glyph glyph-name="Oacute" unicode="&#xd3;" horiz-adv-x="764" d="M518 854 L385 854 L312 724 L441 724 L518 854 Z M22 345 C22 293.667 30.5 246.167 47.5 202.5 C64.5 158.833 88.5 121 119.5 89 C150.5 57 188.167 32 232.5 14 C276.833 -4 326.667 -13 382 -13 C436 -13 485.167 -3.83333 529.5 14.5 C573.833 32.8333 611.833 58.1667 643.5 90.5 C675.167 122.833 699.5 161 716.5 205 C733.5 249 742 296.333 742 347 C742 397.666 733.333 444.833 716 488.5 C698.667 532.167 674.333 570 643 602 C611.667 634 573.5 659.167 528.5 677.5 C483.5 695.833 433.667 705 379 705 C326.333 705 278.167 695.833 234.5 677.5 C190.833 659.167 153.167 633.833 121.5 601.5 C89.8333 569.167 65.3333 531 48 487 C30.6667 443 22 395.667 22 345 L22 345 Z M168 346 C168 378.667 172.833 409 182.5 437 C192.167 465 206.167 489.333 224.5 510 C242.833 530.667 265.167 546.833 291.5 558.5 C317.833 570.167 347.667 576 381 576 C413.666 576 443.333 570.167 470 558.5 C496.667 546.835 519.333 530.669 538 510 C556.667 489.333 571 465 581 437 C591 409 596 378.667 596 346 C596 313.333 591.167 283 581.5 255 C571.833 227 557.833 202.833 539.5 182.5 C521.167 162.167 498.667 146.167 472 134.5 C445.333 122.833 415.333 117 382 117 C350 117 320.833 122.833 294.5 134.5 C268.167 146.167 245.667 162.167 227 182.5 C208.333 202.833 193.833 227 183.5 255 C173.167 283 168 313.333 168 346 L168 346 Z " />
<glyph glyph-name="Ocircumflex" unicode="&#xd4;" horiz-adv-x="764" d="M451 854 L312 854 L209 724 L332 724 L382 778 L431 724 L554 724 L451 854 Z M22 345 C22 293.667 30.5 246.167 47.5 202.5 C64.5 158.833 88.5 121 119.5 89 C150.5 57 188.167 32 232.5 14 C276.833 -4 326.667 -13 382 -13 C436 -13 485.167 -3.83333 529.5 14.5 C573.833 32.8333 611.833 58.1667 643.5 90.5 C675.167 122.833 699.5 161 716.5 205 C733.5 249 742 296.333 742 347 C742 397.666 733.333 444.833 716 488.5 C698.667 532.167 674.333 570 643 602 C611.667 634 573.5 659.167 528.5 677.5 C483.5 695.833 433.667 705 379 705 C326.333 705 278.167 695.833 234.5 677.5 C190.833 659.167 153.167 633.833 121.5 601.5 C89.8333 569.167 65.3333 531 48 487 C30.6667 443 22 395.667 22 345 L22 345 Z M168 346 C168 378.667 172.833 409 182.5 437 C192.167 465 206.167 489.333 224.5 510 C242.833 530.667 265.167 546.833 291.5 558.5 C317.833 570.167 347.667 576 381 576 C413.666 576 443.333 570.167 470 558.5 C496.667 546.835 519.333 530.669 538 510 C556.667 489.333 571 465 581 437 C591 409 596 378.667 596 346 C596 313.333 591.167 283 581.5 255 C571.833 227 557.833 202.833 539.5 182.5 C521.167 162.167 498.667 146.167 472 134.5 C445.333 122.833 415.333 117 382 117 C350 117 320.833 122.833 294.5 134.5 C268.167 146.167 245.667 162.167 227 182.5 C208.333 202.833 193.833 227 183.5 255 C173.167 283 168 313.333 168 346 L168 346 Z " />
<glyph glyph-name="Otilde" unicode="&#xd5;" horiz-adv-x="764" d="M442 728 C476 728 502.667 740.167 522 764.5 C541.333 788.833 550.333 821.333 549 862 L453 862 C453 838.667 444 827 426 827 C418.667 827 411.667 828.833 405 832.5 C398.333 836.167 391 840 383 844 C375 848 366.167 851.833 356.5 855.5 C346.833 859.167 335.333 861 322 861 C287.333 861 260 848.333 240 823 C220 797.667 211 765.667 213 727 L308 727 C308 750.333 317.667 762 337 762 C344.333 762 351.5 760.167 358.5 756.5 C365.5 752.833 373.167 749 381.5 745 C389.833 741 398.833 737.167 408.5 733.5 C418.166 729.833 429.333 728 442 728 L442 728 Z M22 345 C22 293.667 30.5 246.167 47.5 202.5 C64.5 158.833 88.5 121 119.5 89 C150.5 57 188.167 32 232.5 14 C276.833 -4 326.667 -13 382 -13 C436 -13 485.167 -3.83333 529.5 14.5 C573.833 32.8333 611.833 58.1667 643.5 90.5 C675.167 122.833 699.5 161 716.5 205 C733.5 249 742 296.333 742 347 C742 397.666 733.333 444.833 716 488.5 C698.667 532.167 674.333 570 643 602 C611.667 634 573.5 659.167 528.5 677.5 C483.5 695.833 433.667 705 379 705 C326.333 705 278.167 695.833 234.5 677.5 C190.833 659.167 153.167 633.833 121.5 601.5 C89.8333 569.167 65.3333 531 48 487 C30.6667 443 22 395.667 22 345 L22 345 Z M168 346 C168 378.667 172.833 409 182.5 437 C192.167 465 206.167 489.333 224.5 510 C242.833 530.667 265.167 546.833 291.5 558.5 C317.833 570.167 347.667 576 381 576 C413.666 576 443.333 570.167 470 558.5 C496.667 546.835 519.333 530.669 538 510 C556.667 489.333 571 465 581 437 C591 409 596 378.667 596 346 C596 313.333 591.167 283 581.5 255 C571.833 227 557.833 202.833 539.5 182.5 C521.167 162.167 498.667 146.167 472 134.5 C445.333 122.833 415.333 117 382 117 C350 117 320.833 122.833 294.5 134.5 C268.167 146.167 245.667 162.167 227 182.5 C208.333 202.833 193.833 227 183.5 255 C173.167 283 168 313.333 168 346 L168 346 Z " />
<glyph glyph-name="Odieresis" unicode="&#xd6;" horiz-adv-x="764" d="M282 722 C303.333 722 321.333 728.833 336 742.5 C350.667 756.167 358 773.667 358 795 C358 815.667 350.667 833 336 847 C321.333 861 303.333 868 282 868 C261.333 868 244 861 230 847 C216 833 209 815.667 209 795 C209 773.667 216 756.167 230 742.5 C244 728.833 261.333 722 282 722 L282 722 Z M480 722 C501.333 722 519.167 728.833 533.5 742.5 C547.833 756.167 555 773.667 555 795 C555 815.667 547.833 833 533.5 847 C519.167 861 501.333 868 480 868 C458.667 868 441 861 427 847 C413 833 406 815.667 406 795 C406 773.667 413 756.167 427 742.5 C441 728.833 458.667 722 480 722 L480 722 Z M22 345 C22 293.667 30.5 246.167 47.5 202.5 C64.5 158.833 88.5 121 119.5 89 C150.5 57 188.167 32 232.5 14 C276.833 -4 326.667 -13 382 -13 C436 -13 485.167 -3.83333 529.5 14.5 C573.833 32.8333 611.833 58.1667 643.5 90.5 C675.167 122.833 699.5 161 716.5 205 C733.5 249 742 296.333 742 347 C742 397.666 733.333 444.833 716 488.5 C698.667 532.167 674.333 570 643 602 C611.667 634 573.5 659.167 528.5 677.5 C483.5 695.833 433.667 705 379 705 C326.333 705 278.167 695.833 234.5 677.5 C190.833 659.167 153.167 633.833 121.5 601.5 C89.8333 569.167 65.3333 531 48 487 C30.6667 443 22 395.667 22 345 L22 345 Z M168 346 C168 378.667 172.833 409 182.5 437 C192.167 465 206.167 489.333 224.5 510 C242.833 530.667 265.167 546.833 291.5 558.5 C317.833 570.167 347.667 576 381 576 C413.666 576 443.333 570.167 470 558.5 C496.667 546.835 519.333 530.669 538 510 C556.667 489.333 571 465 581 437 C591 409 596 378.667 596 346 C596 313.333 591.167 283 581.5 255 C571.833 227 557.833 202.833 539.5 182.5 C521.167 162.167 498.667 146.167 472 134.5 C445.333 122.833 415.333 117 382 117 C350 117 320.833 122.833 294.5 134.5 C268.167 146.167 245.667 162.167 227 182.5 C208.333 202.833 193.833 227 183.5 255 C173.167 283 168 313.333 168 346 L168 346 Z " />
<glyph glyph-name="multiply" unicode="&#xd7;" horiz-adv-x="422" d="M95 530 L17 451 L133 335 L17 219 L95 141 L211 257 L328 141 L405 219 L289 335 L405 451 L327 529 L211 413 L95 530 Z " />
<glyph glyph-name="Oslash" unicode="&#xd8;" horiz-adv-x="764" d="M22 345 C22 300.333 28.5 258.333 41.5 219 C54.5 179.667 73.6667 145 99 115 L49 57 L138 -20 L190 40 C213.333 24.6667 240.833 12.3333 272.5 3 C304.167 -6.33333 340 -11 380 -11 C434 -11 483 -1.83333 527 16.5 C571 34.8333 608.667 60.1667 640 92.5 C671.333 124.833 695.5 162.833 712.5 206.5 C729.5 250.167 738 297 738 347 C738 395 730.833 438.333 716.5 477 C702.167 515.667 683.667 548.667 661 576 L709 631 L620 709 L570 652 C545.333 668.667 516.333 681.5 483 690.5 C449.667 699.5 414.334 704 377 704 C325 704 277.333 694.833 234 676.5 C190.667 658.167 153.167 632.833 121.5 600.5 C89.8333 568.167 65.3333 530.167 48 486.5 C30.6667 442.833 22 395.667 22 345 L22 345 Z M165 346 C165 378.667 169.833 409.167 179.5 437.5 C189.167 465.833 203.333 490.5 222 511.5 C240.667 532.5 263.167 548.833 289.5 560.5 C315.833 572.167 345.667 578 379 578 C417 578 451.667 569.667 483 553 L194 223 C174.667 258.333 165 299.333 165 346 L165 346 Z M594 346 C594 313.333 589 282.833 579 254.5 C569 226.167 554.833 201.667 536.5 181 C518.167 160.333 495.667 144.167 469 132.5 C442.333 120.833 412.333 115 379 115 C359.667 115 341.667 117.167 325 121.5 C308.333 125.833 292.333 131.667 277 139 L565 467 C574.333 449.668 581.5 430.834 586.5 410.5 C591.5 390.167 594 368.667 594 346 L594 346 Z " />
<glyph glyph-name="Ugrave" unicode="&#xd9;" horiz-adv-x="636" d="M317 854 L186 854 L263 724 L390 724 L317 854 Z M317 -13 C362.333 -13 402.167 -5.83333 436.5 8.5 C470.833 22.8333 499.667 42.5 523 67.5 C546.333 92.5 564 122.333 576 157 C588 191.667 594 229.667 594 271 L594 692 L455 692 L455 271 C455 225.667 443.667 188.667 421 160 C398.333 131.333 364.333 117 319 117 C271.667 117 236.833 131.167 214.5 159.5 C192.167 187.833 181 224.667 181 270 L181 692 L42 692 L42 270 C42 227.333 47.5 188.667 58.5 154 C69.5 119.333 86.3333 89.6667 109 65 C131.667 40.3333 160.167 21.1667 194.5 7.5 C228.833 -6.16667 269.667 -13 317 -13 L317 -13 Z " />
<glyph glyph-name="Uacute" unicode="&#xda;" horiz-adv-x="636" d="M455 854 L322 854 L249 724 L378 724 L455 854 Z M317 -13 C362.333 -13 402.167 -5.83333 436.5 8.5 C470.833 22.8333 499.667 42.5 523 67.5 C546.333 92.5 564 122.333 576 157 C588 191.667 594 229.667 594 271 L594 692 L455 692 L455 271 C455 225.667 443.667 188.667 421 160 C398.333 131.333 364.333 117 319 117 C271.667 117 236.833 131.167 214.5 159.5 C192.167 187.833 181 224.667 181 270 L181 692 L42 692 L42 270 C42 227.333 47.5 188.667 58.5 154 C69.5 119.333 86.3333 89.6667 109 65 C131.667 40.3333 160.167 21.1667 194.5 7.5 C228.833 -6.16667 269.667 -13 317 -13 L317 -13 Z " />
<glyph glyph-name="Ucircumflex" unicode="&#xdb;" horiz-adv-x="636" d="M388 854 L249 854 L146 724 L269 724 L319 778 L368 724 L491 724 L388 854 Z M317 -13 C362.333 -13 402.167 -5.83333 436.5 8.5 C470.833 22.8333 499.667 42.5 523 67.5 C546.333 92.5 564 122.333 576 157 C588 191.667 594 229.667 594 271 L594 692 L455 692 L455 271 C455 225.667 443.667 188.667 421 160 C398.333 131.333 364.333 117 319 117 C271.667 117 236.833 131.167 214.5 159.5 C192.167 187.833 181 224.667 181 270 L181 692 L42 692 L42 270 C42 227.333 47.5 188.667 58.5 154 C69.5 119.333 86.3333 89.6667 109 65 C131.667 40.3333 160.167 21.1667 194.5 7.5 C228.833 -6.16667 269.667 -13 317 -13 L317 -13 Z " />
<glyph glyph-name="Udieresis" unicode="&#xdc;" horiz-adv-x="636" d="M217 722 C238.333 722 256.333 728.833 271 742.5 C285.667 756.167 293 773.667 293 795 C293 815.667 285.667 833 271 847 C256.333 861 238.333 868 217 868 C196.333 868 179 861 165 847 C151 833 144 815.667 144 795 C144 773.667 151 756.167 165 742.5 C179 728.833 196.333 722 217 722 L217 722 Z M415 722 C436.333 722 454.167 728.833 468.5 742.5 C482.833 756.167 490 773.667 490 795 C490 815.667 482.833 833 468.5 847 C454.168 861 436.334 868 415 868 C393.667 868 376 861 362 847 C348 833 341 815.667 341 795 C341 773.667 348 756.167 362 742.5 C376 728.833 393.667 722 415 722 L415 722 Z M317 -13 C362.333 -13 402.167 -5.83333 436.5 8.5 C470.833 22.8333 499.667 42.5 523 67.5 C546.333 92.5 564 122.333 576 157 C588 191.667 594 229.667 594 271 L594 692 L455 692 L455 271 C455 225.667 443.667 188.667 421 160 C398.333 131.333 364.333 117 319 117 C271.667 117 236.833 131.167 214.5 159.5 C192.167 187.833 181 224.667 181 270 L181 692 L42 692 L42 270 C42 227.333 47.5 188.667 58.5 154 C69.5 119.333 86.3333 89.6667 109 65 C131.667 40.3333 160.167 21.1667 194.5 7.5 C228.833 -6.16667 269.667 -13 317 -13 L317 -13 Z " />
<glyph glyph-name="Yacute" unicode="&#xdd;" horiz-adv-x="510" d="M401 854 L268 854 L195 724 L324 724 L401 854 Z M-9 692 L184 346 L184 0 L323 0 L323 348 L519 692 L372 692 L258 482 L146 692 L-9 692 Z " />
<glyph glyph-name="Thorn" unicode="&#xde;" horiz-adv-x="491" d="M472 354 C472 418.667 454 468 418 502 C382 536 329.333 553 260 553 L184 553 L184 692 L46 692 L46 0 L184 0 L184 148 L260 148 C292 148 321 152.667 347 162 C373 171.333 395.333 184.833 414 202.5 C432.667 220.167 447 241.833 457 267.5 C467 293.167 472 322 472 354 L472 354 Z M184 432 L249 432 C274.333 432 293.833 425 307.5 411 C321.167 397 328 377.667 328 353 C328 327.667 321.167 307.667 307.5 293 C293.833 278.333 274.333 271 249 271 L184 271 L184 432 Z " />
<glyph glyph-name="germandbls" unicode="&#xdf;" horiz-adv-x="522" d="M227 112 L227 0 L242 0 C280.666 -1.33333 315.833 3.33333 347.5 14 C379.167 24.6667 406.5 40.5 429.5 61.5 C452.5 82.5 470.333 108.167 483 138.5 C495.667 168.833 502 203 502 241 C502 267.666 499 291.833 493 313.5 C487 335.166 478.833 354.333 468.5 371 C458.167 387.667 446.167 402.167 432.5 414.5 C418.833 426.833 404 437.333 388 446 C402.666 454.667 416.333 469 429 489 C441.667 509 448 533.333 448 562 C448 616 430.667 658.667 396 690 C361.333 721.333 312 737 248 737 C209.333 737 176.667 731.667 150 721 C123.333 710.333 101.833 695.833 85.5 677.5 C69.1667 659.167 57.3333 637.833 50 613.5 C42.6667 589.167 39 563 39 535 L39 0 L173 0 L173 546 C173 555.332 174.167 564.666 176.5 574 C178.833 583.333 182.833 591.833 188.5 599.5 C194.167 607.167 201.5 613.333 210.5 618 C219.5 622.667 230.667 625 244 625 C267.333 625 285.333 618.5 298 605.5 C310.667 592.5 317 575 317 553 C317 532.333 310.167 515 296.5 501 C282.833 487 265 480 243 480 L227 480 L227 371 L238 371 C255.333 371 271.833 368.167 287.5 362.5 C303.167 356.833 317 348.5 329 337.5 C341 326.5 350.5 313 357.5 297 C364.5 281 368 262.667 368 242 C367.333 199.333 354.333 167.167 329 145.5 C303.667 123.833 273.667 112.667 239 112 L227 112 Z " />
<glyph glyph-name="agrave" unicode="&#xe0;" horiz-adv-x="469" d="M21 175 C21 147 25.6667 121.833 35 99.5 C44.3333 77.1667 57.3333 58.1667 74 42.5 C90.6666 26.8333 110.333 14.6667 133 6 C155.667 -2.66667 180.333 -7 207 -7 C238.333 -7 263.167 -2.16667 281.5 7.5 C299.833 17.1667 312.667 26 320 34 L320 0 L432 0 L432 337 C432 367 428.667 394.5 422 419.5 C415.333 444.5 404.167 466 388.5 484 C372.833 502 352.167 516 326.5 526 C300.833 536 268.667 541 230 541 C166.667 541 119.5 525.667 88.5 495 C57.5 464.333 41.3333 423.667 40 373 L165 373 C165 380.333 166 387.667 168 395 C170 402.333 173.5 409 178.5 415 C183.5 421 190.167 425.833 198.5 429.5 C206.833 433.167 217.333 435 230 435 C255.333 435 273.333 427.667 284 413 C294.667 398.333 300 379.333 300 356 L300 329 C292.667 333.667 281 338.5 265 343.5 C249 348.5 229 351 205 351 C177 351 151.667 346.5 129 337.5 C106.333 328.5 87 316.167 71 300.5 C55 284.833 42.6667 266.167 34 244.5 C25.3333 222.833 21 199.667 21 175 L21 175 Z M147 176 C147 197.333 154 215.333 168 230 C182 244.667 200.667 252 224 252 C246.667 252 265.333 245 280 231 C294.667 217 302 198.667 302 176 C302 153.333 294.667 134.833 280 120.5 C265.333 106.167 247 99 225 99 C201.667 99 182.833 106.167 168.5 120.5 C154.167 134.833 147 153.333 147 176 L147 176 Z M226 710 L95 710 L176 572 L302 572 L226 710 Z " />
<glyph glyph-name="aacute" unicode="&#xe1;" horiz-adv-x="469" d="M21 175 C21 147 25.6667 121.833 35 99.5 C44.3333 77.1667 57.3333 58.1667 74 42.5 C90.6666 26.8333 110.333 14.6667 133 6 C155.667 -2.66667 180.333 -7 207 -7 C238.333 -7 263.167 -2.16667 281.5 7.5 C299.833 17.1667 312.667 26 320 34 L320 0 L432 0 L432 337 C432 367 428.667 394.5 422 419.5 C415.333 444.5 404.167 466 388.5 484 C372.833 502 352.167 516 326.5 526 C300.833 536 268.667 541 230 541 C166.667 541 119.5 525.667 88.5 495 C57.5 464.333 41.3333 423.667 40 373 L165 373 C165 380.333 166 387.667 168 395 C170 402.333 173.5 409 178.5 415 C183.5 421 190.167 425.833 198.5 429.5 C206.833 433.167 217.333 435 230 435 C255.333 435 273.333 427.667 284 413 C294.667 398.333 300 379.333 300 356 L300 329 C292.667 333.667 281 338.5 265 343.5 C249 348.5 229 351 205 351 C177 351 151.667 346.5 129 337.5 C106.333 328.5 87 316.167 71 300.5 C55 284.833 42.6667 266.167 34 244.5 C25.3333 222.833 21 199.667 21 175 L21 175 Z M147 176 C147 197.333 154 215.333 168 230 C182 244.667 200.667 252 224 252 C246.667 252 265.333 245 280 231 C294.667 217 302 198.667 302 176 C302 153.333 294.667 134.833 280 120.5 C265.333 106.167 247 99 225 99 C201.667 99 182.833 106.167 168.5 120.5 C154.167 134.833 147 153.333 147 176 L147 176 Z M382 710 L251 710 L175 572 L301 572 L382 710 Z " />
<glyph glyph-name="acircumflex" unicode="&#xe2;" horiz-adv-x="469" d="M21 175 C21 147 25.6667 121.833 35 99.5 C44.3333 77.1667 57.3333 58.1667 74 42.5 C90.6666 26.8333 110.333 14.6667 133 6 C155.667 -2.66667 180.333 -7 207 -7 C238.333 -7 263.167 -2.16667 281.5 7.5 C299.833 17.1667 312.667 26 320 34 L320 0 L432 0 L432 337 C432 367 428.667 394.5 422 419.5 C415.333 444.5 404.167 466 388.5 484 C372.833 502 352.167 516 326.5 526 C300.833 536 268.667 541 230 541 C166.667 541 119.5 525.667 88.5 495 C57.5 464.333 41.3333 423.667 40 373 L165 373 C165 380.333 166 387.667 168 395 C170 402.333 173.5 409 178.5 415 C183.5 421 190.167 425.833 198.5 429.5 C206.833 433.167 217.333 435 230 435 C255.333 435 273.333 427.667 284 413 C294.667 398.333 300 379.333 300 356 L300 329 C292.667 333.667 281 338.5 265 343.5 C249 348.5 229 351 205 351 C177 351 151.667 346.5 129 337.5 C106.333 328.5 87 316.167 71 300.5 C55 284.833 42.6667 266.167 34 244.5 C25.3333 222.833 21 199.667 21 175 L21 175 Z M147 176 C147 197.333 154 215.333 168 230 C182 244.667 200.667 252 224 252 C246.667 252 265.333 245 280 231 C294.667 217 302 198.667 302 176 C302 153.333 294.667 134.833 280 120.5 C265.333 106.167 247 99 225 99 C201.667 99 182.833 106.167 168.5 120.5 C154.167 134.833 147 153.333 147 176 L147 176 Z M301 712 L167 712 L71 570 L188 570 L234 632 L280 570 L397 570 L301 712 Z " />
<glyph glyph-name="atilde" unicode="&#xe3;" horiz-adv-x="469" d="M21 175 C21 147 25.6667 121.833 35 99.5 C44.3333 77.1667 57.3333 58.1667 74 42.5 C90.6666 26.8333 110.333 14.6667 133 6 C155.667 -2.66667 180.333 -7 207 -7 C238.333 -7 263.167 -2.16667 281.5 7.5 C299.833 17.1667 312.667 26 320 34 L320 0 L432 0 L432 337 C432 367 428.667 394.5 422 419.5 C415.333 444.5 404.167 466 388.5 484 C372.833 502 352.167 516 326.5 526 C300.833 536 268.667 541 230 541 C166.667 541 119.5 525.667 88.5 495 C57.5 464.333 41.3333 423.667 40 373 L165 373 C165 380.333 166 387.667 168 395 C170 402.333 173.5 409 178.5 415 C183.5 421 190.167 425.833 198.5 429.5 C206.833 433.167 217.333 435 230 435 C255.333 435 273.333 427.667 284 413 C294.667 398.333 300 379.333 300 356 L300 329 C292.667 333.667 281 338.5 265 343.5 C249 348.5 229 351 205 351 C177 351 151.667 346.5 129 337.5 C106.333 328.5 87 316.167 71 300.5 C55 284.833 42.6667 266.167 34 244.5 C25.3333 222.833 21 199.667 21 175 L21 175 Z M147 176 C147 197.333 154 215.333 168 230 C182 244.667 200.667 252 224 252 C246.667 252 265.333 245 280 231 C294.667 217 302 198.667 302 176 C302 153.333 294.667 134.833 280 120.5 C265.333 106.167 247 99 225 99 C201.667 99 182.833 106.167 168.5 120.5 C154.167 134.833 147 153.333 147 176 L147 176 Z M292 572 C326 572 352.5 584.167 371.5 608.5 C390.5 632.833 399.333 665.333 398 706 L303 706 C303 682.667 294.667 671 278 671 C270.667 671 263.667 672.833 257 676.5 C250.333 680.167 243.333 684 236 688 C228.667 692 220.333 695.833 211 699.5 C201.667 703.167 190.333 705 177 705 C141.667 705 114.5 692.333 95.5 667 C76.5 641.667 67.6667 610 69 572 L164 572 C164 594.667 172.667 606 190 606 C197.333 606 204.5 604.167 211.5 600.5 C218.5 596.833 226 593 234 589 C242 585 250.667 581.167 260 577.5 C269.333 573.833 280 572 292 572 L292 572 Z " />
<glyph glyph-name="adieresis" unicode="&#xe4;" horiz-adv-x="469" d="M21 175 C21 147 25.6667 121.833 35 99.5 C44.3333 77.1667 57.3333 58.1667 74 42.5 C90.6666 26.8333 110.333 14.6667 133 6 C155.667 -2.66667 180.333 -7 207 -7 C238.333 -7 263.167 -2.16667 281.5 7.5 C299.833 17.1667 312.667 26 320 34 L320 0 L432 0 L432 337 C432 367 428.667 394.5 422 419.5 C415.333 444.5 404.167 466 388.5 484 C372.833 502 352.167 516 326.5 526 C300.833 536 268.667 541 230 541 C166.667 541 119.5 525.667 88.5 495 C57.5 464.333 41.3333 423.667 40 373 L165 373 C165 380.333 166 387.667 168 395 C170 402.333 173.5 409 178.5 415 C183.5 421 190.167 425.833 198.5 429.5 C206.833 433.167 217.333 435 230 435 C255.333 435 273.333 427.667 284 413 C294.667 398.333 300 379.333 300 356 L300 329 C292.667 333.667 281 338.5 265 343.5 C249 348.5 229 351 205 351 C177 351 151.667 346.5 129 337.5 C106.333 328.5 87 316.167 71 300.5 C55 284.833 42.6667 266.167 34 244.5 C25.3333 222.833 21 199.667 21 175 L21 175 Z M147 176 C147 197.333 154 215.333 168 230 C182 244.667 200.667 252 224 252 C246.667 252 265.333 245 280 231 C294.667 217 302 198.667 302 176 C302 153.333 294.667 134.833 280 120.5 C265.333 106.167 247 99 225 99 C201.667 99 182.833 106.167 168.5 120.5 C154.167 134.833 147 153.333 147 176 L147 176 Z M141 573 C161.667 573 179.333 580 194 594 C208.667 608 216 625.667 216 647 C216 667.667 208.833 684.833 194.5 698.5 C180.167 712.167 162.333 719 141 719 C119.667 719 102 712 88 698 C74 684 67 667 67 647 C67 625.667 74 608 88 594 C102 580 119.667 573 141 573 L141 573 Z M324 573 C345.333 573 363.333 580 378 594 C392.667 608 400 625.667 400 647 C400 667.667 392.833 684.833 378.5 698.5 C364.167 712.167 346 719 324 719 C303.333 719 286 712 272 698 C258 684 251 667 251 647 C251 625.667 258 608 272 594 C286 580 303.333 573 324 573 L324 573 Z " />
<glyph glyph-name="aring" unicode="&#xe5;" horiz-adv-x="469" d="M21 175 C21 147 25.6667 121.833 35 99.5 C44.3333 77.1667 57.3333 58.1667 74 42.5 C90.6666 26.8333 110.333 14.6667 133 6 C155.667 -2.66667 180.333 -7 207 -7 C238.333 -7 263.167 -2.16667 281.5 7.5 C299.833 17.1667 312.667 26 320 34 L320 0 L432 0 L432 337 C432 367 428.667 394.5 422 419.5 C415.333 444.5 404.167 466 388.5 484 C372.833 502 352.167 516 326.5 526 C300.833 536 268.667 541 230 541 C166.667 541 119.5 525.667 88.5 495 C57.5 464.333 41.3333 423.667 40 373 L165 373 C165 380.333 166 387.667 168 395 C170 402.333 173.5 409 178.5 415 C183.5 421 190.167 425.833 198.5 429.5 C206.833 433.167 217.333 435 230 435 C255.333 435 273.333 427.667 284 413 C294.667 398.333 300 379.333 300 356 L300 329 C292.667 333.667 281 338.5 265 343.5 C249 348.5 229 351 205 351 C177 351 151.667 346.5 129 337.5 C106.333 328.5 87 316.167 71 300.5 C55 284.833 42.6667 266.167 34 244.5 C25.3333 222.833 21 199.667 21 175 L21 175 Z M147 176 C147 197.333 154 215.333 168 230 C182 244.667 200.667 252 224 252 C246.667 252 265.333 245 280 231 C294.667 217 302 198.667 302 176 C302 153.333 294.667 134.833 280 120.5 C265.333 106.167 247 99 225 99 C201.667 99 182.833 106.167 168.5 120.5 C154.167 134.833 147 153.333 147 176 L147 176 Z M122 664 C122 634 132.167 609.167 152.5 589.5 C172.833 569.833 199 560 231 560 C264.333 560 291 570 311 590 C331 610 341 635.333 341 666 C341 696 331 721 311 741 C291 761 264 771 230 771 C198.667 771 172.833 760.833 152.5 740.5 C132.167 720.167 122 694.667 122 664 L122 664 Z M187 666 C187 679.328 191 690.161 199 698.5 C207 706.833 217.667 711 231 711 C245 711 256 706.833 264 698.5 C272 690.167 276 679.333 276 666 C276 652.667 272 641.5 264 632.5 C256 623.5 245.333 619 232 619 C218.667 619 207.833 623.5 199.5 632.5 C191.167 641.5 187 652.667 187 666 L187 666 Z " />
<glyph glyph-name="ae" unicode="&#xe6;" horiz-adv-x="831" d="M566 -8 C598 -8 626.833 -4 652.5 4 C678.167 12 700.5 22.6667 719.5 36 C738.5 49.3333 754.667 64.5 768 81.5 C781.333 98.5 792 115.667 800 133 L697 191 C685.667 169.667 669.5 150.833 648.5 134.5 C627.5 118.167 600 110 566 110 C546 110 528 113 512 119 C496 125 482.167 133.167 470.5 143.5 C458.833 153.833 449.833 166 443.5 180 C437.167 194 433.667 208.667 433 224 L814 224 C814.667 232.667 815.167 242.5 815.5 253.5 C815.833 264.5 816 273 816 279 C816 319 809.833 355.167 797.5 387.5 C785.167 419.833 767.667 447.5 745 470.5 C722.333 493.5 695 511.333 663 524 C631 536.667 595 543 555 543 C513 543 477.5 535.667 448.5 521 C419.5 506.333 397.333 489.667 382 471 C368.667 492.333 349.834 509.333 325.5 522 C301.167 534.667 269.667 541 231 541 C167.667 541 120.5 525.667 89.5 495 C58.5 464.333 42.3333 423.667 41 373 L166 373 C166 387.667 170.667 401.667 180 415 C189.333 428.333 206 435 230 435 C255.333 435 273.167 427.5 283.5 412.5 C293.833 397.5 299 378.667 299 356 L299 324 C290.333 330.667 278 336.5 262 341.5 C246 346.5 227 349 205 349 C177 349 151.667 344.667 129 336 C106.333 327.333 87 315.167 71 299.5 C55 283.833 42.6667 265 34 243 C25.3333 221 21 197 21 171 C21 143 25.8333 118 35.5 96 C45.1667 74 58.6667 55.1667 76 39.5 C93.3333 23.8333 114 11.8333 138 3.5 C162 -4.83333 188.333 -9 217 -9 C239 -9 258.167 -6.5 274.5 -1.5 C290.833 3.5 305.167 10 317.5 18 C329.833 26 340.167 34.6667 348.5 44 C356.833 53.3333 363.667 62.3333 369 71 C392.333 45.6667 420.667 26.1667 454 12.5 C487.333 -1.16667 524.667 -8 566 -8 L566 -8 Z M554 431 C590 431 618.833 420.667 640.5 400 C662.167 379.333 674 353 676 321 L436 321 C437.333 335.667 441 349.667 447 363 C453 376.333 461 388 471 398 C481 408 492.833 416 506.5 422 C520.167 428 536 431 554 431 L554 431 Z M147 177 C147 198.333 154 216.333 168 231 C182 245.667 200.667 253 224 253 C246.667 253 265.333 246 280 232 C294.667 218 302 199.667 302 177 C302 154.333 294.667 135.833 280 121.5 C265.333 107.167 247 100 225 100 C201.667 100 182.833 107.167 168.5 121.5 C154.167 135.833 147 154.333 147 177 L147 177 Z " />
<glyph glyph-name="ccedilla" unicode="&#xe7;" horiz-adv-x="488" d="M212 -259 L232 -259 C274 -259 306.833 -249 330.5 -229 C354.167 -209 366 -180.333 366 -143 C366 -118.333 360.333 -96.3333 349 -77 C337.667 -57.6667 317.334 -44 288 -36 L288 -9 L296 -9 C318.666 -9 339.833 -6.66667 359.5 -2 C379.167 2.66667 396.667 8.66667 412 16 C427.333 23.3333 441 31.3333 453 40 C465 48.6667 475 57.3333 483 66 L409 156 C397 146 382.167 136.167 364.5 126.5 C346.833 116.833 324.333 112 297 112 C277.667 112 259.334 115.5 242 122.5 C224.667 129.5 209.333 139.833 196 153.5 C182.667 167.167 172.167 183.5 164.5 202.5 C156.833 221.5 153 243 153 267 C153 289 156.333 309.5 163 328.5 C169.667 347.5 179.167 364 191.5 378 C203.833 392 218.833 403 236.5 411 C254.167 419 274 423 296 423 C322.666 423 344.833 418.333 362.5 409 C380.167 399.667 394.667 389.667 406 379 L483 472 C475 480 465.333 488.333 454 497 C442.667 505.667 429.167 513.5 413.5 520.5 C397.833 527.5 380.167 533.167 360.5 537.5 C340.833 541.833 319 544 295 544 C255 544 218.167 536.833 184.5 522.5 C150.833 508.167 121.667 488.5 97 463.5 C72.3333 438.5 53.1667 409 39.5 375 C25.8333 341 19 304.667 19 266 C19 234 23.5 203.833 32.5 175.5 C41.5 147.167 54.1667 121.5 70.5 98.5 C86.8333 75.5 107 55.6667 131 39 C155 22.3333 182 10 212 2 L212 -105 L233 -105 C246.333 -105 257 -108.167 265 -114.5 C273 -120.833 277 -130.333 277 -143 C277 -157 273 -167 265 -173 C257 -179 246.333 -182.333 233 -183 L212 -183 L212 -259 Z " />
<glyph glyph-name="egrave" unicode="&#xe8;" horiz-adv-x="560" d="M160 224 L542 224 C543.333 235.333 544 245.667 544 255 L544 279 C544 319 537.833 355.333 525.5 388 C513.167 420.667 495.667 448.5 473 471.5 C450.333 494.5 422.833 512.333 390.5 525 C358.167 537.667 322 544 282 544 C243.333 544 207.833 537 175.5 523 C143.167 509 115.5 489.667 92.5 465 C69.5 440.333 51.5 411 38.5 377 C25.5 343 19 306 19 266 C19 223.333 25.6667 185 39 151 C52.3333 117 71 88.1667 95 64.5 C119 40.8333 147.833 22.6667 181.5 10 C215.167 -2.66667 252.333 -9 293 -9 C325.667 -9 354.667 -4.83333 380 3.5 C405.333 11.8333 427.5 22.5 446.5 35.5 C465.5 48.5 481.667 63.3333 495 80 C508.333 96.6666 519 113.333 527 130 L428 190 C414 168 396.5 149.167 375.5 133.5 C354.5 117.833 327 110 293 110 C255 110 224.167 120 200.5 140 C176.833 160 163.333 188 160 224 L160 224 Z M281 431 C317.667 431 346.667 420.833 368 400.5 C389.333 380.167 401.667 355 405 325 L163 325 C166.333 355.667 178.333 381 199 401 C219.667 421 247 431 281 431 L281 431 Z M275 710 L144 710 L225 572 L351 572 L275 710 Z " />
<glyph glyph-name="eacute" unicode="&#xe9;" horiz-adv-x="560" d="M160 224 L542 224 C543.333 235.333 544 245.667 544 255 L544 279 C544 319 537.833 355.333 525.5 388 C513.167 420.667 495.667 448.5 473 471.5 C450.333 494.5 422.833 512.333 390.5 525 C358.167 537.667 322 544 282 544 C243.333 544 207.833 537 175.5 523 C143.167 509 115.5 489.667 92.5 465 C69.5 440.333 51.5 411 38.5 377 C25.5 343 19 306 19 266 C19 223.333 25.6667 185 39 151 C52.3333 117 71 88.1667 95 64.5 C119 40.8333 147.833 22.6667 181.5 10 C215.167 -2.66667 252.333 -9 293 -9 C325.667 -9 354.667 -4.83333 380 3.5 C405.333 11.8333 427.5 22.5 446.5 35.5 C465.5 48.5 481.667 63.3333 495 80 C508.333 96.6666 519 113.333 527 130 L428 190 C414 168 396.5 149.167 375.5 133.5 C354.5 117.833 327 110 293 110 C255 110 224.167 120 200.5 140 C176.833 160 163.333 188 160 224 L160 224 Z M281 431 C317.667 431 346.667 420.833 368 400.5 C389.333 380.167 401.667 355 405 325 L163 325 C166.333 355.667 178.333 381 199 401 C219.667 421 247 431 281 431 L281 431 Z M428 710 L297 710 L221 572 L347 572 L428 710 Z " />
<glyph glyph-name="ecircumflex" unicode="&#xea;" horiz-adv-x="560" d="M160 224 L542 224 C543.333 235.333 544 245.667 544 255 L544 279 C544 319 537.833 355.333 525.5 388 C513.167 420.667 495.667 448.5 473 471.5 C450.333 494.5 422.833 512.333 390.5 525 C358.167 537.667 322 544 282 544 C243.333 544 207.833 537 175.5 523 C143.167 509 115.5 489.667 92.5 465 C69.5 440.333 51.5 411 38.5 377 C25.5 343 19 306 19 266 C19 223.333 25.6667 185 39 151 C52.3333 117 71 88.1667 95 64.5 C119 40.8333 147.833 22.6667 181.5 10 C215.167 -2.66667 252.333 -9 293 -9 C325.667 -9 354.667 -4.83333 380 3.5 C405.333 11.8333 427.5 22.5 446.5 35.5 C465.5 48.5 481.667 63.3333 495 80 C508.333 96.6666 519 113.333 527 130 L428 190 C414 168 396.5 149.167 375.5 133.5 C354.5 117.833 327 110 293 110 C255 110 224.167 120 200.5 140 C176.833 160 163.333 188 160 224 L160 224 Z M281 431 C317.667 431 346.667 420.833 368 400.5 C389.333 380.167 401.667 355 405 325 L163 325 C166.333 355.667 178.333 381 199 401 C219.667 421 247 431 281 431 L281 431 Z M347 712 L213 712 L117 570 L234 570 L280 632 L326 570 L443 570 L347 712 Z " />
<glyph glyph-name="edieresis" unicode="&#xeb;" horiz-adv-x="560" d="M160 224 L542 224 C543.333 235.333 544 245.667 544 255 L544 279 C544 319 537.833 355.333 525.5 388 C513.167 420.667 495.667 448.5 473 471.5 C450.333 494.5 422.833 512.333 390.5 525 C358.167 537.667 322 544 282 544 C243.333 544 207.833 537 175.5 523 C143.167 509 115.5 489.667 92.5 465 C69.5 440.333 51.5 411 38.5 377 C25.5 343 19 306 19 266 C19 223.333 25.6667 185 39 151 C52.3333 117 71 88.1667 95 64.5 C119 40.8333 147.833 22.6667 181.5 10 C215.167 -2.66667 252.333 -9 293 -9 C325.667 -9 354.667 -4.83333 380 3.5 C405.333 11.8333 427.5 22.5 446.5 35.5 C465.5 48.5 481.667 63.3333 495 80 C508.333 96.6666 519 113.333 527 130 L428 190 C414 168 396.5 149.167 375.5 133.5 C354.5 117.833 327 110 293 110 C255 110 224.167 120 200.5 140 C176.833 160 163.333 188 160 224 L160 224 Z M281 431 C317.667 431 346.667 420.833 368 400.5 C389.333 380.167 401.667 355 405 325 L163 325 C166.333 355.667 178.333 381 199 401 C219.667 421 247 431 281 431 L281 431 Z M190 573 C210.667 573 228.333 580 243 594 C257.667 608 265 625.667 265 647 C265 667.667 257.833 684.833 243.5 698.5 C229.167 712.167 211.333 719 190 719 C168.667 719 151 712 137 698 C123 684 116 667 116 647 C116 625.667 123 608 137 594 C151 580 168.667 573 190 573 L190 573 Z M373 573 C394.333 573 412.333 580 427 594 C441.667 608 449 625.667 449 647 C449 667.667 441.833 684.833 427.5 698.5 C413.167 712.167 395 719 373 719 C352.333 719 335 712 321 698 C307 684 300 667 300 647 C300 625.667 307 608 321 594 C335 580 352.333 573 373 573 L373 573 Z " />
<glyph glyph-name="igrave" unicode="&#xec;" horiz-adv-x="212" d="M173 0 L173 535 L39 535 L39 0 L173 0 Z M94 710 L-37 710 L44 572 L170 572 L94 710 Z " />
<glyph glyph-name="iacute" unicode="&#xed;" horiz-adv-x="212" d="M173 0 L173 535 L39 535 L39 0 L173 0 Z M253 710 L122 710 L46 572 L172 572 L253 710 Z " />
<glyph glyph-name="icircumflex" unicode="&#xee;" horiz-adv-x="212" d="M173 712 L39 712 L-53 570 L63 570 L106 632 L149 570 L266 570 L173 712 Z M173 0 L173 535 L39 535 L39 0 L173 0 Z " />
<glyph glyph-name="idieresis" unicode="&#xef;" horiz-adv-x="212" d="M17 573 C37.6667 573 55.3333 580 70 594 C84.6667 608 92 625.667 92 647 C92 667.667 84.8333 684.833 70.5 698.5 C56.1667 712.167 38.3333 719 17 719 C-4.33333 719 -22 712 -36 698 C-50 684 -57 667 -57 647 C-57 625.667 -50 608 -36 594 C-22 580 -4.33333 573 17 573 L17 573 Z M194 573 C215.333 573 233.333 580 248 594 C262.667 608 270 625.667 270 647 C270 667.667 262.833 684.833 248.5 698.5 C234.167 712.167 216 719 194 719 C173.333 719 156 712 142 698 C128 684 121 667 121 647 C121 625.667 128 608 142 594 C156 580 173.333 573 194 573 L194 573 Z M173 0 L173 535 L39 535 L39 0 L173 0 Z " />
<glyph glyph-name="eth" unicode="&#xf0;" horiz-adv-x="598" d="M318 694 L285 731 L133 731 L192 660 L115 639 L140 546 L259 578 L299 531 C295 532.333 290.667 533 286 533 C250.667 532.333 216.833 526 184.5 514 C152.167 502 123.833 484.667 99.5 462 C75.1667 439.333 55.6667 411.5 41 378.5 C26.3333 345.5 19 307.667 19 265 C19 224.333 26 187.167 40 153.5 C54 119.833 73.5 91 98.5 67 C123.5 43 153.5 24.3333 188.5 11 C223.5 -2.33333 261.667 -9 303 -9 C344.333 -9 381.833 -1.83333 415.5 12.5 C449.167 26.8333 478 46.6667 502 72 C526 97.3333 544.667 127.333 558 162 C571.333 196.667 578 234 578 274 C578 324.667 567.667 370.333 547 411 C526.334 451.666 498.001 492.333 462 533 L390 613 L447 629 L422 722 L318 694 Z M153 266 C153 288 156.5 308.5 163.5 327.5 C170.5 346.5 180.167 363 192.5 377 C204.833 391 220 401.833 238 409.5 C256 417.167 276 421 298 421 C320 421 339.833 417.167 357.5 409.5 C375.167 401.833 390.5 391 403.5 377 C416.5 363 426.5 346.5 433.5 327.5 C440.5 308.5 444 288 444 266 C444 244 440.667 223.5 434 204.5 C427.333 185.5 417.667 169.167 405 155.5 C392.333 141.833 377 131.167 359 123.5 C341 115.833 321 112 299 112 C277.667 112 258.167 115.833 240.5 123.5 C222.833 131.167 207.5 141.833 194.5 155.5 C181.5 169.167 171.333 185.333 164 204 C156.667 222.667 153 243.333 153 266 L153 266 Z " />
<glyph glyph-name="ntilde" unicode="&#xf1;" horiz-adv-x="490" d="M319 337 L319 0 L453 0 L453 353 C453 379 450.167 403.333 444.5 426 C438.833 448.667 429.5 468.5 416.5 485.5 C403.5 502.5 386.333 516 365 526 C343.667 536 317.334 541 286 541 C269.333 541 254.667 539.333 242 536 C229.333 532.667 218.5 528.667 209.5 524 C200.5 519.333 193 514.333 187 509 C181 503.667 176.333 499 173 495 L173 535 L39 535 L39 0 L173 0 L173 337 C173 362.333 179.333 382.833 192 398.5 C204.667 414.167 223 422 247 422 C271.666 422 289.833 414.333 301.5 399 C313.167 383.667 319 363 319 337 L319 337 Z M301 572 C335 572 361.5 584.167 380.5 608.5 C399.5 632.833 408.333 665.333 407 706 L312 706 C312 682.667 303.667 671 287 671 C279.667 671 272.667 672.833 266 676.5 C259.333 680.167 252.333 684 245 688 C237.667 692 229.333 695.833 220 699.5 C210.667 703.167 199.333 705 186 705 C150.667 705 123.5 692.333 104.5 667 C85.5 641.667 76.6667 610 78 572 L173 572 C173 594.667 181.667 606 199 606 C206.333 606 213.5 604.167 220.5 600.5 C227.5 596.833 235 593 243 589 C251 585 259.667 581.167 269 577.5 C278.333 573.833 289 572 301 572 L301 572 Z " />
<glyph glyph-name="ograve" unicode="&#xf2;" horiz-adv-x="597" d="M153 267 C153 289.667 156.5 310.5 163.5 329.5 C170.5 348.5 180.167 365 192.5 379 C204.833 393 220 403.833 238 411.5 C256 419.167 276 423 298 423 C319.333 423 339 419 357 411 C375 403 390.5 392 403.5 378 C416.5 364 426.5 347.5 433.5 328.5 C440.5 309.5 444 289 444 267 C444 245 440.5 224.5 433.5 205.5 C426.5 186.5 416.833 170 404.5 156 C392.167 142 377 131.167 359 123.5 C341 115.833 321 112 299 112 C277.667 112 258 115.833 240 123.5 C222 131.167 206.5 141.833 193.5 155.5 C180.5 169.167 170.5 185.5 163.5 204.5 C156.5 223.5 153 244.333 153 267 L153 267 Z M19 266 C19 226.667 25.6667 190.167 39 156.5 C52.3333 122.833 71.3333 93.6667 96 69 C120.667 44.3333 150 25.1667 184 11.5 C218 -2.16667 256 -9 298 -9 C339.333 -9 377.167 -2 411.5 12 C445.833 26 475.333 45.5 500 70.5 C524.667 95.5 543.833 124.833 557.5 158.5 C571.167 192.167 578 228.667 578 268 C578 307.333 571.333 343.833 558 377.5 C544.667 411.166 525.833 440.333 501.5 465 C477.167 489.667 447.667 509 413 523 C378.333 537 340 544 298 544 C258 544 220.833 537 186.5 523 C152.167 509 122.667 489.5 98 464.5 C73.3333 439.5 54 410.167 40 376.5 C26 342.833 19 306 19 266 L19 266 Z M292 710 L161 710 L242 572 L368 572 L292 710 Z " />
<glyph glyph-name="oacute" unicode="&#xf3;" horiz-adv-x="597" d="M153 267 C153 289.667 156.5 310.5 163.5 329.5 C170.5 348.5 180.167 365 192.5 379 C204.833 393 220 403.833 238 411.5 C256 419.167 276 423 298 423 C319.333 423 339 419 357 411 C375 403 390.5 392 403.5 378 C416.5 364 426.5 347.5 433.5 328.5 C440.5 309.5 444 289 444 267 C444 245 440.5 224.5 433.5 205.5 C426.5 186.5 416.833 170 404.5 156 C392.167 142 377 131.167 359 123.5 C341 115.833 321 112 299 112 C277.667 112 258 115.833 240 123.5 C222 131.167 206.5 141.833 193.5 155.5 C180.5 169.167 170.5 185.5 163.5 204.5 C156.5 223.5 153 244.333 153 267 L153 267 Z M19 266 C19 226.667 25.6667 190.167 39 156.5 C52.3333 122.833 71.3333 93.6667 96 69 C120.667 44.3333 150 25.1667 184 11.5 C218 -2.16667 256 -9 298 -9 C339.333 -9 377.167 -2 411.5 12 C445.833 26 475.333 45.5 500 70.5 C524.667 95.5 543.833 124.833 557.5 158.5 C571.167 192.167 578 228.667 578 268 C578 307.333 571.333 343.833 558 377.5 C544.667 411.166 525.833 440.333 501.5 465 C477.167 489.667 447.667 509 413 523 C378.333 537 340 544 298 544 C258 544 220.833 537 186.5 523 C152.167 509 122.667 489.5 98 464.5 C73.3333 439.5 54 410.167 40 376.5 C26 342.833 19 306 19 266 L19 266 Z M442 710 L311 710 L235 572 L361 572 L442 710 Z " />
<glyph glyph-name="ocircumflex" unicode="&#xf4;" horiz-adv-x="597" d="M153 267 C153 289.667 156.5 310.5 163.5 329.5 C170.5 348.5 180.167 365 192.5 379 C204.833 393 220 403.833 238 411.5 C256 419.167 276 423 298 423 C319.333 423 339 419 357 411 C375 403 390.5 392 403.5 378 C416.5 364 426.5 347.5 433.5 328.5 C440.5 309.5 444 289 444 267 C444 245 440.5 224.5 433.5 205.5 C426.5 186.5 416.833 170 404.5 156 C392.167 142 377 131.167 359 123.5 C341 115.833 321 112 299 112 C277.667 112 258 115.833 240 123.5 C222 131.167 206.5 141.833 193.5 155.5 C180.5 169.167 170.5 185.5 163.5 204.5 C156.5 223.5 153 244.333 153 267 L153 267 Z M19 266 C19 226.667 25.6667 190.167 39 156.5 C52.3333 122.833 71.3333 93.6667 96 69 C120.667 44.3333 150 25.1667 184 11.5 C218 -2.16667 256 -9 298 -9 C339.333 -9 377.167 -2 411.5 12 C445.833 26 475.333 45.5 500 70.5 C524.667 95.5 543.833 124.833 557.5 158.5 C571.167 192.167 578 228.667 578 268 C578 307.333 571.333 343.833 558 377.5 C544.667 411.166 525.833 440.333 501.5 465 C477.167 489.667 447.667 509 413 523 C378.333 537 340 544 298 544 C258 544 220.833 537 186.5 523 C152.167 509 122.667 489.5 98 464.5 C73.3333 439.5 54 410.167 40 376.5 C26 342.833 19 306 19 266 L19 266 Z M365 712 L231 712 L135 570 L252 570 L298 632 L344 570 L461 570 L365 712 Z " />
<glyph glyph-name="otilde" unicode="&#xf5;" horiz-adv-x="597" d="M153 267 C153 289.667 156.5 310.5 163.5 329.5 C170.5 348.5 180.167 365 192.5 379 C204.833 393 220 403.833 238 411.5 C256 419.167 276 423 298 423 C319.333 423 339 419 357 411 C375 403 390.5 392 403.5 378 C416.5 364 426.5 347.5 433.5 328.5 C440.5 309.5 444 289 444 267 C444 245 440.5 224.5 433.5 205.5 C426.5 186.5 416.833 170 404.5 156 C392.167 142 377 131.167 359 123.5 C341 115.833 321 112 299 112 C277.667 112 258 115.833 240 123.5 C222 131.167 206.5 141.833 193.5 155.5 C180.5 169.167 170.5 185.5 163.5 204.5 C156.5 223.5 153 244.333 153 267 L153 267 Z M19 266 C19 226.667 25.6667 190.167 39 156.5 C52.3333 122.833 71.3333 93.6667 96 69 C120.667 44.3333 150 25.1667 184 11.5 C218 -2.16667 256 -9 298 -9 C339.333 -9 377.167 -2 411.5 12 C445.833 26 475.333 45.5 500 70.5 C524.667 95.5 543.833 124.833 557.5 158.5 C571.167 192.167 578 228.667 578 268 C578 307.333 571.333 343.833 558 377.5 C544.667 411.166 525.833 440.333 501.5 465 C477.167 489.667 447.667 509 413 523 C378.333 537 340 544 298 544 C258 544 220.833 537 186.5 523 C152.167 509 122.667 489.5 98 464.5 C73.3333 439.5 54 410.167 40 376.5 C26 342.833 19 306 19 266 L19 266 Z M357 572 C391 572 417.5 584.167 436.5 608.5 C455.5 632.833 464.333 665.333 463 706 L368 706 C368 682.667 359.667 671 343 671 C335.667 671 328.667 672.833 322 676.5 C315.333 680.167 308.333 684 301 688 C293.668 692 285.334 695.833 276 699.5 C266.667 703.167 255.333 705 242 705 C206.667 705 179.5 692.333 160.5 667 C141.5 641.667 132.667 610 134 572 L229 572 C229 594.667 237.667 606 255 606 C262.333 606 269.5 604.167 276.5 600.5 C283.5 596.833 291 593 299 589 C307 585 315.667 581.167 325 577.5 C334.333 573.833 345 572 357 572 L357 572 Z " />
<glyph glyph-name="odieresis" unicode="&#xf6;" horiz-adv-x="597" d="M153 267 C153 289.667 156.5 310.5 163.5 329.5 C170.5 348.5 180.167 365 192.5 379 C204.833 393 220 403.833 238 411.5 C256 419.167 276 423 298 423 C319.333 423 339 419 357 411 C375 403 390.5 392 403.5 378 C416.5 364 426.5 347.5 433.5 328.5 C440.5 309.5 444 289 444 267 C444 245 440.5 224.5 433.5 205.5 C426.5 186.5 416.833 170 404.5 156 C392.167 142 377 131.167 359 123.5 C341 115.833 321 112 299 112 C277.667 112 258 115.833 240 123.5 C222 131.167 206.5 141.833 193.5 155.5 C180.5 169.167 170.5 185.5 163.5 204.5 C156.5 223.5 153 244.333 153 267 L153 267 Z M19 266 C19 226.667 25.6667 190.167 39 156.5 C52.3333 122.833 71.3333 93.6667 96 69 C120.667 44.3333 150 25.1667 184 11.5 C218 -2.16667 256 -9 298 -9 C339.333 -9 377.167 -2 411.5 12 C445.833 26 475.333 45.5 500 70.5 C524.667 95.5 543.833 124.833 557.5 158.5 C571.167 192.167 578 228.667 578 268 C578 307.333 571.333 343.833 558 377.5 C544.667 411.166 525.833 440.333 501.5 465 C477.167 489.667 447.667 509 413 523 C378.333 537 340 544 298 544 C258 544 220.833 537 186.5 523 C152.167 509 122.667 489.5 98 464.5 C73.3333 439.5 54 410.167 40 376.5 C26 342.833 19 306 19 266 L19 266 Z M205 573 C225.667 573 243.333 580 258 594 C272.667 608 280 625.667 280 647 C280 667.667 272.833 684.833 258.5 698.5 C244.167 712.167 226.333 719 205 719 C183.667 719 166 712 152 698 C138 684 131 667 131 647 C131 625.667 138 608 152 594 C166 580 183.667 573 205 573 L205 573 Z M388 573 C409.333 573 427.333 580 442 594 C456.667 608 464 625.667 464 647 C464 667.667 456.833 684.833 442.5 698.5 C428.167 712.167 410 719 388 719 C367.333 719 350 712 336 698 C322 684 315 667 315 647 C315 625.667 322 608 336 594 C350 580 367.333 573 388 573 L388 573 Z " />
<glyph glyph-name="divide" unicode="&#xf7;" horiz-adv-x="470" d="M235 84 C256.333 84 274.5 91.5 289.5 106.5 C304.5 121.5 312 139.667 312 161 C312 182.333 304.667 200.5 290 215.5 C275.333 230.5 257 238 235 238 C213.667 238 195.5 230.5 180.5 215.5 C165.5 200.5 158 182.333 158 161 C158 139.667 165.5 121.5 180.5 106.5 C195.5 91.5 213.667 84 235 84 L235 84 Z M235 433 C256.333 433 274.5 440.667 289.5 456 C304.5 471.333 312 489.667 312 511 C312 532.333 304.667 550.333 290 565 C275.333 579.667 257 587 235 587 C213.667 587 195.5 579.667 180.5 565 C165.5 550.333 158 532.333 158 511 C158 489.667 165.5 471.334 180.5 456 C195.5 440.667 213.667 433 235 433 L235 433 Z M27 393 L27 281 L442 281 L442 393 L27 393 Z " />
<glyph glyph-name="oslash" unicode="&#xf8;" horiz-adv-x="597" d="M19 267 C19 231 24.5 197.833 35.5 167.5 C46.5 137.167 61.6667 110.667 81 88 L42 43 L114 -19 L155 28 C172.333 16.6667 193.166 7.66667 217.5 1 C241.833 -5.66667 268.667 -9 298 -9 C339.333 -9 377.167 -2 411.5 12 C445.833 26 475.333 45.5 500 70.5 C524.667 95.5 543.833 124.833 557.5 158.5 C571.167 192.167 578 228.667 578 268 C578 303.333 572.5 336 561.5 366 C550.5 396 535.333 422.667 516 446 L553 489 L479 551 L441 507 C421.667 518.333 400 527.333 376 534 C352 540.667 326 544 298 544 C258 544 220.833 537 186.5 523 C152.167 509 122.667 489.667 98 465 C73.3333 440.333 54 411.167 40 377.5 C26 343.833 19 307 19 267 L19 267 Z M448 267 C448 243.667 444.5 222.167 437.5 202.5 C430.5 182.833 420.667 165.833 408 151.5 C395.333 137.167 379.667 126 361 118 C342.333 110 321.667 106 299 106 C275.667 106 254 110.667 234 120 L430 347 C442 323.667 448 297 448 267 L448 267 Z M149 267 C149 290.333 152.333 311.833 159 331.5 C165.667 351.166 175.5 368.333 188.5 383 C201.5 397.667 217.167 409 235.5 417 C253.833 425 274.667 429 298 429 C320.667 429 342 424.333 362 415 L166 187 C154.667 211 149 237.667 149 267 L149 267 Z " />
<glyph glyph-name="ugrave" unicode="&#xf9;" horiz-adv-x="487" d="M171 199 L171 535 L37 535 L37 183 C37 155.667 40 130.5 46 107.5 C52 84.5 61.6667 64.5 75 47.5 C88.3333 30.5 105.5 17.3333 126.5 8 C147.5 -1.33333 173 -6 203 -6 C234.333 -6 259 -0.666672 277 10 C295 20.6667 307.667 30.6667 315 40 L315 0 L448 0 L448 535 L314 535 L314 200 C314 174.667 307.667 154 295 138 C282.333 122 264 114 240 114 C216 114 198.5 121.667 187.5 137 C176.5 152.333 171 173 171 199 L171 199 Z M240 710 L109 710 L190 572 L316 572 L240 710 Z " />
<glyph glyph-name="uacute" unicode="&#xfa;" horiz-adv-x="487" d="M171 199 L171 535 L37 535 L37 183 C37 155.667 40 130.5 46 107.5 C52 84.5 61.6667 64.5 75 47.5 C88.3333 30.5 105.5 17.3333 126.5 8 C147.5 -1.33333 173 -6 203 -6 C234.333 -6 259 -0.666672 277 10 C295 20.6667 307.667 30.6667 315 40 L315 0 L448 0 L448 535 L314 535 L314 200 C314 174.667 307.667 154 295 138 C282.333 122 264 114 240 114 C216 114 198.5 121.667 187.5 137 C176.5 152.333 171 173 171 199 L171 199 Z M383 710 L252 710 L176 572 L302 572 L383 710 Z " />
<glyph glyph-name="ucircumflex" unicode="&#xfb;" horiz-adv-x="487" d="M171 199 L171 535 L37 535 L37 183 C37 155.667 40 130.5 46 107.5 C52 84.5 61.6667 64.5 75 47.5 C88.3333 30.5 105.5 17.3333 126.5 8 C147.5 -1.33333 173 -6 203 -6 C234.333 -6 259 -0.666672 277 10 C295 20.6667 307.667 30.6667 315 40 L315 0 L448 0 L448 535 L314 535 L314 200 C314 174.667 307.667 154 295 138 C282.333 122 264 114 240 114 C216 114 198.5 121.667 187.5 137 C176.5 152.333 171 173 171 199 L171 199 Z M310 712 L176 712 L80 570 L197 570 L243 632 L289 570 L406 570 L310 712 Z " />
<glyph glyph-name="udieresis" unicode="&#xfc;" horiz-adv-x="487" d="M171 199 L171 535 L37 535 L37 183 C37 155.667 40 130.5 46 107.5 C52 84.5 61.6667 64.5 75 47.5 C88.3333 30.5 105.5 17.3333 126.5 8 C147.5 -1.33333 173 -6 203 -6 C234.333 -6 259 -0.666672 277 10 C295 20.6667 307.667 30.6667 315 40 L315 0 L448 0 L448 535 L314 535 L314 200 C314 174.667 307.667 154 295 138 C282.333 122 264 114 240 114 C216 114 198.5 121.667 187.5 137 C176.5 152.333 171 173 171 199 L171 199 Z M149 573 C169.667 573 187.333 580 202 594 C216.667 608 224 625.667 224 647 C224 667.667 216.833 684.833 202.5 698.5 C188.167 712.167 170.333 719 149 719 C127.667 719 110 712 96 698 C82 684 75 667 75 647 C75 625.667 82 608 96 594 C110 580 127.667 573 149 573 L149 573 Z M332 573 C353.333 573 371.333 580 386 594 C400.667 608 408 625.667 408 647 C408 667.667 400.833 684.833 386.5 698.5 C372.167 712.167 354 719 332 719 C311.333 719 294 712 280 698 C266 684 259 667 259 647 C259 625.667 266 608 280 594 C294 580 311.333 573 332 573 L332 573 Z " />
<glyph glyph-name="yacute" unicode="&#xfd;" horiz-adv-x="530" d="M131 -175 L261 -175 L531 535 L393 535 L272 203 L147 535 L-1 535 L203 21 L131 -175 Z M408 710 L277 710 L201 572 L327 572 L408 710 Z " />
<glyph glyph-name="thorn" unicode="&#xfe;" horiz-adv-x="617" d="M169 267 C169 289.667 172.333 310.667 179 330 C185.667 349.333 195.333 366 208 380 C220.667 394 236 405 254 413 C272 421 292.333 425 315 425 C337.667 425 358 421 376 413 C394 405 409.5 394 422.5 380 C435.5 366 445.5 349.333 452.5 330 C459.5 310.667 463 289.667 463 267 C463 244.333 459.667 223.333 453 204 C446.333 184.667 436.667 168 424 154 C411.333 140 395.833 129.167 377.5 121.5 C359.167 113.833 338.667 110 316 110 C294 110 274 113.833 256 121.5 C238 129.167 222.5 140 209.5 154 C196.5 168 186.5 184.667 179.5 204 C172.5 223.333 169 244.333 169 267 L169 267 Z M173 -176 L173 42 C186.333 30.6667 205.833 19.3333 231.5 8 C257.166 -3.33333 287.333 -9 322 -9 C364.667 -9 403 -1.83333 437 12.5 C471 26.8333 500 46.5 524 71.5 C548 96.5 566.333 126 579 160 C591.667 194 598 230.333 598 269 C598 309 591.833 345.833 579.5 379.5 C567.167 413.167 549.5 442.167 526.5 466.5 C503.5 490.833 475.5 509.833 442.5 523.5 C409.5 537.167 372.333 544 331 544 C293 544 260.667 537.667 234 525 C207.333 512.334 187 499.334 173 486 L173 730 L39 730 L39 -176 L173 -176 Z " />
<glyph glyph-name="ydieresis" unicode="&#xff;" horiz-adv-x="530" d="M131 -175 L261 -175 L531 535 L393 535 L272 203 L147 535 L-1 535 L203 21 L131 -175 Z M179 573 C199.667 573 217.333 580 232 594 C246.667 608 254 625.667 254 647 C254 667.667 246.833 684.833 232.5 698.5 C218.167 712.167 200.333 719 179 719 C157.667 719 140 712 126 698 C112 684 105 667 105 647 C105 625.667 112 608 126 594 C140 580 157.667 573 179 573 L179 573 Z M362 573 C383.333 573 401.333 580 416 594 C430.667 608 438 625.667 438 647 C438 667.667 430.833 684.833 416.5 698.5 C402.167 712.167 384 719 362 719 C341.333 719 324 712 310 698 C296 684 289 667 289 647 C289 625.667 296 608 310 594 C324 580 341.333 573 362 573 L362 573 Z " />
<glyph glyph-name="Amacron" unicode="&#x100;" horiz-adv-x="648" d="M189 830 L189 731 L445 731 L445 830 L189 830 Z M437 190 L506 0 L653 0 L391 692 L245 692 L-5 0 L132 0 L200 190 L437 190 Z M243 308 L318 516 L394 308 L243 308 Z " />
<glyph glyph-name="amacron" unicode="&#x101;" horiz-adv-x="469" d="M21 175 C21 147 25.6667 121.833 35 99.5 C44.3333 77.1667 57.3333 58.1667 74 42.5 C90.6666 26.8333 110.333 14.6667 133 6 C155.667 -2.66667 180.333 -7 207 -7 C238.333 -7 263.167 -2.16667 281.5 7.5 C299.833 17.1667 312.667 26 320 34 L320 0 L432 0 L432 337 C432 367 428.667 394.5 422 419.5 C415.333 444.5 404.167 466 388.5 484 C372.833 502 352.167 516 326.5 526 C300.833 536 268.667 541 230 541 C166.667 541 119.5 525.667 88.5 495 C57.5 464.333 41.3333 423.667 40 373 L165 373 C165 380.333 166 387.667 168 395 C170 402.333 173.5 409 178.5 415 C183.5 421 190.167 425.833 198.5 429.5 C206.833 433.167 217.333 435 230 435 C255.333 435 273.333 427.667 284 413 C294.667 398.333 300 379.333 300 356 L300 329 C292.667 333.667 281 338.5 265 343.5 C249 348.5 229 351 205 351 C177 351 151.667 346.5 129 337.5 C106.333 328.5 87 316.167 71 300.5 C55 284.833 42.6667 266.167 34 244.5 C25.3333 222.833 21 199.667 21 175 L21 175 Z M147 176 C147 197.333 154 215.333 168 230 C182 244.667 200.667 252 224 252 C246.667 252 265.333 245 280 231 C294.667 217 302 198.667 302 176 C302 153.333 294.667 134.833 280 120.5 C265.333 106.167 247 99 225 99 C201.667 99 182.833 106.167 168.5 120.5 C154.167 134.833 147 153.333 147 176 L147 176 Z M112 683 L112 585 L354 585 L354 683 L112 683 Z " />
<glyph glyph-name="Abreve" unicode="&#x102;" horiz-adv-x="648" d="M317 723 C343 723 365.5 727 384.5 735 C403.5 743 419 753.333 431 766 C443 778.667 451.833 793 457.5 809 C463.167 825 466 841 466 857 L365 857 C365 846.333 361.167 836.5 353.5 827.5 C345.833 818.5 334 814 318 814 C301.333 814 289.333 818.5 282 827.5 C274.667 836.5 271 846.333 271 857 L169 857 C169 841 171.833 825 177.5 809 C183.167 793 192 778.667 204 766 C216 753.333 231.333 743 250 735 C268.667 727 291 723 317 723 L317 723 Z M437 190 L506 0 L653 0 L391 692 L245 692 L-5 0 L132 0 L200 190 L437 190 Z M243 308 L318 516 L394 308 L243 308 Z " />
<glyph glyph-name="abreve" unicode="&#x103;" horiz-adv-x="469" d="M21 175 C21 147 25.6667 121.833 35 99.5 C44.3333 77.1667 57.3333 58.1667 74 42.5 C90.6666 26.8333 110.333 14.6667 133 6 C155.667 -2.66667 180.333 -7 207 -7 C238.333 -7 263.167 -2.16667 281.5 7.5 C299.833 17.1667 312.667 26 320 34 L320 0 L432 0 L432 337 C432 367 428.667 394.5 422 419.5 C415.333 444.5 404.167 466 388.5 484 C372.833 502 352.167 516 326.5 526 C300.833 536 268.667 541 230 541 C166.667 541 119.5 525.667 88.5 495 C57.5 464.333 41.3333 423.667 40 373 L165 373 C165 380.333 166 387.667 168 395 C170 402.333 173.5 409 178.5 415 C183.5 421 190.167 425.833 198.5 429.5 C206.833 433.167 217.333 435 230 435 C255.333 435 273.333 427.667 284 413 C294.667 398.333 300 379.333 300 356 L300 329 C292.667 333.667 281 338.5 265 343.5 C249 348.5 229 351 205 351 C177 351 151.667 346.5 129 337.5 C106.333 328.5 87 316.167 71 300.5 C55 284.833 42.6667 266.167 34 244.5 C25.3333 222.833 21 199.667 21 175 L21 175 Z M147 176 C147 197.333 154 215.333 168 230 C182 244.667 200.667 252 224 252 C246.667 252 265.333 245 280 231 C294.667 217 302 198.667 302 176 C302 153.333 294.667 134.833 280 120.5 C265.333 106.167 247 99 225 99 C201.667 99 182.833 106.167 168.5 120.5 C154.167 134.833 147 153.333 147 176 L147 176 Z M230 564 C256 564 278.333 568.333 297 577 C315.667 585.667 331 596.833 343 610.5 C355 624.167 363.667 639.5 369 656.5 C374.333 673.5 377 690.333 377 707 L278 707 C278 693.667 274.333 681.667 267 671 C259.667 660.333 247.667 655 231 655 C214.333 655 202.333 660.333 195 671 C187.667 681.667 184 693.667 184 707 L84 707 C84 690.333 86.6667 673.5 92 656.5 C97.3333 639.5 105.833 624.167 117.5 610.5 C129.167 596.834 144.333 585.668 163 577 C181.667 568.333 204 564 230 564 L230 564 Z " />
<glyph glyph-name="Aogonek" unicode="&#x104;" horiz-adv-x="648" d="M437 190 L507 -2 C499.667 -10.6667 493.334 -20.6667 488 -32 C482.667 -43.3333 480 -57.3333 480 -74 C480 -88.6667 483.333 -102.5 490 -115.5 C496.667 -128.5 507.167 -139.667 521.5 -149 C535.833 -158.333 553.833 -165.5 575.5 -170.5 C597.167 -175.5 623 -177 653 -175 L653 -82 C639.667 -81.3333 628.333 -78 619 -72 C609.667 -66 605 -57 605 -45 C605 -35.6667 608.667 -26.6667 616 -18 C623.329 -9.33333 635.662 -3.33333 653 0 L391 692 L245 692 L-5 0 L132 0 L200 190 L437 190 Z M243 308 L318 516 L394 308 L243 308 Z " />
<glyph glyph-name="aogonek" unicode="&#x105;" horiz-adv-x="469" d="M21 175 C21 147 25.6667 121.833 35 99.5 C44.3333 77.1667 57.3333 58.1667 74 42.5 C90.6666 26.8333 110.333 14.6667 133 6 C155.667 -2.66667 180.333 -7 207 -7 C238.333 -7 263.167 -2.16667 281.5 7.5 C299.833 17.1667 312.667 26 320 34 L320 5 C299.333 -4.33333 284.167 -16.3333 274.5 -31 C264.833 -45.6667 260 -61.6667 260 -79 C260 -93.6667 263.333 -107.333 270 -120 C276.667 -132.667 287 -143.334 301 -152 C315 -160.667 332.833 -167.167 354.5 -171.5 C376.167 -175.833 402 -177.333 432 -176 L432 -82 C418.667 -82 407.5 -79 398.5 -73 C389.5 -67 385 -58 385 -46 C385 -36.6667 388.5 -27.6667 395.5 -19 C402.5 -10.3333 414.667 -4.33333 432 -1 L432 337 C432 367 428.667 394.5 422 419.5 C415.333 444.5 404.167 466 388.5 484 C372.833 502 352.167 516 326.5 526 C300.833 536 268.667 541 230 541 C166.667 541 119.5 525.667 88.5 495 C57.5 464.333 41.3333 423.667 40 373 L165 373 C165 380.333 166 387.667 168 395 C170 402.333 173.5 409 178.5 415 C183.5 421 190.167 425.833 198.5 429.5 C206.833 433.167 217.333 435 230 435 C255.333 435 273.333 427.667 284 413 C294.667 398.333 300 379.333 300 356 L300 329 C292.667 333.667 281 338.5 265 343.5 C249 348.5 229 351 205 351 C177 351 151.667 346.5 129 337.5 C106.333 328.5 87 316.167 71 300.5 C55 284.833 42.6667 266.167 34 244.5 C25.3333 222.833 21 199.667 21 175 L21 175 Z M147 176 C147 197.333 154 215.333 168 230 C182 244.667 200.667 252 224 252 C246.667 252 265.333 245 280 231 C294.667 217 302 198.667 302 176 C302 153.333 294.667 134.833 280 120.5 C265.333 106.167 247 99 225 99 C201.667 99 182.833 106.167 168.5 120.5 C154.167 134.833 147 153.333 147 176 L147 176 Z " />
<glyph glyph-name="Cacute" unicode="&#x106;" horiz-adv-x="627" d="M513 854 L380 854 L307 724 L436 724 L513 854 Z M614 78 L533 175 C518.334 162.333 498.834 149.5 474.5 136.5 C450.167 123.5 420.334 117 385 117 C352.333 117 322.667 122.833 296 134.5 C269.333 146.167 246.5 162.167 227.5 182.5 C208.5 202.833 193.833 227 183.5 255 C173.167 283 168 313.333 168 346 C168 378.667 172.833 409 182.5 437 C192.167 465 206.333 489.333 225 510 C243.667 530.667 266.333 546.833 293 558.5 C319.667 570.167 349.667 576 383 576 C415 576 443.5 570.167 468.5 558.5 C493.5 546.833 514 534 530 520 L612 624 C584 648.667 551.167 668.333 513.5 683 C475.833 697.667 432 705 382 705 C328 705 278.833 695.833 234.5 677.5 C190.167 659.167 152.333 633.833 121 601.5 C89.6667 569.167 65.3333 531 48 487 C30.6667 443 22 395.667 22 345 C22 293.667 30.5 246.167 47.5 202.5 C64.5 158.833 88.6667 121 120 89 C151.333 57 189.333 32 234 14 C278.667 -4 329 -13 385 -13 C435 -13 479 -4.33333 517 13 C555 30.3333 587.333 52 614 78 L614 78 Z " />
<glyph glyph-name="cacute" unicode="&#x107;" horiz-adv-x="488" d="M297 112 C277.667 112 259.334 115.5 242 122.5 C224.667 129.5 209.333 139.833 196 153.5 C182.667 167.167 172.167 183.5 164.5 202.5 C156.833 221.5 153 243 153 267 C153 289 156.333 309.5 163 328.5 C169.667 347.5 179.167 364 191.5 378 C203.833 392 218.833 403 236.5 411 C254.167 419 274 423 296 423 C322.666 423 344.833 418.333 362.5 409 C380.167 399.667 394.667 389.667 406 379 L483 472 C475 480 465.333 488.333 454 497 C442.667 505.667 429.167 513.5 413.5 520.5 C397.833 527.5 380.167 533.167 360.5 537.5 C340.833 541.833 319 544 295 544 C255 544 218.167 536.833 184.5 522.5 C150.833 508.167 121.667 488.5 97 463.5 C72.3333 438.5 53.1667 409 39.5 375 C25.8333 341 19 304.667 19 266 C19 227.333 25.5 191.167 38.5 157.5 C51.5 123.833 70 94.6667 94 70 C118 45.3333 147.167 26 181.5 12 C215.833 -2 254 -9 296 -9 C318.666 -9 339.833 -6.66667 359.5 -2 C379.167 2.66667 396.667 8.66667 412 16 C427.333 23.3333 441 31.3333 453 40 C465 48.6667 475 57.3333 483 66 L409 156 C397 146 382.167 136.167 364.5 126.5 C346.833 116.833 324.333 112 297 112 L297 112 Z M430 710 L299 710 L223 572 L349 572 L430 710 Z " />
<glyph glyph-name="Ccircumflex" unicode="&#x108;" horiz-adv-x="627" d="M433 854 L294 854 L191 724 L314 724 L364 778 L413 724 L536 724 L433 854 Z M614 78 L533 175 C518.334 162.333 498.834 149.5 474.5 136.5 C450.167 123.5 420.334 117 385 117 C352.333 117 322.667 122.833 296 134.5 C269.333 146.167 246.5 162.167 227.5 182.5 C208.5 202.833 193.833 227 183.5 255 C173.167 283 168 313.333 168 346 C168 378.667 172.833 409 182.5 437 C192.167 465 206.333 489.333 225 510 C243.667 530.667 266.333 546.833 293 558.5 C319.667 570.167 349.667 576 383 576 C415 576 443.5 570.167 468.5 558.5 C493.5 546.833 514 534 530 520 L612 624 C584 648.667 551.167 668.333 513.5 683 C475.833 697.667 432 705 382 705 C328 705 278.833 695.833 234.5 677.5 C190.167 659.167 152.333 633.833 121 601.5 C89.6667 569.167 65.3333 531 48 487 C30.6667 443 22 395.667 22 345 C22 293.667 30.5 246.167 47.5 202.5 C64.5 158.833 88.6667 121 120 89 C151.333 57 189.333 32 234 14 C278.667 -4 329 -13 385 -13 C435 -13 479 -4.33333 517 13 C555 30.3333 587.333 52 614 78 L614 78 Z " />
<glyph glyph-name="ccircumflex" unicode="&#x109;" horiz-adv-x="488" d="M297 112 C277.667 112 259.334 115.5 242 122.5 C224.667 129.5 209.333 139.833 196 153.5 C182.667 167.167 172.167 183.5 164.5 202.5 C156.833 221.5 153 243 153 267 C153 289 156.333 309.5 163 328.5 C169.667 347.5 179.167 364 191.5 378 C203.833 392 218.833 403 236.5 411 C254.167 419 274 423 296 423 C322.666 423 344.833 418.333 362.5 409 C380.167 399.667 394.667 389.667 406 379 L483 472 C475 480 465.333 488.333 454 497 C442.667 505.667 429.167 513.5 413.5 520.5 C397.833 527.5 380.167 533.167 360.5 537.5 C340.833 541.833 319 544 295 544 C255 544 218.167 536.833 184.5 522.5 C150.833 508.167 121.667 488.5 97 463.5 C72.3333 438.5 53.1667 409 39.5 375 C25.8333 341 19 304.667 19 266 C19 227.333 25.5 191.167 38.5 157.5 C51.5 123.833 70 94.6667 94 70 C118 45.3333 147.167 26 181.5 12 C215.833 -2 254 -9 296 -9 C318.666 -9 339.833 -6.66667 359.5 -2 C379.167 2.66667 396.667 8.66667 412 16 C427.333 23.3333 441 31.3333 453 40 C465 48.6667 475 57.3333 483 66 L409 156 C397 146 382.167 136.167 364.5 126.5 C346.833 116.833 324.333 112 297 112 L297 112 Z M343 712 L209 712 L113 570 L230 570 L276 632 L322 570 L439 570 L343 712 Z " />
<glyph glyph-name="Cdotaccent" unicode="&#x10a;" horiz-adv-x="627" d="M366 730 C388 730 406.5 737.333 421.5 752 C436.5 766.667 444 784.667 444 806 C444 827.33 436.333 845.163 421 859.5 C405.667 873.833 387.334 881 366 881 C344 881 325.833 873.667 311.5 859 C297.167 844.337 290 826.67 290 806 C290 784.667 297.5 766.667 312.5 752 C327.5 737.333 345.333 730 366 730 L366 730 Z M614 78 L533 175 C518.334 162.333 498.834 149.5 474.5 136.5 C450.167 123.5 420.334 117 385 117 C352.333 117 322.667 122.833 296 134.5 C269.333 146.167 246.5 162.167 227.5 182.5 C208.5 202.833 193.833 227 183.5 255 C173.167 283 168 313.333 168 346 C168 378.667 172.833 409 182.5 437 C192.167 465 206.333 489.333 225 510 C243.667 530.667 266.333 546.833 293 558.5 C319.667 570.167 349.667 576 383 576 C415 576 443.5 570.167 468.5 558.5 C493.5 546.833 514 534 530 520 L612 624 C584 648.667 551.167 668.333 513.5 683 C475.833 697.667 432 705 382 705 C328 705 278.833 695.833 234.5 677.5 C190.167 659.167 152.333 633.833 121 601.5 C89.6667 569.167 65.3333 531 48 487 C30.6667 443 22 395.667 22 345 C22 293.667 30.5 246.167 47.5 202.5 C64.5 158.833 88.6667 121 120 89 C151.333 57 189.333 32 234 14 C278.667 -4 329 -13 385 -13 C435 -13 479 -4.33333 517 13 C555 30.3333 587.333 52 614 78 L614 78 Z " />
<glyph glyph-name="cdotaccent" unicode="&#x10b;" horiz-adv-x="488" d="M297 112 C277.667 112 259.334 115.5 242 122.5 C224.667 129.5 209.333 139.833 196 153.5 C182.667 167.167 172.167 183.5 164.5 202.5 C156.833 221.5 153 243 153 267 C153 289 156.333 309.5 163 328.5 C169.667 347.5 179.167 364 191.5 378 C203.833 392 218.833 403 236.5 411 C254.167 419 274 423 296 423 C322.666 423 344.833 418.333 362.5 409 C380.167 399.667 394.667 389.667 406 379 L483 472 C475 480 465.333 488.333 454 497 C442.667 505.667 429.167 513.5 413.5 520.5 C397.833 527.5 380.167 533.167 360.5 537.5 C340.833 541.833 319 544 295 544 C255 544 218.167 536.833 184.5 522.5 C150.833 508.167 121.667 488.5 97 463.5 C72.3333 438.5 53.1667 409 39.5 375 C25.8333 341 19 304.667 19 266 C19 227.333 25.5 191.167 38.5 157.5 C51.5 123.833 70 94.6667 94 70 C118 45.3333 147.167 26 181.5 12 C215.833 -2 254 -9 296 -9 C318.666 -9 339.833 -6.66667 359.5 -2 C379.167 2.66667 396.667 8.66667 412 16 C427.333 23.3333 441 31.3333 453 40 C465 48.6667 475 57.3333 483 66 L409 156 C397 146 382.167 136.167 364.5 126.5 C346.833 116.833 324.333 112 297 112 L297 112 Z M278 572 C300.666 572 319.333 579.167 334 593.5 C348.667 607.833 356 626 356 648 C356 669.331 348.333 687.164 333 701.5 C317.667 715.833 299.334 723 278 723 C256 723 237.833 715.833 223.5 701.5 C209.167 687.167 202 669.333 202 648 C202 626 209.333 607.833 224 593.5 C238.667 579.167 256.667 572 278 572 L278 572 Z " />
<glyph glyph-name="Ccaron" unicode="&#x10c;" horiz-adv-x="627" d="M302 724 L441 724 L544 854 L421 854 L372 799 L323 854 L199 854 L302 724 Z M614 78 L533 175 C518.334 162.333 498.834 149.5 474.5 136.5 C450.167 123.5 420.334 117 385 117 C352.333 117 322.667 122.833 296 134.5 C269.333 146.167 246.5 162.167 227.5 182.5 C208.5 202.833 193.833 227 183.5 255 C173.167 283 168 313.333 168 346 C168 378.667 172.833 409 182.5 437 C192.167 465 206.333 489.333 225 510 C243.667 530.667 266.333 546.833 293 558.5 C319.667 570.167 349.667 576 383 576 C415 576 443.5 570.167 468.5 558.5 C493.5 546.833 514 534 530 520 L612 624 C584 648.667 551.167 668.333 513.5 683 C475.833 697.667 432 705 382 705 C328 705 278.833 695.833 234.5 677.5 C190.167 659.167 152.333 633.833 121 601.5 C89.6667 569.167 65.3333 531 48 487 C30.6667 443 22 395.667 22 345 C22 293.667 30.5 246.167 47.5 202.5 C64.5 158.833 88.6667 121 120 89 C151.333 57 189.333 32 234 14 C278.667 -4 329 -13 385 -13 C435 -13 479 -4.33333 517 13 C555 30.3333 587.333 52 614 78 L614 78 Z " />
<glyph glyph-name="ccaron" unicode="&#x10d;" horiz-adv-x="488" d="M297 112 C277.667 112 259.334 115.5 242 122.5 C224.667 129.5 209.333 139.833 196 153.5 C182.667 167.167 172.167 183.5 164.5 202.5 C156.833 221.5 153 243 153 267 C153 289 156.333 309.5 163 328.5 C169.667 347.5 179.167 364 191.5 378 C203.833 392 218.833 403 236.5 411 C254.167 419 274 423 296 423 C322.666 423 344.833 418.333 362.5 409 C380.167 399.667 394.667 389.667 406 379 L483 472 C475 480 465.333 488.333 454 497 C442.667 505.667 429.167 513.5 413.5 520.5 C397.833 527.5 380.167 533.167 360.5 537.5 C340.833 541.833 319 544 295 544 C255 544 218.167 536.833 184.5 522.5 C150.833 508.167 121.667 488.5 97 463.5 C72.3333 438.5 53.1667 409 39.5 375 C25.8333 341 19 304.667 19 266 C19 227.333 25.5 191.167 38.5 157.5 C51.5 123.833 70 94.6667 94 70 C118 45.3333 147.167 26 181.5 12 C215.833 -2 254 -9 296 -9 C318.666 -9 339.833 -6.66667 359.5 -2 C379.167 2.66667 396.667 8.66667 412 16 C427.333 23.3333 441 31.3333 453 40 C465 48.6667 475 57.3333 483 66 L409 156 C397 146 382.167 136.167 364.5 126.5 C346.833 116.833 324.333 112 297 112 L297 112 Z M207 571 L341 571 L437 713 L320 713 L274 651 L228 713 L111 713 L207 571 Z " />
<glyph glyph-name="Dcaron" unicode="&#x10e;" horiz-adv-x="572" d="M198 724 L337 724 L440 854 L317 854 L268 799 L219 854 L95 854 L198 724 Z M185 123 L185 569 L193 569 C259.667 569.667 311.5 551 348.5 513 C385.5 475 404 419.667 404 347 C404 273.667 385.167 217.833 347.5 179.5 C309.833 141.167 258.333 122.333 193 123 L185 123 Z M186 692 L46 692 L46 0 L186 0 C242.667 0 293.333 8.16667 338 24.5 C382.667 40.8333 420.667 64 452 94 C483.333 124 507.333 160.333 524 203 C540.667 245.667 549 293.667 549 347 C549 401 540.667 449.333 524 492 C507.333 534.667 483.5 570.833 452.5 600.5 C421.5 630.167 383.5 652.833 338.5 668.5 C293.5 684.167 242.667 692 186 692 L186 692 Z " />
<glyph glyph-name="dcaron" unicode="&#x10f;" horiz-adv-x="617" d="M453 53 L453 0 L578 0 L578 731 L444 731 L444 492 C427.333 507.333 406 519.833 380 529.5 C354 539.167 324 544 290 544 C250 544 213.333 536.833 180 522.5 C146.667 508.167 118 488.5 94 463.5 C70 438.5 51.5 409 38.5 375 C25.5 341 19 304.667 19 266 C19 226 25.6667 189.167 39 155.5 C52.3333 121.833 71 92.8334 95 68.5 C119 44.1667 148 25.1667 182 11.5 C216 -2.16667 253.667 -9 295 -9 C329 -9 359.833 -3 387.5 9 C415.167 21 437 35.6667 453 53 L453 53 Z M153 268 C153 290 156.5 310.667 163.5 330 C170.5 349.333 180.5 366 193.5 380 C206.5 394 222 405 240 413 C258 421 278.333 425 301 425 C323 425 343 421 361 413 C379 405 394.5 394 407.5 380 C420.5 366 430.5 349.333 437.5 330 C444.5 310.667 448 290 448 268 C448 246 444.5 225.333 437.5 206 C430.5 186.667 420.667 170 408 156 C395.333 142 380 131 362 123 C344 115 323.667 111 301 111 C279 111 259 115 241 123 C223 131 207.5 142 194.5 156 C181.5 170 171.333 186.5 164 205.5 C156.667 224.5 153 245.333 153 268 L153 268 Z M730 731 L622 731 L610 572 L716 572 L730 731 Z " />
<glyph glyph-name="Dcroat" unicode="&#x110;" horiz-adv-x="587" d="M200 692 L60 692 L60 416 L8 416 L8 286 L60 286 L60 0 L200 0 C256.667 0 307.333 8.16667 352 24.5 C396.667 40.8333 434.667 64 466 94 C497.333 124 521.333 160.333 538 203 C554.667 245.667 563 293.667 563 347 C563 401 554.667 449.333 538 492 C521.334 534.667 497.501 570.833 466.5 600.5 C435.5 630.167 397.5 652.833 352.5 668.5 C307.5 684.167 256.667 692 200 692 L200 692 Z M199 416 L199 569 L207 569 C273.667 569.667 325.5 551 362.5 513 C399.5 475 418 419.667 418 347 C418 273.667 399.167 217.833 361.5 179.5 C323.833 141.167 272.333 122.333 207 123 L199 123 L199 286 L297 286 L297 416 L199 416 Z " />
<glyph glyph-name="dcroat" unicode="&#x111;" horiz-adv-x="627" d="M318 673 L318 579 L444 579 L444 492 C427.333 507.333 406 519.833 380 529.5 C354 539.167 324 544 290 544 C250 544 213.333 536.833 180 522.5 C146.667 508.167 118 488.5 94 463.5 C70 438.5 51.5 409 38.5 375 C25.5 341 19 304.667 19 266 C19 226 25.6667 189.167 39 155.5 C52.3333 121.833 71 92.8334 95 68.5 C119 44.1667 148 25.1667 182 11.5 C216 -2.16667 253.667 -9 295 -9 C329 -9 359.833 -3 387.5 9 C415.167 21 437 35.6667 453 53 L453 0 L578 0 L578 579 L624 579 L624 673 L578 673 L578 731 L444 731 L444 673 L318 673 Z M153 268 C153 290 156.5 310.667 163.5 330 C170.5 349.333 180.5 366 193.5 380 C206.5 394 222 405 240 413 C258 421 278.333 425 301 425 C323 425 343 421 361 413 C379 405 394.5 394 407.5 380 C420.5 366 430.5 349.333 437.5 330 C444.5 310.667 448 290 448 268 C448 246 444.5 225.333 437.5 206 C430.5 186.667 420.667 170 408 156 C395.333 142 380 131 362 123 C344 115 323.667 111 301 111 C279 111 259 115 241 123 C223 131 207.5 142 194.5 156 C181.5 170 171.333 186.5 164 205.5 C156.667 224.5 153 245.333 153 268 L153 268 Z " />
<glyph glyph-name="Emacron" unicode="&#x112;" horiz-adv-x="398" d="M81 830 L81 731 L337 731 L337 830 L81 830 Z M46 0 L366 0 L366 130 L185 130 L185 290 L358 290 L358 418 L185 418 L185 562 L363 562 L363 692 L46 692 L46 0 Z " />
<glyph glyph-name="emacron" unicode="&#x113;" horiz-adv-x="560" d="M160 224 L542 224 C543.333 235.333 544 245.667 544 255 L544 279 C544 319 537.833 355.333 525.5 388 C513.167 420.667 495.667 448.5 473 471.5 C450.333 494.5 422.833 512.333 390.5 525 C358.167 537.667 322 544 282 544 C243.333 544 207.833 537 175.5 523 C143.167 509 115.5 489.667 92.5 465 C69.5 440.333 51.5 411 38.5 377 C25.5 343 19 306 19 266 C19 223.333 25.6667 185 39 151 C52.3333 117 71 88.1667 95 64.5 C119 40.8333 147.833 22.6667 181.5 10 C215.167 -2.66667 252.333 -9 293 -9 C325.667 -9 354.667 -4.83333 380 3.5 C405.333 11.8333 427.5 22.5 446.5 35.5 C465.5 48.5 481.667 63.3333 495 80 C508.333 96.6666 519 113.333 527 130 L428 190 C414 168 396.5 149.167 375.5 133.5 C354.5 117.833 327 110 293 110 C255 110 224.167 120 200.5 140 C176.833 160 163.333 188 160 224 L160 224 Z M281 431 C317.667 431 346.667 420.833 368 400.5 C389.333 380.167 401.667 355 405 325 L163 325 C166.333 355.667 178.333 381 199 401 C219.667 421 247 431 281 431 L281 431 Z M162 683 L162 585 L404 585 L404 683 L162 683 Z " />
<glyph glyph-name="Ebreve" unicode="&#x114;" horiz-adv-x="398" d="M207 723 C233 723 255.5 727 274.5 735 C293.5 743 309 753.333 321 766 C333 778.667 341.833 793 347.5 809 C353.167 825 356 841 356 857 L255 857 C255 846.333 251.167 836.5 243.5 827.5 C235.833 818.5 224 814 208 814 C191.333 814 179.333 818.5 172 827.5 C164.667 836.5 161 846.333 161 857 L59 857 C59 841 61.8333 825 67.5 809 C73.1667 793 82 778.667 94 766 C106 753.333 121.333 743 140 735 C158.667 727 181 723 207 723 L207 723 Z M46 0 L366 0 L366 130 L185 130 L185 290 L358 290 L358 418 L185 418 L185 562 L363 562 L363 692 L46 692 L46 0 Z " />
<glyph glyph-name="ebreve" unicode="&#x115;" horiz-adv-x="560" d="M160 224 L542 224 C543.333 235.333 544 245.667 544 255 L544 279 C544 319 537.833 355.333 525.5 388 C513.167 420.667 495.667 448.5 473 471.5 C450.333 494.5 422.833 512.333 390.5 525 C358.167 537.667 322 544 282 544 C243.333 544 207.833 537 175.5 523 C143.167 509 115.5 489.667 92.5 465 C69.5 440.333 51.5 411 38.5 377 C25.5 343 19 306 19 266 C19 223.333 25.6667 185 39 151 C52.3333 117 71 88.1667 95 64.5 C119 40.8333 147.833 22.6667 181.5 10 C215.167 -2.66667 252.333 -9 293 -9 C325.667 -9 354.667 -4.83333 380 3.5 C405.333 11.8333 427.5 22.5 446.5 35.5 C465.5 48.5 481.667 63.3333 495 80 C508.333 96.6666 519 113.333 527 130 L428 190 C414 168 396.5 149.167 375.5 133.5 C354.5 117.833 327 110 293 110 C255 110 224.167 120 200.5 140 C176.833 160 163.333 188 160 224 L160 224 Z M281 431 C317.667 431 346.667 420.833 368 400.5 C389.333 380.167 401.667 355 405 325 L163 325 C166.333 355.667 178.333 381 199 401 C219.667 421 247 431 281 431 L281 431 Z M282 564 C308 564 330.333 568.333 349 577 C367.667 585.667 383 596.833 395 610.5 C407 624.167 415.667 639.5 421 656.5 C426.333 673.5 429 690.333 429 707 L330 707 C330 693.667 326.333 681.667 319 671 C311.667 660.333 299.667 655 283 655 C266.333 655 254.333 660.333 247 671 C239.667 681.667 236 693.667 236 707 L136 707 C136 690.333 138.667 673.5 144 656.5 C149.333 639.5 157.833 624.167 169.5 610.5 C181.167 596.834 196.333 585.668 215 577 C233.667 568.333 256 564 282 564 L282 564 Z " />
<glyph glyph-name="Edotaccent" unicode="&#x116;" horiz-adv-x="398" d="M202 730 C224 730 242.5 737.333 257.5 752 C272.5 766.667 280 784.667 280 806 C280 827.33 272.333 845.163 257 859.5 C241.667 873.833 223.333 881 202 881 C180 881 161.833 873.667 147.5 859 C133.167 844.337 126 826.67 126 806 C126 784.667 133.5 766.667 148.5 752 C163.5 737.333 181.333 730 202 730 L202 730 Z M46 0 L366 0 L366 130 L185 130 L185 290 L358 290 L358 418 L185 418 L185 562 L363 562 L363 692 L46 692 L46 0 Z " />
<glyph glyph-name="edotaccent" unicode="&#x117;" horiz-adv-x="560" d="M160 224 L542 224 C543.333 235.333 544 245.667 544 255 L544 279 C544 319 537.833 355.333 525.5 388 C513.167 420.667 495.667 448.5 473 471.5 C450.333 494.5 422.833 512.333 390.5 525 C358.167 537.667 322 544 282 544 C243.333 544 207.833 537 175.5 523 C143.167 509 115.5 489.667 92.5 465 C69.5 440.333 51.5 411 38.5 377 C25.5 343 19 306 19 266 C19 223.333 25.6667 185 39 151 C52.3333 117 71 88.1667 95 64.5 C119 40.8333 147.833 22.6667 181.5 10 C215.167 -2.66667 252.333 -9 293 -9 C325.667 -9 354.667 -4.83333 380 3.5 C405.333 11.8333 427.5 22.5 446.5 35.5 C465.5 48.5 481.667 63.3333 495 80 C508.333 96.6666 519 113.333 527 130 L428 190 C414 168 396.5 149.167 375.5 133.5 C354.5 117.833 327 110 293 110 C255 110 224.167 120 200.5 140 C176.833 160 163.333 188 160 224 L160 224 Z M281 431 C317.667 431 346.667 420.833 368 400.5 C389.333 380.167 401.667 355 405 325 L163 325 C166.333 355.667 178.333 381 199 401 C219.667 421 247 431 281 431 L281 431 Z M282 572 C304.666 572 323.333 579.167 338 593.5 C352.667 607.833 360 626 360 648 C360 669.331 352.333 687.164 337 701.5 C321.667 715.833 303.334 723 282 723 C260 723 241.833 715.833 227.5 701.5 C213.167 687.167 206 669.333 206 648 C206 626 213.333 607.833 228 593.5 C242.667 579.167 260.667 572 282 572 L282 572 Z " />
<glyph glyph-name="Eogonek" unicode="&#x118;" horiz-adv-x="398" d="M330 0 L366 0 L366 130 L185 130 L185 290 L358 290 L358 418 L185 418 L185 562 L363 562 L363 692 L46 692 L46 0 L206 0 C174 -19.3333 158 -45.3333 158 -78 C158 -92.6667 161.333 -106.333 168 -119 C174.667 -131.667 185 -142.5 199 -151.5 C213 -160.5 230.833 -167.167 252.5 -171.5 C274.167 -175.833 300 -177 330 -175 L330 -82 C316.667 -81.3333 305.5 -78.1667 296.5 -72.5 C287.5 -66.8333 283 -57.6667 283 -45 C283 -35.6667 286.5 -26.6667 293.5 -18 C300.5 -9.33333 312.667 -3.33333 330 0 L330 0 Z " />
<glyph glyph-name="eogonek" unicode="&#x119;" horiz-adv-x="560" d="M527 130 L428 190 C414 168 396.5 149.167 375.5 133.5 C354.5 117.833 327 110 293 110 C255 110 224.167 120 200.5 140 C176.833 160 163.333 188 160 224 L542 224 C543.333 235.333 544 245.5 544 254.5 L544 279 C544 319 537.833 355.333 525.5 388 C513.167 420.667 495.667 448.5 473 471.5 C450.333 494.5 422.833 512.333 390.5 525 C358.167 537.667 322 544 282 544 C243.333 544 207.833 537 175.5 523 C143.167 509 115.5 489.667 92.5 465 C69.5 440.333 51.5 411 38.5 377 C25.5 343 19 306 19 266 C19 223.333 25.6667 185 39 151 C52.3333 117 71 88.1667 95 64.5 C119 40.8333 147.833 22.6667 181.5 10 C215.167 -2.66667 252.333 -9 293 -9 L305 -9 C309 -9 312.667 -8.66667 316 -8 C302.667 -18 292.5 -29.6667 285.5 -43 C278.5 -56.3333 275 -69.6667 275 -83 C275 -97 278.333 -110 285 -122 C291.666 -134 302.333 -144.333 317 -153 C331.667 -161.667 350.667 -168 374 -172 C397.333 -176 425.333 -177 458 -175 L458 -82 C440.667 -82 426.5 -79.1667 415.5 -73.5 C404.5 -67.8333 399 -57.3333 399 -42 C399 -29.3333 403 -16.6667 411 -4 C419 8.66667 433.333 23.3333 454 40 C472.667 55.3333 487.667 70.3333 499 85 C510.333 99.6667 519.667 114.667 527 130 L527 130 Z M281 431 C317.667 431 346.667 420.833 368 400.5 C389.333 380.167 401.667 355 405 325 L163 325 C166.333 355.667 178.333 381 199 401 C219.667 421 247 431 281 431 L281 431 Z " />
<glyph glyph-name="Ecaron" unicode="&#x11a;" horiz-adv-x="398" d="M137 724 L276 724 L379 854 L256 854 L207 799 L158 854 L34 854 L137 724 Z M46 0 L366 0 L366 130 L185 130 L185 290 L358 290 L358 418 L185 418 L185 562 L363 562 L363 692 L46 692 L46 0 Z " />
<glyph glyph-name="ecaron" unicode="&#x11b;" horiz-adv-x="560" d="M160 224 L542 224 C543.333 235.333 544 245.667 544 255 L544 279 C544 319 537.833 355.333 525.5 388 C513.167 420.667 495.667 448.5 473 471.5 C450.333 494.5 422.833 512.333 390.5 525 C358.167 537.667 322 544 282 544 C243.333 544 207.833 537 175.5 523 C143.167 509 115.5 489.667 92.5 465 C69.5 440.333 51.5 411 38.5 377 C25.5 343 19 306 19 266 C19 223.333 25.6667 185 39 151 C52.3333 117 71 88.1667 95 64.5 C119 40.8333 147.833 22.6667 181.5 10 C215.167 -2.66667 252.333 -9 293 -9 C325.667 -9 354.667 -4.83333 380 3.5 C405.333 11.8333 427.5 22.5 446.5 35.5 C465.5 48.5 481.667 63.3333 495 80 C508.333 96.6666 519 113.333 527 130 L428 190 C414 168 396.5 149.167 375.5 133.5 C354.5 117.833 327 110 293 110 C255 110 224.167 120 200.5 140 C176.833 160 163.333 188 160 224 L160 224 Z M281 431 C317.667 431 346.667 420.833 368 400.5 C389.333 380.167 401.667 355 405 325 L163 325 C166.333 355.667 178.333 381 199 401 C219.667 421 247 431 281 431 L281 431 Z M216 571 L350 571 L446 713 L329 713 L283 651 L237 713 L120 713 L216 571 Z " />
<glyph glyph-name="Gcircumflex" unicode="&#x11c;" horiz-adv-x="727" d="M447 854 L308 854 L205 724 L328 724 L378 778 L427 724 L550 724 L447 854 Z M685 0 L685 372 L436 372 L436 256 L549 256 L549 177 C534.335 161.667 513.169 147.667 485.5 135 C457.833 122.333 424 116 384 116 C352.667 116 323.834 121.5 297.5 132.5 C271.167 143.5 248.333 159 229 179 C209.667 199 194.5 223.167 183.5 251.5 C172.5 279.833 167 311.667 167 347 C167 381 172.167 412 182.5 440 C192.833 468 207.166 492 225.5 512 C243.833 532 266 547.667 292 559 C318 570.333 346.667 576 378 576 C400.667 576 421.167 573.5 439.5 568.5 C457.833 563.5 474.167 556.833 488.5 548.5 C502.833 540.167 515.333 530.667 526 520 C536.667 509.333 546 498.667 554 488 L662 568 C650 586.667 635.333 604.167 618 620.5 C600.667 636.833 580.333 651.333 557 664 C533.667 676.667 507.167 686.667 477.5 694 C447.833 701.333 414.667 705 378 705 C324.667 705 276 695.667 232 677 C188 658.336 150.5 632.669 119.5 600 C88.5 567.333 64.5 529.333 47.5 486 C30.5 442.667 22 396.334 22 347 C22 293 30.6667 244 48 200 C65.3333 156 89.6667 118.333 121 87 C152.333 55.6667 189.833 31.3333 233.5 14 C277.166 -3.33333 325.333 -12 378 -12 C418 -12 452.333 -6.83333 481 3.5 C509.667 13.8333 533 26.3333 551 41 L551 0 L685 0 Z " />
<glyph glyph-name="gcircumflex" unicode="&#x11d;" horiz-adv-x="615" d="M451 535 L451 485 C433.667 503 411.334 517.333 384 528 C356.667 538.667 325.667 544 291 544 C251 544 214.333 536.833 181 522.5 C147.667 508.167 119 488.5 95 463.5 C71 438.5 52.3333 409 39 375 C25.6667 341 19 304.667 19 266 C19 225.333 25.6667 188.167 39 154.5 C52.3333 120.833 71.1667 91.8334 95.5 67.5 C119.833 43.1667 149 24.3333 183 11 C217 -2.33333 254.667 -9 296 -9 C314.666 -9 331.833 -7.16667 347.5 -3.5 C363.167 0.166672 377.167 5 389.5 11 C401.833 17 412.5 23.5 421.5 30.5 C430.5 37.5 438 44.3333 444 51 L444 44 C444 24.6667 440 7.83333 432 -6.5 C424 -20.8333 413.167 -32.5 399.5 -41.5 C385.833 -50.5 369.667 -57.1667 351 -61.5 C332.333 -65.8333 312.667 -68 292 -68 C258 -68 227.333 -63.8333 200 -55.5 C172.667 -47.1666 151 -38.3333 135 -29 L92 -135 C114 -147.667 142.167 -158.833 176.5 -168.5 C210.833 -178.167 249 -183 291 -183 C332.333 -183 370.5 -178.167 405.5 -168.5 C440.5 -158.833 470.667 -143.333 496 -122 C521.331 -100.667 541.165 -72.5 555.5 -37.5 C569.833 -2.5 577 40 577 90 L577 535 L451 535 Z M153 267 C153 289.667 156.5 310.667 163.5 330 C170.5 349.333 180.5 366 193.5 380 C206.5 394 222 405 240 413 C258 421 278.333 425 301 425 C323 425 343 421 361 413 C379 405 394.5 394 407.5 380 C420.5 366 430.5 349.333 437.5 330 C444.5 310.667 448 289.667 448 267 C448 245 444.5 224.333 437.5 205 C430.5 185.667 420.667 169 408 155 C395.333 141 380 130 362 122 C344 114 323.667 110 301 110 C279 110 259 114 241 122 C223 130 207.5 141 194.5 155 C181.5 169 171.333 185.5 164 204.5 C156.667 223.5 153 244.333 153 267 L153 267 Z M373 712 L239 712 L143 570 L260 570 L306 632 L352 570 L469 570 L373 712 Z " />
<glyph glyph-name="Gbreve" unicode="&#x11e;" horiz-adv-x="727" d="M372 723 C398 723 420.5 727 439.5 735 C458.5 743 474 753.333 486 766 C498 778.667 506.833 793 512.5 809 C518.167 825 521 841 521 857 L420 857 C420 846.333 416.167 836.5 408.5 827.5 C400.833 818.5 389 814 373 814 C356.333 814 344.333 818.5 337 827.5 C329.667 836.5 326 846.333 326 857 L224 857 C224 841 226.833 825 232.5 809 C238.167 793 247 778.667 259 766 C271 753.333 286.333 743 305 735 C323.667 727 346 723 372 723 L372 723 Z M685 0 L685 372 L436 372 L436 256 L549 256 L549 177 C534.335 161.667 513.169 147.667 485.5 135 C457.833 122.333 424 116 384 116 C352.667 116 323.834 121.5 297.5 132.5 C271.167 143.5 248.333 159 229 179 C209.667 199 194.5 223.167 183.5 251.5 C172.5 279.833 167 311.667 167 347 C167 381 172.167 412 182.5 440 C192.833 468 207.166 492 225.5 512 C243.833 532 266 547.667 292 559 C318 570.333 346.667 576 378 576 C400.667 576 421.167 573.5 439.5 568.5 C457.833 563.5 474.167 556.833 488.5 548.5 C502.833 540.167 515.333 530.667 526 520 C536.667 509.333 546 498.667 554 488 L662 568 C650 586.667 635.333 604.167 618 620.5 C600.667 636.833 580.333 651.333 557 664 C533.667 676.667 507.167 686.667 477.5 694 C447.833 701.333 414.667 705 378 705 C324.667 705 276 695.667 232 677 C188 658.336 150.5 632.669 119.5 600 C88.5 567.333 64.5 529.333 47.5 486 C30.5 442.667 22 396.334 22 347 C22 293 30.6667 244 48 200 C65.3333 156 89.6667 118.333 121 87 C152.333 55.6667 189.833 31.3333 233.5 14 C277.166 -3.33333 325.333 -12 378 -12 C418 -12 452.333 -6.83333 481 3.5 C509.667 13.8333 533 26.3333 551 41 L551 0 L685 0 Z " />
<glyph glyph-name="gbreve" unicode="&#x11f;" horiz-adv-x="615" d="M451 535 L451 485 C433.667 503 411.334 517.333 384 528 C356.667 538.667 325.667 544 291 544 C251 544 214.333 536.833 181 522.5 C147.667 508.167 119 488.5 95 463.5 C71 438.5 52.3333 409 39 375 C25.6667 341 19 304.667 19 266 C19 225.333 25.6667 188.167 39 154.5 C52.3333 120.833 71.1667 91.8334 95.5 67.5 C119.833 43.1667 149 24.3333 183 11 C217 -2.33333 254.667 -9 296 -9 C314.666 -9 331.833 -7.16667 347.5 -3.5 C363.167 0.166672 377.167 5 389.5 11 C401.833 17 412.5 23.5 421.5 30.5 C430.5 37.5 438 44.3333 444 51 L444 44 C444 24.6667 440 7.83333 432 -6.5 C424 -20.8333 413.167 -32.5 399.5 -41.5 C385.833 -50.5 369.667 -57.1667 351 -61.5 C332.333 -65.8333 312.667 -68 292 -68 C258 -68 227.333 -63.8333 200 -55.5 C172.667 -47.1666 151 -38.3333 135 -29 L92 -135 C114 -147.667 142.167 -158.833 176.5 -168.5 C210.833 -178.167 249 -183 291 -183 C332.333 -183 370.5 -178.167 405.5 -168.5 C440.5 -158.833 470.667 -143.333 496 -122 C521.331 -100.667 541.165 -72.5 555.5 -37.5 C569.833 -2.5 577 40 577 90 L577 535 L451 535 Z M153 267 C153 289.667 156.5 310.667 163.5 330 C170.5 349.333 180.5 366 193.5 380 C206.5 394 222 405 240 413 C258 421 278.333 425 301 425 C323 425 343 421 361 413 C379 405 394.5 394 407.5 380 C420.5 366 430.5 349.333 437.5 330 C444.5 310.667 448 289.667 448 267 C448 245 444.5 224.333 437.5 205 C430.5 185.667 420.667 169 408 155 C395.333 141 380 130 362 122 C344 114 323.667 110 301 110 C279 110 259 114 241 122 C223 130 207.5 141 194.5 155 C181.5 169 171.333 185.5 164 204.5 C156.667 223.5 153 244.333 153 267 L153 267 Z M298 564 C324 564 346.333 568.333 365 577 C383.667 585.667 399 596.833 411 610.5 C423 624.167 431.667 639.5 437 656.5 C442.333 673.5 445 690.333 445 707 L346 707 C346 693.667 342.333 681.667 335 671 C327.667 660.333 315.667 655 299 655 C282.333 655 270.333 660.333 263 671 C255.667 681.667 252 693.667 252 707 L152 707 C152 690.333 154.667 673.5 160 656.5 C165.333 639.5 173.833 624.167 185.5 610.5 C197.167 596.834 212.333 585.668 231 577 C249.667 568.333 272 564 298 564 L298 564 Z " />
<glyph glyph-name="Gdotaccent" unicode="&#x120;" horiz-adv-x="727" d="M380 730 C402 730 420.5 737.333 435.5 752 C450.5 766.667 458 784.667 458 806 C458 827.33 450.333 845.163 435 859.5 C419.667 873.833 401.334 881 380 881 C358 881 339.833 873.667 325.5 859 C311.167 844.337 304 826.67 304 806 C304 784.667 311.5 766.667 326.5 752 C341.5 737.333 359.333 730 380 730 L380 730 Z M685 0 L685 372 L436 372 L436 256 L549 256 L549 177 C534.335 161.667 513.169 147.667 485.5 135 C457.833 122.333 424 116 384 116 C352.667 116 323.834 121.5 297.5 132.5 C271.167 143.5 248.333 159 229 179 C209.667 199 194.5 223.167 183.5 251.5 C172.5 279.833 167 311.667 167 347 C167 381 172.167 412 182.5 440 C192.833 468 207.166 492 225.5 512 C243.833 532 266 547.667 292 559 C318 570.333 346.667 576 378 576 C400.667 576 421.167 573.5 439.5 568.5 C457.833 563.5 474.167 556.833 488.5 548.5 C502.833 540.167 515.333 530.667 526 520 C536.667 509.333 546 498.667 554 488 L662 568 C650 586.667 635.333 604.167 618 620.5 C600.667 636.833 580.333 651.333 557 664 C533.667 676.667 507.167 686.667 477.5 694 C447.833 701.333 414.667 705 378 705 C324.667 705 276 695.667 232 677 C188 658.336 150.5 632.669 119.5 600 C88.5 567.333 64.5 529.333 47.5 486 C30.5 442.667 22 396.334 22 347 C22 293 30.6667 244 48 200 C65.3333 156 89.6667 118.333 121 87 C152.333 55.6667 189.833 31.3333 233.5 14 C277.166 -3.33333 325.333 -12 378 -12 C418 -12 452.333 -6.83333 481 3.5 C509.667 13.8333 533 26.3333 551 41 L551 0 L685 0 Z " />
<glyph glyph-name="gdotaccent" unicode="&#x121;" horiz-adv-x="615" d="M451 535 L451 485 C433.667 503 411.334 517.333 384 528 C356.667 538.667 325.667 544 291 544 C251 544 214.333 536.833 181 522.5 C147.667 508.167 119 488.5 95 463.5 C71 438.5 52.3333 409 39 375 C25.6667 341 19 304.667 19 266 C19 225.333 25.6667 188.167 39 154.5 C52.3333 120.833 71.1667 91.8334 95.5 67.5 C119.833 43.1667 149 24.3333 183 11 C217 -2.33333 254.667 -9 296 -9 C314.666 -9 331.833 -7.16667 347.5 -3.5 C363.167 0.166672 377.167 5 389.5 11 C401.833 17 412.5 23.5 421.5 30.5 C430.5 37.5 438 44.3333 444 51 L444 44 C444 24.6667 440 7.83333 432 -6.5 C424 -20.8333 413.167 -32.5 399.5 -41.5 C385.833 -50.5 369.667 -57.1667 351 -61.5 C332.333 -65.8333 312.667 -68 292 -68 C258 -68 227.333 -63.8333 200 -55.5 C172.667 -47.1666 151 -38.3333 135 -29 L92 -135 C114 -147.667 142.167 -158.833 176.5 -168.5 C210.833 -178.167 249 -183 291 -183 C332.333 -183 370.5 -178.167 405.5 -168.5 C440.5 -158.833 470.667 -143.333 496 -122 C521.331 -100.667 541.165 -72.5 555.5 -37.5 C569.833 -2.5 577 40 577 90 L577 535 L451 535 Z M153 267 C153 289.667 156.5 310.667 163.5 330 C170.5 349.333 180.5 366 193.5 380 C206.5 394 222 405 240 413 C258 421 278.333 425 301 425 C323 425 343 421 361 413 C379 405 394.5 394 407.5 380 C420.5 366 430.5 349.333 437.5 330 C444.5 310.667 448 289.667 448 267 C448 245 444.5 224.333 437.5 205 C430.5 185.667 420.667 169 408 155 C395.333 141 380 130 362 122 C344 114 323.667 110 301 110 C279 110 259 114 241 122 C223 130 207.5 141 194.5 155 C181.5 169 171.333 185.5 164 204.5 C156.667 223.5 153 244.333 153 267 L153 267 Z M294 572 C316.666 572 335.333 579.167 350 593.5 C364.667 607.833 372 626 372 648 C372 669.331 364.333 687.164 349 701.5 C333.667 715.833 315.334 723 294 723 C272 723 253.833 715.833 239.5 701.5 C225.167 687.167 218 669.333 218 648 C218 626 225.333 607.833 240 593.5 C254.667 579.167 272.667 572 294 572 L294 572 Z " />
<glyph glyph-name="Gcommaaccent" unicode="&#x122;" horiz-adv-x="727" d="M685 0 L685 372 L436 372 L436 256 L549 256 L549 177 C534.335 161.667 513.169 147.667 485.5 135 C457.833 122.333 424 116 384 116 C352.667 116 323.834 121.5 297.5 132.5 C271.167 143.5 248.333 159 229 179 C209.667 199 194.5 223.167 183.5 251.5 C172.5 279.833 167 311.667 167 347 C167 381 172.167 412 182.5 440 C192.833 468 207.166 492 225.5 512 C243.833 532 266 547.667 292 559 C318 570.333 346.667 576 378 576 C400.667 576 421.167 573.5 439.5 568.5 C457.833 563.5 474.167 556.833 488.5 548.5 C502.833 540.167 515.333 530.667 526 520 C536.667 509.333 546 498.667 554 488 L662 568 C650 586.667 635.333 604.167 618 620.5 C600.667 636.833 580.333 651.333 557 664 C533.667 676.667 507.167 686.667 477.5 694 C447.833 701.333 414.667 705 378 705 C324.667 705 276 695.667 232 677 C188 658.336 150.5 632.669 119.5 600 C88.5 567.333 64.5 529.333 47.5 486 C30.5 442.667 22 396.334 22 347 C22 293 30.6667 244 48 200 C65.3333 156 89.6667 118.333 121 87 C152.333 55.6667 189.833 31.3333 233.5 14 C277.166 -3.33333 325.333 -12 378 -12 C418 -12 452.333 -6.83333 481 3.5 C509.667 13.8333 533 26.3333 551 41 L551 0 L685 0 Z M350 -176 L316 -250 L393 -250 L431 -174 C435.667 -164.667 440 -154.5 444 -143.5 C448 -132.5 450 -120.333 450 -107 C450 -87 443.333 -69.3333 430 -54 C416.667 -38.6667 398 -31 374 -31 C349.333 -31 330.167 -38.3333 316.5 -53 C302.833 -67.6667 296 -85 296 -105 C296 -124.333 301 -140 311 -152 C321 -164 334 -172 350 -176 L350 -176 Z " />
<glyph glyph-name="gcommaaccent" unicode="&#x123;" horiz-adv-x="615" d="M451 535 L451 485 C433.667 503 411.334 517.333 384 528 C356.667 538.667 325.667 544 291 544 C251 544 214.333 536.833 181 522.5 C147.667 508.167 119 488.5 95 463.5 C71 438.5 52.3333 409 39 375 C25.6667 341 19 304.667 19 266 C19 225.333 25.6667 188.167 39 154.5 C52.3333 120.833 71.1667 91.8334 95.5 67.5 C119.833 43.1667 149 24.3333 183 11 C217 -2.33333 254.667 -9 296 -9 C314.666 -9 331.833 -7.16667 347.5 -3.5 C363.167 0.166672 377.167 5 389.5 11 C401.833 17 412.5 23.5 421.5 30.5 C430.5 37.5 438 44.3333 444 51 L444 44 C444 24.6667 440 7.83333 432 -6.5 C424 -20.8333 413.167 -32.5 399.5 -41.5 C385.833 -50.5 369.667 -57.1667 351 -61.5 C332.333 -65.8333 312.667 -68 292 -68 C258 -68 227.333 -63.8333 200 -55.5 C172.667 -47.1666 151 -38.3333 135 -29 L92 -135 C114 -147.667 142.167 -158.833 176.5 -168.5 C210.833 -178.167 249 -183 291 -183 C332.333 -183 370.5 -178.167 405.5 -168.5 C440.5 -158.833 470.667 -143.333 496 -122 C521.331 -100.667 541.165 -72.5 555.5 -37.5 C569.833 -2.5 577 40 577 90 L577 535 L451 535 Z M153 267 C153 289.667 156.5 310.667 163.5 330 C170.5 349.333 180.5 366 193.5 380 C206.5 394 222 405 240 413 C258 421 278.333 425 301 425 C323 425 343 421 361 413 C379 405 394.5 394 407.5 380 C420.5 366 430.5 349.333 437.5 330 C444.5 310.667 448 289.667 448 267 C448 245 444.5 224.333 437.5 205 C430.5 185.667 420.667 169 408 155 C395.333 141 380 130 362 122 C344 114 323.667 110 301 110 C279 110 259 114 241 122 C223 130 207.5 141 194.5 155 C181.5 169 171.333 185.5 164 204.5 C156.667 223.5 153 244.333 153 267 L153 267 Z M316 711 L349 785 L272 785 L235 709 C230.333 699.667 226 689.667 222 679 C218 668.333 216 656 216 642 C216 622.667 222.667 605.167 236 589.5 C249.333 573.833 268 566 292 566 C316.666 566 335.833 573.667 349.5 589 C363.167 604.333 370 622 370 642 C370 661.331 364.833 676.664 354.5 688 C344.167 699.333 331.334 707 316 711 L316 711 Z " />
<glyph glyph-name="Hcircumflex" unicode="&#x124;" horiz-adv-x="646" d="M391 854 L252 854 L149 724 L272 724 L322 778 L371 724 L494 724 L391 854 Z M600 0 L600 692 L461 692 L461 421 L185 421 L185 692 L46 692 L46 0 L185 0 L185 289 L461 289 L461 0 L600 0 Z " />
<glyph glyph-name="hcircumflex" unicode="&#x125;" horiz-adv-x="490" d="M309 893 L170 893 L67 763 L190 763 L240 817 L289 763 L412 763 L309 893 Z M319 337 L319 0 L453 0 L453 353 C453 379 450.167 403.333 444.5 426 C438.833 448.667 429.5 468.5 416.5 485.5 C403.5 502.5 386.333 516 365 526 C343.667 536 317.334 541 286 541 C269.333 541 254.833 539.333 242.5 536 C230.167 532.667 219.333 528.667 210 524 C200.667 519.333 193 514.333 187 509 C181 503.667 176.333 499 173 495 L173 731 L39 731 L39 0 L173 0 L173 337 C173 362.333 179.333 382.833 192 398.5 C204.667 414.167 223 422 247 422 C271.666 422 289.833 414.333 301.5 399 C313.167 383.667 319 363 319 337 L319 337 Z " />
<glyph glyph-name="Hbar" unicode="&#x126;" horiz-adv-x="666" d="M609 614 L609 692 L470 692 L470 614 L194 614 L194 692 L55 692 L55 614 L3 614 L3 513 L55 513 L55 0 L194 0 L194 289 L470 289 L470 0 L609 0 L609 513 L663 513 L663 614 L609 614 Z M470 421 L194 421 L194 513 L470 513 L470 421 Z " />
<glyph glyph-name="hbar" unicode="&#x127;" horiz-adv-x="500" d="M2 673 L2 579 L48 579 L48 0 L182 0 L182 337 C182 362.333 188.333 382.833 201 398.5 C213.667 414.167 232 422 256 422 C280.666 422 298.833 414.333 310.5 399 C322.167 383.667 328 363 328 337 L328 0 L462 0 L462 353 C462 379 459.167 403.333 453.5 426 C447.833 448.667 438.5 468.5 425.5 485.5 C412.5 502.5 395.333 516 374 526 C352.667 536 326.334 541 295 541 C278.333 541 263.833 539.333 251.5 536 C239.167 532.667 228.333 528.667 219 524 C209.667 519.333 202 514.333 196 509 C190 503.667 185.333 499 182 495 L182 579 L302 579 L302 673 L182 673 L182 731 L48 731 L48 673 L2 673 Z " />
<glyph glyph-name="Itilde" unicode="&#x128;" horiz-adv-x="231" d="M177 728 C211 728 237.667 740.167 257 764.5 C276.333 788.833 285.333 821.333 284 862 L188 862 C188 838.667 179 827 161 827 C153.667 827 146.667 828.833 140 832.5 C133.333 836.167 126 840 118 844 C110 848 101.167 851.833 91.5 855.5 C81.8333 859.167 70.3333 861 57 861 C22.3333 861 -5 848.333 -25 823 C-45 797.667 -54 765.667 -52 727 L43 727 C43 750.333 52.6667 762 72 762 C79.3333 762 86.5 760.167 93.5 756.5 C100.5 752.833 108.167 749 116.5 745 C124.833 741 133.833 737.167 143.5 733.5 C153.167 729.833 164.333 728 177 728 L177 728 Z M185 0 L185 692 L46 692 L46 0 L185 0 Z " />
<glyph glyph-name="itilde" unicode="&#x129;" horiz-adv-x="212" d="M173 0 L173 535 L39 535 L39 0 L173 0 Z M166 572 C200 572 226.5 584.167 245.5 608.5 C264.5 632.833 273.333 665.333 272 706 L177 706 C177 682.667 168.667 671 152 671 C144.667 671 137.667 672.833 131 676.5 C124.333 680.167 117.333 684 110 688 C102.667 692 94.3334 695.833 85 699.5 C75.6667 703.167 64.3334 705 51 705 C15.6667 705 -11.5 692.333 -30.5 667 C-49.5 641.667 -58.3333 610 -57 572 L38 572 C38 594.667 46.6667 606 64 606 C71.3333 606 78.5 604.167 85.5 600.5 C92.5 596.833 100 593 108 589 C116 585 124.667 581.167 134 577.5 C143.333 573.833 154 572 166 572 L166 572 Z " />
<glyph glyph-name="Imacron" unicode="&#x12a;" horiz-adv-x="231" d="M-11 830 L-11 731 L245 731 L245 830 L-11 830 Z M185 0 L185 692 L46 692 L46 0 L185 0 Z " />
<glyph glyph-name="imacron" unicode="&#x12b;" horiz-adv-x="212" d="M-10 683 L-10 585 L222 585 L222 683 L-10 683 Z M173 0 L173 535 L39 535 L39 0 L173 0 Z " />
<glyph glyph-name="Ibreve" unicode="&#x12c;" horiz-adv-x="231" d="M116 723 C142 723 164.5 727 183.5 735 C202.5 743 218 753.333 230 766 C242 778.667 250.833 793 256.5 809 C262.167 825 265 841 265 857 L164 857 C164 846.333 160.167 836.5 152.5 827.5 C144.833 818.5 133 814 117 814 C100.333 814 88.3333 818.5 81 827.5 C73.6667 836.5 70 846.333 70 857 L-32 857 C-32 841 -29.1667 825 -23.5 809 C-17.8333 793 -9 778.667 3 766 C15 753.333 30.3333 743 49 735 C67.6667 727 90 723 116 723 L116 723 Z M185 0 L185 692 L46 692 L46 0 L185 0 Z " />
<glyph glyph-name="ibreve" unicode="&#x12d;" horiz-adv-x="212" d="M173 0 L173 535 L39 535 L39 0 L173 0 Z M107 564 C133 564 155.333 568.333 174 577 C192.667 585.667 208 596.833 220 610.5 C232 624.167 240.667 639.5 246 656.5 C251.333 673.5 254 690.333 254 707 L155 707 C155 693.667 151.333 681.667 144 671 C136.667 660.333 124.667 655 108 655 C91.3333 655 79.3333 660.333 72 671 C64.6667 681.667 61.0001 693.667 61 707 L-39 707 C-39 690.333 -36.3333 673.5 -31 656.5 C-25.6667 639.5 -17.1667 624.167 -5.5 610.5 C6.16667 596.834 21.3333 585.668 40 577 C58.6667 568.333 81 564 107 564 L107 564 Z " />
<glyph glyph-name="Iogonek" unicode="&#x12e;" horiz-adv-x="231" d="M185 0 L185 692 L46 692 L46 0 C38 -9.33333 31 -20.1667 25 -32.5 C19 -44.8333 16 -59.6667 16 -77 C16 -106.333 29.6667 -130.833 57 -150.5 C84.3333 -170.167 128 -178.334 188 -175 L188 -82 C174.667 -81.3333 163.5 -78 154.5 -72 C145.5 -66 141 -57 141 -45 C141 -36.3333 144.333 -27.5 151 -18.5 C157.667 -9.5 169 -3.33333 185 0 L185 0 Z " />
<glyph glyph-name="iogonek" unicode="&#x12f;" horiz-adv-x="212" d="M173 -1 L173 535 L39 535 L39 2 C13.6667 -19.3333 1 -46 1 -78 C1 -108.667 14.8333 -133.333 42.5 -152 C70.1667 -170.667 113.667 -178.334 173 -175 L173 -82 C159.667 -81.3333 148.5 -78 139.5 -72 C130.5 -66 126 -57 126 -45 C126 -35.6667 129.5 -26.8333 136.5 -18.5 C143.5 -10.1667 155.667 -4.33333 173 -1 L173 -1 Z M106 569 C128.667 569 147.667 576.667 163 592 C178.333 607.333 186 626 186 648 C186 670.667 178.333 689.833 163 705.5 C147.667 721.167 128.667 729 106 729 C84 729 65.1667 721.167 49.5 705.5 C33.8333 689.836 26 670.669 26 648 C26 626 33.8333 607.333 49.5 592 C65.1667 576.667 84 569 106 569 L106 569 Z " />
<glyph glyph-name="Idotaccent" unicode="&#x130;" horiz-adv-x="231" d="M115 730 C137 730 155.5 737.333 170.5 752 C185.5 766.667 193 784.667 193 806 C193 827.33 185.333 845.163 170 859.5 C154.667 873.833 136.333 881 115 881 C93 881 74.8333 873.667 60.5 859 C46.1667 844.337 39 826.67 39 806 C39 784.667 46.5 766.667 61.5 752 C76.5 737.333 94.3333 730 115 730 L115 730 Z M185 0 L185 692 L46 692 L46 0 L185 0 Z " />
<glyph glyph-name="dotlessi" unicode="&#x131;" horiz-adv-x="212" d="M173 0 L173 535 L39 535 L39 0 L173 0 Z " />
<glyph glyph-name="IJ" unicode="&#x132;" horiz-adv-x="518" d="M185 0 L185 692 L46 692 L46 0 L185 0 Z M473 166 L473 692 L334 692 L334 181 C334 167 331.167 154.667 325.5 144 C319.833 133.333 307 128 287 128 L248 128 L248 0 C256.667 -0.666702 267 -1.00003 279 -1 L307 -1 C340.333 -1 367.667 3 389 11 C410.333 19 427.333 30.3333 440 45 C452.665 59.6667 461.332 77.1667 466 97.5 C470.667 117.833 473 140.667 473 166 L473 166 Z " />
<glyph glyph-name="ij" unicode="&#x133;" horiz-adv-x="424" d="M173 0 L173 535 L39 535 L39 0 L173 0 Z M106 569 C128.667 569 147.667 576.667 163 592 C178.333 607.333 186 626 186 648 C186 670.667 178.333 689.833 163 705.5 C147.667 721.167 128.667 729 106 729 C84 729 65.1667 721.167 49.5 705.5 C33.8333 689.836 26 670.669 26 648 C26 626 33.8333 607.333 49.5 592 C65.1667 576.667 84 569 106 569 L106 569 Z M384 0 L384 535 L250 535 L250 2 C250 -6 249.5 -13.6667 248.5 -21 C247.5 -28.3333 245.167 -34.8333 241.5 -40.5 C237.833 -46.1667 232.5 -50.6667 225.5 -54 C218.5 -57.3333 209.333 -59 198 -59 L174 -59 L174 -175 L213 -175 C245 -175 272 -170.833 294 -162.5 C316 -154.167 333.667 -142.167 347 -126.5 C360.333 -110.833 369.833 -92.3333 375.5 -71 C381.167 -49.6667 384 -26 384 0 L384 0 Z M317 569 C339 569 357.833 576.667 373.5 592 C389.167 607.333 397 626 397 648 C397 670.667 389.167 689.833 373.5 705.5 C357.833 721.167 339 729 317 729 C294.333 729 275.333 721.167 260 705.5 C244.667 689.836 237 670.669 237 648 C237 626 244.667 607.333 260 592 C275.333 576.667 294.333 569 317 569 L317 569 Z " />
<glyph glyph-name="Jcircumflex" unicode="&#x134;" horiz-adv-x="288" d="M234 854 L95 854 L-8 724 L115 724 L165 778 L214 724 L337 724 L234 854 Z M236 166 L236 692 L97 692 L97 181 C97 167 94.1667 154.667 88.5 144 C82.8333 133.333 70 128 50 128 L11 128 L11 0 C19.6667 -0.666702 30 -1.00003 42 -1 L70 -1 C103.333 -1 130.667 3 152 11 C173.333 19 190.333 30.3333 203 45 C215.667 59.6667 224.333 77.1667 229 97.5 C233.667 117.833 236 140.667 236 166 L236 166 Z " />
<glyph glyph-name="jcircumflex" unicode="&#x135;" horiz-adv-x="212" d="M174 0 L174 535 L39 535 L39 0 C39 -16 36.1667 -30 30.5 -42 C24.8333 -54 10.6667 -60.3333 -12 -61 L-37 -61 L-37 -175 C-28.3333 -175.667 -20.1667 -176 -12.5 -176 L5 -176 C37 -176 63.6667 -171.667 85 -163 C106.333 -154.333 123.667 -142.333 137 -127 C150.333 -111.667 159.833 -93.1667 165.5 -71.5 C171.167 -49.8333 174 -26 174 0 L174 0 Z M174 712 L40 712 L-56 570 L61 570 L107 632 L153 570 L270 570 L174 712 Z " />
<glyph glyph-name="Kcommaaccent" unicode="&#x136;" horiz-adv-x="558" d="M185 409 L185 692 L46 692 L46 0 L185 0 L185 297 L401 0 L564 0 L302 361 L560 692 L399 692 L185 409 Z M253 -176 L219 -250 L296 -250 L334 -174 C338.667 -164.667 343 -154.5 347 -143.5 C351 -132.5 353 -120.333 353 -107 C353 -87 346.333 -69.3333 333 -54 C319.667 -38.6667 301 -31 277 -31 C252.334 -31 233.167 -38.3333 219.5 -53 C205.833 -67.6667 199 -85 199 -105 C199 -124.333 204 -140 214 -152 C224 -164 237 -172 253 -176 L253 -176 Z " />
<glyph glyph-name="kcommaaccent" unicode="&#x137;" horiz-adv-x="496" d="M296 288 L489 535 L332 535 L173 325 L173 731 L39 731 L39 0 L173 0 L173 236 L334 0 L496 0 L296 288 Z M232 -176 L198 -250 L275 -250 L313 -174 C317.667 -164.667 322 -154.5 326 -143.5 C330 -132.5 332 -120.333 332 -107 C332 -87 325.333 -69.3333 312 -54 C298.667 -38.6667 280 -31 256 -31 C231.334 -31 212.167 -38.3333 198.5 -53 C184.833 -67.6667 178 -85 178 -105 C178 -124.333 183 -140 193 -152 C203 -164 216 -172 232 -176 L232 -176 Z " />
<glyph glyph-name="Lacute" unicode="&#x139;" horiz-adv-x="380" d="M260 854 L127 854 L54 724 L183 724 L260 854 Z M46 0 L360 0 L360 130 L185 130 L185 692 L46 692 L46 0 Z " />
<glyph glyph-name="lacute" unicode="&#x13a;" horiz-adv-x="212" d="M248 892 L115 892 L42 762 L171 762 L248 892 Z M173 0 L173 731 L39 731 L39 0 L173 0 Z " />
<glyph glyph-name="Lcommaaccent" unicode="&#x13b;" horiz-adv-x="380" d="M46 0 L360 0 L360 130 L185 130 L185 692 L46 692 L46 0 Z M175 -176 L141 -250 L218 -250 L256 -174 C260.667 -164.667 265 -154.5 269 -143.5 C273 -132.5 275 -120.333 275 -107 C275 -87 268.333 -69.3333 255 -54 C241.667 -38.6667 223 -31 199 -31 C174.333 -31 155.167 -38.3333 141.5 -53 C127.833 -67.6667 121 -85 121 -105 C121 -124.333 126 -140 136 -152 C146 -164 159 -172 175 -176 L175 -176 Z " />
<glyph glyph-name="lcommaaccent" unicode="&#x13c;" horiz-adv-x="212" d="M173 0 L173 731 L39 731 L39 0 L173 0 Z M82 -176 L48 -250 L125 -250 L163 -174 C167.667 -164.667 172 -154.5 176 -143.5 C180 -132.5 182 -120.333 182 -107 C182 -87 175.333 -69.3333 162 -54 C148.667 -38.6667 130 -31 106 -31 C81.3333 -31 62.1667 -38.3333 48.5 -53 C34.8333 -67.6667 28 -85 28 -105 C28 -124.333 33 -140 43 -152 C53 -164 66 -172 82 -176 L82 -176 Z " />
<glyph glyph-name="Lcaron" unicode="&#x13d;" horiz-adv-x="380" d="M46 0 L360 0 L360 130 L185 130 L185 692 L46 692 L46 0 Z M339 693 L231 693 L219 534 L325 534 L339 693 Z " />
<glyph glyph-name="lcaron" unicode="&#x13e;" horiz-adv-x="212" d="M173 0 L173 731 L39 731 L39 0 L173 0 Z M327 731 L219 731 L207 572 L313 572 L327 731 Z " />
<glyph glyph-name="Ldot" unicode="&#x13f;" horiz-adv-x="432" d="M331 267 C355.666 267 376.333 275.333 393 292 C409.667 308.667 418 329.333 418 354 C418 378.666 409.833 399.333 393.5 416 C377.167 432.667 356.334 441 331 441 C305.667 441 284.834 432.667 268.5 416 C252.167 399.333 244 378.667 244 354 C244 329.333 252.333 308.667 269 292 C285.666 275.333 306.333 267 331 267 L331 267 Z M46 0 L360 0 L360 130 L185 130 L185 692 L46 692 L46 0 Z " />
<glyph glyph-name="ldot" unicode="&#x140;" horiz-adv-x="365" d="M204 354 C204 330.667 212 311 228 295 C244 279 264 271 288 271 C311.333 271 331.167 279 347.5 295 C363.833 311 372 330.667 372 354 C372 377.333 363.833 397.167 347.5 413.5 C331.167 429.833 311.333 438 288 438 C264 438 244 429.833 228 413.5 C212 397.167 204 377.334 204 354 L204 354 Z M173 0 L173 731 L39 731 L39 0 L173 0 Z " />
<glyph glyph-name="Lslash" unicode="&#x141;" horiz-adv-x="381" d="M55 0 L369 0 L369 130 L194 130 L194 276 L304 335 L304 467 L194 404 L194 692 L55 692 L55 325 L7 298 L7 175 L55 201 L55 0 Z " />
<glyph glyph-name="lslash" unicode="&#x142;" horiz-adv-x="243" d="M188 505 L188 731 L54 731 L54 423 L7 394 L7 266 L54 294 L54 0 L188 0 L188 374 L237 403 L237 535 L188 505 Z " />
<glyph glyph-name="Nacute" unicode="&#x143;" horiz-adv-x="668" d="M467 854 L334 854 L261 724 L390 724 L467 854 Z M180 456 L483 0 L621 0 L621 692 L486 692 L486 228 L189 692 L45 692 L45 0 L180 0 L180 456 Z " />
<glyph glyph-name="nacute" unicode="&#x144;" horiz-adv-x="490" d="M319 337 L319 0 L453 0 L453 353 C453 379 450.167 403.333 444.5 426 C438.833 448.667 429.5 468.5 416.5 485.5 C403.5 502.5 386.333 516 365 526 C343.667 536 317.334 541 286 541 C269.333 541 254.667 539.333 242 536 C229.333 532.667 218.5 528.667 209.5 524 C200.5 519.333 193 514.333 187 509 C181 503.667 176.333 499 173 495 L173 535 L39 535 L39 0 L173 0 L173 337 C173 362.333 179.333 382.833 192 398.5 C204.667 414.167 223 422 247 422 C271.666 422 289.833 414.333 301.5 399 C313.167 383.667 319 363 319 337 L319 337 Z M388 710 L257 710 L181 572 L307 572 L388 710 Z " />
<glyph glyph-name="Ncommaaccent" unicode="&#x145;" horiz-adv-x="667" d="M181 456 L484 0 L622 0 L622 692 L487 692 L487 228 L190 692 L46 692 L46 0 L181 0 L181 456 Z M317 -176 L283 -250 L360 -250 L398 -174 C402.667 -164.667 407 -154.5 411 -143.5 C415 -132.5 417 -120.333 417 -107 C417 -87 410.333 -69.3333 397 -54 C383.667 -38.6667 365 -31 341 -31 C316.333 -31 297.167 -38.3333 283.5 -53 C269.833 -67.6667 263 -85 263 -105 C263 -124.333 268 -140 278 -152 C288 -164 301 -172 317 -176 L317 -176 Z " />
<glyph glyph-name="ncommaaccent" unicode="&#x146;" horiz-adv-x="490" d="M319 337 L319 0 L453 0 L453 353 C453 379 450.167 403.333 444.5 426 C438.833 448.667 429.5 468.5 416.5 485.5 C403.5 502.5 386.333 516 365 526 C343.667 536 317.334 541 286 541 C269.333 541 254.667 539.333 242 536 C229.333 532.667 218.5 528.667 209.5 524 C200.5 519.333 193 514.333 187 509 C181 503.667 176.333 499 173 495 L173 535 L39 535 L39 0 L173 0 L173 337 C173 362.333 179.333 382.833 192 398.5 C204.667 414.167 223 422 247 422 C271.666 422 289.833 414.333 301.5 399 C313.167 383.667 319 363 319 337 L319 337 Z M221 -176 L187 -250 L264 -250 L302 -174 C306.667 -164.667 311 -154.5 315 -143.5 C319 -132.5 321 -120.333 321 -107 C321 -87 314.333 -69.3333 301 -54 C287.667 -38.6667 269 -31 245 -31 C220.334 -31 201.167 -38.3333 187.5 -53 C173.833 -67.6667 167 -85 167 -105 C167 -124.333 172 -140 182 -152 C192 -164 205 -172 221 -176 L221 -176 Z " />
<glyph glyph-name="Ncaron" unicode="&#x147;" horiz-adv-x="668" d="M272 724 L411 724 L514 854 L391 854 L342 799 L293 854 L169 854 L272 724 Z M180 456 L483 0 L621 0 L621 692 L486 692 L486 228 L189 692 L45 692 L45 0 L180 0 L180 456 Z " />
<glyph glyph-name="ncaron" unicode="&#x148;" horiz-adv-x="490" d="M319 337 L319 0 L453 0 L453 353 C453 379 450.167 403.333 444.5 426 C438.833 448.667 429.5 468.5 416.5 485.5 C403.5 502.5 386.333 516 365 526 C343.667 536 317.334 541 286 541 C269.333 541 254.667 539.333 242 536 C229.333 532.667 218.5 528.667 209.5 524 C200.5 519.333 193 514.333 187 509 C181 503.667 176.333 499 173 495 L173 535 L39 535 L39 0 L173 0 L173 337 C173 362.333 179.333 382.833 192 398.5 C204.667 414.167 223 422 247 422 C271.666 422 289.833 414.333 301.5 399 C313.167 383.667 319 363 319 337 L319 337 Z M178 571 L312 571 L408 713 L291 713 L245 651 L199 713 L82 713 L178 571 Z " />
<glyph glyph-name="napostrophe" unicode="&#x149;" horiz-adv-x="634" d="M462 337 L462 0 L596 0 L596 353 C596 379 593.167 403.333 587.5 426 C581.833 448.667 572.5 468.5 559.5 485.5 C546.5 502.5 529.333 516 508 526 C486.668 536 460.334 541 429 541 C412.333 541 397.667 539.333 385 536 C372.333 532.667 361.5 528.667 352.5 524 C343.5 519.333 336 514.333 330 509 C324 503.667 319.333 499 316 495 L316 535 L182 535 L182 0 L316 0 L316 337 C316 362.333 322.333 382.833 335 398.5 C347.667 414.167 366 422 390 422 C414.666 422 432.833 414.333 444.5 399 C456.167 383.667 462 363 462 337 L462 337 Z M55 540 L4 433 L95 433 L145 540 C151.667 554.667 156.667 567.667 160 579 C163.333 590.329 165 602.662 165 616 C165 640 157.5 660 142.5 676 C127.5 692 107.333 700 82 700 C56.6667 700 36.3333 691.833 21 675.5 C5.66667 659.167 -2 639.333 -2 616 C-2 595.333 3.5 578.833 14.5 566.5 C25.5 554.167 39 545.333 55 540 L55 540 Z " />
<glyph glyph-name="Eng" unicode="&#x14a;" horiz-adv-x="667" d="M180 456 L484 2 L484 -11 C482.667 -22.3333 479 -31.8333 473 -39.5 C467 -47.1667 456 -51 440 -51 L408 -51 L408 -179 C414 -179 422 -179.167 432 -179.5 C442 -179.833 450.667 -180 458 -180 C490.666 -180 517.666 -176 539 -168 C560.333 -160 577 -148.833 589 -134.5 C601 -120.167 609.333 -102.833 614 -82.5 C618.667 -62.1667 621 -39.6667 621 -15 L621 692 L487 692 L487 231 L189 692 L46 692 L46 0 L180 0 L180 456 Z " />
<glyph glyph-name="eng" unicode="&#x14b;" horiz-adv-x="490" d="M453 0 L453 353 C453 379 450.167 403.333 444.5 426 C438.833 448.667 429.5 468.5 416.5 485.5 C403.5 502.5 386.333 516 365 526 C343.667 536 317.334 541 286 541 C269.333 541 254.667 539.333 242 536 C229.333 532.667 218.5 528.667 209.5 524 C200.5 519.333 193 514.333 187 509 C181 503.667 176.333 499 173 495 L173 535 L39 535 L39 0 L173 0 L173 337 C173 362.333 179.333 382.833 192 398.5 C204.667 414.167 223 422 247 422 C271.666 422 289.833 414.333 301.5 399 C313.167 383.667 319 363 319 337 L319 0 C319 -16 316.167 -30 310.5 -42 C304.833 -54 290.667 -60.3333 268 -61 L243 -61 L243 -175 C251 -175.667 259 -176 267 -176 L284 -176 C316 -176 342.833 -171.667 364.5 -163 C386.167 -154.333 403.5 -142.333 416.5 -127 C429.5 -111.667 438.833 -93.1667 444.5 -71.5 C450.167 -49.8333 453 -26 453 0 L453 0 Z " />
<glyph glyph-name="Omacron" unicode="&#x14c;" horiz-adv-x="764" d="M252 830 L252 731 L508 731 L508 830 L252 830 Z M22 345 C22 293.667 30.5 246.167 47.5 202.5 C64.5 158.833 88.5 121 119.5 89 C150.5 57 188.167 32 232.5 14 C276.833 -4 326.667 -13 382 -13 C436 -13 485.167 -3.83333 529.5 14.5 C573.833 32.8333 611.833 58.1667 643.5 90.5 C675.167 122.833 699.5 161 716.5 205 C733.5 249 742 296.333 742 347 C742 397.666 733.333 444.833 716 488.5 C698.667 532.167 674.333 570 643 602 C611.667 634 573.5 659.167 528.5 677.5 C483.5 695.833 433.667 705 379 705 C326.333 705 278.167 695.833 234.5 677.5 C190.833 659.167 153.167 633.833 121.5 601.5 C89.8333 569.167 65.3333 531 48 487 C30.6667 443 22 395.667 22 345 L22 345 Z M168 346 C168 378.667 172.833 409 182.5 437 C192.167 465 206.167 489.333 224.5 510 C242.833 530.667 265.167 546.833 291.5 558.5 C317.833 570.167 347.667 576 381 576 C413.666 576 443.333 570.167 470 558.5 C496.667 546.835 519.333 530.669 538 510 C556.667 489.333 571 465 581 437 C591 409 596 378.667 596 346 C596 313.333 591.167 283 581.5 255 C571.833 227 557.833 202.833 539.5 182.5 C521.167 162.167 498.667 146.167 472 134.5 C445.333 122.833 415.333 117 382 117 C350 117 320.833 122.833 294.5 134.5 C268.167 146.167 245.667 162.167 227 182.5 C208.333 202.833 193.833 227 183.5 255 C173.167 283 168 313.333 168 346 L168 346 Z " />
<glyph glyph-name="omacron" unicode="&#x14d;" horiz-adv-x="597" d="M153 267 C153 289.667 156.5 310.5 163.5 329.5 C170.5 348.5 180.167 365 192.5 379 C204.833 393 220 403.833 238 411.5 C256 419.167 276 423 298 423 C319.333 423 339 419 357 411 C375 403 390.5 392 403.5 378 C416.5 364 426.5 347.5 433.5 328.5 C440.5 309.5 444 289 444 267 C444 245 440.5 224.5 433.5 205.5 C426.5 186.5 416.833 170 404.5 156 C392.167 142 377 131.167 359 123.5 C341 115.833 321 112 299 112 C277.667 112 258 115.833 240 123.5 C222 131.167 206.5 141.833 193.5 155.5 C180.5 169.167 170.5 185.5 163.5 204.5 C156.5 223.5 153 244.333 153 267 L153 267 Z M19 266 C19 226.667 25.6667 190.167 39 156.5 C52.3333 122.833 71.3333 93.6667 96 69 C120.667 44.3333 150 25.1667 184 11.5 C218 -2.16667 256 -9 298 -9 C339.333 -9 377.167 -2 411.5 12 C445.833 26 475.333 45.5 500 70.5 C524.667 95.5 543.833 124.833 557.5 158.5 C571.167 192.167 578 228.667 578 268 C578 307.333 571.333 343.833 558 377.5 C544.667 411.166 525.833 440.333 501.5 465 C477.167 489.667 447.667 509 413 523 C378.333 537 340 544 298 544 C258 544 220.833 537 186.5 523 C152.167 509 122.667 489.5 98 464.5 C73.3333 439.5 54 410.167 40 376.5 C26 342.833 19 306 19 266 L19 266 Z M177 683 L177 585 L419 585 L419 683 L177 683 Z " />
<glyph glyph-name="Obreve" unicode="&#x14e;" horiz-adv-x="764" d="M381 723 C407 723 429.5 727 448.5 735 C467.5 743 483 753.333 495 766 C507 778.667 515.833 793 521.5 809 C527.167 825 530 841 530 857 L429 857 C429 846.333 425.167 836.5 417.5 827.5 C409.833 818.5 398 814 382 814 C365.333 814 353.333 818.5 346 827.5 C338.667 836.5 335 846.333 335 857 L233 857 C233 841 235.833 825 241.5 809 C247.167 793 256 778.667 268 766 C280 753.333 295.333 743 314 735 C332.667 727 355 723 381 723 L381 723 Z M22 345 C22 293.667 30.5 246.167 47.5 202.5 C64.5 158.833 88.5 121 119.5 89 C150.5 57 188.167 32 232.5 14 C276.833 -4 326.667 -13 382 -13 C436 -13 485.167 -3.83333 529.5 14.5 C573.833 32.8333 611.833 58.1667 643.5 90.5 C675.167 122.833 699.5 161 716.5 205 C733.5 249 742 296.333 742 347 C742 397.666 733.333 444.833 716 488.5 C698.667 532.167 674.333 570 643 602 C611.667 634 573.5 659.167 528.5 677.5 C483.5 695.833 433.667 705 379 705 C326.333 705 278.167 695.833 234.5 677.5 C190.833 659.167 153.167 633.833 121.5 601.5 C89.8333 569.167 65.3333 531 48 487 C30.6667 443 22 395.667 22 345 L22 345 Z M168 346 C168 378.667 172.833 409 182.5 437 C192.167 465 206.167 489.333 224.5 510 C242.833 530.667 265.167 546.833 291.5 558.5 C317.833 570.167 347.667 576 381 576 C413.666 576 443.333 570.167 470 558.5 C496.667 546.835 519.333 530.669 538 510 C556.667 489.333 571 465 581 437 C591 409 596 378.667 596 346 C596 313.333 591.167 283 581.5 255 C571.833 227 557.833 202.833 539.5 182.5 C521.167 162.167 498.667 146.167 472 134.5 C445.333 122.833 415.333 117 382 117 C350 117 320.833 122.833 294.5 134.5 C268.167 146.167 245.667 162.167 227 182.5 C208.333 202.833 193.833 227 183.5 255 C173.167 283 168 313.333 168 346 L168 346 Z " />
<glyph glyph-name="obreve" unicode="&#x14f;" horiz-adv-x="597" d="M153 267 C153 289.667 156.5 310.5 163.5 329.5 C170.5 348.5 180.167 365 192.5 379 C204.833 393 220 403.833 238 411.5 C256 419.167 276 423 298 423 C319.333 423 339 419 357 411 C375 403 390.5 392 403.5 378 C416.5 364 426.5 347.5 433.5 328.5 C440.5 309.5 444 289 444 267 C444 245 440.5 224.5 433.5 205.5 C426.5 186.5 416.833 170 404.5 156 C392.167 142 377 131.167 359 123.5 C341 115.833 321 112 299 112 C277.667 112 258 115.833 240 123.5 C222 131.167 206.5 141.833 193.5 155.5 C180.5 169.167 170.5 185.5 163.5 204.5 C156.5 223.5 153 244.333 153 267 L153 267 Z M19 266 C19 226.667 25.6667 190.167 39 156.5 C52.3333 122.833 71.3333 93.6667 96 69 C120.667 44.3333 150 25.1667 184 11.5 C218 -2.16667 256 -9 298 -9 C339.333 -9 377.167 -2 411.5 12 C445.833 26 475.333 45.5 500 70.5 C524.667 95.5 543.833 124.833 557.5 158.5 C571.167 192.167 578 228.667 578 268 C578 307.333 571.333 343.833 558 377.5 C544.667 411.166 525.833 440.333 501.5 465 C477.167 489.667 447.667 509 413 523 C378.333 537 340 544 298 544 C258 544 220.833 537 186.5 523 C152.167 509 122.667 489.5 98 464.5 C73.3333 439.5 54 410.167 40 376.5 C26 342.833 19 306 19 266 L19 266 Z M298 564 C324 564 346.333 568.333 365 577 C383.667 585.667 399 596.833 411 610.5 C423 624.167 431.667 639.5 437 656.5 C442.333 673.5 445 690.333 445 707 L346 707 C346 693.667 342.333 681.667 335 671 C327.667 660.333 315.667 655 299 655 C282.333 655 270.333 660.333 263 671 C255.667 681.667 252 693.667 252 707 L152 707 C152 690.333 154.667 673.5 160 656.5 C165.333 639.5 173.833 624.167 185.5 610.5 C197.167 596.834 212.333 585.668 231 577 C249.667 568.333 272 564 298 564 L298 564 Z " />
<glyph glyph-name="Ohungarumlaut" unicode="&#x150;" horiz-adv-x="764" d="M424 853 L296 853 L240 724 L363 724 L424 853 Z M597 853 L470 853 L410 724 L532 724 L597 853 Z M22 345 C22 293.667 30.5 246.167 47.5 202.5 C64.5 158.833 88.5 121 119.5 89 C150.5 57 188.167 32 232.5 14 C276.833 -4 326.667 -13 382 -13 C436 -13 485.167 -3.83333 529.5 14.5 C573.833 32.8333 611.833 58.1667 643.5 90.5 C675.167 122.833 699.5 161 716.5 205 C733.5 249 742 296.333 742 347 C742 397.666 733.333 444.833 716 488.5 C698.667 532.167 674.333 570 643 602 C611.667 634 573.5 659.167 528.5 677.5 C483.5 695.833 433.667 705 379 705 C326.333 705 278.167 695.833 234.5 677.5 C190.833 659.167 153.167 633.833 121.5 601.5 C89.8333 569.167 65.3333 531 48 487 C30.6667 443 22 395.667 22 345 L22 345 Z M168 346 C168 378.667 172.833 409 182.5 437 C192.167 465 206.167 489.333 224.5 510 C242.833 530.667 265.167 546.833 291.5 558.5 C317.833 570.167 347.667 576 381 576 C413.666 576 443.333 570.167 470 558.5 C496.667 546.835 519.333 530.669 538 510 C556.667 489.333 571 465 581 437 C591 409 596 378.667 596 346 C596 313.333 591.167 283 581.5 255 C571.833 227 557.833 202.833 539.5 182.5 C521.167 162.167 498.667 146.167 472 134.5 C445.333 122.833 415.333 117 382 117 C350 117 320.833 122.833 294.5 134.5 C268.167 146.167 245.667 162.167 227 182.5 C208.333 202.833 193.833 227 183.5 255 C173.167 283 168 313.333 168 346 L168 346 Z " />
<glyph glyph-name="ohungarumlaut" unicode="&#x151;" horiz-adv-x="597" d="M153 267 C153 289.667 156.5 310.5 163.5 329.5 C170.5 348.5 180.167 365 192.5 379 C204.833 393 220 403.833 238 411.5 C256 419.167 276 423 298 423 C319.333 423 339 419 357 411 C375 403 390.5 392 403.5 378 C416.5 364 426.5 347.5 433.5 328.5 C440.5 309.5 444 289 444 267 C444 245 440.5 224.5 433.5 205.5 C426.5 186.5 416.833 170 404.5 156 C392.167 142 377 131.167 359 123.5 C341 115.833 321 112 299 112 C277.667 112 258 115.833 240 123.5 C222 131.167 206.5 141.833 193.5 155.5 C180.5 169.167 170.5 185.5 163.5 204.5 C156.5 223.5 153 244.333 153 267 L153 267 Z M19 266 C19 226.667 25.6667 190.167 39 156.5 C52.3333 122.833 71.3333 93.6667 96 69 C120.667 44.3333 150 25.1667 184 11.5 C218 -2.16667 256 -9 298 -9 C339.333 -9 377.167 -2 411.5 12 C445.833 26 475.333 45.5 500 70.5 C524.667 95.5 543.833 124.833 557.5 158.5 C571.167 192.167 578 228.667 578 268 C578 307.333 571.333 343.833 558 377.5 C544.667 411.166 525.833 440.333 501.5 465 C477.167 489.667 447.667 509 413 523 C378.333 537 340 544 298 544 C258 544 220.833 537 186.5 523 C152.167 509 122.667 489.5 98 464.5 C73.3333 439.5 54 410.167 40 376.5 C26 342.833 19 306 19 266 L19 266 Z M340 710 L212 710 L153 572 L275 572 L340 710 Z M511 710 L386 710 L323 572 L443 572 L511 710 Z " />
</font>
</svg>
