<?xml version="1.0" encoding="iso-8859-1"?><!-- Generator: Adobe Illustrator 16.0.0, SVG Export Plug-In . SVG Version: 6.00 Build 0) --><!DOCTYPE svg PUBLIC "-//W3C//DTD SVG 1.1//EN" "http://www.w3.org/Graphics/SVG/1.1/DTD/svg11.dtd"><svg version="1.1" id="Layer_1" xmlns="http://www.w3.org/2000/svg" xmlns:xlink="http://www.w3.org/1999/xlink" x="0px" y="0px" width="192.756px" height="192.756px" viewBox="0 0 192.756 192.756" style="enable-background:new 0 0 192.756 192.756;" xml:space="preserve"><g><polygon style="fill-rule:evenodd;clip-rule:evenodd;fill:#FFFFFF;" points="0,0 192.756,0 192.756,192.756 0,192.756 0,0	"/><path style="fill-rule:evenodd;clip-rule:evenodd;fill:#FFFFFF;" d="M96.377,184.617c48.734,0,88.24-39.506,88.24-88.239	c0-48.732-39.506-88.24-88.24-88.24c-48.732,0-88.239,39.507-88.239,88.24C8.138,145.111,47.646,184.617,96.377,184.617	L96.377,184.617z"/><path style="fill:#CC2229;" d="M96.377,183.361c24.019,0,45.767-9.736,61.507-25.477s25.477-37.486,25.477-61.507	c0-24.02-9.736-45.766-25.477-61.506c-15.74-15.741-37.488-25.477-61.507-25.477c-24.02,0-45.765,9.736-61.506,25.477	C19.131,50.612,9.395,72.359,9.395,96.378c0,24.019,9.736,45.767,25.477,61.507S72.358,183.361,96.377,183.361L96.377,183.361z M96.377,185.875c-24.712,0-47.086-10.018-63.283-26.213c-16.195-16.197-26.213-38.57-26.213-63.284	c0-24.712,10.018-47.087,26.213-63.283C49.291,16.9,71.665,6.882,96.377,6.882s47.087,10.018,63.283,26.213	c16.197,16.196,26.215,38.57,26.215,63.283c0,24.714-10.018,47.087-26.215,63.284C143.465,175.857,121.09,185.875,96.377,185.875	L96.377,185.875z"/><path style="fill-rule:evenodd;clip-rule:evenodd;fill:#CC2229;" d="M96.365,178.441c45.313,0,82.049-36.736,82.049-82.051	c0-45.313-36.736-82.048-82.049-82.048c-45.313,0-82.049,36.735-82.049,82.048C14.315,141.705,51.051,178.441,96.365,178.441	L96.365,178.441z"/><path style="fill-rule:evenodd;clip-rule:evenodd;fill:#FFFFFF;" d="M96.784,173.707c-6.91,0-6.595-2.826-6.595-2.826	c-1.414-3.455-4.711-3.613-4.711-3.613c-5.025-0.314-4.711-4.553-4.711-4.553c-0.157-3.455,1.884-6.281,1.884-6.281	c11.542-15.705,10.051-39.104,10.051-39.104h7.851c0,0-1.492,23.398,10.051,39.104c0,0,2.041,2.826,1.885,6.281	c0,0,0.312,4.238-4.711,4.553c0,0-3.299,0.158-4.713,3.613c0,0,0.314,2.826-6.595,2.826H96.784L96.784,173.707z"/><path style="fill-rule:evenodd;clip-rule:evenodd;fill:#FFFFFF;" d="M91.602,117.33h-7.224c0,0-1.256,22.77-11.464,26.068	c0,0-2.669-6.281-11.15-7.225c0,0-13.191,0.629-13.819,13.191c0,0-0.628,8.166,8.323,13.35c0,0,10.364,5.967,19.787-2.828	C76.055,159.887,90.974,148.58,91.602,117.33L91.602,117.33z"/><path style="fill-rule:evenodd;clip-rule:evenodd;fill:#FFFFFF;" d="M101.967,117.33h7.223c0,0,1.256,22.77,11.465,26.068	c0,0,2.67-6.281,11.148-7.225c0,0,13.191,0.629,13.82,13.191c0,0,0.629,8.166-8.322,13.35c0,0-10.365,5.967-19.789-2.828	C117.512,159.887,102.594,148.58,101.967,117.33L101.967,117.33z"/><path style="fill-rule:evenodd;clip-rule:evenodd;fill:#FFFFFF;" d="M81.708,97.229c0,0-2.042,0.471-2.355,2.355v12.562	c0,0,0.314,2.355,2.355,2.355s29.995,0,29.995,0s2.197-0.312,2.355-2.355V99.74c0,0-0.471-2.197-2.355-2.512H81.708L81.708,97.229z	"/><path style="fill-rule:evenodd;clip-rule:evenodd;fill:#FFFFFF;" d="M111.389,94.559h-8.324c0,0-1.098-19.786,11.15-35.02	c0,0,7.381-9.894,19.002-10.208c0,0,4.869-0.157,9.107,1.256c0,0,2.67,1.256,6.754,5.81c0,0,2.355,5.654,14.918,11.464	c0,0,5.496,1.728,7.852,11.307c0,0,0.158,2.513-2.197,2.199c0,0-2.355,0.471-3.926-2.984c0,0-4.398-3.926-10.836,1.099	c0,0-1.885,3.298-9.109,3.769c0,0-5.967-0.471-9.422-3.612c0,0-8.637-8.794-19.316-0.157	C117.041,79.483,112.016,83.881,111.389,94.559L111.389,94.559z"/><path style="fill-rule:evenodd;clip-rule:evenodd;fill:#FFFFFF;" d="M81.866,94.559h8.322c0,0,1.1-19.786-11.149-35.02	c0,0-7.381-9.894-19.002-10.208c0,0-4.868-0.157-9.108,1.256c0,0-2.67,1.256-6.752,5.81c0,0-2.355,5.654-14.918,11.464	c0,0-5.497,1.728-7.853,11.307c0,0-0.157,2.513,2.199,2.199c0,0,2.356,0.471,3.926-2.984c0,0,4.397-3.926,10.836,1.099	c0,0,1.884,3.298,9.109,3.769c0,0,5.967-0.471,9.422-3.612c0,0,8.637-8.794,19.316-0.157	C76.212,79.483,81.237,83.881,81.866,94.559L81.866,94.559z"/><path style="fill:#FFFFFF;" d="M32.711,128.846v-33.18c0-1.884,0-3.769,3.769-3.769s3.769,1.884,3.769,3.769l0.001,33.18	c0,1.885,0,3.77-3.77,3.77S32.711,130.73,32.711,128.846L32.711,128.846z"/><path style="fill-rule:evenodd;clip-rule:evenodd;fill:#FFFFFF;" d="M40.276,90.536c0,0-0.131-3.351-3.271-3.462l-9.318,12.674	l12.589-0.025V90.536L40.276,90.536z"/><path style="fill:#FFFFFF;" d="M59.513,112.514c2.326,0,4.19-0.869,5.473-2.291c1.463-1.621,2.274-3.996,2.274-6.713	c0-2.684-0.841-5.035-2.325-6.652c-1.339-1.458-3.27-2.351-5.631-2.351c-2.327,0-4.193,0.869-5.475,2.29	c-1.463,1.623-2.275,3.998-2.275,6.713c0,2.684,0.841,5.035,2.327,6.652C55.22,111.621,57.151,112.514,59.513,112.514	L59.513,112.514z M59.513,120.053c-4.601,0-8.436-1.82-11.168-4.797c-2.764-3.008-4.33-7.164-4.33-11.746	c0-4.58,1.506-8.738,4.219-11.747c2.685-2.977,6.466-4.794,11.07-4.794c4.6,0,8.435,1.818,11.167,4.794	c2.763,3.01,4.328,7.167,4.328,11.747c0,4.582-1.505,8.74-4.218,11.748C67.897,118.234,64.117,120.053,59.513,120.053	L59.513,120.053z"/><path style="fill:#FFFFFF;" d="M52.504,124.803c0.006,0.002,2.16,1.018,7.371-0.596l0.03-0.016	c0.021-0.006,7.719-2.137,7.359-20.623c-0.036-1.883-0.073-3.768,3.697-3.826c3.769-0.059,3.806,1.826,3.842,3.709	c0.471,24.229-12.711,27.943-12.749,27.955l0.03-0.016c-7.98,2.471-12.717,0.248-12.73,0.242c-1.709-0.793-3.418-1.586-1.843-5.002	C49.086,123.215,50.795,124.01,52.504,124.803L52.504,124.803z"/><path style="fill-rule:evenodd;clip-rule:evenodd;fill:#FFFFFF;" d="M134.076,119.168c-0.367,2.438-1.004,4.312-1.902,5.623	c-0.902,1.309-2.16,1.965-3.777,1.965c-1.537,0-2.76-0.629-3.67-1.889c-0.912-1.26-1.557-3.119-1.936-5.576	c-0.377-2.457-0.566-5.611-0.566-9.461c0-5.674,0.445-9.871,1.336-12.596c0.891-2.723,2.49-4.085,4.805-4.085	c1.596,0,2.846,0.61,3.746,1.829c0.9,1.219,1.545,3.02,1.936,5.407c0.389,2.387,0.584,5.453,0.584,9.199	C134.631,113.537,134.445,116.732,134.076,119.168L134.076,119.168z M139.783,95.874c-0.758-1.942-1.688-3.572-2.791-4.893	c-1.105-1.319-2.387-2.322-3.848-3.006c-1.461-0.685-3.09-1.028-4.889-1.028c-2.699,0-5.029,0.771-6.992,2.312	s-3.453,3.78-4.475,6.718c-0.592,1.781-1.023,3.91-1.299,6.389c-0.273,2.479-0.412,5.264-0.412,8.355	c0,2.396,0.127,4.623,0.383,6.682c0.254,2.059,0.645,3.938,1.174,5.637c1.062,3.102,2.641,5.531,4.736,7.287	s4.461,2.633,7.098,2.633c2.289,0,4.373-0.652,6.254-1.957s3.414-3.16,4.6-5.568c0.939-1.965,1.584-4.156,1.932-6.572	c0.348-2.418,0.521-5.305,0.521-8.664C141.775,104.021,141.111,99.248,139.783,95.874L139.783,95.874z"/><path style="fill:#FFFFFF;" d="M158.346,112.463c2.324,0,4.189-0.869,5.473-2.291c1.461-1.621,2.273-3.996,2.273-6.713	c0-2.684-0.842-5.035-2.326-6.652c-1.338-1.458-3.268-2.35-5.631-2.35c-2.326,0-4.191,0.869-5.475,2.291	c-1.463,1.621-2.275,3.996-2.275,6.711c0,2.684,0.842,5.035,2.326,6.652C154.051,111.57,155.982,112.463,158.346,112.463	L158.346,112.463z M158.346,120.002c-4.602,0-8.438-1.82-11.17-4.795c-2.764-3.01-4.33-7.166-4.33-11.748	c0-4.58,1.506-8.738,4.221-11.747c2.684-2.977,6.465-4.794,11.068-4.794c4.602,0,8.436,1.819,11.168,4.794	c2.762,3.01,4.328,7.166,4.328,11.746c0,4.582-1.506,8.74-4.219,11.748C166.729,118.184,162.949,120.002,158.346,120.002	L158.346,120.002z"/><path style="fill:#FFFFFF;" d="M151.336,124.752c0.006,0.002,2.16,1.018,7.371-0.596l0.029-0.016	c0.021-0.006,7.719-2.137,7.359-20.623c-0.037-1.883-0.072-3.768,3.695-3.826c3.77-0.059,3.807,1.826,3.844,3.709	c0.471,24.23-12.713,27.943-12.75,27.955l0.031-0.016c-7.98,2.471-12.717,0.25-12.73,0.242c-1.709-0.793-3.418-1.586-1.844-5.002	C147.918,123.164,149.627,123.959,151.336,124.752L151.336,124.752z"/><path style="fill-rule:evenodd;clip-rule:evenodd;fill:#FFFFFF;" d="M96.784,19.495c10.208,0.628,11.464,10.05,11.464,10.05	c11.777,0.471,12.248,11.935,12.248,11.935c-0.941,9.108-7.381,14.291-7.381,14.291c-10.051,11.621-11.463,38.789-11.463,38.789	l-9.985-0.065c0,0-1.413-27.167-11.464-38.789c0,0-6.438-5.182-7.38-14.291c0,0,0.472-11.464,12.249-11.936	c0,0,1.256-9.421,11.463-10.05L96.784,19.495L96.784,19.495z"/></g></svg>