<?xml version="1.0" encoding="iso-8859-1"?><!-- Generator: Adobe Illustrator 16.0.0, SVG Export Plug-In . SVG Version: 6.00 Build 0) --><!DOCTYPE svg PUBLIC "-//W3C//DTD SVG 1.1//EN" "http://www.w3.org/Graphics/SVG/1.1/DTD/svg11.dtd"><svg version="1.1" id="Layer_1" xmlns="http://www.w3.org/2000/svg" xmlns:xlink="http://www.w3.org/1999/xlink" x="0px" y="0px" width="192.756px" height="192.756px" viewBox="0 0 192.756 192.756" style="enable-background:new 0 0 192.756 192.756;" xml:space="preserve"><g><polygon style="fill-rule:evenodd;clip-rule:evenodd;fill:#FFFFFF;" points="0,0 192.756,0 192.756,192.756 0,192.756 0,0	"/><path style="fill-rule:evenodd;clip-rule:evenodd;fill:#757678;" d="M19.892,92.148c0.633,0.27,1.153,0.683,1.561,1.238	c0.345,0.471,0.556,0.955,0.633,1.452c0.076,0.498,0.115,1.31,0.115,2.436v7.406h-3.353v-7.658c0-0.677-0.116-1.224-0.345-1.641	c-0.299-0.584-0.867-0.877-1.703-0.877c-0.867,0-1.524,0.291-1.973,0.872c-0.449,0.582-0.673,1.412-0.673,2.489v6.815h-3.313	V87.642h3.313v6.083c0.476-0.738,1.026-1.252,1.651-1.544c0.625-0.291,1.284-0.437,1.975-0.437	C18.555,91.743,19.259,91.878,19.892,92.148L19.892,92.148z"/><path style="fill-rule:evenodd;clip-rule:evenodd;fill:#757678;" d="M29.327,96.966c0.614-0.078,1.054-0.176,1.319-0.293	c0.474-0.202,0.711-0.518,0.711-0.946c0-0.522-0.182-0.883-0.546-1.082c-0.364-0.198-0.898-0.298-1.603-0.298	c-0.791,0-1.351,0.192-1.68,0.579c-0.234,0.286-0.391,0.671-0.469,1.157h-3.195c0.07-1.091,0.38-1.987,0.933-2.69	c0.878-1.099,2.386-1.649,4.524-1.649c1.391,0,2.626,0.267,3.707,0.798c1.081,0.533,1.621,1.565,1.621,3.098v5.835	c0,0.405,0.007,0.895,0.023,1.471c0.022,0.433,0.087,0.726,0.193,0.88s0.266,0.282,0.478,0.382v0.474h-3.565	c-0.1-0.251-0.169-0.486-0.208-0.707c-0.039-0.221-0.07-0.472-0.093-0.752c-0.459,0.498-0.99,0.924-1.589,1.273	c-0.717,0.413-1.528,0.619-2.431,0.619c-1.154,0-2.106-0.33-2.859-0.988c-0.751-0.658-1.127-1.592-1.127-2.8	c0-1.566,0.603-2.7,1.809-3.402c0.66-0.382,1.633-0.654,2.917-0.818L29.327,96.966L29.327,96.966z M31.345,98.514	c-0.211,0.134-0.425,0.241-0.64,0.324c-0.216,0.082-0.511,0.158-0.888,0.229l-0.751,0.141c-0.705,0.126-1.209,0.278-1.513,0.458	c-0.515,0.306-0.772,0.78-0.772,1.422c0,0.572,0.159,0.985,0.476,1.24c0.316,0.254,0.702,0.381,1.155,0.381	c0.719,0,1.382-0.211,1.988-0.634s0.921-1.194,0.944-2.314V98.514L31.345,98.514z"/><path style="fill-rule:evenodd;clip-rule:evenodd;fill:#757678;" d="M44.576,91.753c0.042,0.007,0.137,0.016,0.284,0.029v3.353	c-0.21-0.016-0.396-0.026-0.559-0.032c-0.163-0.005-0.295-0.008-0.395-0.008c-1.333,0-2.229,0.433-2.686,1.298	c-0.256,0.486-0.384,1.235-0.384,2.247v6.039h-3.313V92.059h3.155v2.194c0.509-0.844,0.954-1.421,1.332-1.731	c0.618-0.519,1.421-0.778,2.409-0.778C44.481,91.743,44.533,91.747,44.576,91.753L44.576,91.753z"/><path style="fill-rule:evenodd;clip-rule:evenodd;fill:#757678;" d="M62.566,92.069c0.546,0.217,1.041,0.598,1.486,1.14	c0.359,0.441,0.6,0.983,0.725,1.625c0.078,0.426,0.117,1.049,0.117,1.87l-0.023,7.976h-3.408v-8.067	c0-0.48-0.079-0.875-0.235-1.186c-0.298-0.589-0.846-0.884-1.644-0.884c-0.924,0-1.562,0.38-1.915,1.14	c-0.18,0.402-0.27,0.887-0.27,1.452v7.545h-3.313V97.14c0-0.751-0.078-1.297-0.233-1.639c-0.28-0.611-0.829-0.918-1.646-0.918	c-0.95,0-1.588,0.307-1.915,0.918c-0.179,0.349-0.269,0.868-0.269,1.557v7.623h-3.313V92.059h3.155v1.829	c0.411-0.657,0.8-1.124,1.165-1.402c0.645-0.494,1.48-0.742,2.505-0.742c0.971,0,1.755,0.213,2.353,0.638	c0.481,0.395,0.846,0.9,1.095,1.519c0.437-0.742,0.979-1.287,1.626-1.634c0.687-0.348,1.451-0.522,2.293-0.522	C61.466,91.743,62.02,91.853,62.566,92.069L62.566,92.069z"/><path style="fill-rule:evenodd;clip-rule:evenodd;fill:#757678;" d="M71.401,96.966c0.614-0.078,1.054-0.176,1.318-0.293	c0.475-0.202,0.712-0.518,0.712-0.946c0-0.522-0.183-0.883-0.547-1.082c-0.364-0.198-0.899-0.298-1.603-0.298	c-0.791,0-1.351,0.192-1.68,0.579c-0.235,0.286-0.391,0.671-0.469,1.157h-3.195c0.07-1.091,0.381-1.987,0.933-2.69	c0.878-1.099,2.387-1.649,4.524-1.649c1.391,0,2.626,0.267,3.707,0.798c1.08,0.533,1.621,1.565,1.621,3.098v5.835	c0,0.405,0.007,0.895,0.023,1.471c0.022,0.433,0.087,0.726,0.193,0.88s0.266,0.282,0.478,0.382v0.474H73.85	c-0.1-0.251-0.17-0.486-0.208-0.707c-0.039-0.221-0.069-0.472-0.092-0.752c-0.46,0.498-0.99,0.924-1.589,1.273	c-0.718,0.413-1.528,0.619-2.432,0.619c-1.153,0-2.106-0.33-2.858-0.988c-0.751-0.658-1.127-1.592-1.127-2.8	c0-1.566,0.603-2.7,1.809-3.402c0.66-0.382,1.633-0.654,2.917-0.818L71.401,96.966L71.401,96.966z M73.42,98.514	c-0.212,0.134-0.425,0.241-0.64,0.324c-0.216,0.082-0.511,0.158-0.887,0.229l-0.752,0.141c-0.705,0.126-1.209,0.278-1.513,0.458	c-0.514,0.306-0.771,0.78-0.771,1.422c0,0.572,0.159,0.985,0.475,1.24c0.317,0.254,0.702,0.381,1.156,0.381	c0.719,0,1.382-0.211,1.988-0.634c0.606-0.423,0.921-1.194,0.945-2.314V98.514L73.42,98.514z"/><path style="fill-rule:evenodd;clip-rule:evenodd;fill:#757678;" d="M89.762,92.773c0.823,0.687,1.235,1.821,1.235,3.404v8.503	h-3.432v-7.676c0-0.663-0.086-1.173-0.259-1.528c-0.315-0.649-0.916-0.973-1.801-0.973c-1.088,0-1.835,0.475-2.24,1.424	c-0.21,0.501-0.315,1.143-0.315,1.922v6.83h-3.313V92.059h3.195v1.861c0.421-0.652,0.819-1.121,1.195-1.409	c0.673-0.511,1.527-0.768,2.561-0.768C87.88,91.743,88.939,92.086,89.762,92.773L89.762,92.773z"/><polygon style="fill-rule:evenodd;clip-rule:evenodd;fill:#757678;" points="106.359,87.642 109.594,87.642 109.594,96.86	113.664,92.138 117.744,92.138 113.283,96.831 117.916,104.681 113.955,104.681 110.949,99.289 109.594,100.716 109.594,104.681	106.359,104.681 106.359,87.642	"/><path style="fill-rule:evenodd;clip-rule:evenodd;fill:#757678;" d="M124.537,96.966c0.613-0.078,1.053-0.176,1.318-0.293	c0.475-0.202,0.711-0.518,0.711-0.946c0-0.522-0.182-0.883-0.547-1.082c-0.363-0.198-0.898-0.298-1.604-0.298	c-0.791,0-1.35,0.192-1.68,0.579c-0.234,0.286-0.391,0.671-0.469,1.157h-3.195c0.07-1.091,0.381-1.987,0.934-2.69	c0.877-1.099,2.385-1.649,4.523-1.649c1.391,0,2.627,0.267,3.707,0.798c1.08,0.533,1.621,1.565,1.621,3.098v5.835	c0,0.405,0.008,0.895,0.023,1.471c0.021,0.433,0.086,0.726,0.191,0.88c0.107,0.154,0.266,0.282,0.479,0.382v0.474h-3.564	c-0.102-0.251-0.17-0.486-0.209-0.707s-0.07-0.472-0.092-0.752c-0.461,0.498-0.99,0.924-1.59,1.273	c-0.717,0.413-1.527,0.619-2.432,0.619c-1.154,0-2.105-0.33-2.857-0.988s-1.129-1.592-1.129-2.8c0-1.566,0.604-2.7,1.809-3.402	c0.662-0.382,1.635-0.654,2.918-0.818L124.537,96.966L124.537,96.966z M126.555,98.514c-0.211,0.134-0.426,0.241-0.641,0.324	c-0.215,0.082-0.51,0.158-0.887,0.229l-0.752,0.141c-0.705,0.126-1.209,0.278-1.512,0.458c-0.516,0.306-0.771,0.78-0.771,1.422	c0,0.572,0.158,0.985,0.475,1.24c0.316,0.254,0.701,0.381,1.156,0.381c0.719,0,1.381-0.211,1.986-0.634	c0.607-0.423,0.922-1.194,0.945-2.314V98.514L126.555,98.514z"/><path style="fill-rule:evenodd;clip-rule:evenodd;fill:#757678;" d="M139.311,91.753c0.043,0.007,0.137,0.016,0.285,0.029v3.353	c-0.211-0.016-0.396-0.026-0.559-0.032c-0.164-0.005-0.295-0.008-0.396-0.008c-1.332,0-2.229,0.433-2.686,1.298	c-0.256,0.486-0.383,1.235-0.383,2.247v6.039h-3.314V92.059h3.156v2.194c0.508-0.844,0.953-1.421,1.332-1.731	c0.617-0.519,1.42-0.778,2.408-0.778C139.217,91.743,139.268,91.747,139.311,91.753L139.311,91.753z"/><path style="fill-rule:evenodd;clip-rule:evenodd;fill:#757678;" d="M147.254,92.246c0.594,0.335,1.076,0.8,1.447,1.394v-5.998	h3.314v17.039h-3.156v-1.706c-0.471,0.748-1.01,1.292-1.613,1.631s-1.354,0.509-2.252,0.509c-1.479,0-2.723-0.598-3.732-1.797	c-1.008-1.197-1.514-2.733-1.514-4.609c0-2.163,0.496-3.864,1.488-5.104s2.318-1.861,3.979-1.861	C145.98,91.743,146.66,91.911,147.254,92.246L147.254,92.246z M148.09,101.301c0.486-0.701,0.73-1.609,0.73-2.726	c0-1.559-0.396-2.674-1.191-3.344c-0.477-0.405-1.029-0.608-1.658-0.608c-0.963,0-1.668,0.369-2.117,1.106	c-0.449,0.736-0.674,1.65-0.674,2.742c0,1.177,0.23,2.119,0.689,2.825c0.459,0.705,1.156,1.058,2.09,1.058	C146.895,102.354,147.604,102.003,148.09,101.301L148.09,101.301z"/><path style="fill-rule:evenodd;clip-rule:evenodd;fill:#757678;" d="M164.582,103.143c-1.064,1.314-2.682,1.972-4.85,1.972	c-2.17,0-3.787-0.657-4.852-1.972s-1.598-2.896-1.598-4.747c0-1.819,0.533-3.396,1.598-4.73s2.682-2.001,4.852-2.001	c2.168,0,3.785,0.667,4.85,2.001c1.066,1.333,1.6,2.911,1.6,4.73C166.182,100.246,165.648,101.828,164.582,103.143L164.582,103.143	z M161.971,101.32c0.52-0.688,0.779-1.668,0.779-2.937s-0.26-2.245-0.779-2.931c-0.52-0.684-1.264-1.027-2.232-1.027	s-1.715,0.343-2.238,1.027c-0.523,0.686-0.785,1.663-0.785,2.931s0.262,2.248,0.785,2.937c0.523,0.689,1.27,1.033,2.238,1.033	S161.451,102.01,161.971,101.32L161.971,101.32z"/><path style="fill-rule:evenodd;clip-rule:evenodd;fill:#757678;" d="M178.721,92.773c0.822,0.687,1.234,1.821,1.234,3.404v8.503	h-3.432v-7.676c0-0.663-0.086-1.173-0.26-1.528c-0.314-0.649-0.914-0.973-1.801-0.973c-1.088,0-1.834,0.475-2.24,1.424	c-0.209,0.501-0.314,1.143-0.314,1.922v6.83h-3.312V92.059h3.193v1.861c0.422-0.652,0.82-1.121,1.195-1.409	c0.674-0.511,1.527-0.768,2.561-0.768C176.838,91.743,177.896,92.086,178.721,92.773L178.721,92.773z"/><path style="fill-rule:evenodd;clip-rule:evenodd;fill:#757678;" d="M185.84,92.615c-0.486,0.471-1.07,0.706-1.75,0.706	c-0.703,0-1.297-0.241-1.777-0.723c-0.482-0.482-0.723-1.074-0.723-1.777c0-0.73,0.26-1.337,0.779-1.821	c0.49-0.453,1.062-0.679,1.721-0.679c0.689,0,1.277,0.244,1.768,0.733c0.488,0.488,0.732,1.077,0.732,1.767	C186.59,91.532,186.34,92.129,185.84,92.615L185.84,92.615z M182.629,89.371c-0.396,0.408-0.596,0.891-0.596,1.451	c0,0.579,0.203,1.072,0.605,1.478c0.402,0.405,0.887,0.607,1.453,0.607s1.051-0.204,1.451-0.611	c0.402-0.41,0.602-0.901,0.602-1.474c0-0.557-0.197-1.042-0.598-1.451c-0.404-0.417-0.889-0.625-1.455-0.625	C183.52,88.746,183.031,88.954,182.629,89.371L182.629,89.371z M182.99,92.207v-2.771c0.172,0,0.428,0,0.771,0.001	c0.342,0.002,0.533,0.004,0.57,0.005c0.221,0.016,0.402,0.063,0.547,0.142c0.246,0.136,0.369,0.356,0.369,0.662	c0,0.233-0.064,0.401-0.193,0.506c-0.131,0.104-0.289,0.167-0.48,0.187c0.174,0.037,0.305,0.09,0.393,0.161	c0.16,0.131,0.242,0.338,0.242,0.619v0.248c0,0.027,0.002,0.054,0.006,0.081c0.002,0.027,0.01,0.054,0.018,0.082l0.025,0.077	h-0.686c-0.023-0.087-0.037-0.215-0.045-0.381c-0.006-0.167-0.02-0.279-0.043-0.338c-0.037-0.097-0.104-0.164-0.205-0.203	c-0.053-0.022-0.137-0.037-0.246-0.044l-0.16-0.01h-0.154v0.976H182.99L182.99,92.207z M184.314,89.978	c-0.1-0.039-0.238-0.059-0.42-0.059h-0.176v0.809H184c0.17,0,0.301-0.033,0.396-0.102c0.094-0.068,0.141-0.179,0.141-0.331	C184.537,90.143,184.463,90.037,184.314,89.978L184.314,89.978z"/><polygon style="fill-rule:evenodd;clip-rule:evenodd;fill:#757678;" points="103.936,87.642 103.258,87.642 93.338,104.681	94.016,104.681 103.936,87.642	"/></g></svg>