<?xml version="1.0" encoding="utf-8"?><!-- Generator: Adobe Illustrator 19.2.0, SVG Export Plug-In . SVG Version: 6.00 Build 0) --><svg version="1.1" id="Layer_1" xmlns="http://www.w3.org/2000/svg" xmlns:xlink="http://www.w3.org/1999/xlink" x="0px" y="0px" viewBox="0 0 481.5 419" style="enable-background:new 0 0 481.5 419;" xml:space="preserve"><path d="M36.7,207.8c7.7-0.2,16.8-3.4,25.8-3.1c1.5-3.7,1.8-7.7,2.9-11.4c1.3-4.6,3.8-8.8,5.2-13.5c0.5-1.8,0.8-3.6,1.4-5.4	c0.4-1.3,1.1-2.5,1.6-3.8c0.3-0.7,0.5-1.4,0.7-2.1c0.2-0.8,0.1-1.5,0.4-2.2c0.3-0.9,0.7-1.7,1-2.6c0.5-1.7,0.9-3.5,1.3-5.3	c0.6-2.8,1.9-5.3,2.8-8c0.9-2.8,1.4-5.5,2-8.4c0.5-2.7,2-4.9,2.9-7.4c1.2-3.2,1.8-6.5,3.1-9.8c1.5-3.5,2.2-7.2,3.3-10.7	c1.9-5.9,4.9-12.3,7.4-18.1c1.7-3.9,3.6-7.9,4.7-12.2c0.3-1.4,0.6-2.9,1-4.3c0.4-1.2,1.6-4.6,2.9-4.9c2.4-0.6,6,4.5,7.3,6.2	c0.8,1,1.5,2.2,2.1,3.4c0.5,1.1,1.2,2,1.4,3.2c0.2,1.2,0.1,2.4-0.1,3.6c-0.4,2.5-1.2,5-2.1,7.4c-0.5,1.2-1,2.5-1.5,3.7	c-1.6,4.2-2.9,8-4.5,12.1c-2.3,5.9-4.9,11.6-6.8,17.8c-1.3,4.1-2.6,8.2-4,12.3c-1.7,4.9-3.2,9-4.4,14.4c-0.8,3.6-2.5,7.1-3.8,10.6	c-1.3,3.5-2.5,7.2-3.6,10.8c-1.8,6.2-4.5,12.1-5.8,18.5c-0.3,1.2-0.5,2.5-0.9,3.7c-0.4,1.1-0.8,2-0.5,3.2c3.7,1,8.2,0.9,12.2,0.9	c1.2-2.8,2.5-5.6,3.6-8.5c2-4.2,4.4-9.4,8.5-13.4c0.8-0.7,1.7-1.1,2.3-1.9c2.9-3.5,6.4-6.7,11.4-9.3c0.9-0.5,3.6-1.7,4.4-1.7	c3.1-0.1,4.5,3.9,7,5.2c1.6,0.8,3.1,1.7,4.6,2.7c1.8,1.1,3.2,2.1,4.4,3.9c1.1,1.7,1.9,3.5,2.1,5.6c0.2,2.2-0.9,4.8-1.3,7.9	c-0.6,4.4-0.8,8-2.7,10.7c-1.7,1.4-3.6,2.6-5.5,3.8c-0.9,0.6-1.8,1.2-2.7,1.8c-1.4,0.9-2.4,1.4-3.9,1.8c-1.5,0.4-3,0.9-4.5,1.4	c-3,1.1-6,2.3-9.1,3c-0.5,0.1-5.3,0.7-5.3,0.7c-1.5,6.5,0.4,15.2,3.6,19.7c2.2,1.1,5.8-0.7,8.2-2c3-1.7,6-4.3,8.6-6.7	c5.8-5.4,11-11.7,15-18.5c1-1.8,1.9-3.5,3.1-5.1c0.4-0.5,0.9-1.1,1.1-1.7c1-2.8,2.3-5.3,3.4-8c1.2-2.6,2.7-5.8,3.1-8.7	c0.6-4.1-1.2-8.3-0.1-11.9c0.4-1.4,1.7-2.6,2.5-3.8c0.4-0.7,0.8-1.4,0.9-2.2c0.2-2.1,2.7-2.4,4.3-1.4c1.7,1.1,2.5,3.4,3.8,4.9	c1.2,1.4,3.3,2.8,3.7,3.6c0.9,2-0.3,4.4,1.2,5.7c3.6-0.7,6.1-2.7,9.2-2.4c1.9,0.2,3.4,1.4,5,2.2c1.6,0.9,4.1,0.8,5.3,2.2	c0.9,1,1.4,2.3,1.9,3.5c1.1,2.5,1.8,5.3,1.6,8.1c-0.2,2.7-2.2,4.3-3.2,6.2c-7.6,6.8-14,14.7-17,25.3c0.1,1-1.1,2.9-0.5,3.8	c0.6,0.9,3.2-1.8,3.7-2.2c0.6-0.4,1.1-0.9,1.6-1.4c1.7-1.5,3.4-3.1,5.1-4.6c3.4-3,6.6-6.2,9.3-9.7c-2.2-5.3,1.1-9.5,5.7-6.4	c3-3,4.8-6.8,7.4-10.3c1-1.3,2.2-2.5,3-3.9c0.9-1.5,1.5-3.1,2.3-4.7c0.9-1.9,2.4-3.2,3.4-5c1-1.7,1.9-3.4,2.8-5.1	c0.5-0.9,0.9-1.8,1.4-2.7c0.4-0.7,0.8-1.4,0.9-2.3c0.1-0.9-0.2-1.9-0.2-2.9c-0.1-1-0.1-2-0.2-3c0-0.7-0.3-2.3,0-2.9	c0.3-0.7,1.4-0.8,2.2-1c0.1,0,0.3-1.1,0.3-1.2c0.2-0.4,0.4-0.7,0.7-1c0.7-0.6,1.8-0.7,2.7-0.7c1.6,0,3.4,0.6,4.2,2	c0.5,0.9,0.8,2.1,0.9,3.1c2.1,1.9,5,5.2,5,8.9c0,1.4-1.1,2.7-1.3,4.1c-0.8,5.1,0.4,11.8,1.7,17.6c1.2,5.1,2,12.3,2.4,18.4	c1.6-0.8,2.3-2.5,3.2-3.9c1.9-2.8,3.8-5.7,5.4-8.9c1.9-3.6,3-6.7,5.3-10.1c1.1-1.7,2.4-3.3,3.5-4.9c2.3-3.4,4.4-7,7-9.7	c1.8-1.8,3.8-3.5,5.8-5.1c1-0.8,2-1.7,3-2.5c0.9-0.8,1.6-1.9,2.7-2.5c0.9-0.5,2-0.6,2.9-0.9c1.1-0.3,2.2-0.6,3.4-0.7	c2.1-0.3,4.3-0.5,6.2,0.5c1.8,1,4.1,2.1,5.2,3.9c1.1,1.9,2,3.6,4.1,4.4c0.6,0.2,1.2,0.3,1.8,0.2c1-0.1,2-0.4,2.9,0.3	c0.8,0.7,1.2,1.8,1.3,2.8c0.3,2.2-0.4,4.3-1.1,6.3c-0.3,0.9-0.7,1.7-1,2.6c-0.3,0.8-1,1.3-1.5,2c-0.6,0.9-1.2,1.8-1.7,2.8	c-0.7,1.2-1.1,2.6-1.7,3.9c-0.5,1.3-1.4,2.3-2,3.6c-1.1,2.2-1.8,3.9-5.4,2.6c-1.1-0.4-2.1-1.2-3-1.9c-0.8-0.6-1.7-1.1-2.3-2	c-0.7-1-0.5-2.1-0.8-3.3c-0.3-1.2-0.9-2.1-0.9-2.8c-0.1-1.2,0.6-2.1,1.1-3.1c0.3-0.6,0.7-1.8,0-2.3c-0.7-0.6-2.1-0.1-2.8,0.3	c-2,1-3.3,3.3-4.8,4.9c-2.1,2.3-4.5,4.7-6.2,7.3c-0.8,1.2-1.5,2.9-2.5,4.4c-0.9,1.4-2.1,2.8-2.6,4.5c-1.5,5.2-2.4,9.1,1.8,13.1	c0.6,0.6,1.2,0.6,2,0.9c0.6,0.2,1.1,0.6,1.6,0.9c1.4,0.9,3,1.4,4.7,1.2c4.6-0.5,11.1-4,15.3-6.1c1.9-0.9,3.4-2.7,5.1-3.9	c1.8-1.3,3.5-2.7,4.8-4.5c0.3-0.5,0.8-1.3,1.1-2c1.5-3.3,2.8-6.5,4.1-9.8c0.8-2.2,1.8-4.3,2.6-6.4c0.4-1.1,0.8-2.2,1.1-3.4	c0.6-2.2,2.4-3.8,3.3-5.8c1.2-2.5,2.3-5.1,3.5-7.7c0.7-1.5,1.4-3,2.1-4.5c1.3-2.7,2.2-5.6,3.3-8.5c0.5-1.4,1.1-2.8,1.8-4.1	c0.6-1.2,1.3-2.3,1.6-3.6c0.2-1.3,0.6-2.4,1.1-3.6c0.6-1.2,1.3-2.4,1.7-3.7c1.2-3.4,3-6.5,4.4-9.8c0.9-2.3,1.6-4.8,2.8-7	c1.8-3.3,2.8-7.1,4.6-10.5c1.2-2.2,2.1-4.1,3.1-6.8c0.8-2.2,2.6-3.9,3.6-6c1.3-2.6,1.9-5.6,3.2-8.3c1.2-2.5,2.6-4.9,3.6-7.5	c1-2.5,1.7-4.9,2.9-7.3c0.8-1.5,2.2-5.7,3.6-6.2c3.9-1.3,7.2,4.9,8.9,7.5c0.7,1.1,1.4,2.4,1.6,3.6c0.4,2.1-0.3,4.9-0.8,7.2	c-1.3,6.8-4.3,11.9-6.7,17.4c-6,10.6-12,21.3-18.2,31.7c-1,1.6-2.1,3.3-3,4.9c-0.7,1.3-0.9,2.8-1.4,4.2c-0.5,1.4-1.4,2.7-2.1,4	c-0.6,1.2-1.1,2.3-1.4,3.6c-0.3,1.1-0.5,2.2-1,3.2c-0.6,1-1.1,2.1-1.6,3.2c2-0.7,3.8-1.7,5.6-2.8c0.9-0.5,1.7-1.1,2.6-1.7	c1.5-1,3.7-1.5,5.4-2.1c1.9-0.8,3.8-1,5.8-0.5c2.4,0.6,4.5,2,6.4,3.5c1.4,1,2.8,2,4,3.3c1,1.2,2.4,2.9,2.8,4.4c1,3.4-0.9,6-1.4,8.9	c-0.3,1.5,0,3-0.3,4.5c-0.3,1.2-0.8,2.4-1.4,3.6c-1.2,2.3-2.7,4.5-3.9,6.9c-0.6,1.3-1.1,2.7-1.7,4c-0.8,1.6-2.1,2.8-2.8,4.4	c-0.7,1.6-1.2,3.2-1.9,4.8c-0.8,1.8-1.6,3.5-2.3,5.3c-0.7,1.8-2.4,5,0.1,5.9c1.6,0.5,5.3-1.6,7.2-3.2c1.5-1.2,2.8-2.6,4.3-3.8	c1.6-1.2,3.3-2.2,4.7-3.7c1.6-1.7,3.2-3.4,4.6-5.2c0.8-3.1,0.5-7.3,1.5-10.6c0.9-2.8,2.6-6,4.1-9.2c3.7-7.8,8.3-13.1,15.1-18.6	c1.4-1.1,2.6-2.6,3.7-3.1c3.7-1.6,8.9,0,11.3,2.2c1.6,1.4,3.6,3,5.5,4.5c2.4,2,5.9,3.9,6.7,7.2c0.4,1.7,0,3.4-0.3,5.1	c-0.4,2-0.8,4-1.3,5.9c-0.5,1.9-1.3,4.2-2.5,5.8c-0.6,0.8-1.9,1.8-2.9,2.8c-1.8,1.8-3.8,3.3-5.7,5c-2.4,2.1-4.9,4.1-7.6,5.9	c-1.7,1.1-4,3.5-7,3c-2.4-0.4-4.1-3-6.2-4c-1.4,4.8,1.4,9.4,4,13.3c0.7,1,1.5,1.4,2.6,1.7c2.8,0.9,5.6-0.9,7.8-2.4	c3.5-2.3,5.6-5,8.7-7.5c1.7-1.4,3.6-2.5,4.9-3.8c1-1,1.9-2.6,2.8-3.8c1.6-2.3,3.6-5,5.8-7c1.1-1.1,2.6-1.8,3.7-2.9	c0.9-0.9,2-2.5,3.4-4.1c3-3.5,4.1-6.4,4.7-11.5c0.4-3.3,0.6-6.7,1.1-10.1c0.4-2.8,0.7-5.9,1.4-9.1c0.4-1.9,0.7-3.5,1.1-6	c1.4-9,5.5-17.8,8.1-26.3c0.7-2.1,0.9-4.4,1.6-6.6c0.7-2.1,2-3.9,2.6-6c0.5-1.8,0.8-3.7,1.4-5.4c0.7-1.8,1.9-3.3,2.9-5	c0.9-1.6,1.6-3.4,2.4-5c3.2-6.7,6.4-13.7,9.9-20.4c1.8-3.4,4-6.6,5.5-9.7c1.2-2.4,1.5-6.3,4.6-6.7c2.6-0.4,7.2,1.5,8.8,2.7	c2.7,2.1,0.9,8.7,0.1,12.1c-0.7,2.8-1.2,5.6-1.4,8.5c-0.1,1.2-0.1,2.4-0.5,3.5c-0.9,3-1.7,5.8-2.2,8.9c-0.5,3.3-0.9,6.6-1.5,9.9	c-0.3,1.8-1.3,3.4-1.5,5.3c-0.2,2.1-0.2,4.3-1.1,6.3c-1.2,2.7-2.2,5.3-2.9,8.1c-0.7,2.8-1.5,5.7-3,8.2c-1.3,2.1-2,4.4-2.8,6.8	c-0.9,2.5-2.2,4.9-3.2,7.4c-1.7,3.7-3.3,7.5-5.2,11.1c-3.3,6.3-7.2,12.4-10.9,18.6c-0.8,1.2-1.3,2.7-1.9,3.7	c-0.9,1.4-2.2,2.3-2.6,3.6c-0.8,3.1-0.4,8.3,0.2,12.7c0.4,3,0.5,6,0.9,9c0.2,1.4,0.4,2.8,0.7,4.1c0.2,0.8,0.4,2.6,1.4,3	c1.4,0.5,3.6,0.3,5.1,0.2c1.7-0.1,3.4-0.5,4.9-1.4c1.2-0.8,2.5-1.4,3.8-2.1c1.2-0.6,2.3-1.6,3.5-2.1c3-1.1,5.4-3.6,7.6-5.9	c1.6-1.6,3.5-5.6,5.9-6c3.1-0.5,4.4,3.1,3.3,6c-0.8,2.1-2.2,4-3.4,6c-1.5,2.4-2.8,4.6-4.9,6.6c-2.3,2.1-4.8,4-7.3,5.9	c-0.6,0.5-1,1.2-1.7,1.6c-0.7,0.5-1.5,0.7-2.2,1.3c-1.4,1.1-3,1.8-4.5,2.7c-1.6,0.9-3.1,1.9-5,2.3c-2.5,0.5-5,0.5-7.5,0.5	c-1.7,0-3.5,0.4-5.2-0.4c-1.6-0.8-3.1-1.9-4.8-2.7c-2.4-1.1-3.5-3.5-4.1-5.9c-0.8-3-1.3-6-1.5-9.1c-0.1-1.7-0.2-3.5-0.2-5.2	c-8.7,6.2-18.7,18.3-28.4,24.5c-2.1,1.3-7.2,1.8-10.2,1c-2.4-0.6-4.3-2.5-6.7-3.4c-1.8-0.7-3.3-1.4-4.6-2.9c-1.6-1.9-2.8-4-4.3-5.9	c-0.8-1.1-1.7-2.1-2.8-2.8c-0.3-0.2-2.1,1.2-2.4,1.3c-1.1,0.6-1.7,1.3-2.6,2.2c-0.6,0.6-1.3,1.2-1.9,1.8c-1.4,1.2-2.9,2.3-4.5,3.2	c-3.4,1.9-7.3,3.5-11.2,3.9c-1.2,0.1-2.3,0.1-3.5,0c-2.5-0.3-4.4-1-6.5-2.3c-1.8-1-3.9-1.9-5-3.7c-0.6-1.1-1-2.5-1.1-3.8	c-0.1-1.7,0.8-4.2,1.3-6.4c0.4-2.1,0.9-4.4,1.5-6.2c1.2-3.4,3.2-6.8,4.4-10.3c0.9-2.4,2.1-4.7,3.1-7.1c0.9-2.2,1-4.5,1.4-6.8	c0.2-1.8,0.7-4.2-0.7-5.6c-2.7-2.5-7.4-0.6-9.9,1c-1.4,0.8-2.7,1.7-4.1,2.5c-1,0.6-2.3,1.1-3.1,2.1c-0.6,0.7-1.1,1.6-1.8,2.3	c-0.9,0.9-1.9,1.7-2.7,2.7c-0.9,1-1.1,2-1.5,3.2c-0.3,1-0.7,1.9-1.1,2.8c-0.7,1.8-1.6,3.6-2.3,5.4c-0.9,2.3-2.2,4.9-3.2,8	c-1.5,4.6-3.5,9.9-4.6,15.1c-0.5,2.6-0.4,5.4-1.3,7.9c-0.3,0.8-1.7,2.8-2.6,3c-1,0.2-3.1-1.1-4.6-1.6c-3.1-1.2-5.8-1.5-6.6-5.4	c-2.5,0.8-4.2,2.1-6.4,3.3c-0.8,0.5-1.7,1.3-2.6,1.8c-1,0.5-2.1,0.7-3.2,0.9c-0.5,0.1-1.1,0.2-1.6,0.4c-1.1,0.4-1.8,0.7-3,0.7	c-1.3,0-2.5,0-3.8,0c-2.5-0.1-5-0.4-7.5-0.7c-1.4-0.2-2.8,0-4.2-0.6c-1.2-0.5-2.2-1.4-3.2-2.2c-2.2-1.7-4.2-3.9-5.8-6.2	c-1.6-2.3-2.6-5.1-3.4-8.7c-1.9,1.2-3.4,3.3-4.7,5.3c-1.3,1.9-2.4,3.9-3.8,5.8c-2.7,3.7-5.5,8-8.8,10.7c-2.7,2.2-8.9,4.1-13.7,3.4	c-9.1-1.4-14.6-8.5-19.3-15.3c-3.3,3-7.2,7.1-11.1,10.5c-2.7,2.3-3.8,3.6-7.2,5.1c-2.2,1-4.7,1.2-7.1,1.1c-1.3,0-2.6-0.2-3.8-0.4	c-1.1-0.2-2.2-0.3-3.1-1c-0.9-0.7-1.5-1.9-2-2.9c-1.1-2.5-1.8-5.2-2-8c-0.2-1.6-0.2-3.2-0.3-4.8c0-1.7,0.3-3.7,0.7-5.3	c0.4-1.5,1.2-3.9,1.8-5.6c0.6-1.9,1.8-4.5,2.9-6.6c0.9-1.6,3.5-5.1,3.4-6.2c-0.3-2.9-5.1-2.5-6.8-3.5c-2.6,1.9-3.6,5.2-5.5,7.9	c-0.9,1.3-1.8,2.6-2.5,4c-0.8,1.4-1.3,3-2.1,4.4c-0.8,1.4-2.1,2.6-2.9,4c-0.8,1.4-1.6,2.9-2.5,4.2c-1.9,2.8-3.3,5.9-5,8.6	c-1.6,2.5-3.5,5.3-5.9,7.9c-2.4,2.6-5,5.6-8.3,7.1c-1.7,0.8-3.6,0.9-5.4,1.1c-2.1,0.2-4.2,0.6-6.3,1c-2.2,0.5-4.6,1-6.9,0.8	c-1.6-0.2-3.4-1.1-5-1.8c-1.2-0.5-2.5-0.9-3.7-1.7c-1.3-0.9-2-2.1-2.8-3.4c-0.6-1-1.6-1.7-2.2-2.7c-3.4-5.3-4-12.6-4.1-20.3	c-4.8-0.4-9.8-0.8-14.4-1.5c-0.4-0.1-3.6,10.9-3.9,11.9c-1.2,4.2-2.3,8.4-3.2,12.7c-0.4,1.8-0.4,3.6-0.9,5.4c-0.2,0.8-0.7,1.5-1,2.3	c-2.5,6.5-4.7,13-6.6,19.7c-0.3,1.2-0.8,2.3-1.4,3.4c-0.9,1.6-1.9,0.9-3.4,1.4c-0.7,0.2-1.1,0.8-1.9,0.6c-0.8-0.2-1.1-1-1.3-1.7	c-0.4-1.7,0.1-3.5,0.1-5.2c0-2.6-0.7-5.3-0.6-8.1c0.1-2.1,0.5-4.2,0.6-6.3c0.3-3.1,1-6.1,1.6-9.1c1-4.9,1-9.7,2-14.2	c0.9-4.3,2-8.9,3.1-12.8c-8.8,1-18.1,3.3-25.8,5.9c-1.1,0.7-0.8,2.3-1.3,3.9c-0.5,1.8-1.6,3.5-2,5.6c-1,5.2-2.4,10.6-3,16.2	c-0.4,3-0.6,5.6-1.3,8.5c-1.5,7-2.8,14-4.5,20.9c-0.2,0.8-0.2,1.8-0.7,2.5c-0.6,0.7-1.5,0.7-2.1,1.3c-0.8,0.8-0.8,2.8-1.9,3.3	c-0.8,0.4-3.8-0.5-4.5-1.2c-0.7-0.6-0.7-2.1-0.8-2.9c-0.4-2.3-0.4-4.7-0.3-7c0.1-3.5,0.7-7.1,1.3-10.5c0.3-1.9,0.7-3.8,1-5.8	c1.4-9.2,1.8-18.1,3.5-26.7c-2.3,0.6-6.1,2.3-8.8,1.7c-1.8-0.4-4.5-3-5.5-5.1c-0.9-1.9-1.5-3.8-1.8-5.9c-0.1-0.8-0.7-2.3-0.4-3.1	c0.3-0.9,0.9-0.7,1.6-0.5c1.5,0.4,2.6-0.4,4.1-0.9c1.7-0.6,3.4-1.2,5.1-1.8c3.3-1.1,6.6-2.1,9.6-4c0.7-2.6,0.9-5.4,1.5-8.1	c1.3-5.8,2.6-11.3,3.9-17.5c0.5-2.4,0.6-5,1.2-7.4c0.2-0.8,0.6-1.4,0.8-2.2c0.2-0.8,0-1.7,0.2-2.5c0.2-1.1,0.5-2.1,0.9-3.1	c0.7-2.1,1.4-4.2,1.8-6.4c1-5.6,1.3-11.7,2.7-17.4c1.3-5.2,3.5-10.4,4.3-16.1c0.3-2.3,0.2-4.5,0.8-6.8c0.3-1.2,1.3-2.1,1.6-3.3	c0.3-1.1,0-2.4,0.3-3.6c2.1-10.1,5.8-19.8,8.5-29.7c0.4-1.4,0.7-2.7,1-4.1c0.3-1.4,0.3-2.8,1-4.1c0.7-1.3,1.3-2.7,1.7-4.2	c0.8-3.1,1.2-6.2,1.9-9.3c0.4-1.6,0.9-3.2,1.7-4.7c0.7-1.2,3.4-0.2,4.3,0.2c0.7,0.3,1.4,0.7,2.1,1c1.2,0.4,2,0.6,2.9,1.6	c0.7,0.8,1.4,1.6,2.3,2.2c1.7,1.3,3.3,3,4,5.1c0.5,1.4,0.6,3,0.5,4.5c-0.1,1.4-1.2,2.9-1.7,4.3c-1.2,3.9-2,7.5-3.3,11.2	c-3.5,10.3-7.1,21.2-10.7,31.8c-0.6,1.7-1.4,3.5-1.8,5.2c-1.2,4.7-1.4,9.7-2.8,14.3c-0.7,2.2-1.6,4.2-2.1,6.5	c-0.5,2.3-1.3,4.4-1.9,6.7c-2.7,11.1-4.7,22.3-7.7,33.1C40.2,196.8,37.5,201.5,36.7,207.8z M465.3,102.2c-3.2,7-6.3,13.1-8.1,21.4	c-0.5,0.7-0.6,2-1.1,3.4c-0.1,3.3-8.9,24.9-8.7,27.9c2-2.9,9.8-25.6,11.4-28.8c0.1-0.7,0.3-0.6,0.3-1.1c3.6-6.9,5.2-14.7,6.8-22.8	C465.7,102.2,465.5,102.2,465.3,102.2z M124.5,186.9c-4.5,4.2-8.4,9.2-12,13.9c-0.9,1.1-2.4,2.4-2.1,4c8.3-2.3,14.6-9,14.8-17.9	C125,186.9,124.8,186.9,124.5,186.9z M208.3,227.8c1.4,1.1,3.1,2.1,4,2.1c1.1-0.1,3.1-1.9,3.9-2.7c2.4-2.2,4.3-5,4.5-8	c0.4-7.8-2.1-16.9-2.2-24.5c-0.3,0-0.3-0.2-0.6-0.1c-6.6,7.4-9.7,17.7-15.7,25.6c1.6,1.6,2.5,3.8,3.9,5.6	C206.5,226.2,207.3,227,208.3,227.8z M383.6,197.4c2.8-1.1,15-12.5,14.2-20C392.7,176.2,384.7,194.2,383.6,197.4z"/><path d="M220.7,3.6c0.2,3.6,1.3,8,1.4,12.4c2.2,0.3,7.7-2.3,7.2,1.2c-0.3,2.3-4.5,1.5-7.2,2c0.4,4.6,0.7,9.3,1.6,13.4	c2.4,0.2,8.6-2.5,9.2,0.2c0.7,3.4-10.5,3.3-12.4,2c-1.8-10-1.9-22.8-2.6-33.3c1.6-1,5.3-1,8-1.2c1.2-0.1,3.1-0.4,3.4,1	C229.8,4.1,223.3,3.2,220.7,3.6z"/><path d="M245.3,3.4c-1.5-2-5.3-0.6-6.1,1.4c-0.6,1.3-0.6,3.6-0.1,5c0.9,2.6,3.7,4.5,5.6,7.4c2.7,4.1,5.7,8.4,3.2,14.2	c-2,3.1-8.7,4.3-11.4,0.2c-1-1.6-2.9-10.9,0.4-10.6c2.9,0.3,0.1,9.7,4.6,10.2c2.4,0.3,4.4-1.7,4.2-4.8c-0.6-7.5-9.5-10.9-9.6-18.7	c0-1.3,0.3-3.4,1.2-4.8c3.3-4.9,10.9-3.1,11.2,3.2c0,0.8,0.1,3.1-1.4,2.8c-0.7-0.2-1-1.7-1.1-2.2C245.8,5.5,245.9,4.4,245.3,3.4z"/><path d="M267.9,3.6c-1.2,1.4-4.2,0-6.2,0.2c-0.1,8.3-0.3,16.6-1,24.8c-0.1,1.1-0.2,2.2-0.3,3.3c-0.2,1.5-0.2,3.1-2.3,2.8	c-1.7-1.2-0.7-3.6-0.6-5.4c0.7-8.1,0.5-17.6,1.2-25.7c0,0.4-4.8-0.2-5.1-0.3c-0.5-0.1-1.9-0.4-1.8-1.2c0.2-0.9,2.1-1.1,2.7-1.1	c2.1-0.3,4.1,0,6.2,0.1C264.1,1.2,268.9,0.8,267.9,3.6z"/><path d="M288.6,35.7c0.6,1,1.2,2.1,1.9,3.1c0.7,1.1,1.2,1.9,2.5,2.4c1.3,0.6,2.8,0.9,4.2,1.4c3,1,6.1,1.9,9.1,2.6	c1.7,0.4,3.4,0.7,5.2,0.9c6.9,0.9,13.8,0.8,20.3,1.8c6.3,0.9,12.4,2.3,17.9,4c7.8,2.4,16.8,5.3,22.7,10.4c0.7,0.6,5.5,5.6,2.4,6.6	c-2.1,0.7-3.2-2.8-4.2-3.8c-2.1-2-5.2-3.3-8-4.8c-2.9-1.5-5.9-2.5-9.2-3.6c-6.6-2.2-13.4-4.1-20.3-5.2c-11.5-1.7-23.5-1.9-33.5-4.8	c-4.3-1.2-9.6-2.6-12.2-6.7c-0.5-0.7-0.8-1.5-1.2-2.3c-0.3-0.7-0.3-1.3-1.1-1.5c-0.6-0.2-1.2-0.1-1.8-0.3c-0.5-0.2-1.1-0.4-1.6-0.7	c-2.1-1.3-3.5-3.5-3.8-5.9c-0.6-4.5,1.7-12.7,2.4-17.3c0.5-3.7,0.5-7.6,2.8-9.4c1.8-1.4,6.6-1.6,8.6-0.4c1.2,0.7,2.7,3.8,3,5.6	c0.4,2.4-0.5,5.4-0.8,8.6c-0.4,4.5-1.6,8.3-2.4,12.2C291,31.8,290.5,34,288.6,35.7z M281.7,22.1c-0.7,4.4-0.9,10.4,3,11	c3.7,0.6,3.5-2.1,4.2-5.2c1-4.8,2-9.2,2.6-14.6c0.2-1.7,0.8-3.4,0.6-4.8c-0.2-1.8-1.2-3.4-2.9-4.1c-1.8-0.8-4.2-0.4-4.8,1.7	c-0.4,1.5-0.3,3.2-0.5,4.7c-0.2,1.8-0.7,3.5-1.1,5.3C282.3,18.1,282,20.1,281.7,22.1z"/><path d="M214.3,35.7c-3.1,2.5-4.8-1.1-6-3.6c-2.4-4.9-5-11.1-6.8-15.6c0,4.5,1,10,1.8,14.8c0.3,1.8,1.5,5.5-1.2,5.4	c-2.2-0.1-2.6-7.9-3-10c-1.1-6.2-1.1-11.5-2-17.7c-0.1-1-0.4-2-0.3-3c0.1-1.5,1-2.7,2.5-1.8c1.5,0.8,2.2,2.6,2.8,4	c2.6,5.8,4.6,12.5,7.4,18.1c0.3-3.5-0.6-7.7-1-12.8c-0.3-3.2-2.3-11.1,1.2-11c1.8,0.5,1.3,2.6,1.4,4.4	C211.8,16.2,214.2,26.3,214.3,35.7z"/><path d="M302.8,4.6c0.7,0,1.1,1.3,1.2,2c0.1,1.3-0.4,2.7-0.6,4c-0.7,4.7-1.4,10-2.2,15.1c-0.3,2.1-1.1,4.7-0.8,6.4	c0.4,2.1,3,4,5.6,3.6c4.1-0.6,3.8-6,4.6-10.8c0.8-4.9,1.6-7.4,2.4-13.2c0.3-2,0.8-5.6,2.4-5.4c1.4,0.2,0.9,3.9,0.6,6.8	c-0.5,5.2-1.7,8.8-2.4,13.8c-0.8,5.7-1.4,10.2-6,11.8c-5.3,1.8-10.6-2.4-10.2-8.4c0.3-3.3,1.6-6.9,2-10c0.5-3.8,0.7-6.8,1.2-10.4	c0.3-1.9,0.7-4.5,1.6-5.2C302.4,4.6,302.6,4.6,302.8,4.6z"/><path d="M195.5,37.7c-2.7,1.5-3.2-4.6-3.6-6.8c-1.2-5.9-1.9-11.3-2.8-17.1c-0.2-1.5-0.8-2.9-1-4.5c-0.1-1-0.4-3,0.4-3.8	c1.5-1.4,2.5,2.5,2.7,3.4c0.1,1,0.3,2,0.5,3.1c0.8,3.7,1.3,6,1.6,9.8C193.9,27.8,196.7,33.4,195.5,37.7z"/><path d="M175,11.2c1.2,3.7,2.2,7.8,3.2,11.8c1.4,0.3,7.9-3.9,8.8-1c0.9,3-5.9,3-8,4.2c0.2,3.3,1.1,5.6,2,8.6c0.7,2.2,2.3,6.8-0.4,7	c-2,0.1-3.4-6.3-4-8.6c-0.3-1.2-0.2-2.8-0.4-4c-1-6.5-4.2-14.4-4-20.3c2.4-0.4,6-2.3,8.8-2.4c1.2,0,3.2,0.3,2.6,2.2	C183,10.4,176.8,10.2,175,11.2z"/><path d="M325.9,32.9c-1.6-0.6-2.9-1.5-4.4-2.2c-1,1.3-1.9,3.2-2.8,5c-0.4,0.9-0.7,1.8-1.4,2.6c-0.3,0.4-0.6,0.7-1.1,0.8	c-2,0.6-1.9-1.6-1.5-2.9c0.5-1.7,1.6-3.1,2.4-4.7c3.5-7,6-15.3,10.2-21.7c2.5-1.7,1.8,2.1,1.8,4.4c0,1.5,0.3,3.4,0.4,5.6	c0.3,5.9-0.5,13.3-0.8,17.5c-0.2,2.3,0.3,4.8-1.4,5C324,42.6,326.1,35.4,325.9,32.9z M322.5,27.9c1.3,0.4,2.2,1.2,3.6,1.6	c0.7-3.3,0.5-8.7,0.2-12.4C325.2,20.9,323.6,24.2,322.5,27.9z"/><path d="M341.5,12.6c-1,9.7-4.2,18.9-6.2,28.3c1.4,1.5,8,1.6,7.8,4.4c-0.3,2.8-4.3,0.2-5.4-0.2c-2.1-0.7-5.2-1-5.8-2.4	c-0.6-1.3,0.8-5.3,1.4-7.8c1.7-7.2,4.3-16.4,6.2-22.1C339.5,12.7,340.6,11.5,341.5,12.6z"/><path d="M148.5,17.2c0.8,3.4,2.1,8,3.2,11.8c0.1,0.2,4.2-1.3,4.6-1.4c0.8-0.2,1.5-0.4,2.3-0.4c1.8,0.1,2.3,1.5,0.9,2.7	c-1.2,1-3,1.2-4.4,1.5c-0.2,0-2.5,0.6-2.4,0.8c1,4.1,2.8,7.3,3.6,11.6c3.5-0.5,7.1-3.4,10.4-2.2c1.3,2.4-2.2,3.1-4.6,3.8	c-3,0.9-6.7,2.9-8.4,0.2c-0.9-1.5-1.3-4.6-2-6.8c-2.2-6.9-5.1-15.1-6.4-22.9c2.4-0.9,7.6-3.5,10.2-3.4c1,0.1,1.6,0.4,1.8,1	C158,16.2,150.2,16.3,148.5,17.2z"/><path d="M355.6,16.2c1.8,0.8,0.5,2.7,0.2,3.8c-1.7,6.9-3.1,13.4-5.4,20.5c-0.8,2.5-1.2,8.4-4.6,7c-1.2-2.3,0.5-4.9,1.4-7.6	c1.6-4.9,2.7-10.5,4.4-15.7c1-3.2,1.9-6.5,3.8-8C355.5,16.2,355.6,16.2,355.6,16.2z"/><path d="M368.6,23.1c-1,5.2-3.8,9.5-5.4,14.6c-0.7,2.2-1.1,4.8-1.8,7c-0.6,1.7-1.4,5.7-3,5.8c-3.1,0.1-0.7-5.4-0.2-6.8	c2.5-7.4,5.1-14.4,7.8-21.3c0.1-0.1-3.2-1.2-3.5-1.4c-0.6-0.3-1-0.6-1.4-1.1c-0.3-0.4-0.6-2.2,0.3-2c2.2,0.1,4.9,1.1,8.2,2.2	c2.5,0.8,5.3,1.9,5.4,3C375.2,26.4,370.1,23.6,368.6,23.1z"/><path d="M146.3,42.2c0.5,1.1,0.9,2.2,1.4,3.3c0.5,1.2,1.4,3.8-0.6,4.2c-2.3,0.4-2.6-3.2-3.4-5.2c-1-2.6-3.2-6-3.4-8.2	c-2.2,0.6-4,1.5-6.4,1.8c-0.3,0,2.3,6.6,2.6,7.2c0.5,1.2,0.9,2.3,1.2,3.5c0.3,1.1,1.2,3.8-0.7,4.1c-1.8,0.2-2.1-2.6-2.5-3.8	c-1.1-3.1-2.7-6.8-4.2-10.8c-1.4-3.8-2.4-7.9-3.2-11.6c-0.3-1.1-1.3-2.8-0.9-3.9c0.6-2,2.8,1.5,3.1,2.1c0.4,1.1,0.5,2.3,0.9,3.4	c0.7,2.5,2,4.8,2.6,7c2.6-0.3,4.4-1.3,6.6-2c-0.7-2.7-1.5-4.9-2.2-8.2c-0.4-2-2.2-6,0.2-6.2c1.2-0.1,2.3,2.9,2.6,4	c0.5,1.7,0.5,3.5,1.2,5.4c0.9,2.4,1.7,5,2.5,7.4c0.4,1.2,0.9,2.4,1.4,3.6C145.5,40.3,145.9,41.2,146.3,42.2z"/><path d="M378.1,23.3c0.1,0.2,0.2,0.3,0.3,0.5c0.3,1.3,0.1,3,0.2,4.3c0.2,2.7,0.1,5.4,0.6,8.1c1.8-1.8,4.5-3,6.6-4.8	c0.9-0.8,1.5-1.9,2.4-2.8c0.5-0.5,2.3-1.6,2.9-0.9c1,1.2-1.4,3.5-2.1,4.2c-3.1,3.4-7.6,5.8-10.4,9.6c-1,2.8-2.6,7.7-4,11.4	c-0.6,1.7-0.8,4.7-3.6,3c0.1-3.9,2.2-8.1,3.6-12.2c1-3,1.7-5.6,1.4-10.4c-0.1-1.9-0.4-3.8-0.4-5.6c0-1.4-0.2-3.6,1-4.6	C377.1,22.8,377.7,22.9,378.1,23.3z"/><path d="M118.4,28.1c2.5,5.7,5.3,13.7,8.2,20.5c0.8,2,3.6,6.9,0.6,7.4c-2.4,0.4-3-4-3.8-5.8c-2.9-6.6-5.5-13.9-7.8-20.9	c-1.9,0.4-4,2.3-6.2,1.2c-0.4-2,2.8-3.1,5.2-4.2c2.2-1,5.4-2.7,6.8-2.8c0.8-0.1,2,0.2,2,1.4C123.4,27,119.8,26.9,118.4,28.1z"/><path d="M226.2,116.1c4.7-0.1,9.5,0.2,13.5,0.2c0.4,1.5,0.5,2.9,0.2,4.4c-1.1,0.6-3,0.3-4.6,0.4c0.2,8.6-0.1,18.3,0,27.5	c-1.1,0.8-3.5,0.8-4.6,0c0-9.3,0-18.6,0-27.9c-1.7,0-3.4,0-5.2,0C225.2,119.4,224.8,116.5,226.2,116.1z"/><path d="M254.5,116.7c0.3,9.5,0.3,21.9,0,32.1c-1.1,1-2.8,0.2-4.2-0.2c-0.8-4.1-0.2-9.7-0.4-14.5c-0.6-0.4-2.1-0.1-3.1-0.2	c-0.2,4.7,0.5,10.4-0.4,14.5c-1.5,0.3-3.8,0.7-4.8-0.4c-0.4-10.2-0.1-21.4,0.6-31.1c1.3-0.4,3.4-0.1,4.6,0.2c0,4.1,0,8.1,0,12.2	c0.6,0.4,2.1,0.1,3.1,0.2c0.2-4.1-0.5-9.1,0.4-12.6C251.5,116.2,252.9,116.3,254.5,116.7z"/><path d="M270.1,117.6c0.3,1,0.4,3.1-0.4,3.6c-1.4,0.4-3.6,0.1-5.3,0.2c-0.4,2.5-0.1,5.8-0.2,8.6c1.7,0.1,3.8-0.2,5.1,0.2	c0.2,1,0.5,3.3-0.2,4c-1,0.7-3.2,0.2-4.8,0.4c-0.4,2.7-0.1,6.3-0.2,9.3c1.7,0.1,3.9-0.2,5.3,0.2c0.1,1,0.6,2.5,0.2,3.4	c-3.5,0.9-7,0.6-10.3,0c-0.2-6.6-0.4-13.4-0.4-20.6c0-3.4-0.4-6.8,0.6-9.5C262.3,116.8,267.7,116.7,270.1,117.6z"/><path d="M258.9,258.1c3.9-0.5,5.6,2.3,6.3,5.6c0.8,4.4,0.4,8.9,0.3,13.3c0,1.4,0,2.8,0.1,4.1c0.1,2.3,1.1,4.9-0.4,7	c-1.3,1.7-3.7,2.8-5.8,2.9c-1.3,0-4.3-0.5-5.5-1.8c-2.2-2.3-1.5-17.6-1.2-23C252.9,261.9,254.3,258.7,258.9,258.1z M261.2,263.2	c-0.2-0.4-0.5-0.8-1.1-1c-1.1-0.4-2.5,0.3-2.9,1.4c-1,2.4-0.2,8.1-0.2,12.4c0,1.6-0.2,3.2-0.2,4.8c0,1.9-0.1,4.1,0.8,5.9	c0.3,0.5,0.8,0.6,1.4,0.6c2,0,2-1.6,2.3-3.2c0.4-1.9,0.5-3.9,0.5-5.8c0.1-3.4-0.1-6.8-0.2-10.2c0-0.9-0.1-1.8-0.2-2.7	C261.4,264.6,261.5,263.8,261.2,263.2z"/><path d="M247.7,271c-1.2-0.3-3,0-4.1-0.4c-0.4-1-0.5-2-0.5-3c-0.1-1.6,0.4-3.8-1.7-4.3c-1.9-0.5-2.9,1.9-3,3.5	c-0.3,2.5,0,7.4,0.2,11.6c0.1,3.3-0.5,7.5,1.6,8.2c4.3,1.5,2.5-5.6,3.5-8.6c0.8-0.2,2.7-0.4,3.5,0c1.1,3.7,1,9.6-1.2,11.6	c-3,2.8-9.7,1.6-11.2-1.4c-0.5-0.9-0.8-2.6-1-3.9c-0.7-6.6,0.4-17,0.8-22c1.4-3.5,5.3-4.9,9.2-3.7c1,0.3,1.7,0.9,2.4,1.6	c0.6,0.6,1.3,1.2,1.6,2c0.3,0.9,0.2,2,0.3,2.9C248.1,265.4,248,271.1,247.7,271z"/><path d="M142.2,268.6c-0.8,0.2-2.8,0.4-3.3-0.2c-0.5-1.7,0.6-4.4-0.6-5.7c-4.4-1.9-4.5,4-2.5,7.1c2,3.2,6.5,7.2,6.9,12.2	c0.2,3.8-1,9.3-5.8,9.3c-5.8-0.1-6.4-7.2-5.4-11.4c1.1-0.2,2.6-0.5,3.7-0.2c0.6,2.3-0.8,6.6,2,6.9c1.8-1,1.4-3.9,1.2-5.1	c-0.2-1-0.8-2.3-1.4-3.3c-1.7-3-5.1-6-5.9-8.4c-1-3.1-0.2-7.9,1.2-9.4c1.6-1.8,6.3-2.6,8.8-1.2C143.3,260.3,143.1,265.6,142.2,268.6	z"/><path d="M150.8,259.4c0.5,3.1-0.2,7.2-0.2,11.6c0,4.2-0.7,8.9-0.2,12.2c0.3,2,1.8,5.2,4.7,3.5c1.4-3.5,0.8-8.6,0.8-13.3	c0-4.8,0-9.7,0-13.7c1-0.6,2.9-0.8,4.1-0.2c-0.1,5.5,0.4,11,0.3,16.6c0,3.6,0.6,8.4-0.8,11.9c-1.5,3.9-8.6,4.9-11.1,1.4	c-0.9-1.3-1.7-4.7-2-7.5c-0.3-3,0-7.8,0-12c0-4-0.5-10.1,1.2-11C148.5,258.7,150.2,258.8,150.8,259.4z"/><path d="M211.7,259.6c1.4,3.1,2.2,6.8,3.5,10c1.4-3,2.8-6,3.5-9.6c1.1-0.2,2.9-0.9,3.7,0c0,2.6-1.4,5.2-2.6,7.8	c-0.9,2.1-2.7,5.1-3.1,7.5c-0.9,5.1,1.3,10.6-0.2,15.9c-1.1,0.3-2.5,0.1-3.5,0c-0.2-4.5-0.4-9.1-0.2-13.1c0-1.1,0.4-2.1,0.2-3.1	c-0.2-1.2-1.2-2.7-1.8-4.1c-0.6-1.5-0.9-3.1-1.4-4.5c-0.7-2-2.3-3.8-1.8-6.7C209,258.8,210.6,259.4,211.7,259.6z"/><path d="M285.2,259.2c2.1,0.1,4.1-0.1,6.2,0c2.7,0,4.6,0.6,5.4,3.5c0.7,2.5,0.9,5.6,0.6,8.2c-0.1,1.1-0.5,2.6-1.2,3.4	c1.5,1,0.9,3.3,1.2,6.1c0.4,4.1,1.3,9.2-2.5,10.6c-2.4,0.9-7.2,0.1-10.2-0.2c-0.3-9.9-0.3-21.1,0-31	C284.7,259.5,284.9,259.3,285.2,259.2z M289.3,263.1c0,3.2,0,6.4,0,9.6c0.8,0,1.6,0,2.4-0.2c1.1-0.3,1.2-1,1.2-2.1	c0-2.1,0.6-5.5-1-7.1C291.1,263.2,290.3,263.1,289.3,263.1z M293.3,277.5c-0.2-0.4-0.4-0.7-0.7-0.9c-0.5-0.3-3.2-1.2-3.2,0.1	c0,3.4,0,6.8,0,10.2c1,0.4,2.9,0.4,3.9,0c0.2-0.1,0.1-4.6,0.1-5.1C293.4,280.5,293.8,278.7,293.3,277.5z"/><path d="M314.8,275.5c2.4,1.3-0.3,11.5,2.5,15.3c-1.2,0.8-3.9,0.2-5.7,0.4c-1.2-3.9,0.4-10.8-1.1-14.3c-0.6-0.3-1.3-0.3-2.2-0.2	c-0.5,4.2-0.1,9.2-0.2,13.7c-1.3,0.3-3.8,0.3-5.1,0c0.2-10.1-0.5-21.5,0.4-30.6c4.6-0.5,11.8-1.5,12.7,3.3	C316.8,266.4,316.1,273.7,314.8,275.5z M308,263.5c-0.1,3.4,0,6.8,0.2,10c0.9,0,2.9,0.1,3.4-0.7c0.4-0.5,0.1-1.5,0.1-2	c0-0.8,0.1-1.6,0.1-2.3c0-0.9-0.1-1.9-0.2-2.8c-0.1-0.5,0-1.6-0.4-2C310.5,262.9,308.8,263.7,308,263.5z"/><path d="M355,291.2c-1-2.2-0.6-5-0.6-7.6c0-7.6-0.3-16.6,0.4-23.7c3.9-0.7,9.1-0.7,11,1.8c0.8,1.1,1,2.8,0.9,4.1	c-0.1,1.8-0.2,3.6-0.2,5.4c0,3.9,0.1,7.8,0.1,11.7c0,2,0.2,4.3-0.2,6.2C365.6,292.6,358.6,291.8,355,291.2z M358.8,263.5	c0.1,7.6-0.3,15.7,0.2,22.9c1.3-0.1,3,0.2,3.9-0.2c-0.7-7,0.4-15.7-0.6-22.4C361.5,263.4,359.5,264.1,358.8,263.5z"/><path d="M186.3,276.3c-0.6,4.3,0.2,9.9-0.4,14.1c-0.8,0.8-3.1,1.1-4.1,0.2c-0.6-9.3-0.8-21.6,0.2-30.6c1.4,0,8.9-1.2,10.8,0.2	c0.6,0.4,1.3,2.7,1.4,3.1c0.6,3.4,0.4,10.7-1.2,12.2C191.3,277,188.8,276.3,186.3,276.3z M189.7,264.5c-1.3,0.1-3-0.2-3.7,0	c0.4,2.3,0.1,5.2,0.2,7.8c2,0.1,3.3,0.3,4.3-0.8C190.3,269.1,191.5,265.7,189.7,264.5z"/><path d="M202.8,260c1.1,7.4,0.4,17.3,0.6,26.1c1.4,0.2,5-0.4,6.5,0.4c0.1,1.2,0.2,3.6-0.2,4.5c-3.4,0.3-8.3,0.6-11-0.6	c0.2-10-0.5-21,0.4-30.4C200.3,259.6,201.6,259.6,202.8,260z"/><path d="M327,259.8c0.6-0.1,0.9,4.6,0.9,5c0.3,2.6,0.6,5.1,1.3,7.6c0.6,2.2,1.2,4.5,1.7,6.8c0.4,2.1,0.4,4.2,0.8,6.3	c0.3,1.8,1.4,3.7,0.8,5.5c-1.2,0.4-2.9,0.2-3.9-0.6c-0.3-2-0.5-4.2-1-6.1c-1.1-0.8-2.8-0.1-4.3-0.2c-0.3,2.4-0.2,5.1-1.2,6.9	c-0.8,0.3-2.9,0.3-3.7,0c0.8-10.2,2.6-21.2,4.5-31c0.2,0,0.1-0.4,0.4-0.4C324.6,259.6,325.5,260,327,259.8z M323.8,279.8	c1,0,2,0,2.9,0c-0.4-3.1-0.6-6.4-1.4-9.2C324.7,273.5,324.4,276.8,323.8,279.8z"/><path d="M349.3,260.4c0,4.7,0,10.2,0,15.7c0,5.4,0.6,11.1-0.8,15.3c-1.1,0.1-2.9-0.2-4.3-0.4c-1-5.3-3.2-11.1-4.3-17.1	c-0.7,5.4,0.5,11.8-0.2,17.3c-1.2,0.4-3.6,0.3-4.3-0.4c-1-8.8,0.1-21.2-0.2-30.6c1.5-0.3,3-0.2,4.4,0c2.3,4.8,4.2,9.9,5.1,16.1	c0.7-4.9-0.4-11.7,0.6-16.3C346.7,259.8,347.4,260,349.3,260.4z"/><path d="M166.3,259.8c3.5,0.8,7.1-1.2,9.6,0.4c1.7,1.1,2.9,12.6,1.2,14.9c-1.6,2.1-4.3,1.3-7.1,1.6c-0.6,4.1,0.2,9.6-0.4,13.7	c-1.1,0.2-2.9,0.4-3.9-0.4c0-9.9,0-19.7,0-29.6C165.9,260.1,166.1,259.9,166.3,259.8z M169.9,272c1.4-0.1,3.3,0.3,4.1-0.4	c-0.2-2.2-0.1-4.9-0.6-6.9c-0.9-0.4-2.2-0.4-3.5-0.4C169.9,266.9,169.9,269.4,169.9,272z"/><path d="M272.5,284.7c-0.2,2.2,0.5,5.2-0.8,6.3c-1.3,0.5-2.9,0-3.7-0.6c0.1-2-0.2-4.4,0.2-6.1C269.4,283.5,271.4,284.2,272.5,284.7z	"/><path d="M262.5,317.6c1.6-3.5-2.2-5.7-4.8-6.6c-19.9-2.3-16.3,23.2-1.5,23.8c6.3,0.2,13.2-3.2,19-5.1c1.3-0.4,4.8-1.8,6.1-0.3	c1.8,2.2-1.6,4.3-0.8,5.6c4.5,1.5,9.6-5.1,14.7-4.3c2.1,0.3,5,3.1,2.8,6.1c50.2,0,99.1,0,150.6,0c2,0,8.5-0.5,8.9,1	c0.7,2.7-7.3,1.8-9.6,1.8c-134.9,0-274.1-0.3-412.2-0.3c-2.1,0-10.4,1-10.1-1.8c0.2-1.6,6.6-1,8.6-1c50,0,99.5,0,149.1,0	c0.2-1.2-2.2-3.4-1-5.6c7.4-2.6,12.4,3.8,18.5,4c1.1-2.1-3.9-2.9-2-6.1c1.9-3.2,9.3,2.7,11.6,3.5c4.9,1.8,11.6,3.3,17,1.8	c6.6-1.8,11.3-9.7,8.6-17c-0.9-2.6-3.8-5.6-7.8-5.8c-4.7-0.2-10.1,2.2-9.1,7.9c3.7,0.3,3.7-3.7,7.6-3.8c7-0.2,6.8,10.2,0.8,12.1	c-7.5,2.4-12.9-5.2-11.1-11.4c1.4-4.7,8.9-8.6,15.4-6.3c3,1,5.5,4.2,6.3,6.1c3.6,8.6-2.4,15.5-7.3,21c5.4-0.4,11.4-0.2,17.2-0.3	c-3.2-5.6-8.8-14.2-4.6-21.8c1.6-2.9,5.2-5.6,9.6-6.1c3.4-0.4,8.2,0,10.6,2.5c5.8,5.9,0.3,17.4-7.8,16.2c-6.4-0.9-7.4-11.9,0-12.4	C258.6,315.1,260,316.8,262.5,317.6z"/><path d="M302.7,355.3c2.1,10.3,4.2,20.6,6.8,30.4c-2.3-0.1-5.5,0.3-8.1,0c-0.6-1.6-0.4-4-1-5.6c-1.1-0.5-3.1-0.1-4.6-0.2	c-0.8,1.7-0.9,4-1.3,6.1c-1.8-0.1-6.1,0.4-7.9-0.5c2.2-10.3,4.2-20.8,7.1-30.4C296.3,354.7,300.6,354.4,302.7,355.3z M297.1,373.8	c0.5,0,1,0,1.5,0c-0.3-1.7-0.1-3.8-1-4.8C297.8,370.8,297,371.9,297.1,373.8z"/><path d="M281.7,355.5c-0.2,10.1,0.4,21.8-0.2,30.6c-2.1-0.1-4.9,0.4-6.3-0.5c-0.8-4.3,0.3-8.9,0-13.7c-1.8,4.4-2.8,9.5-4.8,13.7	c-1.5,0.6-3.9,0.1-5.8,0.3c-1.9-3.5-2.7-8.1-4-12.1c-0.6,3.5,0,8.8-0.5,11.6c-1.6,0.4-4.8,0.4-6.3,0c-0.3-9.3-0.7-21,0.3-29.9	c2.4-0.5,5.8-0.1,8.6-0.3c2.3,4.8,3,11.2,5.3,15.9c2-4.9,2.9-10.9,5.1-15.7C275.5,354.9,278.8,355.1,281.7,355.5z"/><path d="M141.2,355.8c0.2,1.2-0.1,3.9,0,5.8c-1.5,0-3,0-4.6,0c-1.4,8.5,0.3,15.5-0.5,23.5c-2.3,0.2-4.9-0.3-7.8,0	c-0.7-6.7,0.1-15.8,0.3-23.3c-1.9-0.7-3.4-0.1-5.8-0.5c-0.8-1.6-0.2-3.4-0.3-5.6C129.3,355.8,134.6,355.7,141.2,355.8z"/><path d="M195.1,355.5c3.8,0.5,10.1-0.8,13.2,0.2c8.6,2.8,3.8,15.6,5.1,26.1c-1.1,6.1-12.8,4.4-19,3.8c-0.4-9.2-0.4-20.2,0-29.4	C194.5,355.9,194.8,355.7,195.1,355.5z M201.5,361.6c0,6.2,0,12.3,0,18.5c0.8,0.2,3.5,0.2,4.3-0.5c1.2-4.5,1.3-13.6,0-17.5	C204.8,361.4,203.1,361.6,201.5,361.6z"/><path d="M359.1,356c-1.4,5.4-4.5,9-6.6,13.7c2.1,6.5,7.2,10,10.1,15.7c-3.8-0.3-7.2,0.6-10.6,0c-1.7-2.6-3.4-5.2-5.6-7.3	c-0.8,2.1,0.3,6.1-0.8,7.9c-2.5,0-5.1,0-7.6,0c-0.4-9.5-0.4-20.7,0-30.1c2.6,0,5.3-0.1,7.6,0.2c0.5,2.2,0.1,5.2,0.3,7.9	c1.7-2.8,3.2-5.7,5.3-8.1C353.8,355.4,356.6,355.7,359.1,356z"/><path d="M160.5,369.4c4.7,2.5,1.7,11.1,4.8,15.2c-2.2,0.8-6.8,0.8-8.9,0.3c-2.7-2.8,1.6-12.6-3.8-12.7c-0.6,3.9,0,8.9-0.5,12.9	c-1.7,0.4-4.9,0.4-6.6,0c-0.6-9.1,0-20.3-0.3-29.1c5.4,0.2,14.7-2.2,17,2.8C163.6,361.9,163.4,367.6,160.5,369.4z M152.4,366.9	c1.4,0.1,2.4-0.1,3.3-0.5c0.1-1.8-0.1-3.2-0.5-4.6c-0.5-0.6-2.3,0.1-2.8-0.5C152.4,363.2,152.4,365.1,152.4,366.9z"/><path d="M328.8,369.4c4.7,2.5,1.7,11.1,4.8,15.2c-2.2,0.8-6.8,0.8-8.9,0.3c-2.7-2.8,1.6-12.6-3.8-12.7c-0.6,3.9,0,8.9-0.5,12.9	c-1.7,0.4-4.9,0.4-6.6,0c-0.6-9.1,0-20.3-0.3-29.1c5.4,0.2,14.7-2.2,17,2.8C331.9,361.9,331.7,367.6,328.8,369.4z M320.7,366.9	c1.4,0.1,2.4-0.1,3.3-0.5c0.1-1.8-0.1-3.2-0.5-4.6c-0.5-0.6-2.3,0.1-2.8-0.5C320.7,363.2,320.7,365.1,320.7,366.9z"/><path d="M183,356c2.5,4.1,2.4,9.5,3.5,14.4c1.1,5.1,3.2,9.9,4.1,14.7c-1.7,0.9-4.6,0-7.6,0.3c-1-1.9-1.3-4.4-2-6.6	c-0.8-0.5-2.6-0.1-3.8-0.2c-0.5,2.2-1.3,4.5-1,6.8c-2.8-0.2-6.2,0.3-8.6-0.3c1.7-9.2,4-20,6.6-29.1C176.5,356.2,179.9,355.9,183,356	z M177.9,372.5c0.6,0,1.2,0,1.8,0c-0.5-1.4-0.4-3.3-1-4.6C178.2,369.2,178.1,370.9,177.9,372.5z"/><path d="M457.1,400.1c-0.3,3.6-5.2,2.5-8.9,2.5c-11.1,0-23.2,0.2-34.4,0c-11.8-0.3-24.1-0.7-37.5-0.3c-23.5,0.8-69.3-0.8-100.5,0.3	c0.3,1.2,1.5,2.8,0.8,4.6c-1.6,4-8.5,0.8-11.4-0.5c-1.5,6-6.5,0.6-9.9-0.8c-2.3-0.9-5.7-2.1-8.4-1.3c-3.1,1-5.5,6.8-3.3,10.1	c1.4,2.1,7,3.6,8.3-1c-1.2-0.8-3,2.2-5.3,0.5c-2.9-2.2,0.1-5.3,1.8-5.6c2.4-0.4,5.7,0.8,6.3,3c1.9,7.5-8.8,8.9-12.4,5.3	c-3.9-3.9-1-11.1,2.8-14.4c-3.3,0-6.6,0-9.9,0c1,3,3.5,4.4,4.1,7.3c1.1,6.1-4.2,9.9-9.6,8.9c-4-0.8-5.5-6.1-2.8-9.1	c2-2.2,8.8-2.5,8.1,2.3c-0.6,3.9-4.8,1.7-6.6,2.5c1.8,4,8.1,1.5,8.6-2c0.4-3.2-2.2-7.2-4.6-7.9c-6.2-1.6-9.9,7.8-15.4,4.8	c-0.9-0.5-1.3-1.2-1.3-3c-2.3,3.3-13.7,3.3-9.4-3.8c-56.2,0-115.3,0-171.1-0.3c-2,0-10,0.6-10.4-1c-0.6-2.5,5.2-1.7,7.6-1.8	c22.7-1.2,46.4-0.3,68.3-0.3c66.2,0,130.1,0,196.1,0c18.6,0,40.9-0.2,50.9,0c8.8,0.2,26.4-0.2,43.8-0.2c18.9,0,38.9,0,58.2,0	C452.4,399.1,455.3,398.3,457.1,400.1z"/><path d="M234.4,355.5c1.1,1.3,1,5.4,0.3,7.1c-1.8,0.1-4.7,0.5-7.3,0c0,1.6,0,3.2,0,4.8c2,0.4,5.1-0.9,7.6,0c0.4,1.5,0.4,4.6,0,6.1	c-2,0.6-4.7,0.5-7.3,0.5c-0.6,1.4-0.1,3.8-0.2,5.6c2.5-0.1,5.5,0.2,7.6-0.3c0.7,1.4,0.7,4.6,0.3,6.3c-4,1-9.9,0.3-14.7,0.5	c-1.1-9.3-0.5-21.2,0-30.6C224.5,355.1,231.1,355.1,234.4,355.5z"/></svg>