<?xml version="1.0" encoding="iso-8859-1"?><!-- Generator: Adobe Illustrator 16.0.0, SVG Export Plug-In . SVG Version: 6.00 Build 0) --><!DOCTYPE svg PUBLIC "-//W3C//DTD SVG 1.1//EN" "http://www.w3.org/Graphics/SVG/1.1/DTD/svg11.dtd"><svg version="1.1" id="Layer_1" xmlns="http://www.w3.org/2000/svg" xmlns:xlink="http://www.w3.org/1999/xlink" x="0px" y="0px" width="256px" height="256px" viewBox="0 0 256 256" style="enable-background:new 0 0 256 256;" xml:space="preserve"><g id="_x23_000000ff"><path d="M0,0h256v256H0V0 M59.99,88.74C60.01,94.06,60,99.39,60,104.72c22.69,12.93,45.31,25.97,68,38.88	c13.67-7.89,27.34-15.79,40.99-23.709c0.05,10.45-0.061,20.89,0.061,31.34c-13.591,8.09-27.41,15.789-41.051,23.8	c-13.67-7.95-27.41-15.8-41.11-23.7c-9.06,5.12-18.09,10.279-27.13,15.43c22.66,13.23,45.51,26.141,68.24,39.26	c22.67-13.01,45.4-25.899,68.029-38.989c-0.049-26.11-0.039-52.22-0.01-78.33c-22.64-13.07-45.34-26.05-68.009-39.07	C105.33,62.64,82.66,75.68,59.99,88.74z"/><path d="M100.27,96.58c9.27-5.26,18.48-10.64,27.73-15.94c9.301,5.31,18.57,10.68,27.88,15.97c-9.31,5.32-18.59,10.66-27.88,15.99	C118.77,107.24,109.47,101.98,100.27,96.58z"/></g><g id="_x23_ffffffff"><path style="fill:#FFFFFF;" d="M59.99,88.74c22.67-13.06,45.34-26.1,68.021-39.11c22.669,13.02,45.37,26,68.009,39.07	c-0.029,26.11-0.039,52.22,0.01,78.33C173.4,180.12,150.67,193.01,128,206.02c-22.73-13.119-45.58-26.029-68.24-39.26	c9.04-5.15,18.07-10.31,27.13-15.43c13.7,7.9,27.44,15.75,41.11,23.7c13.641-8.011,27.46-15.71,41.051-23.8	c-0.121-10.45-0.011-20.891-0.061-31.34c-13.65,7.92-27.32,15.82-40.99,23.709c-22.69-12.91-45.31-25.95-68-38.88	C60,99.39,60.01,94.06,59.99,88.74 M100.27,96.58c9.2,5.4,18.5,10.66,27.73,16.02c9.29-5.33,18.57-10.67,27.88-15.99	c-9.31-5.29-18.579-10.66-27.88-15.97C118.75,85.94,109.54,91.32,100.27,96.58z"/></g></svg>