<?xml version="1.0" encoding="utf-8"?><!-- Generator: Adobe Illustrator 19.2.0, SVG Export Plug-In . SVG Version: 6.00 Build 0) --><svg version="1.1" id="Layer_1" xmlns="http://www.w3.org/2000/svg" xmlns:xlink="http://www.w3.org/1999/xlink" x="0px" y="0px" viewBox="0 0 9957.3 2010.5" style="enable-background:new 0 0 9957.3 2010.5;" xml:space="preserve"><style type="text/css">.st0{fill:#7A7A7E;}</style><g><path class="st0" d="M2557.7,1030.7c0-216.3,152.7-381.7,369-381.7c171.8,0,267.2,101.8,311.8,203.6l-120.9,57.3	c-31.8-82.7-101.8-133.6-197.2-133.6c-114.5,0-222.7,101.8-222.7,260.9c0,152.7,108.2,260.9,222.7,260.9	c101.8,0,171.8-50.9,210-133.6l120.9,50.9c-44.5,101.8-146.3,203.6-318.1,203.6C2710.4,1412.5,2557.7,1247,2557.7,1030.7z M3480.3,674.4l-6.4,101.8h6.4c38.2-63.6,127.2-120.9,229-120.9c184.5,0,273.6,120.9,273.6,299v439h-133.6V973.5	c0-146.3-76.3-197.2-178.1-197.2c-114.5,0-190.9,108.2-190.9,222.7v394.5h-133.6V349.9h133.6V674.4z M4122.9,1393.4v-719h127.2	v114.5h6.4c31.8-82.7,133.6-133.6,210-133.6c44.5,0,70,6.4,101.8,19.1l-50.9,127.2c-19.1-6.4-44.5-12.7-70-12.7	c-89.1,0-184.5,76.3-184.5,210v394.5H4122.9z M5306.3,1030.7c0,216.3-152.7,381.7-369,381.7c-216.3,0-369-165.4-369-381.7	S4721,649,4937.3,649C5153.6,649,5306.3,814.4,5306.3,1030.7z M5172.7,1030.7c0-165.4-114.5-260.9-235.4-260.9	c-120.9,0-235.4,95.4-235.4,260.9s114.5,260.9,235.4,260.9C5058.2,1291.6,5172.7,1196.1,5172.7,1030.7z M5414.5,674.4h127.2v101.8	h6.4c38.2-70,133.6-120.9,222.7-120.9c114.5,0,190.9,50.9,229,140c50.9-82.7,140-140,248.1-140c171.8,0,254.5,120.9,254.5,299v439	h-140V973.5c0-146.3-57.3-197.2-159.1-197.2c-108.2,0-184.5,108.2-184.5,222.7v394.5h-133.6V973.5c0-146.3-57.3-197.2-159.1-197.2	c-108.2,0-184.5,108.2-184.5,222.7v394.5h-133.6v-719H5414.5z M6597.9,1030.7c0-203.6,140-381.7,349.9-381.7	c210,0,349.9,152.7,349.9,381.7v25.4h-566.3c6.4,152.7,114.5,235.4,229,235.4c76.3,0,159.1-31.8,197.2-120.9l120.9,50.9	c-44.5,101.8-146.3,197.2-311.8,197.2C6744.2,1412.5,6597.9,1247,6597.9,1030.7z M6947.8,776.2c-101.8,0-178.1,70-203.6,171.8	h413.6C7151.4,884.4,7100.5,776.2,6947.8,776.2z M7374.1,1030.7c0-216.3,152.7-381.7,369-381.7c171.8,0,267.2,101.8,311.8,203.6	L7934,903.5c-31.8-82.7-101.8-133.6-197.2-133.6c-114.5,0-222.7,101.8-222.7,260.9c0,152.7,108.2,260.9,222.7,260.9	c101.8,0,171.8-50.9,210-133.6l120.9,50.9c-44.5,101.8-146.3,203.6-318.1,203.6C7526.8,1412.5,7374.1,1247,7374.1,1030.7z M8137.6,1177.1c0-159.1,146.3-248.1,311.8-248.1c95.4,0,165.4,25.4,190.9,44.5V948c0-108.2-89.1-171.8-184.5-171.8	c-76.3,0-146.3,38.2-171.8,101.8l-120.9-50.9c25.4-63.6,108.2-171.8,292.7-171.8c171.8,0,318.1,101.8,318.1,305.4v432.6h-127.2	v-101.8h-6.4c-38.2,57.3-114.5,120.9-235.4,120.9C8258.5,1412.5,8137.6,1323.4,8137.6,1177.1L8137.6,1177.1z M8640.3,1081.6	c0,0-57.3-44.5-171.8-44.5c-140,0-197.2,76.3-197.2,140c0,76.3,76.3,114.5,146.3,114.5C8532.1,1291.6,8640.3,1202.5,8640.3,1081.6z M8856.6,1208.9l120.9-50.9c38.2,89.1,108.2,133.6,190.9,133.6s140-38.2,140-101.8c0-38.2-19.1-76.3-95.4-95.4l-146.3-31.8	c-63.6-19.1-190.9-70-190.9-197.2s133.6-210,279.9-210c120.9,0,229,57.3,273.6,165.4l-114.5,50.9c-25.4-70-95.4-95.4-165.4-95.4	c-76.3,0-140,31.8-140,89.1c0,44.5,38.2,70,95.4,82.7l140,31.8c140,31.8,197.2,120.9,197.2,210c0,127.2-114.5,222.7-279.9,222.7	S8894.8,1310.7,8856.6,1208.9L8856.6,1208.9z M9620.1,1170.7V795.3h-127.2V674.4h127.2V458.1h133.6v216.3h171.8v120.9h-171.8V1158	c0,82.7,31.8,114.5,95.4,114.5c25.5,0,44.5,0,63.6-12.7l44.5,114.5c-31.8,12.7-63.6,19.1-108.2,19.1	C9702.8,1399.7,9620.1,1317,9620.1,1170.7z"/></g><path class="st0" d="M1927.8,617.2h-687.1c127.2,82.7,216.3,222.7,216.3,388.1c0,31.8-6.4,70-12.7,101.8v6.4	c-6.4,50.9-25.4,95.4-50.9,140l-432.6,757.1h38.2c553.5,0,1005.3-445.4,1005.3-1005.3C2004.2,865.3,1978.7,731.7,1927.8,617.2z M1005.3,1457c-127.2,0-248.1-57.3-330.8-140c-31.8-31.8-57.3-63.6-82.7-101.8l-12.7-12.7L152.7,470.8C57.3,623.5,0,808,0,1005.3	c0,515.4,381.7,935.3,878,992.5l343.6-598.1C1158,1437.9,1081.6,1457,1005.3,1457z M1005.3,0c-330.8,0-623.5,159.1-808,407.2	l343.6,585.3c6.4,6.4,6.4,19.1,6.4,25.4v-19.1c0-222.7,165.4-413.6,375.4-445.4h6.4c38.2-12.7,76.3-12.7,114.5-12.7h846.2	C1724.2,222.7,1387,0,1005.3,0z M1367.9,1005.3c0,203.6-165.4,362.7-362.7,362.7c-203.6,0-362.7-165.4-362.7-362.7	S808,642.6,1005.3,642.6C1202.5,636.2,1367.9,801.7,1367.9,1005.3z"/></svg>